<svg width="16" height="16" viewBox="0 0 16 16" fill="none" xmlns="http://www.w3.org/2000/svg">
<path d="M13.7083 6.65833L14.5917 5.775C15.2417 5.125 15.2417 4.06667 14.5917 3.41667L13.4167 2.24167C12.7667 1.59167 11.7083 1.59167 11.0583 2.24167L10.175 3.125L13.7083 6.65833ZM8.99167 4.3L1.33333 11.9667V15.5H4.86667L12.525 7.84167L8.99167 4.3ZM13.8333 12.5833C13.8333 14.4083 11.7167 15.5 9.66667 15.5C9.20833 15.5 8.83333 15.125 8.83333 14.6667C8.83333 14.2083 9.20833 13.8333 9.66667 13.8333C10.95 13.8333 12.1667 13.225 12.1667 12.5833C12.1667 12.1917 11.7667 11.8583 11.1417 11.5833L12.375 10.35C13.2667 10.875 13.8333 11.575 13.8333 12.5833ZM1.81667 9.125C1.00833 8.65833 0.5 8.05 0.5 7.16667C0.5 5.66667 2.075 4.975 3.46667 4.36667C4.325 3.98333 5.5 3.46667 5.5 3C5.5 2.65833 4.85 2.16667 3.83333 2.16667C2.78333 2.16667 2.33333 2.675 2.30833 2.7C2.01667 3.04167 1.49167 3.08333 1.14167 2.8C0.8 2.51667 0.733333 2.00833 1.01667 1.65C1.10833 1.53333 1.96667 0.5 3.83333 0.5C5.7 0.5 7.16667 1.6 7.16667 3C7.16667 4.55833 5.55833 5.26667 4.13333 5.89167C3.35 6.23333 2.16667 6.75 2.16667 7.16667C2.16667 7.425 2.525 7.66667 3.05833 7.88333L1.81667 9.125Z" fill="#7B87A8"/>
</svg>
