<svg width="16" height="16" viewBox="0 0 16 16" fill="none" xmlns="http://www.w3.org/2000/svg">
<path d="M8.83333 0.5H7.16667V8.83333H8.83333V0.5ZM12.8583 2.30833L11.675 3.49167C12.9917 4.55 13.8333 6.175 13.8333 8C13.8333 11.225 11.225 13.8333 8 13.8333C4.775 13.8333 2.16667 11.225 2.16667 8C2.16667 6.175 3.00833 4.55 4.31667 3.48333L3.14167 2.30833C1.525 3.68333 0.5 5.71667 0.5 8C0.5 12.1417 3.85833 15.5 8 15.5C12.1417 15.5 15.5 12.1417 15.5 8C15.5 5.71667 14.475 3.68333 12.8583 2.30833Z" fill="#E36B7D"/>
</svg>
