<svg id="Layer_2" data-name="Layer 2" xmlns="http://www.w3.org/2000/svg" width="33" height="33" viewBox="0 0 33 33">
  <g id="invisible_box" data-name="invisible box">
    <rect id="Rectangle_199" data-name="Rectangle 199" width="33" height="33" fill="none"/>
  </g>
  <g id="Q3_icons" data-name="Q3 icons" transform="translate(2.653 2.706)">
    <path id="Path_170" data-name="Path 170" d="M17.5,7.382l9.133,9.877H20.143V27H14.866V17.259H8.372L17.5,7.382M17.5,4a1.488,1.488,0,0,0-1.015.406L4.38,17.6a1.353,1.353,0,0,0,.947,2.368H12.16v8.389a1.353,1.353,0,0,0,1.353,1.353H21.5a1.353,1.353,0,0,0,1.353-1.353V19.965h6.833a1.353,1.353,0,0,0,.947-2.368L18.519,4.406A1.488,1.488,0,0,0,17.5,4Z" transform="translate(-3.921 -4)" fill="#fff"/>
  </g>
</svg>
