<?xml version="1.0" encoding="UTF-8"?>
<svg xmlns="http://www.w3.org/2000/svg" xmlns:xlink="http://www.w3.org/1999/xlink" width="100pt" height="100pt" viewBox="0 0 100 100" version="1.1">
<g id="surface334461">
<path style=" stroke:none;fill-rule:nonzero;fill:rgb(40%,40%,40%);fill-opacity:1;" d="M 28.265625 17.265625 C 21.097656 17.265625 15.265625 23.097656 15.265625 30.265625 L 15.265625 69.265625 C 15.265625 76.4375 21.097656 82.265625 28.265625 82.265625 L 67.265625 82.265625 C 74.4375 82.265625 80.265625 76.4375 80.265625 69.265625 L 80.265625 30.265625 C 80.265625 23.097656 74.4375 17.265625 67.265625 17.265625 Z M 28.265625 19.265625 L 67.265625 19.265625 C 73.332031 19.265625 78.265625 24.203125 78.265625 30.265625 L 78.265625 69.265625 C 78.265625 75.332031 73.332031 80.265625 67.265625 80.265625 L 28.265625 80.265625 C 22.203125 80.265625 17.265625 75.332031 17.265625 69.265625 L 17.265625 30.265625 C 17.265625 24.203125 22.203125 19.265625 28.265625 19.265625 Z M 31.105469 22.265625 C 25.128906 22.265625 20.269531 27.128906 20.269531 33.105469 L 20.269531 66.429688 C 20.269531 72.40625 25.128906 77.265625 31.105469 77.265625 L 64.433594 77.265625 C 70.40625 77.265625 75.269531 72.40625 75.269531 66.429688 L 75.269531 47.765625 C 75.269531 47.492188 75.042969 47.265625 74.769531 47.265625 C 74.492188 47.265625 74.269531 47.492188 74.269531 47.765625 L 74.269531 66.429688 C 74.269531 71.855469 69.855469 76.265625 64.433594 76.265625 L 31.105469 76.265625 C 25.679688 76.265625 21.269531 71.855469 21.269531 66.429688 L 21.269531 33.105469 C 21.269531 27.679688 25.679688 23.265625 31.105469 23.265625 L 64.769531 23.265625 C 65.042969 23.265625 65.269531 23.042969 65.269531 22.765625 C 65.269531 22.492188 65.042969 22.265625 64.769531 22.265625 Z M 74.765625 36.265625 C 74.492188 36.265625 74.265625 36.492188 74.265625 36.765625 L 74.265625 38.765625 C 74.265625 39.042969 74.492188 39.265625 74.765625 39.265625 C 75.042969 39.265625 75.265625 39.042969 75.265625 38.765625 L 75.265625 36.765625 C 75.265625 36.492188 75.042969 36.265625 74.765625 36.265625 Z M 42.667969 36.753906 C 42.394531 36.777344 42.191406 37.023438 42.21875 37.296875 L 42.710938 42.355469 C 42.738281 42.613281 42.957031 42.808594 43.210938 42.808594 C 43.226562 42.808594 43.242188 42.808594 43.257812 42.804688 C 43.535156 42.78125 43.734375 42.535156 43.707031 42.261719 L 43.214844 37.199219 C 43.1875 36.925781 42.945312 36.738281 42.667969 36.753906 Z M 53.980469 36.757812 C 52.203125 36.683594 50.449219 37.289062 49.152344 38.589844 L 45.726562 42.015625 C 45.53125 42.210938 45.53125 42.527344 45.726562 42.722656 L 48.03125 45.027344 C 48.21875 45.21875 48.550781 45.21875 48.738281 45.027344 L 52.164062 41.601562 C 53.207031 40.558594 54.996094 40.652344 56.148438 41.804688 C 57.304688 42.960938 57.398438 44.75 56.351562 45.792969 L 52.925781 49.21875 C 52.734375 49.414062 52.734375 49.730469 52.925781 49.925781 L 55.234375 52.230469 C 55.332031 52.328125 55.460938 52.375 55.585938 52.375 C 55.714844 52.375 55.84375 52.328125 55.941406 52.230469 L 59.367188 48.804688 C 61.964844 46.207031 61.789062 41.800781 58.972656 38.984375 C 57.5625 37.578125 55.757812 36.828125 53.980469 36.753906 Z M 53.414062 37.757812 C 55.109375 37.671875 56.898438 38.328125 58.265625 39.691406 C 60.691406 42.117188 60.867188 45.890625 58.660156 48.101562 L 55.585938 51.171875 L 53.988281 49.570312 L 57.058594 46.5 C 58.492188 45.066406 58.402344 42.644531 56.859375 41.101562 C 55.3125 39.554688 52.890625 39.460938 51.457031 40.898438 L 48.386719 43.96875 L 46.785156 42.367188 L 49.859375 39.296875 C 50.824219 38.328125 52.089844 37.820312 53.414062 37.757812 Z M 36.605469 38.117188 C 36.476562 38.117188 36.347656 38.167969 36.253906 38.265625 C 36.058594 38.460938 36.058594 38.777344 36.253906 38.972656 L 41.191406 43.910156 C 41.285156 44.007812 41.414062 44.054688 41.542969 44.054688 C 41.671875 44.054688 41.796875 44.007812 41.898438 43.910156 C 42.089844 43.714844 42.089844 43.398438 41.898438 43.203125 L 36.960938 38.265625 C 36.863281 38.167969 36.734375 38.117188 36.605469 38.117188 Z M 74.765625 40.265625 C 74.492188 40.265625 74.265625 40.492188 74.265625 40.765625 L 74.265625 44.765625 C 74.265625 45.042969 74.492188 45.265625 74.765625 45.265625 C 75.042969 45.265625 75.265625 45.042969 75.265625 44.765625 L 75.265625 40.765625 C 75.265625 40.492188 75.042969 40.265625 74.765625 40.265625 Z M 35.480469 44.609375 C 35.207031 44.597656 34.960938 44.785156 34.933594 45.058594 C 34.90625 45.332031 35.109375 45.578125 35.382812 45.605469 L 40.441406 46.101562 C 40.460938 46.101562 40.476562 46.105469 40.492188 46.105469 C 40.75 46.105469 40.964844 45.910156 40.988281 45.652344 C 41.015625 45.378906 40.816406 45.132812 40.542969 45.105469 Z M 40.410156 47.628906 C 40.28125 47.628906 40.148438 47.671875 40.054688 47.769531 L 36.632812 51.195312 C 35.367188 52.457031 34.71875 54.179688 34.796875 56.046875 C 34.878906 57.894531 35.671875 59.660156 37.027344 61.019531 C 38.507812 62.5 40.433594 63.25 42.300781 63.25 C 43.984375 63.25 45.617188 62.640625 46.847656 61.410156 L 50.273438 57.984375 C 50.46875 57.789062 50.46875 57.472656 50.273438 57.277344 L 47.96875 54.972656 C 47.773438 54.777344 47.457031 54.777344 47.261719 54.972656 L 43.835938 58.398438 C 43.339844 58.894531 42.648438 59.148438 41.90625 59.121094 C 41.144531 59.085938 40.414062 58.757812 39.847656 58.195312 C 38.691406 57.039062 38.601562 55.25 39.648438 54.207031 L 43.070312 50.78125 C 43.265625 50.585938 43.265625 50.269531 43.070312 50.074219 L 40.765625 47.769531 C 40.667969 47.671875 40.539062 47.628906 40.410156 47.628906 Z M 40.414062 48.828125 L 42.011719 50.429688 L 38.941406 53.5 C 37.507812 54.933594 37.597656 57.355469 39.144531 58.898438 C 39.882812 59.640625 40.851562 60.074219 41.867188 60.117188 C 42.898438 60.175781 43.847656 59.804688 44.546875 59.101562 L 47.617188 56.03125 L 49.21875 57.632812 L 46.144531 60.703125 C 43.933594 62.914062 40.164062 62.734375 37.738281 60.308594 C 36.554688 59.128906 35.871094 57.601562 35.800781 56.003906 C 35.730469 54.421875 36.277344 52.964844 37.34375 51.902344 Z M 55.335938 53.269531 C 55.066406 53.261719 54.816406 53.445312 54.789062 53.722656 C 54.761719 53.996094 54.964844 54.242188 55.238281 54.265625 L 60.300781 54.761719 C 60.316406 54.765625 60.332031 54.765625 60.347656 54.765625 C 60.605469 54.765625 60.824219 54.574219 60.847656 54.3125 C 60.875 54.039062 60.671875 53.792969 60.398438 53.765625 Z M 54.238281 55.316406 C 54.109375 55.316406 53.980469 55.367188 53.882812 55.460938 C 53.691406 55.65625 53.691406 55.976562 53.882812 56.167969 L 58.820312 61.105469 C 58.921875 61.207031 59.046875 61.253906 59.175781 61.253906 C 59.304688 61.253906 59.429688 61.203125 59.527344 61.105469 C 59.722656 60.914062 59.722656 60.59375 59.527344 60.398438 L 54.589844 55.460938 C 54.492188 55.367188 54.367188 55.316406 54.238281 55.316406 Z M 52.519531 56.566406 C 52.246094 56.59375 52.046875 56.835938 52.074219 57.113281 L 52.566406 62.171875 C 52.589844 62.433594 52.808594 62.625 53.066406 62.625 C 53.082031 62.625 53.097656 62.625 53.113281 62.621094 C 53.386719 62.597656 53.589844 62.351562 53.5625 62.078125 L 53.070312 57.015625 C 53.039062 56.742188 52.792969 56.554688 52.519531 56.566406 Z M 52.519531 56.566406 "/>
</g>
</svg>
