<svg xmlns="http://www.w3.org/2000/svg" width="16" height="16" viewBox="0 0 16 16" fill="none">
  <path d="M8 14C10.7951 14 13.1437 12.0888 13.8105 9.50196M8 14C5.20495 14 2.85628 12.0888 2.18953 9.50196M8 14C9.65685 14 11 11.3137 11 8C11 4.68629 9.65685 2 8 2M8 14C6.34315 14 5 11.3137 5 8C5 4.68629 6.34315 2 8 2M8 2C10.2435 2 12.1993 3.23129 13.2287 5.05497M8 2C5.75654 2 3.80066 3.23129 2.77128 5.05497M13.2287 5.05497C11.8265 6.26693 9.99885 7 8 7C6.00115 7 4.17351 6.26693 2.77128 5.05497M13.2287 5.05497C13.7198 5.92495 14 6.92975 14 8C14 8.51866 13.9342 9.02194 13.8105 9.50196M13.8105 9.50196C12.0889 10.4565 10.1079 11 8 11C5.89207 11 3.91108 10.4565 2.18953 9.50196M2.18953 9.50196C2.06581 9.02194 2 8.51866 2 8C2 6.92975 2.28022 5.92495 2.77128 5.05497" stroke="#ABABB5" stroke-linecap="round" stroke-linejoin="round"/>
</svg>