<?xml version="1.0" encoding="UTF-8"?>
<svg xmlns="http://www.w3.org/2000/svg" xmlns:xlink="http://www.w3.org/1999/xlink" width="64pt" height="64pt" viewBox="0 0 64 64" version="1.1">
<g id="surface17310772">
<path style=" stroke:none;fill-rule:nonzero;fill:rgb(27.843137%,53.333333%,78.039216%);fill-opacity:1;" d="M 32 0 C 23.179688 0 16 7.179688 16 16 L 16 24.488281 C 11.691406 28.679688 9 34.53125 9 41 C 9 53.679688 19.320312 64 32 64 C 44.679688 64 55 53.679688 55 41 C 55 34.53125 52.308594 28.679688 48 24.488281 L 48 16 C 48 7.179688 40.820312 0 32 0 Z M 32 2 C 32.679688 2 33.34375 2.066406 34 2.160156 L 34 6.203125 C 33.351562 6.070312 32.683594 6 32 6 C 31.316406 6 30.648438 6.070312 30 6.203125 L 30 2.160156 C 30.65625 2.066406 31.320312 2 32 2 Z M 28 2.589844 L 28 6.84375 C 24.472656 8.390625 22 11.914062 22 16 L 22 20.292969 C 20.578125 20.980469 19.238281 21.8125 18 22.769531 L 18 16 C 18 9.671875 22.222656 4.316406 28 2.589844 Z M 36 2.589844 C 41.777344 4.316406 46 9.671875 46 16 L 46 22.769531 C 44.761719 21.808594 43.421875 20.980469 42 20.289062 L 42 16 C 42 11.910156 39.527344 8.390625 36 6.84375 Z M 32 8 C 36.410156 8 40 11.589844 40 16 L 40 19.4375 C 37.511719 18.507812 34.808594 18 32 18 C 29.191406 18 26.488281 18.507812 24 19.4375 L 24 16 C 24 11.589844 27.589844 8 32 8 Z M 32 20 C 34.828125 20 37.53125 20.558594 40 21.589844 C 40.691406 21.871094 41.351562 22.1875 42 22.539062 C 43.449219 23.328125 44.789062 24.28125 46 25.359375 C 46.71875 26 47.378906 26.691406 48 27.421875 C 51.109375 31.078125 53 35.820312 53 41 C 53 52.578125 43.578125 62 32 62 C 20.421875 62 11 52.578125 11 41 C 11 35.820312 12.890625 31.078125 16 27.421875 C 16.621094 26.691406 17.28125 26 18 25.359375 C 19.210938 24.28125 20.550781 23.328125 22 22.539062 C 22.648438 22.1875 23.308594 21.871094 24 21.589844 C 26.46875 20.558594 29.171875 20 32 20 Z M 32 24 C 22.625 24 15 31.625 15 41 C 15 42.105469 15.105469 43.207031 15.316406 44.277344 C 15.410156 44.753906 15.828125 45.085938 16.296875 45.085938 C 16.359375 45.085938 16.425781 45.078125 16.488281 45.066406 C 17.03125 44.960938 17.386719 44.4375 17.28125 43.894531 C 17.09375 42.949219 17 41.976562 17 41 C 17 32.730469 23.730469 26 32 26 C 33.460938 26 34.898438 26.210938 36.285156 26.621094 C 36.816406 26.78125 37.371094 26.476562 37.53125 25.949219 C 37.6875 25.417969 37.382812 24.859375 36.855469 24.703125 C 35.285156 24.234375 33.652344 24 32 24 Z M 40.632812 26.4375 C 40.246094 26.378906 39.847656 26.546875 39.625 26.894531 C 39.332031 27.363281 39.476562 27.980469 39.941406 28.273438 C 40.511719 28.628906 41.058594 29.023438 41.574219 29.453125 C 41.761719 29.609375 41.988281 29.683594 42.214844 29.683594 C 42.5 29.683594 42.785156 29.558594 42.984375 29.324219 C 43.335938 28.898438 43.277344 28.265625 42.855469 27.914062 C 42.269531 27.429688 41.648438 26.980469 41.003906 26.578125 C 40.886719 26.503906 40.761719 26.460938 40.632812 26.4375 Z M 45.15625 30.675781 C 44.90625 30.636719 44.636719 30.691406 44.410156 30.855469 C 43.964844 31.175781 43.863281 31.800781 44.183594 32.25 C 46.027344 34.808594 47 37.835938 47 41 C 47 47.867188 42.359375 53.84375 35.714844 55.535156 C 35.175781 55.671875 34.855469 56.21875 34.988281 56.753906 C 35.105469 57.207031 35.511719 57.503906 35.957031 57.503906 C 36.039062 57.503906 36.125 57.496094 36.203125 57.472656 C 43.738281 55.554688 49 48.78125 49 41 C 49 37.414062 47.898438 33.984375 45.808594 31.082031 C 45.648438 30.859375 45.410156 30.71875 45.15625 30.675781 Z M 32.082031 32 C 31.632812 31.996094 31.179688 32.039062 30.726562 32.132812 C 28.394531 32.617188 26.535156 34.527344 26.105469 36.886719 C 25.722656 38.96875 26.445312 41.054688 28 42.449219 L 28 46 C 28 48.207031 29.792969 50 32 50 C 34.207031 50 36 48.207031 36 46 L 36 42.449219 C 37.277344 41.308594 38 39.714844 38 38 C 38 36.1875 37.191406 34.488281 35.785156 33.34375 C 34.730469 32.484375 33.429688 32.019531 32.082031 32 Z M 32.011719 34 C 32.929688 34 33.796875 34.308594 34.523438 34.894531 C 35.460938 35.660156 36 36.789062 36 38 C 36 39.25 35.414062 40.410156 34.394531 41.179688 C 34.144531 41.367188 34 41.664062 34 41.980469 L 34 46 C 34 47.101562 33.101562 48 32 48 C 30.898438 48 30 47.101562 30 46 L 30 41.980469 C 30 41.664062 29.855469 41.367188 29.605469 41.179688 C 28.363281 40.242188 27.789062 38.773438 28.070312 37.246094 C 28.355469 35.679688 29.585938 34.414062 31.132812 34.09375 C 31.429688 34.03125 31.722656 34 32.011719 34 Z M 18.75 48.007812 C 18.625 48.023438 18.496094 48.066406 18.375 48.136719 L 16.644531 49.136719 C 16.164062 49.410156 16 50.023438 16.277344 50.5 C 16.464844 50.820312 16.796875 51 17.144531 51 C 17.3125 51 17.488281 50.957031 17.644531 50.863281 L 19.375 49.863281 C 19.855469 49.589844 20.019531 48.976562 19.742188 48.5 C 19.535156 48.140625 19.136719 47.960938 18.75 48.007812 Z M 21.914062 51.730469 C 21.660156 51.75 21.414062 51.871094 21.234375 52.082031 L 19.949219 53.613281 C 19.59375 54.035156 19.648438 54.667969 20.074219 55.023438 C 20.257812 55.179688 20.488281 55.257812 20.714844 55.257812 C 21 55.257812 21.285156 55.136719 21.484375 54.902344 L 22.765625 53.367188 C 23.121094 52.945312 23.070312 52.3125 22.644531 51.957031 C 22.433594 51.78125 22.167969 51.707031 21.914062 51.730469 Z M 26.160156 54.15625 C 25.773438 54.175781 25.414062 54.425781 25.273438 54.8125 L 24.589844 56.691406 C 24.402344 57.210938 24.667969 57.785156 25.1875 57.972656 C 25.300781 58.015625 25.414062 58.035156 25.53125 58.035156 C 25.9375 58.035156 26.320312 57.785156 26.46875 57.375 L 27.152344 55.496094 C 27.339844 54.976562 27.074219 54.40625 26.554688 54.21875 C 26.425781 54.167969 26.292969 54.148438 26.160156 54.15625 Z M 31 55 C 30.449219 55 30 55.449219 30 56 L 30 58 C 30 58.550781 30.449219 59 31 59 C 31.550781 59 32 58.550781 32 58 L 32 56 C 32 55.449219 31.550781 55 31 55 Z M 31 55 "/>
</g>
</svg>
