<?xml version="1.0" encoding="UTF-8"?>
<svg xmlns="http://www.w3.org/2000/svg" xmlns:xlink="http://www.w3.org/1999/xlink" width="48pt" height="48pt" viewBox="0 0 48 48" version="1.1">
<g id="surface3139998">
<path style=" stroke:none;fill-rule:nonzero;fill:rgb(17.647059%,80.784314%,53.72549%);fill-opacity:1;" d="M 24 4 C 12.972656 4 4 12.972656 4 24 C 4 35.027344 12.972656 44 24 44 C 35.027344 44 44 35.027344 44 24 C 44 21.746094 43.609375 19.589844 42.917969 17.566406 L 39.679688 20.804688 C 39.890625 21.835938 40 22.90625 40 24 C 40 32.820312 32.820312 40 24 40 C 15.179688 40 8 32.820312 8 24 C 8 15.179688 15.179688 8 24 8 C 27.265625 8 30.304688 8.988281 32.839844 10.675781 L 35.703125 7.8125 C 32.40625 5.425781 28.371094 4 24 4 Z M 42.585938 6.585938 L 22 27.171875 L 15.414062 20.585938 L 12.585938 23.414062 L 22 32.828125 L 45.414062 9.414062 Z M 42.585938 6.585938 "/>
</g>
</svg>
