<svg width="20" height="20" viewBox="0 0 20 20" fill="none" xmlns="http://www.w3.org/2000/svg">
<path fill-rule="evenodd" clip-rule="evenodd" d="M19.5999 3.0001V12.6001C19.5999 13.2366 19.347 13.8471 18.897 14.2972C18.4469 14.7472 17.8364 15.0001 17.1999 15.0001H11.1999L5.1999 19.8001V15.0001H2.7999C2.16338 15.0001 1.55293 14.7472 1.10285 14.2972C0.652759 13.8471 0.399902 13.2366 0.399902 12.6001V3.0001C0.399902 2.36358 0.652759 1.75313 1.10285 1.30304C1.55293 0.852954 2.16338 0.600098 2.7999 0.600098H17.1999C17.8364 0.600098 18.4469 0.852954 18.897 1.30304C19.347 1.75313 19.5999 2.36358 19.5999 3.0001ZM6.3999 6.6001H3.9999V9.0001H6.3999V6.6001ZM8.7999 6.6001H11.1999V9.0001H8.7999V6.6001ZM15.9999 6.6001H13.5999V9.0001H15.9999V6.6001Z" fill="#040317"/>
</svg>
