<svg width="25" height="24" viewBox="0 0 25 24" fill="none" xmlns="http://www.w3.org/2000/svg">
<circle cx="12.5" cy="12" r="12" fill="white"/>
<path d="M17.2561 7.2374C16.0707 6.05615 14.4902 5.3999 12.8219 5.3999C9.35366 5.3999 6.5439 8.1999 6.5439 11.6562C6.5439 12.7499 6.85122 13.8437 7.37805 14.7624L6.5 17.9999L9.83659 17.1249C10.7585 17.6062 11.7683 17.8687 12.8219 17.8687C16.2902 17.8687 19.1 15.0687 19.1 11.6124C19.0561 9.99365 18.4415 8.41865 17.2561 7.2374ZM15.8512 13.8874C15.7195 14.2374 15.1049 14.5874 14.7976 14.6312C14.5341 14.6749 14.1829 14.6749 13.8317 14.5874C13.6122 14.4999 13.3049 14.4124 12.9537 14.2374C11.3732 13.5812 10.3634 12.0062 10.2756 11.8749C10.1878 11.7874 9.61707 11.0437 9.61707 10.2562C9.61707 9.46865 10.0122 9.11865 10.1439 8.94365C10.2756 8.76865 10.4512 8.76865 10.5829 8.76865C10.6707 8.76865 10.8024 8.76865 10.8902 8.76865C10.978 8.76865 11.1098 8.7249 11.2415 9.03115C11.3732 9.3374 11.6805 10.1249 11.7244 10.1687C11.7683 10.2562 11.7683 10.3437 11.7244 10.4312C11.6805 10.5187 11.6366 10.6062 11.5488 10.6937C11.461 10.7812 11.3732 10.9124 11.3293 10.9562C11.2415 11.0437 11.1537 11.1312 11.2415 11.2624C11.3293 11.4374 11.6366 11.9187 12.1195 12.3562C12.7341 12.8812 13.2171 13.0562 13.3927 13.1437C13.5683 13.2312 13.6561 13.1874 13.7439 13.0999C13.8317 13.0124 14.139 12.6624 14.2268 12.4874C14.3146 12.3124 14.4463 12.3562 14.578 12.3999C14.7098 12.4437 15.5 12.8374 15.6317 12.9249C15.8073 13.0124 15.8951 13.0562 15.939 13.0999C15.9829 13.2312 15.9829 13.5374 15.8512 13.8874Z" fill="#48C95F"/>
</svg>
