<svg width="40" height="40" viewBox="0 0 40 40" fill="none" xmlns="http://www.w3.org/2000/svg">
<rect width="40" height="40" rx="12" fill="#1D1C37"/>
<path d="M15.25 16.5C17.0449 16.5 18.5 15.0449 18.5 13.25C18.5 11.4551 17.0449 10 15.25 10C13.4551 10 12 11.4551 12 13.25C12 15.0449 13.4551 16.5 15.25 16.5Z" fill="#AAB1C3"/>
<path d="M15 30C16.6569 30 18 28.6569 18 27C18 25.3431 16.6569 24 15 24C13.3431 24 12 25.3431 12 27C12 28.6569 13.3431 30 15 30Z" fill="#AAB1C3"/>
<path d="M29 30C30.6569 30 32 28.6569 32 27C32 25.3431 30.6569 24 29 24C27.3431 24 26 25.3431 26 27C26 28.6569 27.3431 30 29 30Z" fill="#AAB1C3"/>
<path opacity="0.4" d="M29.17 23.98C28.2 21.2 25.58 19.33 22.63 19.33C22.62 19.33 22.61 19.33 22.6 19.33L19.07 19.34C17.55 19.36 16.19 18.33 15.78 16.85V15C15.78 14.58 15.44 14.24 15.01 14.24C14.58 14.24 14.25 14.58 14.25 15V26.22C14.25 26.64 14.59 26.98 15.01 26.98C15.43 26.98 15.78 26.64 15.78 26.22V19.6C16.66 20.38 17.81 20.86 19.06 20.86C19.07 20.86 19.07 20.86 19.08 20.86L22.61 20.85C22.62 20.85 22.62 20.85 22.63 20.85C24.92 20.85 26.97 22.3 27.72 24.47C27.83 24.79 28.13 24.98 28.44 24.98C28.52 24.98 28.61 24.97 28.69 24.94C29.1 24.82 29.31 24.38 29.17 23.98Z" fill="#AAB1C3"/>
</svg>
