<svg width="40" height="40" viewBox="0 0 40 40" fill="none" xmlns="http://www.w3.org/2000/svg">
<rect width="40" height="40" rx="12" fill="#1D1C37"/>
<path d="M27.3 15.92V21.07C27.3 24.15 25.54 25.47 22.9 25.47H14.11C13.66 25.47 13.23 25.43 12.83 25.34C12.58 25.3 12.34 25.23 12.12 25.15C10.62 24.59 9.70996 23.29 9.70996 21.07V15.92C9.70996 12.84 11.47 11.52 14.11 11.52H22.9C25.14 11.52 26.75 12.47 27.18 14.64C27.25 15.04 27.3 15.45 27.3 15.92Z" fill="#AAB1C3"/>
<path opacity="0.4" d="M30.3001 18.9201V24.0701C30.3001 27.1501 28.5401 28.4701 25.9001 28.4701H17.1101C16.3701 28.4701 15.7001 28.3701 15.1201 28.1501C13.9301 27.7101 13.1201 26.8001 12.8301 25.3401C13.2301 25.4301 13.6601 25.4701 14.1101 25.4701H22.9001C25.5401 25.4701 27.3001 24.1501 27.3001 21.0701V15.9201C27.3001 15.4501 27.2601 15.0301 27.1801 14.6401C29.0801 15.0401 30.3001 16.3801 30.3001 18.9201Z" fill="#AAB1C3"/>
<path d="M18.4999 21.1399C19.9579 21.1399 21.1399 19.9579 21.1399 18.4999C21.1399 17.0418 19.9579 15.8599 18.4999 15.8599C17.0418 15.8599 15.8599 17.0418 15.8599 18.4999C15.8599 19.9579 17.0418 21.1399 18.4999 21.1399Z" fill="#3B405E"/>
<path d="M12.7798 16.25C12.3698 16.25 12.0298 16.59 12.0298 17V20C12.0298 20.41 12.3698 20.75 12.7798 20.75C13.1898 20.75 13.5298 20.41 13.5298 20V17C13.5298 16.59 13.1998 16.25 12.7798 16.25Z" fill="#3B405E"/>
<path d="M24.21 16.25C23.8 16.25 23.46 16.59 23.46 17V20C23.46 20.41 23.8 20.75 24.21 20.75C24.62 20.75 24.96 20.41 24.96 20V17C24.96 16.59 24.63 16.25 24.21 16.25Z" fill="#3B405E"/>
</svg>
