<svg width="361" height="347" viewBox="0 0 361 347" fill="none" xmlns="http://www.w3.org/2000/svg">
<g clip-path="url(#clip0_1052_6886)">
<path opacity="0.5" d="M122.46 1.77086C82.3002 -3.45914 41.4202 2.77086 1.90019 22.1209C2.39019 64.4509 -1.11981 112.861 0.370186 183.081C6.71019 172.841 13.7502 162.271 21.5202 151.391C66.6402 88.2109 159.75 55.8609 197.05 101.371C202.59 108.131 214.85 131.471 214.85 131.471L252.47 130.301C252.47 125.881 243.23 100.181 239.38 88.6909C229.93 60.5409 193 10.9409 122.46 1.77086Z" fill="url(#paint0_linear_1052_6886)"/>
<path opacity="0.5" d="M154.22 233.54C176.58 242.09 195.86 263.4 202.71 272.99C192.85 264.22 177.23 246.69 154.22 236C138.46 228.68 112.85 225.31 101.62 225.31C109.84 224.49 131.87 224.98 154.22 233.53V233.54Z" fill="#B8C1D1"/>
<path opacity="0.5" d="M326.32 216.97C332.35 198.17 349.03 181.32 356.62 175.24C349.85 183.76 336.11 197.42 328.35 216.85C323.04 230.16 321.42 251.41 321.93 260.66C320.88 253.93 320.29 235.76 326.32 216.96V216.97Z" fill="#B8C1D1"/>
<path d="M283.17 141.679L266.97 166.329L258.85 127.539C268.31 122.859 274.76 113.719 276.02 103.249L278.33 83.9993C278.56 82.1193 281.23 81.9793 281.65 83.8193L288.33 113.059C290.58 122.909 288.72 133.249 283.17 141.689V141.679Z" fill="url(#paint1_linear_1052_6886)"/>
<path d="M191.39 164.67L217.42 178.54L205.95 140.61C195.41 141.03 185.36 136.11 179.24 127.51L167.99 111.72C166.89 110.18 164.48 111.34 165 113.16L173.14 142.02C175.88 151.74 182.47 159.92 191.39 164.67Z" fill="url(#paint2_linear_1052_6886)"/>
<path d="M221.74 101.329C235.54 97.8993 244.37 97.4893 249.76 100.189C250.76 100.689 254.98 113.639 255.31 114.699L273.07 171.109L293 241.659L233.33 258.049C219.4 203.439 215.89 182.429 202.24 128.639C201.78 126.819 199.77 114.349 201.08 112.999C204.98 108.999 208.94 104.499 221.75 101.319L221.74 101.329Z" fill="white"/>
<path d="M221.74 101.329C235.54 97.8993 244.37 97.4893 249.76 100.189C250.76 100.689 254.98 113.639 255.31 114.699L273.07 171.109L293 241.659L233.33 258.049C219.4 203.439 215.83 184.649 202.24 128.639C201.78 126.819 199.77 114.349 201.08 112.999C204.98 108.999 208.94 104.499 221.75 101.319L221.74 101.329Z" fill="url(#paint3_linear_1052_6886)"/>
<path d="M202.23 128.64C206.37 122.79 215.01 116.79 225.83 113.95C235.16 111.51 243.18 111.26 249.3 112.89C251.6 113.5 253.62 114.16 255.3 114.7L250.81 101.33C250.41 100.13 249.44 99.2 248.23 98.83C242.63 97.12 233.93 95.86 222 98.99C211.51 101.74 205.37 106.59 201.07 110.64C199.64 111.98 199.01 113.96 199.41 115.87L202.24 128.63L202.23 128.64Z" fill="url(#paint4_linear_1052_6886)"/>
<path d="M261.24 240.839L226.56 111.779" stroke="url(#paint5_linear_1052_6886)" stroke-width="1.97"/>
<path d="M256.75 131.151C257.838 131.151 258.72 130.269 258.72 129.181C258.72 128.093 257.838 127.211 256.75 127.211C255.662 127.211 254.78 128.093 254.78 129.181C254.78 130.269 255.662 131.151 256.75 131.151Z" fill="#E98383"/>
<path d="M286.34 235.2C287.428 235.2 288.31 234.318 288.31 233.23C288.31 232.142 287.428 231.26 286.34 231.26C285.252 231.26 284.37 232.142 284.37 233.23C284.37 234.318 285.252 235.2 286.34 235.2Z" fill="#E98383"/>
<path d="M241.88 129.03C242.968 129.03 243.85 128.148 243.85 127.06C243.85 125.972 242.968 125.09 241.88 125.09C240.792 125.09 239.91 125.972 239.91 127.06C239.91 128.148 240.792 129.03 241.88 129.03Z" fill="#E98383"/>
<path d="M270.02 233.729C271.108 233.729 271.99 232.847 271.99 231.759C271.99 230.671 271.108 229.789 270.02 229.789C268.932 229.789 268.05 230.671 268.05 231.759C268.05 232.847 268.932 233.729 270.02 233.729Z" fill="#E98383"/>
<path d="M219.05 135.161C220.138 135.161 221.02 134.279 221.02 133.191C221.02 132.103 220.138 131.221 219.05 131.221C217.962 131.221 217.08 132.103 217.08 133.191C217.08 134.279 217.962 135.161 219.05 135.161Z" fill="#E98383"/>
<path d="M247.17 239.86C248.258 239.86 249.14 238.978 249.14 237.89C249.14 236.802 248.258 235.92 247.17 235.92C246.082 235.92 245.2 236.802 245.2 237.89C245.2 238.978 246.082 239.86 247.17 239.86Z" fill="#E98383"/>
<path d="M209.16 143.95C210.248 143.95 211.13 143.068 211.13 141.98C211.13 140.892 210.248 140.01 209.16 140.01C208.072 140.01 207.19 140.892 207.19 141.98C207.19 143.068 208.072 143.95 209.16 143.95Z" fill="#E98383"/>
<path d="M234.81 249.76C235.898 249.76 236.78 248.878 236.78 247.79C236.78 246.702 235.898 245.82 234.81 245.82C233.722 245.82 232.84 246.702 232.84 247.79C232.84 248.878 233.722 249.76 234.81 249.76Z" fill="#E98383"/>
<path d="M300.05 281.46C299.47 266.28 294.21 249.33 292.98 241.66C287.62 239.92 276.6 236.61 260.12 241.08C243.65 245.55 236.17 253.83 233 257.26C234.79 264.87 240.08 282.48 245.71 293.92C255.04 312.88 271.77 325.94 282.51 323.22C293.69 320.39 300.83 301.99 300.05 281.45V281.46Z" fill="url(#paint6_linear_1052_6886)"/>
<path d="M350.04 317.64C339.58 325.19 330.95 330.44 315.51 337.85C313.15 338.98 308.51 340.6 306.05 341.5C300.06 343.67 286.56 346.17 272.1 346.17C252.01 346.17 236.53 343.96 218.28 337.23C201.71 331.11 161.04 311.41 161.04 311.41C176.02 317.12 209.06 325.12 221.45 311.41C233.84 297.7 212.16 245.44 199.76 221.02C219.38 246.47 260.48 297.07 267.92 295.82C275.35 294.57 282.38 273.48 284.96 263.09C284.44 272.44 286.51 291.14 298.9 291.14C311.29 291.14 345.37 264.13 360.86 250.62C345.89 268.8 316.87 306.41 320.58 311.4C324.3 316.39 341.75 317.63 350.01 317.63L350.04 317.64Z" fill="url(#paint7_linear_1052_6886)"/>
<path d="M316.77 329.11C306.44 339.89 284.36 341.33 273.9 341.02C251.69 340.36 227.9 332.29 217.42 325.75C224.9 326.31 241.22 325.98 246.61 320.14C252 314.3 242.12 294.51 236.51 285.34C246.8 296.19 262.89 317.9 273.56 317.9C278.5 317.9 283.48 306.67 285.35 301.06C285.72 306.11 287.93 316.55 293.77 317.9C299.61 319.25 311.54 307.23 316.78 301.06C311.36 309.29 301.4 326.43 305 329.13C308.59 331.82 314.35 330.25 316.78 329.13L316.77 329.11Z" fill="url(#paint8_linear_1052_6886)"/>
<mask id="mask0_1052_6886" style="mask-type:alpha" maskUnits="userSpaceOnUse" x="199" y="97" width="57" height="32">
<path d="M202.23 128.64C206.37 122.79 215.01 116.79 225.83 113.95C235.16 111.51 243.18 111.26 249.3 112.89C251.6 113.5 253.62 114.16 255.3 114.7L250.81 101.33C250.41 100.13 249.44 99.2 248.23 98.83C242.63 97.12 233.93 95.86 222 98.99C211.51 101.74 205.37 106.59 201.07 110.64C199.64 111.98 199.01 113.96 199.41 115.87L202.24 128.63L202.23 128.64Z" fill="url(#paint9_linear_1052_6886)"/>
</mask>
<g mask="url(#mask0_1052_6886)">
<path d="M247.47 114.3L242.75 97.0195M237.69 113.34L232.96 96.2695M209.58 124.43L204.76 105.96M217.1 118.65L212.59 100.92" stroke="url(#paint10_linear_1052_6886)" stroke-width="1.97"/>
</g>
<mask id="mask1_1052_6886" style="mask-type:alpha" maskUnits="userSpaceOnUse" x="200" y="98" width="93" height="161">
<path d="M221.74 101.329C235.54 97.8993 244.37 97.4893 249.76 100.189C250.76 100.689 254.98 113.639 255.31 114.699L273.07 171.109L293 241.659L233.33 258.049C219.4 203.439 215.83 184.649 202.24 128.639C201.78 126.819 199.77 114.349 201.08 112.999C204.98 108.999 208.94 104.499 221.75 101.319L221.74 101.329Z" fill="url(#paint11_linear_1052_6886)"/>
</mask>
<g mask="url(#mask1_1052_6886)">
<path d="M260.72 125.82C256.44 123.94 242.87 120.67 229.88 124.16C216.89 127.65 206.74 136.35 203.52 139.48" stroke="#F4AAAA" stroke-width="1.97"/>
<path d="M271.13 162.17C266.85 160.29 252.13 158.3 239.14 161.79C223.75 165.94 215.85 175.1 212.63 178.23" stroke="url(#paint12_linear_1052_6886)" stroke-width="1.97"/>
<path d="M283.03 199.05C278.75 197.17 262.82 194.91 249.83 198.4C234.14 203.15 224.24 212.17 221.02 215.3" stroke="url(#paint13_linear_1052_6886)" stroke-width="1.97"/>
<path d="M292.01 229.78C287.73 227.9 271 225.36 258.01 228.85C241.88 232.89 232.46 243.6 229.24 246.73" stroke="url(#paint14_linear_1052_6886)" stroke-width="1.97"/>
</g>
<path d="M218.56 115.3C222.79 129.98 229.07 143.49 237.25 151.56C240.82 141.68 239.26 124.9 235.23 110.45C231.21 96 219.83 63.66 214.18 64.47C209.33 65.16 214.52 101.28 218.56 115.3Z" fill="url(#paint15_linear_1052_6886)"/>
<path d="M262.059 217.137C271.722 210.653 274.3 197.564 267.817 187.901C261.333 178.238 248.244 175.66 238.581 182.144C228.918 188.627 226.34 201.716 232.823 211.379C239.307 221.043 252.396 223.62 262.059 217.137Z" fill="url(#paint16_linear_1052_6886)"/>
<path d="M250.32 216.19C259.46 216.19 266.87 208.78 266.87 199.64C266.87 190.5 259.46 183.09 250.32 183.09C241.18 183.09 233.77 190.5 233.77 199.64C233.77 208.78 241.18 216.19 250.32 216.19Z" fill="url(#paint17_linear_1052_6886)"/>
</g>
<defs>
<linearGradient id="paint0_linear_1052_6886" x1="221.79" y1="40.7809" x2="26.6102" y2="112.541" gradientUnits="userSpaceOnUse">
<stop stop-color="#D2D5DE"/>
<stop offset="0.92" stop-color="#EDEEF5" stop-opacity="0"/>
</linearGradient>
<linearGradient id="paint1_linear_1052_6886" x1="292.33" y1="157.309" x2="244.65" y2="71.8493" gradientUnits="userSpaceOnUse">
<stop stop-color="#EB162F"/>
<stop offset="1" stop-color="#E998A2"/>
</linearGradient>
<linearGradient id="paint2_linear_1052_6886" x1="190.84" y1="182.78" x2="191.73" y2="84.9199" gradientUnits="userSpaceOnUse">
<stop stop-color="#EB162F"/>
<stop offset="1" stop-color="#E998A2"/>
</linearGradient>
<linearGradient id="paint3_linear_1052_6886" x1="214.14" y1="190.839" x2="315.61" y2="144.079" gradientUnits="userSpaceOnUse">
<stop stop-color="#F3A9AE"/>
<stop offset="1" stop-color="white" stop-opacity="0"/>
</linearGradient>
<linearGradient id="paint4_linear_1052_6886" x1="252.49" y1="106.13" x2="197.22" y2="116.56" gradientUnits="userSpaceOnUse">
<stop stop-color="#FD7A82"/>
<stop offset="1" stop-color="#E6283F"/>
</linearGradient>
<linearGradient id="paint5_linear_1052_6886" x1="261.24" y1="240.849" x2="226.56" y2="111.789" gradientUnits="userSpaceOnUse">
<stop stop-color="#FAAAAA"/>
<stop offset="1" stop-color="#EA9595"/>
</linearGradient>
<linearGradient id="paint6_linear_1052_6886" x1="299.92" y1="317.69" x2="249.18" y2="235.38" gradientUnits="userSpaceOnUse">
<stop stop-color="#FF6069"/>
<stop offset="0.24" stop-color="#FF444F"/>
<stop offset="1" stop-color="#BD0022"/>
</linearGradient>
<linearGradient id="paint7_linear_1052_6886" x1="187.24" y1="188.8" x2="308.31" y2="340.23" gradientUnits="userSpaceOnUse">
<stop stop-color="#FFF6A3"/>
<stop offset="1" stop-color="#FFCA41"/>
</linearGradient>
<linearGradient id="paint8_linear_1052_6886" x1="267.1" y1="285.33" x2="267.1" y2="341.06" gradientUnits="userSpaceOnUse">
<stop stop-color="#F7A122"/>
<stop offset="1" stop-color="#F7A72F" stop-opacity="0"/>
</linearGradient>
<linearGradient id="paint9_linear_1052_6886" x1="252.49" y1="106.13" x2="197.22" y2="116.56" gradientUnits="userSpaceOnUse">
<stop stop-color="#FD7A82"/>
<stop offset="1" stop-color="#E6283F"/>
</linearGradient>
<linearGradient id="paint10_linear_1052_6886" x1="245.61" y1="107.95" x2="172.86" y2="115.09" gradientUnits="userSpaceOnUse">
<stop stop-color="#FD7A82"/>
<stop offset="1" stop-color="#E6283F"/>
</linearGradient>
<linearGradient id="paint11_linear_1052_6886" x1="214.14" y1="190.839" x2="315.61" y2="144.079" gradientUnits="userSpaceOnUse">
<stop stop-color="#F3A9AE"/>
<stop offset="1" stop-color="white" stop-opacity="0"/>
</linearGradient>
<linearGradient id="paint12_linear_1052_6886" x1="267.03" y1="158.9" x2="215.44" y2="172.76" gradientUnits="userSpaceOnUse">
<stop stop-color="#F4AAAA" stop-opacity="0.5"/>
<stop offset="1" stop-color="#FA7575" stop-opacity="0.5"/>
</linearGradient>
<linearGradient id="paint13_linear_1052_6886" x1="270.21" y1="197.6" x2="232.51" y2="207.73" gradientUnits="userSpaceOnUse">
<stop stop-color="#F4AAAA" stop-opacity="0.4"/>
<stop offset="1" stop-color="#FA7575" stop-opacity="0.5"/>
</linearGradient>
<linearGradient id="paint14_linear_1052_6886" x1="277.77" y1="228.56" x2="241.92" y2="238.2" gradientUnits="userSpaceOnUse">
<stop stop-color="#F4AAAA" stop-opacity="0.4"/>
<stop offset="1" stop-color="#FA7575" stop-opacity="0.5"/>
</linearGradient>
<linearGradient id="paint15_linear_1052_6886" x1="227.45" y1="145.8" x2="223.64" y2="55.37" gradientUnits="userSpaceOnUse">
<stop stop-color="#ED0C19"/>
<stop offset="0.24" stop-color="#DE2446"/>
<stop offset="1" stop-color="#F45F71"/>
</linearGradient>
<linearGradient id="paint16_linear_1052_6886" x1="276.88" y1="200.772" x2="220.136" y2="198.354" gradientUnits="userSpaceOnUse">
<stop stop-color="#FFDFDF"/>
<stop offset="1" stop-color="#E26868"/>
</linearGradient>
<linearGradient id="paint17_linear_1052_6886" x1="232.773" y1="187.8" x2="281.016" y2="220.356" gradientUnits="userSpaceOnUse">
<stop stop-color="#FFF1F1"/>
<stop offset="0.99" stop-color="#FFCECE"/>
</linearGradient>
<clipPath id="clip0_1052_6886">
<rect width="360.88" height="346.16" fill="white"/>
</clipPath>
</defs>
</svg>
