<svg width="86" height="82" viewBox="0 0 86 82" fill="none" xmlns="http://www.w3.org/2000/svg">
<path d="M84.7253 71.1809L48.7753 4.41922C46.2271 -0.314219 39.4392 -0.314219 36.8889 4.41922L0.940965 71.1809C0.387703 72.2085 0.110322 73.362 0.135899 74.5288C0.161475 75.6956 0.489135 76.8358 1.0869 77.8382C1.68466 78.8405 2.53209 79.6708 3.54649 80.2479C4.56088 80.825 5.70757 81.1292 6.87464 81.1309H78.7811C79.9491 81.131 81.0971 80.8281 82.1129 80.2518C83.1288 79.6754 83.9777 78.8453 84.5767 77.8427C85.1757 76.84 85.5043 75.6991 85.5303 74.5314C85.5564 73.3638 85.279 72.2093 84.7253 71.1809ZM42.8332 70.7949C41.9988 70.7949 41.1831 70.5475 40.4893 70.0839C39.7956 69.6204 39.2548 68.9615 38.9355 68.1906C38.6162 67.4197 38.5327 66.5715 38.6955 65.7531C38.8582 64.9348 39.26 64.1831 39.85 63.5931C40.44 63.0031 41.1918 62.6013 42.0101 62.4385C42.8285 62.2757 43.6767 62.3592 44.4476 62.6786C45.2185 62.9979 45.8774 63.5386 46.3409 64.2324C46.8045 64.9261 47.0519 65.7418 47.0519 66.5762C47.0519 67.6951 46.6074 68.7681 45.8163 69.5593C45.0251 70.3504 43.952 70.7949 42.8332 70.7949ZM47.4147 28.3648L46.2039 54.0992C46.2039 54.9943 45.8484 55.8528 45.2154 56.4857C44.5825 57.1186 43.724 57.4742 42.8289 57.4742C41.9338 57.4742 41.0754 57.1186 40.4424 56.4857C39.8095 55.8528 39.4539 54.9943 39.4539 54.0992L38.2432 28.3754C38.2159 27.7607 38.3128 27.1468 38.5279 26.5703C38.743 25.9939 39.0719 25.4666 39.4951 25.02C39.9183 24.5733 40.4271 24.2165 40.9912 23.9707C41.5553 23.7249 42.163 23.5951 42.7783 23.5892H42.8226C43.4421 23.5889 44.0552 23.7141 44.6249 23.9572C45.1947 24.2004 45.7093 24.5564 46.1376 25.0039C46.566 25.4514 46.8992 25.981 47.1173 26.5608C47.3353 27.1407 47.4336 27.7586 47.4063 28.3775L47.4147 28.3648Z" fill="white"/>
</svg>
