<svg fill="#000000" xmlns="http://www.w3.org/2000/svg"  viewBox="0 0 50 50" width="50px" height="50px"><path d="M 25.984375 0.98632812 A 1.0001 1.0001 0 0 0 25.099609 1.5527344 L 11.169922 23.443359 A 1.0009551 1.0009551 0 0 0 11.107422 23.548828 A 1.0009551 1.0009551 0 0 0 11.105469 23.550781 A 1.0001 1.0001 0 0 0 11.066406 23.640625 A 1.0009551 1.0009551 0 0 0 11.013672 23.833984 A 1.0001 1.0001 0 0 0 11 24.033203 A 1.0009551 1.0009551 0 0 0 11 24.035156 A 1.0001 1.0001 0 0 0 11.007812 24.132812 A 1.0009551 1.0009551 0 0 0 11.011719 24.152344 A 1.0001 1.0001 0 0 0 11.046875 24.298828 A 1.0001 1.0001 0 0 0 11.054688 24.326172 A 1.0009551 1.0009551 0 0 0 11.054688 24.328125 A 1.0001 1.0001 0 0 0 11.091797 24.419922 A 1.0009551 1.0009551 0 0 0 11.091797 24.421875 A 1.0001 1.0001 0 0 0 11.138672 24.507812 A 1.0009551 1.0009551 0 0 0 11.138672 24.509766 A 1.0001 1.0001 0 0 0 11.193359 24.591797 A 1.0009551 1.0009551 0 0 0 11.222656 24.626953 A 1.0001 1.0001 0 0 0 11.257812 24.669922 A 1.0001 1.0001 0 0 0 11.326172 24.740234 A 1.0009551 1.0009551 0 0 0 11.328125 24.742188 A 1.0009551 1.0009551 0 0 0 11.486328 24.859375 A 1.0009551 1.0009551 0 0 0 11.488281 24.861328 A 1.0001 1.0001 0 0 0 11.503906 24.869141 A 1.0009551 1.0009551 0 0 0 11.505859 24.871094 L 25.378906 32.798828 A 1.0001 1.0001 0 0 0 26.613281 32.802734 L 40.474609 24.880859 A 1.0009551 1.0009551 0 0 0 40.496094 24.869141 A 1.0001 1.0001 0 0 0 40.560547 24.828125 A 1.0009551 1.0009551 0 0 0 40.580078 24.814453 A 1.0001 1.0001 0 0 0 40.59375 24.802734 A 1.0009551 1.0009551 0 0 0 40.654297 24.757812 A 1.0009551 1.0009551 0 0 0 40.658203 24.753906 A 1.0001 1.0001 0 0 0 40.669922 24.744141 A 1.0009551 1.0009551 0 0 0 40.730469 24.683594 A 1.0009551 1.0009551 0 0 0 40.794922 24.607422 A 1.0009551 1.0009551 0 0 0 40.849609 24.527344 A 1.0009551 1.0009551 0 0 0 40.851562 24.525391 A 1.0001 1.0001 0 0 0 40.853516 24.519531 A 1.0009551 1.0009551 0 0 0 40.900391 24.439453 A 1.0009551 1.0009551 0 0 0 40.900391 24.4375 A 1.0001 1.0001 0 0 0 40.931641 24.367188 A 1.0009551 1.0009551 0 0 0 40.939453 24.345703 A 1.0001 1.0001 0 0 0 40.947266 24.322266 A 1.0009551 1.0009551 0 0 0 40.966797 24.253906 A 1.0009551 1.0009551 0 0 0 40.96875 24.25 A 1.0001 1.0001 0 0 0 40.970703 24.244141 A 1.0009551 1.0009551 0 0 0 40.988281 24.152344 A 1.0001 1.0001 0 0 0 40.998047 24.076172 A 1.0009551 1.0009551 0 0 0 40.998047 24.068359 A 1.0001 1.0001 0 0 0 41 23.976562 A 1.0001 1.0001 0 0 0 40.996094 23.917969 A 1.0009551 1.0009551 0 0 0 40.990234 23.855469 A 1.0009551 1.0009551 0 0 0 40.990234 23.853516 A 1.0001 1.0001 0 0 0 40.988281 23.84375 A 1.0009551 1.0009551 0 0 0 40.970703 23.759766 A 1.0009551 1.0009551 0 0 0 40.970703 23.755859 A 1.0001 1.0001 0 0 0 40.949219 23.681641 A 1.0009551 1.0009551 0 0 0 40.941406 23.660156 A 1.0001 1.0001 0 0 0 40.931641 23.636719 A 1.0009551 1.0009551 0 0 0 40.904297 23.570312 A 1.0009551 1.0009551 0 0 0 40.902344 23.568359 A 1.0001 1.0001 0 0 0 40.900391 23.5625 A 1.0009551 1.0009551 0 0 0 40.853516 23.480469 A 1.0001 1.0001 0 0 0 40.847656 23.470703 A 1.0009551 1.0009551 0 0 0 40.84375 23.462891 L 40.8125 23.416016 L 26.896484 1.546875 A 1.0001 1.0001 0 0 0 25.984375 0.98632812 z M 25 5.4355469 L 25 17.339844 L 14.583984 21.802734 L 25 5.4355469 z M 27 5.4355469 L 37.416016 21.802734 L 27 17.339844 L 27 5.4355469 z M 25 19.515625 L 25 30.275391 L 14.242188 24.128906 L 25 19.515625 z M 27 19.515625 L 37.757812 24.128906 L 27 30.275391 L 27 19.515625 z M 40.007812 27.998047 A 1.0001 1.0001 0 0 0 39.503906 28.130859 L 26 35.847656 L 12.496094 28.130859 A 1.0001 1.0001 0 0 0 12.019531 28 A 1.0001 1.0001 0 0 0 11.195312 29.59375 L 25.128906 48.503906 A 1.0001 1.0001 0 0 0 26.869141 48.505859 L 40.804688 29.59375 A 1.0001 1.0001 0 0 0 40.007812 27.998047 z M 15.613281 32.216797 L 25 37.582031 L 25 44.957031 L 15.613281 32.216797 z M 36.386719 32.216797 L 27 44.957031 L 27 37.582031 L 36.386719 32.216797 z"/></svg>
