<svg width="28" height="29" viewBox="0 0 28 29" fill="none" xmlns="http://www.w3.org/2000/svg">
<path d="M14 18.3018C15.933 18.3018 17.5 16.7348 17.5 14.8018C17.5 12.8688 15.933 11.3018 14 11.3018C12.067 11.3018 10.5 12.8688 10.5 14.8018C10.5 16.7348 12.067 18.3018 14 18.3018Z" fill="#C6C6CD"/>
<path d="M26.8428 13.8502C25.3958 11.6124 23.5184 9.71145 21.414 8.35246C19.0859 6.84746 16.5156 6.05176 13.9814 6.05176C11.6561 6.05176 9.3696 6.71621 7.18538 8.02652C4.95796 9.36254 2.93999 11.3143 1.18726 13.8272C0.98939 14.1112 0.880416 14.4476 0.874184 14.7937C0.867952 15.1398 0.964743 15.4799 1.15226 15.7708C2.59655 18.0311 4.45538 19.9347 6.52695 21.2751C8.85937 22.7861 11.3695 23.5518 13.9814 23.5518C16.5359 23.5518 19.1116 22.7626 21.4298 21.2702C23.5331 19.9156 25.4067 18.0075 26.8483 15.7511C27.0293 15.467 27.1251 15.1368 27.1241 14.7999C27.1231 14.4629 27.0255 14.1333 26.8428 13.8502V13.8502ZM14 20.0518C12.9616 20.0518 11.9466 19.7439 11.0833 19.167C10.2199 18.5901 9.54699 17.7702 9.14963 16.8108C8.75227 15.8515 8.6483 14.7959 8.85087 13.7775C9.05344 12.7591 9.55346 11.8237 10.2877 11.0894C11.0219 10.3552 11.9574 9.85521 12.9758 9.65264C13.9942 9.45006 15.0498 9.55403 16.0091 9.95139C16.9684 10.3488 17.7883 11.0217 18.3652 11.885C18.9421 12.7484 19.25 13.7634 19.25 14.8018C19.2484 16.1937 18.6948 17.5281 17.7105 18.5123C16.7263 19.4965 15.3919 20.0502 14 20.0518V20.0518Z" fill="#C6C6CD"/>
</svg>
