<svg width="28" height="29" viewBox="0 0 28 29" fill="none" xmlns="http://www.w3.org/2000/svg">
<path d="M23.6254 25.302C23.5104 25.3022 23.3966 25.2796 23.2905 25.2356C23.1843 25.1916 23.0879 25.127 23.0068 25.0455L3.75684 5.79555C3.59968 5.63012 3.51335 5.40984 3.51627 5.18167C3.51919 4.9535 3.61113 4.7355 3.77248 4.57415C3.93383 4.4128 4.15183 4.32086 4.38 4.31794C4.60816 4.31502 4.82844 4.40135 4.99387 4.55851L24.2439 23.8085C24.3662 23.9309 24.4494 24.0868 24.4832 24.2564C24.5169 24.4261 24.4996 24.602 24.4334 24.7618C24.3672 24.9217 24.2551 25.0583 24.1113 25.1544C23.9675 25.2506 23.7984 25.302 23.6254 25.302ZM13.9818 21.802C11.7128 21.802 9.52473 21.1305 7.47833 19.8059C5.61512 18.6028 3.93786 16.8796 2.62755 14.8294V14.825C3.71801 13.2626 4.91239 11.9413 6.19536 10.876C6.20696 10.8663 6.21643 10.8543 6.22316 10.8408C6.22989 10.8272 6.23374 10.8124 6.23446 10.7973C6.23518 10.7822 6.23275 10.7671 6.22734 10.753C6.22193 10.7388 6.21365 10.726 6.20302 10.7152L5.11364 9.6275C5.09428 9.60798 5.06828 9.59647 5.04082 9.59525C5.01336 9.59404 4.98644 9.60321 4.96544 9.62094C3.60262 10.7694 2.3377 12.1781 1.18762 13.8275C0.989756 14.1115 0.880783 14.4479 0.874551 14.794C0.868319 15.14 0.96511 15.4802 1.15262 15.7711C2.59692 18.0313 4.45575 19.935 6.52731 21.2754C8.85973 22.7864 11.3699 23.552 13.9818 23.552C15.3916 23.5477 16.7914 23.3153 18.1271 22.8641C18.1447 22.8581 18.1605 22.8477 18.173 22.8339C18.1855 22.8201 18.1943 22.8034 18.1985 22.7853C18.2027 22.7671 18.2022 22.7482 18.1971 22.7304C18.192 22.7125 18.1824 22.6962 18.1692 22.683L16.989 21.5029C16.9619 21.4764 16.9283 21.4574 16.8915 21.4478C16.8548 21.4382 16.8162 21.4384 16.7796 21.4482C15.8656 21.6836 14.9256 21.8024 13.9818 21.802ZM26.8432 13.8505C25.3961 11.6127 23.5187 9.71172 21.4143 8.35273C19.0863 6.84773 16.516 6.05203 13.9818 6.05203C12.5869 6.05451 11.2024 6.2917 9.88622 6.75367C9.86868 6.75977 9.85299 6.77024 9.84062 6.78408C9.82824 6.79793 9.8196 6.81469 9.81549 6.8328C9.81139 6.85091 9.81196 6.86976 9.81716 6.88759C9.82236 6.90541 9.83201 6.92162 9.8452 6.93469L11.0237 8.1132C11.0512 8.14017 11.0852 8.15943 11.1225 8.16903C11.1597 8.17863 11.1989 8.17824 11.2359 8.16789C12.1311 7.92572 13.0544 7.80271 13.9818 7.80203C16.207 7.80203 18.3885 8.4818 20.465 9.82547C22.3632 11.0505 24.0601 12.772 25.3737 14.802C25.3747 14.8033 25.3752 14.8048 25.3752 14.8064C25.3752 14.808 25.3747 14.8095 25.3737 14.8108C24.4202 16.3119 23.2369 17.6541 21.8672 18.7882C21.8554 18.7979 21.8458 18.8099 21.839 18.8235C21.8322 18.837 21.8283 18.8519 21.8275 18.8671C21.8267 18.8822 21.8291 18.8974 21.8345 18.9116C21.8399 18.9258 21.8483 18.9387 21.859 18.9495L22.9472 20.0373C22.9665 20.0567 22.9923 20.0682 23.0197 20.0695C23.047 20.0709 23.0739 20.0619 23.0949 20.0444C24.5572 18.8131 25.8231 17.3658 26.8486 15.7525C27.0299 15.4682 27.1258 15.1379 27.1248 14.8007C27.1238 14.4635 27.0261 14.1337 26.8432 13.8505Z" fill="#C6C6CD"/>
<path d="M14.0003 9.55176C13.607 9.55155 13.215 9.59557 12.8316 9.68301C12.8122 9.68703 12.7943 9.69623 12.7797 9.70962C12.7652 9.72301 12.7545 9.7401 12.7489 9.75907C12.7433 9.77804 12.743 9.79817 12.7479 9.81732C12.7528 9.83648 12.7628 9.85394 12.7769 9.86785L18.9342 16.0235C18.9481 16.0375 18.9655 16.0476 18.9847 16.0525C19.0038 16.0574 19.024 16.057 19.0429 16.0514C19.0619 16.0458 19.079 16.0352 19.0924 16.0206C19.1058 16.0061 19.115 15.9882 19.119 15.9688C19.2943 15.1999 19.2941 14.4014 19.1185 13.6326C18.9429 12.8638 18.5963 12.1444 18.1046 11.5279C17.6128 10.9114 16.9884 10.4136 16.2779 10.0715C15.5674 9.72939 14.7889 9.55174 14.0003 9.55176ZM9.06635 13.58C9.05244 13.566 9.03497 13.556 9.01582 13.551C8.99666 13.5461 8.97653 13.5465 8.95756 13.5521C8.9386 13.5577 8.92151 13.5683 8.90811 13.5829C8.89472 13.5974 8.88552 13.6154 8.8815 13.6347C8.68318 14.5012 8.70808 15.4038 8.95388 16.258C9.19968 17.1122 9.65832 17.8899 10.2868 18.5185C10.9153 19.147 11.6931 19.6056 12.5473 19.8514C13.4015 20.0972 14.3041 20.1221 15.1706 19.9238C15.1899 19.9198 15.2078 19.9106 15.2224 19.8972C15.2369 19.8838 15.2476 19.8667 15.2532 19.8477C15.2588 19.8288 15.2592 19.8086 15.2543 19.7895C15.2493 19.7703 15.2393 19.7529 15.2253 19.7389L9.06635 13.58Z" fill="#C6C6CD"/>
</svg>
