<?xml version="1.0" encoding="UTF-8"?>
<svg xmlns="http://www.w3.org/2000/svg" xmlns:xlink="http://www.w3.org/1999/xlink" width="24pt" height="24pt" viewBox="0 0 24 24" version="1.1">
<g id="surface3141628">
<path style=" stroke:none;fill-rule:nonzero;fill:rgb(98.431373%,38.823529%,25.098039%);fill-opacity:1;" d="M 12 2 C 6.488281 2 2 6.488281 2 12 C 2 17.511719 6.488281 22 12 22 C 17.511719 22 22 17.511719 22 12 C 22 6.488281 17.511719 2 12 2 Z M 12 4 C 16.429688 4 20 7.570312 20 12 C 20 16.429688 16.429688 20 12 20 C 7.570312 20 4 16.429688 4 12 C 4 7.570312 7.570312 4 12 4 Z M 8.707031 7.292969 L 7.292969 8.707031 L 10.585938 12 L 7.292969 15.292969 L 8.707031 16.707031 L 12 13.414062 L 15.292969 16.707031 L 16.707031 15.292969 L 13.414062 12 L 16.707031 8.707031 L 15.292969 7.292969 L 12 10.585938 Z M 8.707031 7.292969 "/>
</g>
</svg>
