<?xml version="1.0" encoding="UTF-8"?>
<svg xmlns="http://www.w3.org/2000/svg" xmlns:xlink="http://www.w3.org/1999/xlink" width="64pt" height="64pt" viewBox="0 0 64 64" version="1.1">
<g id="surface3129193">
<path style=" stroke:none;fill-rule:nonzero;fill:rgb(100%,100%,100%);fill-opacity:1;" d="M 51.199219 23.050781 C 51.351562 22.949219 49.199219 25.851562 48.800781 30.5 C 48.398438 35.148438 49.648438 41.648438 49.601562 41.699219 L 16 53.449219 L 27.5 20 C 39 23 46.550781 17.949219 46.5 18 "/>
<path style=" stroke:none;fill-rule:nonzero;fill:rgb(100%,100%,100%);fill-opacity:1;" d="M 51.199219 23.050781 C 51.351562 22.949219 49.199219 25.851562 48.800781 30.5 C 48.398438 35.148438 49.648438 41.648438 49.601562 41.699219 L 16 53.449219 C 16 53.449219 49.101562 20.351562 49 20.5 "/>
<path style=" stroke:none;fill-rule:nonzero;fill:rgb(9.019608%,16.862745%,30.196078%);fill-opacity:1;" d="M 56.898438 26.648438 L 42.75 12.5 C 42.148438 11.898438 41.199219 11.898438 40.648438 12.5 C 40.050781 13.101562 40.050781 14.050781 40.648438 14.601562 L 43.800781 17.75 C 42.449219 18.300781 40.398438 19 38 19.199219 C 34.648438 19.5 30.25 18.75 28.601562 18.449219 C 27.75 18.300781 27.199219 18.199219 26.648438 18.75 C 26.5 18.898438 26.351562 19.101562 26.300781 19.300781 L 18.898438 40.800781 C 18.648438 41.601562 19.050781 42.449219 19.851562 42.699219 C 20 42.75 20.199219 42.800781 20.351562 42.800781 C 20.949219 42.800781 21.550781 42.398438 21.75 41.800781 L 28.75 21.5 C 30.800781 21.851562 34.949219 22.5 38.300781 22.199219 C 40.898438 21.949219 43.550781 21.199219 46.101562 20 L 49.398438 23.300781 C 48.25 25.5 47.550781 27.851562 47.351562 30.351562 C 47 33.949219 47.648438 38.550781 48 40.699219 L 15.5 52 C 14.699219 52.25 14.300781 53.148438 14.601562 53.898438 C 14.800781 54.5 15.398438 54.898438 16 54.898438 C 16.148438 54.898438 16.351562 54.851562 16.5 54.800781 L 50.101562 43.148438 C 50.300781 43.101562 50.5 42.949219 50.648438 42.800781 C 51.199219 42.25 51.101562 41.75 50.949219 40.75 C 50.648438 38.949219 49.949219 34.199219 50.25 30.648438 C 50.398438 28.851562 50.851562 27.148438 51.550781 25.550781 L 54.75 28.75 C 55.050781 29.050781 55.449219 29.199219 55.800781 29.199219 C 56.148438 29.199219 56.550781 29.050781 56.851562 28.75 C 57.5 28.199219 57.5 27.25 56.898438 26.648438 Z M 56.898438 26.648438 "/>
<path style=" stroke:none;fill-rule:nonzero;fill:rgb(9.019608%,16.862745%,30.196078%);fill-opacity:1;" d="M 16 54.949219 C 15.601562 54.949219 15.25 54.800781 14.949219 54.5 C 14.351562 53.898438 14.351562 52.949219 14.949219 52.398438 L 34.050781 33.300781 C 34.648438 32.699219 35.601562 32.699219 36.148438 33.300781 C 36.75 33.898438 36.75 34.851562 36.148438 35.398438 L 17.050781 54.5 C 16.75 54.800781 16.398438 54.949219 16 54.949219 Z M 39 29 C 38.171875 29 37.5 29.671875 37.5 30.5 C 37.5 31.328125 38.171875 32 39 32 C 39.828125 32 40.5 31.328125 40.5 30.5 C 40.5 29.671875 39.828125 29 39 29 Z M 44.5 63.5 L 14.5 63.5 C 13.648438 63.5 13 62.851562 13 62 C 13 61.148438 13.648438 60.5 14.5 60.5 L 44.5 60.5 C 45.351562 60.5 46 61.148438 46 62 C 46 62.851562 45.351562 63.5 44.5 63.5 Z M 52 60.5 C 51.171875 60.5 50.5 61.171875 50.5 62 C 50.5 62.828125 51.171875 63.5 52 63.5 C 52.828125 63.5 53.5 62.828125 53.5 62 C 53.5 61.171875 52.828125 60.5 52 60.5 Z M 52 60.5 "/>
</g>
</svg>
