<svg width="24" height="24" viewBox="0 0 24 24" fill="none" xmlns="http://www.w3.org/2000/svg">
<path d="M12 2C11.4717 2 10.9545 2.04503 10.4496 2.13139L10.1385 3.43288C9.65518 5.45561 7.59464 6.65783 5.61914 6.06783L4.53457 5.7429C3.88297 6.59108 3.3609 7.55528 3 8.59801L3.80508 9.37926C5.27658 10.8102 5.27658 13.1898 3.80508 14.6207L3 15.402C3.3609 16.4447 3.88207 17.408 4.53457 18.2571L5.61914 17.9322C7.59464 17.3422 9.65518 18.5444 10.1385 20.5671L10.4496 21.8686C10.9545 21.955 11.4726 22 12 22C12.5283 22 13.0455 21.955 13.5504 21.8686L13.8615 20.5671C14.3448 18.5444 16.4054 17.3422 18.3809 17.9322L19.4654 18.2571C20.117 17.4089 20.6391 16.4447 21 15.402L20.1949 14.6207C18.7234 13.1907 18.7234 10.8093 20.1949 9.37926L21 8.59801C20.6391 7.55528 20.1179 6.59199 19.4654 5.7429L18.3809 6.06783C16.4054 6.65783 14.3448 5.45561 13.8615 3.43288L13.5504 2.13139C13.0455 2.04503 12.5283 2 12 2ZM12 9.27273C13.4913 9.27273 14.7 10.4936 14.7 12C14.7 13.5064 13.4913 14.7273 12 14.7273C10.5087 14.7273 9.3 13.5064 9.3 12C9.3 10.4936 10.5087 9.27273 12 9.27273Z" fill="#8EA5C6"/>
</svg>
