<?xml version="1.0" encoding="UTF-8"?>
<svg xmlns="http://www.w3.org/2000/svg" xmlns:xlink="http://www.w3.org/1999/xlink" width="100pt" height="100pt" viewBox="0 0 100 100" version="1.1">
<g id="surface247332">
<path style=" stroke:none;fill-rule:nonzero;fill:rgb(40%,40%,40%);fill-opacity:1;" d="M 58.183594 12.425781 C 57.792969 12.433594 57.429688 12.671875 57.277344 13.058594 L 55.621094 17.253906 C 55.335938 14.867188 53.128906 13 50.457031 13 L 42.851562 13 C 39.984375 13 37.652344 15.140625 37.652344 17.777344 L 37.652344 19.40625 C 30.296875 19.5 27.652344 20.675781 27.652344 23.761719 L 27.652344 28 L 21.652344 28 C 21.101562 28 20.652344 28.449219 20.652344 29 L 20.652344 34 C 20.652344 34.265625 20.757812 34.519531 20.945312 34.707031 L 25.652344 39.414062 L 25.652344 42.183594 C 23.375 42.644531 21.652344 44.664062 21.652344 47.082031 L 21.652344 53.082031 C 21.652344 55.496094 23.375 57.515625 25.652344 57.980469 L 25.652344 75.308594 C 25.652344 82.300781 30.785156 87 38.417969 87 L 60.6875 87 C 68.441406 87 73.652344 82.300781 73.652344 75.308594 L 73.652344 57.980469 C 75.933594 57.515625 77.652344 55.496094 77.652344 53.082031 L 77.652344 47.082031 C 77.652344 44.664062 75.933594 42.648438 73.652344 42.183594 L 73.652344 39.335938 L 78.355469 34.714844 C 78.546875 34.523438 78.652344 34.269531 78.652344 34 L 78.652344 29 C 78.652344 28.449219 78.207031 28 77.652344 28 L 71.367188 28 C 71.136719 27.410156 70.753906 26.886719 70.269531 26.441406 L 73.089844 19.300781 C 73.1875 19.050781 73.183594 18.777344 73.074219 18.535156 C 72.96875 18.289062 72.773438 18.097656 72.527344 18.003906 L 58.574219 12.496094 C 58.445312 12.445312 58.3125 12.421875 58.183594 12.425781 Z M 58.769531 14.722656 L 70.859375 19.496094 L 68.539062 25.382812 C 67.898438 25.144531 67.195312 25 66.457031 25 L 64.738281 25 C 64.28125 25.011719 63.089844 25.074219 62.089844 25.449219 C 60.941406 23.707031 58.417969 22.402344 57.804688 22.101562 C 57.667969 22.035156 57.515625 22 57.367188 22 L 55.898438 22 Z M 42.851562 15 L 50.457031 15 C 52.21875 15 53.652344 16.246094 53.652344 17.777344 L 53.652344 26 C 53.652344 26.277344 53.878906 26.5 54.152344 26.5 C 54.429688 26.5 54.652344 26.277344 54.652344 26 L 54.652344 24 L 57.128906 24 C 58.644531 24.78125 60.613281 26.226562 60.652344 27.125 C 60.671875 27.519531 60.917969 27.855469 61.261719 28 L 29.652344 28 L 29.652344 23.757812 C 29.652344 22.9375 29.652344 21.398438 38.652344 21.398438 L 38.652344 25 C 38.652344 25.277344 38.878906 25.5 39.152344 25.5 C 39.429688 25.5 39.652344 25.277344 39.652344 25 L 39.652344 17.777344 C 39.652344 16.246094 41.085938 15 42.851562 15 Z M 64.761719 27 L 66.453125 27 C 67.5 27 68.449219 27.394531 69.035156 28 L 62.046875 28 C 62.3125 27.886719 62.515625 27.664062 62.605469 27.390625 C 63.027344 27.195312 63.957031 27.019531 64.761719 27 Z M 22.652344 30 L 76.652344 30 L 76.652344 33.582031 L 71.953125 38.203125 C 71.761719 38.390625 71.652344 38.648438 71.652344 38.917969 L 71.652344 75.308594 C 71.652344 77.699219 70.984375 79.5625 69.914062 81 L 29.355469 81 C 28.308594 79.5625 27.652344 77.699219 27.652344 75.308594 L 27.652344 39 C 27.652344 38.734375 27.550781 38.480469 27.359375 38.292969 L 22.652344 33.585938 L 22.652344 33 L 69.652344 33 C 69.929688 33 70.152344 32.777344 70.152344 32.5 C 70.152344 32.222656 69.929688 32 69.652344 32 L 22.652344 32 Z M 71.652344 32 C 71.378906 32 71.152344 32.222656 71.152344 32.5 C 71.152344 32.777344 71.378906 33 71.652344 33 L 73.652344 33 C 73.929688 33 74.152344 32.777344 74.152344 32.5 C 74.152344 32.222656 73.929688 32 73.652344 32 Z M 44.652344 37 C 43 37 41.652344 38.347656 41.652344 40 L 41.652344 74 C 41.652344 75.652344 43 77 44.652344 77 C 46.308594 77 47.652344 75.652344 47.652344 74 L 47.652344 40 C 47.652344 38.347656 46.308594 37 44.652344 37 Z M 54.652344 37 C 53 37 51.652344 38.347656 51.652344 40 L 51.652344 74 C 51.652344 75.652344 53 77 54.652344 77 C 56.308594 77 57.652344 75.652344 57.652344 74 L 57.652344 40 C 57.652344 38.347656 56.308594 37 54.652344 37 Z M 64.652344 37 C 63 37 61.652344 38.347656 61.652344 40 L 61.652344 74 C 61.652344 75.652344 63 77 64.652344 77 C 66.308594 77 67.652344 75.652344 67.652344 74 L 67.652344 40 C 67.652344 38.347656 66.308594 37 64.652344 37 Z M 34.652344 37.082031 C 33 37.082031 31.652344 38.425781 31.652344 40.082031 L 31.652344 59 C 31.652344 59.277344 31.878906 59.5 32.152344 59.5 C 32.429688 59.5 32.652344 59.277344 32.652344 59 L 32.652344 40.082031 C 32.652344 38.976562 33.550781 38.082031 34.652344 38.082031 C 35.757812 38.082031 36.652344 38.976562 36.652344 40.082031 L 36.652344 74.082031 C 36.652344 75.183594 35.757812 76.082031 34.652344 76.082031 C 33.550781 76.082031 32.652344 75.183594 32.652344 74.082031 L 32.652344 70 C 32.652344 69.722656 32.429688 69.5 32.152344 69.5 C 31.878906 69.5 31.652344 69.722656 31.652344 70 L 31.652344 74.082031 C 31.652344 75.734375 33 77.082031 34.652344 77.082031 C 36.308594 77.082031 37.652344 75.734375 37.652344 74.082031 L 37.652344 40.082031 C 37.652344 38.425781 36.308594 37.082031 34.652344 37.082031 Z M 32.152344 59.5 C 31.878906 59.5 31.652344 59.722656 31.652344 60 L 31.652344 63 C 31.652344 63.277344 31.878906 63.5 32.152344 63.5 C 32.429688 63.5 32.652344 63.277344 32.652344 63 L 32.652344 60 C 32.652344 59.722656 32.429688 59.5 32.152344 59.5 Z M 44.652344 38 C 45.757812 38 46.652344 38.898438 46.652344 40 L 46.652344 74 C 46.652344 75.101562 45.757812 76 44.652344 76 C 43.550781 76 42.652344 75.101562 42.652344 74 L 42.652344 40 C 42.652344 38.898438 43.550781 38 44.652344 38 Z M 54.652344 38 C 55.757812 38 56.652344 38.898438 56.652344 40 L 56.652344 74 C 56.652344 75.101562 55.757812 76 54.652344 76 C 53.550781 76 52.652344 75.101562 52.652344 74 L 52.652344 40 C 52.652344 38.898438 53.550781 38 54.652344 38 Z M 64.652344 38 C 65.757812 38 66.652344 38.898438 66.652344 40 L 66.652344 74 C 66.652344 75.101562 65.757812 76 64.652344 76 C 63.550781 76 62.652344 75.101562 62.652344 74 L 62.652344 40 C 62.652344 38.898438 63.550781 38 64.652344 38 Z M 25.652344 44.25 L 25.652344 55.910156 C 24.492188 55.496094 23.652344 54.382812 23.652344 53.082031 L 23.652344 47.082031 C 23.652344 45.777344 24.492188 44.664062 25.652344 44.253906 Z M 73.652344 44.25 C 74.816406 44.664062 75.652344 45.773438 75.652344 47.078125 L 75.652344 53.078125 C 75.652344 54.382812 74.816406 55.496094 73.652344 55.910156 Z M 30.214844 82 L 69.042969 82 C 66.859375 84.128906 63.632812 85 60.6875 85 L 38.417969 85 C 35.527344 85 32.363281 84.128906 30.214844 82 Z M 30.214844 82 "/>
</g>
</svg>
