<svg width="28" height="29" viewBox="0 0 28 29" fill="none" xmlns="http://www.w3.org/2000/svg">
<path opacity="0.4" d="M25.6667 10.4399V5.14325C25.6667 3.49825 24.92 2.83325 23.065 2.83325H18.3517C16.4967 2.83325 15.75 3.49825 15.75 5.14325V10.4283C15.75 12.0849 16.4967 12.7383 18.3517 12.7383H23.065C24.92 12.7499 25.6667 12.0849 25.6667 10.4399Z" fill="#687599"/>
<path d="M25.6667 23.565V18.8517C25.6667 16.9967 24.92 16.25 23.065 16.25H18.3517C16.4967 16.25 15.75 16.9967 15.75 18.8517V23.565C15.75 25.42 16.4967 26.1667 18.3517 26.1667H23.065C24.92 26.1667 25.6667 25.42 25.6667 23.565Z" fill="#687599"/>
<path d="M12.2499 10.4399V5.14325C12.2499 3.49825 11.5033 2.83325 9.64825 2.83325H4.93492C3.07992 2.83325 2.33325 3.49825 2.33325 5.14325V10.4283C2.33325 12.0849 3.07992 12.7383 4.93492 12.7383H9.64825C11.5033 12.7499 12.2499 12.0849 12.2499 10.4399Z" fill="#687599"/>
<path opacity="0.4" d="M12.2499 23.565V18.8517C12.2499 16.9967 11.5033 16.25 9.64825 16.25H4.93492C3.07992 16.25 2.33325 16.9967 2.33325 18.8517V23.565C2.33325 25.42 3.07992 26.1667 4.93492 26.1667H9.64825C11.5033 26.1667 12.2499 25.42 12.2499 23.565Z" fill="#687599"/>
</svg>
