<svg width="28" height="28" viewBox="0 0 28 28" fill="none" xmlns="http://www.w3.org/2000/svg">
<path opacity="0.4" d="M25.6667 9.91667C25.6667 14.105 22.2717 17.5 18.0833 17.5C17.885 17.5 17.675 17.4883 17.4767 17.4767C17.185 13.7783 14.2217 10.815 10.5233 10.5233C10.5117 10.325 10.5 10.115 10.5 9.91667C10.5 5.72834 13.895 2.33334 18.0833 2.33334C22.2717 2.33334 25.6667 5.72834 25.6667 9.91667Z" fill="#687599"/>
<path d="M17.5 18.0833C17.5 22.2717 14.105 25.6667 9.91666 25.6667C5.72833 25.6667 2.33333 22.2717 2.33333 18.0833C2.33333 13.895 5.72833 10.5 9.91666 10.5C10.115 10.5 10.325 10.5117 10.5233 10.5233C14.2217 10.815 17.185 13.7783 17.4767 17.4767C17.4883 17.675 17.5 17.885 17.5 18.0833Z" fill="#687599"/>
<path d="M8.88999 17.0567L9.91667 15.1667L10.9433 17.0567L12.8333 18.0833L10.9433 19.11L9.91667 21L8.88999 19.11L7 18.0833L8.88999 17.0567Z" fill="#100F1E"/>
</svg>
