<svg width="28" height="29" viewBox="0 0 28 29" fill="none" xmlns="http://www.w3.org/2000/svg">
<path opacity="0.4" d="M25.6667 10.4166C25.6667 14.6049 22.2717 17.9999 18.0833 17.9999C17.885 17.9999 17.675 17.9882 17.4767 17.9766C17.185 14.2782 14.2217 11.3149 10.5233 11.0233C10.5117 10.8249 10.5 10.6149 10.5 10.4166C10.5 6.22825 13.895 2.83325 18.0833 2.83325C22.2717 2.83325 25.6667 6.22825 25.6667 10.4166Z" fill="#687599"/>
<path d="M17.5 18.5833C17.5 22.7717 14.105 26.1667 9.91665 26.1667C5.72831 26.1667 2.33331 22.7717 2.33331 18.5833C2.33331 14.395 5.72831 11 9.91665 11C10.115 11 10.325 11.0117 10.5233 11.0233C14.2216 11.315 17.185 14.2783 17.4767 17.9767C17.4883 18.175 17.5 18.385 17.5 18.5833Z" fill="#687599"/>
<path d="M8.88999 17.5567L9.91667 15.6667L10.9433 17.5567L12.8333 18.5834L10.9433 19.6101L9.91667 21.5001L8.88999 19.6101L7 18.5834L8.88999 17.5567Z" fill="#100F1E"/>
</svg>
