<svg width="28" height="29" viewBox="0 0 28 29" fill="none" xmlns="http://www.w3.org/2000/svg">
<path opacity="0.4" d="M25.6667 10.4166C25.6667 14.6049 22.2717 17.9999 18.0833 17.9999C17.885 17.9999 17.675 17.9882 17.4767 17.9766C17.185 14.2782 14.2217 11.3149 10.5233 11.0233C10.5117 10.8249 10.5 10.6149 10.5 10.4166C10.5 6.22825 13.895 2.83325 18.0833 2.83325C22.2717 2.83325 25.6667 6.22825 25.6667 10.4166Z" fill="url(#paint0_linear_31_241)"/>
<path d="M17.4999 18.5833C17.4999 22.7717 14.1049 26.1667 9.91659 26.1667C5.72825 26.1667 2.33325 22.7717 2.33325 18.5833C2.33325 14.395 5.72825 11 9.91659 11C10.1149 11 10.3249 11.0117 10.5232 11.0233C14.2216 11.315 17.1849 14.2783 17.4766 17.9767C17.4883 18.175 17.4999 18.385 17.4999 18.5833Z" fill="#59D6E6"/>
<path d="M17.4999 18.5833C17.4999 22.7717 14.1049 26.1667 9.91659 26.1667C5.72825 26.1667 2.33325 22.7717 2.33325 18.5833C2.33325 14.395 5.72825 11 9.91659 11C10.1149 11 10.3249 11.0117 10.5232 11.0233C14.2216 11.315 17.1849 14.2783 17.4766 17.9767C17.4883 18.175 17.4999 18.385 17.4999 18.5833Z" fill="url(#paint1_linear_31_241)"/>
<path d="M8.88999 17.5567L9.91667 15.6667L10.9433 17.5567L12.8333 18.5834L10.9433 19.6101L9.91667 21.5001L8.88999 19.6101L7 18.5834L8.88999 17.5567Z" fill="#100F1E"/>
<defs>
<linearGradient id="paint0_linear_31_241" x1="12.25" y1="5.74992" x2="25.4729" y2="11.512" gradientUnits="userSpaceOnUse">
<stop stop-color="#FCCFF7"/>
<stop offset="0.253253" stop-color="#E659D6"/>
<stop offset="0.608883" stop-color="#8877EA"/>
<stop offset="0.950613" stop-color="#86E2EE"/>
</linearGradient>
<linearGradient id="paint1_linear_31_241" x1="4.08325" y1="13.9167" x2="17.3061" y2="19.6788" gradientUnits="userSpaceOnUse">
<stop stop-color="#FCCFF7"/>
<stop offset="0.253253" stop-color="#E659D6"/>
<stop offset="0.608883" stop-color="#8877EA"/>
<stop offset="0.950613" stop-color="#86E2EE"/>
</linearGradient>
</defs>
</svg>
