<svg width="28" height="28" viewBox="0 0 28 28" fill="none" xmlns="http://www.w3.org/2000/svg">
<g opacity="0.4">
<path d="M25.6667 9.93999V4.64333C25.6667 2.99833 24.92 2.33333 23.065 2.33333H18.3517C16.4967 2.33333 15.75 2.99833 15.75 4.64333V9.92833C15.75 11.585 16.4967 12.2383 18.3517 12.2383H23.065C24.92 12.25 25.6667 11.585 25.6667 9.93999Z" fill="#59D6E6"/>
<path d="M25.6667 9.93999V4.64333C25.6667 2.99833 24.92 2.33333 23.065 2.33333H18.3517C16.4967 2.33333 15.75 2.99833 15.75 4.64333V9.92833C15.75 11.585 16.4967 12.2383 18.3517 12.2383H23.065C24.92 12.25 25.6667 11.585 25.6667 9.93999Z" fill="url(#paint0_linear_283_581)"/>
</g>
<path d="M25.6667 23.065V18.3517C25.6667 16.4967 24.92 15.75 23.065 15.75H18.3517C16.4967 15.75 15.75 16.4967 15.75 18.3517V23.065C15.75 24.92 16.4967 25.6667 18.3517 25.6667H23.065C24.92 25.6667 25.6667 24.92 25.6667 23.065Z" fill="#59D6E6"/>
<path d="M25.6667 23.065V18.3517C25.6667 16.4967 24.92 15.75 23.065 15.75H18.3517C16.4967 15.75 15.75 16.4967 15.75 18.3517V23.065C15.75 24.92 16.4967 25.6667 18.3517 25.6667H23.065C24.92 25.6667 25.6667 24.92 25.6667 23.065Z" fill="url(#paint1_linear_283_581)"/>
<path d="M12.25 9.93999V4.64333C12.25 2.99833 11.5033 2.33333 9.64834 2.33333H4.935C3.08 2.33333 2.33334 2.99833 2.33334 4.64333V9.92833C2.33334 11.585 3.08 12.2383 4.935 12.2383H9.64834C11.5033 12.25 12.25 11.585 12.25 9.93999Z" fill="#59D6E6"/>
<path d="M12.25 9.93999V4.64333C12.25 2.99833 11.5033 2.33333 9.64834 2.33333H4.935C3.08 2.33333 2.33334 2.99833 2.33334 4.64333V9.92833C2.33334 11.585 3.08 12.2383 4.935 12.2383H9.64834C11.5033 12.25 12.25 11.585 12.25 9.93999Z" fill="url(#paint2_linear_283_581)"/>
<g opacity="0.4">
<path d="M12.25 23.065V18.3517C12.25 16.4967 11.5033 15.75 9.64834 15.75H4.935C3.08 15.75 2.33334 16.4967 2.33334 18.3517V23.065C2.33334 24.92 3.08 25.6667 4.935 25.6667H9.64834C11.5033 25.6667 12.25 24.92 12.25 23.065Z" fill="#59D6E6"/>
<path d="M12.25 23.065V18.3517C12.25 16.4967 11.5033 15.75 9.64834 15.75H4.935C3.08 15.75 2.33334 16.4967 2.33334 18.3517V23.065C2.33334 24.92 3.08 25.6667 4.935 25.6667H9.64834C11.5033 25.6667 12.25 24.92 12.25 23.065Z" fill="url(#paint3_linear_283_581)"/>
</g>
<defs>
<linearGradient id="paint0_linear_283_581" x1="16.8942" y1="4.23816" x2="25.5368" y2="8.00869" gradientUnits="userSpaceOnUse">
<stop stop-color="#FCCFF7"/>
<stop offset="0.253253" stop-color="#E659D6"/>
<stop offset="0.608883" stop-color="#8877EA"/>
<stop offset="0.950613" stop-color="#86E2EE"/>
</linearGradient>
<linearGradient id="paint1_linear_283_581" x1="16.8942" y1="17.6571" x2="25.54" y2="21.4246" gradientUnits="userSpaceOnUse">
<stop stop-color="#FCCFF7"/>
<stop offset="0.253253" stop-color="#E659D6"/>
<stop offset="0.608883" stop-color="#8877EA"/>
<stop offset="0.950613" stop-color="#86E2EE"/>
</linearGradient>
<linearGradient id="paint2_linear_283_581" x1="3.47757" y1="4.23816" x2="12.1201" y2="8.00869" gradientUnits="userSpaceOnUse">
<stop stop-color="#FCCFF7"/>
<stop offset="0.253253" stop-color="#E659D6"/>
<stop offset="0.608883" stop-color="#8877EA"/>
<stop offset="0.950613" stop-color="#86E2EE"/>
</linearGradient>
<linearGradient id="paint3_linear_283_581" x1="3.47757" y1="17.6571" x2="12.1233" y2="21.4246" gradientUnits="userSpaceOnUse">
<stop stop-color="#FCCFF7"/>
<stop offset="0.253253" stop-color="#E659D6"/>
<stop offset="0.608883" stop-color="#8877EA"/>
<stop offset="0.950613" stop-color="#86E2EE"/>
</linearGradient>
</defs>
</svg>
