<svg width="28" height="28" viewBox="0 0 28 28" fill="none" xmlns="http://www.w3.org/2000/svg">
<path d="M25.69 19.6233L22.0383 11.0833C21.3733 9.52 20.3817 8.63334 19.25 8.575C18.13 8.51667 17.045 9.29834 16.2167 10.7917L14 14.77C13.5333 15.61 12.8683 16.1117 12.145 16.17C11.41 16.24 10.675 15.855 10.08 15.0967L9.82333 14.77C8.99499 13.7317 7.96833 13.23 6.91833 13.335C5.86833 13.44 4.96999 14.1633 4.37499 15.3417L2.35666 19.3667C1.63333 20.825 1.70333 22.5167 2.55499 23.8933C3.40666 25.27 4.88833 26.0983 6.50999 26.0983H21.3967C22.96 26.0983 24.4183 25.3167 25.2817 24.01C26.1683 22.7033 26.3083 21.0583 25.69 19.6233Z" fill="#59D6E6"/>
<path d="M25.69 19.6233L22.0383 11.0833C21.3733 9.52 20.3817 8.63334 19.25 8.575C18.13 8.51667 17.045 9.29834 16.2167 10.7917L14 14.77C13.5333 15.61 12.8683 16.1117 12.145 16.17C11.41 16.24 10.675 15.855 10.08 15.0967L9.82333 14.77C8.99499 13.7317 7.96833 13.23 6.91833 13.335C5.86833 13.44 4.96999 14.1633 4.37499 15.3417L2.35666 19.3667C1.63333 20.825 1.70333 22.5167 2.55499 23.8933C3.40666 25.27 4.88833 26.0983 6.50999 26.0983H21.3967C22.96 26.0983 24.4183 25.3167 25.2817 24.01C26.1683 22.7033 26.3083 21.0583 25.69 19.6233Z" fill="url(#paint0_linear_283_580)"/>
<g opacity="0.4">
<path d="M8.13167 9.77667C10.3095 9.77667 12.075 8.01118 12.075 5.83333C12.075 3.65549 10.3095 1.89 8.13167 1.89C5.95383 1.89 4.18834 3.65549 4.18834 5.83333C4.18834 8.01118 5.95383 9.77667 8.13167 9.77667Z" fill="#59D6E6"/>
<path d="M8.13167 9.77667C10.3095 9.77667 12.075 8.01118 12.075 5.83333C12.075 3.65549 10.3095 1.89 8.13167 1.89C5.95383 1.89 4.18834 3.65549 4.18834 5.83333C4.18834 8.01118 5.95383 9.77667 8.13167 9.77667Z" fill="url(#paint1_linear_283_580)"/>
</g>
<defs>
<linearGradient id="paint0_linear_283_580" x1="4.65415" y1="11.9424" x2="23.0889" y2="23.0382" gradientUnits="userSpaceOnUse">
<stop stop-color="#FCCFF7"/>
<stop offset="0.253253" stop-color="#E659D6"/>
<stop offset="0.608883" stop-color="#8877EA"/>
<stop offset="0.950613" stop-color="#86E2EE"/>
</linearGradient>
<linearGradient id="paint1_linear_283_580" x1="5.09834" y1="3.40667" x2="11.9742" y2="6.40297" gradientUnits="userSpaceOnUse">
<stop stop-color="#FCCFF7"/>
<stop offset="0.253253" stop-color="#E659D6"/>
<stop offset="0.608883" stop-color="#8877EA"/>
<stop offset="0.950613" stop-color="#86E2EE"/>
</linearGradient>
</defs>
</svg>
