<svg width="28" height="28" viewBox="0 0 28 28" fill="none" xmlns="http://www.w3.org/2000/svg">
<path d="M2.33334 15.0267V12.9733C2.33334 11.76 3.325 10.7567 4.55 10.7567C6.66167 10.7567 7.525 9.26333 6.46334 7.43166C5.85667 6.38166 6.21834 5.01666 7.28 4.41L9.29834 3.255C10.22 2.70666 11.41 3.03333 11.9583 3.955L12.0867 4.17666C13.1367 6.00833 14.8633 6.00833 15.925 4.17666L16.0533 3.955C16.6017 3.03333 17.7917 2.70666 18.7133 3.255L20.7317 4.41C21.7933 5.01666 22.155 6.38166 21.5483 7.43166C20.4867 9.26333 21.35 10.7567 23.4617 10.7567C24.675 10.7567 25.6783 11.7483 25.6783 12.9733V15.0267C25.6783 16.24 24.6867 17.2433 23.4617 17.2433C21.35 17.2433 20.4867 18.7367 21.5483 20.5683C22.155 21.63 21.7933 22.9833 20.7317 23.59L18.7133 24.745C17.7917 25.2933 16.6017 24.9667 16.0533 24.045L15.925 23.8233C14.875 21.9917 13.1483 21.9917 12.0867 23.8233L11.9583 24.045C11.41 24.9667 10.22 25.2933 9.29834 24.745L7.28 23.59C6.21834 22.9833 5.85667 21.6183 6.46334 20.5683C7.525 18.7367 6.66167 17.2433 4.55 17.2433C3.325 17.2433 2.33334 16.24 2.33334 15.0267Z" fill="#59D6E6"/>
<path d="M2.33334 15.0267V12.9733C2.33334 11.76 3.325 10.7567 4.55 10.7567C6.66167 10.7567 7.525 9.26333 6.46334 7.43166C5.85667 6.38166 6.21834 5.01666 7.28 4.41L9.29834 3.255C10.22 2.70666 11.41 3.03333 11.9583 3.955L12.0867 4.17666C13.1367 6.00833 14.8633 6.00833 15.925 4.17666L16.0533 3.955C16.6017 3.03333 17.7917 2.70666 18.7133 3.255L20.7317 4.41C21.7933 5.01666 22.155 6.38166 21.5483 7.43166C20.4867 9.26333 21.35 10.7567 23.4617 10.7567C24.675 10.7567 25.6783 11.7483 25.6783 12.9733V15.0267C25.6783 16.24 24.6867 17.2433 23.4617 17.2433C21.35 17.2433 20.4867 18.7367 21.5483 20.5683C22.155 21.63 21.7933 22.9833 20.7317 23.59L18.7133 24.745C17.7917 25.2933 16.6017 24.9667 16.0533 24.045L15.925 23.8233C14.875 21.9917 13.1483 21.9917 12.0867 23.8233L11.9583 24.045C11.41 24.9667 10.22 25.2933 9.29834 24.745L7.28 23.59C6.21834 22.9833 5.85667 21.6183 6.46334 20.5683C7.525 18.7367 6.66167 17.2433 4.55 17.2433C3.325 17.2433 2.33334 16.24 2.33334 15.0267Z" fill="url(#paint0_linear_283_583)"/>
<path opacity="0.4" d="M14 17.7917C16.0941 17.7917 17.7917 16.0941 17.7917 14C17.7917 11.9059 16.0941 10.2083 14 10.2083C11.9059 10.2083 10.2083 11.9059 10.2083 14C10.2083 16.0941 11.9059 17.7917 14 17.7917Z" fill="black"/>
<defs>
<linearGradient id="paint0_linear_283_583" x1="5.02699" y1="7.22335" x2="24.9865" y2="16.4427" gradientUnits="userSpaceOnUse">
<stop stop-color="#FCCFF7"/>
<stop offset="0.253253" stop-color="#E659D6"/>
<stop offset="0.608883" stop-color="#8877EA"/>
<stop offset="0.950613" stop-color="#86E2EE"/>
</linearGradient>
</defs>
</svg>
