<svg width="29" height="28" viewBox="0 0 29 28" fill="none" xmlns="http://www.w3.org/2000/svg">
<path d="M18 18.0833C18 22.2717 14.605 25.6667 10.4167 25.6667C6.22833 25.6667 2.83333 22.2717 2.83333 18.0833C2.83333 13.895 6.22833 10.5 10.4167 10.5C10.615 10.5 10.825 10.5117 11.0233 10.5233C14.7217 10.815 17.685 13.7783 17.9767 17.4767C17.9883 17.675 18 17.885 18 18.0833Z" fill="#59D6E6"/>
<path d="M18 18.0833C18 22.2717 14.605 25.6667 10.4167 25.6667C6.22833 25.6667 2.83333 22.2717 2.83333 18.0833C2.83333 13.895 6.22833 10.5 10.4167 10.5C10.615 10.5 10.825 10.5117 11.0233 10.5233C14.7217 10.815 17.685 13.7783 17.9767 17.4767C17.9883 17.675 18 17.885 18 18.0833Z" fill="url(#paint0_linear_283_582)"/>
<g opacity="0.4">
<path d="M26.1667 9.91666C26.1667 14.105 22.7717 17.5 18.5833 17.5C18.385 17.5 18.175 17.4883 17.9767 17.4767C17.685 13.7783 14.7217 10.815 11.0233 10.5233C11.0117 10.325 11 10.115 11 9.91666C11 5.72833 14.395 2.33333 18.5833 2.33333C22.7717 2.33333 26.1667 5.72833 26.1667 9.91666Z" fill="#59D6E6"/>
<path d="M26.1667 9.91666C26.1667 14.105 22.7717 17.5 18.5833 17.5C18.385 17.5 18.175 17.4883 17.9767 17.4767C17.685 13.7783 14.7217 10.815 11.0233 10.5233C11.0117 10.325 11 10.115 11 9.91666C11 5.72833 14.395 2.33333 18.5833 2.33333C22.7717 2.33333 26.1667 5.72833 26.1667 9.91666Z" fill="url(#paint1_linear_283_582)"/>
</g>
<path d="M7.02166 2.33333H4C3.35833 2.33333 2.83333 2.85833 2.83333 3.49999V6.52166C2.83333 7.55999 4.09332 8.085 4.82832 7.35L7.84999 4.32834C8.57332 3.59334 8.06 2.33333 7.02166 2.33333Z" fill="#59D6E6"/>
<path d="M7.02166 2.33333H4C3.35833 2.33333 2.83333 2.85833 2.83333 3.49999V6.52166C2.83333 7.55999 4.09332 8.085 4.82832 7.35L7.84999 4.32834C8.57332 3.59334 8.06 2.33333 7.02166 2.33333Z" fill="url(#paint2_linear_283_582)"/>
<path d="M21.9783 25.6667H25C25.6417 25.6667 26.1667 25.1417 26.1667 24.5V21.4783C26.1667 20.44 24.9067 19.915 24.1717 20.65L21.15 23.6717C20.4267 24.4067 20.94 25.6667 21.9783 25.6667Z" fill="#59D6E6"/>
<path d="M21.9783 25.6667H25C25.6417 25.6667 26.1667 25.1417 26.1667 24.5V21.4783C26.1667 20.44 24.9067 19.915 24.1717 20.65L21.15 23.6717C20.4267 24.4067 20.94 25.6667 21.9783 25.6667Z" fill="url(#paint3_linear_283_582)"/>
<defs>
<linearGradient id="paint0_linear_283_582" x1="4.58333" y1="13.4167" x2="17.8062" y2="19.1788" gradientUnits="userSpaceOnUse">
<stop stop-color="#FCCFF7"/>
<stop offset="0.253253" stop-color="#E659D6"/>
<stop offset="0.608883" stop-color="#8877EA"/>
<stop offset="0.950613" stop-color="#86E2EE"/>
</linearGradient>
<linearGradient id="paint1_linear_283_582" x1="12.75" y1="5.24999" x2="25.9729" y2="11.0121" gradientUnits="userSpaceOnUse">
<stop stop-color="#FCCFF7"/>
<stop offset="0.253253" stop-color="#E659D6"/>
<stop offset="0.608883" stop-color="#8877EA"/>
<stop offset="0.950613" stop-color="#86E2EE"/>
</linearGradient>
<linearGradient id="paint2_linear_283_582" x1="3.45116" y1="3.36404" x2="8.12085" y2="5.39697" gradientUnits="userSpaceOnUse">
<stop stop-color="#FCCFF7"/>
<stop offset="0.253253" stop-color="#E659D6"/>
<stop offset="0.608883" stop-color="#8877EA"/>
<stop offset="0.950613" stop-color="#86E2EE"/>
</linearGradient>
<linearGradient id="paint3_linear_283_582" x1="21.43" y1="21.3377" x2="26.0997" y2="23.3706" gradientUnits="userSpaceOnUse">
<stop stop-color="#FCCFF7"/>
<stop offset="0.253253" stop-color="#E659D6"/>
<stop offset="0.608883" stop-color="#8877EA"/>
<stop offset="0.950613" stop-color="#86E2EE"/>
</linearGradient>
</defs>
</svg>
