<svg width="29" height="29" viewBox="0 0 29 29" fill="none" xmlns="http://www.w3.org/2000/svg">
<path opacity="0.4" d="M26.4399 20.1234L22.7882 11.5834C22.1232 10.0201 21.1316 9.1334 19.9999 9.07507C18.8799 9.01673 17.7949 9.7984 16.9666 11.2917L14.7499 15.2701C14.2832 16.1101 13.6182 16.6117 12.8949 16.6701C12.1599 16.7401 11.4249 16.3551 10.8299 15.5967L10.5732 15.2701C9.74492 14.2317 8.71825 13.7301 7.66825 13.8351C6.61825 13.9401 5.71992 14.6634 5.12492 15.8417L3.10658 19.8667C2.38325 21.3251 2.45325 23.0167 3.30492 24.3934C4.15658 25.7701 5.63825 26.5984 7.25992 26.5984H22.1466C23.7099 26.5984 25.1682 25.8167 26.0316 24.5101C26.9182 23.2034 27.0582 21.5584 26.4399 20.1234Z" fill="#687599"/>
<path d="M8.88157 10.2766C11.0594 10.2766 12.8249 8.51107 12.8249 6.33323C12.8249 4.15538 11.0594 2.38989 8.88157 2.38989C6.70372 2.38989 4.93823 4.15538 4.93823 6.33323C4.93823 8.51107 6.70372 10.2766 8.88157 10.2766Z" fill="#687599"/>
</svg>
