<svg width="28" height="28" viewBox="0 0 28 28" fill="none" xmlns="http://www.w3.org/2000/svg">
<path fill-rule="evenodd" clip-rule="evenodd" d="M4.19995 5.59995C4.19995 5.22865 4.34745 4.87255 4.61 4.61C4.87255 4.34745 5.22865 4.19995 5.59995 4.19995H9.79995C10.1713 4.19995 10.5273 4.34745 10.7899 4.61C11.0525 4.87255 11.2 5.22865 11.2 5.59995V9.79995C11.2 10.1713 11.0525 10.5273 10.7899 10.7899C10.5273 11.0525 10.1713 11.2 9.79995 11.2H5.59995C5.22865 11.2 4.87255 11.0525 4.61 10.7899C4.34745 10.5273 4.19995 10.1713 4.19995 9.79995V5.59995ZM6.99995 8.39995V6.99995H8.39995V8.39995H6.99995ZM4.19995 18.2C4.19995 17.8286 4.34745 17.4726 4.61 17.21C4.87255 16.9475 5.22865 16.8 5.59995 16.8H9.79995C10.1713 16.8 10.5273 16.9475 10.7899 17.21C11.0525 17.4726 11.2 17.8286 11.2 18.2V22.4C11.2 22.7713 11.0525 23.1274 10.7899 23.3899C10.5273 23.6525 10.1713 23.8 9.79995 23.8H5.59995C5.22865 23.8 4.87255 23.6525 4.61 23.3899C4.34745 23.1274 4.19995 22.7713 4.19995 22.4V18.2ZM6.99995 21V19.6H8.39995V21H6.99995ZM18.2 4.19995C17.8286 4.19995 17.4726 4.34745 17.21 4.61C16.9475 4.87255 16.8 5.22865 16.8 5.59995V9.79995C16.8 10.1713 16.9475 10.5273 17.21 10.7899C17.4726 11.0525 17.8286 11.2 18.2 11.2H22.4C22.7713 11.2 23.1274 11.0525 23.3899 10.7899C23.6525 10.5273 23.8 10.1713 23.8 9.79995V5.59995C23.8 5.22865 23.6525 4.87255 23.3899 4.61C23.1274 4.34745 22.7713 4.19995 22.4 4.19995H18.2ZM19.6 6.99995V8.39995H21V6.99995H19.6Z" fill="#887CEB"/>
<path opacity="0.7" d="M15.4 5.59995C15.4 5.22865 15.2525 4.87255 14.9899 4.61C14.7273 4.34745 14.3713 4.19995 14 4.19995C13.6286 4.19995 13.2726 4.34745 13.01 4.61C12.7475 4.87255 12.6 5.22865 12.6 5.59995V6.99995C12.6 7.37125 12.7475 7.72735 13.01 7.9899C13.2726 8.25245 13.6286 8.39995 14 8.39995C14.3713 8.39995 14.7273 8.25245 14.9899 7.9899C15.2525 7.72735 15.4 7.37125 15.4 6.99995V5.59995ZM14 9.79995C14.3713 9.79995 14.7273 9.94745 14.9899 10.21C15.2525 10.4726 15.4 10.8286 15.4 11.2V12.6H18.2C18.5713 12.6 18.9273 12.7475 19.1899 13.01C19.4525 13.2726 19.6 13.6286 19.6 14C19.6 14.3713 19.4525 14.7273 19.1899 14.9899C18.9273 15.2525 18.5713 15.4 18.2 15.4H14C13.6286 15.4 13.2726 15.2525 13.01 14.9899C12.7475 14.7273 12.6 14.3713 12.6 14V11.2C12.6 10.8286 12.7475 10.4726 13.01 10.21C13.2726 9.94745 13.6286 9.79995 14 9.79995ZM22.4 12.6C22.0286 12.6 21.6726 12.7475 21.41 13.01C21.1475 13.2726 21 13.6286 21 14C21 14.3713 21.1475 14.7273 21.41 14.9899C21.6726 15.2525 22.0286 15.4 22.4 15.4C22.7713 15.4 23.1273 15.2525 23.3899 14.9899C23.6525 14.7273 23.8 14.3713 23.8 14C23.8 13.6286 23.6525 13.2726 23.3899 13.01C23.1273 12.7475 22.7713 12.6 22.4 12.6ZM12.6 18.2C12.6 17.8286 12.7475 17.4726 13.01 17.21C13.2726 16.9475 13.6286 16.8 14 16.8H15.4C15.7713 16.8 16.1273 16.9475 16.3899 17.21C16.6525 17.4726 16.8 17.8286 16.8 18.2C16.8 18.5713 16.6525 18.9273 16.3899 19.1899C16.1273 19.4525 15.7713 19.6 15.4 19.6V22.4C15.4 22.7713 15.2525 23.1273 14.9899 23.3899C14.7273 23.6525 14.3713 23.8 14 23.8C13.6286 23.8 13.2726 23.6525 13.01 23.3899C12.7475 23.1273 12.6 22.7713 12.6 22.4V18.2ZM9.79995 15.4C10.1713 15.4 10.5273 15.2525 10.7899 14.9899C11.0525 14.7273 11.2 14.3713 11.2 14C11.2 13.6286 11.0525 13.2726 10.7899 13.01C10.5273 12.7475 10.1713 12.6 9.79995 12.6H5.59995C5.22865 12.6 4.87255 12.7475 4.61 13.01C4.34745 13.2726 4.19995 13.6286 4.19995 14C4.19995 14.3713 4.34745 14.7273 4.61 14.9899C4.87255 15.2525 5.22865 15.4 5.59995 15.4H9.79995ZM23.8 18.2C23.8 18.5713 23.6525 18.9273 23.3899 19.1899C23.1273 19.4525 22.7713 19.6 22.4 19.6H19.6C19.2286 19.6 18.8726 19.4525 18.61 19.1899C18.3475 18.9273 18.2 18.5713 18.2 18.2C18.2 17.8286 18.3475 17.4726 18.61 17.21C18.8726 16.9475 19.2286 16.8 19.6 16.8H22.4C22.7713 16.8 23.1273 16.9475 23.3899 17.21C23.6525 17.4726 23.8 17.8286 23.8 18.2ZM22.4 23.8C22.7713 23.8 23.1273 23.6525 23.3899 23.3899C23.6525 23.1273 23.8 22.7713 23.8 22.4C23.8 22.0286 23.6525 21.6726 23.3899 21.41C23.1273 21.1475 22.7713 21 22.4 21H18.2C17.8286 21 17.4726 21.1475 17.21 21.41C16.9475 21.6726 16.8 22.0286 16.8 22.4C16.8 22.7713 16.9475 23.1273 17.21 23.3899C17.4726 23.6525 17.8286 23.8 18.2 23.8H22.4Z" fill="#887CEB"/>
</svg>
