<svg width="28" height="28" viewBox="0 0 28 28" fill="none" xmlns="http://www.w3.org/2000/svg">
<path d="M19.7041 21.0467L9.1808 24.5583C4.4558 26.1333 1.88913 23.555 3.45247 18.83L6.96413 8.30667C9.3208 1.225 13.1941 1.225 15.5508 8.30667L16.5891 11.4333L19.7158 12.4717C26.7858 14.8167 26.7858 18.6783 19.7041 21.0467Z" fill="#89F5C2"/>
<path d="M13.8606 14.431L9.4156 18.8877L13.8606 14.431Z" fill="#292D32"/>
<path opacity="0.6" d="M13.8608 13.5563C14.0825 13.5563 14.3042 13.6379 14.4792 13.8129C14.8175 14.1513 14.8175 14.7113 14.4792 15.0496L10.0458 19.5063C9.70749 19.8446 9.14749 19.8446 8.80916 19.5063C8.47083 19.1679 8.47083 18.6079 8.80916 18.2696L13.2425 13.8129C13.4175 13.6496 13.6392 13.5563 13.8608 13.5563Z" fill="#0C0F1E"/>
</svg>
