<svg width="28" height="28" viewBox="0 0 28 28" fill="none" xmlns="http://www.w3.org/2000/svg">
<path d="M8.29586 6.95333L18.8192 3.44166C23.5442 1.86666 26.1109 4.445 24.5475 9.17L21.0359 19.6933C18.6792 26.775 14.8059 26.775 12.4492 19.6933L11.4109 16.5667L8.2842 15.5283C1.2142 13.1833 1.2142 9.32166 8.29586 6.95333Z" fill="#59D6E6"/>
<path d="M14.1394 13.569L18.5844 9.1123L14.1394 13.569Z" fill="#292D32"/>
<path opacity="0.6" d="M14.1392 14.4437C13.9175 14.4437 13.6958 14.3621 13.5208 14.1871C13.1825 13.8487 13.1825 13.2887 13.5208 12.9504L17.9542 8.49374C18.2925 8.15541 18.8525 8.15541 19.1908 8.49374C19.5292 8.83207 19.5292 9.39207 19.1908 9.73041L14.7575 14.1871C14.5825 14.3504 14.3608 14.4437 14.1392 14.4437Z" fill="#0C0F1E"/>
</svg>
