<svg width="29" height="29" viewBox="0 0 29 29" fill="none" xmlns="http://www.w3.org/2000/svg">
<path opacity="0.4" d="M2.83337 15.5268V13.4734C2.83337 12.2601 3.82504 11.2568 5.05004 11.2568C7.16171 11.2568 8.02504 9.76342 6.96337 7.93176C6.35671 6.88176 6.71837 5.51676 7.78004 4.91009L9.79837 3.75509C10.72 3.20676 11.91 3.53342 12.4584 4.45509L12.5867 4.67676C13.6367 6.50842 15.3634 6.50842 16.425 4.67676L16.5534 4.45509C17.1017 3.53342 18.2917 3.20676 19.2134 3.75509L21.2317 4.91009C22.2934 5.51676 22.655 6.88176 22.0484 7.93176C20.9867 9.76342 21.85 11.2568 23.9617 11.2568C25.175 11.2568 26.1784 12.2484 26.1784 13.4734V15.5268C26.1784 16.7401 25.1867 17.7434 23.9617 17.7434C21.85 17.7434 20.9867 19.2368 22.0484 21.0684C22.655 22.1301 22.2934 23.4834 21.2317 24.0901L19.2134 25.2451C18.2917 25.7934 17.1017 25.4668 16.5534 24.5451L16.425 24.3234C15.375 22.4918 13.6484 22.4918 12.5867 24.3234L12.4584 24.5451C11.91 25.4668 10.72 25.7934 9.79837 25.2451L7.78004 24.0901C6.71837 23.4834 6.35671 22.1184 6.96337 21.0684C8.02504 19.2368 7.16171 17.7434 5.05004 17.7434C3.82504 17.7434 2.83337 16.7401 2.83337 15.5268Z" fill="#687599"/>
<path d="M14.5 18.2916C16.5941 18.2916 18.2917 16.594 18.2917 14.4999C18.2917 12.4058 16.5941 10.7083 14.5 10.7083C12.406 10.7083 10.7084 12.4058 10.7084 14.4999C10.7084 16.594 12.406 18.2916 14.5 18.2916Z" fill="#687599"/>
</svg>
