<svg width="29" height="29" viewBox="0 0 29 29" fill="none" xmlns="http://www.w3.org/2000/svg">
<path d="M18.2499 18.5833C18.2499 22.7717 14.8549 26.1667 10.6666 26.1667C6.47825 26.1667 3.08325 22.7717 3.08325 18.5833C3.08325 14.395 6.47825 11 10.6666 11C10.8649 11 11.0749 11.0117 11.2732 11.0233C14.9716 11.315 17.9349 14.2783 18.2266 17.9767C18.2383 18.175 18.2499 18.385 18.2499 18.5833Z" fill="#687599"/>
<path opacity="0.4" d="M26.4167 10.4166C26.4167 14.6049 23.0217 17.9999 18.8333 17.9999C18.635 17.9999 18.425 17.9882 18.2267 17.9766C17.935 14.2782 14.9717 11.3149 11.2733 11.0233C11.2617 10.8249 11.25 10.6149 11.25 10.4166C11.25 6.22825 14.645 2.83325 18.8333 2.83325C23.0217 2.83325 26.4167 6.22825 26.4167 10.4166Z" fill="#687599"/>
<path d="M7.27158 2.83325H4.24992C3.60825 2.83325 3.08325 3.35825 3.08325 3.99992V7.02158C3.08325 8.05991 4.34324 8.58492 5.07824 7.84992L8.0999 4.82826C8.82324 4.09326 8.30991 2.83325 7.27158 2.83325Z" fill="#687599"/>
<path d="M22.2284 26.1666H25.2501C25.8917 26.1666 26.4167 25.6416 26.4167 24.9999V21.9782C26.4167 20.9399 25.1568 20.4149 24.4218 21.1499L21.4001 24.1716C20.6768 24.9066 21.1901 26.1666 22.2284 26.1666Z" fill="#687599"/>
</svg>
