<svg width="15" height="13" viewBox="0 0 15 13" fill="none" xmlns="http://www.w3.org/2000/svg">
    <path d="M8.75 1.09131L14.25 6.34131C14.4062 6.49756 14.5 6.68506 14.5 6.90381C14.5 7.09131 14.4062 7.27881 14.25 7.43506L8.75 12.6851C8.46875 12.9663 7.96875 12.9663 7.6875 12.6538C7.40625 12.3726 7.40625 11.8726 7.71875 11.5913L11.875 7.65381H1.25C0.8125 7.65381 0.5 7.31006 0.5 6.90381C0.5 6.46631 0.8125 6.15381 1.25 6.15381H11.875L7.71875 2.18506C7.40625 1.90381 7.40625 1.40381 7.6875 1.12256C7.96875 0.810059 8.4375 0.810059 8.75 1.09131Z"
          fill="#5F38FB"/>
</svg>
