<svg width="209" height="181" viewBox="0 0 209 181" fill="none" xmlns="http://www.w3.org/2000/svg">
<path d="M75.7859 18.8914C75.7859 9.14771 84.7412 1.86615 94.2801 3.85389L191.465 24.1057C199.62 25.8051 205.458 33.002 205.439 41.3324L205.254 120.69L75.7859 93.2607V18.8914Z" fill="url(#paint0_linear)"/>
<path d="M81.2719 22.8229C81.2719 14.4558 88.9744 8.21104 97.1606 9.94119L188.426 29.2299C195.033 30.6265 199.756 36.466 199.74 43.2198L199.581 108.14C199.575 110.931 196.999 113.007 194.271 112.42L84.7386 88.8843C82.7162 88.4497 81.2719 86.662 81.2719 84.5935V22.8229Z" fill="url(#paint1_linear)"/>
<path d="M75.7862 93.2607L205.254 120.69L151.673 165.301C144.722 171.088 134.919 173.785 126.972 172.097L33.2352 152.186C18.6897 149.097 17.8522 133.729 31.702 124.055L75.7862 93.2607Z" fill="url(#paint2_linear)"/>
<path d="M76.742 99.6293C76.9956 99.4272 77.3256 99.3476 77.6435 99.4119L83.1164 100.52C84.0192 100.702 84.3086 101.849 83.6006 102.438L79.9258 105.497C79.6669 105.712 79.3234 105.797 78.9941 105.726L73.4573 104.54C72.5517 104.346 72.279 103.187 73.0032 102.61L76.742 99.6293Z" fill="url(#paint3_linear)"/>
<path d="M87.4147 101.891C87.6683 101.688 87.9984 101.609 88.3162 101.673L93.7891 102.781C94.692 102.963 94.9814 104.11 94.2733 104.699L90.5985 107.758C90.3396 107.973 89.9962 108.058 89.6668 107.987L84.13 106.802C83.2244 106.608 82.9517 105.448 83.676 104.871L87.4147 101.891Z" fill="url(#paint4_linear)"/>
<path d="M98.0873 104.152C98.3409 103.95 98.671 103.87 98.9888 103.935L104.462 105.042C105.365 105.225 105.654 106.372 104.946 106.961L101.271 110.019C101.012 110.235 100.669 110.319 100.339 110.249L94.8026 109.063C93.897 108.869 93.6243 107.709 94.3486 107.132L98.0873 104.152Z" fill="url(#paint5_linear)"/>
<path d="M108.76 106.413C109.014 106.211 109.344 106.131 109.662 106.196L115.135 107.303C116.037 107.486 116.327 108.633 115.619 109.222L111.944 112.28C111.685 112.496 111.342 112.581 111.012 112.51L105.476 111.324C104.57 111.13 104.297 109.971 105.021 109.393L108.76 106.413Z" fill="url(#paint6_linear)"/>
<path d="M119.433 108.674C119.686 108.472 120.016 108.393 120.334 108.457L125.807 109.565C126.71 109.747 126.999 110.894 126.291 111.483L122.617 114.542C122.358 114.757 122.014 114.842 121.685 114.771L116.148 113.585C115.242 113.391 114.97 112.232 115.694 111.655L119.433 108.674Z" fill="url(#paint7_linear)"/>
<path d="M130.106 110.936C130.359 110.733 130.689 110.654 131.007 110.718L136.48 111.826C137.383 112.009 137.672 113.155 136.964 113.744L133.289 116.803C133.031 117.018 132.687 117.103 132.358 117.033L126.821 115.847C125.915 115.653 125.643 114.493 126.367 113.916L130.106 110.936Z" fill="url(#paint8_linear)"/>
<path d="M140.778 113.197C141.032 112.995 141.362 112.915 141.68 112.98L147.153 114.087C148.055 114.27 148.345 115.417 147.637 116.006L143.962 119.064C143.703 119.28 143.36 119.365 143.03 119.294L137.493 118.108C136.588 117.914 136.315 116.754 137.039 116.177L140.778 113.197Z" fill="url(#paint9_linear)"/>
<path d="M151.451 115.458C151.705 115.256 152.035 115.176 152.353 115.241L157.825 116.348C158.728 116.531 159.018 117.678 158.31 118.267L154.635 121.326C154.376 121.541 154.032 121.626 153.703 121.555L148.166 120.369C147.261 120.175 146.988 119.016 147.712 118.438L151.451 115.458Z" fill="url(#paint10_linear)"/>
<path d="M162.124 117.72C162.377 117.517 162.707 117.438 163.025 117.502L168.498 118.61C169.401 118.792 169.69 119.939 168.982 120.528L165.307 123.587C165.049 123.802 164.705 123.887 164.376 123.816L158.839 122.631C157.933 122.437 157.661 121.277 158.385 120.7L162.124 117.72Z" fill="url(#paint11_linear)"/>
<path d="M172.797 119.981C173.05 119.778 173.38 119.699 173.698 119.763L179.171 120.871C180.074 121.054 180.363 122.2 179.655 122.79L175.98 125.848C175.721 126.063 175.378 126.148 175.049 126.078L169.512 124.892C168.606 124.698 168.334 123.538 169.058 122.961L172.797 119.981Z" fill="url(#paint12_linear)"/>
<path d="M183.469 122.242C183.723 122.04 184.053 121.96 184.371 122.025L189.844 123.132C190.746 123.315 191.036 124.462 190.328 125.051L186.653 128.11C186.394 128.325 186.051 128.41 185.721 128.339L180.184 127.153C179.279 126.959 179.006 125.8 179.73 125.222L183.469 122.242Z" fill="url(#paint13_linear)"/>
<path d="M69.6625 105.219C69.9161 105.017 70.2461 104.937 70.564 105.002L76.0369 106.109C76.9397 106.292 77.2291 107.439 76.5211 108.028L72.8463 111.087C72.5874 111.302 72.2439 111.387 71.9146 111.316L66.3778 110.13C65.4722 109.936 65.1995 108.777 65.9237 108.199L69.6625 105.219Z" fill="url(#paint14_linear)"/>
<path d="M80.3352 107.48C80.5888 107.278 80.9189 107.199 81.2367 107.263L86.7096 108.371C87.6125 108.553 87.9019 109.7 87.1939 110.289L83.519 113.348C83.2601 113.563 82.9167 113.648 82.5873 113.577L77.0506 112.391C76.1449 112.197 75.8722 111.038 76.5965 110.461L80.3352 107.48Z" fill="url(#paint15_linear)"/>
<path d="M91.0081 109.742C91.2617 109.54 91.5917 109.46 91.9096 109.524L97.3825 110.632C98.2853 110.815 98.5747 111.961 97.8667 112.551L94.1919 115.609C93.933 115.825 93.5895 115.909 93.2602 115.839L87.7234 114.653C86.8178 114.459 86.5451 113.299 87.2693 112.722L91.0081 109.742Z" fill="url(#paint16_linear)"/>
<path d="M101.681 112.003C101.934 111.801 102.264 111.721 102.582 111.785L108.055 112.893C108.958 113.076 109.247 114.223 108.539 114.812L104.864 117.87C104.606 118.086 104.262 118.17 103.933 118.1L98.396 116.914C97.4904 116.72 97.2177 115.56 97.9419 114.983L101.681 112.003Z" fill="url(#paint17_linear)"/>
<path d="M112.354 114.264C112.607 114.062 112.937 113.982 113.255 114.047L118.728 115.154C119.631 115.337 119.92 116.484 119.212 117.073L115.537 120.132C115.278 120.347 114.935 120.432 114.606 120.361L109.069 119.175C108.163 118.981 107.891 117.822 108.615 117.244L112.354 114.264Z" fill="url(#paint18_linear)"/>
<path d="M123.026 116.526C123.28 116.323 123.61 116.244 123.928 116.308L129.401 117.416C130.304 117.598 130.593 118.745 129.885 119.334L126.21 122.393C125.951 122.608 125.608 122.693 125.278 122.622L119.742 121.437C118.836 121.243 118.563 120.083 119.288 119.506L123.026 116.526Z" fill="url(#paint19_linear)"/>
<path d="M133.699 118.787C133.953 118.585 134.283 118.505 134.601 118.569L140.073 119.677C140.976 119.86 141.266 121.006 140.558 121.596L136.883 124.654C136.624 124.87 136.28 124.954 135.951 124.884L130.414 123.698C129.509 123.504 129.236 122.344 129.96 121.767L133.699 118.787Z" fill="url(#paint20_linear)"/>
<path d="M144.372 121.048C144.625 120.846 144.955 120.766 145.273 120.83L150.746 121.938C151.649 122.121 151.938 123.268 151.23 123.857L147.555 126.915C147.297 127.131 146.953 127.215 146.624 127.145L141.087 125.959C140.181 125.765 139.909 124.605 140.633 124.028L144.372 121.048Z" fill="url(#paint21_linear)"/>
<path d="M155.044 123.309C155.298 123.107 155.628 123.027 155.946 123.092L161.419 124.199C162.322 124.382 162.611 125.529 161.903 126.118L158.228 129.177C157.969 129.392 157.626 129.477 157.297 129.406L151.76 128.22C150.854 128.026 150.581 126.867 151.306 126.289L155.044 123.309Z" fill="url(#paint22_linear)"/>
<path d="M165.717 125.57C165.971 125.368 166.301 125.289 166.619 125.353L172.091 126.461C172.994 126.643 173.284 127.79 172.576 128.379L168.901 131.438C168.642 131.653 168.299 131.738 167.969 131.667L162.432 130.481C161.527 130.287 161.254 129.128 161.978 128.551L165.717 125.57Z" fill="url(#paint23_linear)"/>
<path d="M176.39 127.832C176.644 127.63 176.974 127.55 177.291 127.614L182.764 128.722C183.667 128.905 183.957 130.051 183.249 130.641L179.574 133.699C179.315 133.915 178.971 133.999 178.642 133.929L173.105 132.743C172.2 132.549 171.927 131.389 172.651 130.812L176.39 127.832Z" fill="url(#paint24_linear)"/>
<path d="M63.0054 110.767C63.2591 110.564 63.5891 110.485 63.907 110.549L69.3799 111.657C70.2827 111.84 70.5721 112.986 69.8641 113.575L66.1892 116.634C65.9304 116.849 65.5869 116.934 65.2576 116.864L59.7208 115.678C58.8152 115.484 58.5425 114.324 59.2667 113.747L63.0054 110.767Z" fill="url(#paint25_linear)"/>
<path d="M73.6782 113.028C73.9318 112.826 74.2618 112.746 74.5797 112.811L80.0526 113.918C80.9554 114.101 81.2448 115.248 80.5368 115.837L76.862 118.895C76.6031 119.111 76.2596 119.196 75.9303 119.125L70.3935 117.939C69.4879 117.745 69.2152 116.585 69.9394 116.008L73.6782 113.028Z" fill="url(#paint26_linear)"/>
<path d="M84.3509 115.289C84.6045 115.087 84.9346 115.007 85.2524 115.072L90.7253 116.179C91.6282 116.362 91.9176 117.509 91.2096 118.098L87.5347 121.157C87.2758 121.372 86.9324 121.457 86.603 121.386L81.0663 120.2C80.1606 120.006 79.8879 118.847 80.6122 118.269L84.3509 115.289Z" fill="url(#paint27_linear)"/>
<path d="M95.0236 117.551C95.2772 117.348 95.6073 117.269 95.9252 117.333L101.398 118.441C102.301 118.623 102.59 119.77 101.882 120.359L98.2074 123.418C97.9486 123.633 97.6051 123.718 97.2758 123.648L91.739 122.462C90.8334 122.268 90.5607 121.108 91.2849 120.531L95.0236 117.551Z" fill="url(#paint28_linear)"/>
<path d="M105.697 119.812C105.95 119.61 106.28 119.53 106.598 119.594L112.071 120.702C112.974 120.885 113.263 122.031 112.555 122.621L108.88 125.679C108.621 125.895 108.278 125.979 107.949 125.909L102.412 124.723C101.506 124.529 101.234 123.369 101.958 122.792L105.697 119.812Z" fill="url(#paint29_linear)"/>
<path d="M116.369 122.073C116.623 121.871 116.953 121.791 117.271 121.856L122.744 122.963C123.646 123.146 123.936 124.293 123.228 124.882L119.553 127.94C119.294 128.156 118.951 128.241 118.621 128.17L113.085 126.984C112.179 126.79 111.906 125.631 112.63 125.053L116.369 122.073Z" fill="url(#paint30_linear)"/>
<path d="M127.042 124.334C127.296 124.132 127.626 124.053 127.944 124.117L133.416 125.225C134.319 125.407 134.609 126.554 133.901 127.143L130.226 130.202C129.967 130.417 129.623 130.502 129.294 130.431L123.757 129.245C122.852 129.051 122.579 127.892 123.303 127.315L127.042 124.334Z" fill="url(#paint31_linear)"/>
<path d="M137.715 126.596C137.968 126.393 138.298 126.314 138.616 126.378L144.089 127.486C144.992 127.669 145.281 128.815 144.573 129.404L140.899 132.463C140.64 132.678 140.296 132.763 139.967 132.693L134.43 131.507C133.525 131.313 133.252 130.153 133.976 129.576L137.715 126.596Z" fill="url(#paint32_linear)"/>
<path d="M148.388 128.857C148.641 128.654 148.971 128.575 149.289 128.639L154.762 129.747C155.665 129.93 155.954 131.076 155.246 131.666L151.571 134.724C151.312 134.94 150.969 135.024 150.64 134.954L145.103 133.768C144.197 133.574 143.925 132.414 144.649 131.837L148.388 128.857Z" fill="url(#paint33_linear)"/>
<path d="M159.06 131.118C159.314 130.916 159.644 130.836 159.962 130.901L165.435 132.008C166.337 132.191 166.627 133.338 165.919 133.927L162.244 136.985C161.985 137.201 161.642 137.285 161.312 137.215L155.776 136.029C154.87 135.835 154.597 134.675 155.321 134.098L159.06 131.118Z" fill="url(#paint34_linear)"/>
<path d="M169.733 133.379C169.987 133.177 170.317 133.098 170.635 133.162L176.108 134.269C177.01 134.452 177.3 135.599 176.592 136.188L172.917 139.247C172.658 139.462 172.315 139.547 171.985 139.476L166.449 138.29C165.543 138.096 165.27 136.937 165.994 136.359L169.733 133.379Z" fill="url(#paint35_linear)"/>
<path d="M56.3485 116.314C56.6022 116.112 56.9322 116.032 57.2501 116.097L62.723 117.204C63.6258 117.387 63.9152 118.534 63.2072 119.123L59.5323 122.182C59.2735 122.397 58.93 122.482 58.6007 122.411L53.0639 121.225C52.1583 121.031 51.8856 119.872 52.6098 119.294L56.3485 116.314Z" fill="url(#paint36_linear)"/>
<path d="M67.0211 118.575C67.2748 118.373 67.6048 118.294 67.9227 118.358L73.3956 119.466C74.2984 119.648 74.5878 120.795 73.8798 121.384L70.2049 124.443C69.9461 124.658 69.6026 124.743 69.2733 124.672L63.7365 123.486C62.8309 123.292 62.5582 122.133 63.2824 121.555L67.0211 118.575Z" fill="url(#paint37_linear)"/>
<path d="M77.6939 120.837C77.9475 120.635 78.2775 120.555 78.5954 120.619L84.0683 121.727C84.9711 121.91 85.2605 123.056 84.5525 123.646L80.8777 126.704C80.6188 126.92 80.2753 127.004 79.946 126.934L74.4092 125.748C73.5036 125.554 73.2309 124.394 73.9551 123.817L77.6939 120.837Z" fill="url(#paint38_linear)"/>
<path d="M88.3666 123.098C88.6202 122.896 88.9503 122.816 89.2681 122.881L94.741 123.988C95.6439 124.171 95.9333 125.318 95.2253 125.907L91.5504 128.965C91.2915 129.181 90.9481 129.265 90.6187 129.195L85.082 128.009C84.1763 127.815 83.9036 126.655 84.6279 126.078L88.3666 123.098Z" fill="url(#paint39_linear)"/>
<path d="M99.0395 125.359C99.2931 125.157 99.6231 125.077 99.941 125.142L105.414 126.249C106.317 126.432 106.606 127.579 105.898 128.168L102.223 131.227C101.964 131.442 101.621 131.527 101.292 131.456L95.7548 130.27C94.8492 130.076 94.5765 128.917 95.3007 128.339L99.0395 125.359Z" fill="url(#paint40_linear)"/>
<path d="M109.712 127.621C109.966 127.418 110.296 127.339 110.614 127.403L116.086 128.511C116.989 128.694 117.279 129.84 116.571 130.429L112.896 133.488C112.637 133.703 112.294 133.788 111.964 133.718L106.427 132.532C105.522 132.338 105.249 131.178 105.973 130.601L109.712 127.621Z" fill="url(#paint41_linear)"/>
<path d="M120.385 129.882C120.639 129.68 120.969 129.6 121.286 129.664L126.759 130.772C127.662 130.955 127.952 132.101 127.244 132.691L123.569 135.749C123.31 135.965 122.966 136.049 122.637 135.979L117.1 134.793C116.195 134.599 115.922 133.439 116.646 132.862L120.385 129.882Z" fill="url(#paint42_linear)"/>
<path d="M131.058 132.143C131.311 131.941 131.641 131.861 131.959 131.926L137.432 133.033C138.335 133.216 138.624 134.363 137.916 134.952L134.241 138.011C133.983 138.226 133.639 138.311 133.31 138.24L127.773 137.054C126.867 136.86 126.595 135.701 127.319 135.123L131.058 132.143Z" fill="url(#paint43_linear)"/>
<path d="M141.73 134.404C141.984 134.202 142.314 134.123 142.632 134.187L148.105 135.295C149.008 135.477 149.297 136.624 148.589 137.213L144.914 140.272C144.655 140.487 144.312 140.572 143.983 140.501L138.446 139.315C137.54 139.121 137.267 137.962 137.992 137.385L141.73 134.404Z" fill="url(#paint44_linear)"/>
<path d="M152.403 136.665C152.657 136.463 152.987 136.384 153.305 136.448L158.778 137.556C159.68 137.738 159.97 138.885 159.262 139.474L155.587 142.533C155.328 142.748 154.985 142.833 154.655 142.762L149.118 141.576C148.213 141.382 147.94 140.223 148.664 139.646L152.403 136.665Z" fill="url(#paint45_linear)"/>
<path d="M163.076 138.927C163.329 138.725 163.66 138.645 163.977 138.709L169.45 139.817C170.353 140 170.643 141.146 169.935 141.736L166.26 144.794C166.001 145.01 165.657 145.094 165.328 145.024L159.791 143.838C158.886 143.644 158.613 142.484 159.337 141.907L163.076 138.927Z" fill="url(#paint46_linear)"/>
<path d="M79.767 135.282C80.0248 135.074 80.3627 134.994 80.6863 135.064L113.664 142.167C114.552 142.358 114.836 143.484 114.145 144.074L98.4096 157.495C97.6346 158.156 96.5973 158.421 95.6003 158.213L62.6945 151.337C61.7879 151.148 61.5094 149.99 62.2306 149.409L79.767 135.282Z" fill="url(#paint47_linear)"/>
<path d="M202.511 121.788C204.032 119.505 205.254 116.302 205.254 110.816L208.545 127.822L194.83 129.468C197.208 127.273 200.316 125.079 202.511 121.788Z" fill="url(#paint48_linear)"/>
<rect x="24.2181" y="59.1226" width="11.9177" height="11.9177" fill="#4762E7"/>
<rect x="24.2181" y="93.2866" width="11.9177" height="11.9177" fill="#4762E7"/>
<rect x="41.6975" y="76.6019" width="11.9177" height="11.9177" fill="#4762E7"/>
<rect x="58.3823" y="59.1226" width="11.9177" height="11.9177" fill="#4762E7"/>
<rect x="58.3823" y="93.2866" width="11.9177" height="11.9177" fill="#4762E7"/>
<path d="M28.1775 38.2761H3.37158V63.082" stroke="#4762E7" stroke-width="6.58311"/>
<path d="M91.1464 63.082L91.1464 38.2761L66.3404 38.2761" stroke="#4762E7" stroke-width="6.58311"/>
<path d="M66.3404 126.051L91.1464 126.051L91.1464 101.245" stroke="#4762E7" stroke-width="6.58311"/>
<path d="M3.37159 101.245L3.37158 126.051L28.1775 126.051" stroke="#4762E7" stroke-width="6.58311"/>
<defs>
<linearGradient id="paint0_linear" x1="232.683" y1="80.6431" x2="32.9957" y2="76.8029" gradientUnits="userSpaceOnUse">
<stop offset="0.0829926" stop-color="#426AF7"/>
<stop offset="1" stop-color="#AABDFE" stop-opacity="0"/>
</linearGradient>
<linearGradient id="paint1_linear" x1="198.671" y1="36.7557" x2="58.7796" y2="96.0037" gradientUnits="userSpaceOnUse">
<stop stop-color="#EFF3FF"/>
<stop offset="0.0001" stop-color="#F4F7FF"/>
<stop offset="0.341931" stop-color="#F0F3FF" stop-opacity="0.72924"/>
<stop offset="0.613088" stop-color="#E6EBFF" stop-opacity="0.356973"/>
<stop offset="0.904677" stop-color="#AABDFE" stop-opacity="0"/>
</linearGradient>
<linearGradient id="paint2_linear" x1="212.934" y1="184.327" x2="34.6421" y2="106.427" gradientUnits="userSpaceOnUse">
<stop stop-color="#426AF7"/>
<stop offset="1" stop-color="#AABDFE" stop-opacity="0"/>
</linearGradient>
<linearGradient id="paint3_linear" x1="253.53" y1="134.954" x2="58.7795" y2="121.788" gradientUnits="userSpaceOnUse">
<stop stop-color="#E8EDFF"/>
<stop offset="1" stop-color="#FBFCFF" stop-opacity="0.2"/>
</linearGradient>
<linearGradient id="paint4_linear" x1="253.53" y1="134.954" x2="58.7795" y2="121.788" gradientUnits="userSpaceOnUse">
<stop stop-color="#E8EDFF"/>
<stop offset="1" stop-color="#FBFCFF" stop-opacity="0.2"/>
</linearGradient>
<linearGradient id="paint5_linear" x1="253.53" y1="134.954" x2="58.7795" y2="121.788" gradientUnits="userSpaceOnUse">
<stop stop-color="#E8EDFF"/>
<stop offset="1" stop-color="#FBFCFF" stop-opacity="0.2"/>
</linearGradient>
<linearGradient id="paint6_linear" x1="253.53" y1="134.954" x2="58.7795" y2="121.788" gradientUnits="userSpaceOnUse">
<stop stop-color="#E8EDFF"/>
<stop offset="1" stop-color="#FBFCFF" stop-opacity="0.2"/>
</linearGradient>
<linearGradient id="paint7_linear" x1="253.53" y1="134.954" x2="58.7795" y2="121.788" gradientUnits="userSpaceOnUse">
<stop stop-color="#E8EDFF"/>
<stop offset="1" stop-color="#FBFCFF" stop-opacity="0.2"/>
</linearGradient>
<linearGradient id="paint8_linear" x1="253.53" y1="134.954" x2="58.7795" y2="121.788" gradientUnits="userSpaceOnUse">
<stop stop-color="#E8EDFF"/>
<stop offset="1" stop-color="#FBFCFF" stop-opacity="0.2"/>
</linearGradient>
<linearGradient id="paint9_linear" x1="253.53" y1="134.954" x2="58.7795" y2="121.788" gradientUnits="userSpaceOnUse">
<stop stop-color="#E8EDFF"/>
<stop offset="1" stop-color="#FBFCFF" stop-opacity="0.2"/>
</linearGradient>
<linearGradient id="paint10_linear" x1="253.53" y1="134.954" x2="58.7795" y2="121.788" gradientUnits="userSpaceOnUse">
<stop stop-color="#E8EDFF"/>
<stop offset="1" stop-color="#FBFCFF" stop-opacity="0.2"/>
</linearGradient>
<linearGradient id="paint11_linear" x1="253.53" y1="134.954" x2="58.7795" y2="121.788" gradientUnits="userSpaceOnUse">
<stop stop-color="#E8EDFF"/>
<stop offset="1" stop-color="#FBFCFF" stop-opacity="0.2"/>
</linearGradient>
<linearGradient id="paint12_linear" x1="253.53" y1="134.954" x2="58.7795" y2="121.788" gradientUnits="userSpaceOnUse">
<stop stop-color="#E8EDFF"/>
<stop offset="1" stop-color="#FBFCFF" stop-opacity="0.2"/>
</linearGradient>
<linearGradient id="paint13_linear" x1="253.53" y1="134.954" x2="58.7795" y2="121.788" gradientUnits="userSpaceOnUse">
<stop stop-color="#E8EDFF"/>
<stop offset="1" stop-color="#FBFCFF" stop-opacity="0.2"/>
</linearGradient>
<linearGradient id="paint14_linear" x1="253.53" y1="134.954" x2="58.7795" y2="121.788" gradientUnits="userSpaceOnUse">
<stop stop-color="#E8EDFF"/>
<stop offset="1" stop-color="#FBFCFF" stop-opacity="0.2"/>
</linearGradient>
<linearGradient id="paint15_linear" x1="253.53" y1="134.954" x2="58.7795" y2="121.788" gradientUnits="userSpaceOnUse">
<stop stop-color="#E8EDFF"/>
<stop offset="1" stop-color="#FBFCFF" stop-opacity="0.2"/>
</linearGradient>
<linearGradient id="paint16_linear" x1="253.53" y1="134.954" x2="58.7795" y2="121.788" gradientUnits="userSpaceOnUse">
<stop stop-color="#E8EDFF"/>
<stop offset="1" stop-color="#FBFCFF" stop-opacity="0.2"/>
</linearGradient>
<linearGradient id="paint17_linear" x1="253.53" y1="134.954" x2="58.7795" y2="121.788" gradientUnits="userSpaceOnUse">
<stop stop-color="#E8EDFF"/>
<stop offset="1" stop-color="#FBFCFF" stop-opacity="0.2"/>
</linearGradient>
<linearGradient id="paint18_linear" x1="253.53" y1="134.954" x2="58.7795" y2="121.788" gradientUnits="userSpaceOnUse">
<stop stop-color="#E8EDFF"/>
<stop offset="1" stop-color="#FBFCFF" stop-opacity="0.2"/>
</linearGradient>
<linearGradient id="paint19_linear" x1="253.53" y1="134.954" x2="58.7795" y2="121.788" gradientUnits="userSpaceOnUse">
<stop stop-color="#E8EDFF"/>
<stop offset="1" stop-color="#FBFCFF" stop-opacity="0.2"/>
</linearGradient>
<linearGradient id="paint20_linear" x1="253.53" y1="134.954" x2="58.7795" y2="121.788" gradientUnits="userSpaceOnUse">
<stop stop-color="#E8EDFF"/>
<stop offset="1" stop-color="#FBFCFF" stop-opacity="0.2"/>
</linearGradient>
<linearGradient id="paint21_linear" x1="253.53" y1="134.954" x2="58.7795" y2="121.788" gradientUnits="userSpaceOnUse">
<stop stop-color="#E8EDFF"/>
<stop offset="1" stop-color="#FBFCFF" stop-opacity="0.2"/>
</linearGradient>
<linearGradient id="paint22_linear" x1="253.53" y1="134.954" x2="58.7795" y2="121.788" gradientUnits="userSpaceOnUse">
<stop stop-color="#E8EDFF"/>
<stop offset="1" stop-color="#FBFCFF" stop-opacity="0.2"/>
</linearGradient>
<linearGradient id="paint23_linear" x1="253.53" y1="134.954" x2="58.7795" y2="121.788" gradientUnits="userSpaceOnUse">
<stop stop-color="#E8EDFF"/>
<stop offset="1" stop-color="#FBFCFF" stop-opacity="0.2"/>
</linearGradient>
<linearGradient id="paint24_linear" x1="253.53" y1="134.954" x2="58.7795" y2="121.788" gradientUnits="userSpaceOnUse">
<stop stop-color="#E8EDFF"/>
<stop offset="1" stop-color="#FBFCFF" stop-opacity="0.2"/>
</linearGradient>
<linearGradient id="paint25_linear" x1="253.53" y1="134.954" x2="58.7795" y2="121.788" gradientUnits="userSpaceOnUse">
<stop stop-color="#E8EDFF"/>
<stop offset="1" stop-color="#FBFCFF" stop-opacity="0.2"/>
</linearGradient>
<linearGradient id="paint26_linear" x1="253.53" y1="134.954" x2="58.7795" y2="121.788" gradientUnits="userSpaceOnUse">
<stop stop-color="#E8EDFF"/>
<stop offset="1" stop-color="#FBFCFF" stop-opacity="0.2"/>
</linearGradient>
<linearGradient id="paint27_linear" x1="253.53" y1="134.954" x2="58.7795" y2="121.788" gradientUnits="userSpaceOnUse">
<stop stop-color="#E8EDFF"/>
<stop offset="1" stop-color="#FBFCFF" stop-opacity="0.2"/>
</linearGradient>
<linearGradient id="paint28_linear" x1="253.53" y1="134.954" x2="58.7795" y2="121.788" gradientUnits="userSpaceOnUse">
<stop stop-color="#E8EDFF"/>
<stop offset="1" stop-color="#FBFCFF" stop-opacity="0.2"/>
</linearGradient>
<linearGradient id="paint29_linear" x1="253.53" y1="134.954" x2="58.7795" y2="121.788" gradientUnits="userSpaceOnUse">
<stop stop-color="#E8EDFF"/>
<stop offset="1" stop-color="#FBFCFF" stop-opacity="0.2"/>
</linearGradient>
<linearGradient id="paint30_linear" x1="253.53" y1="134.954" x2="58.7795" y2="121.788" gradientUnits="userSpaceOnUse">
<stop stop-color="#E8EDFF"/>
<stop offset="1" stop-color="#FBFCFF" stop-opacity="0.2"/>
</linearGradient>
<linearGradient id="paint31_linear" x1="253.53" y1="134.954" x2="58.7795" y2="121.788" gradientUnits="userSpaceOnUse">
<stop stop-color="#E8EDFF"/>
<stop offset="1" stop-color="#FBFCFF" stop-opacity="0.2"/>
</linearGradient>
<linearGradient id="paint32_linear" x1="253.53" y1="134.954" x2="58.7795" y2="121.788" gradientUnits="userSpaceOnUse">
<stop stop-color="#E8EDFF"/>
<stop offset="1" stop-color="#FBFCFF" stop-opacity="0.2"/>
</linearGradient>
<linearGradient id="paint33_linear" x1="253.53" y1="134.954" x2="58.7795" y2="121.788" gradientUnits="userSpaceOnUse">
<stop stop-color="#E8EDFF"/>
<stop offset="1" stop-color="#FBFCFF" stop-opacity="0.2"/>
</linearGradient>
<linearGradient id="paint34_linear" x1="253.53" y1="134.954" x2="58.7795" y2="121.788" gradientUnits="userSpaceOnUse">
<stop stop-color="#E8EDFF"/>
<stop offset="1" stop-color="#FBFCFF" stop-opacity="0.2"/>
</linearGradient>
<linearGradient id="paint35_linear" x1="253.53" y1="134.954" x2="58.7795" y2="121.788" gradientUnits="userSpaceOnUse">
<stop stop-color="#E8EDFF"/>
<stop offset="1" stop-color="#FBFCFF" stop-opacity="0.2"/>
</linearGradient>
<linearGradient id="paint36_linear" x1="253.53" y1="134.954" x2="58.7795" y2="121.788" gradientUnits="userSpaceOnUse">
<stop stop-color="#E8EDFF"/>
<stop offset="1" stop-color="#FBFCFF" stop-opacity="0.2"/>
</linearGradient>
<linearGradient id="paint37_linear" x1="253.53" y1="134.954" x2="58.7795" y2="121.788" gradientUnits="userSpaceOnUse">
<stop stop-color="#E8EDFF"/>
<stop offset="1" stop-color="#FBFCFF" stop-opacity="0.2"/>
</linearGradient>
<linearGradient id="paint38_linear" x1="253.53" y1="134.954" x2="58.7795" y2="121.788" gradientUnits="userSpaceOnUse">
<stop stop-color="#E8EDFF"/>
<stop offset="1" stop-color="#FBFCFF" stop-opacity="0.2"/>
</linearGradient>
<linearGradient id="paint39_linear" x1="253.53" y1="134.954" x2="58.7795" y2="121.788" gradientUnits="userSpaceOnUse">
<stop stop-color="#E8EDFF"/>
<stop offset="1" stop-color="#FBFCFF" stop-opacity="0.2"/>
</linearGradient>
<linearGradient id="paint40_linear" x1="253.53" y1="134.954" x2="58.7795" y2="121.788" gradientUnits="userSpaceOnUse">
<stop stop-color="#E8EDFF"/>
<stop offset="1" stop-color="#FBFCFF" stop-opacity="0.2"/>
</linearGradient>
<linearGradient id="paint41_linear" x1="253.53" y1="134.954" x2="58.7795" y2="121.788" gradientUnits="userSpaceOnUse">
<stop stop-color="#E8EDFF"/>
<stop offset="1" stop-color="#FBFCFF" stop-opacity="0.2"/>
</linearGradient>
<linearGradient id="paint42_linear" x1="253.53" y1="134.954" x2="58.7795" y2="121.788" gradientUnits="userSpaceOnUse">
<stop stop-color="#E8EDFF"/>
<stop offset="1" stop-color="#FBFCFF" stop-opacity="0.2"/>
</linearGradient>
<linearGradient id="paint43_linear" x1="253.53" y1="134.954" x2="58.7795" y2="121.788" gradientUnits="userSpaceOnUse">
<stop stop-color="#E8EDFF"/>
<stop offset="1" stop-color="#FBFCFF" stop-opacity="0.2"/>
</linearGradient>
<linearGradient id="paint44_linear" x1="253.53" y1="134.954" x2="58.7795" y2="121.788" gradientUnits="userSpaceOnUse">
<stop stop-color="#E8EDFF"/>
<stop offset="1" stop-color="#FBFCFF" stop-opacity="0.2"/>
</linearGradient>
<linearGradient id="paint45_linear" x1="253.53" y1="134.954" x2="58.7795" y2="121.788" gradientUnits="userSpaceOnUse">
<stop stop-color="#E8EDFF"/>
<stop offset="1" stop-color="#FBFCFF" stop-opacity="0.2"/>
</linearGradient>
<linearGradient id="paint46_linear" x1="253.53" y1="134.954" x2="58.7795" y2="121.788" gradientUnits="userSpaceOnUse">
<stop stop-color="#E8EDFF"/>
<stop offset="1" stop-color="#FBFCFF" stop-opacity="0.2"/>
</linearGradient>
<linearGradient id="paint47_linear" x1="125.708" y1="140.44" x2="43.6026" y2="150.054" gradientUnits="userSpaceOnUse">
<stop stop-color="#EFF3FF"/>
<stop offset="0.0001" stop-color="#F4F7FF"/>
<stop offset="0.341931" stop-color="#F0F3FF" stop-opacity="0.72924"/>
<stop offset="0.613088" stop-color="#E6EBFF" stop-opacity="0.356973"/>
<stop offset="0.904677" stop-color="#AABDFE" stop-opacity="0"/>
</linearGradient>
<linearGradient id="paint48_linear" x1="195.165" y1="120.142" x2="208.11" y2="120.142" gradientUnits="userSpaceOnUse">
<stop stop-color="#FBF8FF"/>
<stop offset="1" stop-color="#F7F8FF"/>
</linearGradient>
</defs>
</svg>
