<svg width="20" height="21" viewBox="0 0 20 21" fill="none" xmlns="http://www.w3.org/2000/svg">
<g id="foundation:megaphone">
<path id="Vector" d="M5.4656 6.20115C3.8152 6.20115 2.4774 7.53895 2.4774 9.18935C2.4774 10.8398 3.8152 12.1776 5.4656 12.1776C5.5949 12.1774 5.71988 12.131 5.81801 12.0468C5.91614 11.9626 5.98097 11.8461 6.0008 11.7184H6.0094V6.74515C6.0094 6.60091 5.95212 6.46257 5.85014 6.36055C5.74816 6.25854 5.60984 6.2012 5.4656 6.20115ZM17.5228 3.76255C17.5227 3.61834 17.4654 3.48005 17.3635 3.37808C17.2615 3.27611 17.1232 3.2188 16.979 3.21875C16.8544 3.21875 16.741 3.26235 16.6494 3.33275L11.8642 6.09555H7.5506C7.40638 6.09555 7.26806 6.15284 7.16608 6.25483C7.06409 6.35681 7.0068 6.49513 7.0068 6.63935V11.8012H7.0136C7.02956 11.9324 7.09296 12.0533 7.19187 12.1411C7.29077 12.2289 7.41836 12.2775 7.5506 12.2778H11.3782L16.6102 15.2984C16.7072 15.3884 16.8362 15.4446 16.979 15.4446C17.1232 15.4445 17.2615 15.3872 17.3635 15.2852C17.4654 15.1832 17.5227 15.045 17.5228 14.9008C17.5228 14.8801 17.519 14.8606 17.5168 14.8406H17.5228V3.79415H17.5196C17.5202 3.78355 17.5228 3.77355 17.5228 3.76255ZM11.2424 16.4142L11.2348 16.401C11.2322 16.3962 11.231 16.3912 11.2282 16.3864C11.2254 16.3816 11.2218 16.378 11.219 16.3736L9.558 13.497L9.5518 13.5006C9.50828 13.4405 9.45283 13.39 9.38893 13.3523C9.32503 13.3146 9.25405 13.2904 9.1804 13.2814V13.2754H7.736V13.279C7.65612 13.2849 7.57857 13.3086 7.509 13.3483C7.44715 13.384 7.39293 13.4316 7.34945 13.4882C7.30597 13.5449 7.27408 13.6095 7.2556 13.6785C7.23712 13.7475 7.23241 13.8194 7.24174 13.8902C7.25108 13.961 7.27427 14.0293 7.31 14.0912C7.3228 14.1132 7.3384 14.1324 7.3538 14.1518L7.3474 14.1556L9.283 17.5084L9.2834 17.5094C9.28355 17.5097 9.28375 17.5099 9.284 17.5102L9.3034 17.5438L9.3068 17.5418C9.38348 17.6552 9.50027 17.7354 9.63369 17.7663C9.76712 17.7972 9.90728 17.7764 10.026 17.7082C10.055 17.6914 10.0812 17.6716 10.1058 17.6508L10.1108 17.6594L11.1074 17.0842L11.1028 17.0762C11.1973 16.9979 11.2625 16.8899 11.2876 16.7697C11.3127 16.6496 11.2963 16.5245 11.241 16.415L11.2424 16.4142Z" fill="#FEFEFE"/>
</g>
</svg>
