<svg width="249" height="248" viewBox="0 0 249 248" fill="none" xmlns="http://www.w3.org/2000/svg">
<g clip-path="url(#clip0_187_1851)">
<rect width="248" height="248" transform="translate(0.5)" fill="white"/>
<rect x="0.5" width="248" height="248" fill="white"/>
<path fill-rule="evenodd" clip-rule="evenodd" d="M0.5 0H19.1V4.13333H4.63333V18.6H0.5V0Z" fill="#5E72E4"/>
<path fill-rule="evenodd" clip-rule="evenodd" d="M248.5 248L229.9 248L229.9 243.867L244.367 243.867L244.367 229.4L248.5 229.4L248.5 248Z" fill="#5E72E4"/>
<path fill-rule="evenodd" clip-rule="evenodd" d="M248.5 0L248.5 18.6L244.367 18.6L244.367 4.13333L229.9 4.13333L229.9 -8.13032e-07L248.5 0Z" fill="#5E72E4"/>
<path fill-rule="evenodd" clip-rule="evenodd" d="M0.5 248L0.499999 229.4L4.63333 229.4L4.63333 243.867L19.1 243.867L19.1 248L0.5 248Z" fill="#5E72E4"/>
<path fill-rule="evenodd" clip-rule="evenodd" d="M132.912 109.735C132.367 108.102 130.839 107 129.117 107H120.883C119.161 107 117.633 108.102 117.088 109.735L116.228 112.316C116.092 112.725 115.71 113 115.279 113H111C108.239 113 106 115.239 106 118V136C106 138.761 108.239 141 111 141H139C141.761 141 144 138.761 144 136V118C144 115.239 141.761 113 139 113H134.721C134.29 113 133.908 112.725 133.772 112.316L132.912 109.735ZM125 134C128.866 134 132 130.866 132 127C132 123.134 128.866 120 125 120C121.134 120 118 123.134 118 127C118 130.866 121.134 134 125 134ZM125 136C129.971 136 134 131.971 134 127C134 122.029 129.971 118 125 118C120.029 118 116 122.029 116 127C116 131.971 120.029 136 125 136ZM135 116C134.448 116 134 116.448 134 117C134 117.552 134.448 118 135 118H138C138.552 118 139 117.552 139 117C139 116.448 138.552 116 138 116H135Z" fill="#172B4D"/>
</g>
<defs>
<clipPath id="clip0_187_1851">
<rect width="248" height="248" fill="white" transform="translate(0.5)"/>
</clipPath>
</defs>
</svg>
