<svg width="20" height="20" viewBox="0 0 20 20" fill="none" xmlns="http://www.w3.org/2000/svg">
<path fill-rule="evenodd" clip-rule="evenodd" d="M0.599102 3.99876C4.07326 3.95556 7.41368 2.65292 9.9999 0.332764C12.586 2.65335 15.9264 3.95643 19.4007 3.99996C19.5327 4.77996 19.5999 5.58396 19.5999 6.40116C19.5999 12.6712 15.5919 18.0052 9.9999 19.9816C4.4079 18.004 0.399902 12.67 0.399902 6.39996C0.399902 5.58156 0.468302 4.77996 0.599102 3.99876ZM14.4483 8.44836C14.6669 8.22204 14.7878 7.91892 14.7851 7.60428C14.7824 7.28965 14.6562 6.98867 14.4337 6.76618C14.2112 6.54369 13.9102 6.41749 13.5956 6.41475C13.2809 6.41202 12.9778 6.53297 12.7515 6.75156L8.7999 10.7032L7.2483 9.15156C7.02198 8.93297 6.71886 8.81202 6.40422 8.81475C6.08958 8.81749 5.78861 8.94369 5.56612 9.16618C5.34363 9.38867 5.21743 9.68965 5.21469 10.0043C5.21196 10.3189 5.33291 10.622 5.5515 10.8484L7.9515 13.2484C8.17654 13.4733 8.48171 13.5997 8.7999 13.5997C9.1181 13.5997 9.42327 13.4733 9.6483 13.2484L14.4483 8.44836Z" fill="black"/>
</svg>
