<svg width="24" height="24" viewBox="0 0 24 24" fill="none" xmlns="http://www.w3.org/2000/svg">
<path fill-rule="evenodd" clip-rule="evenodd" d="M21.5999 6.0001V15.6001C21.5999 16.2366 21.347 16.8471 20.897 17.2972C20.4469 17.7472 19.8364 18.0001 19.1999 18.0001H13.1999L7.1999 22.8001V18.0001H4.7999C4.16338 18.0001 3.55293 17.7472 3.10285 17.2972C2.65276 16.8471 2.3999 16.2366 2.3999 15.6001V6.0001C2.3999 5.36358 2.65276 4.75313 3.10285 4.30304C3.55293 3.85295 4.16338 3.6001 4.7999 3.6001H19.1999C19.8364 3.6001 20.4469 3.85295 20.897 4.30304C21.347 4.75313 21.5999 5.36358 21.5999 6.0001ZM8.3999 9.6001H5.9999V12.0001H8.3999V9.6001ZM10.7999 9.6001H13.1999V12.0001H10.7999V9.6001ZM17.9999 9.6001H15.5999V12.0001H17.9999V9.6001Z" fill="#040317"/>
</svg>
