<svg width="64" height="64" viewBox="0 0 64 64" fill="none" xmlns="http://www.w3.org/2000/svg">
<path fill-rule="evenodd" clip-rule="evenodd" d="M32 0C14.3648 0 0 14.3648 0 32C0 49.6352 14.3648 64 32 64C49.6352 64 64 49.6352 64 32C64 14.3648 49.6352 0 32 0ZM32 6.4C46.1764 6.4 57.6 17.8236 57.6 32C57.6 46.1764 46.1764 57.6 32 57.6C17.8236 57.6 6.4 46.1764 6.4 32C6.4 17.8236 17.8236 6.4 32 6.4ZM16.9375 21.4625L21.4625 16.9375L32 27.475L42.5375 16.9375L47.0625 21.4625L36.525 32L47.0625 42.5375L42.5375 47.0625L32 36.525L21.4625 47.0625L16.9375 42.5375L27.475 32L16.9375 21.4625Z" fill="#F5365C"/>
</svg>
