<svg width="172" height="170" viewBox="0 0 172 170" fill="none" xmlns="http://www.w3.org/2000/svg">
<circle cx="86.5" cy="85" r="85" fill="#D0DEF5" fill-opacity="0.3"/>
<mask id="mask0_2265_21160" style="mask-type:alpha" maskUnits="userSpaceOnUse" x="0" y="0" width="171" height="170">
<circle cx="85.5" cy="85" r="85" fill="white"/>
</mask>
<g mask="url(#mask0_2265_21160)">
<path d="M152 60C149 59 147.5 55 146 51C144.5 55 143 59 140 60C143 61 144.5 64 146 68.5C147.5 64 149 61 152 60Z" fill="white" stroke="#3B82F6"/>
<path d="M46.5 36C43.5 35 42 31 40.5 27C39 31 37.5 35 34.5 36C37.5 37 39 40 40.5 44.5C42 40 43.5 37 46.5 36Z" fill="white" stroke="#3B82F6"/>
<path d="M126 139.657C124 139.029 123 136.514 122 134C121 136.514 120 139.029 118 139.657C120 140.286 121 142.171 122 145C123 142.171 124 140.286 126 139.657Z" fill="white" stroke="#3B82F6"/>
<path d="M37 105.657C35 105.029 34 102.514 33 100C32 102.514 31 105.029 29 105.657C31 106.286 32 108.171 33 111C34 108.171 35 106.286 37 105.657Z" fill="white" stroke="#3B82F6"/>
<ellipse opacity="0.3" cx="87" cy="116.5" rx="44" ry="7.5" fill="black"/>
<path d="M130 85C130 93.4232 128.136 100.822 121.882 106.16C115.58 111.538 104.625 115 86 115C67.3754 115 56.4199 111.538 50.1183 106.16C43.8638 100.822 42 93.4232 42 85C42 76.5795 43.8623 69.3076 50.1141 64.0314C56.4199 58.7095 67.3818 55.2489 86.0134 54.9999C104.631 54.7511 115.58 58.2146 121.878 63.6492C128.135 69.049 130 76.574 130 85Z" fill="#D0DEF5" stroke="#3B82F6" stroke-width="2"/>
<rect x="48" y="54" width="76" height="62" rx="15" fill="#D0DEF5" stroke="#3B82F6" stroke-width="2"/>
<path d="M106.5 85C106.5 89.9247 105.723 94.3604 104.484 97.5467C103.864 99.1414 103.137 100.398 102.357 101.247C101.576 102.096 100.779 102.5 100 102.5C99.2207 102.5 98.4238 102.096 97.6434 101.247C96.8626 100.398 96.1364 99.1414 95.5163 97.5467C94.2772 94.3604 93.5 89.9247 93.5 85C93.5 80.0753 94.2772 75.6396 95.5163 72.4533C96.1364 70.8586 96.8626 69.6022 97.6434 68.7529C98.4238 67.9042 99.2207 67.5 100 67.5C100.779 67.5 101.576 67.9042 102.357 68.7529C103.137 69.6022 103.864 70.8586 104.484 72.4533C105.723 75.6396 106.5 80.0753 106.5 85Z" fill="white" stroke="#3B82F6"/>
<path d="M78.5 85C78.5 89.9247 77.7228 94.3604 76.4837 97.5467C75.8636 99.1414 75.1374 100.398 74.3566 101.247C73.5762 102.096 72.7793 102.5 72 102.5C71.2207 102.5 70.4238 102.096 69.6434 101.247C68.8626 100.398 68.1364 99.1414 67.5163 97.5467C66.2772 94.3604 65.5 89.9247 65.5 85C65.5 80.0753 66.2772 75.6396 67.5163 72.4533C68.1364 70.8586 68.8626 69.6022 69.6434 68.7529C70.4238 67.9042 71.2207 67.5 72 67.5C72.7793 67.5 73.5762 67.9042 74.3566 68.7529C75.1374 69.6022 75.8636 70.8586 76.4837 72.4533C77.7228 75.6396 78.5 80.0753 78.5 85Z" fill="white" stroke="#3B82F6"/>
<path opacity="0.6" d="M107 85C101.143 77.3692 98.1728 79.2502 93 85C93 75.0589 96.134 67 100 67C103.866 67 107 75.0589 107 85Z" fill="#3B82F6"/>
<path opacity="0.6" d="M79 85C73.1426 77.3692 70.1728 79.2502 65 85C65 75.0589 68.134 67 72 67C75.866 67 79 75.0589 79 85Z" fill="#3B82F6"/>
</g>
</svg>
