<svg width="21" height="21" viewBox="0 0 21 21" fill="none" xmlns="http://www.w3.org/2000/svg">
<path d="M10.5 0.5C4.97833 0.5 0.5 4.9775 0.5 10.5C0.5 14.9183 3.365 18.6667 7.33917 19.9892C7.83833 20.0817 8 19.7717 8 19.5083V17.6467C5.21833 18.2517 4.63917 16.4667 4.63917 16.4667C4.18417 15.3108 3.52833 15.0033 3.52833 15.0033C2.62083 14.3825 3.5975 14.3958 3.5975 14.3958C4.60167 14.4658 5.13 15.4267 5.13 15.4267C6.02167 16.955 7.46917 16.5133 8.04 16.2575C8.12917 15.6117 8.38833 15.17 8.675 14.9208C6.45417 14.6667 4.11917 13.8092 4.11917 9.97833C4.11917 8.88583 4.51 7.99417 5.14917 7.29417C5.04583 7.04167 4.70333 6.02417 5.24667 4.6475C5.24667 4.6475 6.08667 4.37917 7.9975 5.6725C8.795 5.45083 9.65 5.34 10.5 5.33583C11.35 5.34 12.2058 5.45083 13.005 5.6725C14.9142 4.37917 15.7525 4.6475 15.7525 4.6475C16.2967 6.025 15.9542 7.0425 15.8508 7.29417C16.4925 7.99417 16.88 8.88667 16.88 9.97833C16.88 13.8192 14.5408 14.665 12.3142 14.9125C12.6725 15.2225 13 15.8308 13 16.7642V19.5083C13 19.7742 13.16 20.0867 13.6675 19.9883C17.6383 18.6642 20.5 14.9167 20.5 10.5C20.5 4.9775 16.0225 0.5 10.5 0.5Z" fill="#566172"/>
</svg>
