<svg width="40" height="41" viewBox="0 0 40 41" fill="none" xmlns="http://www.w3.org/2000/svg">
<path fill-rule="evenodd" clip-rule="evenodd" d="M28 12.5C28 16.9183 24.4183 20.5 20 20.5C15.5817 20.5 12 16.9183 12 12.5C12 8.08172 15.5817 4.5 20 4.5C24.4183 4.5 28 8.08172 28 12.5ZM17.3547 20.5671C17.7859 20.5227 18.2236 20.5 18.6667 20.5C25.027 20.5 30.3473 24.9535 31.6791 30.9123L17.3547 20.5671ZM12.5821 22.0544C8.65924 24.207 6 28.3763 6 33.1667V36.5H32V36.0782L12.5821 22.0544Z" fill="#ECAA5D"/>
<path d="M4.00051 8.50013L38 33.5" stroke="#ECAA5D" stroke-width="4"/>
</svg>
