<svg width="32" height="32" viewBox="0 0 32 32" fill="none" xmlns="http://www.w3.org/2000/svg">
<path fill-rule="evenodd" clip-rule="evenodd" d="M16 0C7.16313 0 0 7.16313 0 16C0 24.8369 7.16313 32 16 32C24.8369 32 32 24.8369 32 16C32 7.16313 24.8369 0 16 0ZM16.0004 6.26114C17.1531 6.26114 18.0874 7.1954 18.0874 8.34809C18.0874 9.50079 17.1531 10.4351 16.0004 10.4351C14.8477 10.4351 13.9135 9.50079 13.9135 8.34809C13.9135 7.1954 14.8477 6.26114 16.0004 6.26114ZM17.3917 25.0434H18.783V23.6521H17.3917V14.6086V13.2173H14.6091H13.2178V14.6086H14.6091V23.6521H13.2178V25.0434H14.6091H17.3917Z" fill="#32325D"/>
</svg>
