<svg width="16" height="13" viewBox="0 0 16 13" fill="none" xmlns="http://www.w3.org/2000/svg">
<path d="M14.4922 1.00781C15.1484 1.66406 15.5 2.50781 15.5 3.375C15.4766 4.24219 15.1484 5.10938 14.4922 5.76562L11.8438 8.41406C11.2109 9.07031 10.3672 9.39844 9.45312 9.39844C8.5625 9.39844 7.71875 9.04688 7.08594 8.41406C6.42969 7.78125 6.07812 6.9375 6.07812 6.02344C6.07812 5.48438 6.21875 4.96875 6.47656 4.5C6.47656 4.5 6.5 4.5 6.52344 4.5C6.89844 4.5 7.27344 4.64062 7.53125 4.89844C7.32031 5.22656 7.20312 5.625 7.20312 6.04688C7.20312 6.63281 7.4375 7.19531 7.88281 7.61719C8.72656 8.48438 10.2031 8.48438 11.0469 7.61719L13.6953 4.96875C14.5859 4.10156 14.5859 2.67188 13.6953 1.80469C13.2734 1.35938 12.6875 1.125 12.125 1.125C11.5391 1.125 10.9531 1.35938 10.5312 1.80469L9.33594 2.97656C9.05469 2.71875 8.72656 2.50781 8.39844 2.32031L9.75781 1.00781C10.4141 0.328125 11.3047 0 12.1953 0.0234375C13.0391 0.0234375 13.8594 0.351562 14.4922 1.00781ZM5.44531 10.2188L6.64062 9.04688C6.92188 9.30469 7.25 9.51562 7.57812 9.70312L6.24219 11.0156C5.53906 11.7188 4.60156 12.0469 3.6875 12C2.86719 11.9766 2.09375 11.625 1.48438 11.0156C0.828125 10.3594 0.5 9.49219 0.5 8.64844C0.5 7.78125 0.828125 6.91406 1.48438 6.25781L4.13281 3.58594C4.76562 2.95312 5.60938 2.60156 6.52344 2.60156C7.41406 2.60156 8.25781 2.95312 8.89062 3.58594C9.54688 4.21875 9.89844 5.0625 9.89844 5.97656C9.89844 6.51562 9.75781 7.03125 9.5 7.5C9.5 7.5 9.47656 7.5 9.45312 7.5C9.07812 7.5 8.70312 7.35938 8.44531 7.125C8.65625 6.77344 8.77344 6.375 8.77344 5.97656C8.77344 5.36719 8.53906 4.80469 8.09375 4.38281C7.25 3.51562 5.77344 3.51562 4.92969 4.38281L2.28125 7.03125C1.39062 7.89844 1.39062 9.32812 2.28125 10.2188C2.70312 10.6406 3.28906 10.875 3.85156 10.875C4.4375 10.875 5.02344 10.6406 5.44531 10.2188Z" fill="white"/>
</svg>
