<svg width="28" height="28" viewBox="0 0 28 28" fill="none" xmlns="http://www.w3.org/2000/svg">
<path d="M4.01718 7.34096C2.6955 9.32235 1.99997 11.6416 2 14.0001M19.2934 3.23064C16.6817 1.94688 13.6924 1.656 10.8821 2.41214C9.67432 2.73712 8.53497 3.24598 7.50012 3.91282M10.5724 25.5001C11.255 25.7035 11.9567 25.8465 12.6695 25.926M22.4705 22.5001C23.7748 21.2002 24.7726 19.6075 25.3702 17.8365C26.3006 15.0791 26.1973 12.0774 25.0794 9.39048C24.6437 8.34336 24.0656 7.37185 23.3676 6.50006M3.19918 19.2289C3.49881 19.8478 3.85139 20.4405 4.25326 21.0001C4.75069 21.6927 5.32364 22.3346 5.96518 22.913" stroke="#8898AA" stroke-width="3" stroke-linecap="round" stroke-linejoin="round"/>
</svg>
