<svg width="180" height="179" viewBox="0 0 180 179" fill="none" xmlns="http://www.w3.org/2000/svg">
<circle cx="90" cy="89.5" r="89.5" fill="#D0DEF5" fill-opacity="0.3"/>
<mask id="mask0_2486_21821" style="mask-type:alpha" maskUnits="userSpaceOnUse" x="0" y="0" width="180" height="179">
<circle cx="90" cy="89.5" r="89.5" fill="#D0DEF5"/>
</mask>
<g mask="url(#mask0_2486_21821)">
<ellipse opacity="0.5" cx="89.5" cy="128.5" rx="61.5" ry="24.5" fill="#D0DEF5"/>
<path d="M48.1887 137.245C45.4275 136.505 48.7203 115.263 55.5434 89.7986C62.3665 64.3345 70.1361 44.2915 72.8973 45.0313C75.6584 45.7712 73.4766 67.3114 66.6535 92.7755C59.8304 118.24 50.9498 137.985 48.1887 137.245Z" fill="#7FC5C7"/>
<path d="M47.1829 141.739C49.2099 100.428 55.2611 78.5845 73.9753 41.7478" stroke="#33A5A4" stroke-width="2" stroke-linecap="round" stroke-linejoin="round"/>
<path d="M52.2978 108.577C42.1735 105.864 36.1653 95.4572 38.8781 85.333C41.5909 75.2087 51.9974 69.2005 62.1217 71.9133C72.246 74.6261 76.307 74.5234 74.5208 81.1895C72.861 87.3842 69.8546 108.533 64.2611 110.591C60.7128 111.897 56.2274 109.63 52.2978 108.577Z" fill="#7FC5C7"/>
<path d="M80.4679 52.8978L73.9754 41.7477C71.0881 82.8265 66.6971 105.115 47.183 141.739L58.3806 135.329C61.4174 133.59 65.0293 133.124 68.4216 134.033L88.3063 139.361C104.753 143.768 121.541 137.083 130.629 123.909L132.779 124.485C139.733 126.349 146.87 122.263 148.719 115.36C150.569 108.457 146.431 101.351 139.477 99.4875L137.327 98.9115C136.044 82.9585 124.848 68.7752 108.401 64.3682L88.516 59.0401C85.1236 58.1311 82.2286 55.9216 80.4679 52.8978Z" fill="url(#paint0_linear_2486_21821)"/>
<path d="M59.9996 111.682L53.7039 109.995C43.2729 107.2 37.0659 96.5406 39.8404 86.1862C42.6148 75.8318 53.32 69.7037 63.7511 72.4987L70.0468 74.1856M47.183 141.739L58.3806 135.329C61.4174 133.59 65.0293 133.124 68.4216 134.033L88.3063 139.361C104.753 143.768 121.541 137.083 130.629 123.909L132.779 124.485C139.733 126.348 146.87 122.263 148.719 115.36C150.569 108.457 146.431 101.351 139.477 99.4875L137.327 98.9115C136.044 82.9585 124.848 68.7752 108.401 64.3682L88.516 59.0401C85.1236 58.1311 82.2286 55.9216 80.4679 52.8978L73.9754 41.7477C71.764 83.0064 66.0827 104.949 47.183 141.739Z" stroke="#33A5A4" stroke-width="2" stroke-linecap="round" stroke-linejoin="round"/>
</g>
<defs>
<linearGradient id="paint0_linear_2486_21821" x1="100.5" y1="140.5" x2="73.5" y2="46" gradientUnits="userSpaceOnUse">
<stop stop-color="#46ADAD"/>
<stop offset="1" stop-color="#7FC5C7"/>
</linearGradient>
</defs>
</svg>
