<svg width="18" height="18" viewBox="0 0 18 18" fill="none" xmlns="http://www.w3.org/2000/svg">
<path d="M9 0.875C4.51992 0.875 0.875 4.51992 0.875 9C0.875 13.4801 4.51992 17.125 9 17.125C13.4801 17.125 17.125 13.4801 17.125 9C17.125 4.51992 13.4801 0.875 9 0.875ZM9 13.3715C8.84548 13.3715 8.69444 13.3257 8.56596 13.2398C8.43748 13.154 8.33735 13.032 8.27822 12.8892C8.21909 12.7465 8.20362 12.5894 8.23376 12.4378C8.26391 12.2863 8.33831 12.1471 8.44757 12.0378C8.55683 11.9285 8.69604 11.8541 8.84759 11.824C8.99913 11.7939 9.15622 11.8093 9.29897 11.8685C9.44173 11.9276 9.56374 12.0277 9.64959 12.1562C9.73543 12.2847 9.78125 12.4357 9.78125 12.5902C9.78125 12.7974 9.69894 12.9961 9.55243 13.1427C9.40591 13.2892 9.2072 13.3715 9 13.3715ZM9.84844 5.51406L9.62422 10.2797C9.62422 10.4454 9.55837 10.6044 9.44116 10.7216C9.32395 10.8388 9.16498 10.9047 8.99922 10.9047C8.83346 10.9047 8.67449 10.8388 8.55728 10.7216C8.44007 10.6044 8.37422 10.4454 8.37422 10.2797L8.15 5.51641V5.51445C8.14509 5.39997 8.16339 5.28568 8.20381 5.17846C8.24424 5.07124 8.30594 4.97331 8.38521 4.89056C8.46448 4.80782 8.55967 4.74197 8.66506 4.69699C8.77045 4.65201 8.88385 4.62882 8.99844 4.62882C9.11302 4.62882 9.22643 4.65201 9.33181 4.69699C9.4372 4.74197 9.5324 4.80782 9.61167 4.89056C9.69094 4.97331 9.75264 5.07124 9.79306 5.17846C9.83348 5.28568 9.85179 5.39997 9.84687 5.51445L9.84844 5.51406Z" fill="#314FDF"/>
</svg>
