<svg width="160" height="160" viewBox="0 0 160 160" fill="none" xmlns="http://www.w3.org/2000/svg">
<g clip-path="url(#clip0_372_539)">
<path d="M109.026 135.161C110.042 137.098 112.442 137.855 114.315 136.725C122.374 131.861 129.314 125.321 134.654 117.532C139.993 109.742 143.59 100.911 145.219 91.6396C145.597 89.4855 144.025 87.5195 141.853 87.2708C139.68 87.0221 137.73 88.5857 137.334 90.7366C135.863 98.7245 132.73 106.33 128.121 113.054C123.512 119.778 117.548 125.443 110.629 129.697C108.766 130.842 108.01 133.224 109.026 135.161Z" fill="#1D1C37"/>
<path d="M142.255 80.3268C144.442 80.3308 146.231 78.5594 146.103 76.3761C145.556 66.9787 143.003 57.7909 138.599 49.4368C134.195 41.0828 128.057 33.7851 120.613 28.0233C118.884 26.6846 116.412 27.1594 115.179 28.966C113.946 30.7727 114.422 33.226 116.14 34.5788C122.522 39.6027 127.792 45.9193 131.593 53.1303C135.394 60.3412 137.628 68.2581 138.167 76.3624C138.312 78.5447 140.068 80.3229 142.255 80.3268Z" fill="#1D1C37"/>
<path d="M108.929 25.2199C109.941 23.2812 109.194 20.8773 107.198 19.9831C98.6077 16.1346 89.2781 14.1619 79.8345 14.2164C70.3909 14.2709 61.0847 16.3511 52.539 20.2985C50.5535 21.2156 49.8346 23.628 50.8691 25.5549C51.9036 27.4818 54.2995 28.1918 56.2924 27.291C63.6937 23.9454 71.7287 22.1833 79.8802 22.1363C88.0316 22.0892 96.0865 23.7586 103.526 27.0185C105.529 27.8963 107.917 27.1586 108.929 25.2199Z" fill="#1D1C37"/>
<path d="M44.8733 29.2259C43.6274 27.4284 41.1519 26.972 39.4324 28.3234C32.0312 34.14 25.9473 41.483 21.6052 49.8693C17.2631 58.2557 14.7783 67.4621 14.3003 76.8633C14.1892 79.0475 15.9908 80.8056 18.1777 80.7855C20.3647 80.7654 22.1072 78.9742 22.2361 76.791C22.715 68.6829 24.8904 60.7497 28.6384 53.5108C32.3864 46.272 37.609 39.9166 43.9538 34.8456C45.6623 33.4802 46.1192 31.0234 44.8733 29.2259Z" fill="#1D1C37"/>
<path d="M18.588 87.3601C16.4155 87.612 14.8465 89.5804 15.2282 91.7339C16.8711 101.003 20.4809 109.829 25.8318 117.611C31.1827 125.392 38.1321 131.922 46.1989 136.773C48.0731 137.901 50.4727 137.14 51.4854 135.202C52.4982 133.263 51.7395 130.882 49.8746 129.74C42.9487 125.497 36.9765 119.84 32.3578 113.123C27.7391 106.406 24.5945 98.805 23.1115 90.8192C22.7122 88.6689 20.7605 87.1082 18.588 87.3601Z" fill="#89F5C2"/>
<ellipse cx="80.2151" cy="80.4155" rx="47" ry="47.5" fill="#E36B7D"/>
<path fill-rule="evenodd" clip-rule="evenodd" d="M69.7151 77.8155V73.6155C69.7151 70.8307 70.8213 68.16 72.7905 66.1909C74.7596 64.2217 77.4303 63.1155 80.2151 63.1155C82.9998 63.1155 85.6706 64.2217 87.6397 66.1909C89.6088 68.16 90.7151 70.8307 90.7151 73.6155V77.8155C91.829 77.8155 92.8973 78.258 93.6849 79.0456C94.4726 79.8333 94.9151 80.9016 94.9151 82.0155V92.5155C94.9151 93.6294 94.4726 94.6977 93.6849 95.4853C92.8973 96.273 91.829 96.7155 90.7151 96.7155H69.7151C68.6012 96.7155 67.5329 96.273 66.7452 95.4853C65.9576 94.6977 65.5151 93.6294 65.5151 92.5155V82.0155C65.5151 80.9016 65.9576 79.8333 66.7452 79.0456C67.5329 78.258 68.6012 77.8155 69.7151 77.8155ZM86.5151 73.6155V77.8155H73.9151V73.6155C73.9151 71.9446 74.5788 70.3422 75.7603 69.1607C76.9418 67.9792 78.5442 67.3155 80.2151 67.3155C81.8859 67.3155 83.4884 67.9792 84.6698 69.1607C85.8513 70.3422 86.5151 71.9446 86.5151 73.6155Z" fill="black"/>
</g>
<defs>
<clipPath id="clip0_372_539">
<rect width="160" height="160" fill="white"/>
</clipPath>
</defs>
</svg>
