<svg width="16" height="15" viewBox="0 0 16 15" fill="none" xmlns="http://www.w3.org/2000/svg">
<path fill-rule="evenodd" clip-rule="evenodd" d="M6.25697 1.5991C7.02197 0.239102 8.97897 0.239102 9.74297 1.5991L15.323 11.5191C16.073 12.8531 15.11 14.4991 13.581 14.4991H2.41997C0.889971 14.4991 -0.0730296 12.8531 0.67697 11.5191L6.25697 1.5991ZM8.99997 11.5001C8.99997 11.7653 8.89461 12.0197 8.70708 12.2072C8.51954 12.3947 8.26519 12.5001 7.99997 12.5001C7.73475 12.5001 7.4804 12.3947 7.29286 12.2072C7.10533 12.0197 6.99997 11.7653 6.99997 11.5001C6.99997 11.2349 7.10533 10.9805 7.29286 10.793C7.4804 10.6055 7.73475 10.5001 7.99997 10.5001C8.26519 10.5001 8.51954 10.6055 8.70708 10.793C8.89461 10.9805 8.99997 11.2349 8.99997 11.5001ZM7.99997 3.5001C7.73475 3.5001 7.4804 3.60546 7.29286 3.79299C7.10533 3.98053 6.99997 4.23488 6.99997 4.5001V7.5001C6.99997 7.76532 7.10533 8.01967 7.29286 8.20721C7.4804 8.39474 7.73475 8.5001 7.99997 8.5001C8.26519 8.5001 8.51954 8.39474 8.70708 8.20721C8.89461 8.01967 8.99997 7.76532 8.99997 7.5001V4.5001C8.99997 4.23488 8.89461 3.98053 8.70708 3.79299C8.51954 3.60546 8.26519 3.5001 7.99997 3.5001Z" fill="#E3926B"/>
</svg>
