<svg width="28" height="28" viewBox="0 0 28 28" fill="none" xmlns="http://www.w3.org/2000/svg">
<g opacity="0.5">
<path d="M22.0789 9.50885C22.7885 9.50885 23.4821 9.29844 24.0721 8.90422C24.6621 8.51 25.1219 7.94968 25.3935 7.29412C25.665 6.63856 25.7361 5.91719 25.5976 5.22125C25.4592 4.52531 25.1175 3.88605 24.6158 3.3843C24.114 2.88256 23.4748 2.54087 22.7788 2.40243C22.0829 2.264 21.3615 2.33505 20.706 2.60659C20.0504 2.87814 19.4901 3.33798 19.0959 3.92797C18.7017 4.51796 18.4912 5.2116 18.4912 5.92117C18.4912 6.39232 18.584 6.85886 18.7643 7.29415C18.9446 7.72944 19.2088 8.12496 19.542 8.45811C19.8751 8.79126 20.2706 9.05553 20.7059 9.23581C21.1412 9.4161 21.6078 9.50888 22.0789 9.50885ZM11.0782 25.6668C9.34863 25.6668 7.65788 25.1539 6.21978 24.193C4.78167 23.2321 3.66081 21.8663 2.99893 20.2684C2.33704 18.6705 2.16386 16.9122 2.50129 15.2158C2.83872 13.5194 3.67159 11.9612 4.8946 10.7382C6.11761 9.51523 7.67581 8.68235 9.37217 8.34493C11.0685 8.0075 12.8268 8.18069 14.4248 8.84258C16.0227 9.50447 17.3885 10.6253 18.3494 12.0634C19.3103 13.5015 19.8232 15.1923 19.8232 16.9219C19.8232 18.0703 19.597 19.2075 19.1576 20.2685C18.7181 21.3295 18.0739 22.2935 17.2619 23.1056C16.4498 23.9176 15.4858 24.5618 14.4248 25.0012C13.3638 25.4407 12.2266 25.6669 11.0782 25.6668Z" fill="#7D00FF"/>
</g>
</svg>
