<svg width="44" height="44" viewBox="0 0 44 44" fill="none" xmlns="http://www.w3.org/2000/svg">
<path d="M37.0038 13.6577C38.3215 13.6577 39.6097 13.2669 40.7054 12.5348C41.8011 11.8027 42.6551 10.7621 43.1594 9.54461C43.6637 8.32714 43.7956 6.98747 43.5386 5.69501C43.2815 4.40255 42.6469 3.21534 41.7151 2.28353C40.7833 1.35172 39.5961 0.717145 38.3036 0.460059C37.0112 0.202972 35.6715 0.334918 34.454 0.839212C33.2365 1.34351 32.196 2.1975 31.4638 3.29319C30.7317 4.38889 30.3409 5.67708 30.3409 6.99486C30.3409 7.86985 30.5132 8.73628 30.848 9.54468C31.1828 10.3531 31.6736 11.0876 32.2923 11.7063C32.911 12.325 33.6456 12.8158 34.454 13.1506C35.2623 13.4854 36.1288 13.6577 37.0038 13.6577ZM16.5739 43.6654C13.3618 43.6654 10.2218 42.7129 7.55108 40.9283C4.88032 39.1438 2.79872 36.6073 1.5695 33.6397C0.340287 30.6721 0.0186696 27.4067 0.645321 24.2563C1.27197 21.1059 2.81875 18.2121 5.09004 15.9408C7.36134 13.6695 10.2551 12.1228 13.4055 11.4961C16.5559 10.8695 19.8214 11.1911 22.7889 12.4203C25.7565 13.6495 28.293 15.7312 30.0775 18.4019C31.862 21.0727 32.8145 24.2127 32.8145 27.4248C32.8146 29.5575 32.3945 31.6694 31.5784 33.6399C30.7622 35.6103 29.566 37.4007 28.0579 38.9087C26.5498 40.4168 24.7594 41.6131 22.789 42.4293C20.8186 43.2454 18.7067 43.6654 16.5739 43.6654Z" fill="#7D00FF"/>
</svg>
