<svg width="44" height="44" viewBox="0 0 44 44" fill="none" xmlns="http://www.w3.org/2000/svg">
<path d="M21.9999 43.6654C33.9661 43.6654 43.6666 33.9649 43.6666 21.9987C43.6666 10.0325 33.9661 0.332031 21.9999 0.332031C10.0337 0.332031 0.333252 10.0325 0.333252 21.9987C0.333252 33.9649 10.0337 43.6654 21.9999 43.6654Z" fill="url(#paint0_linear_3422_9752)"/>
<path d="M35.681 20.6733L29.5612 14.5535L29.5501 14.5424L29.5259 14.5212C29.4863 14.4854 29.4448 14.4517 29.4017 14.4203C29.3714 14.396 29.3412 14.3728 29.3088 14.3516C29.2947 14.3415 29.2806 14.3335 29.2654 14.3244C28.9165 14.0959 28.4945 14.0069 28.083 14.0752C27.6716 14.1434 27.3009 14.3639 27.0445 14.6928L17.5265 24.2118V15.7317C17.5265 15.2859 17.3495 14.8583 17.0342 14.5431C16.719 14.2279 16.2915 14.0508 15.8457 14.0508C15.3999 14.0508 14.9723 14.2279 14.6571 14.5431C14.3419 14.8583 14.1648 15.2859 14.1648 15.7317V24.2118L10.69 20.7369C10.3723 20.4341 9.94886 20.2674 9.51002 20.2727C9.07117 20.2779 8.65177 20.4545 8.34144 20.7649C8.03111 21.0752 7.85446 21.4946 7.84924 21.9334C7.84402 22.3723 8.01065 22.7958 8.31352 23.1134L14.6574 29.4573C14.6973 29.4977 14.7394 29.5358 14.7836 29.5714C14.826 29.6057 14.8705 29.639 14.9149 29.6723C15.1441 29.8209 15.4061 29.9113 15.6781 29.9358H15.6852C15.7397 29.9409 15.7942 29.9439 15.8487 29.9439H15.8739C15.9197 29.9439 15.9651 29.9419 16.0102 29.9379H16.0435C16.0869 29.9328 16.1304 29.9278 16.1728 29.9187H16.1919C16.2394 29.9086 16.2868 29.8975 16.3333 29.8833H16.3414C16.392 29.8681 16.4419 29.8502 16.4908 29.8298C16.5604 29.801 16.6279 29.7673 16.6927 29.7289L16.731 29.7067C16.7945 29.6679 16.8552 29.6247 16.9127 29.5774L16.9299 29.5623C16.9652 29.532 17.0006 29.5017 17.0309 29.4674L26.682 19.8102V28.264C26.682 28.7098 26.8591 29.1374 27.1743 29.4526C27.4896 29.7678 27.9171 29.9449 28.3629 29.9449C28.8087 29.9449 29.2362 29.7678 29.5515 29.4526C29.8667 29.1374 30.0438 28.7098 30.0438 28.264V19.7839L33.3046 23.0508C33.6211 23.3598 34.0467 23.5315 34.489 23.5288C34.9314 23.5261 35.3548 23.3491 35.6675 23.0363C35.9803 22.7234 36.157 22.2999 36.1596 21.8576C36.1621 21.4153 35.9902 20.9897 35.681 20.6733Z" fill="white"/>
<defs>
<linearGradient id="paint0_linear_3422_9752" x1="3.23264" y1="11.1633" x2="40.7672" y2="32.833" gradientUnits="userSpaceOnUse">
<stop offset="0.13" stop-color="#348BED"/>
<stop offset="0.31" stop-color="#2B80E8"/>
<stop offset="0.64" stop-color="#1461DB"/>
<stop offset="0.72" stop-color="#0E57D7"/>
</linearGradient>
</defs>
</svg>
