<?xml version="1.0" encoding="UTF-8"?><svg id="Layer_1" xmlns="http://www.w3.org/2000/svg" viewBox="0 0 1426.30675 236.68712"><rect x="1394.11774" y="65.82709" width="30.5261" height="166.10823" fill="#010e3e"/><path d="m1078.14002,231.93532v-93.43163c0-26.51092-19.76971-46.50233-45.98621-46.50233-22.40426,0-45.083,17.10348-45.083,49.79376v90.14019h-30.54486V7.86926l30.54486-.11143s-.10282,72.00305,0,71.91635c4.08966-3.4487,19.94041-17.53148,51.32569-17.53148,38.27257,0,70.60509,31.94191,70.60509,69.74997v100.04264h-30.86157Z" fill="#010e3e"/><rect x="1394.11774" y="7.75548" width="30.5261" height="30.52844" fill="#010e3e"/><rect x="1139.73213" y="201.24383" width="30.69266" height="30.69149" fill="#010e3e"/><path d="m228.75346,107.61704c2.06154,3.0851,3.16242,6.71409,3.16242,10.42433,0,4.97757-1.97766,9.7507-5.49656,13.27091-3.5189,3.51628-8.29202,5.49394-13.26829,5.49394-3.71156,0-7.33923-1.09826-10.42564-3.16242-3.0851-2.06154-5.49001-4.99199-6.91068-8.41915-1.42067-3.42978-1.79156-7.20162-1.06812-10.84372.72475-3.63947,2.51107-6.98276,5.13615-9.60653,2.62378-2.62378,5.96706-4.41009,9.60784-5.13615,3.63947-.72344,7.41263-.35255,10.8411,1.06943,3.42847,1.41936,6.35892,3.82427,8.42177,6.90937Z" fill="#010e3e"/><path d="m228.75346,202.58151c2.06154,3.0851,3.16242,6.71409,3.16242,10.42433,0,4.97757-1.97766,9.7507-5.49656,13.27091-3.5189,3.51628-8.29202,5.49394-13.26829,5.49394-3.71156,0-7.33923-1.09826-10.42564-3.16242-3.0851-2.06154-5.49001-4.99199-6.91068-8.41915-1.42067-3.42978-1.79156-7.20162-1.06812-10.84372.72475-3.63947,2.51107-6.98276,5.13615-9.60653,2.62378-2.62378,5.96706-4.41009,9.60784-5.13615,3.63947-.72344,7.41263-.35255,10.8411,1.06943,3.42847,1.41936,6.35892,3.82427,8.42177,6.90937Z" fill="#010e3e"/><rect x="186.8821" y="1.76893" width="45.03377" height="45.03377" fill="#010e3e"/><path d="m135.17022,202.58151c2.06154,3.0851,3.16242,6.71409,3.16242,10.42433,0,4.97757-1.97766,9.7507-5.49656,13.27091-3.5189,3.51628-8.29202,5.49394-13.26829,5.49394-3.71156,0-7.33923-1.09826-10.42564-3.16242-3.0851-2.06154-5.49001-4.99199-6.91068-8.41915-1.42067-3.42978-1.79156-7.20162-1.06812-10.84372.72475-3.63947,2.51107-6.98276,5.13615-9.60653,2.62378-2.62378,5.96706-4.41009,9.60784-5.13615,3.63947-.72344,7.41263-.35255,10.8411,1.06943,3.42847,1.41936,6.35892,3.82427,8.42177,6.90937Z" fill="#010e3e"/><rect x="97.05095" y="95.52521" width="45.03377" height="45.03377" fill="#010e3e"/><rect x="95.80002" y="1.76893" width="47.53565" height="47.53565" fill="#010e3e"/><rect x="2.06057" y="1.81162" width="50.03753" height="50.03753" fill="#010e3e"/><rect x="1.91411" y="186.73692" width="45.03377" height="45.03377" fill="#010e3e"/><rect x="1.91411" y="94.27427" width="47.53565" height="47.53565" fill="#010e3e"/><path d="m420.95985,28.98609c13.42261.15835,18.78439,10.03324,18.78439,10.03324l19.36619-19.36561-.02346-.00762.05982-.06041c-11.17632-12.16985-24.90744-18.84949-38.92828-18.84949-13.62554,0-24.89571,4.35534-33.49144,12.94286-8.58869,8.60042-12.94286,19.76971-12.94286,33.20053v18.94743h-26.07809v26.24817h26.04759v139.86006h30.54956V92.07519h54.74029v-26.24817h-54.68868v-18.94743c0-10.93762,5.88024-17.22723,16.60496-17.8935Z" fill="#010e3e"/><path d="m867.19387,205.65658c-33.00347,0-56.95608-23.81068-56.95608-56.61592,0-32.28325,24.68691-56.62765,57.42528-56.62765,18.10288,0,32.30202,10.44848,38.44149,15.85483l20.85473-20.85356c-5.98698-5.83918-28.31851-25.23529-60.76012-25.23529-48.87413,0-87.16078,38.1541-87.16078,86.86167,0,48.50698,38.29369,86.5039,87.1772,86.5039,31.19588,0,52.23477-17.04483,60.63226-25.34614l-20.30107-20.30166c-7.48373,6.98696-20.60371,15.75981-39.35291,15.75981Z" fill="#010e3e"/><path d="m726.89233,207.38206c-10.16872,0-17.92223-6.87084-17.92223-26.72324v-88.52498h54.76023v-26.24817h-54.76023V31.97665h-30.53079v148.68217c0,37.58227,17.32635,54.64293,48.05538,54.64293,11.41327,0,25.49159-4.49434,37.78226-14.73168l-19.24186-19.24186c-4.83387,3.91402-11.32764,6.05384-18.14276,6.05384Z" fill="#010e3e"/><path d="m561.42517,204.99063c-29.69346,0-51.11519-21.78913-55.40396-44.2933h123.0179v-.04516h17.84834c.52081-3.85037.81406-7.77404.81406-11.7681,0-47.94218-38.86377-86.80712-86.80653-86.80712s-86.80653,38.86494-86.80653,86.80712,38.86377,86.80712,86.80653,86.80712c28.78537,0,52.53388-10.313,68.88547-26.31386l-19.02368-21.42742c-13.19271,11.61092-29.78945,17.04073-49.3316,17.04073Zm0-112.82597c27.65224,0,47.85808,19.07839,53.69434,42.26983h-108.49036c6.26735-24.11994,26.91534-42.26983,54.79601-42.26983Z" fill="#010e3e"/><path d="m1325.98021,65.82724l-.01408,17.99379s-20.00196-21.67817-55.1919-21.67817c-47.7504,0-86.60009,38.48606-86.60009,85.79306,0,49.08175,37.46555,87.5291,85.29571,87.5291,39.85612,0,56.59011-21.82187,56.59011-21.82187l-.07038,18.29232h30.53548V65.82724h-30.54486Zm-52.51511,139.69994c-.98766.05161-1.98002.07918-2.98176.07918-15.66187,0-29.86453-6.3729-40.15172-16.66185-10.3435-10.28954-16.74103-24.5051-16.74103-40.20802,0-31.40233,25.58778-56.85931,57.15315-56.85931,31.56303,0,57.1508,25.45699,57.1508,56.85931,0,30.49384-24.12857,55.37606-54.42945,56.79069Z" fill="#010e3e"/></svg>