<svg width="25" height="24" viewBox="0 0 25 24" fill="none" xmlns="http://www.w3.org/2000/svg">
<path d="M3.625 12L5.625 10M5.625 10L12.625 3L19.625 10M5.625 10V20C5.625 20.5523 6.07272 21 6.625 21H9.625M19.625 10L21.625 12M19.625 10V20C19.625 20.5523 19.1773 21 18.625 21H15.625M9.625 21C10.1773 21 10.625 20.5523 10.625 20V16C10.625 15.4477 11.0727 15 11.625 15H13.625C14.1773 15 14.625 15.4477 14.625 16V20C14.625 20.5523 15.0727 21 15.625 21M9.625 21H15.625" stroke="#FFF" stroke-width="2" stroke-linecap="round" stroke-linejoin="round"/>
</svg>
