<?xml version="1.0" encoding="UTF-8"?>
<svg xmlns="http://www.w3.org/2000/svg" xmlns:xlink="http://www.w3.org/1999/xlink" width="128px" height="128px" viewBox="0 0 128 128" version="1.1">
<g id="surface1">
<path style=" stroke:none;fill-rule:nonzero;fill:rgb(0.392157%,5.490196%,24.313725%);fill-opacity:1;" d="M 124.558594 59.042969 C 125.671875 60.714844 126.269531 62.679688 126.269531 64.6875 C 126.269531 67.382812 125.199219 69.96875 123.292969 71.875 C 121.386719 73.777344 118.804688 74.847656 116.109375 74.847656 C 114.097656 74.847656 112.136719 74.253906 110.464844 73.136719 C 108.792969 72.019531 107.492188 70.433594 106.722656 68.578125 C 105.953125 66.722656 105.75 64.679688 106.144531 62.707031 C 106.535156 60.734375 107.503906 58.925781 108.925781 57.503906 C 110.34375 56.085938 112.15625 55.117188 114.125 54.722656 C 116.097656 54.332031 118.140625 54.53125 119.996094 55.304688 C 121.851562 56.070312 123.441406 57.375 124.558594 59.042969 Z M 119.996094 106.722656 C 118.140625 105.953125 116.097656 105.753906 114.125 106.144531 C 112.15625 106.539062 110.34375 107.503906 108.925781 108.925781 C 107.503906 110.347656 106.535156 112.15625 106.144531 114.125 C 105.75 116.097656 105.953125 118.140625 106.722656 120 C 107.492188 121.855469 108.792969 123.441406 110.464844 124.558594 C 112.136719 125.675781 114.097656 126.269531 116.109375 126.269531 C 118.804688 126.269531 121.386719 125.199219 123.292969 123.292969 C 125.199219 121.390625 126.269531 118.804688 126.269531 116.109375 C 126.269531 114.101562 125.671875 112.136719 124.558594 110.464844 C 123.441406 108.792969 121.851562 107.492188 119.996094 106.722656 Z M 101.886719 26.113281 L 126.269531 26.113281 L 126.269531 1.730469 L 101.886719 1.730469 Z M 69.324219 106.722656 C 67.46875 105.953125 65.425781 105.753906 63.453125 106.144531 C 61.484375 106.539062 59.671875 107.503906 58.253906 108.925781 C 56.832031 110.347656 55.863281 112.15625 55.472656 114.125 C 55.078125 116.097656 55.28125 118.140625 56.050781 120 C 56.820312 121.855469 58.121094 123.441406 59.792969 124.558594 C 61.460938 125.675781 63.425781 126.269531 65.4375 126.269531 C 68.132812 126.269531 70.714844 125.199219 72.621094 123.292969 C 74.527344 121.390625 75.597656 118.804688 75.597656 116.109375 C 75.597656 114.101562 75 112.136719 73.882812 110.464844 C 72.769531 108.792969 71.179688 107.492188 69.324219 106.722656 Z M 53.246094 76.882812 L 77.628906 76.882812 L 77.628906 52.496094 L 53.246094 52.496094 Z M 52.566406 27.46875 L 78.304688 27.46875 L 78.304688 1.730469 L 52.566406 1.730469 Z M 1.808594 28.847656 L 28.902344 28.847656 L 28.902344 1.753906 L 1.808594 1.753906 Z M 1.730469 126.269531 L 26.113281 126.269531 L 26.113281 101.886719 L 1.730469 101.886719 Z M 1.730469 77.558594 L 27.46875 77.558594 L 27.46875 51.820312 L 1.730469 51.820312 Z M 1.730469 77.558594 "/>
</g>
</svg>
