<?xml version="1.0" encoding="UTF-8"?>
<svg xmlns="http://www.w3.org/2000/svg" xmlns:xlink="http://www.w3.org/1999/xlink" width="16px" height="16px" viewBox="0 0 16 16" version="1.1">
<g id="surface1">
<path style=" stroke:none;fill-rule:nonzero;fill:rgb(0.392157%,5.490196%,24.313725%);fill-opacity:1;" d="M 15.570312 7.378906 C 15.710938 7.589844 15.785156 7.835938 15.785156 8.085938 C 15.785156 8.421875 15.648438 8.746094 15.410156 8.984375 C 15.171875 9.222656 14.851562 9.355469 14.511719 9.355469 C 14.261719 9.355469 14.015625 9.28125 13.808594 9.140625 C 13.597656 9.003906 13.4375 8.804688 13.339844 8.570312 C 13.242188 8.339844 13.21875 8.085938 13.269531 7.839844 C 13.316406 7.59375 13.4375 7.367188 13.617188 7.1875 C 13.792969 7.011719 14.019531 6.890625 14.265625 6.839844 C 14.511719 6.792969 14.769531 6.816406 15 6.914062 C 15.230469 7.007812 15.429688 7.171875 15.570312 7.378906 Z M 15 13.339844 C 14.769531 13.246094 14.511719 13.21875 14.265625 13.269531 C 14.019531 13.316406 13.792969 13.4375 13.617188 13.617188 C 13.4375 13.792969 13.316406 14.019531 13.269531 14.265625 C 13.21875 14.511719 13.242188 14.769531 13.339844 15 C 13.4375 15.230469 13.597656 15.429688 13.808594 15.570312 C 14.015625 15.710938 14.261719 15.785156 14.511719 15.785156 C 14.851562 15.785156 15.171875 15.648438 15.410156 15.410156 C 15.648438 15.171875 15.785156 14.851562 15.785156 14.511719 C 15.785156 14.261719 15.710938 14.015625 15.570312 13.808594 C 15.429688 13.597656 15.230469 13.4375 15 13.339844 Z M 12.734375 3.265625 L 15.785156 3.265625 L 15.785156 0.214844 L 12.734375 0.214844 Z M 8.664062 13.339844 C 8.433594 13.246094 8.179688 13.21875 7.933594 13.269531 C 7.683594 13.316406 7.460938 13.4375 7.28125 13.617188 C 7.105469 13.792969 6.984375 14.019531 6.933594 14.265625 C 6.886719 14.511719 6.910156 14.769531 7.007812 15 C 7.101562 15.230469 7.265625 15.429688 7.472656 15.570312 C 7.683594 15.710938 7.929688 15.785156 8.179688 15.785156 C 8.515625 15.785156 8.839844 15.648438 9.078125 15.410156 C 9.316406 15.171875 9.449219 14.851562 9.449219 14.511719 C 9.449219 14.261719 9.375 14.015625 9.234375 13.808594 C 9.097656 13.597656 8.898438 13.4375 8.664062 13.339844 Z M 6.65625 9.609375 L 9.703125 9.609375 L 9.703125 6.5625 L 6.65625 6.5625 Z M 6.570312 3.433594 L 9.789062 3.433594 L 9.789062 0.214844 L 6.570312 0.214844 Z M 0.226562 3.605469 L 3.613281 3.605469 L 3.613281 0.21875 L 0.226562 0.21875 Z M 0.214844 15.785156 L 3.265625 15.785156 L 3.265625 12.734375 L 0.214844 12.734375 Z M 0.214844 9.695312 L 3.433594 9.695312 L 3.433594 6.476562 L 0.214844 6.476562 Z M 0.214844 9.695312 "/>
</g>
</svg>
