<?xml version="1.0" encoding="UTF-8"?>
<svg xmlns="http://www.w3.org/2000/svg" xmlns:xlink="http://www.w3.org/1999/xlink" width="48px" height="48px" viewBox="0 0 48 48" version="1.1">
<g id="surface1">
<path style=" stroke:none;fill-rule:nonzero;fill:rgb(0.392157%,5.490196%,24.313725%);fill-opacity:1;" d="M 46.707031 22.140625 C 47.128906 22.769531 47.351562 23.503906 47.351562 24.257812 C 47.351562 25.269531 46.949219 26.238281 46.234375 26.953125 C 45.519531 27.667969 44.550781 28.070312 43.539062 28.070312 C 42.789062 28.070312 42.050781 27.84375 41.425781 27.425781 C 40.796875 27.007812 40.308594 26.414062 40.019531 25.714844 C 39.730469 25.019531 39.65625 24.253906 39.804688 23.515625 C 39.949219 22.777344 40.3125 22.097656 40.847656 21.5625 C 41.378906 21.03125 42.058594 20.667969 42.796875 20.519531 C 43.535156 20.375 44.304688 20.449219 45 20.738281 C 45.695312 21.027344 46.289062 21.515625 46.707031 22.140625 Z M 45 40.019531 C 44.304688 39.734375 43.535156 39.65625 42.796875 39.804688 C 42.058594 39.953125 41.378906 40.3125 40.847656 40.847656 C 40.3125 41.378906 39.949219 42.058594 39.804688 42.796875 C 39.65625 43.539062 39.730469 44.304688 40.019531 45 C 40.308594 45.695312 40.796875 46.289062 41.425781 46.707031 C 42.050781 47.128906 42.789062 47.351562 43.539062 47.351562 C 44.550781 47.351562 45.519531 46.949219 46.234375 46.234375 C 46.949219 45.519531 47.351562 44.550781 47.351562 43.539062 C 47.351562 42.789062 47.128906 42.050781 46.707031 41.425781 C 46.289062 40.796875 45.695312 40.308594 45 40.019531 Z M 38.207031 9.792969 L 47.351562 9.792969 L 47.351562 0.648438 L 38.207031 0.648438 Z M 25.996094 40.019531 C 25.300781 39.734375 24.535156 39.65625 23.796875 39.804688 C 23.054688 39.953125 22.378906 40.3125 21.84375 40.847656 C 21.3125 41.378906 20.949219 42.058594 20.800781 42.796875 C 20.65625 43.539062 20.730469 44.304688 21.019531 45 C 21.308594 45.695312 21.796875 46.289062 22.421875 46.707031 C 23.046875 47.128906 23.785156 47.351562 24.539062 47.351562 C 25.550781 47.351562 26.519531 46.949219 27.234375 46.234375 C 27.949219 45.519531 28.347656 44.550781 28.347656 43.539062 C 28.347656 42.789062 28.125 42.050781 27.707031 41.425781 C 27.289062 40.796875 26.691406 40.308594 25.996094 40.019531 Z M 19.964844 28.832031 L 29.109375 28.832031 L 29.109375 19.6875 L 19.964844 19.6875 Z M 19.710938 10.300781 L 29.363281 10.300781 L 29.363281 0.648438 L 19.710938 0.648438 Z M 0.679688 10.816406 L 10.839844 10.816406 L 10.839844 0.65625 L 0.679688 0.65625 Z M 0.648438 47.351562 L 9.792969 47.351562 L 9.792969 38.207031 L 0.648438 38.207031 Z M 0.648438 29.085938 L 10.300781 29.085938 L 10.300781 19.433594 L 0.648438 19.433594 Z M 0.648438 29.085938 "/>
</g>
</svg>
