<svg width="25" height="24" viewBox="0 0 25 24" fill="none" xmlns="http://www.w3.org/2000/svg">
<path d="M5.375 12H5.385M12.375 12H12.385M19.375 12H19.385M6.375 12C6.375 12.5523 5.92728 13 5.375 13C4.82272 13 4.375 12.5523 4.375 12C4.375 11.4477 4.82272 11 5.375 11C5.92728 11 6.375 11.4477 6.375 12ZM13.375 12C13.375 12.5523 12.9273 13 12.375 13C11.8227 13 11.375 12.5523 11.375 12C11.375 11.4477 11.8227 11 12.375 11C12.9273 11 13.375 11.4477 13.375 12ZM20.375 12C20.375 12.5523 19.9273 13 19.375 13C18.8227 13 18.375 12.5523 18.375 12C18.375 11.4477 18.8227 11 19.375 11C19.9273 11 20.375 11.4477 20.375 12Z" stroke="#FFF" stroke-width="2" stroke-linecap="round" stroke-linejoin="round"/>
</svg>
