<?xml version="1.0" encoding="UTF-8" standalone="no"?>
<!DOCTYPE svg PUBLIC "-//W3C//DTD SVG 1.1//EN" "http://www.w3.org/Graphics/SVG/1.1/DTD/svg11.dtd">
<svg width="100%" height="100%" viewBox="0 0 237 237" version="1.1" xmlns="http://www.w3.org/2000/svg" xmlns:xlink="http://www.w3.org/1999/xlink" xml:space="preserve" xmlns:serif="http://www.serif.com/" style="fill-rule:evenodd;clip-rule:evenodd;stroke-linejoin:round;stroke-miterlimit:2;">
    <g id="Symbol_x5F_luna_2_" transform="matrix(2.16623,0,0,2.16623,-256.429,-315.137)">
        <path d="M178.1,213.5C154.6,203 139.9,181.7 139.1,160.2C139.1,159.3 138,158.8 137.3,159.4C125.9,169.4 118.8,184.1 118.9,200.4C119.1,229.5 142.8,253.4 171.9,253.9C195.4,254.3 215.6,239.8 223.5,219.2C223.8,218.4 223.1,217.5 222.2,217.8C208.5,221.3 192.8,220.1 178.1,213.5Z" style="fill:rgb(249,216,94);fill-rule:nonzero;"/>
        <path d="M226,190.3C226,190.2 226,190.1 225.9,190C225.6,188.4 225.2,186.9 224.8,185.4C224.8,185.3 224.8,185.3 224.7,185.2C224.5,184.5 224.3,183.8 224,183C224,182.9 224,182.9 223.9,182.8C223.4,181.3 222.8,179.9 222.2,178.4L222.2,178.3C221.9,177.6 221.6,176.9 221.3,176.3L221.3,176.2C221,175.5 220.6,174.8 220.2,174.2L220.2,174.1C219.8,173.4 219.4,172.7 219,172.1L219,172C218.6,171.4 218.2,170.8 217.8,170.2C217.8,170.1 217.7,170.1 217.7,170C216.9,168.7 216,167.5 215,166.3C214.9,166.2 214.9,166.2 214.8,166.1C214.3,165.5 213.8,164.9 213.3,164.3C212.8,163.7 212.3,163.2 211.7,162.6L211.6,162.5C211.1,162 210.6,161.5 210.1,161C210,160.9 210,160.9 209.9,160.8C209.4,160.3 208.9,159.8 208.3,159.4C208.2,159.3 208.2,159.3 208.1,159.2C207.6,158.7 207,158.3 206.5,157.8C206.4,157.8 206.4,157.7 206.3,157.7C205.7,157.2 205.1,156.8 204.5,156.3C203.9,155.8 203.3,155.4 202.6,155C201.3,154.1 200,153.4 198.7,152.6C198.6,152.6 198.6,152.5 198.5,152.5C197.9,152.1 197.2,151.8 196.5,151.5C196.4,151.5 196.3,151.4 196.2,151.4C194.8,150.7 193.4,150.1 192,149.6C191.9,149.6 191.8,149.5 191.8,149.5C191.1,149.2 190.3,149 189.6,148.7C188.9,148.5 188.2,148.2 187.5,148C187.4,148 187.4,148 187.3,147.9C186.5,147.7 185.8,147.5 185,147.3C184.3,147.1 183.5,147 182.8,146.8L182.7,146.8C181.9,146.7 181.1,146.5 180.3,146.4C179.1,146.2 177.8,146.1 176.6,146C176.8,146 177,146 177.2,146.1C177.7,146.1 178.2,146.2 178.6,146.2C179.1,146.3 179.5,146.3 180,146.4C180.4,146.5 180.9,146.5 181.3,146.6C181.7,146.7 182.1,146.7 182.5,146.8L182.6,146.8C183,146.9 183.3,147 183.7,147.1L183.8,147.1C184.1,147.2 184.5,147.3 184.8,147.4L184.9,147.4C185.2,147.5 185.5,147.6 185.8,147.7L185.9,147.7C186.2,147.8 186.5,147.9 186.8,148C186.8,148 186.9,148 186.9,148.1C187.2,148.2 187.4,148.3 187.7,148.4C187.8,148.4 187.8,148.5 187.9,148.5C188.1,148.6 188.4,148.7 188.6,148.9C188.7,148.9 188.7,149 188.8,149C189,149.1 189.2,149.2 189.4,149.4C189.5,149.4 189.5,149.5 189.6,149.5C189.8,149.6 190,149.8 190.2,149.9C190.3,150 190.4,150 190.4,150.1C190.6,150.2 190.7,150.3 190.9,150.5C191,150.6 191.1,150.7 191.2,150.8C191.3,150.9 191.5,151 191.6,151.2L192.3,151.9C192.5,152.1 192.7,152.4 192.9,152.6C193.2,153 194.7,154.9 195.6,158.4C196.6,162.5 196.4,166.8 197.4,171C197.6,171.7 197.7,172.4 197.9,173C197.9,173.2 198,173.4 198,173.5C198.1,174 198.3,174.5 198.4,175C198.4,175.2 198.5,175.3 198.5,175.5C203.4,191.2 213.1,198.6 226.2,208.6C226.6,205.8 226.9,202.9 226.9,200C226.9,196.7 226.6,193.4 226,190.3Z" style="fill:rgb(239,119,48);fill-rule:nonzero;"/>
        <path d="M226.4,192.5C224.5,188.1 224.5,188.1 173.3,169.6C147.5,160.3 142.7,151.3 161.4,147.2C162.3,147 163.2,146.8 164.2,146.7C167.1,146.2 170,146 173,146C200.1,146 222.7,166.2 226.4,192.5" style="fill:rgb(249,216,94);fill-rule:nonzero;"/>
    </g>
</svg>
