<svg width="92" height="92" viewBox="0 0 92 92" fill="none" xmlns="http://www.w3.org/2000/svg">
<path fill-rule="evenodd" clip-rule="evenodd" d="M30.6667 4.79175H15.3334C9.51058 4.79175 4.79175 9.51058 4.79175 15.3334V30.6667C4.79175 32.2537 6.07975 33.5417 7.66675 33.5417C9.25375 33.5417 10.5417 32.2537 10.5417 30.6667V15.3334C10.5417 12.6884 12.6884 10.5417 15.3334 10.5417H30.6667C32.2537 10.5417 33.5417 9.25375 33.5417 7.66675C33.5417 6.07975 32.2537 4.79175 30.6667 4.79175Z" fill="#7877AC"/>
<path fill-rule="evenodd" clip-rule="evenodd" d="M30.6667 81.4585H15.3334C12.6884 81.4585 10.5417 79.3118 10.5417 76.6668V61.3335C10.5417 59.7465 9.25375 58.4585 7.66675 58.4585C6.07975 58.4585 4.79175 59.7465 4.79175 61.3335V76.6668C4.79175 82.4897 9.51058 87.2085 15.3334 87.2085H30.6667C32.2537 87.2085 33.5417 85.9205 33.5417 84.3335C33.5417 82.7465 32.2537 81.4585 30.6667 81.4585Z" fill="#7877AC"/>
<path fill-rule="evenodd" clip-rule="evenodd" d="M87.2085 30.6667V15.3334C87.2085 9.51058 82.4897 4.79175 76.6668 4.79175H61.3335C59.7465 4.79175 58.4585 6.07975 58.4585 7.66675C58.4585 9.25375 59.7465 10.5417 61.3335 10.5417H76.6668C79.3118 10.5417 81.4585 12.6884 81.4585 15.3334V30.6667C81.4585 32.2537 82.7465 33.5417 84.3335 33.5417C85.9205 33.5417 87.2085 32.2537 87.2085 30.6667Z" fill="#7877AC"/>
<path fill-rule="evenodd" clip-rule="evenodd" d="M81.4585 61.3335V76.6668C81.4585 79.3118 79.3118 81.4585 76.6668 81.4585H61.3335C59.7465 81.4585 58.4585 82.7465 58.4585 84.3335C58.4585 85.9205 59.7465 87.2085 61.3335 87.2085H76.6668C82.4897 87.2085 87.2085 82.4897 87.2085 76.6668V61.3335C87.2085 59.7465 85.9205 58.4585 84.3335 58.4585C82.7465 58.4585 81.4585 59.7465 81.4585 61.3335Z" fill="#7877AC"/>
<path fill-rule="evenodd" clip-rule="evenodd" d="M58.4585 26.1702V30.0035C58.4585 31.5905 59.7465 32.8785 61.3335 32.8785C62.9205 32.8785 64.2085 31.5905 64.2085 30.0035V26.1702C64.2085 24.5832 62.9205 23.2952 61.3335 23.2952C59.7465 23.2952 58.4585 24.5832 58.4585 26.1702Z" fill="#7877AC"/>
<path fill-rule="evenodd" clip-rule="evenodd" d="M27.7917 26.1702V30.0035C27.7917 31.5905 29.0797 32.8785 30.6667 32.8785C32.2537 32.8785 33.5417 31.5905 33.5417 30.0035V26.1702C33.5417 24.5832 32.2537 23.2952 30.6667 23.2952C29.0797 23.2952 27.7917 24.5832 27.7917 26.1702Z" fill="#7877AC"/>
<path fill-rule="evenodd" clip-rule="evenodd" d="M43.3321 35.4928L46.4601 43.3167L43.9684 45.8083C42.8452 46.9315 42.8452 48.7523 43.9684 49.8755C45.0877 50.9987 46.9124 50.9987 48.0317 49.8755L51.8651 46.0422C52.6777 45.2295 52.9307 44.0105 52.5014 42.941L48.6681 33.3577C48.0816 31.8857 46.4064 31.165 44.9306 31.7553C43.4586 32.3457 42.7417 34.0208 43.3321 35.4928Z" fill="#7877AC"/>
<path fill-rule="evenodd" clip-rule="evenodd" d="M31.1575 63.7561L33.1624 64.9023C41.1165 69.4486 50.8839 69.4486 58.838 64.9023L60.8429 63.7561C62.2229 62.9664 62.702 61.2108 61.9124 59.8308C61.1265 58.4546 59.367 57.9754 57.9909 58.7613L55.986 59.9074C49.799 63.4456 42.2014 63.4456 36.0144 59.9074L34.0095 58.7613C32.6334 57.9754 30.8739 58.4546 30.088 59.8308C29.2984 61.2108 29.7775 62.9664 31.1575 63.7561Z" fill="#7877AC"/>
</svg>
