<svg width="28" height="28" viewBox="0 0 28 28" fill="none" xmlns="http://www.w3.org/2000/svg">
<path d="M13.9999 25.6668C20.4432 25.6668 25.6666 20.4435 25.6666 14.0002C25.6666 7.55684 20.4432 2.3335 13.9999 2.3335C7.5566 2.3335 2.33325 7.55684 2.33325 14.0002C2.33325 20.4435 7.5566 25.6668 13.9999 25.6668Z" fill="url(#paint0_linear_1644_21686)"/>
<path d="M21.3668 13.2872L18.0715 9.9919L18.0655 9.98592L18.0525 9.97451C18.0312 9.95523 18.0088 9.93709 17.9856 9.92015C17.9693 9.9071 17.953 9.8946 17.9356 9.88318C17.928 9.87775 17.9204 9.8734 17.9122 9.86851C17.7244 9.74547 17.4971 9.69757 17.2756 9.73432C17.054 9.77108 16.8544 9.8898 16.7163 10.0669L11.5913 15.1925V10.6263C11.5913 10.3862 11.4959 10.156 11.3262 9.98629C11.1565 9.81655 10.9262 9.72119 10.6862 9.72119C10.4462 9.72119 10.2159 9.81655 10.0462 9.98629C9.87647 10.156 9.78112 10.3862 9.78112 10.6263V15.1925L7.91006 13.3214C7.73903 13.1584 7.511 13.0686 7.2747 13.0714C7.0384 13.0742 6.81257 13.1694 6.64546 13.3365C6.47836 13.5036 6.38324 13.7294 6.38044 13.9657C6.37763 14.202 6.46735 14.43 6.63043 14.6011L10.0464 18.017C10.0679 18.0388 10.0905 18.0593 10.1143 18.0784C10.1372 18.0969 10.1611 18.1149 10.185 18.1328C10.3084 18.2128 10.4495 18.2615 10.596 18.2747H10.5998C10.6291 18.2774 10.6585 18.279 10.6878 18.279H10.7014C10.7261 18.279 10.7505 18.2779 10.7748 18.2758H10.7927C10.8161 18.2731 10.8395 18.2703 10.8623 18.2654H10.8727C10.8982 18.26 10.9238 18.254 10.9488 18.2464H10.9531C10.9804 18.2382 11.0073 18.2286 11.0336 18.2176C11.0711 18.2021 11.1074 18.1839 11.1423 18.1632L11.1629 18.1513C11.1971 18.1304 11.2298 18.1071 11.2608 18.0817L11.27 18.0736C11.2891 18.0572 11.3081 18.0409 11.3244 18.0225L16.5212 12.8224V17.3745C16.5212 17.6145 16.6165 17.8447 16.7863 18.0145C16.956 18.1842 17.1862 18.2796 17.4263 18.2796C17.6663 18.2796 17.8965 18.1842 18.0663 18.0145C18.236 17.8447 18.3313 17.6145 18.3313 17.3745V12.8083L20.0872 14.5674C20.2576 14.7337 20.4868 14.8262 20.7249 14.8248C20.9631 14.8233 21.1911 14.728 21.3595 14.5595C21.5279 14.3911 21.6231 14.163 21.6245 13.9249C21.6258 13.6867 21.5332 13.4576 21.3668 13.2872Z" fill="white"/>
<defs>
<linearGradient id="paint0_linear_1644_21686" x1="3.89446" y1="8.16574" x2="24.1054" y2="19.834" gradientUnits="userSpaceOnUse">
<stop offset="0.13" stop-color="#348BED"/>
<stop offset="0.31" stop-color="#2B80E8"/>
<stop offset="0.64" stop-color="#1461DB"/>
<stop offset="0.72" stop-color="#0E57D7"/>
</linearGradient>
</defs>
</svg>
