<svg width="168" height="168" viewBox="0 0 168 168" fill="none" xmlns="http://www.w3.org/2000/svg">
<path d="M0 84C0 54.5973 0 39.8959 5.72216 28.6655C10.7555 18.787 18.787 10.7555 28.6655 5.72219C39.8959 3.05176e-05 54.5972 3.05176e-05 84 3.05176e-05C113.403 3.05176e-05 128.104 3.05176e-05 139.335 5.72219C149.213 10.7555 157.244 18.787 162.278 28.6655C168 39.8959 168 54.5973 168 84C168 113.403 168 128.104 162.278 139.335C157.244 149.213 149.213 157.245 139.335 162.278C128.104 168 113.403 168 84 168C54.5972 168 39.8959 168 28.6655 162.278C18.787 157.245 10.7555 149.213 5.72216 139.335C0 128.104 0 113.403 0 84Z" fill="#14AFEB"/>
<path d="M87.5007 54.2637C88.4541 64.0069 88.9304 68.8789 91.4841 72.4514C92.5784 73.9821 93.928 75.3135 95.4736 76.3867C99.0805 78.8913 103.958 79.3016 113.713 80.1218L117.838 80.4683V87.5318L113.713 87.8783C103.958 88.6985 99.0805 89.1088 95.4736 91.6134C93.928 92.6866 92.5784 94.018 91.4841 95.5487C88.9304 99.1212 88.4541 103.993 87.5007 113.736H80.4993C79.5459 103.993 79.0696 99.1212 76.5159 95.5487C75.4216 94.018 74.072 92.6866 72.5264 91.6134C68.9195 89.1088 64.0417 88.6985 54.2867 87.8783L50.1621 87.5318V80.4683L54.2867 80.1218C64.0417 79.3016 68.9195 78.8913 72.5264 76.3867C74.072 75.3135 75.4216 73.9821 76.5159 72.4514C79.0696 68.8789 79.5459 64.0069 80.4993 54.2637H87.5007Z" fill="white"/>
<path fill-rule="evenodd" clip-rule="evenodd" d="M84 18.375C138.042 18.375 149.625 29.9579 149.625 84C149.625 138.042 138.042 149.625 84 149.625C29.9578 149.625 18.375 138.042 18.375 84C18.375 29.9579 29.9578 18.375 84 18.375ZM126.89 41.0548C110.996 25.1613 78.8975 31.4916 55.1949 55.194C31.4923 78.8967 25.162 110.996 41.0558 126.89C56.9496 142.784 89.0484 136.454 112.751 112.751C136.454 89.0483 142.784 56.9486 126.89 41.0548Z" fill="white"/>
</svg>
