<svg width="74" height="74" viewBox="0 0 74 74" fill="none" xmlns="http://www.w3.org/2000/svg">
<path opacity="0.5" d="M63.0156 11.7967C51.0156 11.7967 38.5796 0.673479 38.4564 0.562046C37.6299 -0.187349 36.37 -0.187349 35.5436 0.562046C35.4197 0.674347 23.0163 11.7967 10.9844 11.7967C9.78708 11.7967 8.81641 12.7674 8.81641 13.9647V39.928C8.81641 60.9608 24.4599 69.3653 36.2268 73.8575C36.4758 73.9526 36.7378 74 37 74C37.2622 74 37.5242 73.9524 37.7732 73.8575C54.2721 67.5588 65.1836 57.7337 65.1836 39.928V13.9647C65.1836 12.7674 64.2129 11.7967 63.0156 11.7967Z" fill="#56548D"/>
<path d="M37 21.8242C28.6321 21.8242 21.8242 28.6321 21.8242 37C21.8242 45.3679 28.6321 52.1758 37 52.1758C45.3679 52.1758 52.1758 45.3679 52.1758 37C52.1758 28.6321 45.3679 21.8242 37 21.8242ZM42.8688 36.3649L36.3649 42.8688C35.9417 43.2922 35.3869 43.5039 34.832 43.5039C34.2772 43.5039 33.7223 43.2923 33.2991 42.8688L31.1312 40.7009C30.2845 39.8542 30.2845 38.4816 31.1312 37.6349C31.9777 36.7883 33.3504 36.7883 34.1971 37.6349L34.8322 38.2699L39.8032 33.299C40.6497 32.4523 42.0225 32.4523 42.8691 33.299C43.7156 34.1457 43.7156 35.5183 42.8688 36.3649Z" fill="#7877AC"/>
</svg>
