<svg width="28" height="28" viewBox="0 0 28 28" fill="none" xmlns="http://www.w3.org/2000/svg">
    <path opacity="0.75" d="M22.6424 17.6589C23.3409 15.7566 23.6147 13.7047 23.3272 11.6937C22.8342 8.24228 20.9854 5.57898 17.507 3.70381C13.0836 1.28511 7.0853 2.14117 3.4973 5.68769C1.51158 7.65798 0.306454 10.9192 1.90873 13.2156C3.07277 14.8733 5.305 15.4848 6.61969 17.0203C8.26304 18.9498 8.13979 21.9256 9.76947 23.8551C11.2211 25.5672 13.8231 26.0428 15.9594 25.3362C17.7535 24.7519 20.9854 22.1566 22.6424 17.6589Z" fill="#5493F7"/>
    <path opacity="0.8" d="M15.9571 25.3498C17.7511 24.7655 20.9831 22.1702 22.6401 17.6724C23.3385 15.77 23.722 13.9357 23.3248 11.7072C21.9964 4.35598 12.9169 13.8134 11.3421 14.7781C8.24704 16.6669 7.39798 20.8249 9.60283 23.692C9.65762 23.76 9.69869 23.8279 9.75348 23.8822C11.2051 25.5808 13.8207 26.0427 15.9571 25.3498Z" fill="#2043B5"/>
    <path opacity="0.7" d="M18.778 4.84708C16.8607 4.15409 14.7928 3.88233 12.766 4.16768C9.28757 4.65686 6.60344 6.49126 4.71358 9.94268C2.27593 14.3317 3.13869 20.2833 6.71299 23.8434C8.6987 25.8137 11.9854 27.0094 14.2998 25.4196C15.9706 24.2646 16.5868 22.0497 18.1344 20.7453C20.0789 19.1147 23.0781 19.237 25.0227 17.62C26.7483 16.1797 27.2276 13.5979 26.5154 11.4781C25.9266 9.69806 23.3109 6.49126 18.778 4.84708Z" fill="#2566E4"/>
    <path d="M14.8067 19.3735L13.0401 15.8405L11.8624 16.914L11.3283 19.3735H9.31519L11.2461 10.3237H13.2729L12.5197 13.8431L16.409 10.3237H19.2164L14.6287 14.4274L17.2307 19.3735H14.8067Z" fill="white"/>
</svg>
