<svg width="64" height="64" viewBox="0 0 64 64" fill="none" xmlns="http://www.w3.org/2000/svg">
<path d="M31.998 63.996C49.67 63.996 63.996 49.67 63.996 31.998C63.996 14.326 49.67 0 31.998 0C14.326 0 0 14.326 0 31.998C0 49.67 14.326 63.996 31.998 63.996Z" fill="#02CEFE"/>
<path d="M63.9985 31.9699C63.9823 22.2055 59.5113 12.5724 51.068 6.30529C36.8765 -4.22658 16.8352 -1.26046 6.30337 12.9299C2.48612 18.0733 0.44125 23.9854 0.0625 29.935C0.6825 30.16 1.27863 30.4463 1.84238 30.795C4.82225 32.6374 7.09075 36.0322 10.5806 36.3497C12.9742 36.5684 15.2429 35.1948 16.969 33.5223C18.6951 31.8474 20.0775 29.8338 21.8936 28.2577C24.6485 25.8653 28.3645 24.6117 32.0068 24.8429C35.649 25.0742 39.175 26.789 41.6061 29.5114C43.3772 31.4975 44.9221 34.1912 47.5658 34.5085C51.1593 34.9385 53.9679 30.555 57.5714 30.89C58.7338 30.9988 59.7863 31.5975 60.9124 31.895C61.9261 32.1649 62.9785 32.1724 63.9985 31.9699V31.9699Z" fill="#01E1FF"/>
<path d="M40.0741 29.0116V53.0194C40.0741 54.6353 38.7645 55.9472 37.1486 55.9472H27.2246C25.6066 55.9472 24.2969 54.6353 24.2969 53.0194V29.0116C24.2969 28.0949 24.6076 27.2337 25.1404 26.5479C25.6731 25.862 26.4278 25.347 27.3156 25.1206C28.1835 24.8986 28.805 24.1417 28.8539 23.2472L29.431 12.635H29.3489C28.7784 12.635 28.3545 12.1023 28.4855 11.5451L29.0826 8.9771C29.1759 8.57539 29.5331 8.28906 29.9459 8.28906H34.4251C34.838 8.28906 35.1975 8.57539 35.2907 8.9771L35.8878 11.5451C36.0165 12.1023 35.5949 12.635 35.0221 12.635H34.9399L35.5169 23.2472C35.5414 23.6955 35.7101 24.1084 35.9786 24.437C36.2494 24.7654 36.6223 25.0096 37.0552 25.1206C38.8333 25.5757 40.0741 27.1761 40.0741 29.0116V29.0116Z" fill="#6B250C"/>
<path d="M40.0705 29.0116V53.0194C40.0705 54.6353 38.761 55.9472 37.1451 55.9472H29.9801C28.3642 55.9472 27.0547 54.6353 27.0547 53.0194V29.9173C27.0547 29.0827 27.3921 28.328 27.9381 27.7797C28.4863 27.2337 29.2411 26.8963 30.0734 26.8963C30.9391 26.6744 31.5628 25.9174 31.6117 25.0229L32.1865 11.8783C32.1865 11.8761 32.1865 11.8761 32.1865 11.8739C32.1865 11.8562 32.171 11.8405 32.151 11.8405C31.5561 11.8405 31.1167 11.2879 31.2521 10.7085L31.8136 8.28906H34.4217C34.8346 8.28906 35.1941 8.57539 35.2873 8.9771L35.8844 11.5451C36.0131 12.1023 35.5915 12.635 35.0187 12.635H34.9365L35.5135 23.2472C35.538 23.6955 35.7067 24.1084 35.9752 24.437C36.246 24.7654 36.6189 25.0096 37.0518 25.1206C38.8297 25.5757 40.0705 27.1761 40.0705 29.0116V29.0116Z" fill="#7A2B13"/>
<path d="M36.2224 7.74141V8.23861C36.2224 8.64924 35.8917 8.98002 35.4834 8.98002H28.8977C28.4892 8.98002 28.1562 8.64924 28.1562 8.23861V7.74141C28.1562 7.33078 28.4892 7 28.8977 7H35.4834C35.8917 7.00014 36.2224 7.33078 36.2224 7.74141Z" fill="#DD8C29"/>
<path d="M36.2192 7.74141V8.23861C36.2192 8.64924 35.8884 8.98002 35.4801 8.98002H30.4969C30.0885 8.98002 29.7578 8.64924 29.7578 8.23861V7.74141C29.7578 7.33078 30.0886 7 30.4969 7H35.48C35.8884 7.00014 36.2192 7.33078 36.2192 7.74141V7.74141Z" fill="#EFB732"/>
<path d="M37.6305 28.8163C38.2049 28.242 37.8912 26.9971 36.9298 26.0358C35.9685 25.0745 34.7236 24.7608 34.1493 25.3351C33.575 25.9094 33.8887 27.1543 34.85 28.1156C35.8113 29.077 37.0562 29.3907 37.6305 28.8163Z" fill="#962A11"/>
<path d="M38.6753 32.8248C39.2405 32.707 39.5441 31.8694 39.3533 30.9538C39.1626 30.0383 38.5497 29.3916 37.9844 29.5094C37.4192 29.6272 37.1156 30.4648 37.3064 31.3804C37.4971 32.2959 38.11 32.9426 38.6753 32.8248Z" fill="#962A11"/>
<path d="M32.9817 51.1953H27.0547V53.0213H32.9817C33.4859 53.0213 33.8946 52.6126 33.8946 52.1084C33.8948 51.604 33.4859 51.1953 32.9817 51.1953V51.1953Z" fill="#962A11"/>
<path d="M37.625 53.025H36.0615C35.5573 53.025 35.1484 52.6163 35.1484 52.1121C35.1484 51.6079 35.5571 51.1992 36.0615 51.1992H37.625C38.1292 51.1992 38.5379 51.6079 38.5379 52.1121C38.538 52.6162 38.1292 53.025 37.625 53.025Z" fill="#962A11"/>
<path d="M34.2954 14.1562C34.7014 14.1562 35.0366 14.4736 35.0585 14.879L35.3554 20.3379C35.3793 20.7757 35.0307 21.1437 34.5923 21.1437H34.2954C33.8734 21.1437 33.5313 20.8015 33.5313 20.3795V14.9206C33.5311 14.4984 33.8733 14.1562 34.2954 14.1562V14.1562Z" fill="#962A11"/>
<path d="M40.0741 34.9705V47.7801H24.2969V34.9705L27.0581 33.4168L32.1854 30.5312L40.0741 34.9705Z" fill="#EFB732"/>
<path d="M27.0581 33.418V47.7813H24.2969V34.9717L27.0581 33.418Z" fill="#DD8C29"/>
<path d="M40.0739 37.9257H36.9378C36.1764 35.8851 34.3361 34.4453 32.1854 34.4453C30.0347 34.4453 28.1944 35.8852 27.4331 37.9257H24.2969V42.1098H27.4331C28.1944 44.1505 30.0347 45.5902 32.1854 45.5902C34.3361 45.5902 36.1764 44.1503 36.9378 42.1098H40.0739V37.9257Z" fill="white"/>
<path d="M24.2969 37.9258H27.0581V42.1099H24.2969V37.9258Z" fill="#EBD9EA"/>
<path d="M32.1781 44.0563C34.2311 44.0563 35.8953 42.2476 35.8953 40.0164C35.8953 37.7853 34.2311 35.9766 32.1781 35.9766C30.1252 35.9766 28.4609 37.7853 28.4609 40.0164C28.4609 42.2476 30.1252 44.0563 32.1781 44.0563Z" fill="#F39E22"/>
<path d="M32.1811 43.0314C33.7135 43.0314 34.9558 41.6812 34.9558 40.0157C34.9558 38.3502 33.7135 37 32.1811 37C30.6486 37 29.4062 38.3502 29.4062 40.0157C29.4062 41.6812 30.6486 43.0314 32.1811 43.0314Z" fill="#F9C744"/>
<path d="M33.2996 38.2773H31.0337C30.808 38.2773 30.625 38.4604 30.625 38.6861C30.625 38.9117 30.808 39.0948 31.0337 39.0948H33.2996C33.5253 39.0948 33.7084 38.9117 33.7084 38.6861C33.7084 38.4604 33.5253 38.2773 33.2996 38.2773Z" fill="#C44A1A"/>
<path d="M34.3079 39.7539H30.0181C29.7924 39.7539 29.6094 39.9369 29.6094 40.1626C29.6094 40.3883 29.7924 40.5713 30.0181 40.5713H34.3079C34.5336 40.5713 34.7167 40.3883 34.7167 40.1626C34.7167 39.9369 34.5336 39.7539 34.3079 39.7539Z" fill="#C44A1A"/>
</svg>
