<svg width="64" height="64" viewBox="0 0 64 64" fill="none" xmlns="http://www.w3.org/2000/svg">
<path d="M31.998 63.996C49.67 63.996 63.996 49.67 63.996 31.998C63.996 14.326 49.67 0 31.998 0C14.326 0 0 14.326 0 31.998C0 49.67 14.326 63.996 31.998 63.996Z" fill="#673712"/>
<path d="M63.9985 31.9699C63.9823 22.2055 59.5113 12.5724 51.068 6.30529C36.8765 -4.22658 16.8352 -1.26046 6.30337 12.9299C2.48612 18.0733 0.44125 23.9854 0.0625 29.935C0.6825 30.16 1.27863 30.4463 1.84238 30.795C4.82225 32.6374 7.09075 36.0322 10.5806 36.3497C12.9742 36.5684 15.2429 35.1948 16.969 33.5223C18.6951 31.8474 20.0775 29.8338 21.8936 28.2577C24.6485 25.8653 28.3645 24.6117 32.0068 24.8429C35.649 25.0742 39.175 26.789 41.6061 29.5114C43.3772 31.4975 44.9221 34.1912 47.5658 34.5085C51.1593 34.9385 53.9679 30.555 57.5714 30.89C58.7338 30.9988 59.7863 31.5975 60.9124 31.895C61.9261 32.1649 62.9785 32.1724 63.9985 31.9699V31.9699Z" fill="#7A4922"/>
<g clip-path="url(#clip0_70_2055)">
<path d="M40.3906 25.375V30.25H43.7101C43.9302 30.25 44.1412 30.3356 44.2969 30.488C44.4525 30.6403 44.5399 30.847 44.5399 31.0625V40.8125C44.5399 41.028 44.4525 41.2347 44.2969 41.387C44.1412 41.5394 43.9302 41.625 43.7101 41.625H40.3906V46.5H43.5026C44.1837 46.5 44.8582 46.3686 45.4874 46.1135C46.1167 45.8583 46.6885 45.4842 47.1701 45.0127C47.6517 44.5411 48.0338 43.9813 48.2944 43.3652C48.5551 42.7491 48.6892 42.0887 48.6892 41.4219V30.4531C48.6892 29.1063 48.1428 27.8147 47.1701 26.8623C46.1974 25.91 44.8782 25.375 43.5026 25.375H40.3906Z" fill="#DCDBD6"/>
<path d="M40.3941 47.3125H22.1372L21.8741 43.7064C21.4968 38.5342 21.5113 33.3418 21.9175 28.1717L22.1372 25.375H40.3941L40.6138 28.1717C41.0201 33.3418 41.0346 38.5342 40.6572 43.7064L40.3941 47.3125Z" fill="#F7A014"/>
<path d="M31.263 44.875C30.603 44.8743 29.9702 44.6172 29.5034 44.1603C29.0367 43.7033 28.7742 43.0837 28.7734 42.4375V30.25C28.7734 29.6035 29.0357 28.9835 29.5026 28.5264C29.9695 28.0693 30.6027 27.8125 31.263 27.8125C31.9233 27.8125 32.5565 28.0693 33.0234 28.5264C33.4903 28.9835 33.7526 29.6035 33.7526 30.25V42.4375C33.7519 43.0837 33.4893 43.7033 33.0226 44.1603C32.5559 44.6172 31.9231 44.8743 31.263 44.875V44.875ZM31.263 29.4375C31.043 29.4377 30.8321 29.5234 30.6765 29.6757C30.5209 29.8281 30.4334 30.0346 30.4332 30.25V42.4375C30.4332 42.653 30.5206 42.8597 30.6762 43.012C30.8318 43.1644 31.0429 43.25 31.263 43.25C31.4831 43.25 31.6942 43.1644 31.8498 43.012C32.0055 42.8597 32.0929 42.653 32.0929 42.4375V30.25C32.0926 30.0346 32.0051 29.8281 31.8495 29.6757C31.694 29.5234 31.483 29.4377 31.263 29.4375Z" fill="#D78E0C"/>
<path d="M24.6267 44.875C24.4066 44.875 24.1956 44.7894 24.0399 44.637C23.8843 44.4847 23.7969 44.278 23.7969 44.0625C23.7969 43.847 23.8843 43.6403 24.0399 43.488C24.1956 43.3356 24.4066 43.25 24.6267 43.25C24.8468 43.2498 25.0577 43.1641 25.2133 43.0118C25.3688 42.8594 25.4564 42.6529 25.4566 42.4375V30.25C25.4564 30.0346 25.3688 29.8281 25.2133 29.6757C25.0577 29.5234 24.8468 29.4377 24.6267 29.4375C24.4066 29.4375 24.1956 29.3519 24.0399 29.1995C23.8843 29.0472 23.7969 28.8405 23.7969 28.625C23.7969 28.4095 23.8843 28.2028 24.0399 28.0505C24.1956 27.8981 24.4066 27.8125 24.6267 27.8125C25.2868 27.8132 25.9196 28.0703 26.3863 28.5272C26.853 28.9842 27.1156 29.6038 27.1163 30.25V42.4375C27.1156 43.0837 26.853 43.7033 26.3863 44.1603C25.9196 44.6172 25.2868 44.8743 24.6267 44.875V44.875Z" fill="#D78E0C"/>
<path d="M37.9036 44.875C37.2436 44.8743 36.6108 44.6172 36.1441 44.1603C35.6773 43.7033 35.4148 43.0837 35.4141 42.4375V30.25C35.4148 29.6038 35.6773 28.9842 36.1441 28.5272C36.6108 28.0703 37.2436 27.8132 37.9036 27.8125C38.1237 27.8125 38.3348 27.8981 38.4904 28.0505C38.6461 28.2028 38.7335 28.4095 38.7335 28.625C38.7335 28.8405 38.6461 29.0472 38.4904 29.1995C38.3348 29.3519 38.1237 29.4375 37.9036 29.4375C37.6836 29.4377 37.4727 29.5234 37.3171 29.6757C37.1615 29.8281 37.074 30.0346 37.0738 30.25V42.4375C37.074 42.6529 37.1615 42.8594 37.3171 43.0118C37.4727 43.1641 37.6836 43.2498 37.9036 43.25C38.1237 43.25 38.3348 43.3356 38.4904 43.488C38.6461 43.6403 38.7335 43.847 38.7335 44.0625C38.7335 44.278 38.6461 44.4847 38.4904 44.637C38.3348 44.7894 38.1237 44.875 37.9036 44.875Z" fill="#D78E0C"/>
<path d="M40.3987 50.5625H22.1418C21.8841 50.058 21.75 49.5016 21.75 48.9375C21.75 48.3734 21.8841 47.817 22.1418 47.3125H40.3987C40.6564 47.817 40.7905 48.3734 40.7905 48.9375C40.7905 49.5016 40.6564 50.058 40.3987 50.5625Z" fill="#DCDBD6"/>
<path d="M22.1363 14.7188C23.0529 14.7188 23.796 13.9912 23.796 13.0938C23.796 12.1963 23.0529 11.4688 22.1363 11.4688C21.2196 11.4688 20.4766 12.1963 20.4766 13.0938C20.4766 13.9912 21.2196 14.7188 22.1363 14.7188Z" fill="#FFD248"/>
<path d="M25.8715 9.125C27.0173 9.125 27.9462 8.21558 27.9462 7.09375C27.9462 5.97192 27.0173 5.0625 25.8715 5.0625C24.7257 5.0625 23.7969 5.97192 23.7969 7.09375C23.7969 8.21558 24.7257 9.125 25.8715 9.125Z" fill="#FFD248"/>
<path d="M37.4844 21.3127H36.2396C36.2396 20.8762 36.1369 20.4454 35.9396 20.0539C35.7422 19.6624 35.4554 19.3207 35.1014 19.0552C34.7474 18.7897 34.3357 18.6075 33.8983 18.5229C33.4608 18.4382 33.0093 18.4533 32.5788 18.567C32.2818 17.9343 31.8064 17.3977 31.2085 17.0205C30.6107 16.6432 29.9153 16.441 29.204 16.4375C28.4928 16.4341 27.7953 16.6296 27.1937 17.001C26.5921 17.3724 26.1113 17.9044 25.8079 18.5342C25.3768 18.2551 24.8774 18.0937 24.3612 18.0668C23.8451 18.0398 23.331 18.1482 22.8719 18.3808C22.4129 18.6134 22.0256 18.9618 21.75 19.3899C21.4745 19.818 21.3206 20.3104 21.3044 20.8162C20.5654 21.1229 19.935 21.6359 19.4919 22.2911C19.0487 22.9464 18.8124 23.7148 18.8125 24.5007V25.3752C18.8126 25.8793 18.9722 26.371 19.2694 26.7826C19.5666 27.1941 19.9869 27.5054 20.4722 27.6735V29.3918C20.4722 30.2668 21.159 31.0197 22.0517 31.0609C22.2761 31.0716 22.5004 31.0375 22.7111 30.9607C22.9217 30.8839 23.1141 30.7661 23.2768 30.6143C23.4395 30.4625 23.5691 30.28 23.6576 30.0777C23.7461 29.8755 23.7917 29.6578 23.7917 29.4377V28.3236C23.7917 27.5417 24.1089 26.7917 24.6737 26.2388C25.2384 25.6859 26.0044 25.3752 26.803 25.3752H40.3889V24.1565C40.3889 23.4023 40.0829 22.679 39.5382 22.1457C38.9935 21.6124 38.2547 21.3127 37.4844 21.3127V21.3127Z" fill="#FFD248"/>
</g>
<defs>
<clipPath id="clip0_70_2055">
<rect width="34" height="52" fill="white" transform="translate(18 1)"/>
</clipPath>
</defs>
</svg>
