<svg width="500" height="500" viewBox="0 0 500 500" fill="none" xmlns="http://www.w3.org/2000/svg">
<rect width="500" height="500" rx="250" fill="#282B42"/>
<path d="M410.3 88.8882C367.373 45.9621 310.3 22.3213 249.593 22.3213V48.9548C360.226 48.9548 450.232 138.961 450.232 249.594C450.232 360.227 360.226 450.233 249.593 450.233C138.96 450.233 48.9538 360.227 48.9538 249.594C48.9538 197.813 68.4407 149.029 103.939 111.608L123.07 130.739L123.055 73.5473L65.8697 73.5402L85.0991 92.7696C44.5744 135.224 22.3203 190.698 22.3203 249.594C22.3203 310.301 45.9611 367.374 88.8864 410.3C131.813 453.226 188.886 476.867 249.593 476.867C310.3 476.867 367.373 453.226 410.3 410.3C453.225 367.374 476.866 310.301 476.866 249.594C476.866 188.887 453.225 131.814 410.3 88.8882Z" fill="url(#paint0_linear_7452_33337)"/>
<path d="M207.869 57.8327C198.078 57.8327 190.113 49.8675 190.113 40.077C190.113 30.2865 198.078 22.3213 207.869 22.3213C217.659 22.3213 225.625 30.2865 225.625 40.077C225.625 49.8675 217.659 57.8327 207.869 57.8327Z" fill="#3CC4E9"/>
<path d="M155.486 74.7003C145.696 74.7003 137.73 66.7351 137.73 56.9446C137.73 47.1542 145.696 39.189 155.486 39.189C165.277 39.189 173.242 47.1542 173.242 56.9446C173.242 66.7351 165.277 74.7003 155.486 74.7003Z" fill="#3CC4E9"/>
<mask id="mask0_7452_33337" style="mask-type:alpha" maskUnits="userSpaceOnUse" x="210" y="159" width="185" height="183">
<path fill-rule="evenodd" clip-rule="evenodd" d="M394.26 250.519C394.26 300.891 353.426 341.726 303.054 341.726C276.541 341.726 252.671 330.413 236.006 312.352L210.156 286.453C210.156 286.453 217.187 271.04 217.187 250.519C217.187 229.998 210.156 214.517 210.156 214.517H219.228C233.192 182.048 265.468 159.312 303.054 159.312C353.426 159.312 394.26 200.147 394.26 250.519ZM341.502 250.519C341.502 271.753 324.288 288.967 303.054 288.967C281.819 288.967 264.606 271.753 264.606 250.519C264.606 229.285 281.819 212.071 303.054 212.071C324.288 212.071 341.502 229.285 341.502 250.519Z" fill="url(#paint1_linear_7452_33337)"/>
</mask>
<g mask="url(#mask0_7452_33337)">
<path fill-rule="evenodd" clip-rule="evenodd" d="M394.26 250.519C394.26 300.891 353.426 341.726 303.054 341.726C276.541 341.726 252.671 330.413 236.006 312.352L210.156 286.453C210.156 286.453 217.187 271.04 217.187 250.519C217.187 229.998 210.156 214.517 210.156 214.517H219.228C233.192 182.048 265.468 159.312 303.054 159.312C353.426 159.312 394.26 200.147 394.26 250.519ZM341.502 250.519C341.502 271.753 324.288 288.967 303.054 288.967C281.819 288.967 264.606 271.753 264.606 250.519C264.606 229.285 281.819 212.071 303.054 212.071C324.288 212.071 341.502 229.285 341.502 250.519Z" fill="url(#paint2_linear_7452_33337)"/>
<path opacity="0.4" d="M210.156 249.384V214.773L210.198 214.79C216.579 217.33 221.662 222.786 226.051 227.497C226.953 228.466 227.827 229.403 228.675 230.277L275.907 277.815C276.2 278.093 276.607 278.462 277.083 278.878C251.093 260.981 236.675 253.696 210.156 249.384Z" fill="#1E2337"/>
</g>
<path d="M196.089 159.319C145.717 159.319 104.883 200.154 104.883 250.526C104.883 300.898 145.717 341.732 196.089 341.732C216.092 341.732 234.59 335.294 249.625 324.375L210.303 286.261C205.906 288.012 201.11 288.974 196.089 288.974C174.855 288.974 157.641 271.76 157.641 250.526C157.641 229.292 174.855 212.078 196.089 212.078C201.11 212.078 205.906 213.04 210.303 214.79C217.995 217.852 223.801 225.154 228.78 230.277L276.012 277.815C277.071 278.824 279.641 281.019 281.501 282.325C282.536 283.05 284.169 284.021 285.597 284.754C287.077 285.514 288.334 286.022 288.334 286.022C288.334 286.022 281.303 270.991 281.303 250.634C281.303 230.277 288.334 215.246 288.334 215.246L258.743 185.776C251.753 178.796 244.478 172.567 235.558 168.278C223.615 162.536 210.228 159.319 196.089 159.319Z" fill="url(#paint3_linear_7452_33337)"/>
<path opacity="0.3" fill-rule="evenodd" clip-rule="evenodd" d="M210.152 286.303C214.902 296.856 222.337 315.615 222.337 337.891C232.209 334.917 241.376 330.315 249.526 324.397L210.203 286.283C210.186 286.29 210.169 286.297 210.152 286.303Z" fill="#262D47"/>
<defs>
<linearGradient id="paint0_linear_7452_33337" x1="233.962" y1="73.2551" x2="89.7659" y2="98.7016" gradientUnits="userSpaceOnUse">
<stop stop-color="#F24EB3"/>
<stop offset="1" stop-color="#01E4FF"/>
</linearGradient>
<linearGradient id="paint1_linear_7452_33337" x1="360.108" y1="184.625" x2="251.218" y2="328.105" gradientUnits="userSpaceOnUse">
<stop stop-color="#FF52BC"/>
<stop offset="0.516172" stop-color="#C83E93"/>
<stop offset="1" stop-color="#861F5E"/>
</linearGradient>
<linearGradient id="paint2_linear_7452_33337" x1="360.108" y1="184.625" x2="251.218" y2="328.105" gradientUnits="userSpaceOnUse">
<stop stop-color="#FF52BC"/>
<stop offset="0.516172" stop-color="#C83E93"/>
<stop offset="1" stop-color="#861F5E"/>
</linearGradient>
<linearGradient id="paint3_linear_7452_33337" x1="250.952" y1="322.802" x2="129.438" y2="206.1" gradientUnits="userSpaceOnUse">
<stop stop-color="#00FFFF"/>
<stop offset="1" stop-color="#01CDFD"/>
</linearGradient>
</defs>
</svg>
