<svg width="48" height="32" viewBox="0 0 48 32" fill="none" xmlns="http://www.w3.org/2000/svg">
<rect width="32" height="32" rx="16" fill="#000D3D"/>
<path d="M22.8067 15.4427C22.9322 15.6305 22.9992 15.8514 22.9992 16.0772C22.9992 16.3802 22.8789 16.6707 22.6647 16.885C22.4505 17.099 22.1599 17.2194 21.857 17.2194C21.6311 17.2194 21.4103 17.1525 21.2224 17.0269C21.0346 16.9014 20.8883 16.723 20.8018 16.5144C20.7153 16.3057 20.6927 16.0761 20.7368 15.8544C20.7809 15.6329 20.8896 15.4294 21.0494 15.2697C21.2091 15.1099 21.4126 15.0012 21.6342 14.957C21.8558 14.913 22.0854 14.9356 22.2941 15.0221C22.5028 15.1085 22.6812 15.2549 22.8067 15.4427Z" fill="white"/>
<path d="M22.8067 21.223C22.9322 21.4107 22.9992 21.6316 22.9992 21.8575C22.9992 22.1605 22.8789 22.451 22.6647 22.6653C22.4505 22.8793 22.1599 22.9997 21.857 22.9997C21.6311 22.9997 21.4103 22.9328 21.2224 22.8072C21.0346 22.6817 20.8883 22.5033 20.8018 22.2947C20.7153 22.0859 20.6927 21.8564 20.7368 21.6347C20.7809 21.4131 20.8896 21.2096 21.0494 21.0499C21.2091 20.8902 21.4126 20.7815 21.6342 20.7373C21.8558 20.6933 22.0854 20.7158 22.2941 20.8024C22.5028 20.8888 22.6812 21.0352 22.8067 21.223Z" fill="white"/>
<path d="M22.999 8.99954H20.2578V11.7407H22.999V8.99954Z" fill="white"/>
<path d="M17.1114 21.223C17.2369 21.4107 17.3039 21.6316 17.3039 21.8575C17.3039 22.1605 17.1835 22.451 16.9693 22.6653C16.7552 22.8793 16.4646 22.9997 16.1617 22.9997C15.9358 22.9997 15.715 22.9328 15.5271 22.8072C15.3393 22.6817 15.193 22.5033 15.1065 22.2947C15.02 22.0859 14.9974 21.8564 15.0415 21.6347C15.0856 21.4131 15.1943 21.2096 15.3541 21.0499C15.5138 20.8902 15.7173 20.7815 15.9389 20.7373C16.1604 20.6933 16.3901 20.7158 16.5988 20.8024C16.8075 20.8888 16.9859 21.0352 17.1114 21.223Z" fill="white"/>
<path d="M17.5302 14.7066H14.7891V17.4477H17.5302V14.7066Z" fill="white"/>
<path d="M17.6083 8.99954H14.7148V11.893H17.6083V8.99954Z" fill="white"/>
<path d="M12.0535 9.00247H9.00781V12.0482H12.0535V9.00247Z" fill="white"/>
<path d="M11.7412 20.2593H9V23.0005H11.7412V20.2593Z" fill="white"/>
<path d="M11.8934 14.6304H9V17.5238H11.8934V14.6304Z" fill="white"/>
<rect x="16.5" y="0.5" width="31" height="31" rx="15.5" fill="#1A2550"/>
<rect x="16.5" y="0.5" width="31" height="31" rx="15.5" stroke="#000D3D"/>
<path d="M33.1953 15.3516C35.1406 15.1406 36.6641 13.5938 36.8516 11.625H36.6875C34.8828 11.625 33.3594 12.7969 32.7734 14.3906C32.5859 13.9922 32.3281 13.6172 32.0469 13.2891C32.9375 11.625 34.6719 10.5 36.6875 10.5H37.25C37.6484 10.5 38 10.8516 38 11.25C38 13.9219 36.0078 16.125 33.4297 16.4531C33.3828 16.0781 33.3125 15.7266 33.1953 15.3516ZM27.125 13.125V13.5C27.125 15.7969 28.9531 17.625 31.25 17.625H31.4375V17.25C31.4375 14.9766 29.5859 13.125 27.3125 13.125H27.125ZM32.5625 17.25V17.625V18.75V21.9375C32.5625 22.2656 32.3047 22.5 32 22.5C31.6719 22.5 31.4375 22.2656 31.4375 21.9375V18.75H31.25C28.3438 18.75 26 16.4062 26 13.5V12.75C26 12.3516 26.3281 12 26.75 12H27.3125C30.1953 12 32.5625 14.3672 32.5625 17.25Z" fill="white"/>
</svg>
