<svg width="48" height="32" viewBox="0 0 48 32" fill="none" xmlns="http://www.w3.org/2000/svg">
<rect width="32" height="32" rx="16" fill="#000D3D"/>
<path d="M22.8067 15.4427C22.9322 15.6304 22.9992 15.8513 22.9992 16.0772C22.9992 16.3801 22.8789 16.6707 22.6647 16.885C22.4505 17.099 22.1599 17.2194 21.857 17.2194C21.6311 17.2194 21.4103 17.1525 21.2224 17.0269C21.0346 16.9014 20.8883 16.723 20.8018 16.5144C20.7153 16.3056 20.6927 16.0761 20.7368 15.8544C20.7809 15.6328 20.8896 15.4293 21.0494 15.2696C21.2091 15.1099 21.4126 15.0012 21.6342 14.957C21.8558 14.913 22.0854 14.9355 22.2941 15.0221C22.5028 15.1085 22.6812 15.2549 22.8067 15.4427Z" fill="white"/>
<path d="M22.8067 21.2229C22.9322 21.4107 22.9992 21.6316 22.9992 21.8574C22.9992 22.1604 22.8789 22.451 22.6647 22.6652C22.4505 22.8793 22.1599 22.9996 21.857 22.9996C21.6311 22.9996 21.4103 22.9328 21.2224 22.8071C21.0346 22.6817 20.8883 22.5033 20.8018 22.2947C20.7153 22.0859 20.6927 21.8563 20.7368 21.6346C20.7809 21.4131 20.8896 21.2096 21.0494 21.0499C21.2091 20.8902 21.4126 20.7815 21.6342 20.7373C21.8558 20.6932 22.0854 20.7158 22.2941 20.8024C22.5028 20.8888 22.6812 21.0351 22.8067 21.2229Z" fill="white"/>
<path d="M22.999 8.99951H20.2578V11.7407H22.999V8.99951Z" fill="white"/>
<path d="M17.1114 21.2229C17.2369 21.4107 17.3039 21.6316 17.3039 21.8574C17.3039 22.1604 17.1835 22.451 16.9693 22.6652C16.7552 22.8793 16.4646 22.9996 16.1617 22.9996C15.9358 22.9996 15.715 22.9328 15.5271 22.8071C15.3393 22.6817 15.193 22.5033 15.1065 22.2947C15.02 22.0859 14.9974 21.8563 15.0415 21.6346C15.0856 21.4131 15.1943 21.2096 15.3541 21.0499C15.5138 20.8902 15.7173 20.7815 15.9389 20.7373C16.1604 20.6932 16.3901 20.7158 16.5988 20.8024C16.8075 20.8888 16.9859 21.0351 17.1114 21.2229Z" fill="white"/>
<path d="M17.5302 14.7065H14.7891V17.4477H17.5302V14.7065Z" fill="white"/>
<path d="M17.6083 8.99951H14.7148V11.893H17.6083V8.99951Z" fill="white"/>
<path d="M12.0535 9.00244H9.00781V12.0482H12.0535V9.00244Z" fill="white"/>
<path d="M11.7412 20.2593H9V23.0004H11.7412V20.2593Z" fill="white"/>
<path d="M11.8934 14.6304H9V17.5238H11.8934V14.6304Z" fill="white"/>
<rect x="16.5" y="0.5" width="31" height="31" rx="15.5" fill="#1A2550"/>
<rect x="16.5" y="0.5" width="31" height="31" rx="15.5" stroke="#000D3D"/>
<path d="M32.3984 11.4375L36.3359 15.5625C36.5469 15.7969 36.5469 16.1484 36.3125 16.3594C36.0781 16.5703 35.7266 16.5703 35.5156 16.3359L32.5625 13.2188V21.1875C32.5625 21.5156 32.3047 21.75 32 21.75C31.6719 21.75 31.4375 21.5156 31.4375 21.1875V13.2188L28.4609 16.3359C28.25 16.5703 27.8984 16.5703 27.6641 16.3594C27.4297 16.1484 27.4297 15.7734 27.6406 15.5625L31.5781 11.4375C31.6953 11.3203 31.8359 11.25 32 11.25C32.1406 11.25 32.2812 11.3203 32.3984 11.4375Z" fill="white"/>
</svg>
