<svg width="18" height="18" viewBox="0 0 18 18" fill="none" xmlns="http://www.w3.org/2000/svg">
<path d="M4.46875 16.7812L1.46875 13.7812C1.15625 13.5 1.15625 13.0312 1.46875 12.7188C1.75 12.4375 2.21875 12.4375 2.53125 12.7188L4.25 14.4688V9.75H0.75C0.3125 9.75 0 9.4375 0 9C0 8.59375 0.3125 8.25 0.75 8.25H4.25H5.75H12.25V3.5625L10.5312 5.28125C10.2188 5.59375 9.75 5.59375 9.46875 5.28125C9.15625 5 9.15625 4.53125 9.46875 4.21875L12.4688 1.21875C12.75 0.9375 13.2188 0.9375 13.5312 1.21875L16.5 4.21875C16.8125 4.53125 16.8125 5 16.5 5.28125C16.2188 5.59375 15.75 5.59375 15.4688 5.28125L13.75 3.5625V8.25H17.25C17.6562 8.25 18 8.59375 18 9C18 9.4375 17.6562 9.75 17.25 9.75H5.75V14.4688L7.46875 12.75C7.75 12.4375 8.21875 12.4375 8.5 12.75C8.8125 13.0312 8.8125 13.5 8.5 13.7812L5.5 16.7812C5.21875 17.0938 4.75 17.0938 4.46875 16.7812ZM4.25 7V2.75C4.25 2.34375 4.5625 2 5 2C5.40625 2 5.75 2.34375 5.75 2.75V7H4.25ZM13.75 11V15.25C13.75 15.6875 13.4062 16 13 16C12.5625 16 12.25 15.6875 12.25 15.25V11H13.75Z" fill="white"/>
</svg>
