<svg width="15" height="13" viewBox="0 0 15 13" fill="none" xmlns="http://www.w3.org/2000/svg">
<path d="M14.25 7.43518L8.75 12.6852C8.4375 12.9664 7.96875 12.9664 7.6875 12.6539C7.40625 12.3414 7.40625 11.8727 7.71875 11.5914L11.875 7.62268H1.25C0.8125 7.62268 0.5 7.31018 0.5 6.87268C0.5 6.46643 0.8125 6.12268 1.25 6.12268H11.875L7.71875 2.18518C7.40625 1.90393 7.40625 1.40393 7.6875 1.12268C7.96875 0.810181 8.46875 0.810181 8.75 1.09143L14.25 6.34143C14.4062 6.49768 14.5 6.68518 14.5 6.87268C14.5 7.09143 14.4062 7.27893 14.25 7.43518Z" fill="url(#paint0_linear_95_3041)"/>
<defs>
<linearGradient id="paint0_linear_95_3041" x1="2.50064" y1="18.3016" x2="19.2709" y2="10.9709" gradientUnits="userSpaceOnUse">
<stop stop-color="#5F38FB"/>
<stop offset="0.640625" stop-color="#CF447B"/>
<stop offset="1" stop-color="#F9774B"/>
</linearGradient>
</defs>
</svg>
