<svg width="48" height="48" viewBox="0 0 48 48" fill="none" xmlns="http://www.w3.org/2000/svg">
<rect width="48" height="48" rx="24" fill="white"/>
<path d="M23.4375 30.7812L18.1875 25.2812C17.9062 24.9688 17.9062 24.5 18.2188 24.2188C18.5312 23.9375 19 23.9375 19.2812 24.25L23.25 28.4062V17.75C23.25 17.3438 23.5625 17 24 17C24.4062 17 24.75 17.3438 24.75 17.75V28.4062L28.6875 24.25C28.9688 23.9375 29.4688 23.9375 29.75 24.2188C30.0625 24.5 30.0625 24.9688 29.7812 25.2812L24.5312 30.7812C24.375 30.9375 24.1875 31 24 31C23.7812 31 23.5938 30.9375 23.4375 30.7812Z" fill="#000D3D"/>
</svg>
