<svg width="38" height="32" viewBox="0 0 38 32" fill="none" xmlns="http://www.w3.org/2000/svg">
<g filter="url(#filter0_b_616_931)">
<rect x="0.5" y="0.5" width="37" height="31" rx="15.5" stroke="white" stroke-opacity="0.4"/>
<path d="M12.2188 16.5625C12.0625 16.4062 12 16.2188 12 16C12 15.8125 12.0625 15.625 12.2188 15.4688L17.7188 10.2188C18.0312 9.9375 18.5 9.9375 18.7812 10.25C19.0625 10.5312 19.0625 11.0312 18.75 11.3125L14.5938 15.25H25.25C25.6562 15.25 26 15.5938 26 16C26 16.4375 25.6562 16.75 25.25 16.75H14.5938L18.75 20.7188C19.0625 21 19.0625 21.4688 18.7812 21.7812C18.5 22.0938 18.0312 22.0938 17.7188 21.8125L12.2188 16.5625Z" fill="white"/>
</g>
<defs>
<filter id="filter0_b_616_931" x="-20" y="-20" width="78" height="72" filterUnits="userSpaceOnUse" color-interpolation-filters="sRGB">
<feFlood flood-opacity="0" result="BackgroundImageFix"/>
<feGaussianBlur in="BackgroundImageFix" stdDeviation="10"/>
<feComposite in2="SourceAlpha" operator="in" result="effect1_backgroundBlur_616_931"/>
<feBlend mode="normal" in="SourceGraphic" in2="effect1_backgroundBlur_616_931" result="shape"/>
</filter>
</defs>
</svg>
