<svg width="49" height="48" viewBox="0 0 49 48" fill="none" xmlns="http://www.w3.org/2000/svg">
<rect x="1" y="0.5" width="47" height="47" rx="23.5" stroke="white" stroke-opacity="0.4"/>
<path d="M29.2812 20.2812L25.5312 24.0312L29.25 27.75C29.5625 28.0312 29.5625 28.5 29.25 28.7812C28.9688 29.0938 28.5 29.0938 28.2188 28.7812L24.4688 25.0625L20.75 28.7812C20.4688 29.0938 20 29.0938 19.7188 28.7812C19.4062 28.5 19.4062 28.0312 19.7188 27.7188L23.4375 24L19.7188 20.2812C19.4062 20 19.4062 19.5312 19.7188 19.2188C20 18.9375 20.4688 18.9375 20.7812 19.2188L24.5 22.9688L28.2188 19.25C28.5 18.9375 28.9688 18.9375 29.2812 19.25C29.5625 19.5312 29.5625 20 29.2812 20.2812Z" fill="white"/>
</svg>
