<svg width="24" height="24" viewBox="0 0 24 24" fill="none" xmlns="http://www.w3.org/2000/svg">
<path d="M19.1094 12.0781L16.0195 15.168C14.4609 16.6992 11.9727 16.6992 10.4414 15.168C8.99219 13.6914 8.91016 11.3672 10.25 9.80859L10.3867 9.64453C10.6328 9.37109 11.043 9.34375 11.3164 9.58984C11.5898 9.83594 11.6172 10.2461 11.3711 10.5195L11.2617 10.6562C10.332 11.6953 10.3867 13.2539 11.3711 14.2383C12.3828 15.25 14.0508 15.25 15.0898 14.2383L18.1797 11.1484C19.1914 10.1094 19.1914 8.46875 18.1797 7.42969C17.1953 6.47266 15.6367 6.41797 14.5977 7.32031L14.4336 7.45703C14.1602 7.70312 13.75 7.67578 13.5039 7.40234C13.2578 7.12891 13.2852 6.71875 13.5586 6.47266L13.7227 6.33594C15.2812 4.96875 17.6328 5.05078 19.1094 6.5C20.6406 8.03125 20.6406 10.5195 19.1094 12.0781ZM4.86328 11.4492L7.98047 8.35938C9.51172 6.82812 12 6.82812 13.5312 8.35938C15.0078 9.80859 15.0898 12.1602 13.7227 13.7188L13.5586 13.8828C13.3398 14.1562 12.9023 14.2109 12.6289 13.9648C12.3555 13.7188 12.3281 13.3086 12.5742 13.0352L12.7383 12.8711C13.6406 11.832 13.5859 10.2734 12.6016 9.28906C11.5898 8.25 9.92188 8.25 8.91016 9.28906L5.79297 12.3789C4.78125 13.3906 4.78125 15.0586 5.79297 16.0977C6.77734 17.0547 8.33594 17.1094 9.375 16.207L9.53906 16.0703C9.8125 15.8242 10.2227 15.8516 10.4688 16.125C10.7148 16.3984 10.6875 16.8086 10.4141 17.0547L10.25 17.1914C8.69141 18.5586 6.33984 18.4766 4.86328 17.0273C3.33203 15.4961 3.33203 12.9805 4.86328 11.4492Z" fill="white"/>
</svg>
