<svg width="19" height="12" viewBox="0 0 19 12" fill="none" xmlns="http://www.w3.org/2000/svg">
<path d="M4.60156 0.773438L7.22656 3.39844C7.58203 3.72656 7.58203 4.30078 7.22656 4.62891C6.89844 4.98438 6.32422 4.98438 5.99609 4.62891L4.875 3.50781V7.5C4.875 7.99219 5.25781 8.375 5.75 8.375H8.8125C9.27734 8.375 9.6875 8.78516 9.6875 9.25C9.6875 9.74219 9.27734 10.125 8.8125 10.125H5.75C4.30078 10.125 3.125 8.94922 3.125 7.5V3.50781L1.97656 4.62891C1.64844 4.98438 1.07422 4.98438 0.746094 4.62891C0.390625 4.30078 0.390625 3.72656 0.746094 3.39844L3.37109 0.773438C3.69922 0.417969 4.27344 0.417969 4.60156 0.773438ZM9.6875 1.375H12.75C14.1992 1.375 15.375 2.55078 15.375 4V8.01953L16.4961 6.89844C16.8242 6.54297 17.3984 6.54297 17.7266 6.89844C18.082 7.22656 18.082 7.80078 17.7266 8.12891L15.1016 10.7539C14.7734 11.1094 14.1992 11.1094 13.8711 10.7539L11.2461 8.12891C10.8906 7.80078 10.8906 7.22656 11.2461 6.89844C11.5742 6.54297 12.1484 6.54297 12.4766 6.89844L13.625 8.01953V4C13.625 3.53516 13.2148 3.125 12.75 3.125H9.6875C9.19531 3.125 8.8125 2.74219 8.8125 2.25C8.8125 1.78516 9.19531 1.375 9.6875 1.375Z" fill="white"/>
</svg>
