<svg width="18" height="16" viewBox="0 0 18 16" fill="none" xmlns="http://www.w3.org/2000/svg">
<path d="M8.90039 0C11.7441 0 14.3691 1.53125 15.8066 4C17.2441 6.5 17.2441 9.53125 15.8066 12C14.3691 14.5 11.7441 16 8.90039 16C6.02539 16 3.40039 14.5 1.96289 12C0.525391 9.53125 0.525391 6.5 1.96289 4C3.40039 1.53125 6.02539 0 8.90039 0ZM8.15039 3.75V8C8.15039 8.25 8.27539 8.5 8.46289 8.625L11.4629 10.625C11.8066 10.875 12.2754 10.7812 12.5254 10.4375C12.7441 10.0938 12.6504 9.625 12.3066 9.375L9.65039 7.625V3.75C9.65039 3.34375 9.30664 3 8.90039 3C8.46289 3 8.15039 3.34375 8.15039 3.75Z" fill="white"/>
</svg>
