<svg width="32" height="32" viewBox="0 0 32 32" fill="none" xmlns="http://www.w3.org/2000/svg">
<rect width="32" height="32" rx="16" fill="white" fill-opacity="0.2"/>
<path d="M20.6875 12.7188L17.4062 16L20.6875 19.3125C21.0938 19.6875 21.0938 20.3438 20.6875 20.7188C20.3125 21.125 19.6562 21.125 19.2812 20.7188L16 17.4375L12.6875 20.7188C12.3125 21.125 11.6562 21.125 11.2812 20.7188C10.875 20.3438 10.875 19.6875 11.2812 19.3125L14.5625 16L11.2812 12.7188C10.875 12.3438 10.875 11.6875 11.2812 11.3125C11.6562 10.9062 12.3125 10.9062 12.6875 11.3125L16 14.5938L19.2812 11.3125C19.6562 10.9062 20.3125 10.9062 20.6875 11.3125C21.0938 11.6875 21.0938 12.3438 20.6875 12.7188Z" fill="#D0BCFF"/>
</svg>
