<svg width="33" height="32" viewBox="0 0 33 32" fill="none" xmlns="http://www.w3.org/2000/svg">
<rect x="0.5" width="32" height="32" rx="16" fill="white" fill-opacity="0.1"/>
<path d="M8.5 15.9688V15.7188C8.65625 13.2188 10.75 11.25 13.25 11.25H19.9375L18.2188 9.53125C17.9062 9.25 17.9062 8.78125 18.2188 8.46875C18.5 8.1875 18.9688 8.1875 19.2812 8.46875L22.2812 11.4688C22.5625 11.7812 22.5625 12.25 22.2812 12.5312L19.2812 15.5312C18.9688 15.8438 18.5 15.8438 18.2188 15.5312C17.9062 15.25 17.9062 14.7812 18.2188 14.4688L19.9375 12.75H13.25C11.5312 12.75 10.0938 14.0938 10 15.8125V16.0625C9.96875 16.4688 9.59375 16.7812 9.1875 16.75C8.78125 16.75 8.46875 16.375 8.5 15.9688ZM24.4688 16.0625H24.5L24.4688 16.3125C24.3125 18.8125 22.25 20.75 19.7188 20.75H13.0312L14.75 22.4688C15.0625 22.7812 15.0625 23.25 14.75 23.5312C14.4688 23.8438 14 23.8438 13.7188 23.5312L10.7188 20.5312C10.4062 20.25 10.4062 19.7812 10.7188 19.4688L13.7188 16.5C14 16.1875 14.4688 16.1875 14.75 16.5C15.0625 16.7812 15.0625 17.25 14.75 17.5312L13.0312 19.25H19.7188C21.4375 19.25 22.875 17.9375 22.9688 16.2188L23 15.9688C23 15.5625 23.375 15.25 23.7812 15.25C24.1875 15.2812 24.5 15.6562 24.4688 16.0625Z" fill="white"/>
</svg>
