<svg width="17" height="16" viewBox="0 0 17 16" fill="none" xmlns="http://www.w3.org/2000/svg">
<path d="M1 7.96875V7.71875C1.15625 5.21875 3.25 3.25 5.75 3.25H12.4375L10.7188 1.53125C10.4062 1.25 10.4062 0.78125 10.7188 0.46875C11 0.1875 11.4688 0.1875 11.7812 0.46875L14.7812 3.46875C15.0625 3.78125 15.0625 4.25 14.7812 4.53125L11.7812 7.53125C11.4688 7.84375 11 7.84375 10.7188 7.53125C10.4062 7.25 10.4062 6.78125 10.7188 6.46875L12.4375 4.75H5.75C4.03125 4.75 2.59375 6.09375 2.5 7.8125V8.0625C2.46875 8.46875 2.09375 8.78125 1.6875 8.75C1.28125 8.75 0.96875 8.375 1 7.96875ZM16.9688 8.0625H17L16.9688 8.3125C16.8125 10.8125 14.75 12.75 12.2188 12.75H5.53125L7.25 14.4688C7.5625 14.7812 7.5625 15.25 7.25 15.5312C6.96875 15.8438 6.5 15.8438 6.21875 15.5312L3.21875 12.5312C2.90625 12.25 2.90625 11.7812 3.21875 11.4688L6.21875 8.5C6.5 8.1875 6.96875 8.1875 7.25 8.5C7.5625 8.78125 7.5625 9.25 7.25 9.53125L5.53125 11.25H12.2188C13.9375 11.25 15.375 9.9375 15.4688 8.21875L15.5 7.96875C15.5 7.5625 15.875 7.25 16.2812 7.25C16.6875 7.28125 17 7.65625 16.9688 8.0625Z" fill="white"/>
</svg>
