<svg width="24" height="24" viewBox="0 0 24 24" fill="none" xmlns="http://www.w3.org/2000/svg">
<path d="M11.2812 16.75C11.4375 16.7188 11.5625 16.6875 11.7188 16.6562C13.4688 16.2188 15.4375 15.6875 17.5 15.75C17.625 14.7812 18.4688 14.0312 19.5 14.0312V8.5C18.375 8.5 17.5 7.625 17.5 6.53125C16.0312 6.46875 14.4688 6.8125 12.6875 7.28125C12.5312 7.3125 12.4062 7.34375 12.25 7.375C10.5 7.8125 8.53125 8.34375 6.46875 8.28125C6.34375 9.25 5.5 10 4.5 10V15.5C5.59375 15.5 6.46875 16.4062 6.5 17.5C7.96875 17.5625 9.5 17.2188 11.2812 16.75ZM3 17.1875V7.53125C3 6.78125 3.78125 6.28125 4.5 6.46875C7 7.15625 9.5 6.53125 12 5.90625C14.6875 5.21875 17.4062 4.5 20.125 5.53125C20.6562 5.71875 21 6.25 21 6.84375V16.4688C21 17.25 20.1875 17.75 19.4688 17.5312C16.9688 16.8438 14.4688 17.5 12 18.125C9.28125 18.8125 6.5625 19.5 3.84375 18.5C3.3125 18.3125 3 17.75 3 17.1875ZM12 15C10.5938 15 9.5 13.6562 9.5 12C9.5 10.3438 10.5938 9 12 9C13.375 9 14.5 10.3438 14.5 12C14.5 13.6562 13.375 15 12 15Z" fill="white"/>
</svg>
