<svg width="149" height="151" viewBox="0 0 149 151" fill="none" xmlns="http://www.w3.org/2000/svg">
<path d="M87.7357 44.0409H39.5342C36.0798 44.0409 33.2794 46.8413 33.2794 50.2957V89.1657C33.2794 92.6202 36.0798 95.4206 39.5342 95.4206H87.7357C91.1902 95.4206 93.9906 92.6202 93.9906 89.1657V50.2957C93.9906 46.8413 91.1902 44.0409 87.7357 44.0409Z" fill="#30239C"/>
<g filter="url(#filter0_bd_1907_3947)">
<mask id="path-2-inside-1_1907_3947" fill="white">
<path fill-rule="evenodd" clip-rule="evenodd" d="M80.8966 23C79.3405 23 78.0791 24.2614 78.0791 25.8175C78.0791 25.8666 78.0803 25.9154 78.0828 25.9639H67.7672C66.2111 25.9639 64.9497 27.2253 64.9497 28.7814C64.9497 30.3374 66.2111 31.5989 67.7672 31.5989H100.495C102.051 31.5989 103.313 30.3374 103.313 28.7814C103.313 27.2253 102.051 25.9639 100.495 25.9639H89.9313C89.9338 25.9154 89.9351 25.8666 89.9351 25.8175C89.9351 24.2614 88.6736 23 87.1176 23H80.8966ZM67.5396 38.8126C68.0739 38.136 68.8886 37.7413 69.7508 37.7413H98.5116C99.3738 37.7413 100.188 38.136 100.723 38.8126C101.257 39.4892 101.452 40.3732 101.252 41.2119L96.0795 62.9178C95.7771 64.1867 94.6432 65.0821 93.3387 65.0821H74.9237C73.6192 65.0821 72.4853 64.1867 72.1829 62.9178L67.01 41.2119C66.8102 40.3732 67.0053 39.4892 67.5396 38.8126ZM73.3186 43.3762L77.1486 59.4472H91.1138L94.9438 43.3762H73.3186Z"/>
</mask>
<path fill-rule="evenodd" clip-rule="evenodd" d="M80.8966 23C79.3405 23 78.0791 24.2614 78.0791 25.8175C78.0791 25.8666 78.0803 25.9154 78.0828 25.9639H67.7672C66.2111 25.9639 64.9497 27.2253 64.9497 28.7814C64.9497 30.3374 66.2111 31.5989 67.7672 31.5989H100.495C102.051 31.5989 103.313 30.3374 103.313 28.7814C103.313 27.2253 102.051 25.9639 100.495 25.9639H89.9313C89.9338 25.9154 89.9351 25.8666 89.9351 25.8175C89.9351 24.2614 88.6736 23 87.1176 23H80.8966ZM67.5396 38.8126C68.0739 38.136 68.8886 37.7413 69.7508 37.7413H98.5116C99.3738 37.7413 100.188 38.136 100.723 38.8126C101.257 39.4892 101.452 40.3732 101.252 41.2119L96.0795 62.9178C95.7771 64.1867 94.6432 65.0821 93.3387 65.0821H74.9237C73.6192 65.0821 72.4853 64.1867 72.1829 62.9178L67.01 41.2119C66.8102 40.3732 67.0053 39.4892 67.5396 38.8126ZM73.3186 43.3762L77.1486 59.4472H91.1138L94.9438 43.3762H73.3186Z" fill="url(#paint0_linear_1907_3947)" shape-rendering="crispEdges"/>
<path d="M78.0828 25.9639V26.8655H79.0317L78.9832 25.9178L78.0828 25.9639ZM89.9313 25.9639L89.0309 25.9178L88.9824 26.8655H89.9313V25.9639ZM100.723 38.8126L100.015 39.3714V39.3714L100.723 38.8126ZM101.252 41.2119L102.129 41.4209V41.4209L101.252 41.2119ZM96.0795 62.9178L96.9565 63.1268L96.9565 63.1268L96.0795 62.9178ZM72.1829 62.9178L71.3059 63.1268L72.1829 62.9178ZM67.01 41.2119L66.133 41.4209H66.133L67.01 41.2119ZM77.1486 59.4472L76.2716 59.6562L76.4366 60.3488H77.1486V59.4472ZM73.3186 43.3762V42.4746H72.1769L72.4416 43.5852L73.3186 43.3762ZM91.1138 59.4472V60.3488H91.8258L91.9908 59.6562L91.1138 59.4472ZM94.9438 43.3762L95.8208 43.5852L96.0855 42.4746H94.9438V43.3762ZM78.9807 25.8175C78.9807 24.7594 79.8384 23.9016 80.8966 23.9016V22.0984C78.8426 22.0984 77.1775 23.7635 77.1775 25.8175H78.9807ZM78.9832 25.9178C78.9815 25.8847 78.9807 25.8512 78.9807 25.8175H77.1775C77.1775 25.882 77.1791 25.9462 77.1824 26.01L78.9832 25.9178ZM78.0828 25.0623H67.7672V26.8655H78.0828V25.0623ZM67.7672 25.0623C65.7132 25.0623 64.0481 26.7274 64.0481 28.7814H65.8513C65.8513 27.7233 66.7091 26.8655 67.7672 26.8655V25.0623ZM64.0481 28.7814C64.0481 30.8354 65.7132 32.5005 67.7672 32.5005V30.6973C66.7091 30.6973 65.8513 29.8395 65.8513 28.7814H64.0481ZM67.7672 32.5005H100.495V30.6973H67.7672V32.5005ZM100.495 32.5005C102.549 32.5005 104.214 30.8354 104.214 28.7814H102.411C102.411 29.8395 101.553 30.6973 100.495 30.6973V32.5005ZM104.214 28.7814C104.214 26.7274 102.549 25.0623 100.495 25.0623V26.8655C101.553 26.8655 102.411 27.7233 102.411 28.7814H104.214ZM100.495 25.0623H89.9313V26.8655H100.495V25.0623ZM89.0335 25.8175C89.0335 25.8512 89.0326 25.8847 89.0309 25.9178L90.8317 26.01C90.835 25.9462 90.8366 25.882 90.8366 25.8175H89.0335ZM87.1176 23.9016C88.1757 23.9016 89.0335 24.7594 89.0335 25.8175H90.8366C90.8366 23.7635 89.1716 22.0984 87.1176 22.0984V23.9016ZM80.8966 23.9016H87.1176V22.0984H80.8966V23.9016ZM69.7508 36.8397C68.6127 36.8397 67.5373 37.3607 66.832 38.2538L68.2472 39.3714C68.6105 38.9113 69.1645 38.6429 69.7508 38.6429V36.8397ZM98.5116 36.8397H69.7508V38.6429H98.5116V36.8397ZM101.43 38.2539C100.725 37.3607 99.6497 36.8397 98.5116 36.8397V38.6429C99.0979 38.6429 99.6519 38.9113 100.015 39.3714L101.43 38.2539ZM102.129 41.4209C102.393 40.3139 102.136 39.147 101.43 38.2538L100.015 39.3714C100.379 39.8315 100.511 40.4326 100.375 41.0029L102.129 41.4209ZM96.9565 63.1268L102.129 41.4209L100.375 41.0029L95.2024 62.7088L96.9565 63.1268ZM93.3387 65.9837C95.0606 65.9837 96.5573 64.8018 96.9565 63.1268L95.2024 62.7088C94.9968 63.5717 94.2258 64.1805 93.3387 64.1805V65.9837ZM74.9237 65.9837H93.3387V64.1805H74.9237V65.9837ZM71.3059 63.1268C71.7051 64.8018 73.2018 65.9837 74.9237 65.9837V64.1805C74.0366 64.1805 73.2656 63.5717 73.06 62.7088L71.3059 63.1268ZM66.133 41.4209L71.3059 63.1268L73.06 62.7088L67.8871 41.0029L66.133 41.4209ZM66.832 38.2538C66.1267 39.147 65.8692 40.3139 66.133 41.4209L67.8871 41.0029C67.7511 40.4326 67.8838 39.8315 68.2472 39.3714L66.832 38.2538ZM78.0256 59.2382L74.1956 43.1672L72.4416 43.5852L76.2716 59.6562L78.0256 59.2382ZM91.1138 58.5456H77.1486V60.3488H91.1138V58.5456ZM94.0668 43.1672L90.2368 59.2382L91.9908 59.6562L95.8208 43.5852L94.0668 43.1672ZM73.3186 44.2778H94.9438V42.4746H73.3186V44.2778Z" fill="url(#paint1_linear_1907_3947)" mask="url(#path-2-inside-1_1907_3947)"/>
</g>
<g filter="url(#filter1_bd_1907_3947)">
<mask id="path-4-inside-2_1907_3947" fill="white">
<path fill-rule="evenodd" clip-rule="evenodd" d="M28.9422 53.6204H77.1437C80.5982 53.6204 83.3985 56.4208 83.3985 59.8752V98.7453C83.3985 102.2 80.5982 105 77.1437 105H28.9422C25.4878 105 22.6874 102.2 22.6874 98.7453V59.8752C22.6874 56.4208 25.4878 53.6204 28.9422 53.6204ZM68.5899 71.6748C72.4427 71.6748 75.566 74.7981 75.566 78.6509C75.566 82.5037 72.4427 85.627 68.5899 85.627C64.7371 85.627 61.6138 82.5037 61.6138 78.6509C61.6138 74.7981 64.7371 71.6748 68.5899 71.6748Z"/>
</mask>
<path fill-rule="evenodd" clip-rule="evenodd" d="M28.9422 53.6204H77.1437C80.5982 53.6204 83.3985 56.4208 83.3985 59.8752V98.7453C83.3985 102.2 80.5982 105 77.1437 105H28.9422C25.4878 105 22.6874 102.2 22.6874 98.7453V59.8752C22.6874 56.4208 25.4878 53.6204 28.9422 53.6204ZM68.5899 71.6748C72.4427 71.6748 75.566 74.7981 75.566 78.6509C75.566 82.5037 72.4427 85.627 68.5899 85.627C64.7371 85.627 61.6138 82.5037 61.6138 78.6509C61.6138 74.7981 64.7371 71.6748 68.5899 71.6748Z" fill="url(#paint2_linear_1907_3947)" shape-rendering="crispEdges"/>
<path d="M77.1437 52.7188H28.9422V54.522H77.1437V52.7188ZM84.3001 59.8752C84.3001 55.9229 81.0961 52.7188 77.1437 52.7188V54.522C80.1002 54.522 82.4969 56.9187 82.4969 59.8752H84.3001ZM84.3001 98.7453V59.8752H82.4969V98.7453H84.3001ZM77.1437 105.902C81.0961 105.902 84.3001 102.698 84.3001 98.7453H82.4969C82.4969 101.702 80.1002 104.098 77.1437 104.098V105.902ZM28.9422 105.902H77.1437V104.098H28.9422V105.902ZM21.7858 98.7453C21.7858 102.698 24.9898 105.902 28.9422 105.902V104.098C25.9857 104.098 23.589 101.702 23.589 98.7453H21.7858ZM21.7858 59.8752V98.7453H23.589V59.8752H21.7858ZM28.9422 52.7188C24.9898 52.7188 21.7858 55.9229 21.7858 59.8752H23.589C23.589 56.9187 25.9857 54.522 28.9422 54.522V52.7188ZM76.4676 78.6509C76.4676 74.3002 72.9407 70.7732 68.5899 70.7732V72.5764C71.9448 72.5764 74.6644 75.2961 74.6644 78.6509H76.4676ZM68.5899 86.5286C72.9407 86.5286 76.4676 83.0017 76.4676 78.6509H74.6644C74.6644 82.0058 71.9448 84.7254 68.5899 84.7254V86.5286ZM60.7122 78.6509C60.7122 83.0017 64.2392 86.5286 68.5899 86.5286V84.7254C65.2351 84.7254 62.5154 82.0058 62.5154 78.6509H60.7122ZM68.5899 70.7732C64.2392 70.7732 60.7122 74.3002 60.7122 78.6509H62.5154C62.5154 75.2961 65.2351 72.5764 68.5899 72.5764V70.7732Z" fill="url(#paint3_linear_1907_3947)" mask="url(#path-4-inside-2_1907_3947)"/>
</g>
<defs>
<filter id="filter0_bd_1907_3947" x="42.4098" y="0.460118" width="105.983" height="109.702" filterUnits="userSpaceOnUse" color-interpolation-filters="sRGB">
<feFlood flood-opacity="0" result="BackgroundImageFix"/>
<feGaussianBlur in="BackgroundImageFix" stdDeviation="2.25399"/>
<feComposite in2="SourceAlpha" operator="in" result="effect1_backgroundBlur_1907_3947"/>
<feColorMatrix in="SourceAlpha" type="matrix" values="0 0 0 0 0 0 0 0 0 0 0 0 0 0 0 0 0 0 127 0" result="hardAlpha"/>
<feOffset dx="11.2699" dy="11.2699"/>
<feGaussianBlur stdDeviation="16.9049"/>
<feComposite in2="hardAlpha" operator="out"/>
<feColorMatrix type="matrix" values="0 0 0 0 0.00392157 0 0 0 0 0.054902 0 0 0 0 0.243137 0 0 0 0.14 0"/>
<feBlend mode="normal" in2="effect1_backgroundBlur_1907_3947" result="effect2_dropShadow_1907_3947"/>
<feBlend mode="normal" in="SourceGraphic" in2="effect2_dropShadow_1907_3947" result="shape"/>
</filter>
<filter id="filter1_bd_1907_3947" x="0.147496" y="31.0805" width="128.331" height="118.999" filterUnits="userSpaceOnUse" color-interpolation-filters="sRGB">
<feFlood flood-opacity="0" result="BackgroundImageFix"/>
<feGaussianBlur in="BackgroundImageFix" stdDeviation="2.25399"/>
<feComposite in2="SourceAlpha" operator="in" result="effect1_backgroundBlur_1907_3947"/>
<feColorMatrix in="SourceAlpha" type="matrix" values="0 0 0 0 0 0 0 0 0 0 0 0 0 0 0 0 0 0 127 0" result="hardAlpha"/>
<feOffset dx="11.2699" dy="11.2699"/>
<feGaussianBlur stdDeviation="16.9049"/>
<feComposite in2="hardAlpha" operator="out"/>
<feColorMatrix type="matrix" values="0 0 0 0 0.00392157 0 0 0 0 0.054902 0 0 0 0 0.243137 0 0 0 0.14 0"/>
<feBlend mode="normal" in2="effect1_backgroundBlur_1907_3947" result="effect2_dropShadow_1907_3947"/>
<feBlend mode="normal" in="SourceGraphic" in2="effect2_dropShadow_1907_3947" result="shape"/>
</filter>
<linearGradient id="paint0_linear_1907_3947" x1="60.6044" y1="15.782" x2="110.998" y2="64.8598" gradientUnits="userSpaceOnUse">
<stop offset="0.129418" stop-color="#FFA485" stop-opacity="0.9"/>
<stop offset="0.408113" stop-color="#FF7445" stop-opacity="0.8"/>
<stop offset="0.85239" stop-color="#FF7445" stop-opacity="0.5"/>
</linearGradient>
<linearGradient id="paint1_linear_1907_3947" x1="56.1104" y1="17.5929" x2="111.55" y2="59.8874" gradientUnits="userSpaceOnUse">
<stop offset="0.238491" stop-color="#FDCBBA"/>
<stop offset="0.491823" stop-color="#F9774B" stop-opacity="0"/>
<stop offset="0.829118" stop-color="#F86A3A"/>
</linearGradient>
<linearGradient id="paint2_linear_1907_3947" x1="110.231" y1="34.6439" x2="-17.6316" y2="179.751" gradientUnits="userSpaceOnUse">
<stop stop-color="#8566FF" stop-opacity="0.7"/>
<stop offset="0.325347" stop-color="#8566FF" stop-opacity="0.7"/>
<stop offset="0.576947" stop-color="#5D34FF" stop-opacity="0.5"/>
<stop offset="0.752365" stop-color="#5D34FF" stop-opacity="0.3"/>
</linearGradient>
<linearGradient id="paint3_linear_1907_3947" x1="6.19007" y1="47.6407" x2="78.9398" y2="119.281" gradientUnits="userSpaceOnUse">
<stop offset="0.260545" stop-color="#AF9BFD"/>
<stop offset="0.56731" stop-color="#5F38FB" stop-opacity="0"/>
<stop offset="0.847569" stop-color="#6C47FF"/>
</linearGradient>
</defs>
</svg>
