<svg width="17" height="16" viewBox="0 0 17 16" fill="none" xmlns="http://www.w3.org/2000/svg">
<path d="M10.0938 6.46875C12.6875 6.1875 14.7188 4.125 14.9688 1.5H14.75C12.3438 1.5 10.3125 3.0625 9.53125 5.1875C9.28125 4.65625 8.9375 4.15625 8.5625 3.71875C9.75 1.5 12.0625 0 14.75 0H15.5C16.0312 0 16.5 0.46875 16.5 1C16.5 4.5625 13.8438 7.5 10.4062 7.9375C10.3438 7.4375 10.25 6.96875 10.0938 6.46875ZM2 3.5V4C2 7.0625 4.4375 9.5 7.5 9.5H7.75V9C7.75 5.96875 5.28125 3.5 2.25 3.5H2ZM9.25 9V9.5V11V15.25C9.25 15.6875 8.90625 16 8.5 16C8.0625 16 7.75 15.6875 7.75 15.25V11H7.5C3.625 11 0.5 7.875 0.5 4V3C0.5 2.46875 0.9375 2 1.5 2H2.25C6.09375 2 9.25 5.15625 9.25 9Z" fill="url(#paint0_linear_786_1203)"/>
<defs>
<linearGradient id="paint0_linear_786_1203" x1="18.4009" y1="8" x2="0.0608392" y2="8" gradientUnits="userSpaceOnUse">
<stop offset="0.226488" stop-color="#F9774B"/>
<stop offset="0.547025" stop-color="#CF447B"/>
<stop offset="0.856046" stop-color="#5F38FB"/>
</linearGradient>
</defs>
</svg>
