<svg width="48" height="48" viewBox="0 0 48 48" fill="none" xmlns="http://www.w3.org/2000/svg">
<rect width="48" height="48" rx="24" fill="#000D3D"/>
<path d="M34.2111 23.164C34.3993 23.4457 34.4998 23.7771 34.4998 24.1158C34.4998 24.5703 34.3193 25.0061 33.998 25.3275C33.6767 25.6485 33.2409 25.8291 32.7865 25.8291C32.4476 25.8291 32.1164 25.7288 31.8346 25.5404C31.5529 25.3521 31.3334 25.0846 31.2037 24.7717C31.074 24.4585 31.0401 24.1141 31.1061 23.7816C31.1723 23.4493 31.3354 23.1441 31.5751 22.9045C31.8146 22.6649 32.1199 22.5018 32.4523 22.4355C32.7846 22.3695 33.1291 22.4034 33.4421 22.5332C33.7552 22.6628 34.0227 22.8824 34.2111 23.164Z" fill="white"/>
<path d="M34.2111 31.834C34.3993 32.1156 34.4998 32.447 34.4998 32.7857C34.4998 33.2402 34.3193 33.676 33.998 33.9974C33.6767 34.3185 33.2409 34.499 32.7865 34.499C32.4476 34.499 32.1164 34.3988 31.8346 34.2103C31.5529 34.0221 31.3334 33.7545 31.2037 33.4416C31.074 33.1284 31.0401 32.7841 31.1061 32.4515C31.1723 32.1192 31.3354 31.814 31.5751 31.5744C31.8146 31.3349 32.1199 31.1718 32.4523 31.1055C32.7846 31.0394 33.1291 31.0733 33.4421 31.2031C33.7552 31.3327 34.0227 31.5523 34.2111 31.834Z" fill="white"/>
<path d="M34.4994 13.4993H30.3877V17.6111H34.4994V13.4993Z" fill="white"/>
<path d="M25.6681 31.834C25.8563 32.1156 25.9569 32.447 25.9569 32.7857C25.9569 33.2402 25.7763 33.676 25.455 33.9974C25.1337 34.3185 24.6979 34.499 24.2436 34.499C23.9047 34.499 23.5735 34.3988 23.2917 34.2103C23.01 34.0221 22.7904 33.7545 22.6607 33.4416C22.531 33.1284 22.4971 32.7841 22.5632 32.4515C22.6293 32.1192 22.7924 31.814 23.0321 31.5744C23.2717 31.3349 23.5769 31.1718 23.9094 31.1055C24.2416 31.0394 24.5862 31.0733 24.8992 31.2031C25.2122 31.3327 25.4798 31.5523 25.6681 31.834Z" fill="white"/>
<path d="M26.2963 22.0599H22.1846V26.1716H26.2963V22.0599Z" fill="white"/>
<path d="M26.4134 13.4993H22.0732V17.8395H26.4134V13.4993Z" fill="white"/>
<path d="M18.0813 13.5042H13.5127V18.0728H18.0813V13.5042Z" fill="white"/>
<path d="M17.6127 30.389H13.501V34.5007H17.6127V30.389Z" fill="white"/>
<path d="M17.8411 21.9456H13.501V26.2858H17.8411V21.9456Z" fill="white"/>
</svg>
