<svg width="18" height="15" viewBox="0 0 18 15" fill="none" xmlns="http://www.w3.org/2000/svg">
<path d="M6.25 2.25L9 5.15625L11.7188 2.25H6.25ZM12.9688 3.125L10.7188 5.5H14.75L12.9688 3.125ZM14.5312 7H9H3.4375L9 13.1562L14.5312 7ZM3.21875 5.5H7.25L5 3.125L3.21875 5.5ZM16.7812 6.78125L9.53125 14.7812C9.40625 14.9375 9.1875 15 9 15C8.78125 15 8.5625 14.9375 8.4375 14.7812L1.1875 6.78125C0.9375 6.5 0.90625 6.09375 1.125 5.8125L4.625 1.0625C4.78125 0.875 5 0.75 5.25 0.75H12.75C12.9688 0.75 13.1875 0.875 13.3438 1.0625L16.8438 5.8125C17.0625 6.09375 17.0312 6.5 16.7812 6.78125Z" fill="white"/>
</svg>
