<svg width="32" height="32" viewBox="0 0 32 32" fill="none" xmlns="http://www.w3.org/2000/svg">
<rect width="32" height="32" rx="16" fill="white"/>
<g clip-path="url(#clip0_1399_7254)">
<path d="M22.16 16.146C22.16 15.691 22.1192 15.2535 22.0433 14.8335H16V17.3185H19.4533C19.3017 18.1177 18.8467 18.7943 18.1642 19.2493V20.8652H20.2467C21.46 19.7452 22.16 18.1002 22.16 16.146Z" fill="#4285F4"/>
<path d="M15.9998 22.4168C17.7323 22.4168 19.1848 21.8451 20.2465 20.8651L18.164 19.2493C17.5923 19.6343 16.8632 19.8676 15.9998 19.8676C14.3315 19.8676 12.914 18.7418 12.4065 17.2251H10.2715V18.8818C11.3273 20.9759 13.4915 22.4168 15.9998 22.4168Z" fill="#34A853"/>
<path d="M12.4073 17.2193C12.279 16.8343 12.2032 16.4259 12.2032 16.0001C12.2032 15.5743 12.279 15.1659 12.4073 14.7809V13.1243H10.2723C9.83482 13.9876 9.58398 14.9618 9.58398 16.0001C9.58398 17.0384 9.83482 18.0126 10.2723 18.8759L11.9348 17.5809L12.4073 17.2193Z" fill="#FBBC05"/>
<path d="M15.9998 12.1385C16.9448 12.1385 17.7848 12.4652 18.4557 13.0952L20.2932 11.2577C19.179 10.2193 17.7323 9.5835 15.9998 9.5835C13.4915 9.5835 11.3273 11.0243 10.2715 13.1243L12.4065 14.781C12.914 13.2643 14.3315 12.1385 15.9998 12.1385Z" fill="#EA4335"/>
</g>
<defs>
<clipPath id="clip0_1399_7254">
<rect width="14" height="14" fill="white" transform="translate(9 9)"/>
</clipPath>
</defs>
</svg>
