<svg width="24" height="24" viewBox="0 0 24 24" fill="none" xmlns="http://www.w3.org/2000/svg">
<path d="M15.5 17.4375C15.7188 17.4375 15.9375 17.2461 15.9375 17V9.125H13.75C13.2578 9.125 12.875 8.74219 12.875 8.25V6.0625H8.5C8.25391 6.0625 8.0625 6.28125 8.0625 6.5V17C8.0625 17.2461 8.25391 17.4375 8.5 17.4375H15.5ZM6.75 6.5C6.75 5.54297 7.51562 4.75 8.5 4.75H13.0117C13.4766 4.75 13.9141 4.94141 14.2422 5.26953L16.7305 7.75781C17.0586 8.08594 17.25 8.52344 17.25 8.98828V17C17.25 17.9844 16.457 18.75 15.5 18.75H8.5C7.51562 18.75 6.75 17.9844 6.75 17V6.5Z" fill="white"/>
</svg>
