<svg width="14" height="13" viewBox="0 0 14 13" fill="none" xmlns="http://www.w3.org/2000/svg">
<path d="M2.94531 0.5H4C5.94531 0.5 7.5625 2.11719 7.5625 4.0625V6.5C7.5625 6.82812 7.30469 7.0625 7 7.0625C6.67188 7.0625 6.4375 6.82812 6.4375 6.5V4.625H5.40625C3.57812 4.625 2.125 3.17188 2.125 1.34375C2.125 0.875 2.5 0.5 2.94531 0.5ZM4 1.625H3.25C3.39062 2.70312 4.30469 3.5 5.40625 3.5H6.36719C6.10938 2.44531 5.14844 1.625 4 1.625ZM4.11719 8.91406L2.24219 10.1562C2.14844 10.2266 2.03125 10.25 1.9375 10.25H0.8125C0.484375 10.25 0.25 10.0156 0.25 9.6875C0.25 9.38281 0.484375 9.125 0.8125 9.125H1.75L3.48438 7.97656C3.83594 7.76562 4.23438 7.625 4.63281 7.625H8.3125C9.13281 7.625 9.8125 8.30469 9.8125 9.125C9.8125 9.14844 9.8125 9.17188 9.8125 9.17188L11.3125 8.23438C11.5703 8.09375 11.8516 8 12.1562 8H12.3203C13.1172 8 13.75 8.63281 13.75 9.42969C13.75 9.89844 13.4922 10.3438 13.0938 10.6016L10.8438 12.0547C10.3984 12.3594 9.85938 12.5 9.32031 12.5H0.8125C0.484375 12.5 0.25 12.2656 0.25 11.9375C0.25 11.6328 0.484375 11.375 0.8125 11.375H9.32031C9.64844 11.375 9.97656 11.2812 10.2344 11.1172L12.4844 9.66406C12.5781 9.61719 12.625 9.52344 12.625 9.42969C12.625 9.26562 12.4844 9.125 12.3203 9.125H12.1562C12.0625 9.125 11.9922 9.14844 11.9219 9.19531L9.71875 10.5547C9.625 10.6016 9.53125 10.625 9.4375 10.625H8.3125H7.75H6.25C5.92188 10.625 5.6875 10.3906 5.6875 10.0625C5.6875 9.75781 5.92188 9.5 6.25 9.5H7.75H8.3125C8.5 9.5 8.6875 9.33594 8.6875 9.125C8.6875 8.9375 8.5 8.75 8.3125 8.75H4.63281C4.44531 8.75 4.25781 8.82031 4.11719 8.91406ZM8.57031 4.625H8.3125V4.0625C8.3125 3.875 8.28906 3.6875 8.26562 3.5H8.57031C9.67188 3.5 10.5859 2.70312 10.7266 1.625H10C9.20312 1.625 8.5 2.02344 8.05469 2.60938C7.91406 2.21094 7.72656 1.85938 7.49219 1.53125C8.125 0.898438 9.01562 0.5 10 0.5H11.0312C11.5 0.5 11.875 0.875 11.875 1.34375C11.875 3.17188 10.3984 4.625 8.57031 4.625Z" fill="white"/>
</svg>
