<svg width="18" height="15" viewBox="0 0 18 15" fill="none" xmlns="http://www.w3.org/2000/svg">
<path d="M3.28516 0.941406C3.53125 0.695312 3.94141 0.695312 4.1875 0.941406L6.59375 3.34766C6.86719 3.62109 6.86719 4.03125 6.59375 4.27734C6.34766 4.55078 5.9375 4.55078 5.69141 4.27734L4.40625 2.99219V10.5938C4.40625 11.6875 5.28125 12.5625 6.375 12.5625C7.44141 12.5625 8.34375 11.6875 8.34375 10.5938V4.90625C8.34375 3.10156 9.79297 1.625 11.625 1.625C13.4297 1.625 14.9062 3.10156 14.9062 4.90625V12.5352L16.1914 11.25C16.4375 10.9766 16.8477 10.9766 17.0938 11.25C17.3672 11.4961 17.3672 11.9062 17.0938 12.1523L14.6875 14.5586C14.4414 14.832 14.0312 14.832 13.7852 14.5586L11.3789 12.1523C11.1055 11.9062 11.1055 11.4961 11.3789 11.25C11.625 10.9766 12.0352 10.9766 12.2812 11.25L13.5664 12.5352V4.90625C13.5664 3.83984 12.6914 2.9375 11.5977 2.9375C10.5312 2.9375 9.62891 3.83984 9.62891 4.90625V10.5938C9.62891 12.4258 8.17969 13.875 6.34766 13.875C4.54297 13.875 3.06641 12.4258 3.06641 10.5938V2.99219L1.80859 4.27734C1.53516 4.55078 1.125 4.55078 0.878906 4.27734C0.605469 4.03125 0.605469 3.62109 0.878906 3.375L3.28516 0.941406Z" fill="white"/>
</svg>
