<svg width="140" height="140" viewBox="0 0 140 140" fill="none" xmlns="http://www.w3.org/2000/svg">
<path d="M46.3113 80.7784C65.2608 80.7784 80.6225 65.4167 80.6225 46.4671C80.6225 27.5176 65.2608 12.1559 46.3113 12.1559C27.3617 12.1559 12 27.5176 12 46.4671C12 65.4167 27.3617 80.7784 46.3113 80.7784Z" fill="#30239B"/>
<g filter="url(#filter0_bd_2740_8186)">
<path d="M46.3118 69.6361C59.1077 69.6361 69.4809 59.2629 69.4809 46.4669C69.4809 33.6709 59.1077 23.2977 46.3118 23.2977C33.5158 23.2977 23.1426 33.6709 23.1426 46.4669C23.1426 59.2629 33.5158 69.6361 46.3118 69.6361Z" fill="url(#paint0_linear_2740_8186)" shape-rendering="crispEdges"/>
<path d="M69.0271 46.4669C69.0271 59.0122 58.8571 69.1822 46.3118 69.1822C33.7664 69.1822 23.5964 59.0122 23.5964 46.4669C23.5964 33.9216 33.7664 23.7516 46.3118 23.7516C58.8571 23.7516 69.0271 33.9216 69.0271 46.4669Z" stroke="url(#paint1_linear_2740_8186)" stroke-width="0.907705" shape-rendering="crispEdges"/>
</g>
<path d="M57.2844 51.0171H45.2233C43.6575 51.0171 42.3867 49.7463 42.3867 48.1805V36.1194C42.3867 34.5536 43.6575 33.2828 45.2233 33.2828C46.7891 33.2828 48.0599 34.5536 48.0599 36.1194V45.344H57.2844C58.8502 45.344 60.121 46.6148 60.121 48.1805C60.121 49.7463 58.8502 51.0171 57.2844 51.0171Z" fill="#30239B"/>
<g filter="url(#filter1_bd_2740_8186)">
<mask id="path-5-inside-1_2740_8186" fill="white">
<path fill-rule="evenodd" clip-rule="evenodd" d="M73.3029 53.2635C66.8006 53.2635 61.5254 58.5388 61.5254 65.041V68.047C57.5194 68.6394 54.4453 72.0921 54.4453 76.2628V85.4987C54.4453 90.0857 58.1638 93.8042 62.7508 93.8042H85.6931C90.2801 93.8042 93.9986 90.0857 93.9986 85.4987V76.2628C93.9986 71.6757 90.2801 67.9572 85.6931 67.9572H67.1985V65.041C67.1985 61.672 69.9338 58.9367 73.3029 58.9367C75.1422 58.9367 76.7901 59.7527 77.9112 61.0451L77.9112 61.0451L77.9175 61.0523C78.4481 61.6598 78.8579 62.3774 79.1138 63.1684C79.596 64.6589 81.1952 65.4763 82.6858 64.9941C84.1763 64.5118 84.9937 62.9126 84.5114 61.4221C84.019 59.8999 83.2271 58.5084 82.1935 57.3239C80.0469 54.8514 76.8626 53.2635 73.3029 53.2635ZM60.1185 76.2628C60.1185 74.8089 61.297 73.6304 62.7508 73.6304H85.6931C87.1469 73.6304 88.3254 74.8089 88.3254 76.2628V85.4987C88.3254 86.9525 87.1469 88.131 85.6931 88.131H62.7508C61.297 88.131 60.1185 86.9525 60.1185 85.4987V76.2628Z"/>
</mask>
<path fill-rule="evenodd" clip-rule="evenodd" d="M73.3029 53.2635C66.8006 53.2635 61.5254 58.5388 61.5254 65.041V68.047C57.5194 68.6394 54.4453 72.0921 54.4453 76.2628V85.4987C54.4453 90.0857 58.1638 93.8042 62.7508 93.8042H85.6931C90.2801 93.8042 93.9986 90.0857 93.9986 85.4987V76.2628C93.9986 71.6757 90.2801 67.9572 85.6931 67.9572H67.1985V65.041C67.1985 61.672 69.9338 58.9367 73.3029 58.9367C75.1422 58.9367 76.7901 59.7527 77.9112 61.0451L77.9112 61.0451L77.9175 61.0523C78.4481 61.6598 78.8579 62.3774 79.1138 63.1684C79.596 64.6589 81.1952 65.4763 82.6858 64.9941C84.1763 64.5118 84.9937 62.9126 84.5114 61.4221C84.019 59.8999 83.2271 58.5084 82.1935 57.3239C80.0469 54.8514 76.8626 53.2635 73.3029 53.2635ZM60.1185 76.2628C60.1185 74.8089 61.297 73.6304 62.7508 73.6304H85.6931C87.1469 73.6304 88.3254 74.8089 88.3254 76.2628V85.4987C88.3254 86.9525 87.1469 88.131 85.6931 88.131H62.7508C61.297 88.131 60.1185 86.9525 60.1185 85.4987V76.2628Z" fill="url(#paint2_linear_2740_8186)" shape-rendering="crispEdges"/>
<path d="M61.5254 68.047L61.6582 68.945L62.4331 68.8304V68.047H61.5254ZM67.1985 67.9572H66.2908V68.865H67.1985V67.9572ZM77.9112 61.0451L78.5246 61.7142L79.1756 61.1174L78.5969 60.4503L77.9112 61.0451ZM77.9112 61.0451L77.2978 60.376L76.6446 60.9747L77.2275 61.6421L77.9112 61.0451ZM77.9175 61.0523L77.2338 61.6494L77.2338 61.6494L77.9175 61.0523ZM79.1138 63.1684L78.2501 63.4478L78.2501 63.4478L79.1138 63.1684ZM82.6858 64.9941L82.4063 64.1304L82.6858 64.9941ZM84.5114 61.4221L83.6478 61.7015L83.6478 61.7015L84.5114 61.4221ZM82.1935 57.3239L81.508 57.919L81.5096 57.9208L82.1935 57.3239ZM62.4331 65.041C62.4331 59.0401 67.3019 54.1713 73.3029 54.1713V52.3558C66.2993 52.3558 60.6177 58.0375 60.6177 65.041H62.4331ZM62.4331 68.047V65.041H60.6177V68.047H62.4331ZM55.353 76.2628C55.353 72.5487 58.0908 69.4725 61.6582 68.945L61.3926 67.1491C56.948 67.8064 53.5376 71.6355 53.5376 76.2628H55.353ZM55.353 85.4987V76.2628H53.5376V85.4987H55.353ZM62.7508 92.8965C58.6651 92.8965 55.353 89.5843 55.353 85.4987H53.5376C53.5376 90.587 57.6625 94.7119 62.7508 94.7119V92.8965ZM85.6931 92.8965H62.7508V94.7119H85.6931V92.8965ZM93.0909 85.4987C93.0909 89.5843 89.7788 92.8965 85.6931 92.8965V94.7119C90.7814 94.7119 94.9063 90.587 94.9063 85.4987H93.0909ZM93.0909 76.2628V85.4987H94.9063V76.2628H93.0909ZM85.6931 68.865C89.7788 68.865 93.0909 72.1771 93.0909 76.2628H94.9063C94.9063 71.1744 90.7814 67.0495 85.6931 67.0495V68.865ZM67.1985 68.865H85.6931V67.0495H67.1985V68.865ZM66.2908 65.041V67.9572H68.1063V65.041H66.2908ZM73.3029 58.029C69.4325 58.029 66.2908 61.1707 66.2908 65.041H68.1063C68.1063 62.1733 70.4351 59.8444 73.3029 59.8444V58.029ZM78.5969 60.4503C77.3114 58.9684 75.4173 58.029 73.3029 58.029V59.8444C74.8671 59.8444 76.2688 60.537 77.2255 61.6399L78.5969 60.4503ZM78.5245 61.7142L78.5246 61.7142L77.2978 60.376L77.2978 60.376L78.5245 61.7142ZM78.6012 60.4552L78.5949 60.448L77.2275 61.6421L77.2338 61.6494L78.6012 60.4552ZM79.9774 62.889C79.6836 61.9808 79.2125 61.1551 78.6012 60.4552L77.2338 61.6494C77.6837 62.1645 78.0321 62.7741 78.2501 63.4478L79.9774 62.889ZM82.4063 64.1304C81.3928 64.4583 80.3053 63.9025 79.9774 62.889L78.2501 63.4478C78.8867 65.4153 80.9977 66.4942 82.9652 65.8577L82.4063 64.1304ZM83.6478 61.7015C83.9757 62.715 83.4199 63.8025 82.4063 64.1304L82.9652 65.8577C84.9327 65.2211 86.0116 63.1102 85.3751 61.1426L83.6478 61.7015ZM81.5096 57.9208C82.4626 59.0128 83.1932 60.2964 83.6478 61.7015L85.3751 61.1426C84.8447 59.5034 83.9916 58.0039 82.8774 56.7271L81.5096 57.9208ZM73.3029 54.1713C76.587 54.1713 79.5254 55.6353 81.508 57.919L82.8789 56.7289C80.5684 54.0675 77.1383 52.3558 73.3029 52.3558V54.1713ZM62.7508 72.7227C60.7957 72.7227 59.2108 74.3076 59.2108 76.2628H61.0262C61.0262 75.3103 61.7983 74.5381 62.7508 74.5381V72.7227ZM85.6931 72.7227H62.7508V74.5381H85.6931V72.7227ZM89.2331 76.2628C89.2331 74.3076 87.6482 72.7227 85.6931 72.7227V74.5381C86.6456 74.5381 87.4177 75.3103 87.4177 76.2628H89.2331ZM89.2331 85.4987V76.2628H87.4177V85.4987H89.2331ZM85.6931 89.0387C87.6482 89.0387 89.2331 87.4538 89.2331 85.4987H87.4177C87.4177 86.4511 86.6456 87.2233 85.6931 87.2233V89.0387ZM62.7508 89.0387H85.6931V87.2233H62.7508V89.0387ZM59.2108 85.4987C59.2108 87.4538 60.7957 89.0387 62.7508 89.0387V87.2233C61.7983 87.2233 61.0262 86.4511 61.0262 85.4987H59.2108ZM59.2108 76.2628V85.4987H61.0262V76.2628H59.2108Z" fill="url(#paint3_linear_2740_8186)" mask="url(#path-5-inside-1_2740_8186)"/>
</g>
<defs>
<filter id="filter0_bd_2740_8186" x="0.449949" y="0.605101" width="114.416" height="114.416" filterUnits="userSpaceOnUse" color-interpolation-filters="sRGB">
<feFlood flood-opacity="0" result="BackgroundImageFix"/>
<feGaussianBlur in="BackgroundImageFix" stdDeviation="2.26926"/>
<feComposite in2="SourceAlpha" operator="in" result="effect1_backgroundBlur_2740_8186"/>
<feColorMatrix in="SourceAlpha" type="matrix" values="0 0 0 0 0 0 0 0 0 0 0 0 0 0 0 0 0 0 127 0" result="hardAlpha"/>
<feOffset dx="11.3463" dy="11.3463"/>
<feGaussianBlur stdDeviation="17.0195"/>
<feComposite in2="hardAlpha" operator="out"/>
<feColorMatrix type="matrix" values="0 0 0 0 0.00392157 0 0 0 0 0.054902 0 0 0 0 0.243137 0 0 0 0.14 0"/>
<feBlend mode="normal" in2="effect1_backgroundBlur_2740_8186" result="effect2_dropShadow_2740_8186"/>
<feBlend mode="normal" in="SourceGraphic" in2="effect2_dropShadow_2740_8186" result="shape"/>
</filter>
<filter id="filter1_bd_2740_8186" x="31.7527" y="30.5709" width="107.632" height="108.618" filterUnits="userSpaceOnUse" color-interpolation-filters="sRGB">
<feFlood flood-opacity="0" result="BackgroundImageFix"/>
<feGaussianBlur in="BackgroundImageFix" stdDeviation="2.26926"/>
<feComposite in2="SourceAlpha" operator="in" result="effect1_backgroundBlur_2740_8186"/>
<feColorMatrix in="SourceAlpha" type="matrix" values="0 0 0 0 0 0 0 0 0 0 0 0 0 0 0 0 0 0 127 0" result="hardAlpha"/>
<feOffset dx="11.3463" dy="11.3463"/>
<feGaussianBlur stdDeviation="17.0195"/>
<feComposite in2="hardAlpha" operator="out"/>
<feColorMatrix type="matrix" values="0 0 0 0 0.00392157 0 0 0 0 0.054902 0 0 0 0 0.243137 0 0 0 0.14 0"/>
<feBlend mode="normal" in2="effect1_backgroundBlur_2740_8186" result="effect2_dropShadow_2740_8186"/>
<feBlend mode="normal" in="SourceGraphic" in2="effect2_dropShadow_2740_8186" result="shape"/>
</filter>
<linearGradient id="paint0_linear_2740_8186" x1="-13.8273" y1="1.00101" x2="152.444" y2="30.7523" gradientUnits="userSpaceOnUse">
<stop stop-color="#8566FF" stop-opacity="0.7"/>
<stop offset="0.394001" stop-color="#8566FF" stop-opacity="0.7"/>
<stop offset="0.577136" stop-color="#5D34FF" stop-opacity="0.5"/>
<stop offset="0.752365" stop-color="#5D34FF" stop-opacity="0.3"/>
</linearGradient>
<linearGradient id="paint1_linear_2740_8186" x1="10.5509" y1="17.9047" x2="75.0953" y2="71.6955" gradientUnits="userSpaceOnUse">
<stop offset="0.260545" stop-color="#AF9BFD"/>
<stop offset="0.56731" stop-color="#5F38FB" stop-opacity="0"/>
<stop offset="0.847569" stop-color="#6C47FF"/>
</linearGradient>
<linearGradient id="paint2_linear_2740_8186" x1="49.9652" y1="46.31" x2="98.488" y2="96.8849" gradientUnits="userSpaceOnUse">
<stop offset="0.129418" stop-color="#FFA485" stop-opacity="0.9"/>
<stop offset="0.408113" stop-color="#FF7445" stop-opacity="0.8"/>
<stop offset="0.85239" stop-color="#FF7445" stop-opacity="0.5"/>
</linearGradient>
<linearGradient id="paint3_linear_2740_8186" x1="54.4453" y1="48.5462" x2="94.0509" y2="94.5399" gradientUnits="userSpaceOnUse">
<stop offset="0.238491" stop-color="#FDCBBA"/>
<stop offset="0.491823" stop-color="#F9774B" stop-opacity="0"/>
<stop offset="0.855406" stop-color="#F86A3A"/>
</linearGradient>
</defs>
</svg>
