<svg width="32" height="32" viewBox="0 0 32 32" fill="none" xmlns="http://www.w3.org/2000/svg">
<rect width="32" height="32" rx="16" fill="white" fill-opacity="0.2"/>
<path d="M16.75 8.75V17.2188L19.7188 14.25C20 13.9375 20.4688 13.9375 20.7812 14.25C21.0625 14.5312 21.0625 15 20.7812 15.2812L16.5 19.5312C16.2188 19.8438 15.75 19.8438 15.4688 19.5312L11.2188 15.2812C10.9062 15 10.9062 14.5312 11.2188 14.25C11.5 13.9375 11.9688 13.9375 12.2812 14.25L15.25 17.2188V8.75C15.25 8.34375 15.5625 8 16 8C16.4062 8 16.75 8.34375 16.75 8.75ZM12 17.5L13.5 19H10C9.71875 19 9.5 19.25 9.5 19.5V22C9.5 22.2812 9.71875 22.5 10 22.5H22C22.25 22.5 22.5 22.2812 22.5 22V19.5C22.5 19.25 22.25 19 22 19H18.4688L19.9688 17.5H22C23.0938 17.5 24 18.4062 24 19.5V22C24 23.125 23.0938 24 22 24H10C8.875 24 8 23.125 8 22V19.5C8 18.4062 8.875 17.5 10 17.5H12ZM21.5 20.75C21.5 21.1875 21.1562 21.5 20.75 21.5C20.3125 21.5 20 21.1875 20 20.75C20 20.3438 20.3125 20 20.75 20C21.1562 20 21.5 20.3438 21.5 20.75Z" fill="white"/>
</svg>
