<svg width="24" height="24" viewBox="0 0 24 24" fill="none" xmlns="http://www.w3.org/2000/svg">
<g clip-path="url(#clip0_2567_7251)">
<path d="M2.90905 4.14744C3.06265 3.96504 3.21625 3.78264 3.36985 3.60024C3.37945 3.59064 3.38905 3.59064 3.39865 3.58104C3.41785 3.56184 3.43705 3.55224 3.44665 3.53304L3.45625 3.51384C3.56185 3.40824 3.68665 3.30264 3.82105 3.20664C4.30105 2.84184 4.79065 2.56344 5.31865 2.39064C6.99865 1.80504 8.86105 2.16024 10.3299 3.54264C12.3747 5.46264 12.1923 8.54424 10.5603 10.5986C8.49625 13.661 4.95385 17.9234 9.85945 21.7442C10.7427 22.4354 11.3955 23.0018 14.1795 23.7986C12.3651 24.1346 10.6755 24.029 8.80345 23.549C7.47865 22.8002 5.39545 21.197 4.67545 19.0274C3.60025 15.7442 6.56665 10.829 7.99705 8.93784C9.96505 6.31704 6.77785 3.48504 4.44505 6.65304C3.21625 8.30424 1.08505 12.9698 1.82425 16.4258C2.25625 18.3842 2.84185 19.8146 5.13625 21.7826C4.71385 21.533 4.29145 21.245 3.89785 20.9282C-1.43975 15.9554 -0.825348 8.25624 2.90905 4.13784V4.14744Z" fill="url(#paint0_linear_2567_7251)"/>
<path d="M21.0913 19.8529C20.9377 20.0353 20.7841 20.2177 20.6305 20.4001C20.6209 20.4097 20.6113 20.4097 20.6017 20.4193C20.5921 20.4385 20.5633 20.4481 20.5537 20.4673L20.5345 20.4865C20.4289 20.5921 20.3041 20.6977 20.1697 20.7937C19.6897 21.1585 19.1905 21.4369 18.6721 21.6097C16.9921 22.1953 15.1297 21.8401 13.6609 20.4577C11.6161 18.5377 11.7985 15.4561 13.4305 13.4017C15.4945 10.3393 19.0369 6.0769 14.1313 2.2561C13.2481 1.5649 12.5953 0.998498 9.81128 0.201698C11.6257 -0.134302 13.3153 -0.0287019 15.1873 0.451298C16.5121 1.2001 18.5953 2.8033 19.3153 4.9729C20.3905 8.2561 17.4241 13.1713 15.9937 15.0625C14.0257 17.6833 17.2129 20.5153 19.5457 17.3473C20.7745 15.6961 22.9057 11.0305 22.1665 7.5745C21.7345 5.6161 21.1489 4.1857 18.8545 2.2177C19.2769 2.4673 19.6993 2.7553 20.0929 3.0721C25.4305 8.0449 24.8161 15.7441 21.0817 19.8625L21.0913 19.8529Z" fill="url(#paint1_linear_2567_7251)"/>
</g>
<defs>
<linearGradient id="paint0_linear_2567_7251" x1="1.30585" y1="13.057" x2="22.8579" y2="13.057" gradientUnits="userSpaceOnUse">
<stop stop-color="#0082FA"/>
<stop offset="1" stop-color="#00F2FE"/>
</linearGradient>
<linearGradient id="paint1_linear_2567_7251" x1="0.902479" y1="10.9433" x2="22.4545" y2="10.9433" gradientUnits="userSpaceOnUse">
<stop stop-color="#0082FA"/>
<stop offset="1" stop-color="#00F2FE"/>
</linearGradient>
<clipPath id="clip0_2567_7251">
<rect width="24" height="24" fill="white"/>
</clipPath>
</defs>
</svg>
