<svg width="24" height="24" viewBox="0 0 24 24" fill="none" xmlns="http://www.w3.org/2000/svg">
<path d="M14.1875 6.0625C13.2305 6.0625 12.3828 6.58203 11.8906 7.375C11.4258 8.19531 11.4258 9.20703 11.8906 10C12.3828 10.8203 13.2305 11.3125 14.1875 11.3125C15.1172 11.3125 15.9648 10.8203 16.457 10C16.9219 9.20703 16.9219 8.19531 16.457 7.375C15.9648 6.58203 15.1172 6.0625 14.1875 6.0625ZM14.1875 12.625C13.3125 12.625 12.5469 12.3789 11.8906 11.9141L9.18359 14.5938L10.4688 15.8789C10.7422 16.1523 10.7422 16.5625 10.4688 16.8086C10.2227 17.082 9.8125 17.082 9.56641 16.8086L8.28125 15.5234L7.43359 16.3438L8.71875 17.6289C8.99219 17.9023 8.99219 18.3125 8.71875 18.5586C8.47266 18.832 8.0625 18.832 7.81641 18.5586L6.06641 16.8086C5.79297 16.5625 5.79297 16.1523 6.06641 15.8789L10.9609 10.9844C10.4961 10.3281 10.25 9.5625 10.25 8.6875C10.25 6.52734 12 4.75 14.1875 4.75C16.3477 4.75 18.125 6.52734 18.125 8.6875C18.125 10.875 16.3477 12.625 14.1875 12.625Z" fill="white"/>
</svg>
