<svg width="24" height="24" viewBox="0 0 24 24" fill="none" xmlns="http://www.w3.org/2000/svg">
<path d="M4 6H10.5H11.5H12H20C21.0938 6 22 6.90625 22 8V16C22 17.125 21.0938 18 20 18H12H11.5H10.5H4C2.875 18 2 17.125 2 16V8C2 6.90625 2.875 6 4 6ZM20 7.5H12V16.5H20C20.25 16.5 20.5 16.2812 20.5 16V8C20.5 7.75 20.25 7.5 20 7.5ZM7.5625 9.5C7.46875 9.28125 7.21875 9.125 7 9.125C6.75 9.125 6.5 9.28125 6.40625 9.5L4.40625 14C4.28125 14.3125 4.40625 14.6875 4.71875 14.8438C5.0625 14.9688 5.40625 14.8438 5.5625 14.5312L5.84375 13.875H8.125L8.40625 14.5312C8.5625 14.8438 8.9375 14.9688 9.25 14.8438C9.5625 14.6875 9.6875 14.3125 9.5625 14L7.5625 9.5ZM7.59375 12.625H6.40625L7 11.3125L7.59375 12.625ZM16.25 9.125C16.5938 9.125 16.875 9.40625 16.875 9.75V9.875H18.25H18.75C19.0938 9.875 19.375 10.1562 19.375 10.5C19.375 10.8438 19.0938 11.125 18.75 11.125H18.6875L18.625 11.2812C18.3438 12.0312 17.9062 12.75 17.375 13.3125C17.4062 13.3438 17.4375 13.3438 17.4688 13.375L18.0625 13.7188C18.3438 13.9062 18.4375 14.2812 18.2812 14.5938C18.0938 14.875 17.7188 14.9688 17.4062 14.8125L16.8125 14.4375C16.6875 14.375 16.5625 14.2812 16.4062 14.1875C16.0938 14.4062 15.7188 14.625 15.3438 14.7812L15.25 14.8438C14.9375 14.9688 14.5625 14.8438 14.4062 14.5312C14.2812 14.1875 14.4062 13.8438 14.7188 13.6875L14.8438 13.6562C15.0312 13.5625 15.25 13.4375 15.4375 13.3438L15.0312 12.9688C14.8125 12.7188 14.8125 12.3125 15.0312 12.0625C15.2812 11.8438 15.6875 11.8438 15.9375 12.0625L16.375 12.5312H16.4062C16.7812 12.125 17.0938 11.6562 17.3438 11.125H16.25H14C13.6562 11.125 13.375 10.8438 13.375 10.5C13.375 10.1562 13.6562 9.875 14 9.875H15.625V9.75C15.625 9.40625 15.9062 9.125 16.25 9.125Z" fill="white"/>
</svg>
