<svg width="110" height="18" viewBox="0 0 110 18" fill="none" xmlns="http://www.w3.org/2000/svg">
<path d="M109.498 4.98663H107.159V17.7123H109.498V4.98663Z" fill="white"/>
<path d="M82.9519 17.7123V10.5545C82.9519 8.52345 81.4374 6.9919 79.4289 6.9919C77.7125 6.9919 75.9751 8.3022 75.9751 10.8066V17.7123H73.635V0.546502L75.9751 0.537964C75.9751 0.537964 75.9672 6.05415 75.9751 6.04751C76.2884 5.7833 77.5027 4.70441 79.9072 4.70441C82.8392 4.70441 85.3163 7.15149 85.3163 10.048V17.7123H82.9519Z" fill="white"/>
<path d="M109.498 0.53772H107.159V2.87652H109.498V0.53772Z" fill="white"/>
<path d="M90.0221 15.361H87.6707V17.7123H90.0221V15.361Z" fill="white"/>
<path d="M17.8801 8.18818C18.0381 8.42453 18.1224 8.70255 18.1224 8.98679C18.1224 9.36812 17.9709 9.73379 17.7013 10.0035C17.4317 10.2729 17.0661 10.4244 16.6848 10.4244C16.4005 10.4244 16.1226 10.3402 15.8861 10.1821C15.6498 10.0242 15.4655 9.79966 15.3567 9.5371C15.2478 9.27434 15.2194 8.98538 15.2749 8.70636C15.3304 8.42754 15.4672 8.17141 15.6683 7.9704C15.8693 7.76939 16.1255 7.63254 16.4044 7.57692C16.6832 7.52149 16.9723 7.54991 17.2349 7.65885C17.4976 7.76758 17.7221 7.95183 17.8801 8.18818Z" fill="white"/>
<path d="M17.8801 15.4634C18.0381 15.6998 18.1224 15.9778 18.1224 16.2621C18.1224 16.6434 17.9709 17.0091 17.7013 17.2787C17.4317 17.5481 17.0661 17.6996 16.6848 17.6996C16.4005 17.6996 16.1226 17.6155 15.8861 17.4574C15.6498 17.2994 15.4655 17.0749 15.3567 16.8124C15.2478 16.5496 15.2194 16.2607 15.2749 15.9816C15.3304 15.7028 15.4672 15.4467 15.6683 15.2457C15.8693 15.0447 16.1255 14.9078 16.4044 14.8522C16.6832 14.7968 16.9723 14.8252 17.2349 14.9341C17.4976 15.0429 17.7221 15.2271 17.8801 15.4634Z" fill="white"/>
<path d="M18.1225 0.0791016H14.6724V3.52916H18.1225V0.0791016Z" fill="white"/>
<path d="M10.7106 15.4634C10.8686 15.6998 10.9529 15.9778 10.9529 16.2621C10.9529 16.6434 10.8014 17.0091 10.5318 17.2787C10.2622 17.5481 9.89657 17.6996 9.51534 17.6996C9.23099 17.6996 8.95307 17.6155 8.71662 17.4574C8.48027 17.2994 8.29603 17.0749 8.18719 16.8124C8.07835 16.5496 8.04994 16.2607 8.10536 15.9816C8.16089 15.7028 8.29774 15.4467 8.49885 15.2457C8.69986 15.0447 8.95599 14.9078 9.23491 14.8522C9.51373 14.7968 9.8028 14.8252 10.0655 14.9341C10.3281 15.0429 10.5526 15.2271 10.7106 15.4634Z" fill="white"/>
<path d="M11.2404 7.26184H7.79034V10.7119H11.2404V7.26184Z" fill="white"/>
<path d="M11.3363 0.0791016H7.69458V3.72083H11.3363V0.0791016Z" fill="white"/>
<path d="M4.34652 0.0823975H0.513123V3.91579H4.34652V0.0823975Z" fill="white"/>
<path d="M3.95195 14.2496H0.501892V17.6997H3.95195V14.2496Z" fill="white"/>
<path d="M4.14362 7.16595H0.501892V10.8077H4.14362V7.16595Z" fill="white"/>
<path d="M32.6052 2.16424C33.6335 2.17637 34.0443 2.93289 34.0443 2.93289L35.5279 1.44928L35.5261 1.4487L35.5307 1.44407C34.6745 0.51173 33.6225 0 32.5484 0C31.5045 0 30.6411 0.333665 29.9826 0.991559C29.3246 1.65044 28.991 2.50612 28.991 3.53506V4.98664H26.9932V6.99752H28.9887V17.7123H31.3291V6.99752H35.5228V4.98664H31.3331V3.53506C31.3331 2.69713 31.7835 2.21528 32.6052 2.16424Z" fill="white"/>
<path d="M66.7914 15.699C64.263 15.699 62.428 13.8749 62.428 11.3617C62.428 8.88843 64.3193 7.02339 66.8274 7.02339C68.2142 7.02339 69.302 7.82386 69.7724 8.23804L71.3701 6.64044C70.9114 6.1931 69.2006 4.70715 66.7152 4.70715C62.9709 4.70715 60.0378 7.63015 60.0378 11.3617C60.0378 15.0778 62.9715 17.9888 66.7165 17.9888C69.1064 17.9888 70.7182 16.683 71.3615 16.047L69.8063 14.4917C69.2329 15.0269 68.2278 15.699 66.7914 15.699Z" fill="white"/>
<path d="M56.0427 15.8314C55.2637 15.8314 54.6697 15.3051 54.6697 13.7842V7.00222H58.8649V4.99134H54.6697V2.39355H52.3307V13.7842C52.3307 16.6634 53.6581 17.9704 56.0122 17.9704C56.8866 17.9704 57.9652 17.6261 58.9068 16.8418L57.4326 15.3676C57.0623 15.6675 56.5648 15.8314 56.0427 15.8314Z" fill="white"/>
<path d="M43.3663 15.648C41.0915 15.648 39.4504 13.9787 39.1218 12.2547H48.5463V12.2512H49.9136C49.9535 11.9563 49.976 11.6557 49.976 11.3497C49.976 7.6768 46.9986 4.69934 43.3257 4.69934C39.6528 4.69934 36.6754 7.6768 36.6754 11.3497C36.6754 15.0225 39.6528 18 43.3257 18C45.531 18 47.3504 17.2099 48.6031 15.9841L47.1456 14.3425C46.1349 15.232 44.8635 15.648 43.3663 15.648ZM43.3663 7.00437C45.4848 7.00437 47.0328 8.46598 47.4799 10.2427H39.1684C39.6485 8.39484 41.2304 7.00437 43.3663 7.00437Z" fill="white"/>
<path d="M101.939 4.98667L101.938 6.36518C101.938 6.36518 100.406 4.70441 97.7099 4.70441C94.0517 4.70441 91.0754 7.65284 91.0754 11.277C91.0754 15.0372 93.9457 17.9827 97.61 17.9827C100.663 17.9827 101.945 16.3109 101.945 16.3109L101.94 17.7123H104.279V4.98667H101.939ZM97.9161 15.6891C97.8404 15.6931 97.7644 15.6952 97.6876 15.6952C96.4878 15.6952 95.3997 15.207 94.6116 14.4187C93.8192 13.6305 93.329 12.5414 93.329 11.3384C93.329 8.93264 95.2893 6.98237 97.7076 6.98237C100.126 6.98237 102.086 8.93264 102.086 11.3384C102.086 13.6745 100.237 15.5808 97.9161 15.6891Z" fill="white"/>
</svg>
