<svg width="110" height="18" viewBox="0 0 110 18" fill="none" xmlns="http://www.w3.org/2000/svg">
<path d="M109.499 4.98682H107.16V17.7124H109.499V4.98682Z" fill="white"/>
<path d="M82.9517 17.7124V10.5546C82.9517 8.52357 81.4371 6.99202 79.4286 6.99202C77.7122 6.99202 75.9748 8.30232 75.9748 10.8067V17.7124H73.6348V0.546624L75.9748 0.538086C75.9748 0.538086 75.9669 6.05427 75.9748 6.04763C76.2881 5.78342 77.5025 4.70453 79.9069 4.70453C82.839 4.70453 85.316 7.15162 85.316 10.0481V17.7124H82.9517Z" fill="white"/>
<path d="M109.499 0.537598H107.16V2.87639H109.499V0.537598Z" fill="white"/>
<path d="M90.0213 15.3611H87.6699V17.7124H90.0213V15.3611Z" fill="white"/>
<path d="M17.8809 8.18818C18.0389 8.42453 18.1232 8.70255 18.1232 8.98679C18.1232 9.36812 17.9717 9.73379 17.7021 10.0035C17.4325 10.2729 17.0669 10.4244 16.6856 10.4244C16.4013 10.4244 16.1234 10.3402 15.8869 10.1821C15.6506 10.0242 15.4663 9.79966 15.3575 9.5371C15.2486 9.27434 15.2202 8.98538 15.2757 8.70636C15.3312 8.42754 15.468 8.17141 15.6691 7.9704C15.8701 7.76939 16.1263 7.63254 16.4052 7.57692C16.684 7.52149 16.9731 7.54991 17.2357 7.65885C17.4984 7.76758 17.7229 7.95183 17.8809 8.18818Z" fill="white"/>
<path d="M17.8809 15.4636C18.0389 15.6999 18.1232 15.9779 18.1232 16.2622C18.1232 16.6435 17.9717 17.0092 17.7021 17.2789C17.4325 17.5483 17.0669 17.6998 16.6856 17.6998C16.4013 17.6998 16.1234 17.6156 15.8869 17.4575C15.6506 17.2996 15.4663 17.075 15.3575 16.8125C15.2486 16.5497 15.2202 16.2608 15.2757 15.9818C15.3312 15.7029 15.468 15.4468 15.6691 15.2458C15.8701 15.0448 16.1263 14.9079 16.4052 14.8523C16.684 14.7969 16.9731 14.8253 17.2357 14.9342C17.4984 15.043 17.7229 15.2272 17.8809 15.4636Z" fill="white"/>
<path d="M18.1219 0.0791016H14.6719V3.52916H18.1219V0.0791016Z" fill="white"/>
<path d="M10.711 15.4636C10.8689 15.6999 10.9533 15.9779 10.9533 16.2622C10.9533 16.6435 10.8018 17.0092 10.5322 17.2789C10.2626 17.5483 9.89693 17.6998 9.5157 17.6998C9.23136 17.6998 8.95344 17.6156 8.71699 17.4575C8.48064 17.2996 8.2964 17.075 8.18756 16.8125C8.07872 16.5497 8.05031 16.2608 8.10573 15.9818C8.16125 15.7029 8.2981 15.4468 8.49921 15.2458C8.70022 15.0448 8.95635 14.9079 9.23527 14.8523C9.5141 14.7969 9.80316 14.8253 10.0658 14.9342C10.3285 15.043 10.553 15.2272 10.711 15.4636Z" fill="white"/>
<path d="M11.2411 7.26196H7.79102V10.712H11.2411V7.26196Z" fill="white"/>
<path d="M11.337 0.0791016H7.69531V3.72083H11.337V0.0791016Z" fill="white"/>
<path d="M4.34707 0.0825195H0.513672V3.91592H4.34707V0.0825195Z" fill="white"/>
<path d="M3.95201 14.2495H0.501953V17.6996H3.95201V14.2495Z" fill="white"/>
<path d="M4.14368 7.16602H0.501953V10.8077H4.14368V7.16602Z" fill="white"/>
<path d="M32.6061 2.16424C33.6345 2.17637 34.0452 2.93289 34.0452 2.93289L35.5289 1.44928L35.5271 1.4487L35.5317 1.44407C34.6754 0.51173 33.6235 0 32.5493 0C31.5055 0 30.6421 0.333665 29.9836 0.991559C29.3256 1.65044 28.992 2.50612 28.992 3.53506V4.98664H26.9941V6.99752H28.9897V17.7123H31.3301V6.99752H35.5237V4.98664H31.334V3.53506C31.334 2.69713 31.7845 2.21528 32.6061 2.16424Z" fill="white"/>
<path d="M66.7907 15.6992C64.2623 15.6992 62.4273 13.875 62.4273 11.3618C62.4273 8.88855 64.3186 7.02352 66.8267 7.02352C68.2136 7.02352 69.3014 7.82398 69.7717 8.23816L71.3694 6.64056C70.9107 6.19322 69.1999 4.70728 66.7145 4.70728C62.9703 4.70728 60.0371 7.63028 60.0371 11.3618C60.0371 15.0779 62.9708 17.9889 66.7158 17.9889C69.1057 17.9889 70.7175 16.6831 71.3609 16.0471L69.8056 14.4918C69.2322 15.0271 68.2271 15.6992 66.7907 15.6992Z" fill="white"/>
<path d="M56.044 15.8314C55.265 15.8314 54.671 15.3051 54.671 13.7842V7.00222H58.8662V4.99134H54.671V2.39355H52.332V13.7842C52.332 16.6634 53.6594 17.9704 56.0136 17.9704C56.8879 17.9704 57.9665 17.6261 58.9081 16.8418L57.434 15.3676C57.0636 15.6675 56.5661 15.8314 56.044 15.8314Z" fill="white"/>
<path d="M43.3667 15.6479C41.0919 15.6479 39.4507 13.9786 39.1222 12.2546H48.5466V12.2511H49.914C49.9539 11.9561 49.9764 11.6555 49.9764 11.3495C49.9764 7.67668 46.999 4.69922 43.3261 4.69922C39.6532 4.69922 36.6758 7.67668 36.6758 11.3495C36.6758 15.0224 39.6532 17.9999 43.3261 17.9999C45.5313 17.9999 47.3507 17.2098 48.6034 15.984L47.146 14.3424C46.1353 15.2319 44.8638 15.6479 43.3667 15.6479ZM43.3667 7.00425C45.4851 7.00425 47.0331 8.46586 47.4802 10.2426H39.1687C39.6489 8.39472 41.2307 7.00425 43.3667 7.00425Z" fill="white"/>
<path d="M101.94 4.98661L101.939 6.36512C101.939 6.36512 100.407 4.70435 97.7106 4.70435C94.0525 4.70435 91.0762 7.65278 91.0762 11.277C91.0762 15.0372 93.9464 17.9826 97.6107 17.9826C100.664 17.9826 101.946 16.3108 101.946 16.3108L101.941 17.7122H104.28V4.98661H101.94ZM97.9168 15.6891C97.8411 15.693 97.7651 15.6951 97.6884 15.6951C96.4885 15.6951 95.4004 15.2069 94.6123 14.4187C93.8199 13.6304 93.3298 12.5413 93.3298 11.3383C93.3298 8.93258 95.2901 6.98231 97.7083 6.98231C100.126 6.98231 102.087 8.93258 102.087 11.3383C102.087 13.6745 100.238 15.5807 97.9168 15.6891Z" fill="white"/>
</svg>
