<svg width="24" height="24" viewBox="0 0 24 24" fill="none" xmlns="http://www.w3.org/2000/svg">
<path d="M9.5 6.75C9.5 6.78125 9.5 6.78125 9.5 6.8125C9.53125 6.84375 9.5625 6.90625 9.65625 6.96875C9.65625 7 9.6875 7 9.6875 7C9.09375 7.03125 8.53125 7.0625 8 7.15625V6.75C8 6.1875 8.28125 5.75 8.65625 5.4375C9 5.09375 9.46875 4.84375 10 4.65625C11.0625 4.25 12.4688 4 14 4C15.5 4 16.9062 4.25 17.9688 4.65625C18.5 4.84375 18.9688 5.09375 19.3125 5.4375C19.6875 5.75 20 6.1875 20 6.75V10V13.25C20 13.8125 19.6875 14.2812 19.3125 14.5938C18.9688 14.9062 18.5 15.1875 17.9688 15.375C17.6562 15.5 17.3438 15.5938 17 15.6875V14.125C17.1562 14.0938 17.2812 14.0312 17.4375 13.9688C17.8438 13.8125 18.1562 13.625 18.3125 13.5C18.4062 13.4062 18.4375 13.3438 18.4688 13.3125C18.5 13.2812 18.5 13.2812 18.5 13.2812V11.9062C18.3125 11.9688 18.1562 12.0625 17.9688 12.125C17.6562 12.25 17.3438 12.3438 17 12.4375V10.875C17.1562 10.8438 17.2812 10.7812 17.4375 10.7188C17.8438 10.5625 18.1562 10.375 18.3125 10.25C18.4062 10.1562 18.4375 10.0938 18.4688 10.0625C18.5 10.0312 18.5 10.0312 18.5 10.0312V8.65625C18.3125 8.71875 18.1562 8.8125 17.9688 8.875C17.5312 9.03125 17.0625 9.1875 16.5312 9.28125C16.375 9.03125 16.1875 8.84375 16 8.6875C15.6875 8.40625 15.3125 8.15625 14.9375 7.96875C15.9375 7.90625 16.7812 7.71875 17.4375 7.46875C17.8438 7.3125 18.1562 7.125 18.3125 6.96875C18.4062 6.90625 18.4375 6.84375 18.4688 6.8125C18.5 6.78125 18.5 6.78125 18.5 6.75C18.5 6.75 18.5 6.75 18.4688 6.71875C18.4375 6.6875 18.4062 6.625 18.3125 6.53125C18.1562 6.375 17.8438 6.21875 17.4375 6.0625C16.5938 5.71875 15.375 5.5 14 5.5C12.5938 5.5 11.375 5.71875 10.5312 6.0625C10.125 6.21875 9.8125 6.375 9.65625 6.53125C9.5625 6.625 9.53125 6.6875 9.5 6.71875C9.5 6.75 9.5 6.75 9.5 6.75ZM5.5 10.75C5.5 10.7812 5.5 10.7812 5.5 10.8125C5.53125 10.8438 5.5625 10.9062 5.65625 10.9688C5.8125 11.125 6.125 11.3125 6.53125 11.4688C7.375 11.7812 8.59375 12 10 12C11.375 12 12.5938 11.7812 13.4375 11.4688C13.8438 11.3125 14.1562 11.125 14.3125 10.9688C14.4062 10.9062 14.4375 10.8438 14.4688 10.8125C14.4688 10.7812 14.5 10.7812 14.5 10.75C14.5 10.75 14.5 10.75 14.4688 10.7188C14.4375 10.6875 14.4062 10.625 14.3125 10.5312C14.1562 10.375 13.8438 10.2188 13.4375 10.0625C12.5938 9.71875 11.375 9.53125 10 9.53125C8.59375 9.53125 7.375 9.71875 6.53125 10.0625C6.125 10.2188 5.8125 10.4062 5.65625 10.5312C5.5625 10.625 5.53125 10.6875 5.5 10.7188C5.5 10.75 5.5 10.75 5.5 10.75ZM4 10.75C4 10.1875 4.28125 9.75 4.65625 9.4375C5 9.09375 5.46875 8.84375 6 8.65625C7.0625 8.25 8.46875 8 10 8C11.5 8 12.9062 8.25 13.9688 8.65625C14.5 8.84375 14.9688 9.09375 15.3125 9.4375C15.6875 9.75 16 10.1875 16 10.75V14V17.25C16 17.8125 15.6875 18.2812 15.3125 18.5938C14.9688 18.9062 14.5 19.1875 13.9688 19.375C12.9062 19.7812 11.5 20 10 20C8.46875 20 7.0625 19.7812 6 19.375C5.46875 19.1875 5 18.9375 4.65625 18.5938C4.28125 18.2812 4 17.8125 4 17.25V14V10.75ZM14.5 14V12.6562C14.3125 12.7188 14.1562 12.8125 13.9688 12.875C12.9062 13.2812 11.5 13.5 10 13.5C8.46875 13.5 7.0625 13.2812 6 12.875C5.8125 12.8125 5.65625 12.75 5.5 12.6562V14C5.5 14.0312 5.5 14.0312 5.5 14.0625C5.53125 14.0938 5.5625 14.1562 5.65625 14.2188C5.8125 14.375 6.125 14.5625 6.53125 14.7188C7.375 15.0312 8.59375 15.25 10 15.25C11.375 15.25 12.5938 15.0312 13.4375 14.7188C13.8438 14.5625 14.1562 14.375 14.3125 14.2188C14.4062 14.1562 14.4375 14.0938 14.4688 14.0625C14.4688 14.0312 14.5 14.0312 14.5 14ZM6 16.125C5.8125 16.0625 5.65625 16 5.5 15.9062V17.25C5.5 17.25 5.5 17.2812 5.5 17.3125C5.53125 17.3438 5.5625 17.4062 5.65625 17.4688C5.8125 17.625 6.125 17.8125 6.53125 17.9688C7.375 18.2812 8.59375 18.5 10 18.5C11.375 18.5 12.5938 18.2812 13.4375 17.9688C13.8438 17.8125 14.1562 17.625 14.3125 17.4688C14.4062 17.4062 14.4375 17.3438 14.4688 17.3125C14.5 17.2812 14.5 17.25 14.5 17.25V15.9062C14.3125 15.9688 14.1562 16.0625 13.9688 16.125C12.9062 16.5312 11.5 16.75 10 16.75C8.46875 16.75 7.0625 16.5312 6 16.125Z" fill="white"/>
</svg>
