<svg width="17" height="18" viewBox="0 0 17 18" fill="none" xmlns="http://www.w3.org/2000/svg">
<path d="M15.3999 9C15.3999 6.6875 14.1499 4.5625 12.1499 3.375C10.1187 2.21875 7.6499 2.21875 5.6499 3.375C3.61865 4.5625 2.3999 6.6875 2.3999 9C2.3999 11.3438 3.61865 13.4688 5.6499 14.6562C7.6499 15.8125 10.1187 15.8125 12.1499 14.6562C14.1499 13.4688 15.3999 11.3438 15.3999 9ZM0.899902 9C0.899902 6.15625 2.3999 3.53125 4.8999 2.09375C7.36865 0.65625 10.3999 0.65625 12.8999 2.09375C15.3687 3.53125 16.8999 6.15625 16.8999 9C16.8999 11.875 15.3687 14.5 12.8999 15.9375C10.3999 17.375 7.36865 17.375 4.8999 15.9375C2.3999 14.5 0.899902 11.875 0.899902 9ZM8.1499 4.75C8.1499 4.34375 8.4624 4 8.8999 4C9.30615 4 9.6499 4.34375 9.6499 4.75V8.625L12.3062 10.375C12.6499 10.625 12.7437 11.0938 12.5249 11.4375C12.2749 11.7812 11.8062 11.875 11.4624 11.625L8.4624 9.625C8.2749 9.5 8.1499 9.25 8.1499 9V4.75Z" fill="rgba(255,255,255)"/>
</svg>
