<svg width="24" height="24" viewBox="0 0 24 24" fill="none" xmlns="http://www.w3.org/2000/svg">
<path d="M12 4C12.5312 4 13 4.46875 13 5V5.5625C15.25 5.9375 17 7.90625 17 10.25V11.3125C17 12.7188 17.4688 14.0938 18.3438 15.2188L18.8125 15.7812C19 16.0312 19.0312 16.3438 18.9062 16.5938C18.7812 16.8438 18.5312 17 18.25 17H5.75C5.4375 17 5.1875 16.8438 5.0625 16.5938C4.9375 16.3438 4.96875 16.0312 5.15625 15.7812L5.625 15.2188C6.5 14.0938 7 12.7188 7 11.3125V10.25C7 7.90625 8.71875 5.9375 11 5.5625V5C11 4.46875 11.4375 4 12 4ZM12 7H11.75C9.9375 7 8.5 8.46875 8.5 10.25V11.3125C8.5 12.8125 8.0625 14.25 7.25 15.5H16.7188C15.9062 14.25 15.5 12.8125 15.5 11.3125V10.25C15.5 8.46875 14.0312 7 12.25 7H12ZM14 18C14 18.5312 13.7812 19.0625 13.4062 19.4375C13.0312 19.8125 12.5312 20 12 20C11.4688 20 10.9375 19.8125 10.5625 19.4375C10.1875 19.0625 10 18.5312 10 18H12H14Z" fill="white"/>
</svg>
