<svg width="49" height="48" viewBox="0 0 49 48" fill="none" xmlns="http://www.w3.org/2000/svg">
<rect x="0.5" width="48" height="48" rx="24" fill="white"/>
<path d="M32.0312 27.7812L29.0312 30.7812C28.7188 31.0938 28.25 31.0938 27.9688 30.7812L24.9688 27.7812C24.6562 27.5 24.6562 27.0312 24.9688 26.75C25.25 26.4375 25.7188 26.4375 26.0312 26.75L27.75 28.4688V17.75C27.75 17.3438 28.0625 17 28.5 17C28.9062 17 29.25 17.3438 29.25 17.75V28.4688L30.9688 26.75C31.25 26.4375 31.7188 26.4375 32.0312 26.75C32.3125 27.0312 32.3125 27.5 32.0312 27.7812ZM21.0312 17.2188L24 20.2188C24.3125 20.5312 24.3125 21 24 21.2812C23.7188 21.5938 23.25 21.5938 22.9375 21.2812L21.2188 19.5625V30.25C21.2188 30.6875 20.9062 31 20.4688 31C20.0625 31 19.7188 30.6875 19.7188 30.25V19.5625L18 21.2812C17.7188 21.5938 17.25 21.5938 16.9688 21.2812C16.6562 21 16.6562 20.5312 16.9688 20.2188L19.9688 17.2188C20.25 16.9375 20.7188 16.9375 21.0312 17.2188Z" fill="url(#paint0_linear_609_807)"/>
<defs>
<linearGradient id="paint0_linear_609_807" x1="35.6385" y1="24" x2="15.0059" y2="24" gradientUnits="userSpaceOnUse">
<stop offset="0.226488" stop-color="#F9774B"/>
<stop offset="0.547025" stop-color="#CF447B"/>
<stop offset="0.856046" stop-color="#5F38FB"/>
</linearGradient>
</defs>
</svg>
