<svg width="26" height="28" viewBox="0 0 26 28" fill="none" xmlns="http://www.w3.org/2000/svg">
<path d="M25.7446 4.94925C25.4601 3.85165 24.5451 2.75405 22.8976 1.53213C21.576 0.558849 20.1726 -3.05176e-05 19.0537 -3.05176e-05C18.8297 -3.05176e-05 18.627 0.0201295 18.4232 0.0615695C17.9147 0.164609 17.4678 0.537569 17.1822 1.09757C16.8361 1.76061 16.7555 2.65101 16.9784 3.18973C17.0601 3.35549 17.1609 3.56269 17.283 3.74861C16.2056 4.41165 15.5952 4.59757 15.5134 4.61885C18.3201 5.57197 20.6587 7.55997 22.1237 10.1483L22.1438 9.89965C22.2043 9.21645 22.4081 8.42909 22.6926 7.62157C22.9771 7.70445 23.2616 7.74589 23.5472 7.74589C24.2998 7.74589 24.9505 7.43565 25.3571 6.87565C25.7659 6.31677 25.9283 5.57085 25.7446 4.94925Z" fill="#602F92"/>
<path d="M22.8169 7.02127C24.6671 7.5387 25.4198 6.08942 25.1756 5.11614C24.9113 4.14286 24.0567 3.14831 22.5526 2.03055C21.0473 0.911665 19.5219 0.456945 18.5463 0.664145C17.5697 0.871345 17.2852 2.38335 17.5294 2.96351C17.6313 3.19087 17.8553 3.52238 18.1599 3.89534C17.7735 4.16414 17.4073 4.37135 17.1027 4.55839C18.9742 5.40734 20.6004 6.73342 21.8212 8.3899C21.9635 7.83102 22.1673 7.33374 22.3499 6.89918C22.491 6.9171 22.6534 6.95854 22.8169 7.02127Z" fill="url(#paint0_radial_2567_7200)"/>
<path d="M12.2206 27.3168C18.4993 27.3168 23.5897 22.1334 23.5897 15.7393C23.5897 9.34527 18.4993 4.16302 12.2206 4.16302C5.94184 4.16302 0.85144 9.34638 0.85144 15.7405C0.85144 22.1345 5.94184 27.3168 12.2206 27.3168Z" fill="url(#paint1_radial_2567_7200)"/>
<path opacity="0.6" d="M24.2404 4.163C22.6948 2.50652 21.3934 2.07084 19.8276 1.71916C18.6068 1.42908 18.9328 0.724596 20.4179 0.870196C19.7056 0.621556 19.0347 0.559956 18.5464 0.662996C17.5697 0.870196 17.2852 2.3822 17.5294 2.96236C17.6313 3.18972 17.8553 3.52124 18.16 3.8942C17.6112 4.26716 17.143 4.53596 16.7566 4.74316C16.9392 4.82604 17.1632 4.92908 17.4275 5.07468C18.1185 5.44764 18.8712 6.06924 18.8712 6.06924C17.7321 5.07468 17.9763 4.61996 19.542 3.50108C20.0304 3.1494 20.9252 3.19084 21.7585 3.6254C22.5918 4.05996 23.5684 5.15756 23.5684 5.15756L22.6332 6.9798C22.6937 7.00108 22.7553 7.02124 22.8158 7.04252C23.406 7.20828 23.8731 7.16684 24.2393 7.02124C24.6672 6.75132 25.786 5.83964 24.2404 4.163Z" fill="#A98798"/>
<path d="M19.8064 2.7126C20.213 2.87836 20.7416 3.16844 21.3923 3.603C22.1651 4.12044 22.836 4.7006 23.2639 5.15644C22.5515 6.10956 22.0845 7.41436 21.8 8.32492C21.9423 8.53212 22.1047 8.73932 22.248 8.94652C22.3903 8.42908 22.6344 7.66188 22.9603 6.8958C23.0421 6.91708 23.1429 6.91708 23.2448 6.91708C23.489 6.91708 23.7735 6.87564 23.9975 6.68972C24.1599 6.5654 24.3435 6.33804 24.3234 5.92364C24.3234 5.53052 24.0187 5.03324 23.3882 4.43292C22.9402 3.99836 22.3309 3.52124 21.7205 3.08668C19.9711 1.9062 18.7514 1.57468 18.2026 2.13356C17.8363 2.50652 17.8767 2.96236 17.9987 3.29388C17.348 3.72844 16.7992 4.0398 16.433 4.247C16.6771 4.32988 16.9011 4.43292 17.1453 4.53708C17.7927 4.18316 18.729 3.58284 19.8064 2.7126ZM23.6503 5.675C23.7107 5.77804 23.732 5.8822 23.732 5.9438C23.732 6.12972 23.6715 6.19244 23.6301 6.23388C23.5483 6.29548 23.3859 6.33692 23.2437 6.33692C23.3658 6.08828 23.508 5.88108 23.6503 5.675ZM18.6271 2.58828C18.6875 2.52668 18.8511 2.48524 19.1154 2.52668C18.9115 2.69244 18.7088 2.83692 18.505 2.98252C18.4848 2.83692 18.505 2.69244 18.6271 2.58828Z" fill="#602F92"/>
<path d="M12.2207 3.4787C5.5701 3.4787 0.180664 8.9667 0.180664 15.7393C0.180664 22.512 5.5701 28 12.2207 28C18.8712 28 24.2607 22.512 24.2607 15.7393C24.2607 8.96782 18.8511 3.4787 12.2207 3.4787ZM12.2207 27.3168C5.93634 27.3168 0.851544 22.139 0.851544 15.7393C0.851544 9.33966 5.93634 4.1619 12.2207 4.1619C18.505 4.1619 23.5898 9.33966 23.5898 15.7393C23.5887 22.139 18.4848 27.3168 12.2207 27.3168Z" fill="#602F92"/>
<path opacity="0.6" d="M12.2206 27.3168C18.4993 27.3168 23.5897 22.1334 23.5897 15.7393C23.5897 9.34527 18.4993 4.16302 12.2206 4.16302C5.94184 4.16302 0.85144 9.34638 0.85144 15.7405C0.85144 22.1345 5.94184 27.3168 12.2206 27.3168Z" fill="url(#paint2_linear_2567_7200)"/>
<path opacity="0.6" d="M12.1389 25.9078C5.93631 24.8931 1.72623 18.9493 2.74319 12.6325C3.19119 9.83694 4.57327 7.4547 6.52655 5.7355C3.67839 7.41438 1.56383 10.3342 0.993747 13.8969C-0.00305259 20.2137 4.20703 26.1576 10.3894 27.1723C13.8469 27.7525 17.1822 26.6549 19.6429 24.5011C17.4678 25.7835 14.8235 26.3435 12.1389 25.9078Z" fill="#A98798"/>
<path opacity="0.6" d="M14.0306 4.32876C11.1634 3.85276 8.3768 4.51468 6.09872 5.98524C6.0584 6.02668 6.01696 6.06812 6.01696 6.06812C6.89168 5.5294 8.17296 5.0534 8.17296 5.0534C4.87792 6.99996 3.86096 9.21644 3.86096 9.21644C5.14224 6.68972 8.90432 4.90892 11.8533 4.7846C14.8022 4.66028 16.7342 5.55068 19.093 7.47708C21.4517 9.42364 22.8763 13.3996 22.733 16.548C22.6109 19.6963 20.9835 22.2432 20.9835 22.2432C22.1024 20.7726 22.7733 19.6963 23.2 18.5987C23.2818 18.2672 23.3624 17.9356 23.4038 17.584C24.423 11.2873 20.2331 5.34348 14.0306 4.32876Z" fill="url(#paint3_linear_2567_7200)"/>
<path d="M23.0196 15.6363C23.0196 21.7045 18.179 26.6336 12.2206 26.6336C6.26217 26.6336 1.40137 21.7045 1.40137 15.6363H23.0196Z" fill="url(#paint4_linear_2567_7200)"/>
<g opacity="0.6">
<path opacity="0.6" d="M22.165 15.6363C22.165 21.5589 17.5686 26.4051 11.7927 26.6336C11.935 26.6336 12.0772 26.6336 12.2194 26.6336C18.1778 26.6336 23.0185 21.7045 23.0185 15.6363H22.165Z" fill="url(#paint5_linear_2567_7200)"/>
</g>
<g opacity="0.7">
<path opacity="0.7" d="M2.92681 15.6363H1.40137C1.40137 21.7045 6.24201 26.6336 12.2004 26.6336C12.4647 26.6336 12.7089 26.6336 12.953 26.6123C7.35977 26.1979 2.92681 21.4345 2.92681 15.6363Z" fill="url(#paint6_linear_2567_7200)"/>
</g>
<path d="M22.9994 15.7393C22.9994 14.476 20.8434 13.7513 17.9762 13.5027C15.902 13.3369 13.8076 13.5441 11.4074 14.29C9.33321 14.9116 7.46169 14.8075 6.09977 14.6417C3.06905 14.29 1.40137 14.2486 1.40137 15.7393C1.40137 17.8931 5.71337 20.5856 12.1802 19.6537C15.4551 19.1777 17.143 18.2044 19.075 17.5414C21.1694 16.8369 22.9994 16.8582 22.9994 15.7393Z" fill="url(#paint7_linear_2567_7200)"/>
<path d="M15.7587 10.5201C16.77 10.5201 17.5887 9.68575 17.5887 8.65647C17.5887 7.62719 16.7689 6.79279 15.7587 6.79279C14.7484 6.79279 13.9286 7.62719 13.9286 8.65647C13.9286 9.68575 14.7484 10.5201 15.7587 10.5201Z" fill="white"/>
<path d="M18.7491 11.9078C19.1758 11.9078 19.5219 11.555 19.5219 11.1205C19.5219 10.6859 19.1758 10.3331 18.7491 10.3331C18.3224 10.3331 17.9763 10.6859 17.9763 11.1205C17.9763 11.5561 18.3224 11.9078 18.7491 11.9078Z" fill="white"/>
<g opacity="0.6">
<path opacity="0.6" d="M21.5143 7.16572C21.4942 7.16572 21.474 7.16572 21.474 7.16572C21.3519 7.14444 21.2702 7.02124 21.2915 6.87564C21.474 5.92252 22.2468 5.01196 22.2883 4.97052C22.37 4.86748 22.5324 4.86748 22.6142 4.94924C22.7161 5.03212 22.7161 5.19788 22.6343 5.28076C22.6142 5.30092 21.9019 6.151 21.7395 6.97868C21.7182 7.103 21.6163 7.16572 21.5143 7.16572Z" fill="url(#paint8_linear_2567_7200)"/>
</g>
<path opacity="0.2" d="M11.4691 24.3757C11.7838 24.3757 12.0381 24.1158 12.0381 23.7955C12.0381 23.4752 11.7827 23.2153 11.4691 23.2153C11.1544 23.2153 10.9001 23.4752 10.9001 23.7955C10.9001 24.1158 11.1544 24.3757 11.4691 24.3757Z" fill="white"/>
<g opacity="0.4">
<path opacity="0.6" d="M11.1432 24.1696C10.9192 23.9422 10.9192 23.5693 11.1432 23.3408C11.1835 23.2993 11.225 23.2792 11.2653 23.2377C11.1835 23.259 11.123 23.2993 11.0614 23.3621C10.8374 23.5894 10.8374 23.9624 11.0614 24.1909C11.244 24.3768 11.5296 24.4182 11.7525 24.2939C11.5498 24.3768 11.3056 24.3353 11.1432 24.1696Z" fill="url(#paint9_linear_2567_7200)"/>
</g>
<path opacity="0.3" d="M11.6718 23.6297C11.739 23.6297 11.7938 23.5737 11.7938 23.5054C11.7938 23.4371 11.739 23.3811 11.6718 23.3811C11.6046 23.3811 11.5497 23.4371 11.5497 23.5054C11.5497 23.5749 11.6034 23.6297 11.6718 23.6297Z" fill="white"/>
<path opacity="0.2" d="M14.4382 24.0856C14.7529 24.0856 15.0072 23.8257 15.0072 23.5054C15.0072 23.1851 14.7518 22.9253 14.4382 22.9253C14.1235 22.9253 13.8693 23.1851 13.8693 23.5054C13.8693 23.8257 14.1246 24.0856 14.4382 24.0856Z" fill="white"/>
<g opacity="0.4">
<path opacity="0.6" d="M14.1123 23.8795C13.8883 23.6521 13.8883 23.2792 14.1123 23.0507C14.1526 23.0093 14.1941 22.9891 14.2344 22.9477C14.1526 22.9689 14.0921 23.0093 14.0305 23.072C13.8065 23.2993 13.8065 23.6723 14.0305 23.9008C14.2131 24.0867 14.4987 24.1281 14.7216 24.0038C14.5189 24.0867 14.2747 24.0453 14.1123 23.8795Z" fill="url(#paint10_linear_2567_7200)"/>
</g>
<path opacity="0.3" d="M14.6409 23.3408C14.7081 23.3408 14.763 23.2848 14.763 23.2165C14.763 23.1481 14.7081 23.0921 14.6409 23.0921C14.5737 23.0921 14.5188 23.1481 14.5188 23.2165C14.5188 23.2848 14.5737 23.3408 14.6409 23.3408Z" fill="white"/>
<path opacity="0.2" d="M12.9732 25.4318C13.2095 25.4318 13.3999 25.2369 13.3999 24.9972C13.3999 24.7576 13.2084 24.5627 12.9732 24.5627C12.7369 24.5627 12.5465 24.7576 12.5465 24.9972C12.5465 25.2369 12.7369 25.4318 12.9732 25.4318Z" fill="white"/>
<g opacity="0.4">
<path opacity="0.6" d="M12.729 25.2672C12.5666 25.1014 12.5666 24.8113 12.729 24.6456C12.7492 24.6243 12.7895 24.6041 12.8108 24.5829C12.7503 24.6041 12.7089 24.6456 12.6686 24.6859C12.5062 24.8517 12.5062 25.1417 12.6686 25.3075C12.8108 25.452 13.0146 25.4733 13.1972 25.3702C13.0337 25.4329 12.8511 25.3915 12.729 25.2672Z" fill="url(#paint11_linear_2567_7200)"/>
</g>
<path opacity="0.3" d="M13.1155 24.8516C13.1603 24.8516 13.1972 24.8147 13.1972 24.7688C13.1972 24.7228 13.1603 24.6859 13.1155 24.6859C13.0707 24.6859 13.0337 24.7228 13.0337 24.7688C13.0337 24.8147 13.0707 24.8516 13.1155 24.8516Z" fill="white"/>
<path opacity="0.2" d="M15.5963 25.1216C15.8326 25.1216 16.023 24.9267 16.023 24.687C16.023 24.4473 15.8315 24.2524 15.5963 24.2524C15.3611 24.2524 15.1696 24.4473 15.1696 24.687C15.1696 24.9267 15.3611 25.1216 15.5963 25.1216Z" fill="white"/>
<g opacity="0.4">
<path opacity="0.6" d="M15.3533 24.9558C15.1909 24.7901 15.1909 24.5 15.3533 24.3342C15.3735 24.3129 15.4138 24.2928 15.4351 24.2726C15.3746 24.2939 15.3331 24.3342 15.2928 24.3757C15.1304 24.5414 15.1304 24.8315 15.2928 24.9973C15.4351 25.1417 15.6389 25.163 15.8215 25.0589C15.6579 25.1216 15.4754 25.0801 15.3533 24.9558Z" fill="url(#paint12_linear_2567_7200)"/>
</g>
<path opacity="0.3" d="M15.7385 24.5414C15.7833 24.5414 15.8203 24.5044 15.8203 24.4585C15.8203 24.4126 15.7833 24.3756 15.7385 24.3756C15.6937 24.3756 15.6567 24.4126 15.6567 24.4585C15.6579 24.5044 15.6937 24.5414 15.7385 24.5414Z" fill="white"/>
<path opacity="0.2" d="M9.04763 24.1684C9.56395 24.1684 9.98283 23.7417 9.98283 23.2153C9.98283 22.6889 9.56395 22.2622 9.04763 22.2622C8.53131 22.2622 8.11243 22.6889 8.11243 23.2153C8.11243 23.7417 8.53131 24.1684 9.04763 24.1684Z" fill="white"/>
<g opacity="0.4">
<path opacity="0.6" d="M8.52017 23.8168C8.15393 23.4438 8.15393 22.8435 8.52017 22.4705C8.58065 22.4089 8.64225 22.3675 8.72401 22.326C8.60193 22.3675 8.50001 22.4504 8.39809 22.5332C8.03185 22.9062 8.03185 23.5065 8.39809 23.8795C8.70273 24.1897 9.17089 24.2524 9.53713 24.024C9.19105 24.1684 8.78449 24.1068 8.52017 23.8168Z" fill="url(#paint13_linear_2567_7200)"/>
</g>
<path opacity="0.3" d="M9.37352 22.9264C9.48552 22.9264 9.57736 22.8334 9.57736 22.7192C9.57736 22.6049 9.48664 22.512 9.37352 22.512C9.26152 22.512 9.16968 22.6049 9.16968 22.7192C9.16968 22.8334 9.2604 22.9264 9.37352 22.9264Z" fill="white"/>
<path opacity="0.2" d="M17.4074 21.8288C17.9237 21.8288 18.3426 21.402 18.3426 20.8756C18.3426 20.3492 17.9237 19.9225 17.4074 19.9225C16.891 19.9225 16.4722 20.3492 16.4722 20.8756C16.4722 21.402 16.8899 21.8288 17.4074 21.8288Z" fill="white"/>
<g opacity="0.4">
<path opacity="0.6" d="M16.8575 21.476C16.4912 21.103 16.4912 20.5027 16.8575 20.1297C16.9179 20.067 16.9795 20.0267 17.0613 19.9853C16.9392 20.0267 16.8373 20.1096 16.7354 20.1925C16.3691 20.5654 16.3691 21.1657 16.7354 21.5387C17.04 21.8489 17.5082 21.9117 17.8744 21.6832C17.5283 21.8288 17.1419 21.7661 16.8575 21.476Z" fill="url(#paint14_linear_2567_7200)"/>
</g>
<path opacity="0.3" d="M17.7322 20.5856C17.8442 20.5856 17.936 20.4926 17.936 20.3784C17.936 20.2641 17.8453 20.1712 17.7322 20.1712C17.6202 20.1712 17.5283 20.2641 17.5283 20.3784C17.5283 20.4926 17.619 20.5856 17.7322 20.5856Z" fill="white"/>
<defs>
<radialGradient id="paint0_radial_2567_7200" cx="0" cy="0" r="1" gradientUnits="userSpaceOnUse" gradientTransform="translate(24.8049 3.81115) scale(9.08979 9.25625)">
<stop stop-color="#FBEAF3" stop-opacity="0.6"/>
<stop offset="0.6807" stop-color="#A087BF"/>
<stop offset="1" stop-color="#17102E"/>
</radialGradient>
<radialGradient id="paint1_radial_2567_7200" cx="0" cy="0" r="1" gradientUnits="userSpaceOnUse" gradientTransform="translate(19.7478 7.75739) scale(22.2394 22.6467)">
<stop stop-color="#FBEAF3" stop-opacity="0.6"/>
<stop offset="0.6807" stop-color="#A087BF"/>
<stop offset="1" stop-color="#17102E"/>
</radialGradient>
<linearGradient id="paint2_linear_2567_7200" x1="10.3357" y1="27.1583" x2="14.1052" y2="4.32096" gradientUnits="userSpaceOnUse">
<stop stop-color="#9AD9E5"/>
<stop offset="0.6202" stop-color="white" stop-opacity="0"/>
</linearGradient>
<linearGradient id="paint3_linear_2567_7200" x1="20.3361" y1="7.99243" x2="10.7795" y2="16.6032" gradientUnits="userSpaceOnUse">
<stop offset="0.2888" stop-color="white"/>
<stop offset="0.7796" stop-color="white" stop-opacity="0"/>
</linearGradient>
<linearGradient id="paint4_linear_2567_7200" x1="1.40097" y1="21.1345" x2="23.0198" y2="21.1345" gradientUnits="userSpaceOnUse">
<stop stop-color="#384EA2"/>
<stop offset="0.9952" stop-color="#D54799"/>
</linearGradient>
<linearGradient id="paint5_linear_2567_7200" x1="24.0973" y1="16.6659" x2="12.1369" y2="27.7658" gradientUnits="userSpaceOnUse">
<stop offset="0.2888" stop-color="white"/>
<stop offset="0.7796" stop-color="white" stop-opacity="0"/>
</linearGradient>
<linearGradient id="paint6_linear_2567_7200" x1="1.40097" y1="21.1345" x2="12.9527" y2="21.1345" gradientUnits="userSpaceOnUse">
<stop stop-color="#2B2F82"/>
<stop offset="0.9952" stop-color="#72439A"/>
</linearGradient>
<linearGradient id="paint7_linear_2567_7200" x1="1.42462" y1="16.6464" x2="23" y2="16.6464" gradientUnits="userSpaceOnUse">
<stop stop-color="#2B2F82"/>
<stop offset="0.9952" stop-color="#A14298"/>
</linearGradient>
<linearGradient id="paint8_linear_2567_7200" x1="22.6744" y1="4.88724" x2="21.0826" y2="7.42741" gradientUnits="userSpaceOnUse">
<stop offset="0.2888" stop-color="white"/>
<stop offset="0.7796" stop-color="white" stop-opacity="0"/>
</linearGradient>
<linearGradient id="paint9_linear_2567_7200" x1="10.8936" y1="23.8009" x2="11.754" y2="23.8009" gradientUnits="userSpaceOnUse">
<stop offset="0.2888" stop-color="white"/>
<stop offset="0.7796" stop-color="white" stop-opacity="0"/>
</linearGradient>
<linearGradient id="paint10_linear_2567_7200" x1="13.8602" y1="23.5109" x2="14.7207" y2="23.5109" gradientUnits="userSpaceOnUse">
<stop offset="0.2888" stop-color="white"/>
<stop offset="0.7796" stop-color="white" stop-opacity="0"/>
</linearGradient>
<linearGradient id="paint11_linear_2567_7200" x1="12.5432" y1="25.0092" x2="13.1892" y2="25.0092" gradientUnits="userSpaceOnUse">
<stop offset="0.2888" stop-color="white"/>
<stop offset="0.7796" stop-color="white" stop-opacity="0"/>
</linearGradient>
<linearGradient id="paint12_linear_2567_7200" x1="15.1583" y1="24.6986" x2="15.8042" y2="24.6986" gradientUnits="userSpaceOnUse">
<stop offset="0.2888" stop-color="white"/>
<stop offset="0.7796" stop-color="white" stop-opacity="0"/>
</linearGradient>
<linearGradient id="paint13_linear_2567_7200" x1="8.11378" y1="23.2431" x2="9.51893" y2="23.2431" gradientUnits="userSpaceOnUse">
<stop offset="0.2888" stop-color="white"/>
<stop offset="0.7796" stop-color="white" stop-opacity="0"/>
</linearGradient>
<linearGradient id="paint14_linear_2567_7200" x1="16.4594" y1="20.9028" x2="17.8646" y2="20.9028" gradientUnits="userSpaceOnUse">
<stop offset="0.2888" stop-color="white"/>
<stop offset="0.7796" stop-color="white" stop-opacity="0"/>
</linearGradient>
</defs>
</svg>
