<svg width="12" height="12" viewBox="0 0 12 12" fill="none" xmlns="http://www.w3.org/2000/svg">
<path d="M6.875 0.9375V4.875H10.8125C11.2773 4.875 11.6875 5.28516 11.6875 5.75C11.6875 6.24219 11.2773 6.625 10.8125 6.625H6.875V10.5625C6.875 11.0547 6.46484 11.4375 6 11.4375C5.50781 11.4375 5.125 11.0547 5.125 10.5625V6.625H1.1875C0.695312 6.625 0.3125 6.24219 0.3125 5.75C0.3125 5.28516 0.695312 4.875 1.1875 4.875H5.125V0.9375C5.125 0.472656 5.50781 0.0625 6 0.0625C6.46484 0.0625 6.875 0.472656 6.875 0.9375Z" fill="white"/>
</svg>
