<svg width="32" height="32" viewBox="0 0 32 32" fill="none" xmlns="http://www.w3.org/2000/svg">
<rect width="32" height="32" rx="16" fill="white" fill-opacity="0.2"/>
<path d="M16.75 10.25V15.25H21.75C22.1562 15.25 22.5 15.5938 22.5 16C22.5 16.4375 22.1562 16.75 21.75 16.75H16.75V21.75C16.75 22.1875 16.4062 22.5 16 22.5C15.5625 22.5 15.25 22.1875 15.25 21.75V16.75H10.25C9.8125 16.75 9.5 16.4375 9.5 16C9.5 15.5938 9.8125 15.25 10.25 15.25H15.25V10.25C15.25 9.84375 15.5625 9.5 16 9.5C16.4062 9.5 16.75 9.84375 16.75 10.25Z" fill="white"/>
</svg>
