<svg width="24" height="24" viewBox="0 0 24 24" fill="none" xmlns="http://www.w3.org/2000/svg">
<path d="M16.375 6.0625H7.625C7.37891 6.0625 7.1875 6.28125 7.1875 6.5V17C7.1875 17.2461 7.37891 17.4375 7.625 17.4375H16.375C16.5938 17.4375 16.8125 17.2461 16.8125 17V6.5C16.8125 6.28125 16.5938 6.0625 16.375 6.0625ZM7.625 4.75H16.375C17.332 4.75 18.125 5.54297 18.125 6.5V17C18.125 17.9844 17.332 18.75 16.375 18.75H7.625C6.64062 18.75 5.875 17.9844 5.875 17V6.5C5.875 5.54297 6.64062 4.75 7.625 4.75ZM8.0625 7.8125C8.0625 7.59375 8.25391 7.375 8.5 7.375H9.375C9.59375 7.375 9.8125 7.59375 9.8125 7.8125V8.6875C9.8125 8.93359 9.59375 9.125 9.375 9.125H8.5C8.25391 9.125 8.0625 8.93359 8.0625 8.6875V7.8125ZM8.5 14.375H9.375C9.59375 14.375 9.8125 14.5938 9.8125 14.8125V15.6875C9.8125 15.9336 9.59375 16.125 9.375 16.125H8.5C8.25391 16.125 8.0625 15.9336 8.0625 15.6875V14.8125C8.0625 14.5938 8.25391 14.375 8.5 14.375ZM10.6875 8.25C10.6875 7.89453 10.9609 7.59375 11.3438 7.59375H15.2812C15.6367 7.59375 15.9375 7.89453 15.9375 8.25C15.9375 8.63281 15.6367 8.90625 15.2812 8.90625H11.3438C10.9609 8.90625 10.6875 8.63281 10.6875 8.25ZM11.5625 11.75C11.5625 11.3945 11.8359 11.0938 12.2188 11.0938H15.2812C15.6367 11.0938 15.9375 11.3945 15.9375 11.75C15.9375 12.1328 15.6367 12.4062 15.2812 12.4062H12.2188C11.8359 12.4062 11.5625 12.1328 11.5625 11.75ZM10.6875 15.25C10.6875 14.8945 10.9609 14.5938 11.3438 14.5938H15.2812C15.6367 14.5938 15.9375 14.8945 15.9375 15.25C15.9375 15.6328 15.6367 15.9062 15.2812 15.9062H11.3438C10.9609 15.9062 10.6875 15.6328 10.6875 15.25ZM10.5508 11.4219L9.23828 12.7344C9.07422 12.8984 8.77344 12.8984 8.60938 12.7344L7.95312 12.0781C7.78906 11.9141 7.78906 11.6133 7.95312 11.4492C8.11719 11.2852 8.41797 11.2852 8.58203 11.4492L8.9375 11.8047L9.92188 10.793C10.0859 10.6289 10.3867 10.6289 10.5508 10.793C10.7148 10.957 10.7148 11.2578 10.5508 11.4219Z" fill="white"/>
</svg>
