<svg width="13" height="13" viewBox="0 0 13 13" fill="none" xmlns="http://www.w3.org/2000/svg">
<path d="M9.75 5.375C9.75 6.45312 9.39844 7.46094 8.8125 8.25781L11.7656 11.2344C12.0703 11.5156 12.0703 12.0078 11.7656 12.2891C11.4844 12.5938 10.9922 12.5938 10.7109 12.2891L7.73438 9.3125C6.9375 9.92188 5.92969 10.25 4.875 10.25C2.17969 10.25 0 8.07031 0 5.375C0 2.70312 2.17969 0.5 4.875 0.5C7.54688 0.5 9.75 2.70312 9.75 5.375ZM4.875 8.75C6.07031 8.75 7.17188 8.11719 7.78125 7.0625C8.39062 6.03125 8.39062 4.74219 7.78125 3.6875C7.17188 2.65625 6.07031 2 4.875 2C3.65625 2 2.55469 2.65625 1.94531 3.6875C1.33594 4.74219 1.33594 6.03125 1.94531 7.0625C2.55469 8.11719 3.65625 8.75 4.875 8.75Z" fill="white"/>
</svg>
