<svg width="24" height="24" viewBox="0 0 24 24" fill="none" xmlns="http://www.w3.org/2000/svg">
<path d="M12 5.5625L6.28125 7.96875C6.09375 8.0625 5.96875 8.21875 6 8.375C6 11.25 7.1875 16.1875 11.8125 18.375C11.9375 18.4375 12.0625 18.4375 12.1562 18.375C16.7812 16.1562 17.9688 11.25 18 8.375C18 8.21875 17.875 8.0625 17.7188 7.96875L12 5.5625ZM12.4062 4.09375L18.2812 6.59375C18.9688 6.90625 19.5 7.5625 19.5 8.375C19.4688 11.5 18.1875 17.1562 12.8125 19.75C12.2812 20 11.6875 20 11.1562 19.75C5.78125 17.1562 4.5 11.5 4.5 8.375C4.46875 7.5625 5 6.90625 5.6875 6.59375L11.5625 4.09375C11.6875 4.03125 11.8438 4 12 4C12.125 4 12.2812 4.03125 12.4062 4.09375Z" fill="white"/>
</svg>
