<svg width="17" height="16" viewBox="0 0 17 16" fill="none" xmlns="http://www.w3.org/2000/svg">
<path d="M16.0996 1C16.0996 4.5625 13.4434 7.5 10.0059 7.9375C9.78711 6.28125 9.06836 4.78125 7.97461 3.59375C9.16211 1.46875 11.4746 0 14.0996 0H15.0996C15.6309 0 16.0996 0.46875 16.0996 1ZM0.0996094 3C0.0996094 2.46875 0.537109 2 1.09961 2H2.09961C5.94336 2 9.09961 5.15625 9.09961 9V10V15C9.09961 15.5625 8.63086 16 8.09961 16C7.53711 16 7.09961 15.5625 7.09961 15V10C3.22461 10 0.0996094 6.875 0.0996094 3Z" fill="white"/>
</svg>
