<svg width="15" height="12" viewBox="0 0 15 12" fill="none" xmlns="http://www.w3.org/2000/svg">
<path d="M0.299927 0.75C0.299927 0.34375 0.612427 0 1.04993 0H13.5499C13.9562 0 14.2999 0.34375 14.2999 0.75C14.2999 1.1875 13.9562 1.5 13.5499 1.5H1.04993C0.612427 1.5 0.299927 1.1875 0.299927 0.75ZM0.299927 5.75C0.299927 5.34375 0.612427 5 1.04993 5H13.5499C13.9562 5 14.2999 5.34375 14.2999 5.75C14.2999 6.1875 13.9562 6.5 13.5499 6.5H1.04993C0.612427 6.5 0.299927 6.1875 0.299927 5.75ZM14.2999 10.75C14.2999 11.1875 13.9562 11.5 13.5499 11.5H1.04993C0.612427 11.5 0.299927 11.1875 0.299927 10.75C0.299927 10.3438 0.612427 10 1.04993 10H13.5499C13.9562 10 14.2999 10.3438 14.2999 10.75Z" fill="#fff"/>
</svg>
