<svg width="17" height="14" viewBox="0 0 17 14" fill="none" xmlns="http://www.w3.org/2000/svg">
<path d="M1.59998 9.5V12C1.59998 12.2812 1.81873 12.5 2.09998 12.5H14.1C14.35 12.5 14.6 12.2812 14.6 12V9.5H12.0375L11.3812 10.8125C11.1937 11.25 10.7562 11.5 10.2875 11.5H5.88123C5.41248 11.5 4.97498 11.25 4.78748 10.8125L4.13123 9.5H1.59998ZM14.2875 8L12.7562 1.90625C12.6937 1.65625 12.5062 1.5 12.2875 1.5H3.91248C3.66248 1.5 3.47498 1.65625 3.41248 1.90625L1.88123 8H4.28748C4.75623 8 5.19373 8.28125 5.38123 8.71875L6.03748 10H10.1312L10.7875 8.71875C10.975 8.28125 11.4125 8 11.8812 8H14.2875ZM0.0999756 9.25C0.0999756 9.09375 0.0999756 8.9375 0.131226 8.78125L1.94373 1.53125C2.19373 0.625 2.97498 0 3.91248 0H12.2875C13.1937 0 14.0062 0.625 14.225 1.53125L16.0375 8.78125C16.0687 8.9375 16.1 9.09375 16.1 9.25V12C16.1 13.125 15.1937 14 14.1 14H2.09998C0.974976 14 0.0999756 13.125 0.0999756 12V9.25Z" fill="white"/>
</svg>
