<svg width="33" height="32" viewBox="0 0 33 32" fill="none" xmlns="http://www.w3.org/2000/svg">
<rect x="0.5" width="32" height="32" rx="16" fill="white" fill-opacity="0.1"/>
<path d="M17.6953 15.3516C19.6406 15.1406 21.1641 13.5938 21.3516 11.625H21.1875C19.3828 11.625 17.8594 12.7969 17.2734 14.3906C17.0859 13.9922 16.8281 13.6172 16.5469 13.2891C17.4375 11.625 19.1719 10.5 21.1875 10.5H21.75C22.1484 10.5 22.5 10.8516 22.5 11.25C22.5 13.9219 20.5078 16.125 17.9297 16.4531C17.8828 16.0781 17.8125 15.7266 17.6953 15.3516ZM11.625 13.125V13.5C11.625 15.7969 13.4531 17.625 15.75 17.625H15.9375V17.25C15.9375 14.9766 14.0859 13.125 11.8125 13.125H11.625ZM17.0625 17.25V17.625V18.75V21.9375C17.0625 22.2656 16.8047 22.5 16.5 22.5C16.1719 22.5 15.9375 22.2656 15.9375 21.9375V18.75H15.75C12.8438 18.75 10.5 16.4062 10.5 13.5V12.75C10.5 12.3516 10.8281 12 11.25 12H11.8125C14.6953 12 17.0625 14.3672 17.0625 17.25Z" fill="white"/>
</svg>
