<svg width="394" height="90" viewBox="0 0 394 90" fill="none" xmlns="http://www.w3.org/2000/svg">
<g filter="url(#filter0_d_1399_5623)">
<mask id="path-1-outside-1_1399_5623" maskUnits="userSpaceOnUse" x="3" y="10" width="265" height="34" fill="black">
<rect fill="white" x="3" y="10" width="265" height="34"/>
<path d="M11.904 35L4.768 12.6H8.448L12.768 26.616C12.896 26.9573 13.0133 27.3627 13.12 27.832C13.2267 28.28 13.3227 28.7387 13.408 29.208C13.4933 29.6773 13.568 30.1147 13.632 30.52C13.7173 30.9253 13.792 31.256 13.856 31.512L12.928 31.48C13.248 30.3493 13.4933 29.4747 13.664 28.856C13.856 28.2373 14.0053 27.768 14.112 27.448C14.2187 27.1067 14.3147 26.8187 14.4 26.584L18.432 16.472H21.536L25.44 26.584C25.6533 27.096 25.8347 27.608 25.984 28.12C26.1547 28.6107 26.304 29.112 26.432 29.624C26.56 30.1147 26.6987 30.6373 26.848 31.192L26.016 31.416C26.1227 30.84 26.1973 30.392 26.24 30.072C26.304 29.7307 26.3573 29.4533 26.4 29.24C26.4427 29.0267 26.4853 28.824 26.528 28.632C26.5707 28.4187 26.6347 28.152 26.72 27.832C26.8267 27.512 26.9653 27.0747 27.136 26.52L31.392 12.6H35.104L27.968 35H25.568L19.648 20.984L19.936 21.112L14.24 35H11.904ZM45.2065 35.32C43.4785 35.32 41.9425 34.9573 40.5985 34.232C39.2758 33.4853 38.2305 32.472 37.4625 31.192C36.7158 29.912 36.3425 28.44 36.3425 26.776C36.3425 25.4533 36.5558 24.248 36.9825 23.16C37.4092 22.072 37.9958 21.1333 38.7425 20.344C39.5105 19.5333 40.4172 18.9147 41.4625 18.488C42.5292 18.04 43.6812 17.816 44.9185 17.816C46.0065 17.816 47.0198 18.0293 47.9585 18.456C48.8972 18.8613 49.7078 19.4267 50.3905 20.152C51.0945 20.8773 51.6278 21.7413 51.9905 22.744C52.3745 23.7253 52.5558 24.8027 52.5345 25.976L52.5025 27.384H38.7745L38.0385 24.76H49.6545L49.1745 25.304V24.536C49.1105 23.832 48.8758 23.2027 48.4705 22.648C48.0652 22.0933 47.5532 21.656 46.9345 21.336C46.3158 21.016 45.6438 20.856 44.9185 20.856C43.7665 20.856 42.7958 21.08 42.0065 21.528C41.2172 21.9547 40.6198 22.5947 40.2145 23.448C39.8092 24.28 39.6065 25.3147 39.6065 26.552C39.6065 27.7253 39.8518 28.7493 40.3425 29.624C40.8332 30.4773 41.5265 31.1387 42.4225 31.608C43.3185 32.0773 44.3532 32.312 45.5265 32.312C46.3585 32.312 47.1265 32.1733 47.8305 31.896C48.5558 31.6187 49.3345 31.1173 50.1665 30.392L51.8305 32.728C51.3185 33.24 50.6892 33.688 49.9425 34.072C49.2172 34.456 48.4385 34.7653 47.6065 35C46.7958 35.2133 45.9958 35.32 45.2065 35.32ZM56.1805 35V11.32H59.4765V35H56.1805ZM70.9713 35.32C69.4139 35.32 68.0166 34.936 66.7793 34.168C65.5633 33.4 64.5926 32.3547 63.8673 31.032C63.1633 29.7093 62.8113 28.2267 62.8113 26.584C62.8113 24.9413 63.1633 23.4587 63.8673 22.136C64.5926 20.8133 65.5633 19.768 66.7793 19C68.0166 18.232 69.4139 17.848 70.9713 17.848C72.4646 17.848 73.8193 18.1573 75.0353 18.776C76.2726 19.3733 77.2113 20.1947 77.8513 21.24L76.0273 23.48C75.6859 22.9893 75.2486 22.5413 74.7153 22.136C74.1819 21.7307 73.6166 21.4107 73.0193 21.176C72.4219 20.9413 71.8459 20.824 71.2913 20.824C70.2673 20.824 69.3499 21.08 68.5393 21.592C67.7499 22.0827 67.1206 22.7653 66.6513 23.64C66.1819 24.5147 65.9473 25.496 65.9473 26.584C65.9473 27.672 66.1926 28.6533 66.6833 29.528C67.1739 30.3813 67.8246 31.064 68.6353 31.576C69.4459 32.088 70.3419 32.344 71.3233 32.344C71.8993 32.344 72.4539 32.248 72.9873 32.056C73.5419 31.864 74.0753 31.576 74.5873 31.192C75.0993 30.808 75.5793 30.3387 76.0273 29.784L77.8513 32.024C77.1686 32.984 76.1873 33.7733 74.9073 34.392C73.6486 35.0107 72.3366 35.32 70.9713 35.32ZM88.5123 35.32C86.8696 35.32 85.3976 34.9467 84.0963 34.2C82.8163 33.432 81.8029 32.3973 81.0563 31.096C80.3096 29.7733 79.9363 28.2693 79.9363 26.584C79.9363 24.8987 80.3096 23.4053 81.0563 22.104C81.8029 20.7813 82.8163 19.7467 84.0963 19C85.3976 18.232 86.8696 17.848 88.5123 17.848C90.1336 17.848 91.5843 18.232 92.8643 19C94.1656 19.7467 95.1896 20.7813 95.9363 22.104C96.6829 23.4053 97.0563 24.8987 97.0563 26.584C97.0563 28.2693 96.6829 29.7733 95.9363 31.096C95.1896 32.3973 94.1656 33.432 92.8643 34.2C91.5843 34.9467 90.1336 35.32 88.5123 35.32ZM88.5123 32.312C89.5149 32.312 90.4109 32.0667 91.2003 31.576C91.9896 31.064 92.6083 30.3813 93.0563 29.528C93.5043 28.6533 93.7176 27.672 93.6963 26.584C93.7176 25.4747 93.5043 24.4933 93.0563 23.64C92.6083 22.7653 91.9896 22.0827 91.2003 21.592C90.4109 21.1013 89.5149 20.856 88.5123 20.856C87.5096 20.856 86.6029 21.112 85.7923 21.624C85.0029 22.1147 84.3843 22.7973 83.9363 23.672C83.4883 24.5253 83.2749 25.496 83.2963 26.584C83.2749 27.672 83.4883 28.6533 83.9363 29.528C84.3843 30.3813 85.0029 31.064 85.7923 31.576C86.6029 32.0667 87.5096 32.312 88.5123 32.312ZM100.584 35V18.2H103.912V21.784L103.304 22.168C103.474 21.6133 103.741 21.08 104.104 20.568C104.488 20.056 104.946 19.608 105.48 19.224C106.034 18.8187 106.621 18.4987 107.24 18.264C107.88 18.0293 108.53 17.912 109.192 17.912C110.152 17.912 110.994 18.072 111.72 18.392C112.445 18.712 113.042 19.192 113.512 19.832C113.981 20.472 114.322 21.272 114.536 22.232L114.024 22.104L114.248 21.56C114.482 21.0693 114.802 20.6107 115.208 20.184C115.634 19.736 116.114 19.3413 116.648 19C117.181 18.6587 117.746 18.392 118.344 18.2C118.941 18.008 119.528 17.912 120.104 17.912C121.362 17.912 122.397 18.168 123.208 18.68C124.04 19.192 124.658 19.9707 125.064 21.016C125.49 22.0613 125.704 23.3627 125.704 24.92V35H122.376V25.112C122.376 24.152 122.248 23.3733 121.992 22.776C121.757 22.1573 121.394 21.6987 120.904 21.4C120.413 21.1013 119.784 20.952 119.016 20.952C118.418 20.952 117.853 21.0587 117.32 21.272C116.808 21.464 116.36 21.7413 115.976 22.104C115.592 22.4667 115.293 22.8933 115.08 23.384C114.866 23.8533 114.76 24.376 114.76 24.952V35H111.432V25.048C111.432 24.1733 111.304 23.4373 111.048 22.84C110.792 22.2213 110.418 21.752 109.928 21.432C109.437 21.112 108.84 20.952 108.136 20.952C107.538 20.952 106.984 21.0587 106.472 21.272C105.96 21.464 105.512 21.7413 105.128 22.104C104.744 22.4453 104.445 22.8613 104.232 23.352C104.018 23.8213 103.912 24.3333 103.912 24.888V35H100.584ZM137.957 35.32C136.229 35.32 134.693 34.9573 133.349 34.232C132.026 33.4853 130.981 32.472 130.213 31.192C129.466 29.912 129.093 28.44 129.093 26.776C129.093 25.4533 129.306 24.248 129.733 23.16C130.159 22.072 130.746 21.1333 131.493 20.344C132.261 19.5333 133.167 18.9147 134.213 18.488C135.279 18.04 136.431 17.816 137.669 17.816C138.757 17.816 139.77 18.0293 140.709 18.456C141.647 18.8613 142.458 19.4267 143.141 20.152C143.845 20.8773 144.378 21.7413 144.741 22.744C145.125 23.7253 145.306 24.8027 145.285 25.976L145.253 27.384H131.525L130.789 24.76H142.405L141.925 25.304V24.536C141.861 23.832 141.626 23.2027 141.221 22.648C140.815 22.0933 140.303 21.656 139.685 21.336C139.066 21.016 138.394 20.856 137.669 20.856C136.517 20.856 135.546 21.08 134.757 21.528C133.967 21.9547 133.37 22.5947 132.965 23.448C132.559 24.28 132.357 25.3147 132.357 26.552C132.357 27.7253 132.602 28.7493 133.093 29.624C133.583 30.4773 134.277 31.1387 135.173 31.608C136.069 32.0773 137.103 32.312 138.277 32.312C139.109 32.312 139.877 32.1733 140.581 31.896C141.306 31.6187 142.085 31.1173 142.917 30.392L144.581 32.728C144.069 33.24 143.439 33.688 142.693 34.072C141.967 34.456 141.189 34.7653 140.357 35C139.546 35.2133 138.746 35.32 137.957 35.32ZM159.915 35V13.912H163.211V35H159.915ZM156.427 21.4V18.2H167.115V21.4H156.427ZM177.512 35.32C175.87 35.32 174.398 34.9467 173.096 34.2C171.816 33.432 170.803 32.3973 170.056 31.096C169.31 29.7733 168.936 28.2693 168.936 26.584C168.936 24.8987 169.31 23.4053 170.056 22.104C170.803 20.7813 171.816 19.7467 173.096 19C174.398 18.232 175.87 17.848 177.512 17.848C179.134 17.848 180.584 18.232 181.864 19C183.166 19.7467 184.19 20.7813 184.936 22.104C185.683 23.4053 186.056 24.8987 186.056 26.584C186.056 28.2693 185.683 29.7733 184.936 31.096C184.19 32.3973 183.166 33.432 181.864 34.2C180.584 34.9467 179.134 35.32 177.512 35.32ZM177.512 32.312C178.515 32.312 179.411 32.0667 180.2 31.576C180.99 31.064 181.608 30.3813 182.056 29.528C182.504 28.6533 182.718 27.672 182.696 26.584C182.718 25.4747 182.504 24.4933 182.056 23.64C181.608 22.7653 180.99 22.0827 180.2 21.592C179.411 21.1013 178.515 20.856 177.512 20.856C176.51 20.856 175.603 21.112 174.792 21.624C174.003 22.1147 173.384 22.7973 172.936 23.672C172.488 24.5253 172.275 25.496 172.296 26.584C172.275 27.672 172.488 28.6533 172.936 29.528C173.384 30.3813 174.003 31.064 174.792 31.576C175.603 32.0667 176.51 32.312 177.512 32.312ZM201.433 42.36L204.825 34.52L204.857 37.144L196.473 18.2H200.312L205.561 30.552C205.667 30.7653 205.795 31.096 205.945 31.544C206.094 31.9707 206.222 32.3973 206.329 32.824L205.497 33.016C205.667 32.568 205.827 32.12 205.977 31.672C206.147 31.224 206.307 30.776 206.457 30.328L210.841 18.2H214.745L207.833 35L204.985 42.36H201.433ZM224.45 35.32C222.807 35.32 221.335 34.9467 220.034 34.2C218.754 33.432 217.74 32.3973 216.994 31.096C216.247 29.7733 215.874 28.2693 215.874 26.584C215.874 24.8987 216.247 23.4053 216.994 22.104C217.74 20.7813 218.754 19.7467 220.034 19C221.335 18.232 222.807 17.848 224.45 17.848C226.071 17.848 227.522 18.232 228.802 19C230.103 19.7467 231.127 20.7813 231.874 22.104C232.62 23.4053 232.994 24.8987 232.994 26.584C232.994 28.2693 232.62 29.7733 231.874 31.096C231.127 32.3973 230.103 33.432 228.802 34.2C227.522 34.9467 226.071 35.32 224.45 35.32ZM224.45 32.312C225.452 32.312 226.348 32.0667 227.138 31.576C227.927 31.064 228.546 30.3813 228.994 29.528C229.442 28.6533 229.655 27.672 229.634 26.584C229.655 25.4747 229.442 24.4933 228.994 23.64C228.546 22.7653 227.927 22.0827 227.138 21.592C226.348 21.1013 225.452 20.856 224.45 20.856C223.447 20.856 222.54 21.112 221.73 21.624C220.94 22.1147 220.322 22.7973 219.874 23.672C219.426 24.5253 219.212 25.496 219.234 26.584C219.212 27.672 219.426 28.6533 219.874 29.528C220.322 30.3813 220.94 31.064 221.73 31.576C222.54 32.0667 223.447 32.312 224.45 32.312ZM242.473 35.32C241.279 35.32 240.233 35.0427 239.337 34.488C238.463 33.9333 237.78 33.1547 237.289 32.152C236.82 31.1493 236.585 29.9547 236.585 28.568V18.2H239.881V27.672C239.881 28.6533 240.031 29.5067 240.329 30.232C240.649 30.936 241.097 31.48 241.673 31.864C242.271 32.248 242.985 32.44 243.817 32.44C244.436 32.44 245.001 32.344 245.513 32.152C246.025 31.9387 246.463 31.6507 246.825 31.288C247.209 30.9253 247.508 30.488 247.721 29.976C247.935 29.464 248.041 28.9093 248.041 28.312V18.2H251.337V35H248.041V31.48L248.617 31.096C248.361 31.8853 247.924 32.6 247.305 33.24C246.708 33.88 245.993 34.392 245.161 34.776C244.329 35.1387 243.433 35.32 242.473 35.32ZM255.96 35V18.2H259.288V23.48L258.968 22.2C259.203 21.3893 259.598 20.6533 260.152 19.992C260.728 19.3307 261.379 18.808 262.104 18.424C262.851 18.04 263.619 17.848 264.408 17.848C264.771 17.848 265.112 17.88 265.432 17.944C265.774 18.008 266.04 18.0827 266.232 18.168L265.368 21.752C265.112 21.6453 264.824 21.56 264.504 21.496C264.206 21.4107 263.907 21.368 263.608 21.368C263.032 21.368 262.478 21.4853 261.944 21.72C261.432 21.9333 260.974 22.2427 260.568 22.648C260.184 23.032 259.875 23.4907 259.64 24.024C259.406 24.536 259.288 25.1013 259.288 25.72V35H255.96Z"/>
</mask>
<path d="M11.904 35L4.768 12.6H8.448L12.768 26.616C12.896 26.9573 13.0133 27.3627 13.12 27.832C13.2267 28.28 13.3227 28.7387 13.408 29.208C13.4933 29.6773 13.568 30.1147 13.632 30.52C13.7173 30.9253 13.792 31.256 13.856 31.512L12.928 31.48C13.248 30.3493 13.4933 29.4747 13.664 28.856C13.856 28.2373 14.0053 27.768 14.112 27.448C14.2187 27.1067 14.3147 26.8187 14.4 26.584L18.432 16.472H21.536L25.44 26.584C25.6533 27.096 25.8347 27.608 25.984 28.12C26.1547 28.6107 26.304 29.112 26.432 29.624C26.56 30.1147 26.6987 30.6373 26.848 31.192L26.016 31.416C26.1227 30.84 26.1973 30.392 26.24 30.072C26.304 29.7307 26.3573 29.4533 26.4 29.24C26.4427 29.0267 26.4853 28.824 26.528 28.632C26.5707 28.4187 26.6347 28.152 26.72 27.832C26.8267 27.512 26.9653 27.0747 27.136 26.52L31.392 12.6H35.104L27.968 35H25.568L19.648 20.984L19.936 21.112L14.24 35H11.904ZM45.2065 35.32C43.4785 35.32 41.9425 34.9573 40.5985 34.232C39.2758 33.4853 38.2305 32.472 37.4625 31.192C36.7158 29.912 36.3425 28.44 36.3425 26.776C36.3425 25.4533 36.5558 24.248 36.9825 23.16C37.4092 22.072 37.9958 21.1333 38.7425 20.344C39.5105 19.5333 40.4172 18.9147 41.4625 18.488C42.5292 18.04 43.6812 17.816 44.9185 17.816C46.0065 17.816 47.0198 18.0293 47.9585 18.456C48.8972 18.8613 49.7078 19.4267 50.3905 20.152C51.0945 20.8773 51.6278 21.7413 51.9905 22.744C52.3745 23.7253 52.5558 24.8027 52.5345 25.976L52.5025 27.384H38.7745L38.0385 24.76H49.6545L49.1745 25.304V24.536C49.1105 23.832 48.8758 23.2027 48.4705 22.648C48.0652 22.0933 47.5532 21.656 46.9345 21.336C46.3158 21.016 45.6438 20.856 44.9185 20.856C43.7665 20.856 42.7958 21.08 42.0065 21.528C41.2172 21.9547 40.6198 22.5947 40.2145 23.448C39.8092 24.28 39.6065 25.3147 39.6065 26.552C39.6065 27.7253 39.8518 28.7493 40.3425 29.624C40.8332 30.4773 41.5265 31.1387 42.4225 31.608C43.3185 32.0773 44.3532 32.312 45.5265 32.312C46.3585 32.312 47.1265 32.1733 47.8305 31.896C48.5558 31.6187 49.3345 31.1173 50.1665 30.392L51.8305 32.728C51.3185 33.24 50.6892 33.688 49.9425 34.072C49.2172 34.456 48.4385 34.7653 47.6065 35C46.7958 35.2133 45.9958 35.32 45.2065 35.32ZM56.1805 35V11.32H59.4765V35H56.1805ZM70.9713 35.32C69.4139 35.32 68.0166 34.936 66.7793 34.168C65.5633 33.4 64.5926 32.3547 63.8673 31.032C63.1633 29.7093 62.8113 28.2267 62.8113 26.584C62.8113 24.9413 63.1633 23.4587 63.8673 22.136C64.5926 20.8133 65.5633 19.768 66.7793 19C68.0166 18.232 69.4139 17.848 70.9713 17.848C72.4646 17.848 73.8193 18.1573 75.0353 18.776C76.2726 19.3733 77.2113 20.1947 77.8513 21.24L76.0273 23.48C75.6859 22.9893 75.2486 22.5413 74.7153 22.136C74.1819 21.7307 73.6166 21.4107 73.0193 21.176C72.4219 20.9413 71.8459 20.824 71.2913 20.824C70.2673 20.824 69.3499 21.08 68.5393 21.592C67.7499 22.0827 67.1206 22.7653 66.6513 23.64C66.1819 24.5147 65.9473 25.496 65.9473 26.584C65.9473 27.672 66.1926 28.6533 66.6833 29.528C67.1739 30.3813 67.8246 31.064 68.6353 31.576C69.4459 32.088 70.3419 32.344 71.3233 32.344C71.8993 32.344 72.4539 32.248 72.9873 32.056C73.5419 31.864 74.0753 31.576 74.5873 31.192C75.0993 30.808 75.5793 30.3387 76.0273 29.784L77.8513 32.024C77.1686 32.984 76.1873 33.7733 74.9073 34.392C73.6486 35.0107 72.3366 35.32 70.9713 35.32ZM88.5123 35.32C86.8696 35.32 85.3976 34.9467 84.0963 34.2C82.8163 33.432 81.8029 32.3973 81.0563 31.096C80.3096 29.7733 79.9363 28.2693 79.9363 26.584C79.9363 24.8987 80.3096 23.4053 81.0563 22.104C81.8029 20.7813 82.8163 19.7467 84.0963 19C85.3976 18.232 86.8696 17.848 88.5123 17.848C90.1336 17.848 91.5843 18.232 92.8643 19C94.1656 19.7467 95.1896 20.7813 95.9363 22.104C96.6829 23.4053 97.0563 24.8987 97.0563 26.584C97.0563 28.2693 96.6829 29.7733 95.9363 31.096C95.1896 32.3973 94.1656 33.432 92.8643 34.2C91.5843 34.9467 90.1336 35.32 88.5123 35.32ZM88.5123 32.312C89.5149 32.312 90.4109 32.0667 91.2003 31.576C91.9896 31.064 92.6083 30.3813 93.0563 29.528C93.5043 28.6533 93.7176 27.672 93.6963 26.584C93.7176 25.4747 93.5043 24.4933 93.0563 23.64C92.6083 22.7653 91.9896 22.0827 91.2003 21.592C90.4109 21.1013 89.5149 20.856 88.5123 20.856C87.5096 20.856 86.6029 21.112 85.7923 21.624C85.0029 22.1147 84.3843 22.7973 83.9363 23.672C83.4883 24.5253 83.2749 25.496 83.2963 26.584C83.2749 27.672 83.4883 28.6533 83.9363 29.528C84.3843 30.3813 85.0029 31.064 85.7923 31.576C86.6029 32.0667 87.5096 32.312 88.5123 32.312ZM100.584 35V18.2H103.912V21.784L103.304 22.168C103.474 21.6133 103.741 21.08 104.104 20.568C104.488 20.056 104.946 19.608 105.48 19.224C106.034 18.8187 106.621 18.4987 107.24 18.264C107.88 18.0293 108.53 17.912 109.192 17.912C110.152 17.912 110.994 18.072 111.72 18.392C112.445 18.712 113.042 19.192 113.512 19.832C113.981 20.472 114.322 21.272 114.536 22.232L114.024 22.104L114.248 21.56C114.482 21.0693 114.802 20.6107 115.208 20.184C115.634 19.736 116.114 19.3413 116.648 19C117.181 18.6587 117.746 18.392 118.344 18.2C118.941 18.008 119.528 17.912 120.104 17.912C121.362 17.912 122.397 18.168 123.208 18.68C124.04 19.192 124.658 19.9707 125.064 21.016C125.49 22.0613 125.704 23.3627 125.704 24.92V35H122.376V25.112C122.376 24.152 122.248 23.3733 121.992 22.776C121.757 22.1573 121.394 21.6987 120.904 21.4C120.413 21.1013 119.784 20.952 119.016 20.952C118.418 20.952 117.853 21.0587 117.32 21.272C116.808 21.464 116.36 21.7413 115.976 22.104C115.592 22.4667 115.293 22.8933 115.08 23.384C114.866 23.8533 114.76 24.376 114.76 24.952V35H111.432V25.048C111.432 24.1733 111.304 23.4373 111.048 22.84C110.792 22.2213 110.418 21.752 109.928 21.432C109.437 21.112 108.84 20.952 108.136 20.952C107.538 20.952 106.984 21.0587 106.472 21.272C105.96 21.464 105.512 21.7413 105.128 22.104C104.744 22.4453 104.445 22.8613 104.232 23.352C104.018 23.8213 103.912 24.3333 103.912 24.888V35H100.584ZM137.957 35.32C136.229 35.32 134.693 34.9573 133.349 34.232C132.026 33.4853 130.981 32.472 130.213 31.192C129.466 29.912 129.093 28.44 129.093 26.776C129.093 25.4533 129.306 24.248 129.733 23.16C130.159 22.072 130.746 21.1333 131.493 20.344C132.261 19.5333 133.167 18.9147 134.213 18.488C135.279 18.04 136.431 17.816 137.669 17.816C138.757 17.816 139.77 18.0293 140.709 18.456C141.647 18.8613 142.458 19.4267 143.141 20.152C143.845 20.8773 144.378 21.7413 144.741 22.744C145.125 23.7253 145.306 24.8027 145.285 25.976L145.253 27.384H131.525L130.789 24.76H142.405L141.925 25.304V24.536C141.861 23.832 141.626 23.2027 141.221 22.648C140.815 22.0933 140.303 21.656 139.685 21.336C139.066 21.016 138.394 20.856 137.669 20.856C136.517 20.856 135.546 21.08 134.757 21.528C133.967 21.9547 133.37 22.5947 132.965 23.448C132.559 24.28 132.357 25.3147 132.357 26.552C132.357 27.7253 132.602 28.7493 133.093 29.624C133.583 30.4773 134.277 31.1387 135.173 31.608C136.069 32.0773 137.103 32.312 138.277 32.312C139.109 32.312 139.877 32.1733 140.581 31.896C141.306 31.6187 142.085 31.1173 142.917 30.392L144.581 32.728C144.069 33.24 143.439 33.688 142.693 34.072C141.967 34.456 141.189 34.7653 140.357 35C139.546 35.2133 138.746 35.32 137.957 35.32ZM159.915 35V13.912H163.211V35H159.915ZM156.427 21.4V18.2H167.115V21.4H156.427ZM177.512 35.32C175.87 35.32 174.398 34.9467 173.096 34.2C171.816 33.432 170.803 32.3973 170.056 31.096C169.31 29.7733 168.936 28.2693 168.936 26.584C168.936 24.8987 169.31 23.4053 170.056 22.104C170.803 20.7813 171.816 19.7467 173.096 19C174.398 18.232 175.87 17.848 177.512 17.848C179.134 17.848 180.584 18.232 181.864 19C183.166 19.7467 184.19 20.7813 184.936 22.104C185.683 23.4053 186.056 24.8987 186.056 26.584C186.056 28.2693 185.683 29.7733 184.936 31.096C184.19 32.3973 183.166 33.432 181.864 34.2C180.584 34.9467 179.134 35.32 177.512 35.32ZM177.512 32.312C178.515 32.312 179.411 32.0667 180.2 31.576C180.99 31.064 181.608 30.3813 182.056 29.528C182.504 28.6533 182.718 27.672 182.696 26.584C182.718 25.4747 182.504 24.4933 182.056 23.64C181.608 22.7653 180.99 22.0827 180.2 21.592C179.411 21.1013 178.515 20.856 177.512 20.856C176.51 20.856 175.603 21.112 174.792 21.624C174.003 22.1147 173.384 22.7973 172.936 23.672C172.488 24.5253 172.275 25.496 172.296 26.584C172.275 27.672 172.488 28.6533 172.936 29.528C173.384 30.3813 174.003 31.064 174.792 31.576C175.603 32.0667 176.51 32.312 177.512 32.312ZM201.433 42.36L204.825 34.52L204.857 37.144L196.473 18.2H200.312L205.561 30.552C205.667 30.7653 205.795 31.096 205.945 31.544C206.094 31.9707 206.222 32.3973 206.329 32.824L205.497 33.016C205.667 32.568 205.827 32.12 205.977 31.672C206.147 31.224 206.307 30.776 206.457 30.328L210.841 18.2H214.745L207.833 35L204.985 42.36H201.433ZM224.45 35.32C222.807 35.32 221.335 34.9467 220.034 34.2C218.754 33.432 217.74 32.3973 216.994 31.096C216.247 29.7733 215.874 28.2693 215.874 26.584C215.874 24.8987 216.247 23.4053 216.994 22.104C217.74 20.7813 218.754 19.7467 220.034 19C221.335 18.232 222.807 17.848 224.45 17.848C226.071 17.848 227.522 18.232 228.802 19C230.103 19.7467 231.127 20.7813 231.874 22.104C232.62 23.4053 232.994 24.8987 232.994 26.584C232.994 28.2693 232.62 29.7733 231.874 31.096C231.127 32.3973 230.103 33.432 228.802 34.2C227.522 34.9467 226.071 35.32 224.45 35.32ZM224.45 32.312C225.452 32.312 226.348 32.0667 227.138 31.576C227.927 31.064 228.546 30.3813 228.994 29.528C229.442 28.6533 229.655 27.672 229.634 26.584C229.655 25.4747 229.442 24.4933 228.994 23.64C228.546 22.7653 227.927 22.0827 227.138 21.592C226.348 21.1013 225.452 20.856 224.45 20.856C223.447 20.856 222.54 21.112 221.73 21.624C220.94 22.1147 220.322 22.7973 219.874 23.672C219.426 24.5253 219.212 25.496 219.234 26.584C219.212 27.672 219.426 28.6533 219.874 29.528C220.322 30.3813 220.94 31.064 221.73 31.576C222.54 32.0667 223.447 32.312 224.45 32.312ZM242.473 35.32C241.279 35.32 240.233 35.0427 239.337 34.488C238.463 33.9333 237.78 33.1547 237.289 32.152C236.82 31.1493 236.585 29.9547 236.585 28.568V18.2H239.881V27.672C239.881 28.6533 240.031 29.5067 240.329 30.232C240.649 30.936 241.097 31.48 241.673 31.864C242.271 32.248 242.985 32.44 243.817 32.44C244.436 32.44 245.001 32.344 245.513 32.152C246.025 31.9387 246.463 31.6507 246.825 31.288C247.209 30.9253 247.508 30.488 247.721 29.976C247.935 29.464 248.041 28.9093 248.041 28.312V18.2H251.337V35H248.041V31.48L248.617 31.096C248.361 31.8853 247.924 32.6 247.305 33.24C246.708 33.88 245.993 34.392 245.161 34.776C244.329 35.1387 243.433 35.32 242.473 35.32ZM255.96 35V18.2H259.288V23.48L258.968 22.2C259.203 21.3893 259.598 20.6533 260.152 19.992C260.728 19.3307 261.379 18.808 262.104 18.424C262.851 18.04 263.619 17.848 264.408 17.848C264.771 17.848 265.112 17.88 265.432 17.944C265.774 18.008 266.04 18.0827 266.232 18.168L265.368 21.752C265.112 21.6453 264.824 21.56 264.504 21.496C264.206 21.4107 263.907 21.368 263.608 21.368C263.032 21.368 262.478 21.4853 261.944 21.72C261.432 21.9333 260.974 22.2427 260.568 22.648C260.184 23.032 259.875 23.4907 259.64 24.024C259.406 24.536 259.288 25.1013 259.288 25.72V35H255.96Z" fill="white"/>
<path d="M11.904 35L10.9512 35.3035L11.1731 36H11.904V35ZM4.768 12.6V11.6H3.39991L3.81518 12.9035L4.768 12.6ZM8.448 12.6L9.40364 12.3055L9.1862 11.6H8.448V12.6ZM12.768 26.616L11.8124 26.9105L11.8212 26.9391L11.8317 26.9671L12.768 26.616ZM13.12 27.832L12.1448 28.0536L12.1472 28.0636L13.12 27.832ZM13.408 29.208L12.4241 29.3869L12.4241 29.3869L13.408 29.208ZM13.632 30.52L12.6442 30.676L12.6482 30.7011L12.6535 30.726L13.632 30.52ZM13.856 31.512L13.8215 32.5114L15.1481 32.5571L14.8261 31.2695L13.856 31.512ZM12.928 31.48L11.9658 31.2077L11.6183 32.4354L12.8935 32.4794L12.928 31.48ZM13.664 28.856L12.7089 28.5596L12.7042 28.5748L12.7 28.5901L13.664 28.856ZM14.112 27.448L15.0607 27.7642L15.0637 27.7553L15.0665 27.7463L14.112 27.448ZM14.4 26.584L13.4711 26.2136L13.4654 26.2279L13.4602 26.2423L14.4 26.584ZM18.432 16.472V15.472H17.7542L17.5031 16.1016L18.432 16.472ZM21.536 16.472L22.4689 16.1118L22.2219 15.472H21.536V16.472ZM25.44 26.584L24.5071 26.9442L24.5119 26.9565L24.5169 26.9686L25.44 26.584ZM25.984 28.12L25.024 28.4L25.0311 28.4245L25.0395 28.4485L25.984 28.12ZM26.432 29.624L25.4618 29.8665L25.4644 29.8764L26.432 29.624ZM26.848 31.192L27.108 32.1576L28.0736 31.8976L27.8136 30.932L26.848 31.192ZM26.016 31.416L25.0327 31.2339L24.7438 32.7941L26.276 32.3816L26.016 31.416ZM26.24 30.072L25.2571 29.8877L25.2523 29.9137L25.2488 29.9398L26.24 30.072ZM26.4 29.24L27.3806 29.4361L27.3806 29.4361L26.4 29.24ZM26.528 28.632L27.5042 28.8489L27.5065 28.8385L27.5086 28.8281L26.528 28.632ZM26.72 27.832L25.7713 27.5158L25.7616 27.5448L25.7538 27.5743L26.72 27.832ZM27.136 26.52L28.0918 26.8141L28.0923 26.8124L27.136 26.52ZM31.392 12.6V11.6H30.6521L30.4357 12.3076L31.392 12.6ZM35.104 12.6L36.0568 12.9035L36.4721 11.6H35.104V12.6ZM27.968 35V36H28.6989L28.9208 35.3035L27.968 35ZM25.568 35L24.6468 35.3891L24.9048 36H25.568V35ZM19.648 20.984L20.0541 20.0702L17.7426 19.0428L18.7268 21.3731L19.648 20.984ZM19.936 21.112L20.8612 21.4915L21.2298 20.5927L20.3421 20.1982L19.936 21.112ZM14.24 35V36H14.9107L15.1652 35.3795L14.24 35ZM12.8568 34.6965L5.72082 12.2965L3.81518 12.9035L10.9512 35.3035L12.8568 34.6965ZM4.768 13.6H8.448V11.6H4.768V13.6ZM7.49236 12.8945L11.8124 26.9105L13.7236 26.3215L9.40364 12.3055L7.49236 12.8945ZM11.8317 26.9671C11.9397 27.2553 12.0452 27.6153 12.1449 28.0536L14.0951 27.6104C13.9814 27.1101 13.8523 26.6593 13.7043 26.2649L11.8317 26.9671ZM12.1472 28.0636C12.2496 28.4935 12.3419 28.9346 12.4241 29.3869L14.3919 29.0291C14.3034 28.5427 14.2038 28.0665 14.0928 27.6004L12.1472 28.0636ZM12.4241 29.3869C12.5083 29.8498 12.5816 30.2794 12.6442 30.676L14.6198 30.364C14.5544 29.9499 14.4784 29.5049 14.3919 29.0291L12.4241 29.3869ZM12.6535 30.726C12.7401 31.1375 12.8176 31.4816 12.8859 31.7545L14.8261 31.2695C14.7664 31.0304 14.6946 30.7131 14.6106 30.314L12.6535 30.726ZM13.8905 30.5126L12.9625 30.4806L12.8935 32.4794L13.8215 32.5114L13.8905 30.5126ZM13.8902 31.7523C14.2104 30.621 14.4564 29.7438 14.628 29.1219L12.7 28.5901C12.5302 29.2055 12.2856 30.0777 11.9658 31.2077L13.8902 31.7523ZM14.6191 29.1524C14.8105 28.5355 14.9574 28.0741 15.0607 27.7642L13.1633 27.1318C13.0533 27.4619 12.9015 27.9391 12.7089 28.5596L14.6191 29.1524ZM15.0665 27.7463C15.1704 27.4139 15.2614 27.1414 15.3398 26.9257L13.4602 26.2423C13.368 26.496 13.267 26.7994 13.1575 27.1497L15.0665 27.7463ZM15.3289 26.9544L19.3609 16.8424L17.5031 16.1016L13.4711 26.2136L15.3289 26.9544ZM18.432 17.472H21.536V15.472H18.432V17.472ZM20.6031 16.8322L24.5071 26.9442L26.3729 26.2238L22.4689 16.1118L20.6031 16.8322ZM24.5169 26.9686C24.7166 27.4478 24.8854 27.9249 25.024 28.4L26.944 27.84C26.7839 27.2911 26.5901 26.7442 26.3631 26.1994L24.5169 26.9686ZM25.0395 28.4485C25.2002 28.9105 25.341 29.3831 25.4619 29.8665L27.4021 29.3815C27.267 28.8409 27.1092 28.3109 26.9285 27.7915L25.0395 28.4485ZM25.4644 29.8764C25.5931 30.3699 25.7325 30.8951 25.8824 31.452L27.8136 30.932C27.6649 30.3796 27.5269 29.8594 27.3996 29.3716L25.4644 29.8764ZM26.588 30.2264L25.756 30.4504L26.276 32.3816L27.108 32.1576L26.588 30.2264ZM26.9993 31.5981C27.107 31.0165 27.1852 30.5491 27.2312 30.2042L25.2488 29.9398C25.2094 30.2349 25.1384 30.6635 25.0327 31.2339L26.9993 31.5981ZM27.2229 30.2563C27.2865 29.9169 27.339 29.6439 27.3806 29.4361L25.4194 29.0439C25.3756 29.2628 25.3215 29.5445 25.2571 29.8877L27.2229 30.2563ZM27.3806 29.4361C27.422 29.229 27.4632 29.0333 27.5042 28.8489L25.5518 28.4151C25.5075 28.6147 25.4633 28.8243 25.4194 29.0439L27.3806 29.4361ZM27.5086 28.8281C27.5456 28.6431 27.6038 28.3986 27.6862 28.0897L25.7538 27.5743C25.6655 27.9054 25.5958 28.1942 25.5474 28.4359L27.5086 28.8281ZM27.6687 28.1482C27.7789 27.8175 27.9202 27.3717 28.0918 26.8141L26.1802 26.2259C26.0105 26.7776 25.8744 27.2065 25.7713 27.5158L27.6687 28.1482ZM28.0923 26.8124L32.3483 12.8924L30.4357 12.3076L26.1797 26.2276L28.0923 26.8124ZM31.392 13.6H35.104V11.6H31.392V13.6ZM34.1512 12.2965L27.0152 34.6965L28.9208 35.3035L36.0568 12.9035L34.1512 12.2965ZM27.968 34H25.568V36H27.968V34ZM26.4892 34.6109L20.5692 20.5949L18.7268 21.3731L24.6468 35.3891L26.4892 34.6109ZM19.2419 21.8978L19.5299 22.0258L20.3421 20.1982L20.0541 20.0702L19.2419 21.8978ZM19.0108 20.7325L13.3148 34.6205L15.1652 35.3795L20.8612 21.4915L19.0108 20.7325ZM14.24 34H11.904V36H14.24V34ZM40.5985 34.232L40.1069 35.1028L40.1152 35.1075L40.1236 35.112L40.5985 34.232ZM37.4625 31.192L36.5987 31.6959L36.605 31.7065L37.4625 31.192ZM36.9825 23.16L37.9135 23.5251L37.9135 23.5251L36.9825 23.16ZM38.7425 20.344L38.0165 19.6563L38.016 19.6568L38.7425 20.344ZM41.4625 18.488L41.8404 19.4139L41.8497 19.41L41.4625 18.488ZM47.9585 18.456L47.5447 19.3664L47.5533 19.3703L47.5621 19.3741L47.9585 18.456ZM50.3905 20.152L49.6623 20.8374L49.6676 20.843L49.6729 20.8485L50.3905 20.152ZM51.9905 22.744L51.0501 23.0841L51.0545 23.0963L51.0593 23.1084L51.9905 22.744ZM52.5345 25.976L53.5343 25.9987L53.5343 25.9942L52.5345 25.976ZM52.5025 27.384V28.384H53.48L53.5022 27.4067L52.5025 27.384ZM38.7745 27.384L37.8117 27.6541L38.0164 28.384H38.7745V27.384ZM38.0385 24.76V23.76H36.7194L37.0757 25.0301L38.0385 24.76ZM49.6545 24.76L50.4043 25.4216L51.8705 23.76H49.6545V24.76ZM49.1745 25.304H48.1745V27.9488L49.9243 25.9656L49.1745 25.304ZM49.1745 24.536H50.1745V24.4906L50.1704 24.4455L49.1745 24.536ZM48.4705 22.648L49.2779 22.058L49.2779 22.058L48.4705 22.648ZM46.9345 21.336L46.4751 22.2242L46.4751 22.2242L46.9345 21.336ZM42.0065 21.528L42.482 22.4077L42.4911 22.4028L42.5001 22.3977L42.0065 21.528ZM40.2145 23.448L41.1135 23.886L41.1178 23.8771L40.2145 23.448ZM40.3425 29.624L39.4703 30.1133L39.4756 30.1225L40.3425 29.624ZM42.4225 31.608L41.9585 32.4938L41.9585 32.4938L42.4225 31.608ZM47.8305 31.896L47.4733 30.9619L47.464 30.9656L47.8305 31.896ZM50.1665 30.392L50.981 29.8118L50.3409 28.9133L49.5094 29.6382L50.1665 30.392ZM51.8305 32.728L52.5376 33.4351L53.1358 32.8369L52.645 32.1478L51.8305 32.728ZM49.9425 34.072L49.4851 33.1826L49.4746 33.1882L49.9425 34.072ZM47.6065 35L47.861 35.9671L47.8695 35.9648L47.878 35.9624L47.6065 35ZM45.2065 34.32C43.6222 34.32 42.2532 33.9887 41.0734 33.352L40.1236 35.112C41.6318 35.926 43.3348 36.32 45.2065 36.32V34.32ZM41.0901 33.3612C39.9154 32.6981 38.9973 31.8064 38.32 30.6775L36.605 31.7065C37.4637 33.1376 38.6363 34.2726 40.1069 35.1028L41.0901 33.3612ZM38.3263 30.6881C37.6794 29.5792 37.3425 28.2852 37.3425 26.776H35.3425C35.3425 28.5948 35.7523 30.2448 36.5987 31.6959L38.3263 30.6881ZM37.3425 26.776C37.3425 25.5619 37.538 24.4825 37.9135 23.5251L36.0515 22.7949C35.5736 24.0135 35.3425 25.3447 35.3425 26.776H37.3425ZM37.9135 23.5251C38.2969 22.5475 38.817 21.7204 39.469 21.0312L38.016 19.6568C37.1747 20.5462 36.5215 21.5965 36.0515 22.7949L37.9135 23.5251ZM39.4685 21.0317C40.1376 20.3255 40.9252 19.7874 41.8404 19.4138L41.0846 17.5622C39.9091 18.0419 38.8834 18.7412 38.0165 19.6563L39.4685 21.0317ZM41.8497 19.41C42.7855 19.017 43.8048 18.816 44.9185 18.816V16.816C43.5575 16.816 42.2729 17.063 41.0753 17.566L41.8497 19.41ZM44.9185 18.816C45.8718 18.816 46.7431 19.002 47.5447 19.3664L48.3723 17.5456C47.2966 17.0567 46.1412 16.816 44.9185 16.816V18.816ZM47.5621 19.3741C48.3788 19.7268 49.0757 20.2141 49.6623 20.8374L51.1187 19.4666C50.34 18.6392 49.4155 17.9959 48.3549 17.5379L47.5621 19.3741ZM49.6729 20.8485C50.2729 21.4666 50.7329 22.2072 51.0501 23.0841L52.9309 22.4039C52.5227 21.2754 51.9161 20.2881 51.1081 19.4555L49.6729 20.8485ZM51.0593 23.1084C51.3905 23.9548 51.5539 24.9004 51.5347 25.9578L53.5343 25.9942C53.5578 24.7049 53.3585 23.4959 52.9217 22.3796L51.0593 23.1084ZM51.5348 25.9533L51.5028 27.3613L53.5022 27.4067L53.5342 25.9987L51.5348 25.9533ZM52.5025 26.384H38.7745V28.384H52.5025V26.384ZM39.7373 27.1139L39.0013 24.4899L37.0757 25.0301L37.8117 27.6541L39.7373 27.1139ZM38.0385 25.76H49.6545V23.76H38.0385V25.76ZM48.9047 24.0984L48.4247 24.6424L49.9243 25.9656L50.4043 25.4216L48.9047 24.0984ZM50.1745 25.304V24.536H48.1745V25.304H50.1745ZM50.1704 24.4455C50.0905 23.5665 49.7934 22.7634 49.2779 22.058L47.6631 23.238C47.9583 23.642 48.1305 24.0975 48.1786 24.6265L50.1704 24.4455ZM49.2779 22.058C48.7799 21.3765 48.1481 20.8379 47.3939 20.4478L46.4751 22.2242C46.9582 22.4741 47.3504 22.8101 47.6631 23.238L49.2779 22.058ZM47.3939 20.4478C46.6273 20.0513 45.7969 19.856 44.9185 19.856V21.856C45.4908 21.856 46.0044 21.9807 46.4751 22.2242L47.3939 20.4478ZM44.9185 19.856C43.6392 19.856 42.488 20.1049 41.5129 20.6583L42.5001 22.3977C43.1036 22.0551 43.8938 21.856 44.9185 21.856V19.856ZM41.531 20.6483C40.5446 21.1815 39.8025 21.9846 39.3112 23.0189L41.1178 23.8771C41.4371 23.2047 41.8898 22.7278 42.482 22.4077L41.531 20.6483ZM39.3155 23.01C38.8252 24.0164 38.6065 25.2117 38.6065 26.552H40.6065C40.6065 25.4177 40.7931 24.5436 41.1135 23.886L39.3155 23.01ZM38.6065 26.552C38.6065 27.8674 38.8826 29.0655 39.4704 30.1133L41.2146 29.1347C40.8211 28.4332 40.6065 27.5833 40.6065 26.552H38.6065ZM39.4756 30.1225C40.0637 31.1453 40.899 31.9389 41.9585 32.4938L42.8865 30.7222C42.154 30.3385 41.6026 29.8093 41.2094 29.1255L39.4756 30.1225ZM41.9585 32.4938C43.019 33.0493 44.2175 33.312 45.5265 33.312V31.312C44.4888 31.312 43.618 31.1053 42.8865 30.7222L41.9585 32.4938ZM45.5265 33.312C46.4714 33.312 47.3652 33.1541 48.197 32.8264L47.464 30.9656C46.8878 31.1926 46.2456 31.312 45.5265 31.312V33.312ZM48.1876 32.8301C49.0585 32.4971 49.9373 31.9185 50.8236 31.1458L49.5094 29.6382C48.7317 30.3162 48.0532 30.7403 47.4734 30.9619L48.1876 32.8301ZM49.352 30.9722L51.016 33.3082L52.645 32.1478L50.981 29.8118L49.352 30.9722ZM51.1234 32.0209C50.6953 32.449 50.154 32.8387 49.4852 33.1827L50.3998 34.9613C51.2243 34.5373 51.9417 34.031 52.5376 33.4351L51.1234 32.0209ZM49.4746 33.1882C48.815 33.5374 48.1026 33.8211 47.335 34.0376L47.878 35.9624C48.7744 35.7096 49.6193 35.3746 50.4104 34.9558L49.4746 33.1882ZM47.352 34.0329C46.6193 34.2258 45.9048 34.32 45.2065 34.32V36.32C46.0869 36.32 46.9724 36.2009 47.861 35.9671L47.352 34.0329ZM56.1805 35H55.1805V36H56.1805V35ZM56.1805 11.32V10.32H55.1805V11.32H56.1805ZM59.4765 11.32H60.4765V10.32H59.4765V11.32ZM59.4765 35V36H60.4765V35H59.4765ZM57.1805 35V11.32H55.1805V35H57.1805ZM56.1805 12.32H59.4765V10.32H56.1805V12.32ZM58.4765 11.32V35H60.4765V11.32H58.4765ZM59.4765 34H56.1805V36H59.4765V34ZM66.7793 34.168L66.2452 35.0135L66.2519 35.0176L66.7793 34.168ZM63.8673 31.032L62.9844 31.5019L62.9904 31.5128L63.8673 31.032ZM63.8673 22.136L62.9904 21.6551L62.9845 21.6662L63.8673 22.136ZM66.7793 19L66.2519 18.1503L66.2453 18.1545L66.7793 19ZM75.0353 18.776L74.5818 19.6673L74.5911 19.672L74.6005 19.6766L75.0353 18.776ZM77.8513 21.24L78.6267 21.8714L79.074 21.3221L78.7041 20.7178L77.8513 21.24ZM76.0273 23.48L75.2063 24.0511L75.9644 25.1408L76.8027 24.1114L76.0273 23.48ZM74.7153 22.136L74.1102 22.9322L74.1102 22.9322L74.7153 22.136ZM73.0193 21.176L72.6536 22.1068L72.6536 22.1068L73.0193 21.176ZM68.5393 21.592L69.0672 22.4413L69.0732 22.4375L68.5393 21.592ZM66.6833 29.528L65.8111 30.0173L65.8163 30.0265L66.6833 29.528ZM72.9873 32.056L72.6601 31.1109L72.6485 31.1151L72.9873 32.056ZM74.5873 31.192L75.1873 31.992L75.1873 31.992L74.5873 31.192ZM76.0273 29.784L76.8027 29.1526L76.0241 28.1964L75.2493 29.1557L76.0273 29.784ZM77.8513 32.024L78.6662 32.6035L79.1075 31.983L78.6267 31.3926L77.8513 32.024ZM74.9073 34.392L74.4721 33.4916L74.4661 33.4946L74.9073 34.392ZM70.9713 34.32C69.5868 34.32 68.3745 33.9812 67.3066 33.3184L66.2519 35.0176C67.6586 35.8908 69.241 36.32 70.9713 36.32V34.32ZM67.3132 33.3225C66.2477 32.6495 65.392 31.7327 64.7441 30.5512L62.9904 31.5128C63.7932 32.9766 64.8788 34.1505 66.2453 35.0135L67.3132 33.3225ZM64.75 30.5622C64.1302 29.3977 63.8113 28.0789 63.8113 26.584H61.8113C61.8113 28.3744 62.1963 30.0209 62.9845 31.5018L64.75 30.5622ZM63.8113 26.584C63.8113 25.0891 64.1302 23.7703 64.75 22.6058L62.9845 21.6662C62.1963 23.1471 61.8113 24.7936 61.8113 26.584H63.8113ZM64.7441 22.6168C65.392 21.4353 66.2477 20.5185 67.3132 19.8455L66.2453 18.1545C64.8788 19.0175 63.7932 20.1914 62.9904 21.6552L64.7441 22.6168ZM67.3066 19.8496C68.3745 19.1868 69.5868 18.848 70.9713 18.848V16.848C69.241 16.848 67.6586 17.2772 66.2519 18.1504L67.3066 19.8496ZM70.9713 18.848C72.3221 18.848 73.5192 19.1267 74.5818 19.6673L75.4887 17.8847C74.1193 17.188 72.607 16.848 70.9713 16.848V18.848ZM74.6005 19.6766C75.6866 20.2009 76.4704 20.8997 76.9984 21.7622L78.7041 20.7178C77.9521 19.4896 76.8585 18.5458 75.47 17.8754L74.6005 19.6766ZM77.0758 20.6086L75.2518 22.8486L76.8027 24.1114L78.6267 21.8714L77.0758 20.6086ZM76.8482 22.9089C76.4404 22.3227 75.927 21.8009 75.3203 21.3398L74.1102 22.9322C74.5702 23.2818 74.9315 23.6559 75.2063 24.0511L76.8482 22.9089ZM75.3203 21.3398C74.717 20.8813 74.0715 20.515 73.3849 20.2452L72.6536 22.1068C73.1616 22.3063 73.6469 22.58 74.1102 22.9322L75.3203 21.3398ZM73.3849 20.2452C72.6891 19.9719 71.9891 19.824 71.2913 19.824V21.824C71.7027 21.824 72.1547 21.9108 72.6536 22.1068L73.3849 20.2452ZM71.2913 19.824C70.0916 19.824 68.9867 20.1266 68.0053 20.7465L69.0732 22.4375C69.7131 22.0334 70.4429 21.824 71.2913 21.824V19.824ZM68.0113 20.7427C67.0632 21.3321 66.3164 22.1491 65.7701 23.1672L67.5324 24.1128C67.9248 23.3815 68.4366 22.8332 69.0672 22.4413L68.0113 20.7427ZM65.7701 23.1672C65.2154 24.2009 64.9473 25.3472 64.9473 26.584H66.9473C66.9473 25.6448 67.1484 24.8285 67.5324 24.1128L65.7701 23.1672ZM64.9473 26.584C64.9473 27.8284 65.2296 28.9806 65.8111 30.0173L67.5554 29.0387C67.1556 28.326 66.9473 27.5156 66.9473 26.584H64.9473ZM65.8163 30.0265C66.3859 31.0169 67.1493 31.8202 68.1013 32.4215L69.1692 30.7305C68.4999 30.3078 67.962 29.7457 67.5502 29.0295L65.8163 30.0265ZM68.1013 32.4215C69.0757 33.0369 70.1576 33.344 71.3233 33.344V31.344C70.5263 31.344 69.8162 31.1391 69.1692 30.7305L68.1013 32.4215ZM71.3233 33.344C72.0128 33.344 72.6822 33.2286 73.326 32.9969L72.6485 31.1151C72.2256 31.2674 71.7857 31.344 71.3233 31.344V33.344ZM73.3144 33.001C73.9754 32.7722 74.5998 32.4326 75.1873 31.992L73.9873 30.392C73.5507 30.7194 73.1084 30.9558 72.6601 31.111L73.3144 33.001ZM75.1873 31.992C75.7725 31.5531 76.311 31.0242 76.8052 30.4123L75.2493 29.1557C74.8475 29.6532 74.426 30.0629 73.9873 30.392L75.1873 31.992ZM75.2518 30.4154L77.0758 32.6554L78.6267 31.3926L76.8027 29.1526L75.2518 30.4154ZM77.0363 31.4445C76.4695 32.2416 75.6317 32.9312 74.4721 33.4917L75.3424 35.2923C76.7428 34.6155 77.8677 33.7264 78.6662 32.6035L77.0363 31.4445ZM74.4661 33.4946C73.3409 34.0476 72.1794 34.32 70.9713 34.32V36.32C72.4938 36.32 73.9563 35.9737 75.3484 35.2894L74.4661 33.4946ZM84.0963 34.2L83.5818 35.0575L83.5901 35.0625L83.5986 35.0674L84.0963 34.2ZM81.0563 31.096L80.1854 31.5876L80.1889 31.5937L81.0563 31.096ZM81.0563 22.104L81.9236 22.6017L81.9271 22.5956L81.0563 22.104ZM84.0963 19L84.6001 19.8638L84.6045 19.8612L84.0963 19ZM92.8643 19L92.3498 19.8575L92.3581 19.8625L92.3666 19.8674L92.8643 19ZM95.9363 22.104L95.0654 22.5956L95.0689 22.6017L95.9363 22.104ZM95.9363 31.096L96.8036 31.5937L96.8071 31.5876L95.9363 31.096ZM92.8643 34.2L93.3681 35.0638L93.3725 35.0612L92.8643 34.2ZM91.2003 31.576L91.7282 32.4253L91.7364 32.4202L91.7444 32.415L91.2003 31.576ZM93.0563 29.528L93.9417 29.9929L93.9463 29.9839L93.0563 29.528ZM93.6963 26.584L92.6964 26.5648L92.6961 26.5842L92.6964 26.6036L93.6963 26.584ZM93.0563 23.64L92.1662 24.0959L92.1709 24.1048L93.0563 23.64ZM85.7923 21.624L86.3202 22.4733L86.3262 22.4695L85.7923 21.624ZM83.9363 23.672L84.8217 24.1369L84.8263 24.1279L83.9363 23.672ZM83.2963 26.584L84.2961 26.6036L84.2964 26.584L84.2961 26.5644L83.2963 26.584ZM83.9363 29.528L83.0462 29.9839L83.0509 29.9928L83.9363 29.528ZM85.7923 31.576L85.2481 32.415L85.2611 32.4234L85.2744 32.4315L85.7923 31.576ZM88.5123 34.32C87.0272 34.32 85.7297 33.9843 84.5939 33.3326L83.5986 35.0674C85.0655 35.909 86.712 36.32 88.5123 36.32V34.32ZM84.6107 33.3425C83.4779 32.6628 82.5858 31.7524 81.9236 30.5983L80.1889 31.5937C81.0201 33.0423 82.1546 34.2012 83.5818 35.0575L84.6107 33.3425ZM81.9271 30.6044C81.2741 29.4477 80.9363 28.1164 80.9363 26.584H78.9363C78.9363 28.4223 79.3451 30.099 80.1854 31.5876L81.9271 30.6044ZM80.9363 26.584C80.9363 25.0513 81.2742 23.7336 81.9236 22.6017L80.1889 21.6063C79.345 23.0771 78.9363 24.746 78.9363 26.584H80.9363ZM81.9271 22.5956C82.5889 21.4233 83.4772 20.5188 84.6001 19.8638L83.5924 18.1362C82.1553 18.9745 81.017 20.1394 80.1854 21.6124L81.9271 22.5956ZM84.6045 19.8612C85.7386 19.1919 87.0323 18.848 88.5123 18.848V16.848C86.7069 16.848 85.0566 17.2721 83.588 18.1388L84.6045 19.8612ZM88.5123 18.848C89.9685 18.848 91.2385 19.1907 92.3498 19.8575L93.3787 18.1425C91.93 17.2733 90.2987 16.848 88.5123 16.848V18.848ZM92.3666 19.8674C93.51 20.5234 94.406 21.4274 95.0654 22.5956L96.8071 21.6124C95.9732 20.1353 94.8212 18.9699 93.3619 18.1326L92.3666 19.8674ZM95.0689 22.6017C95.7183 23.7336 96.0563 25.0513 96.0563 26.584H98.0563C98.0563 24.746 97.6475 23.0771 96.8036 21.6063L95.0689 22.6017ZM96.0563 26.584C96.0563 28.1164 95.7184 29.4477 95.0654 30.6044L96.8071 31.5876C97.6474 30.099 98.0563 28.4223 98.0563 26.584H96.0563ZM95.0689 30.5983C94.4091 31.7483 93.5093 32.6582 92.356 33.3388L93.3725 35.0612C94.8219 34.2058 95.9701 33.0464 96.8036 31.5937L95.0689 30.5983ZM92.3604 33.3362C91.2475 33.9854 89.9737 34.32 88.5123 34.32V36.32C90.2935 36.32 91.921 35.9079 93.3681 35.0638L92.3604 33.3362ZM88.5123 33.312C89.6862 33.312 90.7679 33.0222 91.7282 32.4253L90.6723 30.7267C90.054 31.1111 89.3436 31.312 88.5123 31.312V33.312ZM91.7444 32.415C92.6813 31.8072 93.4159 30.9942 93.9416 29.9928L92.1709 29.0632C91.8006 29.7685 91.2978 30.3208 90.6561 30.737L91.7444 32.415ZM93.9463 29.9839C94.4774 28.9469 94.7203 27.7995 94.6961 26.5644L92.6964 26.6036C92.7149 27.5445 92.5311 28.3597 92.1662 29.0721L93.9463 29.9839ZM94.6961 26.6032C94.7201 25.3512 94.4791 24.1989 93.9416 23.1752L92.1709 24.1048C92.5294 24.7878 92.715 25.5981 92.6964 26.5648L94.6961 26.6032ZM93.9463 23.1841C93.4205 22.1575 92.6807 21.3348 91.7282 20.7427L90.6723 22.4413C91.2985 22.8305 91.796 23.3731 92.1662 24.0959L93.9463 23.1841ZM91.7282 20.7427C90.7679 20.1458 89.6862 19.856 88.5123 19.856V21.856C89.3436 21.856 90.054 22.0569 90.6723 22.4413L91.7282 20.7427ZM88.5123 19.856C87.3296 19.856 86.2362 20.1608 85.2583 20.7785L86.3262 22.4695C86.9696 22.0632 87.6895 21.856 88.5123 21.856V19.856ZM85.2643 20.7747C84.3118 21.3668 83.572 22.1895 83.0462 23.2161L84.8263 24.1279C85.1965 23.4051 85.694 22.8625 86.3202 22.4733L85.2643 20.7747ZM83.0509 23.2072C82.5148 24.2282 82.2722 25.3692 82.2964 26.6036L84.2961 26.5644C84.2776 25.6228 84.4617 24.8225 84.8216 24.1368L83.0509 23.2072ZM82.2964 26.5644C82.2722 27.7995 82.5151 28.9469 83.0462 29.9839L84.8263 29.0721C84.4614 28.3597 84.2776 27.5445 84.2961 26.6036L82.2964 26.5644ZM83.0509 29.9928C83.5766 30.9942 84.3112 31.8072 85.2481 32.415L86.3364 30.737C85.6947 30.3208 85.1919 29.7685 84.8216 29.0632L83.0509 29.9928ZM85.2744 32.4315C86.2505 33.0223 87.3381 33.312 88.5123 33.312V31.312C87.6811 31.312 86.9553 31.1111 86.3101 30.7205L85.2744 32.4315ZM100.584 35H99.5838V36H100.584V35ZM100.584 18.2V17.2H99.5838V18.2H100.584ZM103.912 18.2H104.912V17.2H103.912V18.2ZM103.912 21.784L104.446 22.6295L104.912 22.3352V21.784H103.912ZM103.304 22.168L102.348 21.8739L101.553 24.4562L103.838 23.0135L103.304 22.168ZM104.104 20.568L103.304 19.968L103.296 19.9789L103.288 19.99L104.104 20.568ZM105.48 19.224L106.064 20.0356L106.07 20.0314L105.48 19.224ZM107.24 18.264L106.895 17.3251L106.885 17.329L107.24 18.264ZM111.72 18.392L112.123 17.4771L112.123 17.4771L111.72 18.392ZM113.512 19.832L114.318 19.2406L114.318 19.2406L113.512 19.832ZM114.536 22.232L114.293 23.2021L115.863 23.5946L115.512 22.0151L114.536 22.232ZM114.024 22.104L113.099 21.7232L112.658 22.7934L113.781 23.0741L114.024 22.104ZM114.248 21.56L113.346 21.1285L113.334 21.1536L113.323 21.1792L114.248 21.56ZM115.208 20.184L114.484 19.4943L114.483 19.4952L115.208 20.184ZM116.648 19L117.187 19.8423L117.187 19.8423L116.648 19ZM118.344 18.2L118.038 17.248L118.038 17.248L118.344 18.2ZM123.208 18.68L122.674 19.5255L122.684 19.5317L123.208 18.68ZM125.064 21.016L124.131 21.3775L124.135 21.3857L124.138 21.3939L125.064 21.016ZM125.704 35V36H126.704V35H125.704ZM122.376 35H121.376V36H122.376V35ZM121.992 22.776L121.057 23.1307L121.064 23.1505L121.073 23.1699L121.992 22.776ZM117.32 21.272L117.671 22.2083L117.681 22.2045L117.691 22.2005L117.32 21.272ZM115.976 22.104L115.289 21.377L115.289 21.377L115.976 22.104ZM115.08 23.384L115.99 23.7978L115.994 23.7903L115.997 23.7827L115.08 23.384ZM114.76 35V36H115.76V35H114.76ZM111.432 35H110.432V36H111.432V35ZM111.048 22.84L110.124 23.2224L110.129 23.2339L111.048 22.84ZM109.928 21.432L110.474 20.5944L110.474 20.5944L109.928 21.432ZM106.472 21.272L106.823 22.2083L106.84 22.202L106.856 22.1951L106.472 21.272ZM105.128 22.104L105.792 22.8514L105.803 22.8414L105.814 22.831L105.128 22.104ZM104.232 23.352L105.142 23.7658L105.146 23.7583L105.149 23.7507L104.232 23.352ZM103.912 35V36H104.912V35H103.912ZM101.584 35V18.2H99.5838V35H101.584ZM100.584 19.2H103.912V17.2H100.584V19.2ZM102.912 18.2V21.784H104.912V18.2H102.912ZM103.378 20.9385L102.77 21.3225L103.838 23.0135L104.446 22.6295L103.378 20.9385ZM104.26 22.4621C104.397 22.0168 104.613 21.5784 104.92 21.146L103.288 19.99C102.869 20.5816 102.552 21.2099 102.348 21.8739L104.26 22.4621ZM104.904 21.168C105.225 20.7392 105.611 20.362 106.064 20.0355L104.895 18.4125C104.282 18.854 103.75 19.3728 103.304 19.968L104.904 21.168ZM106.07 20.0314C106.555 19.6769 107.063 19.4007 107.594 19.199L106.885 17.329C106.179 17.5967 105.514 17.9604 104.89 18.4166L106.07 20.0314ZM107.584 19.2029C108.117 19.0074 108.651 18.912 109.192 18.912V16.912C108.409 16.912 107.642 17.0513 106.895 17.3251L107.584 19.2029ZM109.192 18.912C110.041 18.912 110.742 19.0536 111.316 19.3069L112.123 17.4771C111.247 17.0904 110.262 16.912 109.192 16.912V18.912ZM111.316 19.3069C111.881 19.5561 112.339 19.9245 112.705 20.4234L114.318 19.2406C113.745 18.4595 113.009 17.8679 112.123 17.4771L111.316 19.3069ZM112.705 20.4234C113.076 20.9283 113.369 21.5927 113.56 22.4489L115.512 22.0151C115.276 20.9513 114.887 20.0157 114.318 19.2406L112.705 20.4234ZM114.778 21.2619L114.266 21.1339L113.781 23.0741L114.293 23.2021L114.778 21.2619ZM114.948 22.4847L115.172 21.9407L113.323 21.1792L113.099 21.7232L114.948 22.4847ZM115.15 21.9915C115.336 21.6027 115.594 21.2297 115.933 20.8727L114.483 19.4952C114.011 19.9917 113.629 20.5359 113.346 21.1285L115.15 21.9915ZM115.932 20.8737C116.302 20.4851 116.719 20.1414 117.187 19.8423L116.109 18.1577C115.509 18.5413 114.967 18.9869 114.484 19.4943L115.932 20.8737ZM117.187 19.8423C117.648 19.547 118.135 19.3174 118.65 19.152L118.038 17.248C117.358 17.4666 116.714 17.7703 116.109 18.1577L117.187 19.8423ZM118.65 19.152C119.157 18.989 119.64 18.912 120.104 18.912V16.912C119.415 16.912 118.725 17.027 118.038 17.248L118.65 19.152ZM120.104 18.912C121.231 18.912 122.066 19.1414 122.674 19.5255L123.742 17.8345C122.728 17.1946 121.494 16.912 120.104 16.912V18.912ZM122.684 19.5317C123.303 19.9128 123.793 20.5044 124.131 21.3775L125.996 20.6545C125.524 19.437 124.777 18.4712 123.732 17.8283L122.684 19.5317ZM124.138 21.3939C124.501 22.2831 124.704 23.4464 124.704 24.92H126.704C126.704 23.279 126.48 21.8396 125.99 20.6381L124.138 21.3939ZM124.704 24.92V35H126.704V24.92H124.704ZM125.704 34H122.376V36H125.704V34ZM123.376 35V25.112H121.376V35H123.376ZM123.376 25.112C123.376 24.0755 123.239 23.1486 122.911 22.3821L121.073 23.1699C121.256 23.5981 121.376 24.2285 121.376 25.112H123.376ZM122.927 22.4213C122.626 21.6277 122.133 20.9773 121.424 20.5458L120.384 22.2542C120.656 22.42 120.888 22.687 121.057 23.1307L122.927 22.4213ZM121.424 20.5458C120.732 20.1248 119.907 19.952 119.016 19.952V21.952C119.66 21.952 120.094 22.0779 120.384 22.2542L121.424 20.5458ZM119.016 19.952C118.296 19.952 117.605 20.0811 116.948 20.3435L117.691 22.2005C118.102 22.0363 118.54 21.952 119.016 21.952V19.952ZM116.969 20.3357C116.336 20.5727 115.773 20.9197 115.289 21.377L116.662 22.831C116.946 22.563 117.279 22.3553 117.671 22.2083L116.969 20.3357ZM115.289 21.377C114.806 21.8336 114.429 22.3724 114.163 22.9853L115.997 23.7827C116.157 23.4143 116.378 23.0997 116.662 22.831L115.289 21.377ZM114.169 22.9702C113.89 23.584 113.76 24.2501 113.76 24.952H115.76C115.76 24.5019 115.842 24.1227 115.99 23.7978L114.169 22.9702ZM113.76 24.952V35H115.76V24.952H113.76ZM114.76 34H111.432V36H114.76V34ZM112.432 35V25.048H110.432V35H112.432ZM112.432 25.048C112.432 24.0821 112.291 23.2029 111.967 22.4461L110.129 23.2339C110.316 23.6717 110.432 24.2645 110.432 25.048H112.432ZM111.972 22.4576C111.65 21.6801 111.157 21.0398 110.474 20.5944L109.381 22.2696C109.68 22.4642 109.933 22.7625 110.124 23.2224L111.972 22.4576ZM110.474 20.5944C109.791 20.1487 108.994 19.952 108.136 19.952V21.952C108.685 21.952 109.084 22.0753 109.381 22.2696L110.474 20.5944ZM108.136 19.952C107.417 19.952 106.73 20.081 106.087 20.3489L106.856 22.1951C107.237 22.0363 107.66 21.952 108.136 21.952V19.952ZM106.121 20.3357C105.488 20.5727 104.925 20.9197 104.441 21.377L105.814 22.831C106.098 22.563 106.431 22.3553 106.823 22.2083L106.121 20.3357ZM104.463 21.3566C103.966 21.7984 103.583 22.3351 103.315 22.9533L105.149 23.7507C105.307 23.3876 105.521 23.0922 105.792 22.8514L104.463 21.3566ZM103.321 22.9382C103.045 23.5471 102.912 24.2016 102.912 24.888H104.912C104.912 24.4651 104.992 24.0955 105.142 23.7658L103.321 22.9382ZM102.912 24.888V35H104.912V24.888H102.912ZM103.912 34H100.584V36H103.912V34ZM133.349 34.232L132.857 35.1028L132.865 35.1075L132.874 35.112L133.349 34.232ZM130.213 31.192L129.349 31.6959L129.355 31.7065L130.213 31.192ZM129.733 23.16L130.663 23.5251L130.663 23.5251L129.733 23.16ZM131.493 20.344L130.767 19.6563L130.766 19.6568L131.493 20.344ZM134.213 18.488L134.59 19.4139L134.6 19.41L134.213 18.488ZM140.709 18.456L140.295 19.3664L140.303 19.3703L140.312 19.3741L140.709 18.456ZM143.141 20.152L142.412 20.8374L142.418 20.843L142.423 20.8485L143.141 20.152ZM144.741 22.744L143.8 23.0841L143.805 23.0963L143.809 23.1084L144.741 22.744ZM145.285 25.976L146.284 25.9987L146.284 25.9942L145.285 25.976ZM145.253 27.384V28.384H146.23L146.252 27.4067L145.253 27.384ZM131.525 27.384L130.562 27.6541L130.766 28.384H131.525V27.384ZM130.789 24.76V23.76H129.469L129.826 25.0301L130.789 24.76ZM142.405 24.76L143.154 25.4216L144.62 23.76H142.405V24.76ZM141.925 25.304H140.925V27.9488L142.674 25.9656L141.925 25.304ZM141.925 24.536H142.925V24.4906L142.92 24.4455L141.925 24.536ZM141.221 22.648L142.028 22.058L142.028 22.058L141.221 22.648ZM139.685 21.336L139.225 22.2242L139.225 22.2242L139.685 21.336ZM134.757 21.528L135.232 22.4077L135.241 22.4028L135.25 22.3977L134.757 21.528ZM132.965 23.448L133.864 23.886L133.868 23.8771L132.965 23.448ZM133.093 29.624L132.22 30.1133L132.226 30.1225L133.093 29.624ZM135.173 31.608L134.708 32.4938L134.708 32.4938L135.173 31.608ZM140.581 31.896L140.223 30.9619L140.214 30.9656L140.581 31.896ZM142.917 30.392L143.731 29.8118L143.091 28.9133L142.259 29.6382L142.917 30.392ZM144.581 32.728L145.288 33.4351L145.886 32.8369L145.395 32.1478L144.581 32.728ZM142.693 34.072L142.235 33.1826L142.225 33.1882L142.693 34.072ZM140.357 35L140.611 35.9671L140.619 35.9648L140.628 35.9624L140.357 35ZM137.957 34.32C136.372 34.32 135.003 33.9887 133.823 33.352L132.874 35.112C134.382 35.926 136.085 36.32 137.957 36.32V34.32ZM133.84 33.3612C132.665 32.6981 131.747 31.8064 131.07 30.6775L129.355 31.7065C130.214 33.1376 131.386 34.2726 132.857 35.1028L133.84 33.3612ZM131.076 30.6881C130.429 29.5792 130.093 28.2852 130.093 26.776H128.093C128.093 28.5948 128.502 30.2448 129.349 31.6959L131.076 30.6881ZM130.093 26.776C130.093 25.5619 130.288 24.4825 130.663 23.5251L128.802 22.7949C128.324 24.0135 128.093 25.3447 128.093 26.776H130.093ZM130.663 23.5251C131.047 22.5475 131.567 21.7204 132.219 21.0312L130.766 19.6568C129.925 20.5462 129.271 21.5965 128.802 22.7949L130.663 23.5251ZM132.218 21.0317C132.888 20.3255 133.675 19.7874 134.59 19.4138L133.835 17.5622C132.659 18.0419 131.633 18.7412 130.767 19.6563L132.218 21.0317ZM134.6 19.41C135.535 19.017 136.555 18.816 137.669 18.816V16.816C136.308 16.816 135.023 17.063 133.825 17.566L134.6 19.41ZM137.669 18.816C138.622 18.816 139.493 19.002 140.295 19.3664L141.122 17.5456C140.047 17.0567 138.891 16.816 137.669 16.816V18.816ZM140.312 19.3741C141.129 19.7268 141.826 20.2141 142.412 20.8374L143.869 19.4666C143.09 18.6392 142.166 17.9959 141.105 17.5379L140.312 19.3741ZM142.423 20.8485C143.023 21.4666 143.483 22.2072 143.8 23.0841L145.681 22.4039C145.273 21.2754 144.666 20.2881 143.858 19.4555L142.423 20.8485ZM143.809 23.1084C144.14 23.9548 144.304 24.9004 144.285 25.9578L146.284 25.9942C146.308 24.7049 146.109 23.4959 145.672 22.3796L143.809 23.1084ZM144.285 25.9533L144.253 27.3613L146.252 27.4067L146.284 25.9987L144.285 25.9533ZM145.253 26.384H131.525V28.384H145.253V26.384ZM132.487 27.1139L131.751 24.4899L129.826 25.0301L130.562 27.6541L132.487 27.1139ZM130.789 25.76H142.405V23.76H130.789V25.76ZM141.655 24.0984L141.175 24.6424L142.674 25.9656L143.154 25.4216L141.655 24.0984ZM142.925 25.304V24.536H140.925V25.304H142.925ZM142.92 24.4455C142.84 23.5665 142.543 22.7634 142.028 22.058L140.413 23.238C140.708 23.642 140.881 24.0975 140.929 24.6265L142.92 24.4455ZM142.028 22.058C141.53 21.3765 140.898 20.8379 140.144 20.4478L139.225 22.2242C139.708 22.4741 140.1 22.8101 140.413 23.238L142.028 22.058ZM140.144 20.4478C139.377 20.0513 138.547 19.856 137.669 19.856V21.856C138.241 21.856 138.754 21.9807 139.225 22.2242L140.144 20.4478ZM137.669 19.856C136.389 19.856 135.238 20.1049 134.263 20.6583L135.25 22.3977C135.854 22.0551 136.644 21.856 137.669 21.856V19.856ZM134.281 20.6483C133.295 21.1815 132.553 21.9846 132.061 23.0189L133.868 23.8771C134.187 23.2047 134.64 22.7278 135.232 22.4077L134.281 20.6483ZM132.066 23.01C131.575 24.0164 131.357 25.2117 131.357 26.552H133.357C133.357 25.4177 133.543 24.5436 133.863 23.886L132.066 23.01ZM131.357 26.552C131.357 27.8674 131.633 29.0655 132.22 30.1133L133.965 29.1347C133.571 28.4332 133.357 27.5833 133.357 26.552H131.357ZM132.226 30.1225C132.814 31.1453 133.649 31.9389 134.708 32.4938L135.637 30.7222C134.904 30.3385 134.353 29.8093 133.959 29.1255L132.226 30.1225ZM134.708 32.4938C135.769 33.0493 136.967 33.312 138.277 33.312V31.312C137.239 31.312 136.368 31.1053 135.637 30.7222L134.708 32.4938ZM138.277 33.312C139.221 33.312 140.115 33.1541 140.947 32.8264L140.214 30.9656C139.638 31.1926 138.996 31.312 138.277 31.312V33.312ZM140.938 32.8301C141.808 32.4971 142.687 31.9185 143.574 31.1458L142.259 29.6382C141.482 30.3162 140.803 30.7403 140.223 30.9619L140.938 32.8301ZM142.102 30.9722L143.766 33.3082L145.395 32.1478L143.731 29.8118L142.102 30.9722ZM143.873 32.0209C143.445 32.449 142.904 32.8387 142.235 33.1827L143.15 34.9613C143.974 34.5373 144.692 34.031 145.288 33.4351L143.873 32.0209ZM142.225 33.1882C141.565 33.5374 140.853 33.8211 140.085 34.0376L140.628 35.9624C141.524 35.7096 142.369 35.3746 143.16 34.9558L142.225 33.1882ZM140.102 34.0329C139.369 34.2258 138.655 34.32 137.957 34.32V36.32C138.837 36.32 139.722 36.2009 140.611 35.9671L140.102 34.0329ZM159.915 35H158.915V36H159.915V35ZM159.915 13.912V12.912H158.915V13.912H159.915ZM163.211 13.912H164.211V12.912H163.211V13.912ZM163.211 35V36H164.211V35H163.211ZM156.427 21.4H155.427V22.4H156.427V21.4ZM156.427 18.2V17.2H155.427V18.2H156.427ZM167.115 18.2H168.115V17.2H167.115V18.2ZM167.115 21.4V22.4H168.115V21.4H167.115ZM160.915 35V13.912H158.915V35H160.915ZM159.915 14.912H163.211V12.912H159.915V14.912ZM162.211 13.912V35H164.211V13.912H162.211ZM163.211 34H159.915V36H163.211V34ZM157.427 21.4V18.2H155.427V21.4H157.427ZM156.427 19.2H167.115V17.2H156.427V19.2ZM166.115 18.2V21.4H168.115V18.2H166.115ZM167.115 20.4H156.427V22.4H167.115V20.4ZM173.096 34.2L172.582 35.0575L172.59 35.0625L172.599 35.0674L173.096 34.2ZM170.056 31.096L169.185 31.5876L169.189 31.5937L170.056 31.096ZM170.056 22.104L170.924 22.6017L170.927 22.5956L170.056 22.104ZM173.096 19L173.6 19.8638L173.605 19.8612L173.096 19ZM181.864 19L181.35 19.8575L181.358 19.8625L181.367 19.8674L181.864 19ZM184.936 22.104L184.065 22.5956L184.069 22.6017L184.936 22.104ZM184.936 31.096L185.804 31.5937L185.807 31.5876L184.936 31.096ZM181.864 34.2L182.368 35.0638L182.373 35.0612L181.864 34.2ZM180.2 31.576L180.728 32.4253L180.736 32.4202L180.744 32.415L180.2 31.576ZM182.056 29.528L182.942 29.9929L182.946 29.9839L182.056 29.528ZM182.696 26.584L181.696 26.5648L181.696 26.5842L181.696 26.6036L182.696 26.584ZM182.056 23.64L181.166 24.0959L181.171 24.1048L182.056 23.64ZM174.792 21.624L175.32 22.4733L175.326 22.4695L174.792 21.624ZM172.936 23.672L173.822 24.1369L173.826 24.1279L172.936 23.672ZM172.296 26.584L173.296 26.6036L173.296 26.584L173.296 26.5644L172.296 26.584ZM172.936 29.528L172.046 29.9839L172.051 29.9928L172.936 29.528ZM174.792 31.576L174.248 32.415L174.261 32.4234L174.274 32.4315L174.792 31.576ZM177.512 34.32C176.027 34.32 174.73 33.9843 173.594 33.3326L172.599 35.0674C174.065 35.909 175.712 36.32 177.512 36.32V34.32ZM173.611 33.3425C172.478 32.6628 171.586 31.7524 170.924 30.5983L169.189 31.5937C170.02 33.0423 171.155 34.2012 172.582 35.0575L173.611 33.3425ZM170.927 30.6044C170.274 29.4477 169.936 28.1164 169.936 26.584H167.936C167.936 28.4223 168.345 30.099 169.185 31.5876L170.927 30.6044ZM169.936 26.584C169.936 25.0513 170.274 23.7336 170.924 22.6017L169.189 21.6063C168.345 23.0771 167.936 24.746 167.936 26.584H169.936ZM170.927 22.5956C171.589 21.4233 172.477 20.5188 173.6 19.8638L172.592 18.1362C171.155 18.9745 170.017 20.1394 169.185 21.6124L170.927 22.5956ZM173.605 19.8612C174.739 19.1919 176.032 18.848 177.512 18.848V16.848C175.707 16.848 174.057 17.2721 172.588 18.1388L173.605 19.8612ZM177.512 18.848C178.968 18.848 180.238 19.1907 181.35 19.8575L182.379 18.1425C180.93 17.2733 179.299 16.848 177.512 16.848V18.848ZM181.367 19.8674C182.51 20.5234 183.406 21.4274 184.065 22.5956L185.807 21.6124C184.973 20.1353 183.821 18.9699 182.362 18.1326L181.367 19.8674ZM184.069 22.6017C184.718 23.7336 185.056 25.0513 185.056 26.584H187.056C187.056 24.746 186.648 23.0771 185.804 21.6063L184.069 22.6017ZM185.056 26.584C185.056 28.1164 184.718 29.4477 184.065 30.6044L185.807 31.5876C186.647 30.099 187.056 28.4223 187.056 26.584H185.056ZM184.069 30.5983C183.409 31.7483 182.509 32.6582 181.356 33.3388L182.373 35.0612C183.822 34.2058 184.97 33.0464 185.804 31.5937L184.069 30.5983ZM181.36 33.3362C180.247 33.9854 178.974 34.32 177.512 34.32V36.32C179.293 36.32 180.921 35.9079 182.368 35.0638L181.36 33.3362ZM177.512 33.312C178.686 33.312 179.768 33.0222 180.728 32.4253L179.672 30.7267C179.054 31.1111 178.344 31.312 177.512 31.312V33.312ZM180.744 32.415C181.681 31.8072 182.416 30.9942 182.942 29.9928L181.171 29.0632C180.801 29.7685 180.298 30.3208 179.656 30.737L180.744 32.415ZM182.946 29.9839C183.477 28.9469 183.72 27.7995 183.696 26.5644L181.696 26.6036C181.715 27.5445 181.531 28.3597 181.166 29.0721L182.946 29.9839ZM183.696 26.6032C183.72 25.3512 183.479 24.1989 182.942 23.1752L181.171 24.1048C181.529 24.7878 181.715 25.5981 181.696 26.5648L183.696 26.6032ZM182.946 23.1841C182.42 22.1575 181.681 21.3348 180.728 20.7427L179.672 22.4413C180.299 22.8305 180.796 23.3731 181.166 24.0959L182.946 23.1841ZM180.728 20.7427C179.768 20.1458 178.686 19.856 177.512 19.856V21.856C178.344 21.856 179.054 22.0569 179.672 22.4413L180.728 20.7427ZM177.512 19.856C176.33 19.856 175.236 20.1608 174.258 20.7785L175.326 22.4695C175.97 22.0632 176.69 21.856 177.512 21.856V19.856ZM174.264 20.7747C173.312 21.3668 172.572 22.1895 172.046 23.2161L173.826 24.1279C174.196 23.4051 174.694 22.8625 175.32 22.4733L174.264 20.7747ZM172.051 23.2072C171.515 24.2282 171.272 25.3692 171.296 26.6036L173.296 26.5644C173.278 25.6228 173.462 24.8225 173.822 24.1368L172.051 23.2072ZM171.296 26.5644C171.272 27.7995 171.515 28.9469 172.046 29.9839L173.826 29.0721C173.461 28.3597 173.278 27.5445 173.296 26.6036L171.296 26.5644ZM172.051 29.9928C172.577 30.9942 173.311 31.8072 174.248 32.415L175.336 30.737C174.695 30.3208 174.192 29.7685 173.822 29.0632L172.051 29.9928ZM174.274 32.4315C175.25 33.0223 176.338 33.312 177.512 33.312V31.312C176.681 31.312 175.955 31.1111 175.31 30.7205L174.274 32.4315ZM201.433 42.36L200.515 41.9629L199.91 43.36H201.433V42.36ZM204.825 34.52L205.824 34.5078L203.907 34.1229L204.825 34.52ZM204.857 37.144L203.942 37.5487L205.856 37.1318L204.857 37.144ZM196.473 18.2V17.2H194.936L195.558 18.6047L196.473 18.2ZM200.312 18.2L201.233 17.809L200.974 17.2H200.312V18.2ZM205.561 30.552L204.64 30.943L204.652 30.9715L204.666 30.9992L205.561 30.552ZM205.945 31.544L204.996 31.8602L204.998 31.8673L205.001 31.8744L205.945 31.544ZM206.329 32.824L206.553 33.7984L207.546 33.5694L207.299 32.5815L206.329 32.824ZM205.497 33.016L204.562 32.66L203.895 34.4119L205.721 33.9904L205.497 33.016ZM205.977 31.672L205.042 31.316L205.034 31.3357L205.028 31.3558L205.977 31.672ZM206.457 30.328L205.516 29.9881L205.512 29.9999L205.508 30.0118L206.457 30.328ZM210.841 18.2V17.2H210.139L209.9 17.86L210.841 18.2ZM214.745 18.2L215.669 18.5805L216.237 17.2H214.745V18.2ZM207.833 35L206.908 34.6195L206.904 34.6293L206.9 34.6391L207.833 35ZM204.985 42.36V43.36H205.67L205.917 42.7209L204.985 42.36ZM202.35 42.7571L205.742 34.9171L203.907 34.1229L200.515 41.9629L202.35 42.7571ZM203.825 34.5322L203.857 37.1562L205.856 37.1318L205.824 34.5078L203.825 34.5322ZM205.771 36.7393L197.387 17.7953L195.558 18.6047L203.942 37.5487L205.771 36.7393ZM196.473 19.2H200.312V17.2H196.473V19.2ZM199.392 18.591L204.64 30.943L206.481 30.161L201.233 17.809L199.392 18.591ZM204.666 30.9992C204.74 31.1469 204.85 31.4226 204.996 31.8602L206.893 31.2278C206.74 30.7694 206.594 30.3838 206.455 30.1048L204.666 30.9992ZM205.001 31.8744C205.14 32.273 205.259 32.6703 205.358 33.0665L207.299 32.5815C207.184 32.1243 207.048 31.6684 206.888 31.2136L205.001 31.8744ZM206.104 31.8496L205.272 32.0416L205.721 33.9904L206.553 33.7984L206.104 31.8496ZM206.431 33.372C206.607 32.911 206.771 32.4498 206.925 31.9882L205.028 31.3558C204.883 31.7902 204.728 32.225 204.562 32.66L206.431 33.372ZM206.911 32.028C207.087 31.567 207.251 31.1058 207.405 30.6442L205.508 30.0118C205.363 30.4462 205.208 30.881 205.042 31.316L206.911 32.028ZM207.397 30.6679L211.781 18.5399L209.9 17.86L205.516 29.9881L207.397 30.6679ZM210.841 19.2H214.745V17.2H210.841V19.2ZM213.82 17.8195L206.908 34.6195L208.757 35.3805L215.669 18.5805L213.82 17.8195ZM206.9 34.6391L204.052 41.9991L205.917 42.7209L208.765 35.3609L206.9 34.6391ZM204.985 41.36H201.433V43.36H204.985V41.36ZM220.034 34.2L219.519 35.0575L219.528 35.0625L219.536 35.0674L220.034 34.2ZM216.994 31.096L216.123 31.5876L216.126 31.5937L216.994 31.096ZM216.994 22.104L217.861 22.6017L217.865 22.5956L216.994 22.104ZM220.034 19L220.538 19.8638L220.542 19.8612L220.034 19ZM228.802 19L228.287 19.8575L228.296 19.8625L228.304 19.8674L228.802 19ZM231.874 22.104L231.003 22.5956L231.006 22.6017L231.874 22.104ZM231.874 31.096L232.741 31.5937L232.745 31.5876L231.874 31.096ZM228.802 34.2L229.306 35.0638L229.31 35.0612L228.802 34.2ZM227.138 31.576L227.666 32.4253L227.674 32.4202L227.682 32.415L227.138 31.576ZM228.994 29.528L229.879 29.9929L229.884 29.9839L228.994 29.528ZM229.634 26.584L228.634 26.5648L228.634 26.5842L228.634 26.6036L229.634 26.584ZM228.994 23.64L228.104 24.0959L228.108 24.1048L228.994 23.64ZM221.73 21.624L222.258 22.4733L222.264 22.4695L221.73 21.624ZM219.874 23.672L220.759 24.1369L220.764 24.1279L219.874 23.672ZM219.234 26.584L220.234 26.6036L220.234 26.584L220.234 26.5644L219.234 26.584ZM219.874 29.528L218.984 29.9839L218.988 29.9928L219.874 29.528ZM221.73 31.576L221.186 32.415L221.199 32.4234L221.212 32.4315L221.73 31.576ZM224.45 34.32C222.965 34.32 221.667 33.9843 220.531 33.3326L219.536 35.0674C221.003 35.909 222.649 36.32 224.45 36.32V34.32ZM220.548 33.3425C219.415 32.6628 218.523 31.7524 217.861 30.5983L216.126 31.5937C216.958 33.0423 218.092 34.2012 219.519 35.0575L220.548 33.3425ZM217.865 30.6044C217.212 29.4477 216.874 28.1164 216.874 26.584H214.874C214.874 28.4223 215.283 30.099 216.123 31.5876L217.865 30.6044ZM216.874 26.584C216.874 25.0513 217.212 23.7336 217.861 22.6017L216.126 21.6063C215.282 23.0771 214.874 24.746 214.874 26.584H216.874ZM217.865 22.5956C218.526 21.4233 219.415 20.5188 220.538 19.8638L219.53 18.1362C218.093 18.9745 216.954 20.1394 216.123 21.6124L217.865 22.5956ZM220.542 19.8612C221.676 19.1919 222.97 18.848 224.45 18.848V16.848C222.644 16.848 220.994 17.2721 219.525 18.1388L220.542 19.8612ZM224.45 18.848C225.906 18.848 227.176 19.1907 228.287 19.8575L229.316 18.1425C227.868 17.2733 226.236 16.848 224.45 16.848V18.848ZM228.304 19.8674C229.448 20.5234 230.343 21.4274 231.003 22.5956L232.745 21.6124C231.911 20.1353 230.759 18.9699 229.299 18.1326L228.304 19.8674ZM231.006 22.6017C231.656 23.7336 231.994 25.0513 231.994 26.584H233.994C233.994 24.746 233.585 23.0771 232.741 21.6063L231.006 22.6017ZM231.994 26.584C231.994 28.1164 231.656 29.4477 231.003 30.6044L232.745 31.5876C233.585 30.099 233.994 28.4223 233.994 26.584H231.994ZM231.006 30.5983C230.347 31.7483 229.447 32.6582 228.293 33.3388L229.31 35.0612C230.759 34.2058 231.908 33.0464 232.741 31.5937L231.006 30.5983ZM228.298 33.3362C227.185 33.9854 225.911 34.32 224.45 34.32V36.32C226.231 36.32 227.859 35.9079 229.306 35.0638L228.298 33.3362ZM224.45 33.312C225.624 33.312 226.705 33.0222 227.666 32.4253L226.61 30.7267C225.991 31.1111 225.281 31.312 224.45 31.312V33.312ZM227.682 32.415C228.619 31.8072 229.353 30.9942 229.879 29.9928L228.108 29.0632C227.738 29.7685 227.235 30.3208 226.594 30.737L227.682 32.415ZM229.884 29.9839C230.415 28.9469 230.658 27.7995 230.634 26.5644L228.634 26.6036C228.652 27.5445 228.469 28.3597 228.104 29.0721L229.884 29.9839ZM230.634 26.6032C230.658 25.3512 230.417 24.1989 229.879 23.1752L228.108 24.1048C228.467 24.7878 228.653 25.5981 228.634 26.5648L230.634 26.6032ZM229.884 23.1841C229.358 22.1575 228.618 21.3348 227.666 20.7427L226.61 22.4413C227.236 22.8305 227.734 23.3731 228.104 24.0959L229.884 23.1841ZM227.666 20.7427C226.705 20.1458 225.624 19.856 224.45 19.856V21.856C225.281 21.856 225.991 22.0569 226.61 22.4413L227.666 20.7427ZM224.45 19.856C223.267 19.856 222.174 20.1608 221.196 20.7785L222.264 22.4695C222.907 22.0632 223.627 21.856 224.45 21.856V19.856ZM221.202 20.7747C220.249 21.3668 219.51 22.1895 218.984 23.2161L220.764 24.1279C221.134 23.4051 221.631 22.8625 222.258 22.4733L221.202 20.7747ZM218.988 23.2072C218.452 24.2282 218.21 25.3692 218.234 26.6036L220.234 26.5644C220.215 25.6228 220.399 24.8225 220.759 24.1368L218.988 23.2072ZM218.234 26.5644C218.21 27.7995 218.453 28.9469 218.984 29.9839L220.764 29.0721C220.399 28.3597 220.215 27.5445 220.234 26.6036L218.234 26.5644ZM218.988 29.9928C219.514 30.9942 220.249 31.8072 221.186 32.415L222.274 30.737C221.632 30.3208 221.129 29.7685 220.759 29.0632L218.988 29.9928ZM221.212 32.4315C222.188 33.0223 223.276 33.312 224.45 33.312V31.312C223.619 31.312 222.893 31.1111 222.248 30.7205L221.212 32.4315ZM239.337 34.488L238.802 35.3326L238.811 35.3383L239.337 34.488ZM237.289 32.152L236.384 32.5759L236.387 32.5838L236.391 32.5916L237.289 32.152ZM236.585 18.2V17.2H235.585V18.2H236.585ZM239.881 18.2H240.881V17.2H239.881V18.2ZM240.329 30.232L239.405 30.6127L239.411 30.6294L239.419 30.6458L240.329 30.232ZM241.673 31.864L241.119 32.6961L241.125 32.7007L241.132 32.7052L241.673 31.864ZM245.513 32.152L245.864 33.0883L245.881 33.082L245.898 33.0751L245.513 32.152ZM246.825 31.288L246.139 30.561L246.128 30.5708L246.118 30.5809L246.825 31.288ZM248.041 18.2V17.2H247.041V18.2H248.041ZM251.337 18.2H252.337V17.2H251.337V18.2ZM251.337 35V36H252.337V35H251.337ZM248.041 35H247.041V36H248.041V35ZM248.041 31.48L247.487 30.6479L247.041 30.9448V31.48H248.041ZM248.617 31.096L249.568 31.4045L250.456 28.6684L248.063 30.2639L248.617 31.096ZM247.305 33.24L246.586 32.545L246.58 32.5513L246.574 32.5577L247.305 33.24ZM245.161 34.776L245.561 35.6927L245.571 35.6884L245.58 35.684L245.161 34.776ZM242.473 34.32C241.439 34.32 240.581 34.0819 239.864 33.6377L238.811 35.3383C239.885 36.0034 241.118 36.32 242.473 36.32V34.32ZM239.873 33.6435C239.166 33.1954 238.604 32.5626 238.187 31.7124L236.391 32.5916C236.956 33.7467 237.759 34.6712 238.802 35.3325L239.873 33.6435ZM238.195 31.7281C237.801 30.8872 237.585 29.8441 237.585 28.568H235.585C235.585 30.0652 235.838 31.4115 236.384 32.5759L238.195 31.7281ZM237.585 28.568V18.2H235.585V28.568H237.585ZM236.585 19.2H239.881V17.2H236.585V19.2ZM238.881 18.2V27.672H240.881V18.2H238.881ZM238.881 27.672C238.881 28.7523 239.045 29.7405 239.405 30.6127L241.254 29.8513C241.016 29.2729 240.881 28.5544 240.881 27.672H238.881ZM239.419 30.6458C239.807 31.4992 240.37 32.1967 241.119 32.6961L242.228 31.0319C241.825 30.7633 241.492 30.3728 241.24 29.8182L239.419 30.6458ZM241.132 32.7052C241.917 33.2096 242.827 33.44 243.817 33.44V31.44C243.143 31.44 242.624 31.2864 242.214 31.0228L241.132 32.7052ZM243.817 33.44C244.54 33.44 245.226 33.3276 245.864 33.0883L245.162 31.2157C244.776 31.3604 244.332 31.44 243.817 31.44V33.44ZM245.898 33.0751C246.521 32.8156 247.07 32.4574 247.532 31.9951L246.118 30.5809C245.855 30.8439 245.53 31.0617 245.129 31.2289L245.898 33.0751ZM247.512 32.015C248.003 31.5512 248.38 30.9954 248.644 30.3606L246.798 29.5914C246.636 29.9806 246.416 30.2994 246.139 30.561L247.512 32.015ZM248.644 30.3606C248.912 29.7176 249.041 29.0311 249.041 28.312H247.041C247.041 28.7876 246.957 29.2104 246.798 29.5914L248.644 30.3606ZM249.041 28.312V18.2H247.041V28.312H249.041ZM248.041 19.2H251.337V17.2H248.041V19.2ZM250.337 18.2V35H252.337V18.2H250.337ZM251.337 34H248.041V36H251.337V34ZM249.041 35V31.48H247.041V35H249.041ZM248.596 32.3121L249.172 31.9281L248.063 30.2639L247.487 30.6479L248.596 32.3121ZM247.666 30.7875C247.46 31.4216 247.107 32.0063 246.586 32.545L248.024 33.935C248.741 33.1937 249.262 32.3491 249.568 31.4045L247.666 30.7875ZM246.574 32.5577C246.069 33.0986 245.462 33.5358 244.742 33.868L245.58 35.684C246.524 35.2482 247.346 34.6614 248.036 33.9223L246.574 32.5577ZM244.762 33.8593C244.063 34.1639 243.304 34.32 242.473 34.32V36.32C243.563 36.32 244.596 36.1134 245.561 35.6927L244.762 33.8593ZM255.96 35H254.96V36H255.96V35ZM255.96 18.2V17.2H254.96V18.2H255.96ZM259.288 18.2H260.288V17.2H259.288V18.2ZM259.288 23.48L258.318 23.7225L260.288 23.48H259.288ZM258.968 22.2L258.008 21.9219L257.933 22.1809L257.998 22.4425L258.968 22.2ZM260.152 19.992L259.398 19.3352L259.392 19.3422L259.386 19.3494L260.152 19.992ZM262.104 18.424L261.647 17.5346L261.636 17.5402L262.104 18.424ZM265.432 17.944L265.236 18.9247L265.248 18.9269L265.432 17.944ZM266.232 18.168L267.204 18.4024L267.4 17.5925L266.638 17.2542L266.232 18.168ZM265.368 21.752L264.984 22.6751L266.066 23.1259L266.34 21.9864L265.368 21.752ZM264.504 21.496L264.23 22.4575L264.268 22.4686L264.308 22.4766L264.504 21.496ZM261.944 21.72L262.329 22.6431L262.338 22.6393L262.347 22.6353L261.944 21.72ZM260.568 22.648L261.275 23.3551L261.275 23.3551L260.568 22.648ZM259.64 24.024L260.549 24.4407L260.552 24.4337L260.556 24.4267L259.64 24.024ZM259.288 35V36H260.288V35H259.288ZM256.96 35V18.2H254.96V35H256.96ZM255.96 19.2H259.288V17.2H255.96V19.2ZM258.288 18.2V23.48H260.288V18.2H258.288ZM260.258 23.2375L259.938 21.9575L257.998 22.4425L258.318 23.7225L260.258 23.2375ZM259.929 22.4781C260.124 21.8042 260.451 21.1918 260.918 20.6346L259.386 19.3494C258.744 20.1149 258.282 20.9745 258.008 21.9219L259.929 22.4781ZM260.906 20.6488C261.407 20.0736 261.963 19.6305 262.572 19.3078L261.636 17.5402C260.795 17.9855 260.049 18.5877 259.398 19.3352L260.906 20.6488ZM262.562 19.3133C263.176 18.9973 263.788 18.848 264.408 18.848V16.848C263.45 16.848 262.526 17.0827 261.647 17.5347L262.562 19.3133ZM264.408 18.848C264.712 18.848 264.987 18.8748 265.236 18.9246L265.628 16.9634C265.237 16.8852 264.83 16.848 264.408 16.848V18.848ZM265.248 18.9269C265.556 18.9845 265.736 19.0418 265.826 19.0818L266.638 17.2542C266.344 17.1235 265.992 17.0315 265.617 16.9611L265.248 18.9269ZM265.26 17.9336L264.396 21.5176L266.34 21.9864L267.204 18.4024L265.26 17.9336ZM265.753 20.8289C265.427 20.693 265.074 20.5901 264.7 20.5154L264.308 22.4766C264.575 22.5299 264.798 22.5977 264.984 22.6751L265.753 20.8289ZM264.779 20.5345C264.395 20.4246 264.003 20.368 263.608 20.368V22.368C263.81 22.368 264.017 22.3967 264.23 22.4575L264.779 20.5345ZM263.608 20.368C262.892 20.368 262.2 20.5148 261.542 20.8047L262.347 22.6353C262.755 22.4558 263.173 22.368 263.608 22.368V20.368ZM261.56 20.7969C260.923 21.0622 260.356 21.4464 259.861 21.9409L261.275 23.3551C261.591 23.039 261.941 22.8045 262.329 22.6431L261.56 20.7969ZM259.861 21.9409C259.383 22.4188 259.006 22.9828 258.725 23.6213L260.556 24.4267C260.744 23.9985 260.985 23.6452 261.275 23.3551L259.861 21.9409ZM258.731 23.6073C258.431 24.2625 258.288 24.9718 258.288 25.72H260.288C260.288 25.2308 260.38 24.8095 260.549 24.4407L258.731 23.6073ZM258.288 25.72V35H260.288V25.72H258.288ZM259.288 34H255.96V36H259.288V34Z" fill="black" mask="url(#path-1-outside-1_1399_5623)"/>
</g>
<path d="M7.136 80V57.6H10.592V80H7.136ZM8.672 70.464V67.136H20.224V70.464H8.672ZM8.672 60.928V57.6H21.664V60.928H8.672ZM32.9253 80.32C31.1973 80.32 29.6613 79.9573 28.3173 79.232C26.9946 78.4853 25.9493 77.472 25.1813 76.192C24.4346 74.912 24.0613 73.44 24.0613 71.776C24.0613 70.4533 24.2746 69.248 24.7013 68.16C25.1279 67.072 25.7146 66.1333 26.4613 65.344C27.2293 64.5333 28.1359 63.9147 29.1813 63.488C30.2479 63.04 31.3999 62.816 32.6373 62.816C33.7253 62.816 34.7386 63.0293 35.6773 63.456C36.6159 63.8613 37.4266 64.4267 38.1093 65.152C38.8133 65.8773 39.3466 66.7413 39.7093 67.744C40.0933 68.7253 40.2746 69.8027 40.2533 70.976L40.2213 72.384H26.4933L25.7573 69.76H37.3733L36.8933 70.304V69.536C36.8293 68.832 36.5946 68.2027 36.1893 67.648C35.7839 67.0933 35.2719 66.656 34.6533 66.336C34.0346 66.016 33.3626 65.856 32.6373 65.856C31.4853 65.856 30.5146 66.08 29.7253 66.528C28.9359 66.9547 28.3386 67.5947 27.9333 68.448C27.5279 69.28 27.3253 70.3147 27.3253 71.552C27.3253 72.7253 27.5706 73.7493 28.0613 74.624C28.5519 75.4773 29.2453 76.1387 30.1413 76.608C31.0373 77.0773 32.0719 77.312 33.2453 77.312C34.0773 77.312 34.8453 77.1733 35.5493 76.896C36.2746 76.6187 37.0533 76.1173 37.8853 75.392L39.5493 77.728C39.0373 78.24 38.4079 78.688 37.6613 79.072C36.9359 79.456 36.1573 79.7653 35.3253 80C34.5146 80.2133 33.7146 80.32 32.9253 80.32ZM45.9153 80V58.912H49.2113V80H45.9153ZM42.4273 66.4V63.2H53.1153V66.4H42.4273ZM63.0963 80.32C61.5389 80.32 60.1416 79.936 58.9043 79.168C57.6883 78.4 56.7176 77.3547 55.9923 76.032C55.2883 74.7093 54.9363 73.2267 54.9363 71.584C54.9363 69.9413 55.2883 68.4587 55.9923 67.136C56.7176 65.8133 57.6883 64.768 58.9043 64C60.1416 63.232 61.5389 62.848 63.0963 62.848C64.5896 62.848 65.9443 63.1573 67.1603 63.776C68.3976 64.3733 69.3363 65.1947 69.9763 66.24L68.1523 68.48C67.8109 67.9893 67.3736 67.5413 66.8403 67.136C66.3069 66.7307 65.7416 66.4107 65.1443 66.176C64.5469 65.9413 63.9709 65.824 63.4163 65.824C62.3923 65.824 61.4749 66.08 60.6643 66.592C59.8749 67.0827 59.2456 67.7653 58.7763 68.64C58.3069 69.5147 58.0723 70.496 58.0723 71.584C58.0723 72.672 58.3176 73.6533 58.8083 74.528C59.2989 75.3813 59.9496 76.064 60.7603 76.576C61.5709 77.088 62.4669 77.344 63.4483 77.344C64.0243 77.344 64.5789 77.248 65.1123 77.056C65.6669 76.864 66.2003 76.576 66.7123 76.192C67.2243 75.808 67.7043 75.3387 68.1523 74.784L69.9763 77.024C69.2936 77.984 68.3123 78.7733 67.0323 79.392C65.7736 80.0107 64.4616 80.32 63.0963 80.32ZM73.0853 80V56.32H76.3813V66.656L75.8053 67.04C76.0186 66.2933 76.4346 65.6107 77.0533 64.992C77.6719 64.352 78.4079 63.84 79.2613 63.456C80.1146 63.0507 80.9893 62.848 81.8853 62.848C83.1653 62.848 84.2319 63.104 85.0853 63.616C85.9386 64.1067 86.5786 64.864 87.0053 65.888C87.4319 66.912 87.6453 68.2027 87.6453 69.76V80H84.3493V69.984C84.3493 69.024 84.2213 68.2347 83.9653 67.616C83.7093 66.976 83.3146 66.5173 82.7813 66.24C82.2479 65.9413 81.5866 65.8133 80.7973 65.856C80.1573 65.856 79.5706 65.9627 79.0373 66.176C78.5039 66.368 78.0346 66.6453 77.6293 67.008C77.2453 67.3707 76.9359 67.7973 76.7013 68.288C76.4879 68.7573 76.3813 69.2693 76.3813 69.824V80H74.7493C74.4719 80 74.1946 80 73.9173 80C73.6399 80 73.3626 80 73.0853 80ZM106.685 80L99.5493 57.6H103.229L107.549 71.616C107.677 71.9573 107.795 72.3627 107.901 72.832C108.008 73.28 108.104 73.7387 108.189 74.208C108.275 74.6773 108.349 75.1147 108.413 75.52C108.499 75.9253 108.573 76.256 108.637 76.512L107.709 76.48C108.029 75.3493 108.275 74.4747 108.445 73.856C108.637 73.2373 108.787 72.768 108.893 72.448C109 72.1067 109.096 71.8187 109.181 71.584L113.213 61.472H116.317L120.221 71.584C120.435 72.096 120.616 72.608 120.765 73.12C120.936 73.6107 121.085 74.112 121.213 74.624C121.341 75.1147 121.48 75.6373 121.629 76.192L120.797 76.416C120.904 75.84 120.979 75.392 121.021 75.072C121.085 74.7307 121.139 74.4533 121.181 74.24C121.224 74.0267 121.267 73.824 121.309 73.632C121.352 73.4187 121.416 73.152 121.501 72.832C121.608 72.512 121.747 72.0747 121.917 71.52L126.173 57.6H129.885L122.749 80H120.349L114.429 65.984L114.717 66.112L109.021 80H106.685ZM138.612 80.32C137.225 80.32 135.956 79.936 134.804 79.168C133.673 78.4 132.766 77.3547 132.084 76.032C131.401 74.7093 131.06 73.216 131.06 71.552C131.06 69.8667 131.401 68.3733 132.084 67.072C132.788 65.7493 133.726 64.7147 134.9 63.968C136.094 63.2213 137.428 62.848 138.9 62.848C139.774 62.848 140.574 62.976 141.3 63.232C142.025 63.488 142.654 63.8507 143.188 64.32C143.742 64.768 144.19 65.2907 144.532 65.888C144.894 66.4853 145.118 67.1253 145.204 67.808L144.468 67.552V63.2H147.796V80H144.468V76L145.236 75.776C145.108 76.352 144.841 76.9173 144.436 77.472C144.052 78.0053 143.55 78.4853 142.932 78.912C142.334 79.3387 141.662 79.68 140.916 79.936C140.19 80.192 139.422 80.32 138.612 80.32ZM139.476 77.28C140.478 77.28 141.364 77.0347 142.132 76.544C142.9 76.0533 143.497 75.3813 143.924 74.528C144.372 73.6533 144.596 72.6613 144.596 71.552C144.596 70.464 144.372 69.4933 143.924 68.64C143.497 67.7867 142.9 67.1147 142.132 66.624C141.364 66.1333 140.478 65.888 139.476 65.888C138.494 65.888 137.62 66.1333 136.852 66.624C136.105 67.1147 135.508 67.7867 135.06 68.64C134.633 69.4933 134.42 70.464 134.42 71.552C134.42 72.6613 134.633 73.6533 135.06 74.528C135.508 75.3813 136.105 76.0533 136.852 76.544C137.62 77.0347 138.494 77.28 139.476 77.28ZM152.462 80V56.32H155.758V80H152.462ZM160.493 80V56.32H163.789V80H160.493ZM175.988 80.32C174.26 80.32 172.724 79.9573 171.38 79.232C170.057 78.4853 169.012 77.472 168.244 76.192C167.497 74.912 167.124 73.44 167.124 71.776C167.124 70.4533 167.337 69.248 167.764 68.16C168.19 67.072 168.777 66.1333 169.524 65.344C170.292 64.5333 171.198 63.9147 172.244 63.488C173.31 63.04 174.462 62.816 175.7 62.816C176.788 62.816 177.801 63.0293 178.74 63.456C179.678 63.8613 180.489 64.4267 181.172 65.152C181.876 65.8773 182.409 66.7413 182.772 67.744C183.156 68.7253 183.337 69.8027 183.316 70.976L183.284 72.384H169.556L168.82 69.76H180.436L179.956 70.304V69.536C179.892 68.832 179.657 68.2027 179.252 67.648C178.846 67.0933 178.334 66.656 177.716 66.336C177.097 66.016 176.425 65.856 175.7 65.856C174.548 65.856 173.577 66.08 172.788 66.528C171.998 66.9547 171.401 67.5947 170.996 68.448C170.59 69.28 170.388 70.3147 170.388 71.552C170.388 72.7253 170.633 73.7493 171.124 74.624C171.614 75.4773 172.308 76.1387 173.204 76.608C174.1 77.0773 175.134 77.312 176.308 77.312C177.14 77.312 177.908 77.1733 178.612 76.896C179.337 76.6187 180.116 76.1173 180.948 75.392L182.612 77.728C182.1 78.24 181.47 78.688 180.724 79.072C179.998 79.456 179.22 79.7653 178.388 80C177.577 80.2133 176.777 80.32 175.988 80.32ZM188.978 80V58.912H192.274V80H188.978ZM185.49 66.4V63.2H196.178V66.4H185.49Z" fill="url(#paint0_linear_1399_5623)"/>
<a href="https://www.figma.com/file/gVNXm88bWEp0yL9kXKV0B7/Mobile-Wallet-(Copy)?type=design&#38;node-id=920-2401&#38;mode=design">
<rect fill="black" fill-opacity="0" y="2.5" width="192.882" height="40"/>
</a>
<defs>
<filter id="filter0_d_1399_5623" x="0.767578" y="11.3201" width="269.465" height="39.04" filterUnits="userSpaceOnUse" color-interpolation-filters="sRGB">
<feFlood flood-opacity="0" result="BackgroundImageFix"/>
<feColorMatrix in="SourceAlpha" type="matrix" values="0 0 0 0 0 0 0 0 0 0 0 0 0 0 0 0 0 0 127 0" result="hardAlpha"/>
<feOffset dy="4"/>
<feGaussianBlur stdDeviation="2"/>
<feComposite in2="hardAlpha" operator="out"/>
<feColorMatrix type="matrix" values="0 0 0 0 0 0 0 0 0 0 0 0 0 0 0 0 0 0 0.25 0"/>
<feBlend mode="normal" in2="BackgroundImageFix" result="effect1_dropShadow_1399_5623"/>
<feBlend mode="normal" in="SourceGraphic" in2="effect1_dropShadow_1399_5623" result="shape"/>
</filter>
<linearGradient id="paint0_linear_1399_5623" x1="219.93" y1="67.5" x2="-1.29738" y2="67.5" gradientUnits="userSpaceOnUse">
<stop offset="0.131211" stop-color="#F9774B"/>
<stop offset="0.859399" stop-color="#CF447B"/>
</linearGradient>
</defs>
</svg>
