<svg width="90" height="89" viewBox="0 0 90 89" fill="none" xmlns="http://www.w3.org/2000/svg">
<g filter="url(#filter0_bd_1472_3068)">
<path d="M36.1547 53.007C45.6592 53.007 53.3641 45.3021 53.3641 35.7976C53.3641 26.2932 45.6592 18.5883 36.1547 18.5883C26.6502 18.5883 18.9453 26.2932 18.9453 35.7976C18.9453 45.3021 26.6502 53.007 36.1547 53.007Z" fill="url(#paint0_linear_1472_3068)" shape-rendering="crispEdges"/>
<path d="M52.8641 35.7976C52.8641 45.026 45.383 52.507 36.1547 52.507C26.9263 52.507 19.4453 45.026 19.4453 35.7976C19.4453 26.5693 26.9263 19.0883 36.1547 19.0883C45.383 19.0883 52.8641 26.5693 52.8641 35.7976Z" stroke="url(#paint1_linear_1472_3068)" shape-rendering="crispEdges"/>
</g>
<g>
<animateTransform
    attributeName="transform"
    attributeType="XML"
    type="rotate"
    from="0 35.9997 34.9916" 
    to="360 35.9997 34.9916" 
    dur="2s"
    repeatCount="indefinite" 
  />
<g opacity="0.5">

<path d="M45.9343 8.99251C46.384 6.80575 44.9666 4.66958 42.7798 4.21983C38.7463 3.39173 34.6376 3.3394 30.5755 4.0739C28.3748 4.46389 26.9072 6.57336 27.3089 8.76917C27.5638 10.1856 28.5176 11.2959 29.7571 11.8042C30.4476 12.0874 31.2165 12.1792 32.0008 12.0441C35.0444 11.4945 38.128 11.5346 41.1582 12.1553C43.3449 12.605 45.4894 11.191 45.9309 9.00083L45.9343 8.99251Z" fill="#5F38FB"/>
<path d="M50.6817 16.2553C52.7448 17.1014 55.0943 16.1116 55.937 14.0568C56.7796 12.002 55.7933 9.64417 53.7385 8.80151C51.6837 7.95885 49.3258 8.94523 48.4832 11C47.6405 13.0548 48.6269 15.4126 50.6817 16.2553Z" fill="#5F38FB"/>
<path d="M20.0419 59.476C21.6094 57.8974 21.6004 55.3469 20.0218 53.7794C18.4432 52.2119 15.8928 52.2208 14.3253 53.7994C12.7577 55.378 12.7667 57.9285 14.3453 59.496C15.9239 61.0635 18.4744 61.0546 20.0419 59.476Z" fill="#5F38FB"/>
<path d="M67.7309 42.6444C67.5429 43.5294 67.3099 44.4057 67.047 45.2599L67.0436 45.2683C66.7583 46.2008 66.4247 47.133 66.0528 48.0397C63.0813 55.2855 57.5868 61.1954 50.5806 64.6778C49.4956 65.2143 48.2866 65.2239 47.2468 64.7974C46.365 64.4358 45.6094 63.7664 45.1581 62.8525C44.1703 60.8536 44.9811 58.4262 46.9834 57.4301C52.2239 54.8173 56.3414 50.3933 58.5657 44.9693C58.8455 44.2872 59.0954 43.583 59.3135 42.8853C59.5111 42.2375 59.6838 41.5795 59.8281 40.9195C60.3062 38.7347 62.4571 37.3525 64.642 37.8306C66.8219 38.297 68.209 40.4596 67.7309 42.6444Z" fill="#5F38FB"/>
<path d="M13.6198 44.282C13.3636 43.6036 13.141 42.8904 12.9385 42.1756C12.0663 38.9706 11.8948 35.6447 12.3553 32.4128C12.3733 32.2936 12.3899 32.1729 12.4066 32.0519C12.4426 31.7919 12.4787 31.5303 12.5287 31.2789C12.6355 30.7104 12.7673 30.1522 12.9191 29.5925L13.0329 29.1728C13.067 29.0468 13.1102 28.9246 13.1533 28.8024C13.1821 28.7208 13.2108 28.6393 13.2369 28.5567C13.3898 28.0655 13.5476 27.586 13.7337 27.1084C13.8565 26.8089 13.9877 26.5128 14.1188 26.2168C16.0287 21.8203 19.1802 18.0691 23.2602 15.4663C25.1424 14.2654 25.7017 11.764 24.5008 9.88189C23.2999 7.99973 20.7985 7.44038 18.9164 8.64127C13.8895 11.8469 9.89144 16.3589 7.29914 21.6611L7.28209 21.7027C7.20553 21.8656 7.12898 22.0286 7.04902 22.1999C7.01555 22.2736 6.98115 22.347 6.94675 22.4203C6.87794 22.567 6.80914 22.7138 6.74773 22.8635L6.21211 24.1696C6.10718 24.4254 6.01629 24.6871 5.9254 24.9487C5.89513 25.0358 5.86486 25.1229 5.83407 25.2099C5.79313 25.3097 5.75562 25.4012 5.73132 25.5079C5.59593 25.9091 5.46545 26.322 5.3467 26.7301C5.33305 26.7634 5.31601 26.805 5.31068 26.8416L5.30044 26.8666C5.16954 27.328 5.04204 27.781 4.92778 28.2492L4.92095 28.2659C4.8101 28.7257 4.70759 29.189 4.61338 29.6557L4.59291 29.7057C4.51958 30.074 4.45457 30.4458 4.39789 30.821C4.38915 30.866 4.38249 30.9119 4.37583 30.9577C4.36917 31.0036 4.36252 31.0494 4.35378 31.0944C4.33151 31.2554 4.31009 31.4142 4.28868 31.5731C4.26729 31.7317 4.24581 31.891 4.22358 32.0517C4.2173 32.1026 4.21016 32.1555 4.20303 32.2084C4.19589 32.2614 4.18874 32.3144 4.18245 32.3653C4.17746 32.3774 4.17875 32.387 4.18039 32.3991C4.181 32.4035 4.18164 32.4083 4.18205 32.4137C3.76368 36.3723 4.06092 40.4106 5.1307 44.3186C5.39126 45.2709 5.69533 46.2119 6.03309 47.1182C6.34142 47.954 6.69476 48.7986 7.07837 49.6168C7.52429 50.5674 8.29801 51.2637 9.20477 51.6356C10.2197 52.0518 11.3934 52.0569 12.4647 51.5536C14.4866 50.6044 15.3591 48.1926 14.4016 46.1672C14.1097 45.5519 13.8496 44.9302 13.6164 44.2904L13.6198 44.282Z" fill="#5F38FB"/>
<path d="M59.9721 31.4449C59.4107 28.4062 58.2935 25.5379 56.6465 22.9189C55.4524 21.0201 56.0284 18.5256 57.9155 17.3364C59.8109 16.1507 62.3123 16.71 63.498 18.6054C65.6901 22.0991 67.1813 25.9273 67.931 29.9761C68.341 32.1754 66.8817 34.2883 64.6859 34.69C63.8948 34.8417 63.1092 34.7431 62.4188 34.4599C61.1876 33.955 60.2304 32.8531 59.9721 31.4449Z" fill="#5F38FB"/>
<path d="M28.4201 58.5246C31.3432 59.5484 34.3815 60.0072 37.4766 59.8771L37.4731 59.8854C39.708 59.7913 41.5914 61.5257 41.6856 63.7606C41.7798 65.9955 40.0453 67.8789 37.8104 67.9731C33.6898 68.1394 29.6326 67.5348 25.7407 66.172L25.541 66.0901C23.5611 65.2781 22.5436 63.0436 23.2625 61.0061C24.0039 58.8903 26.3127 57.7866 28.4201 58.5246Z" fill="#5F38FB"/>
</g>
<path d="M60.921 59.7574C60.921 61.7059 59.3414 63.2855 57.3929 63.2855C55.4443 63.2855 53.8647 61.7059 53.8647 59.7574C53.8647 57.8089 55.4443 56.2293 57.3929 56.2293C59.3414 56.2293 60.921 57.8089 60.921 59.7574Z" fill="url(#paint2_linear_1472_3068)" stroke="url(#paint3_linear_1472_3068)"/>

</g>
<path d="M44.0733 31.8212L40.5962 35.2983H39.5782L40.4317 36.1518L44.0553 39.7753C45.1458 40.8658 45.1458 42.6262 44.0553 43.7167C43.5141 44.2579 42.7976 44.5323 42.0891 44.5323C41.3805 44.5323 40.664 44.2579 40.1228 43.7167L36.4993 40.0932L36.1458 39.7397L35.7922 40.0932L32.1687 43.7167C31.6276 44.2579 30.9111 44.5323 30.2025 44.5323C29.494 44.5323 28.7775 44.2579 28.2363 43.7167C27.1458 42.6262 27.1458 40.8658 28.2363 39.7753L31.8598 36.1518L32.2134 35.7983L31.8598 35.4447L28.2363 31.8212C27.1458 30.7307 27.1458 28.9703 28.2363 27.8798C29.3268 26.7893 31.0872 26.7893 32.1777 27.8798L35.8012 31.5033L36.1548 31.8568L36.5083 31.5033L40.1318 27.8798C41.2223 26.7893 42.9828 26.7893 44.0733 27.8798C45.1637 28.9703 45.1637 30.7307 44.0733 31.8212Z" fill="url(#paint4_linear_1472_3068)" stroke="url(#paint5_linear_1472_3068)"/>
<defs>
<linearGradient id="paint0_linear_1472_3068" x1="68.576" y1="5.87608" x2="-17.694" y2="88.7331" gradientUnits="userSpaceOnUse">
<stop stop-color="#8566FF" stop-opacity="0.7"/>
<stop offset="0.325347" stop-color="#8566FF" stop-opacity="0.7"/>
<stop offset="0.576947" stop-color="#5D34FF" stop-opacity="0.5"/>
<stop offset="0.752365" stop-color="#5D34FF" stop-opacity="0.3"/>
</linearGradient>
<linearGradient id="paint1_linear_1472_3068" x1="32.305" y1="2.68099" x2="52.1495" y2="68.7607" gradientUnits="userSpaceOnUse">
<stop offset="0.260545" stop-color="#AF9BFD"/>
<stop offset="0.507722" stop-color="#5F38FB" stop-opacity="0"/>
<stop offset="0.723349" stop-color="#6C47FF"/>
</linearGradient>
<linearGradient id="paint2_linear_1472_3068" x1="63.5932" y1="65.4799" x2="53.3634" y2="53.9572" gradientUnits="userSpaceOnUse">
<stop offset="0.104704" stop-color="#C33838"/>
<stop offset="0.796596" stop-color="#F04646"/>
</linearGradient>
<linearGradient id="paint3_linear_1472_3068" x1="52.7907" y1="55.7293" x2="62.1299" y2="64.7801" gradientUnits="userSpaceOnUse">
<stop offset="0.12962" stop-color="#F69090"/>
<stop offset="0.471666" stop-color="#E74343"/>
<stop offset="0.803439" stop-color="#952A2A"/>
</linearGradient>
<linearGradient id="paint4_linear_1472_3068" x1="50.3719" y1="48.9171" x2="26.9185" y2="22.4962" gradientUnits="userSpaceOnUse">
<stop offset="0.104704" stop-color="#C33838"/>
<stop offset="0.796596" stop-color="#F04646"/>
</linearGradient>
<linearGradient id="paint5_linear_1472_3068" x1="25.6023" y1="26.5619" x2="47.0141" y2="47.3153" gradientUnits="userSpaceOnUse">
<stop offset="0.12962" stop-color="#F69090"/>
<stop offset="0.471666" stop-color="#E74343"/>
<stop offset="0.803439" stop-color="#952A2A"/>
</linearGradient>
</defs>
</svg>
