<svg width="33" height="32" viewBox="0 0 33 32" fill="none" xmlns="http://www.w3.org/2000/svg">
<rect x="0.5" width="32" height="32" rx="16" fill="white" fill-opacity="0.1"/>
<path d="M12.5625 11.25H21.1875C21.4922 11.25 21.75 11.5078 21.75 11.8125C21.75 12.1406 21.4922 12.375 21.1875 12.375H12.5625C12.0234 12.375 11.625 12.7969 11.625 13.3125V19.6875C11.625 20.2266 12.0234 20.625 12.5625 20.625H20.4375C20.9531 20.625 21.375 20.2266 21.375 19.6875V15.5625C21.375 15.0469 20.9531 14.625 20.4375 14.625H13.3125C12.9844 14.625 12.75 14.3906 12.75 14.0625C12.75 13.7578 12.9844 13.5 13.3125 13.5H20.4375C21.5625 13.5 22.5 14.4375 22.5 15.5625V19.6875C22.5 20.8359 21.5625 21.75 20.4375 21.75H12.5625C11.4141 21.75 10.5 20.8359 10.5 19.6875V13.3125C10.5 12.1875 11.4141 11.25 12.5625 11.25ZM19.5 18.375C19.0781 18.375 18.75 18.0469 18.75 17.625C18.75 17.2266 19.0781 16.875 19.5 16.875C19.8984 16.875 20.25 17.2266 20.25 17.625C20.25 18.0469 19.8984 18.375 19.5 18.375Z" fill="white"/>
</svg>
