<svg width="17" height="14" viewBox="0 0 17 14" fill="none" xmlns="http://www.w3.org/2000/svg">
<path opacity="0.6" d="M3.4502 0H14.9502C15.3564 0 15.7002 0.34375 15.7002 0.75C15.7002 1.1875 15.3564 1.5 14.9502 1.5H3.4502C2.73145 1.5 2.2002 2.0625 2.2002 2.75V11.25C2.2002 11.9688 2.73145 12.5 3.4502 12.5H13.9502C14.6377 12.5 15.2002 11.9688 15.2002 11.25V5.75C15.2002 5.0625 14.6377 4.5 13.9502 4.5H4.4502C4.0127 4.5 3.7002 4.1875 3.7002 3.75C3.7002 3.34375 4.0127 3 4.4502 3H13.9502C15.4502 3 16.7002 4.25 16.7002 5.75V11.25C16.7002 12.7812 15.4502 14 13.9502 14H3.4502C1.91895 14 0.700195 12.7812 0.700195 11.25V2.75C0.700195 1.25 1.91895 0 3.4502 0ZM12.7002 9.5C12.1377 9.5 11.7002 9.0625 11.7002 8.5C11.7002 7.96875 12.1377 7.5 12.7002 7.5C13.2314 7.5 13.7002 7.96875 13.7002 8.5C13.7002 9.0625 13.2314 9.5 12.7002 9.5Z" fill="white"/>
</svg>
