<svg width="24" height="24" viewBox="0 0 24 24" fill="none" xmlns="http://www.w3.org/2000/svg">
<path d="M16.375 6.0625H7.625C7.37891 6.0625 7.1875 6.28125 7.1875 6.5V17C7.1875 17.2461 7.37891 17.4375 7.625 17.4375H16.375C16.5938 17.4375 16.8125 17.2461 16.8125 17V6.5C16.8125 6.28125 16.5938 6.0625 16.375 6.0625ZM7.625 4.75H16.375C17.332 4.75 18.125 5.54297 18.125 6.5V17C18.125 17.9844 17.332 18.75 16.375 18.75H7.625C6.64062 18.75 5.875 17.9844 5.875 17V6.5C5.875 5.54297 6.64062 4.75 7.625 4.75ZM8.5 15.6875C8.5 15.4688 8.69141 15.25 8.9375 15.25H15.0625C15.2812 15.25 15.5 15.4688 15.5 15.6875C15.5 15.9336 15.2812 16.125 15.0625 16.125H8.9375C8.69141 16.125 8.5 15.9336 8.5 15.6875ZM9.40234 10.875C9.53906 11.75 10.1133 12.4609 10.8789 12.8164C10.6875 12.3516 10.5234 11.7227 10.4688 10.875H9.40234ZM12 13.0625H11.9727H12C12.0547 12.9805 12.1367 12.8438 12.2461 12.625C12.4102 12.2422 12.5742 11.6953 12.6289 10.875H11.3438C11.3984 11.6953 11.5625 12.2422 11.7266 12.625C11.8359 12.8438 11.918 12.9805 11.9727 13.0625H12ZM14.5703 10.875H13.5039C13.4492 11.7227 13.2852 12.3516 13.1211 12.8164C13.8594 12.4609 14.4336 11.75 14.5703 10.875ZM14.5703 10C14.4336 9.15234 13.8594 8.44141 13.1211 8.08594C13.2852 8.55078 13.4766 9.17969 13.5039 10H14.5703ZM12 7.8125H11.9727C11.918 7.92188 11.8359 8.05859 11.7266 8.27734C11.5625 8.66016 11.3984 9.20703 11.3438 10H12.6289C12.5742 9.20703 12.4102 8.66016 12.2461 8.27734C12.1641 8.05859 12.0547 7.92188 12 7.8125ZM9.40234 10H10.4688C10.5234 9.17969 10.6875 8.55078 10.8789 8.08594C10.1133 8.44141 9.53906 9.15234 9.40234 10ZM12 13.9375C10.7422 13.9375 9.59375 13.2812 8.96484 12.1875C8.33594 11.1211 8.33594 9.78125 8.96484 8.6875C9.59375 7.62109 10.7422 6.9375 12 6.9375C13.2305 6.9375 14.3789 7.62109 15.0078 8.6875C15.6367 9.78125 15.6367 11.1211 15.0078 12.1875C14.3789 13.2812 13.2305 13.9375 12 13.9375Z" fill="white"/>
</svg>
