<svg width="24" height="24" viewBox="0 0 24 24" fill="none" xmlns="http://www.w3.org/2000/svg">
<path d="M8.0625 7.8125C8.52734 7.8125 8.9375 7.42969 8.9375 6.9375C8.9375 6.47266 8.52734 6.0625 8.0625 6.0625C7.57031 6.0625 7.1875 6.47266 7.1875 6.9375C7.1875 7.42969 7.57031 7.8125 8.0625 7.8125ZM10.25 6.9375C10.25 7.92188 9.59375 8.76953 8.71875 9.04297V11.75C9.26562 11.3398 9.94922 11.0938 10.6875 11.0938H13.3125C14.3789 11.0938 15.2812 10.2188 15.2812 9.125V9.04297C14.3789 8.76953 13.75 7.92188 13.75 6.9375C13.75 5.73438 14.707 4.75 15.9375 4.75C17.1406 4.75 18.125 5.73438 18.125 6.9375C18.125 7.92188 17.4688 8.76953 16.5938 9.04297V9.125C16.5938 10.957 15.1172 12.4062 13.3125 12.4062H10.6875C9.59375 12.4062 8.71875 13.3086 8.71875 14.375V14.4844C9.59375 14.7578 10.25 15.6055 10.25 16.5625C10.25 17.793 9.26562 18.75 8.0625 18.75C6.83203 18.75 5.875 17.793 5.875 16.5625C5.875 15.6055 6.50391 14.7578 7.40625 14.4844V14.375V9.04297C6.50391 8.76953 5.875 7.92188 5.875 6.9375C5.875 5.73438 6.83203 4.75 8.0625 4.75C9.26562 4.75 10.25 5.73438 10.25 6.9375ZM16.8125 6.9375C16.8125 6.47266 16.4023 6.0625 15.9375 6.0625C15.4453 6.0625 15.0625 6.47266 15.0625 6.9375C15.0625 7.42969 15.4453 7.8125 15.9375 7.8125C16.4023 7.8125 16.8125 7.42969 16.8125 6.9375ZM8.0625 17.4375C8.52734 17.4375 8.9375 17.0547 8.9375 16.5625C8.9375 16.0977 8.52734 15.6875 8.0625 15.6875C7.57031 15.6875 7.1875 16.0977 7.1875 16.5625C7.1875 17.0547 7.57031 17.4375 8.0625 17.4375Z" fill="white"/>
</svg>
