<svg width="347" height="291" viewBox="0 0 347 291" fill="none" xmlns="http://www.w3.org/2000/svg">
<rect y="23" width="347" height="268" rx="12" fill="white"/>
<rect x="0.5" y="23.5" width="346" height="267" rx="11.5" stroke="#D0BCFF" stroke-opacity="0.4"/>
<path d="M25.568 89V77.8H30.128C30.736 77.8 31.2853 77.9547 31.776 78.264C32.2773 78.5627 32.6773 78.9733 32.976 79.496C33.2747 80.0187 33.424 80.6 33.424 81.24C33.424 81.88 33.2747 82.4613 32.976 82.984C32.6773 83.5067 32.2773 83.928 31.776 84.248C31.2853 84.5573 30.736 84.712 30.128 84.712H27.296V89H25.568ZM27.296 83.048H30.096C30.384 83.048 30.6453 82.968 30.88 82.808C31.1147 82.6373 31.3013 82.4187 31.44 82.152C31.5893 81.8747 31.664 81.5707 31.664 81.24C31.664 80.9093 31.5893 80.6107 31.44 80.344C31.3013 80.0773 31.1147 79.864 30.88 79.704C30.6453 79.544 30.384 79.464 30.096 79.464H27.296V83.048ZM35.5646 89V80.6H37.2126V89H35.5646ZM36.3646 78.744C36.0126 78.744 35.7406 78.6533 35.5486 78.472C35.3566 78.2907 35.2606 78.0347 35.2606 77.704C35.2606 77.3947 35.3566 77.144 35.5486 76.952C35.7513 76.76 36.0233 76.664 36.3646 76.664C36.7166 76.664 36.9886 76.7547 37.1806 76.936C37.3726 77.1173 37.4686 77.3733 37.4686 77.704C37.4686 78.0133 37.3673 78.264 37.1646 78.456C36.9726 78.648 36.706 78.744 36.3646 78.744ZM39.7458 89V80.6H41.3938V82.328L41.1058 82.52C41.2124 82.1467 41.4204 81.8053 41.7298 81.496C42.0391 81.176 42.4071 80.92 42.8338 80.728C43.2604 80.5253 43.6978 80.424 44.1458 80.424C44.7858 80.424 45.3191 80.552 45.7458 80.808C46.1724 81.0533 46.4924 81.432 46.7058 81.944C46.9191 82.456 47.0258 83.1013 47.0258 83.88V89H45.3778V83.992C45.3778 83.512 45.3138 83.1173 45.1858 82.808C45.0578 82.488 44.8604 82.2587 44.5938 82.12C44.3271 81.9707 43.9964 81.9067 43.6018 81.928C43.2818 81.928 42.9884 81.9813 42.7218 82.088C42.4551 82.184 42.2204 82.3227 42.0178 82.504C41.8258 82.6853 41.6711 82.8987 41.5538 83.144C41.4471 83.3787 41.3938 83.6347 41.3938 83.912V89H40.5778C40.4391 89 40.3004 89 40.1618 89C40.0231 89 39.8844 89 39.7458 89ZM54.1618 89V77.8H55.8898V89H54.1618ZM54.9298 84.232V82.568H60.7058V84.232H54.9298ZM54.9298 79.464V77.8H61.4258V79.464H54.9298ZM67.0564 89.16C66.1924 89.16 65.4244 88.9787 64.7524 88.616C64.091 88.2427 63.5684 87.736 63.1844 87.096C62.811 86.456 62.6244 85.72 62.6244 84.888C62.6244 84.2267 62.731 83.624 62.9444 83.08C63.1577 82.536 63.451 82.0667 63.8244 81.672C64.2084 81.2667 64.6617 80.9573 65.1844 80.744C65.7177 80.52 66.2937 80.408 66.9124 80.408C67.4564 80.408 67.963 80.5147 68.4324 80.728C68.9017 80.9307 69.307 81.2133 69.6484 81.576C70.0004 81.9387 70.267 82.3707 70.4484 82.872C70.6404 83.3627 70.731 83.9013 70.7204 84.488L70.7044 85.192H63.8404L63.4724 83.88H69.2804L69.0404 84.152V83.768C69.0084 83.416 68.891 83.1013 68.6884 82.824C68.4857 82.5467 68.2297 82.328 67.9204 82.168C67.611 82.008 67.275 81.928 66.9124 81.928C66.3364 81.928 65.851 82.04 65.4564 82.264C65.0617 82.4773 64.763 82.7973 64.5604 83.224C64.3577 83.64 64.2564 84.1573 64.2564 84.776C64.2564 85.3627 64.379 85.8747 64.6244 86.312C64.8697 86.7387 65.2164 87.0693 65.6644 87.304C66.1124 87.5387 66.6297 87.656 67.2164 87.656C67.6324 87.656 68.0164 87.5867 68.3684 87.448C68.731 87.3093 69.1204 87.0587 69.5364 86.696L70.3684 87.864C70.1124 88.12 69.7977 88.344 69.4244 88.536C69.0617 88.728 68.6724 88.8827 68.2564 89C67.851 89.1067 67.451 89.16 67.0564 89.16ZM73.5514 89V78.456H75.1994V89H73.5514ZM71.8074 82.2V80.6H77.1514V82.2H71.8074ZM82.1419 89.16C81.3632 89.16 80.6645 88.968 80.0459 88.584C79.4379 88.2 78.9525 87.6773 78.5899 87.016C78.2379 86.3547 78.0619 85.6133 78.0619 84.792C78.0619 83.9707 78.2379 83.2293 78.5899 82.568C78.9525 81.9067 79.4379 81.384 80.0459 81C80.6645 80.616 81.3632 80.424 82.1419 80.424C82.8885 80.424 83.5659 80.5787 84.1739 80.888C84.7925 81.1867 85.2619 81.5973 85.5819 82.12L84.6699 83.24C84.4992 82.9947 84.2805 82.7707 84.0139 82.568C83.7472 82.3653 83.4645 82.2053 83.1659 82.088C82.8672 81.9707 82.5792 81.912 82.3019 81.912C81.7899 81.912 81.3312 82.04 80.9259 82.296C80.5312 82.5413 80.2165 82.8827 79.9819 83.32C79.7472 83.7573 79.6299 84.248 79.6299 84.792C79.6299 85.336 79.7525 85.8267 79.9979 86.264C80.2432 86.6907 80.5685 87.032 80.9739 87.288C81.3792 87.544 81.8272 87.672 82.3179 87.672C82.6059 87.672 82.8832 87.624 83.1499 87.528C83.4272 87.432 83.6939 87.288 83.9499 87.096C84.2059 86.904 84.4459 86.6693 84.6699 86.392L85.5819 87.512C85.2405 87.992 84.7499 88.3867 84.1099 88.696C83.4805 89.0053 82.8245 89.16 82.1419 89.16ZM87.1364 89V77.16H88.7844V82.328L88.4964 82.52C88.603 82.1467 88.811 81.8053 89.1204 81.496C89.4297 81.176 89.7977 80.92 90.2244 80.728C90.651 80.5253 91.0884 80.424 91.5364 80.424C92.1764 80.424 92.7097 80.552 93.1364 80.808C93.563 81.0533 93.883 81.432 94.0964 81.944C94.3097 82.456 94.4164 83.1013 94.4164 83.88V89H92.7684V83.992C92.7684 83.512 92.7044 83.1173 92.5764 82.808C92.4484 82.488 92.251 82.2587 91.9844 82.12C91.7177 81.9707 91.387 81.9067 90.9924 81.928C90.6724 81.928 90.379 81.9813 90.1124 82.088C89.8457 82.184 89.611 82.3227 89.4084 82.504C89.2164 82.6853 89.0617 82.8987 88.9444 83.144C88.8377 83.3787 88.7844 83.6347 88.7844 83.912V89H87.9684C87.8297 89 87.691 89 87.5524 89C87.4137 89 87.275 89 87.1364 89ZM103.936 89L100.368 77.8H102.208L104.368 84.808C104.432 84.9787 104.491 85.1813 104.544 85.416C104.598 85.64 104.646 85.8693 104.688 86.104C104.731 86.3387 104.768 86.5573 104.8 86.76C104.843 86.9627 104.88 87.128 104.912 87.256L104.448 87.24C104.608 86.6747 104.731 86.2373 104.816 85.928C104.912 85.6187 104.987 85.384 105.04 85.224C105.094 85.0533 105.142 84.9093 105.184 84.792L107.2 79.736H108.752L110.704 84.792C110.811 85.048 110.902 85.304 110.976 85.56C111.062 85.8053 111.136 86.056 111.2 86.312C111.264 86.5573 111.334 86.8187 111.408 87.096L110.992 87.208C111.046 86.92 111.083 86.696 111.104 86.536C111.136 86.3653 111.163 86.2267 111.184 86.12C111.206 86.0133 111.227 85.912 111.248 85.816C111.27 85.7093 111.302 85.576 111.344 85.416C111.398 85.256 111.467 85.0373 111.552 84.76L113.68 77.8H115.536L111.968 89H110.768L107.808 81.992L107.952 82.056L105.104 89H103.936ZM119.9 89.16C119.206 89.16 118.572 88.968 117.996 88.584C117.43 88.2 116.977 87.6773 116.636 87.016C116.294 86.3547 116.124 85.608 116.124 84.776C116.124 83.9333 116.294 83.1867 116.636 82.536C116.988 81.8747 117.457 81.3573 118.044 80.984C118.641 80.6107 119.308 80.424 120.044 80.424C120.481 80.424 120.881 80.488 121.244 80.616C121.606 80.744 121.921 80.9253 122.188 81.16C122.465 81.384 122.689 81.6453 122.86 81.944C123.041 82.2427 123.153 82.5627 123.196 82.904L122.828 82.776V80.6H124.492V89H122.828V87L123.212 86.888C123.148 87.176 123.014 87.4587 122.812 87.736C122.62 88.0027 122.369 88.2427 122.06 88.456C121.761 88.6693 121.425 88.84 121.052 88.968C120.689 89.096 120.305 89.16 119.9 89.16ZM120.332 87.64C120.833 87.64 121.276 87.5173 121.66 87.272C122.044 87.0267 122.342 86.6907 122.556 86.264C122.78 85.8267 122.892 85.3307 122.892 84.776C122.892 84.232 122.78 83.7467 122.556 83.32C122.342 82.8933 122.044 82.5573 121.66 82.312C121.276 82.0667 120.833 81.944 120.332 81.944C119.841 81.944 119.404 82.0667 119.02 82.312C118.646 82.5573 118.348 82.8933 118.124 83.32C117.91 83.7467 117.804 84.232 117.804 84.776C117.804 85.3307 117.91 85.8267 118.124 86.264C118.348 86.6907 118.646 87.0267 119.02 87.272C119.404 87.5173 119.841 87.64 120.332 87.64ZM126.825 89V77.16H128.473V89H126.825ZM130.84 89V77.16H132.488V89H130.84ZM138.588 89.16C137.724 89.16 136.956 88.9787 136.284 88.616C135.622 88.2427 135.1 87.736 134.716 87.096C134.342 86.456 134.156 85.72 134.156 84.888C134.156 84.2267 134.262 83.624 134.476 83.08C134.689 82.536 134.982 82.0667 135.356 81.672C135.74 81.2667 136.193 80.9573 136.716 80.744C137.249 80.52 137.825 80.408 138.444 80.408C138.988 80.408 139.494 80.5147 139.964 80.728C140.433 80.9307 140.838 81.2133 141.18 81.576C141.532 81.9387 141.798 82.3707 141.98 82.872C142.172 83.3627 142.262 83.9013 142.252 84.488L142.236 85.192H135.372L135.004 83.88H140.812L140.572 84.152V83.768C140.54 83.416 140.422 83.1013 140.22 82.824C140.017 82.5467 139.761 82.328 139.452 82.168C139.142 82.008 138.806 81.928 138.444 81.928C137.868 81.928 137.382 82.04 136.988 82.264C136.593 82.4773 136.294 82.7973 136.092 83.224C135.889 83.64 135.788 84.1573 135.788 84.776C135.788 85.3627 135.91 85.8747 136.156 86.312C136.401 86.7387 136.748 87.0693 137.196 87.304C137.644 87.5387 138.161 87.656 138.748 87.656C139.164 87.656 139.548 87.5867 139.9 87.448C140.262 87.3093 140.652 87.0587 141.068 86.696L141.9 87.864C141.644 88.12 141.329 88.344 140.956 88.536C140.593 88.728 140.204 88.8827 139.788 89C139.382 89.1067 138.982 89.16 138.588 89.16ZM145.083 89V78.456H146.731V89H145.083ZM143.339 82.2V80.6H148.683V82.2H143.339ZM155.708 89V78.456H157.356V89H155.708ZM153.964 82.2V80.6H159.308V82.2H153.964ZM164.506 89.16C163.685 89.16 162.949 88.9733 162.298 88.6C161.658 88.216 161.151 87.6987 160.778 87.048C160.405 86.3867 160.218 85.6347 160.218 84.792C160.218 83.9493 160.405 83.2027 160.778 82.552C161.151 81.8907 161.658 81.3733 162.298 81C162.949 80.616 163.685 80.424 164.506 80.424C165.317 80.424 166.042 80.616 166.682 81C167.333 81.3733 167.845 81.8907 168.218 82.552C168.591 83.2027 168.778 83.9493 168.778 84.792C168.778 85.6347 168.591 86.3867 168.218 87.048C167.845 87.6987 167.333 88.216 166.682 88.6C166.042 88.9733 165.317 89.16 164.506 89.16ZM164.506 87.656C165.007 87.656 165.455 87.5333 165.85 87.288C166.245 87.032 166.554 86.6907 166.778 86.264C167.002 85.8267 167.109 85.336 167.098 84.792C167.109 84.2373 167.002 83.7467 166.778 83.32C166.554 82.8827 166.245 82.5413 165.85 82.296C165.455 82.0507 165.007 81.928 164.506 81.928C164.005 81.928 163.551 82.056 163.146 82.312C162.751 82.5573 162.442 82.8987 162.218 83.336C161.994 83.7627 161.887 84.248 161.898 84.792C161.887 85.336 161.994 85.8267 162.218 86.264C162.442 86.6907 162.751 87.032 163.146 87.288C163.551 87.5333 164.005 87.656 164.506 87.656ZM176.466 92.68L178.162 88.76L178.178 90.072L173.986 80.6H175.906L178.53 86.776C178.584 86.8827 178.648 87.048 178.722 87.272C178.797 87.4853 178.861 87.6987 178.914 87.912L178.498 88.008C178.584 87.784 178.664 87.56 178.738 87.336C178.824 87.112 178.904 86.888 178.978 86.664L181.17 80.6H183.122L179.666 89L178.242 92.68H176.466ZM187.975 89.16C187.154 89.16 186.418 88.9733 185.767 88.6C185.127 88.216 184.62 87.6987 184.247 87.048C183.874 86.3867 183.687 85.6347 183.687 84.792C183.687 83.9493 183.874 83.2027 184.247 82.552C184.62 81.8907 185.127 81.3733 185.767 81C186.418 80.616 187.154 80.424 187.975 80.424C188.786 80.424 189.511 80.616 190.151 81C190.802 81.3733 191.314 81.8907 191.687 82.552C192.06 83.2027 192.247 83.9493 192.247 84.792C192.247 85.6347 192.06 86.3867 191.687 87.048C191.314 87.6987 190.802 88.216 190.151 88.6C189.511 88.9733 188.786 89.16 187.975 89.16ZM187.975 87.656C188.476 87.656 188.924 87.5333 189.319 87.288C189.714 87.032 190.023 86.6907 190.247 86.264C190.471 85.8267 190.578 85.336 190.567 84.792C190.578 84.2373 190.471 83.7467 190.247 83.32C190.023 82.8827 189.714 82.5413 189.319 82.296C188.924 82.0507 188.476 81.928 187.975 81.928C187.474 81.928 187.02 82.056 186.615 82.312C186.22 82.5573 185.911 82.8987 185.687 83.336C185.463 83.7627 185.356 84.248 185.367 84.792C185.356 85.336 185.463 85.8267 185.687 86.264C185.911 86.6907 186.22 87.032 186.615 87.288C187.02 87.5333 187.474 87.656 187.975 87.656ZM196.987 89.16C196.389 89.16 195.867 89.0213 195.419 88.744C194.981 88.4667 194.64 88.0773 194.395 87.576C194.16 87.0747 194.043 86.4773 194.043 85.784V80.6H195.691V85.336C195.691 85.8267 195.765 86.2533 195.915 86.616C196.075 86.968 196.299 87.24 196.587 87.432C196.885 87.624 197.243 87.72 197.659 87.72C197.968 87.72 198.251 87.672 198.507 87.576C198.763 87.4693 198.981 87.3253 199.163 87.144C199.355 86.9627 199.504 86.744 199.611 86.488C199.717 86.232 199.771 85.9547 199.771 85.656V80.6H201.419V89H199.771V87.24L200.059 87.048C199.931 87.4427 199.712 87.8 199.403 88.12C199.104 88.44 198.747 88.696 198.331 88.888C197.915 89.0693 197.467 89.16 196.987 89.16ZM203.73 89V80.6H205.394V83.24L205.234 82.6C205.351 82.1947 205.549 81.8267 205.826 81.496C206.114 81.1653 206.439 80.904 206.802 80.712C207.175 80.52 207.559 80.424 207.954 80.424C208.135 80.424 208.306 80.44 208.466 80.472C208.637 80.504 208.77 80.5413 208.866 80.584L208.434 82.376C208.306 82.3227 208.162 82.28 208.002 82.248C207.853 82.2053 207.703 82.184 207.554 82.184C207.266 82.184 206.989 82.2427 206.722 82.36C206.466 82.4667 206.237 82.6213 206.034 82.824C205.842 83.016 205.687 83.2453 205.57 83.512C205.453 83.768 205.394 84.0507 205.394 84.36V89H203.73ZM215.708 89V78.456H217.356V89H215.708ZM213.964 82.2V80.6H219.308V82.2H213.964ZM224.506 89.16C223.685 89.16 222.949 88.9733 222.298 88.6C221.658 88.216 221.151 87.6987 220.778 87.048C220.405 86.3867 220.218 85.6347 220.218 84.792C220.218 83.9493 220.405 83.2027 220.778 82.552C221.151 81.8907 221.658 81.3733 222.298 81C222.949 80.616 223.685 80.424 224.506 80.424C225.317 80.424 226.042 80.616 226.682 81C227.333 81.3733 227.845 81.8907 228.218 82.552C228.591 83.2027 228.778 83.9493 228.778 84.792C228.778 85.6347 228.591 86.3867 228.218 87.048C227.845 87.6987 227.333 88.216 226.682 88.6C226.042 88.9733 225.317 89.16 224.506 89.16ZM224.506 87.656C225.007 87.656 225.455 87.5333 225.85 87.288C226.245 87.032 226.554 86.6907 226.778 86.264C227.002 85.8267 227.109 85.336 227.098 84.792C227.109 84.2373 227.002 83.7467 226.778 83.32C226.554 82.8827 226.245 82.5413 225.85 82.296C225.455 82.0507 225.007 81.928 224.506 81.928C224.005 81.928 223.551 82.056 223.146 82.312C222.751 82.5573 222.442 82.8987 222.218 83.336C221.994 83.7627 221.887 84.248 221.898 84.792C221.887 85.336 221.994 85.8267 222.218 86.264C222.442 86.6907 222.751 87.032 223.146 87.288C223.551 87.5333 224.005 87.656 224.506 87.656ZM234.35 89.16C233.529 89.16 232.793 88.9733 232.142 88.6C231.502 88.216 230.995 87.6987 230.622 87.048C230.249 86.3867 230.062 85.6347 230.062 84.792C230.062 83.9493 230.249 83.2027 230.622 82.552C230.995 81.8907 231.502 81.3733 232.142 81C232.793 80.616 233.529 80.424 234.35 80.424C235.161 80.424 235.886 80.616 236.526 81C237.177 81.3733 237.689 81.8907 238.062 82.552C238.435 83.2027 238.622 83.9493 238.622 84.792C238.622 85.6347 238.435 86.3867 238.062 87.048C237.689 87.6987 237.177 88.216 236.526 88.6C235.886 88.9733 235.161 89.16 234.35 89.16ZM234.35 87.656C234.851 87.656 235.299 87.5333 235.694 87.288C236.089 87.032 236.398 86.6907 236.622 86.264C236.846 85.8267 236.953 85.336 236.942 84.792C236.953 84.2373 236.846 83.7467 236.622 83.32C236.398 82.8827 236.089 82.5413 235.694 82.296C235.299 82.0507 234.851 81.928 234.35 81.928C233.849 81.928 233.395 82.056 232.99 82.312C232.595 82.5573 232.286 82.8987 232.062 83.336C231.838 83.7627 231.731 84.248 231.742 84.792C231.731 85.336 231.838 85.8267 232.062 86.264C232.286 86.6907 232.595 87.032 232.99 87.288C233.395 87.5333 233.849 87.656 234.35 87.656ZM240.45 89V77.16H242.098V89H240.45ZM248.849 89.16C248.487 89.16 248.124 89.1013 247.761 88.984C247.409 88.8667 247.084 88.712 246.785 88.52C246.497 88.3173 246.252 88.0987 246.049 87.864C245.857 87.6187 245.729 87.3733 245.665 87.128L246.081 86.904V88.952H244.433V77.16H246.081V82.52L245.825 82.376C245.879 82.1307 245.996 81.896 246.177 81.672C246.359 81.4373 246.588 81.2293 246.865 81.048C247.153 80.856 247.463 80.7067 247.793 80.6C248.124 80.4827 248.46 80.424 248.801 80.424C249.559 80.424 250.231 80.6107 250.817 80.984C251.404 81.3573 251.868 81.8747 252.209 82.536C252.551 83.1867 252.721 83.9333 252.721 84.776C252.721 85.6187 252.551 86.3707 252.209 87.032C251.879 87.6933 251.42 88.216 250.833 88.6C250.247 88.9733 249.585 89.16 248.849 89.16ZM248.577 87.656C249.068 87.656 249.505 87.5333 249.889 87.288C250.273 87.032 250.577 86.6907 250.801 86.264C251.025 85.8267 251.137 85.3307 251.137 84.776C251.137 84.232 251.025 83.7467 250.801 83.32C250.588 82.8827 250.289 82.5413 249.905 82.296C249.521 82.0507 249.079 81.928 248.577 81.928C248.076 81.928 247.633 82.0507 247.249 82.296C246.865 82.5413 246.561 82.8827 246.337 83.32C246.113 83.7467 246.001 84.232 246.001 84.776C246.001 85.3307 246.113 85.8267 246.337 86.264C246.561 86.6907 246.865 87.032 247.249 87.288C247.633 87.5333 248.076 87.656 248.577 87.656ZM257.743 89.16C257.05 89.16 256.415 88.968 255.839 88.584C255.274 88.2 254.821 87.6773 254.479 87.016C254.138 86.3547 253.967 85.608 253.967 84.776C253.967 83.9333 254.138 83.1867 254.479 82.536C254.831 81.8747 255.301 81.3573 255.887 80.984C256.485 80.6107 257.151 80.424 257.887 80.424C258.325 80.424 258.725 80.488 259.087 80.616C259.45 80.744 259.765 80.9253 260.031 81.16C260.309 81.384 260.533 81.6453 260.703 81.944C260.885 82.2427 260.997 82.5627 261.039 82.904L260.671 82.776V80.6H262.335V89H260.671V87L261.055 86.888C260.991 87.176 260.858 87.4587 260.655 87.736C260.463 88.0027 260.213 88.2427 259.903 88.456C259.605 88.6693 259.269 88.84 258.895 88.968C258.533 89.096 258.149 89.16 257.743 89.16ZM258.175 87.64C258.677 87.64 259.119 87.5173 259.503 87.272C259.887 87.0267 260.186 86.6907 260.399 86.264C260.623 85.8267 260.735 85.3307 260.735 84.776C260.735 84.232 260.623 83.7467 260.399 83.32C260.186 82.8933 259.887 82.5573 259.503 82.312C259.119 82.0667 258.677 81.944 258.175 81.944C257.685 81.944 257.247 82.0667 256.863 82.312C256.49 82.5573 256.191 82.8933 255.967 83.32C255.754 83.7467 255.647 84.232 255.647 84.776C255.647 85.3307 255.754 85.8267 255.967 86.264C256.191 86.6907 256.49 87.0267 256.863 87.272C257.247 87.5173 257.685 87.64 258.175 87.64ZM264.636 89V80.6H266.3V83.24L266.14 82.6C266.258 82.1947 266.455 81.8267 266.732 81.496C267.02 81.1653 267.346 80.904 267.708 80.712C268.082 80.52 268.466 80.424 268.86 80.424C269.042 80.424 269.212 80.44 269.372 80.472C269.543 80.504 269.676 80.5413 269.772 80.584L269.34 82.376C269.212 82.3227 269.068 82.28 268.908 82.248C268.759 82.2053 268.61 82.184 268.46 82.184C268.172 82.184 267.895 82.2427 267.628 82.36C267.372 82.4667 267.143 82.6213 266.94 82.824C266.748 83.016 266.594 83.2453 266.476 83.512C266.359 83.768 266.3 84.0507 266.3 84.36V89H264.636ZM276.486 89V79.656C276.486 79.176 276.593 78.7493 276.806 78.376C277.019 78.0027 277.313 77.7093 277.686 77.496C278.059 77.2827 278.491 77.176 278.982 77.176C279.323 77.176 279.643 77.24 279.942 77.368C280.241 77.496 280.481 77.6667 280.662 77.88L280.102 79.144C279.963 79.016 279.809 78.9147 279.638 78.84C279.478 78.7547 279.323 78.712 279.174 78.712C278.95 78.712 278.758 78.7493 278.598 78.824C278.449 78.888 278.337 78.9947 278.262 79.144C278.187 79.2827 278.15 79.4533 278.15 79.656V89H277.318C277.179 89 277.041 89 276.902 89C276.763 89 276.625 89 276.486 89ZM275.142 82.264V80.744H280.134V82.264H275.142ZM285.319 89.16C284.497 89.16 283.761 88.9733 283.111 88.6C282.471 88.216 281.964 87.6987 281.591 87.048C281.217 86.3867 281.031 85.6347 281.031 84.792C281.031 83.9493 281.217 83.2027 281.591 82.552C281.964 81.8907 282.471 81.3733 283.111 81C283.761 80.616 284.497 80.424 285.319 80.424C286.129 80.424 286.855 80.616 287.495 81C288.145 81.3733 288.657 81.8907 289.031 82.552C289.404 83.2027 289.591 83.9493 289.591 84.792C289.591 85.6347 289.404 86.3867 289.031 87.048C288.657 87.6987 288.145 88.216 287.495 88.6C286.855 88.9733 286.129 89.16 285.319 89.16ZM285.319 87.656C285.82 87.656 286.268 87.5333 286.663 87.288C287.057 87.032 287.367 86.6907 287.591 86.264C287.815 85.8267 287.921 85.336 287.911 84.792C287.921 84.2373 287.815 83.7467 287.591 83.32C287.367 82.8827 287.057 82.5413 286.663 82.296C286.268 82.0507 285.82 81.928 285.319 81.928C284.817 81.928 284.364 82.056 283.959 82.312C283.564 82.5573 283.255 82.8987 283.031 83.336C282.807 83.7627 282.7 84.248 282.711 84.792C282.7 85.336 282.807 85.8267 283.031 86.264C283.255 86.6907 283.564 87.032 283.959 87.288C284.364 87.5333 284.817 87.656 285.319 87.656ZM291.386 89V80.6H293.05V83.24L292.89 82.6C293.008 82.1947 293.205 81.8267 293.482 81.496C293.77 81.1653 294.096 80.904 294.458 80.712C294.832 80.52 295.216 80.424 295.61 80.424C295.792 80.424 295.962 80.44 296.122 80.472C296.293 80.504 296.426 80.5413 296.522 80.584L296.09 82.376C295.962 82.3227 295.818 82.28 295.658 82.248C295.509 82.2053 295.36 82.184 295.21 82.184C294.922 82.184 294.645 82.2427 294.378 82.36C294.122 82.4667 293.893 82.6213 293.69 82.824C293.498 83.016 293.344 83.2453 293.226 83.512C293.109 83.768 293.05 84.0507 293.05 84.36V89H291.386ZM29.072 113.16C28.208 113.16 27.44 112.979 26.768 112.616C26.1067 112.243 25.584 111.736 25.2 111.096C24.8267 110.456 24.64 109.72 24.64 108.888C24.64 108.227 24.7467 107.624 24.96 107.08C25.1733 106.536 25.4667 106.067 25.84 105.672C26.224 105.267 26.6773 104.957 27.2 104.744C27.7333 104.52 28.3093 104.408 28.928 104.408C29.472 104.408 29.9787 104.515 30.448 104.728C30.9173 104.931 31.3227 105.213 31.664 105.576C32.016 105.939 32.2827 106.371 32.464 106.872C32.656 107.363 32.7467 107.901 32.736 108.488L32.72 109.192H25.856L25.488 107.88H31.296L31.056 108.152V107.768C31.024 107.416 30.9067 107.101 30.704 106.824C30.5013 106.547 30.2453 106.328 29.936 106.168C29.6267 106.008 29.2907 105.928 28.928 105.928C28.352 105.928 27.8667 106.04 27.472 106.264C27.0773 106.477 26.7787 106.797 26.576 107.224C26.3733 107.64 26.272 108.157 26.272 108.776C26.272 109.363 26.3947 109.875 26.64 110.312C26.8853 110.739 27.232 111.069 27.68 111.304C28.128 111.539 28.6453 111.656 29.232 111.656C29.648 111.656 30.032 111.587 30.384 111.448C30.7467 111.309 31.136 111.059 31.552 110.696L32.384 111.864C32.128 112.12 31.8133 112.344 31.44 112.536C31.0773 112.728 30.688 112.883 30.272 113C29.8667 113.107 29.4667 113.16 29.072 113.16ZM37.759 113.16C37.0657 113.16 36.431 112.968 35.855 112.584C35.2897 112.2 34.8363 111.677 34.495 111.016C34.1537 110.355 33.983 109.608 33.983 108.776C33.983 107.933 34.1537 107.187 34.495 106.536C34.847 105.875 35.3163 105.357 35.903 104.984C36.5003 104.611 37.167 104.424 37.903 104.424C38.3403 104.424 38.7403 104.488 39.103 104.616C39.4657 104.744 39.7803 104.925 40.047 105.16C40.3243 105.384 40.5483 105.645 40.719 105.944C40.9003 106.243 41.0123 106.563 41.055 106.904L40.687 106.776V104.6H42.351V113H40.687V111L41.071 110.888C41.007 111.176 40.8737 111.459 40.671 111.736C40.479 112.003 40.2283 112.243 39.919 112.456C39.6203 112.669 39.2843 112.84 38.911 112.968C38.5483 113.096 38.1643 113.16 37.759 113.16ZM38.191 111.64C38.6923 111.64 39.135 111.517 39.519 111.272C39.903 111.027 40.2017 110.691 40.415 110.264C40.639 109.827 40.751 109.331 40.751 108.776C40.751 108.232 40.639 107.747 40.415 107.32C40.2017 106.893 39.903 106.557 39.519 106.312C39.135 106.067 38.6923 105.944 38.191 105.944C37.7003 105.944 37.263 106.067 36.879 106.312C36.5057 106.557 36.207 106.893 35.983 107.32C35.7697 107.747 35.663 108.232 35.663 108.776C35.663 109.331 35.7697 109.827 35.983 110.264C36.207 110.691 36.5057 111.027 36.879 111.272C37.263 111.517 37.7003 111.64 38.191 111.64ZM47.452 113.16C46.748 113.16 46.1133 113.037 45.548 112.792C44.9827 112.547 44.5133 112.184 44.14 111.704L45.26 110.744C45.58 111.117 45.9267 111.389 46.3 111.56C46.684 111.72 47.116 111.8 47.596 111.8C47.788 111.8 47.964 111.779 48.124 111.736C48.2947 111.683 48.4387 111.608 48.556 111.512C48.684 111.416 48.78 111.304 48.844 111.176C48.908 111.037 48.94 110.888 48.94 110.728C48.94 110.451 48.8387 110.227 48.636 110.056C48.5293 109.981 48.3587 109.901 48.124 109.816C47.9 109.72 47.6067 109.624 47.244 109.528C46.6253 109.368 46.1187 109.187 45.724 108.984C45.3293 108.781 45.0253 108.552 44.812 108.296C44.652 108.093 44.5347 107.875 44.46 107.64C44.3853 107.395 44.348 107.128 44.348 106.84C44.348 106.488 44.4227 106.168 44.572 105.88C44.732 105.581 44.9453 105.325 45.212 105.112C45.4893 104.888 45.8093 104.717 46.172 104.6C46.5453 104.483 46.94 104.424 47.356 104.424C47.7507 104.424 48.14 104.477 48.524 104.584C48.9187 104.691 49.2813 104.845 49.612 105.048C49.9427 105.251 50.22 105.491 50.444 105.768L49.5 106.808C49.2973 106.605 49.0733 106.429 48.828 106.28C48.5933 106.12 48.3533 105.997 48.108 105.912C47.8627 105.827 47.6387 105.784 47.436 105.784C47.212 105.784 47.0093 105.805 46.828 105.848C46.6467 105.891 46.492 105.955 46.364 106.04C46.2467 106.125 46.156 106.232 46.092 106.36C46.028 106.488 45.996 106.632 45.996 106.792C46.0067 106.931 46.0387 107.064 46.092 107.192C46.156 107.309 46.2413 107.411 46.348 107.496C46.4653 107.581 46.6413 107.672 46.876 107.768C47.1107 107.864 47.4093 107.955 47.772 108.04C48.3053 108.179 48.7427 108.333 49.084 108.504C49.436 108.664 49.7133 108.851 49.916 109.064C50.1293 109.267 50.2787 109.501 50.364 109.768C50.4493 110.035 50.492 110.333 50.492 110.664C50.492 111.144 50.3533 111.576 50.076 111.96C49.8093 112.333 49.4467 112.627 48.988 112.84C48.5293 113.053 48.0173 113.16 47.452 113.16ZM53.7163 116.68L55.4123 112.76L55.4283 114.072L51.2363 104.6H53.1562L55.7803 110.776C55.8336 110.883 55.8976 111.048 55.9723 111.272C56.0469 111.485 56.1109 111.699 56.1643 111.912L55.7483 112.008C55.8336 111.784 55.9136 111.56 55.9883 111.336C56.0736 111.112 56.1536 110.888 56.2283 110.664L58.4203 104.6H60.3723L56.9163 113L55.4923 116.68H53.7163ZM69.3215 113.16C68.6282 113.16 67.9935 112.968 67.4175 112.584C66.8522 112.2 66.3988 111.677 66.0575 111.016C65.7162 110.355 65.5455 109.608 65.5455 108.776C65.5455 107.933 65.7162 107.187 66.0575 106.536C66.4095 105.875 66.8788 105.357 67.4655 104.984C68.0628 104.611 68.7295 104.424 69.4655 104.424C69.9028 104.424 70.3028 104.488 70.6655 104.616C71.0282 104.744 71.3428 104.925 71.6095 105.16C71.8868 105.384 72.1108 105.645 72.2815 105.944C72.4628 106.243 72.5748 106.563 72.6175 106.904L72.2495 106.776V104.6H73.9135V113H72.2495V111L72.6335 110.888C72.5695 111.176 72.4362 111.459 72.2335 111.736C72.0415 112.003 71.7908 112.243 71.4815 112.456C71.1828 112.669 70.8468 112.84 70.4735 112.968C70.1108 113.096 69.7268 113.16 69.3215 113.16ZM69.7535 111.64C70.2548 111.64 70.6975 111.517 71.0815 111.272C71.4655 111.027 71.7642 110.691 71.9775 110.264C72.2015 109.827 72.3135 109.331 72.3135 108.776C72.3135 108.232 72.2015 107.747 71.9775 107.32C71.7642 106.893 71.4655 106.557 71.0815 106.312C70.6975 106.067 70.2548 105.944 69.7535 105.944C69.2628 105.944 68.8255 106.067 68.4415 106.312C68.0682 106.557 67.7695 106.893 67.5455 107.32C67.3322 107.747 67.2255 108.232 67.2255 108.776C67.2255 109.331 67.3322 109.827 67.5455 110.264C67.7695 110.691 68.0682 111.027 68.4415 111.272C68.8255 111.517 69.2628 111.64 69.7535 111.64ZM79.7825 113.16C79.0038 113.16 78.3052 112.968 77.6865 112.584C77.0785 112.2 76.5932 111.677 76.2305 111.016C75.8785 110.355 75.7025 109.613 75.7025 108.792C75.7025 107.971 75.8785 107.229 76.2305 106.568C76.5932 105.907 77.0785 105.384 77.6865 105C78.3052 104.616 79.0038 104.424 79.7825 104.424C80.5292 104.424 81.2065 104.579 81.8145 104.888C82.4332 105.187 82.9025 105.597 83.2225 106.12L82.3105 107.24C82.1398 106.995 81.9212 106.771 81.6545 106.568C81.3878 106.365 81.1052 106.205 80.8065 106.088C80.5078 105.971 80.2198 105.912 79.9425 105.912C79.4305 105.912 78.9718 106.04 78.5665 106.296C78.1718 106.541 77.8572 106.883 77.6225 107.32C77.3878 107.757 77.2705 108.248 77.2705 108.792C77.2705 109.336 77.3932 109.827 77.6385 110.264C77.8838 110.691 78.2092 111.032 78.6145 111.288C79.0198 111.544 79.4678 111.672 79.9585 111.672C80.2465 111.672 80.5238 111.624 80.7905 111.528C81.0678 111.432 81.3345 111.288 81.5905 111.096C81.8465 110.904 82.0865 110.669 82.3105 110.392L83.2225 111.512C82.8812 111.992 82.3905 112.387 81.7505 112.696C81.1212 113.005 80.4652 113.16 79.7825 113.16ZM88.345 113.16C87.5663 113.16 86.8677 112.968 86.249 112.584C85.641 112.2 85.1557 111.677 84.793 111.016C84.441 110.355 84.265 109.613 84.265 108.792C84.265 107.971 84.441 107.229 84.793 106.568C85.1557 105.907 85.641 105.384 86.249 105C86.8677 104.616 87.5663 104.424 88.345 104.424C89.0917 104.424 89.769 104.579 90.377 104.888C90.9957 105.187 91.465 105.597 91.785 106.12L90.873 107.24C90.7023 106.995 90.4837 106.771 90.217 106.568C89.9503 106.365 89.6677 106.205 89.369 106.088C89.0703 105.971 88.7823 105.912 88.505 105.912C87.993 105.912 87.5343 106.04 87.129 106.296C86.7343 106.541 86.4197 106.883 86.185 107.32C85.9503 107.757 85.833 108.248 85.833 108.792C85.833 109.336 85.9557 109.827 86.201 110.264C86.4463 110.691 86.7717 111.032 87.177 111.288C87.5823 111.544 88.0303 111.672 88.521 111.672C88.809 111.672 89.0863 111.624 89.353 111.528C89.6303 111.432 89.897 111.288 90.153 111.096C90.409 110.904 90.649 110.669 90.873 110.392L91.785 111.512C91.4437 111.992 90.953 112.387 90.313 112.696C89.6837 113.005 89.0277 113.16 88.345 113.16ZM97.2595 113.16C96.3955 113.16 95.6275 112.979 94.9555 112.616C94.2942 112.243 93.7715 111.736 93.3875 111.096C93.0142 110.456 92.8275 109.72 92.8275 108.888C92.8275 108.227 92.9342 107.624 93.1475 107.08C93.3608 106.536 93.6542 106.067 94.0275 105.672C94.4115 105.267 94.8648 104.957 95.3875 104.744C95.9208 104.52 96.4968 104.408 97.1155 104.408C97.6595 104.408 98.1662 104.515 98.6355 104.728C99.1048 104.931 99.5102 105.213 99.8515 105.576C100.204 105.939 100.47 106.371 100.652 106.872C100.844 107.363 100.934 107.901 100.924 108.488L100.908 109.192H94.0435L93.6755 107.88H99.4835L99.2435 108.152V107.768C99.2115 107.416 99.0942 107.101 98.8915 106.824C98.6888 106.547 98.4328 106.328 98.1235 106.168C97.8142 106.008 97.4782 105.928 97.1155 105.928C96.5395 105.928 96.0542 106.04 95.6595 106.264C95.2648 106.477 94.9662 106.797 94.7635 107.224C94.5608 107.64 94.4595 108.157 94.4595 108.776C94.4595 109.363 94.5822 109.875 94.8275 110.312C95.0728 110.739 95.4195 111.069 95.8675 111.304C96.3155 111.539 96.8328 111.656 97.4195 111.656C97.8355 111.656 98.2195 111.587 98.5715 111.448C98.9342 111.309 99.3235 111.059 99.7395 110.696L100.572 111.864C100.316 112.12 100.001 112.344 99.6275 112.536C99.2648 112.728 98.8755 112.883 98.4595 113C98.0542 113.107 97.6542 113.16 97.2595 113.16ZM105.515 113.16C104.811 113.16 104.176 113.037 103.611 112.792C103.045 112.547 102.576 112.184 102.203 111.704L103.323 110.744C103.643 111.117 103.989 111.389 104.363 111.56C104.747 111.72 105.179 111.8 105.659 111.8C105.851 111.8 106.027 111.779 106.187 111.736C106.357 111.683 106.501 111.608 106.619 111.512C106.747 111.416 106.843 111.304 106.907 111.176C106.971 111.037 107.003 110.888 107.003 110.728C107.003 110.451 106.901 110.227 106.699 110.056C106.592 109.981 106.421 109.901 106.187 109.816C105.963 109.72 105.669 109.624 105.307 109.528C104.688 109.368 104.181 109.187 103.787 108.984C103.392 108.781 103.088 108.552 102.875 108.296C102.715 108.093 102.597 107.875 102.523 107.64C102.448 107.395 102.411 107.128 102.411 106.84C102.411 106.488 102.485 106.168 102.635 105.88C102.795 105.581 103.008 105.325 103.275 105.112C103.552 104.888 103.872 104.717 104.235 104.6C104.608 104.483 105.003 104.424 105.419 104.424C105.813 104.424 106.203 104.477 106.587 104.584C106.981 104.691 107.344 104.845 107.675 105.048C108.005 105.251 108.283 105.491 108.507 105.768L107.563 106.808C107.36 106.605 107.136 106.429 106.891 106.28C106.656 106.12 106.416 105.997 106.171 105.912C105.925 105.827 105.701 105.784 105.499 105.784C105.275 105.784 105.072 105.805 104.891 105.848C104.709 105.891 104.555 105.955 104.427 106.04C104.309 106.125 104.219 106.232 104.155 106.36C104.091 106.488 104.059 106.632 104.059 106.792C104.069 106.931 104.101 107.064 104.155 107.192C104.219 107.309 104.304 107.411 104.411 107.496C104.528 107.581 104.704 107.672 104.939 107.768C105.173 107.864 105.472 107.955 105.835 108.04C106.368 108.179 106.805 108.333 107.147 108.504C107.499 108.664 107.776 108.851 107.979 109.064C108.192 109.267 108.341 109.501 108.427 109.768C108.512 110.035 108.555 110.333 108.555 110.664C108.555 111.144 108.416 111.576 108.139 111.96C107.872 112.333 107.509 112.627 107.051 112.84C106.592 113.053 106.08 113.16 105.515 113.16ZM113.171 113.16C112.467 113.16 111.832 113.037 111.267 112.792C110.701 112.547 110.232 112.184 109.859 111.704L110.979 110.744C111.299 111.117 111.645 111.389 112.019 111.56C112.403 111.72 112.835 111.8 113.315 111.8C113.507 111.8 113.683 111.779 113.843 111.736C114.013 111.683 114.157 111.608 114.275 111.512C114.403 111.416 114.499 111.304 114.563 111.176C114.627 111.037 114.659 110.888 114.659 110.728C114.659 110.451 114.557 110.227 114.355 110.056C114.248 109.981 114.077 109.901 113.843 109.816C113.619 109.72 113.325 109.624 112.963 109.528C112.344 109.368 111.837 109.187 111.443 108.984C111.048 108.781 110.744 108.552 110.531 108.296C110.371 108.093 110.253 107.875 110.179 107.64C110.104 107.395 110.067 107.128 110.067 106.84C110.067 106.488 110.141 106.168 110.291 105.88C110.451 105.581 110.664 105.325 110.931 105.112C111.208 104.888 111.528 104.717 111.891 104.6C112.264 104.483 112.659 104.424 113.075 104.424C113.469 104.424 113.859 104.477 114.243 104.584C114.637 104.691 115 104.845 115.331 105.048C115.661 105.251 115.939 105.491 116.163 105.768L115.219 106.808C115.016 106.605 114.792 106.429 114.547 106.28C114.312 106.12 114.072 105.997 113.827 105.912C113.581 105.827 113.357 105.784 113.155 105.784C112.931 105.784 112.728 105.805 112.547 105.848C112.365 105.891 112.211 105.955 112.083 106.04C111.965 106.125 111.875 106.232 111.811 106.36C111.747 106.488 111.715 106.632 111.715 106.792C111.725 106.931 111.757 107.064 111.811 107.192C111.875 107.309 111.96 107.411 112.067 107.496C112.184 107.581 112.36 107.672 112.595 107.768C112.829 107.864 113.128 107.955 113.491 108.04C114.024 108.179 114.461 108.333 114.803 108.504C115.155 108.664 115.432 108.851 115.635 109.064C115.848 109.267 115.997 109.501 116.083 109.768C116.168 110.035 116.211 110.333 116.211 110.664C116.211 111.144 116.072 111.576 115.795 111.96C115.528 112.333 115.165 112.627 114.707 112.84C114.248 113.053 113.736 113.16 113.171 113.16Z" fill="#000D3D"/>
<rect x="24" y="147" width="24" height="24" rx="6" fill="#F3F5F8"/>
<rect x="60" y="147" width="80" height="24" rx="6" fill="#F3F5F8"/>
<rect x="291" y="143" width="32" height="32" rx="16" fill="white"/>
<path d="M305.414 153.172L305.113 157.027C305.086 157.438 304.895 157.793 304.539 158.012C303.91 158.449 303.418 159.133 303.199 159.926L303.172 160.062H306.344V157.656C306.344 157.301 306.617 157 307 157C307.355 157 307.656 157.301 307.656 157.656V160.062H310.801L310.773 159.926C310.555 159.133 310.09 158.449 309.434 158.012C309.105 157.793 308.887 157.438 308.859 157.027L308.559 153.172C308.559 153.145 308.559 153.117 308.559 153.062H305.414C305.414 153.117 305.414 153.145 305.414 153.172ZM306.344 161.375H302.625C302.352 161.375 302.078 161.266 301.914 161.047C301.75 160.828 301.695 160.555 301.777 160.309L301.941 159.625C302.215 158.477 302.898 157.547 303.801 156.918L304.02 154.375L304.102 153.062H303.281C303.145 153.062 303.035 153.035 302.926 152.98C302.734 152.871 302.625 152.652 302.625 152.406C302.625 152.051 302.898 151.75 303.281 151.75H304.102H309.871H310.719C311.074 151.75 311.375 152.051 311.375 152.406C311.375 152.652 311.238 152.871 311.047 152.98C310.938 153.035 310.828 153.062 310.719 153.062H309.871L309.953 154.375L310.172 156.918C311.074 157.547 311.758 158.477 312.031 159.625L312.195 160.309C312.277 160.555 312.223 160.828 312.059 161.047C311.895 161.266 311.621 161.375 311.348 161.375H307.656V165.094C307.656 165.477 307.355 165.75 307 165.75C306.617 165.75 306.344 165.477 306.344 165.094V161.375Z" fill="#B9C5D4"/>
<rect x="24" y="193" width="24" height="24" rx="5.33333" fill="url(#paint0_linear_1415_5145)"/>
<path fill-rule="evenodd" clip-rule="evenodd" d="M37.0611 200.41H35.1504V202.307H37.0611V200.41ZM38.8125 200.41H40.6227V202.207H38.8125V200.41ZM40.4947 204.635C40.5776 204.758 40.6218 204.903 40.6218 205.051C40.6218 205.249 40.5423 205.44 40.4009 205.58C40.2594 205.721 40.0676 205.8 39.8676 205.8C39.7184 205.8 39.5725 205.756 39.4485 205.673C39.3245 205.591 39.2278 205.474 39.1707 205.337C39.1136 205.201 39.0987 205.05 39.1278 204.905C39.1569 204.759 39.2287 204.626 39.3342 204.521C39.4397 204.416 39.5741 204.345 39.7204 204.316C39.8667 204.287 40.0184 204.302 40.1562 204.359C40.294 204.415 40.4118 204.511 40.4947 204.635ZM40.4947 208.425C40.5776 208.549 40.6218 208.693 40.6218 208.841C40.6218 209.04 40.5423 209.231 40.4009 209.371C40.2594 209.512 40.0676 209.59 39.8676 209.59C39.7184 209.59 39.5725 209.547 39.4485 209.464C39.3245 209.382 39.2278 209.265 39.1707 209.128C39.1136 208.991 39.0987 208.841 39.1278 208.695C39.1569 208.55 39.2287 208.417 39.3342 208.312C39.4397 208.207 39.5741 208.136 39.7204 208.107C39.8667 208.078 40.0184 208.093 40.1562 208.15C40.294 208.206 40.4118 208.302 40.4947 208.425ZM36.733 208.425C36.8159 208.549 36.8601 208.693 36.8601 208.841C36.8601 209.04 36.7806 209.231 36.6392 209.371C36.4977 209.512 36.3059 209.59 36.1058 209.59C35.9566 209.59 35.8108 209.547 35.6868 209.464C35.5628 209.382 35.4661 209.265 35.409 209.128C35.3519 208.991 35.337 208.841 35.366 208.695C35.3952 208.55 35.467 208.417 35.5725 208.312C35.678 208.207 35.8124 208.136 35.9587 208.107C36.105 208.078 36.2567 208.093 36.3945 208.15C36.5323 208.206 36.6501 208.302 36.733 208.425ZM35.1992 204.152H37.0094V205.95H35.1992V204.152ZM31.3828 200.412H33.3941V202.409H31.3828V200.412ZM33.1871 207.793H31.377V209.591H33.1871V207.793ZM31.377 204.102H33.2877V206H31.377V204.102Z" fill="white"/>
<path d="M61.8493 211V199.8H63.5773V211H61.8493ZM62.6173 206.232V204.568H68.3933V206.232H62.6173ZM62.6173 201.464V199.8H69.1133V201.464H62.6173ZM74.7439 211.16C73.8799 211.16 73.1119 210.979 72.4399 210.616C71.7785 210.243 71.2559 209.736 70.8719 209.096C70.4985 208.456 70.3119 207.72 70.3119 206.888C70.3119 206.227 70.4185 205.624 70.6319 205.08C70.8452 204.536 71.1385 204.067 71.5119 203.672C71.8959 203.267 72.3492 202.957 72.8719 202.744C73.4052 202.52 73.9812 202.408 74.5999 202.408C75.1439 202.408 75.6505 202.515 76.1199 202.728C76.5892 202.931 76.9945 203.213 77.3359 203.576C77.6879 203.939 77.9545 204.371 78.1359 204.872C78.3279 205.363 78.4185 205.901 78.4079 206.488L78.3919 207.192H71.5279L71.1599 205.88H76.9679L76.7279 206.152V205.768C76.6959 205.416 76.5785 205.101 76.3759 204.824C76.1732 204.547 75.9172 204.328 75.6079 204.168C75.2985 204.008 74.9625 203.928 74.5999 203.928C74.0239 203.928 73.5385 204.04 73.1439 204.264C72.7492 204.477 72.4505 204.797 72.2479 205.224C72.0452 205.64 71.9439 206.157 71.9439 206.776C71.9439 207.363 72.0665 207.875 72.3119 208.312C72.5572 208.739 72.9039 209.069 73.3519 209.304C73.7999 209.539 74.3172 209.656 74.9039 209.656C75.3199 209.656 75.7039 209.587 76.0559 209.448C76.4185 209.309 76.8079 209.059 77.2239 208.696L78.0559 209.864C77.7999 210.12 77.4852 210.344 77.1119 210.536C76.7492 210.728 76.3599 210.883 75.9439 211C75.5385 211.107 75.1385 211.16 74.7439 211.16ZM81.2389 211V200.456H82.8869V211H81.2389ZM79.4949 204.2V202.6H84.8389V204.2H79.4949ZM89.8294 211.16C89.0507 211.16 88.352 210.968 87.7334 210.584C87.1254 210.2 86.64 209.677 86.2774 209.016C85.9254 208.355 85.7494 207.613 85.7494 206.792C85.7494 205.971 85.9254 205.229 86.2774 204.568C86.64 203.907 87.1254 203.384 87.7334 203C88.352 202.616 89.0507 202.424 89.8294 202.424C90.576 202.424 91.2534 202.579 91.8614 202.888C92.48 203.187 92.9494 203.597 93.2694 204.12L92.3574 205.24C92.1867 204.995 91.968 204.771 91.7014 204.568C91.4347 204.365 91.152 204.205 90.8534 204.088C90.5547 203.971 90.2667 203.912 89.9894 203.912C89.4774 203.912 89.0187 204.04 88.6134 204.296C88.2187 204.541 87.904 204.883 87.6694 205.32C87.4347 205.757 87.3174 206.248 87.3174 206.792C87.3174 207.336 87.44 207.827 87.6854 208.264C87.9307 208.691 88.256 209.032 88.6614 209.288C89.0667 209.544 89.5147 209.672 90.0054 209.672C90.2934 209.672 90.5707 209.624 90.8374 209.528C91.1147 209.432 91.3814 209.288 91.6374 209.096C91.8934 208.904 92.1334 208.669 92.3574 208.392L93.2694 209.512C92.928 209.992 92.4374 210.387 91.7974 210.696C91.168 211.005 90.512 211.16 89.8294 211.16ZM94.8239 211V199.16H96.4719V204.328L96.1839 204.52C96.2905 204.147 96.4985 203.805 96.8079 203.496C97.1172 203.176 97.4852 202.92 97.9119 202.728C98.3385 202.525 98.7759 202.424 99.2239 202.424C99.8639 202.424 100.397 202.552 100.824 202.808C101.251 203.053 101.571 203.432 101.784 203.944C101.997 204.456 102.104 205.101 102.104 205.88V211H100.456V205.992C100.456 205.512 100.392 205.117 100.264 204.808C100.136 204.488 99.9385 204.259 99.6719 204.12C99.4052 203.971 99.0745 203.907 98.6799 203.928C98.3599 203.928 98.0665 203.981 97.7999 204.088C97.5332 204.184 97.2985 204.323 97.0959 204.504C96.9039 204.685 96.7492 204.899 96.6319 205.144C96.5252 205.379 96.4719 205.635 96.4719 205.912V211H95.6559C95.5172 211 95.3785 211 95.2399 211C95.1012 211 94.9625 211 94.8239 211ZM111.624 211L108.056 199.8H109.896L112.056 206.808C112.12 206.979 112.179 207.181 112.232 207.416C112.285 207.64 112.333 207.869 112.376 208.104C112.419 208.339 112.456 208.557 112.488 208.76C112.531 208.963 112.568 209.128 112.6 209.256L112.136 209.24C112.296 208.675 112.419 208.237 112.504 207.928C112.6 207.619 112.675 207.384 112.728 207.224C112.781 207.053 112.829 206.909 112.872 206.792L114.888 201.736H116.44L118.392 206.792C118.499 207.048 118.589 207.304 118.664 207.56C118.749 207.805 118.824 208.056 118.888 208.312C118.952 208.557 119.021 208.819 119.096 209.096L118.68 209.208C118.733 208.92 118.771 208.696 118.792 208.536C118.824 208.365 118.851 208.227 118.872 208.12C118.893 208.013 118.915 207.912 118.936 207.816C118.957 207.709 118.989 207.576 119.032 207.416C119.085 207.256 119.155 207.037 119.24 206.76L121.368 199.8H123.224L119.656 211H118.456L115.496 203.992L115.64 204.056L112.792 211H111.624ZM127.587 211.16C126.894 211.16 126.259 210.968 125.683 210.584C125.118 210.2 124.664 209.677 124.323 209.016C123.982 208.355 123.811 207.608 123.811 206.776C123.811 205.933 123.982 205.187 124.323 204.536C124.675 203.875 125.144 203.357 125.731 202.984C126.328 202.611 126.995 202.424 127.731 202.424C128.168 202.424 128.568 202.488 128.931 202.616C129.294 202.744 129.608 202.925 129.875 203.16C130.152 203.384 130.376 203.645 130.547 203.944C130.728 204.243 130.84 204.563 130.883 204.904L130.515 204.776V202.6H132.179V211H130.515V209L130.899 208.888C130.835 209.176 130.702 209.459 130.499 209.736C130.307 210.003 130.056 210.243 129.747 210.456C129.448 210.669 129.112 210.84 128.739 210.968C128.376 211.096 127.992 211.16 127.587 211.16ZM128.019 209.64C128.52 209.64 128.963 209.517 129.347 209.272C129.731 209.027 130.03 208.691 130.243 208.264C130.467 207.827 130.579 207.331 130.579 206.776C130.579 206.232 130.467 205.747 130.243 205.32C130.03 204.893 129.731 204.557 129.347 204.312C128.963 204.067 128.52 203.944 128.019 203.944C127.528 203.944 127.091 204.067 126.707 204.312C126.334 204.557 126.035 204.893 125.811 205.32C125.598 205.747 125.491 206.232 125.491 206.776C125.491 207.331 125.598 207.827 125.811 208.264C126.035 208.691 126.334 209.027 126.707 209.272C127.091 209.517 127.528 209.64 128.019 209.64ZM134.512 211V199.16H136.16V211H134.512ZM138.528 211V199.16H140.176V211H138.528ZM146.275 211.16C145.411 211.16 144.643 210.979 143.971 210.616C143.31 210.243 142.787 209.736 142.403 209.096C142.03 208.456 141.843 207.72 141.843 206.888C141.843 206.227 141.95 205.624 142.163 205.08C142.376 204.536 142.67 204.067 143.043 203.672C143.427 203.267 143.88 202.957 144.403 202.744C144.936 202.52 145.512 202.408 146.131 202.408C146.675 202.408 147.182 202.515 147.651 202.728C148.12 202.931 148.526 203.213 148.867 203.576C149.219 203.939 149.486 204.371 149.667 204.872C149.859 205.363 149.95 205.901 149.939 206.488L149.923 207.192H143.059L142.691 205.88H148.499L148.259 206.152V205.768C148.227 205.416 148.11 205.101 147.907 204.824C147.704 204.547 147.448 204.328 147.139 204.168C146.83 204.008 146.494 203.928 146.131 203.928C145.555 203.928 145.07 204.04 144.675 204.264C144.28 204.477 143.982 204.797 143.779 205.224C143.576 205.64 143.475 206.157 143.475 206.776C143.475 207.363 143.598 207.875 143.843 208.312C144.088 208.739 144.435 209.069 144.883 209.304C145.331 209.539 145.848 209.656 146.435 209.656C146.851 209.656 147.235 209.587 147.587 209.448C147.95 209.309 148.339 209.059 148.755 208.696L149.587 209.864C149.331 210.12 149.016 210.344 148.643 210.536C148.28 210.728 147.891 210.883 147.475 211C147.07 211.107 146.67 211.16 146.275 211.16ZM152.77 211V200.456H154.418V211H152.77ZM151.026 204.2V202.6H156.37V204.2H151.026Z" fill="#000D3D"/>
<g filter="url(#filter0_d_1415_5145)">
<rect x="291" y="189" width="32" height="32" rx="16" fill="#5F38FB" shape-rendering="crispEdges"/>
<path d="M303.25 200.25C303.25 199.852 303.578 199.5 304 199.5H310C310.398 199.5 310.75 199.852 310.75 200.25C310.75 200.672 310.398 201 310 201H309.297L309.555 204.492C310.422 204.961 311.102 205.734 311.43 206.695L311.453 206.766C311.523 207 311.5 207.258 311.359 207.445C311.219 207.633 310.984 207.75 310.75 207.75H303.25C302.992 207.75 302.781 207.656 302.641 207.445C302.477 207.258 302.453 207 302.523 206.766L302.547 206.695C302.875 205.734 303.555 204.961 304.422 204.492L304.68 201H304C303.578 201 303.25 200.672 303.25 200.25ZM306.25 208.5H307.75V210.75C307.75 211.172 307.398 211.5 307 211.5C306.578 211.5 306.25 211.172 306.25 210.75V208.5Z" fill="white"/>
</g>
<rect x="24" y="239" width="24" height="24" rx="6" fill="#F3F5F8"/>
<rect x="60" y="239" width="80" height="24" rx="6" fill="#F3F5F8"/>
<rect x="291" y="235" width="32" height="32" rx="16" fill="white"/>
<path d="M305.414 245.172L305.113 249.027C305.086 249.438 304.895 249.793 304.539 250.012C303.91 250.449 303.418 251.133 303.199 251.926L303.172 252.062H306.344V249.656C306.344 249.301 306.617 249 307 249C307.355 249 307.656 249.301 307.656 249.656V252.062H310.801L310.773 251.926C310.555 251.133 310.09 250.449 309.434 250.012C309.105 249.793 308.887 249.438 308.859 249.027L308.559 245.172C308.559 245.145 308.559 245.117 308.559 245.062H305.414C305.414 245.117 305.414 245.145 305.414 245.172ZM306.344 253.375H302.625C302.352 253.375 302.078 253.266 301.914 253.047C301.75 252.828 301.695 252.555 301.777 252.309L301.941 251.625C302.215 250.477 302.898 249.547 303.801 248.918L304.02 246.375L304.102 245.062H303.281C303.145 245.062 303.035 245.035 302.926 244.98C302.734 244.871 302.625 244.652 302.625 244.406C302.625 244.051 302.898 243.75 303.281 243.75H304.102H309.871H310.719C311.074 243.75 311.375 244.051 311.375 244.406C311.375 244.652 311.238 244.871 311.047 244.98C310.938 245.035 310.828 245.062 310.719 245.062H309.871L309.953 246.375L310.172 248.918C311.074 249.547 311.758 250.477 312.031 251.625L312.195 252.309C312.277 252.555 312.223 252.828 312.059 253.047C311.895 253.266 311.621 253.375 311.348 253.375H307.656V257.094C307.656 257.477 307.355 257.75 307 257.75C306.617 257.75 306.344 257.477 306.344 257.094V253.375Z" fill="#B9C5D4"/>
<rect x="24" width="48" height="48" rx="12" fill="#E8ECF1"/>
<path d="M44.8769 32.5001H41C40.5846 32.5001 40.2308 32.3539 39.9384 32.0616C39.6461 31.7693 39.5 31.4155 39.5 31.0001V27.1232C40.1846 27.0398 40.7724 26.7552 41.2634 26.2693C41.7545 25.7834 42 25.1937 42 24.5001C42 23.8065 41.7545 23.2168 41.2634 22.7309C40.7724 22.245 40.1846 21.9604 39.5 21.877V18.0001C39.5 17.5847 39.6461 17.2309 39.9384 16.9386C40.2308 16.6463 40.5846 16.5001 41 16.5001H45C45.0897 15.8643 45.3682 15.3399 45.8355 14.9271C46.3029 14.5143 46.8577 14.3079 47.5 14.3079C48.1423 14.3079 48.6971 14.5143 49.1644 14.9271C49.6317 15.3399 49.9102 15.8643 50 16.5001H54C54.4153 16.5001 54.7692 16.6463 55.0615 16.9386C55.3538 17.2309 55.5 17.5847 55.5 18.0001V22.0001C56.1358 22.0899 56.6602 22.3684 57.073 22.8357C57.4858 23.303 57.6922 23.8578 57.6922 24.5001C57.6922 25.1424 57.4858 25.6972 57.073 26.1645C56.6602 26.6318 56.1358 26.9104 55.5 27.0001V31.0001C55.5 31.4155 55.3538 31.7693 55.0615 32.0616C54.7692 32.3539 54.4153 32.5001 54 32.5001H50.123C50.0333 31.7821 49.7403 31.186 49.2442 30.7116C48.748 30.2373 48.1666 30.0001 47.5 30.0001C46.8333 30.0001 46.2519 30.2373 45.7557 30.7116C45.2596 31.186 44.9667 31.7821 44.8769 32.5001ZM41 31.0001H43.7116C44.0539 30.1181 44.5945 29.4809 45.3336 29.0886C46.0727 28.6963 46.7949 28.5001 47.5 28.5001C48.2051 28.5001 48.9272 28.6963 49.6663 29.0886C50.4054 29.4809 50.9461 30.1181 51.2884 31.0001H54V25.5578H55.2307C55.5371 25.5194 55.774 25.3957 55.9413 25.1867C56.1086 24.9777 56.1922 24.7488 56.1922 24.5001C56.1922 24.2514 56.1086 24.0225 55.9413 23.8135C55.774 23.6046 55.5371 23.4809 55.2307 23.4424H54V18.0001H48.5577V16.7694C48.5192 16.463 48.3955 16.2261 48.1866 16.0588C47.9776 15.8915 47.7487 15.8078 47.5 15.8078C47.2512 15.8078 47.0224 15.8915 46.8134 16.0588C46.6044 16.2261 46.4807 16.463 46.4423 16.7694V18.0001H41V20.7386C41.7589 21.0527 42.3653 21.5517 42.8192 22.2357C43.273 22.9197 43.4999 23.6745 43.4999 24.5001C43.4999 25.3155 43.273 26.0652 42.8192 26.7491C42.3653 27.4331 41.7589 27.9373 41 28.2616V31.0001Z" fill="#000D3D"/>
<defs>
<filter id="filter0_d_1415_5145" x="279" y="181" width="56" height="56" filterUnits="userSpaceOnUse" color-interpolation-filters="sRGB">
<feFlood flood-opacity="0" result="BackgroundImageFix"/>
<feColorMatrix in="SourceAlpha" type="matrix" values="0 0 0 0 0 0 0 0 0 0 0 0 0 0 0 0 0 0 127 0" result="hardAlpha"/>
<feOffset dy="4"/>
<feGaussianBlur stdDeviation="6"/>
<feComposite in2="hardAlpha" operator="out"/>
<feColorMatrix type="matrix" values="0 0 0 0 0 0 0 0 0 0 0 0 0 0 0 0 0 0 0.22 0"/>
<feBlend mode="normal" in2="BackgroundImageFix" result="effect1_dropShadow_1415_5145"/>
<feBlend mode="normal" in="SourceGraphic" in2="effect1_dropShadow_1415_5145" result="shape"/>
</filter>
<linearGradient id="paint0_linear_1415_5145" x1="19.8651" y1="220.436" x2="64.8125" y2="177.974" gradientUnits="userSpaceOnUse">
<stop offset="0.285971" stop-color="#010E3E"/>
<stop offset="0.959109" stop-color="#5F38FB"/>
</linearGradient>
</defs>
</svg>
