<svg width="390" height="534" viewBox="0 0 390 534" fill="none" xmlns="http://www.w3.org/2000/svg">
<g filter="url(#filter0_b_1399_13667)">
<path d="M160.101 186.795C160.101 183.765 162.558 181.308 165.588 181.308C168.619 181.308 171.076 183.765 171.076 186.795V186.795C171.076 189.826 168.619 192.283 165.588 192.283C162.558 192.283 160.101 189.826 160.101 186.795V186.795Z" fill="url(#paint0_linear_1399_13667)"/>
<path d="M165.588 181.917C162.894 181.917 160.71 184.101 160.71 186.795V186.795C160.71 189.489 162.894 191.673 165.588 191.673C168.282 191.673 170.466 189.489 170.466 186.795V186.795C170.466 184.101 168.282 181.917 165.588 181.917Z" stroke="url(#paint1_linear_1399_13667)" stroke-width="1.21951"/>
</g>
<path opacity="0.5" d="M168.845 216.746C176.743 208.848 189.548 208.848 197.446 216.746C205.344 224.644 205.344 237.449 197.446 245.347C196.948 245.845 196.43 246.31 195.896 246.746L181.481 261.161C179.433 263.208 176.113 263.208 174.065 261.161C172.714 259.81 172.261 257.906 172.693 256.178L169.45 259.421C167.402 261.468 164.083 261.468 162.035 259.421C160.244 257.629 160.019 254.865 161.362 252.83C159.327 254.172 156.562 253.948 154.771 252.157C152.723 250.109 152.723 246.789 154.771 244.742L158.014 241.499C156.286 241.931 154.382 241.477 153.031 240.126C150.983 238.079 150.983 234.759 153.031 232.711L167.446 218.296C167.881 217.761 168.347 217.244 168.845 216.746Z" fill="#5F38FB"/>
<g filter="url(#filter1_bd_1399_13667)">
<mask id="path-4-inside-1_1399_13667" fill="white">
<path fill-rule="evenodd" clip-rule="evenodd" d="M192.355 196.76L206.577 182.537C206.712 182.403 206.852 182.28 206.993 182.157C207.057 182.101 207.12 182.046 207.183 181.989C207.218 181.958 207.253 181.926 207.287 181.895L207.288 181.894C207.373 181.817 207.457 181.739 207.543 181.664L207.616 181.603C207.693 181.537 207.77 181.472 207.849 181.409C220.492 170.668 236.33 177.366 236.33 177.366C243.171 195.387 231.741 206.548 231.241 207.024C231.227 207.039 231.214 207.054 231.201 207.069L231.201 207.069C231.187 207.086 231.173 207.102 231.157 207.117L217.113 221.162C218.615 226.284 217.348 232.046 213.307 236.086L211.045 238.349C208.731 240.663 204.979 240.663 202.665 238.349L202.127 237.811C204.614 230.707 203.018 222.493 197.339 216.814C191.661 211.136 183.446 209.54 176.342 212.027L175.574 211.259C173.295 208.98 173.295 205.285 175.574 203.006L177.901 200.68C181.819 196.762 187.353 195.466 192.355 196.76ZM215.234 191.221C215.234 195.039 218.329 198.134 222.147 198.134C225.965 198.134 229.06 195.039 229.06 191.221C229.06 187.403 225.965 184.308 222.147 184.308C218.329 184.308 215.234 187.403 215.234 191.221Z"/>
</mask>
<path fill-rule="evenodd" clip-rule="evenodd" d="M192.355 196.76L206.577 182.537C206.712 182.403 206.852 182.28 206.993 182.157C207.057 182.101 207.12 182.046 207.183 181.989C207.218 181.958 207.253 181.926 207.287 181.895L207.288 181.894C207.373 181.817 207.457 181.739 207.543 181.664L207.616 181.603C207.693 181.537 207.77 181.472 207.849 181.409C220.492 170.668 236.33 177.366 236.33 177.366C243.171 195.387 231.741 206.548 231.241 207.024C231.227 207.039 231.214 207.054 231.201 207.069L231.201 207.069C231.187 207.086 231.173 207.102 231.157 207.117L217.113 221.162C218.615 226.284 217.348 232.046 213.307 236.086L211.045 238.349C208.731 240.663 204.979 240.663 202.665 238.349L202.127 237.811C204.614 230.707 203.018 222.493 197.339 216.814C191.661 211.136 183.446 209.54 176.342 212.027L175.574 211.259C173.295 208.98 173.295 205.285 175.574 203.006L177.901 200.68C181.819 196.762 187.353 195.466 192.355 196.76ZM215.234 191.221C215.234 195.039 218.329 198.134 222.147 198.134C225.965 198.134 229.06 195.039 229.06 191.221C229.06 187.403 225.965 184.308 222.147 184.308C218.329 184.308 215.234 187.403 215.234 191.221Z" fill="url(#paint2_linear_1399_13667)" shape-rendering="crispEdges"/>
<path d="M206.577 182.537L207.44 183.4V183.4L206.577 182.537ZM192.355 196.76L193.217 197.622L192.724 198.115L192.049 197.94L192.355 196.76ZM206.993 182.157L206.191 181.238L206.191 181.238L206.993 182.157ZM207.183 181.989L208.003 182.893L207.998 182.897L207.183 181.989ZM207.287 181.895L208.11 182.795L208.11 182.795L207.287 181.895ZM207.288 181.894L206.465 180.994L206.465 180.994L207.288 181.894ZM207.543 181.664L206.74 180.747L206.748 180.74L206.755 180.733L207.543 181.664ZM207.616 181.603L208.404 182.533L208.403 182.534L207.616 181.603ZM207.849 181.409L208.638 182.338L208.624 182.35L208.61 182.362L207.849 181.409ZM236.33 177.366L236.805 176.243L237.285 176.446L237.47 176.933L236.33 177.366ZM231.241 207.024L230.371 206.17L230.385 206.155L230.4 206.142L231.241 207.024ZM231.201 207.069L232.125 207.865L232.118 207.872L231.201 207.069ZM231.201 207.069L230.277 206.273L230.283 206.266L231.201 207.069ZM231.157 207.117L232.02 207.979L232.02 207.979L231.157 207.117ZM217.113 221.162L215.942 221.505L215.739 220.811L216.25 220.299L217.113 221.162ZM213.307 236.086L212.445 235.224L212.445 235.224L213.307 236.086ZM211.045 238.349L211.907 239.212L211.907 239.212L211.045 238.349ZM202.665 238.349L201.802 239.212L201.802 239.212L202.665 238.349ZM202.127 237.811L201.265 238.674L200.723 238.132L200.976 237.409L202.127 237.811ZM197.339 216.814L196.477 217.677L197.339 216.814ZM176.342 212.027L176.745 213.178L176.022 213.431L175.48 212.889L176.342 212.027ZM175.574 211.259L174.712 212.121V212.121L175.574 211.259ZM175.574 203.006L176.437 203.868L176.437 203.868L175.574 203.006ZM177.901 200.68L177.038 199.817L177.038 199.817L177.901 200.68ZM207.44 183.4L193.217 197.622L191.493 195.897L205.715 181.675L207.44 183.4ZM207.796 183.075C207.65 183.203 207.54 183.299 207.44 183.4L205.715 181.675C205.883 181.507 206.055 181.357 206.191 181.238L207.796 183.075ZM207.998 182.897C207.928 182.96 207.858 183.021 207.795 183.075L206.191 181.238C206.256 181.182 206.313 181.132 206.368 181.082L207.998 182.897ZM208.11 182.795C208.075 182.827 208.039 182.86 208.003 182.893L206.364 181.086C206.397 181.056 206.43 181.026 206.465 180.994L208.11 182.795ZM208.11 182.795L208.11 182.795L206.465 180.995L206.465 180.994L208.11 182.795ZM208.346 182.582C208.272 182.647 208.197 182.716 208.11 182.795L206.465 180.994C206.548 180.918 206.643 180.831 206.74 180.747L208.346 182.582ZM208.403 182.534L208.331 182.595L206.755 180.733L206.828 180.672L208.403 182.534ZM208.61 182.362C208.547 182.412 208.484 182.466 208.404 182.533L206.827 180.673C206.902 180.609 206.993 180.532 207.088 180.456L208.61 182.362ZM236.33 177.366C235.855 178.489 235.855 178.489 235.855 178.49C235.855 178.49 235.856 178.49 235.856 178.49C235.856 178.49 235.856 178.49 235.856 178.49C235.855 178.489 235.853 178.489 235.851 178.488C235.846 178.486 235.837 178.482 235.824 178.477C235.799 178.467 235.76 178.451 235.706 178.43C235.598 178.388 235.433 178.325 235.217 178.249C234.784 178.095 234.145 177.885 233.336 177.664C231.715 177.22 229.425 176.737 226.757 176.577C221.423 176.257 214.649 177.233 208.638 182.338L207.059 180.48C213.692 174.845 221.158 173.798 226.903 174.142C229.776 174.314 232.235 174.834 233.979 175.311C234.852 175.55 235.549 175.779 236.032 175.95C236.273 176.035 236.461 176.106 236.592 176.157C236.657 176.183 236.708 176.203 236.743 176.218C236.761 176.225 236.775 176.231 236.785 176.235C236.791 176.237 236.795 176.239 236.798 176.24C236.8 176.241 236.801 176.241 236.802 176.242C236.803 176.242 236.803 176.242 236.804 176.242C236.804 176.243 236.805 176.243 236.33 177.366ZM230.4 206.142C230.799 205.761 241.759 195.104 235.19 177.799L237.47 176.933C244.583 195.67 232.683 207.335 232.083 207.907L230.4 206.142ZM230.277 206.273C230.286 206.263 230.324 206.217 230.371 206.17L232.111 207.879C232.122 207.868 232.129 207.86 232.131 207.858C232.132 207.856 232.132 207.856 232.131 207.858C232.13 207.859 232.128 207.861 232.125 207.865L230.277 206.273ZM230.283 206.266L230.283 206.266L232.118 207.872L232.118 207.872L230.283 206.266ZM230.295 206.255C230.282 206.268 230.273 206.277 230.271 206.28C230.269 206.282 230.269 206.282 230.27 206.281C230.271 206.28 230.273 206.278 230.277 206.273L232.125 207.865C232.115 207.876 232.072 207.927 232.02 207.979L230.295 206.255ZM216.25 220.299L230.295 206.255L232.02 207.979L217.975 222.024L216.25 220.299ZM212.445 235.224C216.158 231.512 217.325 226.217 215.942 221.505L218.283 220.818C219.906 226.351 218.538 232.58 214.17 236.949L212.445 235.224ZM210.182 237.487L212.445 235.224L214.17 236.949L211.907 239.212L210.182 237.487ZM203.527 237.487C205.365 239.325 208.345 239.325 210.182 237.487L211.907 239.212C209.117 242.002 204.593 242.002 201.802 239.212L203.527 237.487ZM202.989 236.949L203.527 237.487L201.802 239.212L201.265 238.674L202.989 236.949ZM198.202 215.952C204.224 221.974 205.914 230.685 203.278 238.214L200.976 237.409C203.314 230.73 201.812 223.011 196.477 217.677L198.202 215.952ZM175.939 210.876C183.469 208.24 192.18 209.93 198.202 215.952L196.477 217.677C191.143 212.342 183.424 210.84 176.745 213.178L175.939 210.876ZM176.437 210.397L177.205 211.164L175.48 212.889L174.712 212.121L176.437 210.397ZM176.437 203.868C174.634 205.671 174.634 208.594 176.437 210.397L174.712 212.121C171.957 209.366 171.957 204.899 174.712 202.144L176.437 203.868ZM178.763 201.542L176.437 203.868L174.712 202.144L177.038 199.817L178.763 201.542ZM192.049 197.94C187.445 196.749 182.361 197.944 178.763 201.542L177.038 199.817C181.276 195.58 187.26 194.182 192.66 195.579L192.049 197.94ZM222.147 199.354C217.656 199.354 214.014 195.712 214.014 191.221H216.453C216.453 194.365 219.003 196.915 222.147 196.915V199.354ZM230.28 191.221C230.28 195.712 226.639 199.354 222.147 199.354V196.915C225.291 196.915 227.841 194.365 227.841 191.221H230.28ZM222.147 183.088C226.639 183.088 230.28 186.729 230.28 191.221H227.841C227.841 188.077 225.291 185.527 222.147 185.527V183.088ZM214.014 191.221C214.014 186.729 217.656 183.088 222.147 183.088V185.527C219.003 185.527 216.453 188.077 216.453 191.221H214.014Z" fill="url(#paint3_linear_1399_13667)" mask="url(#path-4-inside-1_1399_13667)"/>
</g>
<g filter="url(#filter2_bd_1399_13667)">
<path d="M216.211 262.697C228.315 262.697 238.162 252.849 238.162 240.746C238.162 228.642 228.315 218.795 216.211 218.795C204.107 218.795 194.26 228.642 194.26 240.746C194.26 252.849 204.107 262.697 216.211 262.697ZM216.211 229.77C222.263 229.77 227.186 234.694 227.186 240.746C227.186 246.798 222.263 251.722 216.211 251.722C210.159 251.722 205.235 246.798 205.235 240.746C205.235 234.694 210.159 229.77 216.211 229.77Z" fill="url(#paint4_linear_1399_13667)" shape-rendering="crispEdges"/>
<path d="M216.211 262.087C227.978 262.087 237.552 252.513 237.552 240.746C237.552 228.979 227.978 219.404 216.211 219.404C204.444 219.404 194.869 228.979 194.869 240.746C194.869 252.513 204.444 262.087 216.211 262.087ZM216.211 229.161C222.599 229.161 227.796 234.357 227.796 240.746C227.796 247.135 222.599 252.331 216.211 252.331C209.822 252.331 204.626 247.135 204.626 240.746C204.626 234.357 209.822 229.161 216.211 229.161Z" stroke="url(#paint5_linear_1399_13667)" stroke-width="1.21951" shape-rendering="crispEdges"/>
</g>
<path d="M102.152 326V314.832L102.376 316.4L93.32 303.6H97.48L104.392 313.52L103.592 313.424L109.832 303.6H113.8L105.128 316.752L105.608 314.576V326H102.152ZM121.419 326.32C119.776 326.32 118.304 325.947 117.003 325.2C115.723 324.432 114.709 323.397 113.963 322.096C113.216 320.773 112.843 319.269 112.843 317.584C112.843 315.899 113.216 314.405 113.963 313.104C114.709 311.781 115.723 310.747 117.003 310C118.304 309.232 119.776 308.848 121.419 308.848C123.04 308.848 124.491 309.232 125.771 310C127.072 310.747 128.096 311.781 128.843 313.104C129.589 314.405 129.963 315.899 129.963 317.584C129.963 319.269 129.589 320.773 128.843 322.096C128.096 323.397 127.072 324.432 125.771 325.2C124.491 325.947 123.04 326.32 121.419 326.32ZM121.419 323.312C122.421 323.312 123.317 323.067 124.107 322.576C124.896 322.064 125.515 321.381 125.963 320.528C126.411 319.653 126.624 318.672 126.603 317.584C126.624 316.475 126.411 315.493 125.963 314.64C125.515 313.765 124.896 313.083 124.107 312.592C123.317 312.101 122.421 311.856 121.419 311.856C120.416 311.856 119.509 312.112 118.699 312.624C117.909 313.115 117.291 313.797 116.843 314.672C116.395 315.525 116.181 316.496 116.203 317.584C116.181 318.672 116.395 319.653 116.843 320.528C117.291 321.381 117.909 322.064 118.699 322.576C119.509 323.067 120.416 323.312 121.419 323.312ZM139.442 326.32C138.247 326.32 137.202 326.043 136.306 325.488C135.431 324.933 134.749 324.155 134.258 323.152C133.789 322.149 133.554 320.955 133.554 319.568V309.2H136.85V318.672C136.85 319.653 136.999 320.507 137.298 321.232C137.618 321.936 138.066 322.48 138.642 322.864C139.239 323.248 139.954 323.44 140.786 323.44C141.405 323.44 141.97 323.344 142.482 323.152C142.994 322.939 143.431 322.651 143.794 322.288C144.178 321.925 144.477 321.488 144.69 320.976C144.903 320.464 145.01 319.909 145.01 319.312V309.2H148.306V326H145.01V322.48L145.586 322.096C145.33 322.885 144.893 323.6 144.274 324.24C143.677 324.88 142.962 325.392 142.13 325.776C141.298 326.139 140.402 326.32 139.442 326.32ZM152.481 310.8L151.265 309.328C152.097 308.944 152.78 308.507 153.313 308.016C153.846 307.525 154.113 307.099 154.113 306.736C154.113 306.459 153.996 306.213 153.761 306C153.526 305.765 153.313 305.573 153.121 305.424C152.652 305.04 152.332 304.72 152.161 304.464C152.012 304.208 151.937 303.941 151.937 303.664C151.937 303.152 152.118 302.747 152.481 302.448C152.844 302.128 153.313 301.968 153.889 301.968C154.486 301.968 155.02 302.128 155.489 302.448C155.98 302.747 156.364 303.163 156.641 303.696C156.918 304.229 157.057 304.859 157.057 305.584C157.057 306.139 156.94 306.683 156.705 307.216C156.47 307.749 156.14 308.251 155.713 308.72C155.308 309.189 154.828 309.605 154.273 309.968C153.718 310.331 153.121 310.608 152.481 310.8ZM159.679 326V309.2H163.007V314.48L162.687 313.2C162.922 312.389 163.316 311.653 163.871 310.992C164.447 310.331 165.098 309.808 165.823 309.424C166.57 309.04 167.338 308.848 168.127 308.848C168.49 308.848 168.831 308.88 169.151 308.944C169.492 309.008 169.759 309.083 169.951 309.168L169.087 312.752C168.831 312.645 168.543 312.56 168.223 312.496C167.924 312.411 167.626 312.368 167.327 312.368C166.751 312.368 166.196 312.485 165.663 312.72C165.151 312.933 164.692 313.243 164.287 313.648C163.903 314.032 163.594 314.491 163.359 315.024C163.124 315.536 163.007 316.101 163.007 316.72V326H159.679ZM179.707 326.32C177.979 326.32 176.443 325.957 175.099 325.232C173.776 324.485 172.731 323.472 171.963 322.192C171.216 320.912 170.843 319.44 170.843 317.776C170.843 316.453 171.056 315.248 171.483 314.16C171.909 313.072 172.496 312.133 173.243 311.344C174.011 310.533 174.917 309.915 175.963 309.488C177.029 309.04 178.181 308.816 179.419 308.816C180.507 308.816 181.52 309.029 182.459 309.456C183.397 309.861 184.208 310.427 184.891 311.152C185.595 311.877 186.128 312.741 186.491 313.744C186.875 314.725 187.056 315.803 187.035 316.976L187.003 318.384H173.275L172.539 315.76H184.155L183.675 316.304V315.536C183.611 314.832 183.376 314.203 182.971 313.648C182.565 313.093 182.053 312.656 181.435 312.336C180.816 312.016 180.144 311.856 179.419 311.856C178.267 311.856 177.296 312.08 176.507 312.528C175.717 312.955 175.12 313.595 174.715 314.448C174.309 315.28 174.107 316.315 174.107 317.552C174.107 318.725 174.352 319.749 174.843 320.624C175.333 321.477 176.027 322.139 176.923 322.608C177.819 323.077 178.853 323.312 180.027 323.312C180.859 323.312 181.627 323.173 182.331 322.896C183.056 322.619 183.835 322.117 184.667 321.392L186.331 323.728C185.819 324.24 185.189 324.688 184.443 325.072C183.717 325.456 182.939 325.765 182.107 326C181.296 326.213 180.496 326.32 179.707 326.32ZM206.049 326.32C204.663 326.32 203.393 325.936 202.241 325.168C201.111 324.4 200.204 323.355 199.521 322.032C198.839 320.709 198.497 319.216 198.497 317.552C198.497 315.867 198.839 314.373 199.521 313.072C200.225 311.749 201.164 310.715 202.337 309.968C203.532 309.221 204.865 308.848 206.337 308.848C207.212 308.848 208.012 308.976 208.737 309.232C209.463 309.488 210.092 309.851 210.625 310.32C211.18 310.768 211.628 311.291 211.969 311.888C212.332 312.485 212.556 313.125 212.641 313.808L211.905 313.552V309.2H215.233V326H211.905V322L212.673 321.776C212.545 322.352 212.279 322.917 211.873 323.472C211.489 324.005 210.988 324.485 210.369 324.912C209.772 325.339 209.1 325.68 208.353 325.936C207.628 326.192 206.86 326.32 206.049 326.32ZM206.913 323.28C207.916 323.28 208.801 323.035 209.569 322.544C210.337 322.053 210.935 321.381 211.361 320.528C211.809 319.653 212.033 318.661 212.033 317.552C212.033 316.464 211.809 315.493 211.361 314.64C210.935 313.787 210.337 313.115 209.569 312.624C208.801 312.133 207.916 311.888 206.913 311.888C205.932 311.888 205.057 312.133 204.289 312.624C203.543 313.115 202.945 313.787 202.497 314.64C202.071 315.493 201.857 316.464 201.857 317.552C201.857 318.661 202.071 319.653 202.497 320.528C202.945 321.381 203.543 322.053 204.289 322.544C205.057 323.035 205.932 323.28 206.913 323.28ZM219.899 326V302.32H223.195V326H219.899ZM227.931 326V302.32H231.227V326H227.931ZM250.467 326.32C249.059 326.32 247.789 326.075 246.659 325.584C245.528 325.093 244.589 324.368 243.843 323.408L246.083 321.488C246.723 322.235 247.416 322.779 248.163 323.12C248.931 323.44 249.795 323.6 250.755 323.6C251.139 323.6 251.491 323.557 251.811 323.472C252.152 323.365 252.44 323.216 252.675 323.024C252.931 322.832 253.123 322.608 253.251 322.352C253.379 322.075 253.443 321.776 253.443 321.456C253.443 320.901 253.24 320.453 252.835 320.112C252.621 319.963 252.28 319.803 251.811 319.632C251.363 319.44 250.776 319.248 250.051 319.056C248.813 318.736 247.8 318.373 247.011 317.968C246.221 317.563 245.613 317.104 245.187 316.592C244.867 316.187 244.632 315.749 244.483 315.28C244.333 314.789 244.259 314.256 244.259 313.68C244.259 312.976 244.408 312.336 244.707 311.76C245.027 311.163 245.453 310.651 245.987 310.224C246.541 309.776 247.181 309.435 247.907 309.2C248.653 308.965 249.443 308.848 250.275 308.848C251.064 308.848 251.843 308.955 252.611 309.168C253.4 309.381 254.125 309.691 254.787 310.096C255.448 310.501 256.003 310.981 256.451 311.536L254.563 313.616C254.157 313.211 253.709 312.859 253.219 312.56C252.749 312.24 252.269 311.995 251.779 311.824C251.288 311.653 250.84 311.568 250.435 311.568C249.987 311.568 249.581 311.611 249.219 311.696C248.856 311.781 248.547 311.909 248.291 312.08C248.056 312.251 247.875 312.464 247.747 312.72C247.619 312.976 247.555 313.264 247.555 313.584C247.576 313.861 247.64 314.128 247.747 314.384C247.875 314.619 248.045 314.821 248.259 314.992C248.493 315.163 248.845 315.344 249.315 315.536C249.784 315.728 250.381 315.909 251.107 316.08C252.173 316.357 253.048 316.667 253.731 317.008C254.435 317.328 254.989 317.701 255.395 318.128C255.821 318.533 256.12 319.003 256.291 319.536C256.461 320.069 256.547 320.667 256.547 321.328C256.547 322.288 256.269 323.152 255.715 323.92C255.181 324.667 254.456 325.253 253.539 325.68C252.621 326.107 251.597 326.32 250.467 326.32ZM268.019 326.32C266.291 326.32 264.755 325.957 263.411 325.232C262.088 324.485 261.043 323.472 260.275 322.192C259.528 320.912 259.155 319.44 259.155 317.776C259.155 316.453 259.368 315.248 259.795 314.16C260.222 313.072 260.808 312.133 261.555 311.344C262.323 310.533 263.23 309.915 264.275 309.488C265.342 309.04 266.494 308.816 267.731 308.816C268.819 308.816 269.832 309.029 270.771 309.456C271.71 309.861 272.52 310.427 273.203 311.152C273.907 311.877 274.44 312.741 274.803 313.744C275.187 314.725 275.368 315.803 275.347 316.976L275.315 318.384H261.587L260.851 315.76H272.467L271.987 316.304V315.536C271.923 314.832 271.688 314.203 271.283 313.648C270.878 313.093 270.366 312.656 269.747 312.336C269.128 312.016 268.456 311.856 267.731 311.856C266.579 311.856 265.608 312.08 264.819 312.528C264.03 312.955 263.432 313.595 263.027 314.448C262.622 315.28 262.419 316.315 262.419 317.552C262.419 318.725 262.664 319.749 263.155 320.624C263.646 321.477 264.339 322.139 265.235 322.608C266.131 323.077 267.166 323.312 268.339 323.312C269.171 323.312 269.939 323.173 270.643 322.896C271.368 322.619 272.147 322.117 272.979 321.392L274.643 323.728C274.131 324.24 273.502 324.688 272.755 325.072C272.03 325.456 271.251 325.765 270.419 326C269.608 326.213 268.808 326.32 268.019 326.32ZM281.009 326V304.912H284.305V326H281.009ZM277.521 312.4V309.2H288.209V312.4H277.521ZM291.69 318.288C291.541 316.944 291.402 315.557 291.274 314.128C291.168 312.677 291.082 311.248 291.018 309.84C290.954 308.432 290.922 307.099 290.922 305.84V303.6H294.378V305.84C294.378 307.163 294.346 308.549 294.282 310C294.218 311.451 294.122 312.891 293.994 314.32C293.888 315.728 293.76 317.051 293.61 318.288H291.69ZM292.554 326.352C291.85 326.352 291.306 326.149 290.922 325.744C290.538 325.317 290.346 324.72 290.346 323.952C290.346 323.248 290.549 322.672 290.954 322.224C291.36 321.776 291.893 321.552 292.554 321.552C293.258 321.552 293.802 321.765 294.186 322.192C294.57 322.597 294.762 323.184 294.762 323.952C294.762 324.656 294.56 325.232 294.154 325.68C293.749 326.128 293.216 326.352 292.554 326.352Z" fill="url(#paint6_linear_1399_13667)"/>
<path opacity="0.8" d="M78.9588 357V351.416L79.0708 352.2L74.5428 345.8H76.6228L80.0788 350.76L79.6788 350.712L82.7988 345.8H84.7828L80.4468 352.376L80.6868 351.288V357H78.9588ZM88.5921 357.16C87.7707 357.16 87.0347 356.973 86.3841 356.6C85.7441 356.216 85.2374 355.699 84.8641 355.048C84.4907 354.387 84.3041 353.635 84.3041 352.792C84.3041 351.949 84.4907 351.203 84.8641 350.552C85.2374 349.891 85.7441 349.373 86.3841 349C87.0347 348.616 87.7707 348.424 88.5921 348.424C89.4027 348.424 90.1281 348.616 90.7681 349C91.4187 349.373 91.9307 349.891 92.3041 350.552C92.6774 351.203 92.8641 351.949 92.8641 352.792C92.8641 353.635 92.6774 354.387 92.3041 355.048C91.9307 355.699 91.4187 356.216 90.7681 356.6C90.1281 356.973 89.4027 357.16 88.5921 357.16ZM88.5921 355.656C89.0934 355.656 89.5414 355.533 89.9361 355.288C90.3307 355.032 90.6401 354.691 90.8641 354.264C91.0881 353.827 91.1947 353.336 91.1841 352.792C91.1947 352.237 91.0881 351.747 90.8641 351.32C90.6401 350.883 90.3307 350.541 89.9361 350.296C89.5414 350.051 89.0934 349.928 88.5921 349.928C88.0907 349.928 87.6374 350.056 87.2321 350.312C86.8374 350.557 86.5281 350.899 86.3041 351.336C86.0801 351.763 85.9734 352.248 85.9841 352.792C85.9734 353.336 86.0801 353.827 86.3041 354.264C86.5281 354.691 86.8374 355.032 87.2321 355.288C87.6374 355.533 88.0907 355.656 88.5921 355.656ZM97.6038 357.16C97.0065 357.16 96.4838 357.021 96.0358 356.744C95.5985 356.467 95.2571 356.077 95.0118 355.576C94.7771 355.075 94.6598 354.477 94.6598 353.784V348.6H96.3078V353.336C96.3078 353.827 96.3825 354.253 96.5318 354.616C96.6918 354.968 96.9158 355.24 97.2038 355.432C97.5025 355.624 97.8598 355.72 98.2758 355.72C98.5851 355.72 98.8678 355.672 99.1238 355.576C99.3798 355.469 99.5985 355.325 99.7798 355.144C99.9718 354.963 100.121 354.744 100.228 354.488C100.334 354.232 100.388 353.955 100.388 353.656V348.6H102.036V357H100.388V355.24L100.676 355.048C100.548 355.443 100.329 355.8 100.02 356.12C99.7211 356.44 99.3638 356.696 98.9478 356.888C98.5318 357.069 98.0838 357.16 97.6038 357.16ZM104.347 357V348.6H106.011V351.24L105.851 350.6C105.969 350.195 106.166 349.827 106.443 349.496C106.731 349.165 107.057 348.904 107.419 348.712C107.793 348.52 108.177 348.424 108.571 348.424C108.753 348.424 108.923 348.44 109.083 348.472C109.254 348.504 109.387 348.541 109.483 348.584L109.051 350.376C108.923 350.323 108.779 350.28 108.619 350.248C108.47 350.205 108.321 350.184 108.171 350.184C107.883 350.184 107.606 350.243 107.339 350.36C107.083 350.467 106.854 350.621 106.651 350.824C106.459 351.016 106.305 351.245 106.187 351.512C106.07 351.768 106.011 352.051 106.011 352.36V357H104.347ZM115.701 357V345.8H117.429V357H115.701ZM116.469 352.232V350.568H122.245V352.232H116.469ZM116.469 347.464V345.8H122.965V347.464H116.469ZM128.595 357.16C127.731 357.16 126.963 356.979 126.291 356.616C125.63 356.243 125.107 355.736 124.723 355.096C124.35 354.456 124.163 353.72 124.163 352.888C124.163 352.227 124.27 351.624 124.483 351.08C124.697 350.536 124.99 350.067 125.363 349.672C125.747 349.267 126.201 348.957 126.723 348.744C127.257 348.52 127.833 348.408 128.451 348.408C128.995 348.408 129.502 348.515 129.971 348.728C130.441 348.931 130.846 349.213 131.187 349.576C131.539 349.939 131.806 350.371 131.987 350.872C132.179 351.363 132.27 351.901 132.259 352.488L132.243 353.192H125.379L125.011 351.88H130.819L130.579 352.152V351.768C130.547 351.416 130.43 351.101 130.227 350.824C130.025 350.547 129.769 350.328 129.459 350.168C129.15 350.008 128.814 349.928 128.451 349.928C127.875 349.928 127.39 350.04 126.995 350.264C126.601 350.477 126.302 350.797 126.099 351.224C125.897 351.64 125.795 352.157 125.795 352.776C125.795 353.363 125.918 353.875 126.163 354.312C126.409 354.739 126.755 355.069 127.203 355.304C127.651 355.539 128.169 355.656 128.755 355.656C129.171 355.656 129.555 355.587 129.907 355.448C130.27 355.309 130.659 355.059 131.075 354.696L131.907 355.864C131.651 356.12 131.337 356.344 130.963 356.536C130.601 356.728 130.211 356.883 129.795 357C129.39 357.107 128.99 357.16 128.595 357.16ZM135.09 357V346.456H136.738V357H135.09ZM133.346 350.2V348.6H138.69V350.2H133.346ZM143.681 357.16C142.902 357.16 142.204 356.968 141.585 356.584C140.977 356.2 140.492 355.677 140.129 355.016C139.777 354.355 139.601 353.613 139.601 352.792C139.601 351.971 139.777 351.229 140.129 350.568C140.492 349.907 140.977 349.384 141.585 349C142.204 348.616 142.902 348.424 143.681 348.424C144.428 348.424 145.105 348.579 145.713 348.888C146.332 349.187 146.801 349.597 147.121 350.12L146.209 351.24C146.038 350.995 145.82 350.771 145.553 350.568C145.286 350.365 145.004 350.205 144.705 350.088C144.406 349.971 144.118 349.912 143.841 349.912C143.329 349.912 142.87 350.04 142.465 350.296C142.07 350.541 141.756 350.883 141.521 351.32C141.286 351.757 141.169 352.248 141.169 352.792C141.169 353.336 141.292 353.827 141.537 354.264C141.782 354.691 142.108 355.032 142.513 355.288C142.918 355.544 143.366 355.672 143.857 355.672C144.145 355.672 144.422 355.624 144.689 355.528C144.966 355.432 145.233 355.288 145.489 355.096C145.745 354.904 145.985 354.669 146.209 354.392L147.121 355.512C146.78 355.992 146.289 356.387 145.649 356.696C145.02 357.005 144.364 357.16 143.681 357.16ZM148.675 357V345.16H150.323V350.328L150.035 350.52C150.142 350.147 150.35 349.805 150.659 349.496C150.969 349.176 151.337 348.92 151.763 348.728C152.19 348.525 152.627 348.424 153.075 348.424C153.715 348.424 154.249 348.552 154.675 348.808C155.102 349.053 155.422 349.432 155.635 349.944C155.849 350.456 155.955 351.101 155.955 351.88V357H154.307V351.992C154.307 351.512 154.243 351.117 154.115 350.808C153.987 350.488 153.79 350.259 153.523 350.12C153.257 349.971 152.926 349.907 152.531 349.928C152.211 349.928 151.918 349.981 151.651 350.088C151.385 350.184 151.15 350.323 150.947 350.504C150.755 350.685 150.601 350.899 150.483 351.144C150.377 351.379 150.323 351.635 150.323 351.912V357H149.507C149.369 357 149.23 357 149.091 357C148.953 357 148.814 357 148.675 357ZM161.667 360.152L161.043 358.888C161.459 358.888 161.801 358.813 162.067 358.664C162.345 358.525 162.553 358.312 162.691 358.024C162.83 357.747 162.899 357.4 162.899 356.984V348.6H164.547V357.384C164.547 357.928 164.425 358.408 164.179 358.824C163.945 359.24 163.609 359.565 163.171 359.8C162.745 360.035 162.243 360.152 161.667 360.152ZM163.763 346.744C163.411 346.744 163.139 346.653 162.947 346.472C162.755 346.291 162.659 346.035 162.659 345.704C162.659 345.395 162.755 345.144 162.947 344.952C163.15 344.76 163.422 344.664 163.763 344.664C164.115 344.664 164.387 344.755 164.579 344.936C164.771 345.117 164.867 345.373 164.867 345.704C164.867 346.013 164.766 346.264 164.563 346.456C164.371 346.648 164.105 346.744 163.763 346.744ZM170.686 357.16C169.864 357.16 169.128 356.973 168.478 356.6C167.838 356.216 167.331 355.699 166.958 355.048C166.584 354.387 166.398 353.635 166.398 352.792C166.398 351.949 166.584 351.203 166.958 350.552C167.331 349.891 167.838 349.373 168.478 349C169.128 348.616 169.864 348.424 170.686 348.424C171.496 348.424 172.222 348.616 172.862 349C173.512 349.373 174.024 349.891 174.398 350.552C174.771 351.203 174.958 351.949 174.958 352.792C174.958 353.635 174.771 354.387 174.398 355.048C174.024 355.699 173.512 356.216 172.862 356.6C172.222 356.973 171.496 357.16 170.686 357.16ZM170.686 355.656C171.187 355.656 171.635 355.533 172.03 355.288C172.424 355.032 172.734 354.691 172.958 354.264C173.182 353.827 173.288 353.336 173.278 352.792C173.288 352.237 173.182 351.747 172.958 351.32C172.734 350.883 172.424 350.541 172.03 350.296C171.635 350.051 171.187 349.928 170.686 349.928C170.184 349.928 169.731 350.056 169.326 350.312C168.931 350.557 168.622 350.899 168.398 351.336C168.174 351.763 168.067 352.248 168.078 352.792C168.067 353.336 168.174 353.827 168.398 354.264C168.622 354.691 168.931 355.032 169.326 355.288C169.731 355.533 170.184 355.656 170.686 355.656ZM179.698 357.16C179.1 357.16 178.578 357.021 178.13 356.744C177.692 356.467 177.351 356.077 177.106 355.576C176.871 355.075 176.754 354.477 176.754 353.784V348.6H178.402V353.336C178.402 353.827 178.476 354.253 178.626 354.616C178.786 354.968 179.01 355.24 179.298 355.432C179.596 355.624 179.954 355.72 180.37 355.72C180.679 355.72 180.962 355.672 181.218 355.576C181.474 355.469 181.692 355.325 181.874 355.144C182.066 354.963 182.215 354.744 182.322 354.488C182.428 354.232 182.482 353.955 182.482 353.656V348.6H184.13V357H182.482V355.24L182.77 355.048C182.642 355.443 182.423 355.8 182.114 356.12C181.815 356.44 181.458 356.696 181.042 356.888C180.626 357.069 180.178 357.16 179.698 357.16ZM186.441 357V348.6H188.105V351.24L187.945 350.6C188.062 350.195 188.26 349.827 188.537 349.496C188.825 349.165 189.15 348.904 189.513 348.712C189.886 348.52 190.27 348.424 190.665 348.424C190.846 348.424 191.017 348.44 191.177 348.472C191.348 348.504 191.481 348.541 191.577 348.584L191.145 350.376C191.017 350.323 190.873 350.28 190.713 350.248C190.564 350.205 190.414 350.184 190.265 350.184C189.977 350.184 189.7 350.243 189.433 350.36C189.177 350.467 188.948 350.621 188.745 350.824C188.553 351.016 188.398 351.245 188.281 351.512C188.164 351.768 188.105 352.051 188.105 352.36V357H186.441ZM192.894 357V348.6H194.542V350.328L194.254 350.52C194.361 350.147 194.569 349.805 194.878 349.496C195.188 349.176 195.556 348.92 195.982 348.728C196.409 348.525 196.846 348.424 197.294 348.424C197.934 348.424 198.468 348.552 198.894 348.808C199.321 349.053 199.641 349.432 199.854 349.944C200.068 350.456 200.174 351.101 200.174 351.88V357H198.526V351.992C198.526 351.512 198.462 351.117 198.334 350.808C198.206 350.488 198.009 350.259 197.742 350.12C197.476 349.971 197.145 349.907 196.75 349.928C196.43 349.928 196.137 349.981 195.87 350.088C195.604 350.184 195.369 350.323 195.166 350.504C194.974 350.685 194.82 350.899 194.702 351.144C194.596 351.379 194.542 351.635 194.542 351.912V357H193.726C193.588 357 193.449 357 193.31 357C193.172 357 193.033 357 192.894 357ZM206.33 357.16C205.466 357.16 204.698 356.979 204.026 356.616C203.364 356.243 202.842 355.736 202.458 355.096C202.084 354.456 201.898 353.72 201.898 352.888C201.898 352.227 202.004 351.624 202.218 351.08C202.431 350.536 202.724 350.067 203.098 349.672C203.482 349.267 203.935 348.957 204.458 348.744C204.991 348.52 205.567 348.408 206.186 348.408C206.73 348.408 207.236 348.515 207.706 348.728C208.175 348.931 208.58 349.213 208.922 349.576C209.274 349.939 209.54 350.371 209.722 350.872C209.914 351.363 210.004 351.901 209.994 352.488L209.978 353.192H203.114L202.746 351.88H208.554L208.314 352.152V351.768C208.282 351.416 208.164 351.101 207.962 350.824C207.759 350.547 207.503 350.328 207.194 350.168C206.884 350.008 206.548 349.928 206.186 349.928C205.61 349.928 205.124 350.04 204.73 350.264C204.335 350.477 204.036 350.797 203.834 351.224C203.631 351.64 203.53 352.157 203.53 352.776C203.53 353.363 203.652 353.875 203.898 354.312C204.143 354.739 204.49 355.069 204.938 355.304C205.386 355.539 205.903 355.656 206.49 355.656C206.906 355.656 207.29 355.587 207.642 355.448C208.004 355.309 208.394 355.059 208.81 354.696L209.642 355.864C209.386 356.12 209.071 356.344 208.698 356.536C208.335 356.728 207.946 356.883 207.53 357C207.124 357.107 206.724 357.16 206.33 357.16ZM213.037 360.68L214.733 356.76L214.749 358.072L210.557 348.6H212.477L215.101 354.776C215.154 354.883 215.218 355.048 215.293 355.272C215.367 355.485 215.431 355.699 215.485 355.912L215.069 356.008C215.154 355.784 215.234 355.56 215.309 355.336C215.394 355.112 215.474 354.888 215.549 354.664L217.741 348.6H219.693L216.237 357L214.813 360.68H213.037ZM225.41 357V348.6H227.058V350.328L226.77 350.52C226.876 350.147 227.084 349.805 227.394 349.496C227.703 349.176 228.071 348.92 228.498 348.728C228.924 348.525 229.362 348.424 229.81 348.424C230.45 348.424 230.983 348.552 231.41 348.808C231.836 349.053 232.156 349.432 232.37 349.944C232.583 350.456 232.69 351.101 232.69 351.88V357H231.042V351.992C231.042 351.512 230.978 351.117 230.85 350.808C230.722 350.488 230.524 350.259 230.258 350.12C229.991 349.971 229.66 349.907 229.266 349.928C228.946 349.928 228.652 349.981 228.386 350.088C228.119 350.184 227.884 350.323 227.682 350.504C227.49 350.685 227.335 350.899 227.218 351.144C227.111 351.379 227.058 351.635 227.058 351.912V357H226.242C226.103 357 225.964 357 225.826 357C225.687 357 225.548 357 225.41 357ZM238.701 357.16C237.88 357.16 237.144 356.973 236.493 356.6C235.853 356.216 235.347 355.699 234.973 355.048C234.6 354.387 234.413 353.635 234.413 352.792C234.413 351.949 234.6 351.203 234.973 350.552C235.347 349.891 235.853 349.373 236.493 349C237.144 348.616 237.88 348.424 238.701 348.424C239.512 348.424 240.237 348.616 240.877 349C241.528 349.373 242.04 349.891 242.413 350.552C242.787 351.203 242.973 351.949 242.973 352.792C242.973 353.635 242.787 354.387 242.413 355.048C242.04 355.699 241.528 356.216 240.877 356.6C240.237 356.973 239.512 357.16 238.701 357.16ZM238.701 355.656C239.203 355.656 239.651 355.533 240.045 355.288C240.44 355.032 240.749 354.691 240.973 354.264C241.197 353.827 241.304 353.336 241.293 352.792C241.304 352.237 241.197 351.747 240.973 351.32C240.749 350.883 240.44 350.541 240.045 350.296C239.651 350.051 239.203 349.928 238.701 349.928C238.2 349.928 237.747 350.056 237.341 350.312C236.947 350.557 236.637 350.899 236.413 351.336C236.189 351.763 236.083 352.248 236.093 352.792C236.083 353.336 236.189 353.827 236.413 354.264C236.637 354.691 236.947 355.032 237.341 355.288C237.747 355.533 238.2 355.656 238.701 355.656ZM246.521 357L243.657 348.6L245.321 348.584L247.369 354.872L247.001 354.84L249.225 349.928H250.217L252.457 354.856L252.025 354.888L254.089 348.6H255.753L252.921 357H251.785L249.449 351.656L249.817 351.704L247.641 357H246.521ZM266.154 357.16C265.791 357.16 265.429 357.101 265.066 356.984C264.714 356.867 264.389 356.712 264.09 356.52C263.802 356.317 263.557 356.099 263.354 355.864C263.162 355.619 263.034 355.373 262.97 355.128L263.386 354.904V356.952H261.738V345.16H263.386V350.52L263.13 350.376C263.183 350.131 263.301 349.896 263.482 349.672C263.663 349.437 263.893 349.229 264.17 349.048C264.458 348.856 264.767 348.707 265.098 348.6C265.429 348.483 265.765 348.424 266.106 348.424C266.863 348.424 267.535 348.611 268.122 348.984C268.709 349.357 269.173 349.875 269.514 350.536C269.855 351.187 270.026 351.933 270.026 352.776C270.026 353.619 269.855 354.371 269.514 355.032C269.183 355.693 268.725 356.216 268.138 356.6C267.551 356.973 266.89 357.16 266.154 357.16ZM265.882 355.656C266.373 355.656 266.81 355.533 267.194 355.288C267.578 355.032 267.882 354.691 268.106 354.264C268.33 353.827 268.442 353.331 268.442 352.776C268.442 352.232 268.33 351.747 268.106 351.32C267.893 350.883 267.594 350.541 267.21 350.296C266.826 350.051 266.383 349.928 265.882 349.928C265.381 349.928 264.938 350.051 264.554 350.296C264.17 350.541 263.866 350.883 263.642 351.32C263.418 351.747 263.306 352.232 263.306 352.776C263.306 353.331 263.418 353.827 263.642 354.264C263.866 354.691 264.17 355.032 264.554 355.288C264.938 355.533 265.381 355.656 265.882 355.656ZM275.736 357.16C274.872 357.16 274.104 356.979 273.432 356.616C272.771 356.243 272.248 355.736 271.864 355.096C271.491 354.456 271.304 353.72 271.304 352.888C271.304 352.227 271.411 351.624 271.624 351.08C271.837 350.536 272.131 350.067 272.504 349.672C272.888 349.267 273.341 348.957 273.864 348.744C274.397 348.52 274.973 348.408 275.592 348.408C276.136 348.408 276.643 348.515 277.112 348.728C277.581 348.931 277.987 349.213 278.328 349.576C278.68 349.939 278.947 350.371 279.128 350.872C279.32 351.363 279.411 351.901 279.4 352.488L279.384 353.192H272.52L272.152 351.88H277.96L277.72 352.152V351.768C277.688 351.416 277.571 351.101 277.368 350.824C277.165 350.547 276.909 350.328 276.6 350.168C276.291 350.008 275.955 349.928 275.592 349.928C275.016 349.928 274.531 350.04 274.136 350.264C273.741 350.477 273.443 350.797 273.24 351.224C273.037 351.64 272.936 352.157 272.936 352.776C272.936 353.363 273.059 353.875 273.304 354.312C273.549 354.739 273.896 355.069 274.344 355.304C274.792 355.539 275.309 355.656 275.896 355.656C276.312 355.656 276.696 355.587 277.048 355.448C277.411 355.309 277.8 355.059 278.216 354.696L279.048 355.864C278.792 356.12 278.477 356.344 278.104 356.536C277.741 356.728 277.352 356.883 276.936 357C276.531 357.107 276.131 357.16 275.736 357.16ZM284.873 360.68C284.276 360.68 283.678 360.584 283.081 360.392C282.494 360.211 282.02 359.971 281.657 359.672L282.265 358.392C282.478 358.552 282.729 358.691 283.017 358.808C283.305 358.936 283.609 359.032 283.929 359.096C284.249 359.171 284.564 359.208 284.873 359.208C285.46 359.208 285.95 359.112 286.345 358.92C286.74 358.728 287.038 358.445 287.241 358.072C287.444 357.699 287.545 357.235 287.545 356.68V355.064L287.721 355.176C287.668 355.507 287.492 355.827 287.193 356.136C286.905 356.435 286.542 356.68 286.105 356.872C285.668 357.064 285.22 357.16 284.761 357.16C283.961 357.16 283.246 356.973 282.617 356.6C281.998 356.216 281.508 355.699 281.145 355.048C280.782 354.387 280.601 353.635 280.601 352.792C280.601 351.949 280.777 351.203 281.129 350.552C281.492 349.891 281.982 349.373 282.601 349C283.23 348.616 283.934 348.424 284.713 348.424C285.033 348.424 285.342 348.467 285.641 348.552C285.94 348.627 286.217 348.739 286.473 348.888C286.729 349.027 286.958 349.181 287.161 349.352C287.364 349.523 287.529 349.704 287.657 349.896C287.785 350.088 287.865 350.269 287.897 350.44L287.545 350.568V348.6H289.193V356.488C289.193 357.16 289.092 357.752 288.889 358.264C288.697 358.787 288.414 359.224 288.041 359.576C287.668 359.939 287.214 360.211 286.681 360.392C286.148 360.584 285.545 360.68 284.873 360.68ZM284.937 355.64C285.46 355.64 285.924 355.517 286.329 355.272C286.734 355.027 287.049 354.691 287.273 354.264C287.497 353.837 287.609 353.347 287.609 352.792C287.609 352.237 287.492 351.747 287.257 351.32C287.033 350.883 286.718 350.541 286.313 350.296C285.918 350.051 285.46 349.928 284.937 349.928C284.425 349.928 283.966 350.056 283.561 350.312C283.166 350.557 282.852 350.899 282.617 351.336C282.393 351.763 282.281 352.248 282.281 352.792C282.281 353.336 282.393 353.827 282.617 354.264C282.852 354.691 283.166 355.027 283.561 355.272C283.966 355.517 284.425 355.64 284.937 355.64ZM291.776 357V348.6H293.424V357H291.776ZM292.576 346.744C292.224 346.744 291.952 346.653 291.76 346.472C291.568 346.291 291.472 346.035 291.472 345.704C291.472 345.395 291.568 345.144 291.76 344.952C291.962 344.76 292.234 344.664 292.576 344.664C292.928 344.664 293.2 344.755 293.392 344.936C293.584 345.117 293.68 345.373 293.68 345.704C293.68 346.013 293.578 346.264 293.376 346.456C293.184 346.648 292.917 346.744 292.576 346.744ZM295.957 357V348.6H297.605V350.328L297.317 350.52C297.423 350.147 297.631 349.805 297.941 349.496C298.25 349.176 298.618 348.92 299.045 348.728C299.471 348.525 299.909 348.424 300.357 348.424C300.997 348.424 301.53 348.552 301.957 348.808C302.383 349.053 302.703 349.432 302.917 349.944C303.13 350.456 303.237 351.101 303.237 351.88V357H301.589V351.992C301.589 351.512 301.525 351.117 301.397 350.808C301.269 350.488 301.071 350.259 300.805 350.12C300.538 349.971 300.207 349.907 299.813 349.928C299.493 349.928 299.199 349.981 298.933 350.088C298.666 350.184 298.431 350.323 298.229 350.504C298.037 350.685 297.882 350.899 297.765 351.144C297.658 351.379 297.605 351.635 297.605 351.912V357H296.789C296.65 357 296.511 357 296.373 357C296.234 357 296.095 357 295.957 357ZM308.272 357.16C307.568 357.16 306.934 357.037 306.368 356.792C305.803 356.547 305.334 356.184 304.96 355.704L306.08 354.744C306.4 355.117 306.747 355.389 307.12 355.56C307.504 355.72 307.936 355.8 308.416 355.8C308.608 355.8 308.784 355.779 308.944 355.736C309.115 355.683 309.259 355.608 309.376 355.512C309.504 355.416 309.6 355.304 309.664 355.176C309.728 355.037 309.76 354.888 309.76 354.728C309.76 354.451 309.659 354.227 309.456 354.056C309.35 353.981 309.179 353.901 308.944 353.816C308.72 353.72 308.427 353.624 308.064 353.528C307.446 353.368 306.939 353.187 306.544 352.984C306.15 352.781 305.846 352.552 305.632 352.296C305.472 352.093 305.355 351.875 305.28 351.64C305.206 351.395 305.168 351.128 305.168 350.84C305.168 350.488 305.243 350.168 305.392 349.88C305.552 349.581 305.766 349.325 306.032 349.112C306.31 348.888 306.63 348.717 306.992 348.6C307.366 348.483 307.76 348.424 308.176 348.424C308.571 348.424 308.96 348.477 309.344 348.584C309.739 348.691 310.102 348.845 310.432 349.048C310.763 349.251 311.04 349.491 311.264 349.768L310.32 350.808C310.118 350.605 309.894 350.429 309.648 350.28C309.414 350.12 309.174 349.997 308.928 349.912C308.683 349.827 308.459 349.784 308.256 349.784C308.032 349.784 307.83 349.805 307.648 349.848C307.467 349.891 307.312 349.955 307.184 350.04C307.067 350.125 306.976 350.232 306.912 350.36C306.848 350.488 306.816 350.632 306.816 350.792C306.827 350.931 306.859 351.064 306.912 351.192C306.976 351.309 307.062 351.411 307.168 351.496C307.286 351.581 307.462 351.672 307.696 351.768C307.931 351.864 308.23 351.955 308.592 352.04C309.126 352.179 309.563 352.333 309.904 352.504C310.256 352.664 310.534 352.851 310.736 353.064C310.95 353.267 311.099 353.501 311.184 353.768C311.27 354.035 311.312 354.333 311.312 354.664C311.312 355.144 311.174 355.576 310.896 355.96C310.63 356.333 310.267 356.627 309.808 356.84C309.35 357.053 308.838 357.16 308.272 357.16ZM313.801 357.176C313.449 357.176 313.177 357.075 312.985 356.872C312.793 356.659 312.697 356.36 312.697 355.976C312.697 355.624 312.798 355.336 313.001 355.112C313.203 354.888 313.47 354.776 313.801 354.776C314.153 354.776 314.425 354.883 314.617 355.096C314.809 355.299 314.905 355.592 314.905 355.976C314.905 356.328 314.803 356.616 314.601 356.84C314.398 357.064 314.131 357.176 313.801 357.176Z" fill="white"/>
<defs>
<filter id="filter0_b_1399_13667" x="155.222" y="176.43" width="20.7327" height="20.7317" filterUnits="userSpaceOnUse" color-interpolation-filters="sRGB">
<feFlood flood-opacity="0" result="BackgroundImageFix"/>
<feGaussianBlur in="BackgroundImageFix" stdDeviation="2.43902"/>
<feComposite in2="SourceAlpha" operator="in" result="effect1_backgroundBlur_1399_13667"/>
<feBlend mode="normal" in="SourceGraphic" in2="effect1_backgroundBlur_1399_13667" result="shape"/>
</filter>
<filter id="filter1_bd_1399_13667" x="149.475" y="150.913" width="137.811" height="137.952" filterUnits="userSpaceOnUse" color-interpolation-filters="sRGB">
<feFlood flood-opacity="0" result="BackgroundImageFix"/>
<feGaussianBlur in="BackgroundImageFix" stdDeviation="2.43902"/>
<feComposite in2="SourceAlpha" operator="in" result="effect1_backgroundBlur_1399_13667"/>
<feColorMatrix in="SourceAlpha" type="matrix" values="0 0 0 0 0 0 0 0 0 0 0 0 0 0 0 0 0 0 127 0" result="hardAlpha"/>
<feOffset dx="12.1951" dy="12.1951"/>
<feGaussianBlur stdDeviation="18.2927"/>
<feComposite in2="hardAlpha" operator="out"/>
<feColorMatrix type="matrix" values="0 0 0 0 0.00392157 0 0 0 0 0.054902 0 0 0 0 0.243137 0 0 0 0.14 0"/>
<feBlend mode="normal" in2="effect1_backgroundBlur_1399_13667" result="effect2_dropShadow_1399_13667"/>
<feBlend mode="normal" in="SourceGraphic" in2="effect2_dropShadow_1399_13667" result="shape"/>
</filter>
<filter id="filter2_bd_1399_13667" x="169.87" y="194.404" width="117.073" height="117.073" filterUnits="userSpaceOnUse" color-interpolation-filters="sRGB">
<feFlood flood-opacity="0" result="BackgroundImageFix"/>
<feGaussianBlur in="BackgroundImageFix" stdDeviation="2.43902"/>
<feComposite in2="SourceAlpha" operator="in" result="effect1_backgroundBlur_1399_13667"/>
<feColorMatrix in="SourceAlpha" type="matrix" values="0 0 0 0 0 0 0 0 0 0 0 0 0 0 0 0 0 0 127 0" result="hardAlpha"/>
<feOffset dx="12.1951" dy="12.1951"/>
<feGaussianBlur stdDeviation="18.2927"/>
<feComposite in2="hardAlpha" operator="out"/>
<feColorMatrix type="matrix" values="0 0 0 0 0.00392157 0 0 0 0 0.054902 0 0 0 0 0.243137 0 0 0 0.14 0"/>
<feBlend mode="normal" in2="effect1_backgroundBlur_1399_13667" result="effect2_dropShadow_1399_13667"/>
<feBlend mode="normal" in="SourceGraphic" in2="effect2_dropShadow_1399_13667" result="shape"/>
</filter>
<linearGradient id="paint0_linear_1399_13667" x1="163.366" y1="200.447" x2="169.363" y2="176.143" gradientUnits="userSpaceOnUse">
<stop offset="0.0822725" stop-color="#8566FF" stop-opacity="0.3"/>
<stop offset="0.423605" stop-color="#5F38FB" stop-opacity="0.5"/>
<stop offset="0.762303" stop-color="#5F38FB" stop-opacity="0.7"/>
</linearGradient>
<linearGradient id="paint1_linear_1399_13667" x1="165.588" y1="205.346" x2="167.023" y2="172.752" gradientUnits="userSpaceOnUse">
<stop offset="0.137498" stop-color="#AF9BFD"/>
<stop offset="0.410212" stop-color="#5F38FB" stop-opacity="0"/>
<stop offset="0.835001" stop-color="#5F38FB"/>
</linearGradient>
<linearGradient id="paint2_linear_1399_13667" x1="145.296" y1="151.377" x2="307.656" y2="306.973" gradientUnits="userSpaceOnUse">
<stop stop-color="#8566FF" stop-opacity="0.7"/>
<stop offset="0.325347" stop-color="#8566FF" stop-opacity="0.7"/>
<stop offset="0.576947" stop-color="#5D34FF" stop-opacity="0.5"/>
<stop offset="0.752365" stop-color="#5D34FF" stop-opacity="0.3"/>
</linearGradient>
<linearGradient id="paint3_linear_1399_13667" x1="244.252" y1="169.03" x2="173.442" y2="251.134" gradientUnits="userSpaceOnUse">
<stop offset="0.260545" stop-color="#AF9BFD"/>
<stop offset="0.507722" stop-color="#5F38FB" stop-opacity="0"/>
<stop offset="0.82414" stop-color="#6C47FF"/>
</linearGradient>
<linearGradient id="paint4_linear_1399_13667" x1="243.135" y1="211.264" x2="190.658" y2="267.326" gradientUnits="userSpaceOnUse">
<stop offset="0.129418" stop-color="#FFA485" stop-opacity="0.9"/>
<stop offset="0.408113" stop-color="#FF7445" stop-opacity="0.8"/>
<stop offset="0.85239" stop-color="#FF7445" stop-opacity="0.5"/>
</linearGradient>
<linearGradient id="paint5_linear_1399_13667" x1="238.162" y1="213.686" x2="195.442" y2="264.536" gradientUnits="userSpaceOnUse">
<stop offset="0.238491" stop-color="#FDCBBA"/>
<stop offset="0.491823" stop-color="#F9774B" stop-opacity="0"/>
<stop offset="0.855406" stop-color="#F86A3A"/>
</linearGradient>
<linearGradient id="paint6_linear_1399_13667" x1="321.236" y1="313.5" x2="87.4007" y2="313.5" gradientUnits="userSpaceOnUse">
<stop offset="0.131211" stop-color="#F9774B"/>
<stop offset="0.859399" stop-color="#CF447B"/>
</linearGradient>
</defs>
</svg>
