<svg width="175" height="42" viewBox="0 0 175 42" fill="none" xmlns="http://www.w3.org/2000/svg">
<path fill-rule="evenodd" clip-rule="evenodd" d="M100.026 12.5846C98.0475 12.9941 96.4334 14.0715 95.6898 15.4792C95.3249 16.1701 95.2917 16.3481 95.2934 17.6035C95.2958 19.1962 95.5292 19.8083 96.4918 20.7447C97.3954 21.6236 98.6237 22.0944 101.582 22.695C103.012 22.9854 104.354 23.288 104.564 23.3674C105.682 23.7906 105.598 25.3507 104.428 25.9052C103.647 26.2749 101.65 26.2501 100.881 25.8611C100.213 25.5228 99.682 24.9558 99.4425 24.3242L99.4272 24.2838C99.379 24.1554 99.3431 24.0601 99.2768 23.9965C99.0855 23.8132 98.6406 23.8946 96.9127 24.2105L96.7242 24.245L94.7399 24.6076L94.779 24.9879C94.8518 25.6959 95.5996 26.9346 96.3777 27.6364C97.8274 28.9439 99.9247 29.6094 102.596 29.6094C105.868 29.6094 108.35 28.432 109.407 26.3781C109.756 25.7011 109.793 25.4976 109.793 24.2589C109.793 23.0218 109.757 22.8237 109.423 22.2202C108.956 21.376 107.979 20.5416 106.911 20.074C106.454 19.8744 104.915 19.4644 103.489 19.163C102.064 18.8616 100.73 18.5336 100.526 18.4341C99.5253 17.9481 99.6888 16.5278 100.807 15.9866C101.797 15.5077 103.353 15.6695 104.286 16.3487C104.56 16.5479 104.921 16.9852 105.087 17.3203C105.254 17.6556 105.399 17.9432 105.41 17.9598C105.447 18.0122 109.424 17.2431 109.575 17.1544C109.78 17.0336 109.293 15.8739 108.682 15.028C107.834 13.8533 106.262 12.9464 104.433 12.5771C103.271 12.3423 101.18 12.3458 100.026 12.5846ZM47.8246 12.8621C47.7744 12.9098 47.7333 16.6095 47.7333 21.0835V29.2179H49.6492H51.565V27.5461V25.8743L52.7397 24.5369L53.9145 23.1997L56.1106 26.2087L58.3067 29.2179H60.6307H62.9547L62.7103 28.859C62.5759 28.6616 61.695 27.4431 60.7527 26.1512C58.3638 22.8757 56.6937 20.5671 56.5832 20.3876C56.5282 20.298 57.8131 18.7246 59.7064 16.5634C61.4757 14.5437 62.9232 12.8651 62.9232 12.8331C62.9232 12.8011 61.8223 12.775 60.4768 12.775H58.0304L54.8319 16.4239L51.6334 20.0728L51.597 16.4239L51.5608 12.775H49.7383C48.7359 12.775 47.8747 12.8142 47.8246 12.8621ZM64.3247 21.127C64.3051 16.7128 64.3188 13.0273 64.3551 12.9368C64.4071 12.8071 65.7197 12.7796 70.5487 12.8063L76.6762 12.8403L76.7152 14.1779L76.7542 15.5155H72.5072H68.2602V17.5364V19.5572L72.4682 19.5918L76.6762 19.6262V20.9965V22.3667L72.4682 22.4012L68.2602 22.4357V24.4565V26.4774H72.5024H76.7447V27.849V29.2205L70.5524 29.1866L64.3601 29.1527L64.3247 21.127ZM77.9763 12.9076C77.9763 12.9804 79.4542 15.4962 81.2606 18.4982L84.5449 23.9562V26.5907V29.2252L86.4265 29.1889L88.3081 29.1527L88.3766 26.4122L88.445 23.6717L91.6951 18.2774C93.4827 15.3105 94.9452 12.8572 94.9452 12.8257C94.9452 12.7942 93.9807 12.7846 92.802 12.8044L90.6587 12.8403L88.5879 16.1955C87.4489 18.0409 86.487 19.5794 86.4503 19.6144C86.4137 19.6495 85.4311 18.126 84.2668 16.2291L82.1501 12.78L80.0632 12.7775C78.7399 12.7759 77.9763 12.8236 77.9763 12.9076ZM110.819 16.5595V14.7325V12.9055H117.935H125.051V14.7325V16.5595H122.451H119.851V22.9576V29.3557L117.969 29.3194L116.088 29.2832L116.052 22.9213L116.017 16.5595H113.418H110.819ZM132.03 13.1085C128.95 13.7394 126.469 16.0498 125.589 19.1063C125.025 21.0684 125.391 23.5009 126.518 25.2725C129.461 29.9009 136.029 30.6642 139.962 26.8351C140.908 25.9148 141.674 24.7126 142.061 23.5412C142.465 22.3154 142.488 19.8589 142.104 18.778C140.609 14.5647 136.423 12.2088 132.03 13.1085ZM143.868 29.2832L143.832 21.0943L143.797 12.9055L145.748 12.91L147.699 12.9144L151.394 17.4923C153.426 20.0102 155.335 22.3693 155.636 22.735L156.184 23.3996L156.219 18.1526L156.255 12.9055H158.171H160.086L160.051 21.0943L160.015 29.2832L158.142 29.3194L156.269 29.3557L153.9 26.4417C152.597 24.839 150.7 22.4915 149.684 21.2248C148.667 19.9582 147.79 18.9189 147.733 18.9153C147.677 18.9115 147.631 21.2592 147.631 24.1321V29.3557L145.749 29.3194L143.868 29.2832ZM162.684 21.127V29.3484H168.842H175V27.9129V26.4774H170.758H166.516V24.4547V22.432H170.758H175V21.0617V19.6915H170.758H166.516V17.6687V15.646H170.758H175V14.2758V12.9055H168.842H162.684V21.127ZM132.851 16.9925C131.837 17.2708 131.251 17.5964 130.655 18.2128C129.793 19.1043 129.503 19.8212 129.501 21.0644C129.499 21.9871 129.552 22.2149 129.95 22.9859C130.72 24.4761 132.121 25.3029 133.878 25.3029C135.583 25.3029 136.968 24.5086 137.783 23.0628C138.208 22.3102 138.25 22.1369 138.253 21.1269C138.256 20.1721 138.203 19.9141 137.874 19.2735C136.968 17.5143 134.701 16.485 132.851 16.9925Z" fill="black"/>
<path fill-rule="evenodd" clip-rule="evenodd" d="M15.736 0.205632C15.0207 0.541667 15.5714 -0.317409 7.65306 12.8172C6.39052 14.9114 4.30772 18.3641 3.02452 20.4899C1.74145 22.6156 0.557053 24.6978 0.392564 25.1169C-0.0375424 26.2131 -0.121839 27.7495 0.177442 29.0334C0.680351 31.1902 1.71258 33.5607 2.32756 33.9715C2.76219 34.2618 3.32271 34.2263 3.72052 33.8833C3.90786 33.7217 5.85928 30.6241 8.05689 26.9994C10.2546 23.3748 13.8682 17.4215 16.087 13.7698C18.3058 10.1182 20.244 6.86578 20.394 6.54254C20.6028 6.09231 20.6541 5.75223 20.6133 5.09099C20.5543 4.139 20.3896 3.76773 19.1595 1.81573C18.5641 0.870655 18.2505 0.509042 17.8325 0.284453C17.1834 -0.0641098 16.3748 -0.0946466 15.736 0.205632ZM21.322 10.9779C20.5813 11.3516 20.2998 11.738 18.0371 15.4886C16.2533 18.4454 16.0677 18.9399 16.3914 19.8751C16.6187 20.5319 17.1703 21.1193 17.8269 21.4036C18.324 21.6191 18.7944 21.6432 22.4852 21.6432C26.1652 21.6432 26.6474 21.6186 27.138 21.4055C27.8419 21.0998 28.6532 20.2398 28.8387 19.6029C29.194 18.3828 29.0657 18.0636 26.6204 14.08C24.7426 11.0207 24.4811 10.7827 22.9214 10.712C22.0926 10.6743 21.841 10.7162 21.322 10.9779ZM11.7809 26.8101C10.9157 27.2212 10.7837 27.3899 8.92997 30.4534C7.11101 33.4591 6.97061 33.7675 6.96089 34.7759C6.95131 35.7668 7.52935 36.9692 8.27626 37.5124C8.54776 37.71 10.7782 38.7801 13.2328 39.8907C17.4501 41.7986 17.7502 41.9133 18.6891 41.9755C19.5994 42.0358 19.7558 42.007 20.555 41.6319C21.5894 41.1462 23.0131 39.7827 23.5093 38.8024C23.9603 37.9115 23.9706 36.4759 23.5324 35.5471C23.0937 34.6171 15.4173 27.2475 14.4113 26.7908C13.5025 26.378 12.6772 26.3841 11.7809 26.8101Z" fill="black"/>
<path d="M18.5019 26.6448C18.1115 25.7843 18.424 24.9023 19.3023 24.3857C19.7331 24.1323 19.9434 24.1246 25.4958 24.1586C31.2066 24.1935 31.2478 24.1957 31.9586 24.5021C33.2283 25.0496 34.3137 26.4683 34.3185 27.5867C34.3236 28.7649 34.1461 29.0264 31.8175 31.2729C29.3346 33.6682 28.7405 34.0482 27.4874 34.0435C26.1458 34.0385 25.7992 33.797 22.0941 30.2871C20.2231 28.5148 18.6067 26.8758 18.5019 26.6448Z" fill="#2161FF"/>
</svg>
