<svg width="16" height="17" viewBox="0 0 16 17" fill="none" xmlns="http://www.w3.org/2000/svg">
<path fill-rule="evenodd" clip-rule="evenodd" d="M8 16.5C10.1217 16.5 12.1566 15.6571 13.6569 14.1569C15.1571 12.6566 16 10.6217 16 8.5C16 6.37827 15.1571 4.34344 13.6569 2.84315C12.1566 1.34285 10.1217 0.5 8 0.5C5.87827 0.5 3.84344 1.34285 2.34315 2.84315C0.842855 4.34344 0 6.37827 0 8.5C0 10.6217 0.842855 12.6566 2.34315 14.1569C3.84344 15.6571 5.87827 16.5 8 16.5ZM11.707 7.207C11.8892 7.0184 11.99 6.7658 11.9877 6.5036C11.9854 6.2414 11.8802 5.99059 11.6948 5.80518C11.5094 5.61977 11.2586 5.5146 10.9964 5.51233C10.7342 5.51005 10.4816 5.61084 10.293 5.793L7 9.086L5.707 7.793C5.5184 7.61084 5.2658 7.51005 5.0036 7.51233C4.7414 7.5146 4.49059 7.61977 4.30518 7.80518C4.11977 7.99059 4.0146 8.2414 4.01233 8.5036C4.01005 8.7658 4.11084 9.0184 4.293 9.207L6.293 11.207C6.48053 11.3945 6.73484 11.4998 7 11.4998C7.26516 11.4998 7.51947 11.3945 7.707 11.207L11.707 7.207Z" fill="#89F5C2"/>
</svg>
