<svg width="20" height="20" viewBox="0 0 20 20" fill="none" xmlns="http://www.w3.org/2000/svg">
<path d="M5.4998 16.0003C4.60432 15.9991 3.74336 15.6548 3.09407 15.0381C2.44478 14.4214 2.05655 13.5793 2.00928 12.6851C1.96201 11.7909 2.25928 10.9125 2.83993 10.2308C3.42058 9.54911 4.24044 9.1159 5.1308 9.02031C4.86863 7.9922 5.02562 6.90205 5.56722 5.98969C6.10883 5.07732 6.99068 4.41748 8.0188 4.15531C9.04691 3.89314 10.1371 4.05013 11.0494 4.59173C11.9618 5.13334 12.6216 6.0152 12.8838 7.04331C13.4952 6.95817 14.1177 6.99976 14.7124 7.16547C15.307 7.33119 15.8613 7.6175 16.3406 8.00659C16.8199 8.39568 17.214 8.87923 17.4984 9.42716C17.7828 9.97508 17.9514 10.5757 17.9938 11.1916C18.0361 11.8075 17.9513 12.4255 17.7446 13.0072C17.5379 13.5889 17.2137 14.1218 16.7921 14.5729C16.3706 15.0239 15.8608 15.3834 15.2944 15.629C14.728 15.8745 14.1171 16.0009 13.4998 16.0003H5.4998Z" fill="#7B87A8"/>
</svg>
