<svg width="74" height="74" viewBox="0 0 74 74" fill="none" xmlns="http://www.w3.org/2000/svg">
<rect width="74" height="74" rx="37" fill="#2E2E32"/>
<path d="M15.4097 24.4746H24.4742V37.165H15.4097V24.4746Z" fill="#FB5232"/>
<rect x="15.4097" y="15.4082" width="9.06455" height="9.06455" rx="4.53227" fill="#FFCDC4"/>
<rect x="28.12" y="37.1484" width="9.028" height="21.756" fill="#EBFFBF"/>
<path d="M15.392 37.1484V37.1484C22.4214 37.1484 28.12 42.847 28.12 49.8764V58.9044H15.392V37.1484Z" fill="#00B86E"/>
<path d="M24.4742 26.2857C24.4742 20.2782 29.3442 15.4082 35.3517 15.4082H58.9195V37.1631H35.3517C29.3442 37.1631 24.4742 32.2931 24.4742 26.2857Z" fill="#F4CC3E"/>
<path d="M33.5388 26.2875C33.5388 25.2863 34.3505 24.4746 35.3517 24.4746H58.9196V28.1004H35.3517C34.3505 28.1004 33.5388 27.2888 33.5388 26.2875Z" fill="#121212"/>
<path d="M37.1647 48.0415C37.1647 46.6131 37.446 45.1986 37.9927 43.8789C38.5393 42.5592 39.3405 41.3601 40.3506 40.35C41.3607 39.3399 42.5598 38.5387 43.8795 37.9921C45.1992 37.4454 46.6137 37.1641 48.0421 37.1641L48.0421 48.0415H37.1647Z" fill="#BED4FF"/>
<path d="M58.9196 48.043C58.9196 49.4714 58.6382 50.8859 58.0916 52.2056C57.5449 53.5253 56.7437 54.7244 55.7336 55.7345C54.7236 56.7446 53.5245 57.5458 52.2047 58.0924C50.885 58.6391 49.4706 58.9204 48.0421 58.9204L48.0421 48.043H58.9196Z" fill="#5A4CFA"/>
<path d="M48.0421 37.1641H58.9196L48.0421 48.0415V37.1641Z" fill="#BED4FF"/>
<path d="M48.0421 58.918H37.1647L48.0421 48.0405V58.918Z" fill="#5A4CFA"/>
</svg>
