<svg width="24" height="24" viewBox="0 0 24 24" fill="none" xmlns="http://www.w3.org/2000/svg">
<g opacity="0.8">
<path fill-rule="evenodd" clip-rule="evenodd" d="M21.5999 9.60004C21.6002 10.7246 21.3371 11.8337 20.8316 12.8383C20.3262 13.8429 19.5924 14.7151 18.6891 15.3851C17.7859 16.055 16.7382 16.5041 15.6301 16.6963C14.5221 16.8884 13.3844 16.8183 12.3083 16.4916L11.9999 16.8L10.7999 18L9.5999 19.2H7.1999V21.6H2.3999V16.8L7.5083 11.6916C7.20884 10.7017 7.12618 9.65878 7.26595 8.63398C7.40573 7.60918 7.76465 6.62653 8.31829 5.7529C8.87193 4.87927 9.6073 4.13518 10.4743 3.57126C11.3414 3.00735 12.3197 2.63686 13.3428 2.48501C14.3659 2.33315 15.4097 2.4035 16.4031 2.69126C17.3966 2.97903 18.3163 3.47745 19.0999 4.1526C19.8834 4.82775 20.5123 5.66379 20.9437 6.60381C21.3751 7.54383 21.5989 8.56576 21.5999 9.60004ZM14.3999 4.80004C14.0816 4.80004 13.7764 4.92647 13.5514 5.15151C13.3263 5.37656 13.1999 5.68178 13.1999 6.00004C13.1999 6.3183 13.3263 6.62353 13.5514 6.84857C13.7764 7.07361 14.0816 7.20004 14.3999 7.20004C15.0364 7.20004 15.6469 7.4529 16.097 7.90299C16.547 8.35307 16.7999 8.96352 16.7999 9.60004C16.7999 9.9183 16.9263 10.2235 17.1514 10.4486C17.3764 10.6736 17.6816 10.8 17.9999 10.8C18.3182 10.8 18.6234 10.6736 18.8484 10.4486C19.0735 10.2235 19.1999 9.9183 19.1999 9.60004C19.1999 8.327 18.6942 7.1061 17.794 6.20593C16.8938 5.30575 15.6729 4.80004 14.3999 4.80004Z" fill="white"/>
</g>
</svg>
