<svg width="48" height="45" viewBox="0 0 48 45" fill="none" xmlns="http://www.w3.org/2000/svg">
<path opacity="0.75" d="M40.0506 28.7944C41.3477 25.2615 41.8563 21.451 41.3222 17.7161C40.4067 11.3064 36.9732 6.36027 30.5133 2.87781C22.2984 -1.61406 11.1588 -0.0242385 4.49538 6.56216C0.807608 10.2213 -1.43049 16.2777 1.54516 20.5425C3.70696 23.6211 7.85252 24.7568 10.2941 27.6084C13.346 31.1918 13.1171 36.7182 16.1437 40.3017C18.8395 43.4813 23.6718 44.3646 27.6394 43.0523C30.9711 41.9672 36.9732 37.1473 40.0506 28.7944Z" fill="#5493F7"/>
<path opacity="0.8" d="M27.6347 43.0765C30.9665 41.9913 36.9687 37.1715 40.046 28.8185C41.3431 25.2856 42.0552 21.8789 41.3176 17.7403C38.8506 4.08801 21.9887 21.6518 19.0639 23.4434C13.316 26.9512 11.7392 34.6731 15.8339 39.9977C15.9357 40.124 16.012 40.2501 16.1137 40.3511C18.8095 43.5055 23.6672 44.3634 27.6347 43.0765Z" fill="#2043B5"/>
<path opacity="0.7" d="M32.8736 5.00103C29.3129 3.71404 25.4726 3.20934 21.7085 3.73927C15.2485 4.64775 10.2637 8.05449 6.75396 14.4643C2.22689 22.6152 3.82917 33.6683 10.4672 40.2799C14.1549 43.939 20.2589 46.1597 24.557 43.2072C27.6598 41.0622 28.8043 36.9488 31.6783 34.5262C35.2896 31.4981 40.8595 31.7252 44.4709 28.7221C47.6756 26.0472 48.5657 21.2526 47.2431 17.3159C46.1495 14.01 41.2919 8.05449 32.8736 5.00103Z" fill="#2566E4"/>
<path d="M25.4986 31.9786L22.2177 25.4174L20.0305 27.411L19.0386 31.9786H15.3L18.8861 15.1719H22.6502L21.2513 21.7079L28.4742 15.1719H33.688L25.1679 22.7929L30.0003 31.9786H25.4986Z" fill="white"/>
</svg>
