<?xml version="1.0" encoding="utf-8"?>
<!-- Generator: Adobe Illustrator 23.0.2, SVG Export Plug-In . SVG Version: 6.00 Build 0)  -->
<svg version="1.1" id="Capa_1" xmlns="http://www.w3.org/2000/svg" xmlns:xlink="http://www.w3.org/1999/xlink" x="0px" y="0px" viewBox="0 0 800 525.2" style="enable-background:new 0 0 800 525.2;" xml:space="preserve">

<g>
	<path d="M794.6,230.2c-12.5-49.1-47.2-96.3-101.4-131.1c-29.8-19.1-64.9-34-100.3-47.8c-36.1-14-72.3-28.8-111.6-38.6
		C344.2-21.4,184.4,16,95,90.1c-46.6,38.4-76.2,85.1-88.3,133.7C-5.8,273.9-1.9,328,27.6,375.3c7.4,11.9,16.5,23.1,27.4,33.8
		c1.2,1.2,3,1.8,4.7,1.9c31.1,15.1,68.7,20.3,106.1,24.8c44.1,5.3,88.5,9.6,132.9,12.9c92.8,7,186.3,10,279.7,8.8
		c23.5-0.4,47.1-0.8,70.6-1.7c18.2-0.6,37.6-0.6,54.1-6.5c31.3-11.3,47.1-38,60.1-58.5C795.2,340.4,808.4,284.3,794.6,230.2z" style="fill:#56597A;"/>
	<path d="M326.6,165.7c-2.8-1.3-4.6-2.8-7.6-1.9c-3.3,1-6.7,3.3-9.6,5c-5.8,3.4-11.3,7.3-16.2,11.6
		c-10.2,8.7-18.4,19.6-23.1,32.2c-4.7,12.8-5.7,28.8,2.5,40.4c3.4,4.8,8.4,8.7,14,10.5c4.1,1.2,10.5,1.1,10.3-4.7
		c-0.1-3.1-3.5-4.1-5.6-3c-20.8-8.4-13.3-35.6-4.5-49.9c9.3-15.2,23.4-26.9,39.8-33.8C329,170.9,328.9,166.8,326.6,165.7z" style="fill:#57455D;"/>
	<path d="M707.1,446.7c-14.5-12.5-35.9-19.8-55.1-26c-23-7.5-47.2-12.3-71.5-16c-56.8-8.4-115.2-11.5-172.7-14.2
		c-55.8-2.5-111.7-2.9-167.3,1.3c-34.7-3.6-69.8-4.7-104.2,1.9c-21.4,4.2-42.2,11.5-60,22.3c-12.1,7.5-32.1,20.8-14.2,32.3
		c18.4,11.7,40.2,21.1,61,29.4c21.9,8.7,44.7,16.2,67.8,22.4c45.6,12.1,93.1,19.2,140.8,22.6c107.6,7.6,215.5-4.8,321.1-21.4
		c12.7-1.9,25.4-4,38-6.2c9.9-1.7,20.3-4,26.5-11.3C727.9,471.7,718.2,456.4,707.1,446.7z" style="fill:#B4C7E7;"/>
	<path d="M397.7,140.4c-7-14.8-23-23.5-40.4-23.1c-16.8,0.4-34.5,9.2-40.7,24.2c-4.1,9.9-1.2,20.3,3,29.8
		c3.9,8.7,9.4,16.7,18.4,21.4c0.7,0.4,1.5,0.5,2.1,0.5c8.1,3.9,17.4,4.8,26.4,2.5c0.6,0,1.1,0,1.7-0.1c8.5-1,15.4-6.3,20.6-12.2
		C399.7,171,405,155.8,397.7,140.4z" style="fill:#B4C7E7;"/>
	<path d="M373.4,173.8c0.7-7.1-0.2-14.9-6.4-18.8c-2.1-1.3-4.1-1.9-6.1-1.9c-1.5-0.4-2.8,0-4.1,0.6
		c-3.6,1.2-6.7,4.4-8.1,8.2c-3.6,5.6-5.7,12.2-6.3,18.5c-0.8,8.5,4.1,17.2,13.3,17.5c8,0.4,12.7-5.2,15.1-11.9
		C372.5,182.9,373.4,178.3,373.4,173.8z" style="fill:#F7D3BC;"/>
	<path d="M323,193.4c-0.8-0.1-1.6,0-2.2,0.4c-6.2-0.6-13.2-0.6-18.2,3.5c-6.1,5-7,13.8-8.6,20.9
		c-4,18.6-8.1,38.8-8,57.9c0,6.4,3.3,11.5,9.1,14.3c5,2.3,14.2,3.6,19.4,1.3c6.5-3,6.1-14.8,7.1-20.8c1.8-9.8,3.5-19.6,5.3-29.3
		c1.9-10.8,4.5-21.7,5.8-32.4C333.8,201.5,331.2,194.5,323,193.4z" style="fill:#EF86B0;"/>
	<path d="M450.7,195.4c-6.8-4.6-15.7,2.7-22.4,4.4c-9.9,2.5-20.5,2.3-30.4,0.7c-20.3-3.1-39.6-11.5-59.9-14.8
		c-1-0.5-2.1-0.5-3.3,0.4c-14.9,11-29.7,24-35,42.4c-2.2,7.6-3.4,16.5,2.1,23c4.1,5,9.8,7.1,15.9,8.2c-4.5,13.7-11.5,34.3-2.8,47.3
		c1.2,1.7,2.7,3.3,4.2,4.6c-5.6,38.5-10.4,77-14.6,115.6c-0.1,1.1,0.7,2.7,1.8,3.1c9,3.9,18,5.9,27.7,6.1c1.9,0,3.6-1.7,3.6-3.6
		c0-2.7-1-4.6-2.8-6.4c-1.1-1.1-3-1.9-4-3.1c-1.6-2.3-0.4-4.1,0.4-6.4c3.6-10.5,6.9-21.2,9.7-32.1c5.2-19.7,8.8-39.7,11.3-59.9
		c1.8,0.4,3.8,0.7,5.6,1c-3,27.6-7.7,54.9-14,81.9c-0.5,1.9,0.6,3.9,2.5,4.5c8.1,2.3,16.3,3.5,24.8,3.5c3.4,0,5.2-5.2,1.8-6.8
		c-7.9-3.5-3.9-12.9-1.2-18.6c2.7-5.7,5.3-11.5,7.7-17.3c5.6-13.2,10.7-26.9,13.9-40.8c2.8-11.4,2.7-23-4.8-32.6
		c-5.1-6.4-12-10.9-19.2-14.5c6.2-18.8,10.7-38,13.4-57.5c15.2,2.2,30.7,0.6,45-5.2C434.4,219.7,465.1,205,450.7,195.4z" style="fill:#FFFFFF;"/>
	<path d="M374.7,378.6c1.1-2.3,0.1-4.5-2.2-5.3c-5.6-2.1-18.4-6.8-22.5-0.5c-1.2,0.5-2.2,1.6-2.2,3.1
		c-0.1,6.2-1.7,11.9-3.5,17.7c-1.2,4-3.3,8.6-3.4,12.8c-0.2,9.2,13.8,8.7,20.1,9.4c3.4,0.4,8.2,1.8,11.3-0.5c2.2-1.7,2.7-4.6,1-6.8
		c-0.6-0.8-1.6-1.1-2.2-1.7c-3.1-3.3-2.4-7.4-1.7-11.5C370.4,389.7,372.2,384,374.7,378.6z" style="fill:#74A2D6;"/>
	<path d="M487.5,418.8c-2.2-6.9-6.4-13.6-9.6-20c-10.4-28.4-18.5-57.9-24-87.7c-5.7-31.2-5.1-67.3-23.4-94
		c-1.2-1.8-3-2.4-5-1.5c-12.9,6.7-16.7,25.3-21.4,38.4c-7,19.5-14,39-21.1,58.6c-14,39-28.1,78.1-42.1,117c-1,2.7,0.8,4.5,3,4.7
		c0.4,1,1.1,1.8,2.4,2.1c2.8,0.6,5.6,1.2,8.4,1.8c2.1,0.5,3.8-0.6,4.5-2.7c7.1-21.2,14.3-42.4,21.4-63.5c23.4,2.3,47,2.7,70.4,1.2
		c1.1,5.7,2.3,11.4,3.8,17.1c2.2,8.4,4.7,16.6,8,24.6c2.4,5.9,5.2,16.6,11.9,18.5c3.9,1.1,6.9-1.1,8.6-4.4c0.1,0,0.2,0,0.4,0
		C488.2,428,488.7,422.6,487.5,418.8z M383.3,364.9c14.3-42.2,28.4-84.5,42.7-126.7c12.8,31.5,15.7,66.3,20,100.2
		c1.2,9.2,2.4,18.4,4,27.6C427.7,367.3,405.5,367,383.3,364.9z" style="fill:#F7D06F;"/>
	<path d="M341,433.7c-0.1-1.2-0.7-2.3-1.5-3.1c-1.7-3.6-4.1-6.4-7.4-8.7c1.7-8.6,4.4-16.8,8.4-24.8
		c1-1.9,0.4-4.8-2.3-5.3l-20.6-3.9c-3.6-0.7-7.6-1.9-9.9,1.6c-2.5,4.1-1.8,11.6-2.4,16.3c-0.8,6.9-1.6,13.8-2.4,20.7
		c0,0.5,0,0.8,0.2,1.2c-0.1,1.2,0.5,2.3,1.9,3c5.1,2.3,10.4,4.4,15.9,6.1c4.5,1.3,10.2,3.6,15,3C339,439.2,341.3,436.8,341,433.7z" style="fill:#74A2D6;"/>
	<path d="M449.2,192c-5.4-1.7-12.3,1.5-17.7,2.5c-8.1,1.7-16.2,2.9-24.4,3.6c-1.3,0.1-2.2,0.8-2.8,1.7
		c-1.3,0.5-2.4,1.6-2.4,3.3c-0.2,7.7,1,27,12.7,24.8c11.4-2.2,23.8-8.6,32.6-16C452.5,207.2,460.8,195.6,449.2,192z" style="fill:#74A2D6;"/>
	<path d="M369.5,175.5c-4.7,0-4.7,7.3,0,7.3C374.2,182.8,374.2,175.5,369.5,175.5z" style="fill:#57455D;"/>
	<path d="M368.1,183.7c-3-1.5-6.1-1.9-9.4-1.5c-1.9,0.2-3,2.8-2.5,4.5c0.6,2.1,2.5,2.8,4.5,2.5c1.1-0.1,2.7,0.1,3.9,0.7
		c1.8,0.8,3.9,0.5,5-1.3C370.2,187,369.9,184.6,368.1,183.7z" style="fill:#57455D;"/>
	<path d="M375.2,161.2c-3.6-9.9-15.7-13.4-24.4-8c-4.6,2.9-11.7,11.1-13.2,18.4c-1.6,3.4-3.6,7.5-3.6,11.1
		c0,4,4.8,5,7.9,5.9c3.1,1,6.8,2.4,9.4-0.5c2.2-2.3,3.4-5.9,4.5-9.1c0.6,1,1.7,1.6,2.9,1.6h0.2c1.9,0,3.8-1.7,3.6-3.6
		c0-1.1-0.5-2.1-1.3-2.8c4.2,1,9.4,2.1,12.5-0.2C377.3,171.3,376.5,165,375.2,161.2z" style="fill:#57455D;"/>
	<path d="M369.8,188.1c-6.3-1.8-12.7-3.4-19-5.1c-5.6-1.6-11.5-3.8-17.4-4c-6.2-0.2-8.4,4.2-6.3,7.7
		c-0.2,1.6,0.5,3.4,2.4,4c6.8,2.2,13.6,4.4,20.3,6.5c5.3,1.7,11,4.1,16.8,3.3c3.3-0.5,8.6-2.3,9.3-6.2
		C376.9,190.4,372.9,188.9,369.8,188.1z" style="fill:#EF86B0;"/>
	<path d="M369.5,223.6c-0.5-5.9-5.3-6.2-10.3-6.5c-5.2-0.4-14.8-2.4-19.4,0.7c-4.8,3.3-4.7,13.1-4.8,18.2
		c0,0.5,0.1,0.8,0.2,1.2c-0.7,5.1-1.5,10.2-2.2,15.2c-0.7,5.6-0.6,9.6,5.4,11c5.6,1.3,14.3,2.1,19.6-0.8c5-2.7,5.3-11,6.7-16
		C366.7,239.5,370.1,231.2,369.5,223.6z" style="fill:#F7D06F;"/>
	<path d="M514.4,244.7c-1.7,0.6-4.1-0.1-4.2-2.3c-0.2-2.4-2.3-3.6-4.2-3.5c-2.7-1.3-6.5,0.6-5.1,3.9
		c0.6,1.5,2.1,4.4,1.6,6.2c-1.6,0.6-3,1.7-4,3.1c-1.9,2.9,1.2,5.8,4.1,5.3c1.5-0.2,2.7-0.7,3.6-1.5c0.4,0.4,0.6,0.7,1,1.2
		c0.5,1.7,1.2,3.3,2.5,4.8c2.3,2.7,7.3-0.1,6.1-3.5c-0.5-1.3-1.1-2.8-1.8-4.1c0.1-1.2,1-2.4,2.4-2.9
		C520.7,250.3,518.9,243.3,514.4,244.7z" style="fill:#F7D06F;"/>
	<path d="M515.8,172.9c-1.5,0.6-3.4,0.5-4.2-1.1c-0.1-0.2-0.2-0.5-0.4-0.8c0-0.6-0.1-1.2-0.2-1.7c0-1.1,0-2.2-0.2-3.1
		c-0.4-1.2-1.1-1.9-1.9-2.3c-2.4-2.4-7.4,1-5.6,4.7c0.4,0.6,0.6,1.3,0.7,2.1c0,0.7,0.1,1.3,0.1,2.1c-0.1,0.6-0.2,1.2-0.6,1.7
		c-1,0.4-1.8,0.8-2.8,1.5c-3.3,2.4-1.5,7.5,2.8,6.7c1.3-0.2,2.3-0.7,3.3-1.3c2.2-0.1,4.1,1.9,5.2,4.1c0.1,0.2,0.2,0.6,0.5,0.8
		c2.3,4.1,8.2,0.5,6.3-3.6c-0.7-1.3-0.6-2.4,0.5-3.5C521.8,176.6,519.4,171.5,515.8,172.9z" style="fill:#F7D06F;"/>
	<path d="M430,396.4c-1.6,0.2-3,0.8-4.2,1.7c-2.2,0-4-1.3-4.6-4.1c-0.4-1.7-1.6-2.5-2.9-2.5c-2.9-2.5-8.1,0.8-5.7,4.4
		c0.8,1.2,1.3,2.9,1,4.4c-0.4,0.1-0.8,0.2-1.2,0.6c-1.9,1.2-2.8,3.6-1.9,5.8c0.7,1.9,3.3,3.8,5.3,2.2c0.4-0.2,0.7-0.6,1.1-1
		c1.5,0.8,2.8,2.3,3.8,3.9c0.4,1.2,1,2.4,1.7,3.6c2.2,3.1,8.1,1.3,6.7-2.8c-0.4-1.1-0.8-2.2-1.5-3.1c-0.4-1.6,0-3,1.1-4.1
		c1.5-0.4,2.8-1,4.1-1.9C436.2,400.5,434.3,395.7,430,396.4z" style="fill:#F7D06F;"/>
	<path d="M454.2,404c-1.3-0.4-2.9-0.8-4.5-1.3c-1-0.8-1.6-1.9-1.7-3.3c0.2-1.2,0.5-2.4,0.5-3.6c0-4.1-5.9-4.8-7.1-1
		c-0.5,1.6-0.7,3-0.6,4.5c-0.5,1.6-1.5,2.7-3.5,2.1c-4.2-1.5-6.2,5.1-2.3,6.8c-0.7,3-0.6,6.4-0.7,8.8c-0.1,3.3,4,4.6,6.2,2.5
		c0.2-0.2,0.5-0.4,0.7-0.6c1.5-1.3,1.3-3,0.5-4.4c0-0.7,0.1-1.6,0.2-2.3c0.2-2.1-0.2-3.3,1.7-3.5c0.8-0.1,1.9,0.1,3.1,0.5
		c1.9,1.2,4.2,1.9,6.7,1.9C457.4,411.3,458.2,405.1,454.2,404z" style="fill:#F7D06F;"/>
	<path d="M508.3,314.1c-1.9,0.1-3.6,1.6-3.6,3.6v0.6c0,1.9,1.7,3.8,3.6,3.6c1.9-0.1,3.6-1.6,3.6-3.6v-0.6
		C512,315.8,510.3,314,508.3,314.1z" style="fill:#FFFFFF;"/>
	<path d="M562.1,291c-4.7,0-4.7,7.3,0,7.3C566.7,298.2,566.7,291,562.1,291z" style="fill:#FFFFFF;"/>
	<path d="M481.6,215.2c-4.7,0-4.7,7.3,0,7.3S486.3,215.2,481.6,215.2z" style="fill:#FFFFFF;"/>
	<path d="M465.3,278.5c-1.9,0.1-3.6,1.6-3.6,3.6v0.6c0,1.9,1.7,3.8,3.6,3.6c1.9-0.1,3.6-1.6,3.6-3.6v-0.6
		C468.9,280.3,467.2,278.5,465.3,278.5z" style="fill:#FFFFFF;"/>
	<path d="M579.5,240.9c-0.2-0.2-0.4-0.4-0.6-0.6c-1.3-1.3-3.8-1.5-5.1,0c-1.3,1.5-1.5,3.8,0,5.1
		c0.2,0.2,0.4,0.4,0.6,0.6c1.3,1.3,3.8,1.5,5.1,0C580.8,244.6,580.8,242.3,579.5,240.9z" style="fill:#FFFFFF;"/>
	<path d="M562.1,164.9c-1.9,0.1-3.6,1.6-3.6,3.6v0.6c0,1.9,1.7,3.8,3.6,3.6c1.9-0.1,3.6-1.6,3.6-3.6v-0.6
		C565.7,166.6,564,164.7,562.1,164.9z" style="fill:#FFFFFF;"/>
	<path d="M473,133.4c-1.9,0.1-3.6,1.6-3.6,3.6v0.6c0,1.9,1.7,3.8,3.6,3.6c1.9-0.1,3.6-1.6,3.6-3.6V137
		C476.6,135.1,475.1,133.3,473,133.4z" style="fill:#FFFFFF;"/>
	<path d="M435.6,396.3c-4.7,0-4.7,7.3,0,7.3S440.3,396.3,435.6,396.3z" style="fill:#FFFFFF;"/>
	<path d="M462.7,398.6c-0.8,0-1.6,0.2-2.2,0.7c0.2-1.9-1-4.1-3.5-4.1c-2.5,0-3.6,2.1-3.5,4c-0.1,0-0.2,0-0.5,0
		c-4.7,0-4.7,7.3,0,7.3c2.5,0,3.6-2.1,3.5-4c0.1,0,0.2,0,0.5,0c0.8,0,1.6-0.2,2.2-0.7c-0.2,1.9,1,4.1,3.5,4.1
		C467.3,405.8,467.3,398.6,462.7,398.6z" style="fill:#FFFFFF;"/>
	<path d="M469.4,393.5h-0.6c-1.9,0-3.8,1.7-3.6,3.6s1.6,3.6,3.6,3.6h0.6c1.9,0,3.8-1.7,3.6-3.6
		C473,395.2,471.4,393.5,469.4,393.5z" style="fill:#FFFFFF;"/>
	<path d="M406.3,397.5c-4.7,0-4.7,7.3,0,7.3S411,397.5,406.3,397.5z" style="fill:#FFFFFF;"/>
	<path d="M389.1,228.2c-1.5,0.5-2.9,0.8-4.4,1.3c-0.4-1.3-0.8-2.7-1.5-4.1c-1.7-4.4-8.7-2.4-7,1.9
		c0.6,1.5,1.1,2.9,1.5,4.4l-2.4,0.7c-4.5,1.5-2.5,8.4,1.9,7c0.7-0.2,1.5-0.5,2.2-0.7c0.1,0.7,0.2,1.6,0.4,2.3c0.6,4.6,7.9,4.6,7.3,0
		c-0.2-1.6-0.4-3-0.7-4.5c1.5-0.5,3-1,4.5-1.5C395.4,233.8,393.6,226.8,389.1,228.2z" style="fill:#F7D06F;"/>
	<path d="M495.1,379.2c-0.7-3.3-5-3.3-6.7-0.8c-3.1,4.6-6.4,9.3-9.6,13.9c-1.3,1.8-2.5,4.4-4.1,5.9
		c-1.9,2.2-3.5,2.5-6.4,2.9c-10.5,1.5-21.2,2.2-31.7,2.5c-5.1,0.1-10.2,0.2-15.4,0.1c-4.6-0.1-11.5,1-15.4-1.5
		c-3.8-2.3-6.8-7.3-9.6-10.7c-3.5-4.1-7-8.1-10.5-12.2c-2.4-2.8-7,0.2-6.1,3.5c2.3,8,5.6,15.4,9.9,22.3c0.6,11,1.1,22.1,1.7,33.2
		c0.4,7.9-0.8,16.2,7.4,20.1c5.6,2.7,11.4,4.8,17.1,7.3c4,1.7,8,3.9,12.1,4.8c4.6,1.2,9.3,0.2,14-0.2c5.7-0.7,11.5-1.3,17.2-2.1
		c6.5-0.7,18.8,0.6,20.5-7.9c0.8-4.5,0.5-9.6,0.6-14c0.1-5.7,0.4-11.5,0.5-17.2c0.2-9.9,0-20.8,5.8-29.3
		C490.9,393.4,497.2,388,495.1,379.2z" style="fill:#F7D3BC;"/>
	<path d="M377.5,231.1c-3-2.3-7.3-0.7-10.5,0.1c-5.9,1.6-11.4,3.3-17.5,3.3c-6.7,0-13.3-1.2-19.8-2.4
		c-1.9-0.4-3.9,0.5-4.5,2.5c-0.1,0.4-0.1,0.7-0.2,1.1c-0.4,0.4-0.6,0.8-0.7,1.5c-1.5,7-1.2,13.8,0.8,20.6c0.5,1.5,1.9,2.8,3.5,2.7
		c10.5-1.1,20.8-3.3,30.9-7c7.3-2.7,16.8-6.1,19.7-14.2C380.1,236.4,380.1,233,377.5,231.1z" style="fill:#74A2D6;"/>
	<path d="M360.4,227.1c-4.6-0.5-9.2-1.6-13.7-3.1c-4.5-1.5-6.3,5.6-1.9,7c5.1,1.7,10.3,2.8,15.6,3.4
		C365,234.8,365,227.6,360.4,227.1z" style="fill:#57455D;"/>
	<path d="M341.1,254.9c-1.8-6.7-2.4-13.3-1.7-20.2c0.2-2.5-1.9-3.8-3.9-3.4c-0.4-0.4-1-0.6-1.6-0.7
		c-3-0.6-6.2-1.2-9.2-1.8c2.1-3,4.6-5.7,7.6-7.9c3.8-2.7,0.1-9-3.6-6.3c-5.4,3.9-9.9,8.8-12.8,14.9c-1,1.9-0.2,4.8,2.2,5.3
		c4.6,1,9.3,1.8,13.9,2.8l0,0c-0.4,6.5,0.5,12.9,2.2,19.4C335.3,261.3,342.3,259.5,341.1,254.9z" style="fill:#57455D;"/>
	<path d="M421,221.7c-3.3-7.5-4.1-15.4-3.1-23.4c0.6-4.6-6.7-4.6-7.3,0c-1.2,9.4,0.4,18.4,4.1,27.1
		C416.5,229.6,422.8,226,421,221.7z" style="fill:#57455D;"/>
	<path d="M337.1,401.7l-28.4-7c-4.5-1.1-6.4,5.9-1.9,7l28.4,7C339.6,409.9,341.6,402.9,337.1,401.7z" style="fill:#57455D;"/>
	<path d="M354.9,376.4c-1.3-0.4-2.7-0.6-4-1c-1.8-0.4-4,0.6-4.5,2.5c-0.4,1.8,0.6,4,2.5,4.5c1.3,0.4,2.7,0.6,4,1
		c1.8,0.4,4-0.6,4.5-2.5C357.9,379.1,356.9,376.9,354.9,376.4z" style="fill:#57455D;"/>
	<path d="M436.4,414.1c-0.4-4.6-7.6-4.7-7.3,0c1.3,18.6,1.9,37.3,1.9,56c0,4.7,7.3,4.7,7.3,0
		C438.4,451.3,437.8,432.7,436.4,414.1z" style="fill:#57455D;"/>
	<path d="M397.7,399.9h-3.3c-1.9,0-3.8,1.7-3.6,3.6c0.1,1.9,1.6,3.6,3.6,3.6h3.3c1.9,0,3.8-1.7,3.6-3.6
		C401.4,401.5,399.8,399.9,397.7,399.9z" style="fill:#57455D;"/>
	<path d="M482.2,401.7c-1.6-0.2-3.3-0.6-4.8-1c-1.8-0.4-4,0.5-4.5,2.5c-0.4,1.8,0.5,4.1,2.5,4.5c1.6,0.4,3.3,0.6,4.8,1
		c1.8,0.4,4-0.5,4.5-2.5C485.2,404.4,484.3,402.1,482.2,401.7z" style="fill:#57455D;"/>
	<path d="M250.9,428.2c-5.3,0.2-10.3-0.5-15.2-2.3c-4.4-1.6-6.3,5.4-1.9,7c5.6,1.9,11.4,2.8,17.2,2.5
		C255.6,435.4,255.6,428.1,250.9,428.2z" style="fill:#57455D;"/>
	<path d="M266.4,400.7c-3.3-0.4-6.5-0.6-9.7-1c-1.9-0.2-3.6,1.8-3.6,3.6c0,2.2,1.7,3.4,3.6,3.6c3.3,0.4,6.5,0.6,9.7,1
		c1.9,0.2,3.6-1.8,3.6-3.6C270,402.2,268.3,401,266.4,400.7z" style="fill:#57455D;"/>
	<path d="M322.6,449c-5.4-2.8-11.7-3-17.8-2.7c-0.4-0.1-0.7-0.2-1.1-0.2c-4.2-0.2-7.6,1.7-9.9,5.3
		c-0.8,1.3-0.6,3.4,0.6,4.4c4.5,4.1,9.9,6.8,16,7.4c5,0.5,12.8-0.1,16.6-3.9C330.9,455.2,326.3,451,322.6,449z M303.7,453.8
		c2.9-0.2,5.8-0.4,8.7,0c2.4,0.2,4,1.1,6.3,1.6C313.7,456.9,308.3,456.2,303.7,453.8z" style="fill:#57455D;"/>
	<path d="M524.6,454.6c-0.6-2.1-2.5-2.9-4.5-2.5c-3,0.5-5.9,1.1-9,1.6c-1.9,0.4-3,2.7-2.5,4.5c0.6,2.1,2.5,2.9,4.5,2.5
		c3-0.5,5.9-1.1,9-1.6C524,458.7,525,456.3,524.6,454.6z" style="fill:#57455D;"/>
	<path d="M539.7,422.5h-13.8c-4.7,0-4.7,7.3,0,7.3h13.8C544.4,429.8,544.4,422.5,539.7,422.5z" style="fill:#57455D;"/>
	<path d="M374.2,451.9c-2.7-0.4-5.4-0.6-8.1-1c-1.9-0.2-3.6,1.8-3.6,3.6c0,2.2,1.7,3.4,3.6,3.6c2.7,0.4,5.4,0.6,8.1,1
		c1.9,0.2,3.6-1.8,3.6-3.6C377.9,453.4,376.2,452.2,374.2,451.9z" style="fill:#57455D;"/>
	<path d="M357.8,324.6c-13.4-1.6-25.9-7.3-35.9-16.1c-3.5-3-8.7,2.1-5.1,5.1c11.7,10.3,25.7,16.3,41.1,18.3
		C362.4,332.4,362.4,325.1,357.8,324.6z" style="fill:#57455D;"/>
	<path d="M375,283.6c-9.8-4.2-19.7-8.6-29.5-12.8c-4.2-1.8-8,4.4-3.6,6.3c9.8,4.2,19.7,8.6,29.5,12.8
		C375.5,291.7,379.2,285.4,375,283.6z" style="fill:#57455D;"/>
	<path d="M702.3,320.9c-6.4-9.7-19.7-12.7-28.7-7.5c-12,4.5-20.1,17.9-15.7,30.7c4.6,13.8,22.3,20.6,35.1,14.2
		C706.2,351.7,710.5,333,702.3,320.9z" style="fill:#74A2D6;"/>
	<path d="M175.9,103.9c-5.9-12.9-21.2-16.2-33.4-10.5c-1.6,0.7-2.1,2.2-1.8,3.5c-5,4.2-8,10.9-6.7,17.7
		c2.4,12.3,17.2,22.4,29.4,18.4C175.8,129,181.2,115.4,175.9,103.9z" style="fill:#B4C7E7;"/>
	<path d="M199.7,289.4c-0.5-8.2-4.6-15.9-9.7-22.1c-5.2-6.5-12-10.8-20.6-10.2c-5.4,0.4-10.4,2.5-14.3,6.1
		c-8.7,3.3-16,10-19.5,18.9c-5.4,13.9,0.6,30.1,12.7,38.4c6.3,4.4,14.2,6.3,21.7,5c8.4-1.5,14.8-7.9,20.3-13.9
		C196.1,305.3,200.2,298,199.7,289.4z" style="fill:#EF86B0;"/>
	<path d="M408,488.8c-4.8-0.6-9.7-0.2-14.3,1.1c-4.5,1.2-2.5,8.2,1.9,7c4.1-1.1,8.2-1.3,12.3-0.8
		c1.9,0.2,3.6-1.8,3.6-3.6C411.6,490.3,409.9,489.1,408,488.8z" style="fill:#57455D;"/>
	<path d="M144.4,439.1l-14.5-1.5c-4.6-0.5-4.6,6.8,0,7.3l14.5,1.5C149.1,446.7,149,439.5,144.4,439.1z" style="fill:#57455D;"/>
	<path d="M177,408.6l-9.7-2.3c-4.6-1.1-6.5,5.9-1.9,7l9.7,2.3C179.5,416.7,181.4,409.7,177,408.6z" style="fill:#57455D;"/>
	<path d="M223.1,463.3h-9.7c-4.7,0-4.7,7.3,0,7.3h9.7C227.8,470.6,227.8,463.3,223.1,463.3z" style="fill:#57455D;"/>
	<path d="M625,442.9c-7.1-2.1-18.8-1.6-20.6,7.1c-1.9,9.4,12.8,10.5,18.9,11c6.4,0.5,18,0.1,18.2-9
		C641.6,442.9,632.1,441.6,625,442.9z M632.6,453.4c-0.5,0.1-1,0.2-1.5,0.4c-2.2,1.2-8.5,0.1-10.9-0.2c-1.9-0.2-7.6-0.7-7.5-2.5
		c0.1-2.2,4-2.2,7.4-1.6c0.7,1.1,2.1,1.8,3.8,1.3c0.2-0.1,0.5-0.1,0.7-0.2c0.1,0,0.2,0.1,0.2,0.1c1.6,0.6,2.9,0,3.6-1
		c0.5,0,0.8,0,1.3,0C632.3,448.9,633.2,450.1,632.6,453.4z" style="fill:#57455D;"/>
	<path d="M558.3,479h-12.1c-4.7,0-4.7,7.3,0,7.3h12.1C563,486.3,563,479,558.3,479z" style="fill:#57455D;"/>
	<path d="M674.5,326.6h-13.3c-4.7,0-4.7,7.3,0,7.3h13.3C679.2,333.8,679.2,326.6,674.5,326.6z" style="fill:#57455D;"/>
	<path d="M704.8,338.7h-10.9c-4.7,0-4.7,7.3,0,7.3h10.9C709.5,345.9,709.5,338.7,704.8,338.7z" style="fill:#57455D;"/>
	<path d="M213.4,278.9c-4.6-4.5-11.9-5.1-17.8-4.1c-4.6,0.7-2.7,7.6,1.9,7c3.6-0.5,14.8,1,7.6,5.6
		c-3.4,2.2-7.3,3.5-11.3,4.5c-8.2,2.1-16.7,3.1-25.1,4.4c-9.4,1.3-18.9,2.3-28.4,2.1c-4.6-0.1-9.1-0.5-13.6-1.2
		c-1.1-0.1-2.2-0.4-3.3-0.6c-2.5-0.2-2.9-0.5-1.5-0.6c1.8-1.2,5.6-1,7.7-1c4.7,0,4.7-7.3,0-7.3c-5.2,0-13.6,0.6-16.2,6.1
		c-2.2,4.6,1.7,8,5.8,9.2c16,4.7,34.1,2.7,50.2,0.4c13.6-1.9,31.2-2.7,42.1-12C215.8,287.9,217.5,282.9,213.4,278.9z" style="fill:#57455D;"/>
	<path d="M152,107.7c-5.7,2.1-11.3,4-16.9,6.1c-4.4,1.6-2.5,8.6,1.9,7l16.9-6.1C158.3,113.2,156.4,106.2,152,107.7z" style="fill:#57455D;"/>
	<path d="M179.4,115c-0.5-1.7-2.7-3.3-4.5-2.5c-2.1,0.8-4,1.6-6.1,2.4c-1.8,0.7-3.1,2.4-2.5,4.5
		c0.5,1.7,2.7,3.3,4.5,2.5c2.1-0.8,4-1.6,6.1-2.4C178.7,118.8,180,117.1,179.4,115z" style="fill:#57455D;"/>
</g>
</svg>
