<svg id="Group_90" data-name="Group 90" xmlns="http://www.w3.org/2000/svg" xmlns:xlink="http://www.w3.org/1999/xlink" width="28" height="28" viewBox="0 0 73.65 74.494">
  <defs>
    <clipPath id="clip-path">
      <rect id="Rectangle_115" data-name="Rectangle 115" width="73.65" height="74.494" fill="none"/>
    </clipPath>
  </defs>
  <g id="Group_85" data-name="Group 85" clip-path="url(#clip-path)">
    <path id="Path_301" data-name="Path 301" d="M73.309,21.126a18.007,18.007,0,0,0-.682-2.4q-.29-.782-.648-1.52a18.312,18.312,0,0,0-1.111-1.952,16.953,16.953,0,0,0-1.345-1.785h0c-.184-.216-.377-.419-.571-.614-.056-.061-.111-.111-.17-.17L61.265,5.16l-.019.01A16.875,16.875,0,0,0,49.1,0H16.933A16.948,16.948,0,0,0,0,16.923V49.943A16.9,16.9,0,0,0,4.706,61.63l7.969,7.96a17.144,17.144,0,0,0,2.247,1.89,18.077,18.077,0,0,0,1.93,1.154,18.684,18.684,0,0,0,2.08.895,18.515,18.515,0,0,0,2.216.614,16.977,16.977,0,0,0,3.409.341H56.7a16.937,16.937,0,0,0,3.428-.341c.549-.118,1.077-.261,1.606-.419a16.912,16.912,0,0,0,6.684-3.944q.614-.6,1.193-1.261a16.91,16.91,0,0,0,1.969-2.841c.14-.261.269-.511.4-.779.239-.484.453-.992.648-1.509.087-.261.184-.528.261-.782a14.346,14.346,0,0,0,.406-1.624,16.978,16.978,0,0,0,.341-3.409V24.546a17.123,17.123,0,0,0-.341-3.421M56.7,68.557H24.546a10.872,10.872,0,0,1-5.853-1.693,11.034,11.034,0,0,1-5.143-9.305V24.546a11.008,11.008,0,0,1,11-11H56.7a10.972,10.972,0,0,1,9.317,5.146,10.839,10.839,0,0,1,1.689,5.853V57.561a11.008,11.008,0,0,1-11.008,11" fill="#4608e3"/>
    <path id="Path_302" data-name="Path 302" d="M53.261,50.057H35.9a2.451,2.451,0,1,0,0,4.9h8.482v4.855l.051-.041a2.444,2.444,0,0,0,2.434,2.289h0a2.446,2.446,0,0,0,1.826-.811l6.4-7.1a2.451,2.451,0,0,0-1.82-4.091" transform="translate(-4.358 -6.523)" fill="#4608e3"/>
    <path id="Path_303" data-name="Path 303" d="M43.394,31.088Z" transform="translate(-5.655 -4.05)" fill="#4608e3"/>
    <path id="Path_304" data-name="Path 304" d="M35.665,43.1H53.031a2.453,2.453,0,1,0,0-4.9H44.55v-4.86l-.051.041A2.443,2.443,0,0,0,40.237,31.9l-6.4,7.1a2.451,2.451,0,0,0,1.82,4.091" transform="translate(-4.327 -4.053)" fill="#4608e3"/>
  </g>
</svg>
