<svg width="119" height="12" viewBox="0 0 119 12" fill="none" xmlns="http://www.w3.org/2000/svg">
<path d="M2.45257 8.48L2.76057 7.08H7.31057L7.63257 8.48H2.45257ZM5.01457 3.972L3.47457 7.57L3.44657 7.934L2.08857 11H0.22657L5.01457 0.654L9.80257 11H7.94057L6.61057 8.018L6.56857 7.612L5.01457 3.972ZM10.8166 0.0799996H12.3286V11H10.8166V0.0799996ZM14.2619 0.0799996H15.7739V11H14.2619V0.0799996ZM31.1165 6.912V11H29.6045V7.08C29.6045 6.59467 29.5158 6.23533 29.3385 6.002C29.1705 5.75933 28.8998 5.638 28.5265 5.638C28.2745 5.638 28.0505 5.694 27.8545 5.806C27.6678 5.918 27.5185 6.08133 27.4065 6.296C27.3038 6.51067 27.2525 6.772 27.2525 7.08V11H25.7405V7.08C25.7405 6.59467 25.6518 6.23533 25.4745 6.002C25.3065 5.75933 25.0358 5.638 24.6625 5.638C24.4011 5.638 24.1725 5.694 23.9765 5.806C23.7898 5.918 23.6451 6.08133 23.5425 6.296C23.4398 6.51067 23.3885 6.772 23.3885 7.08V11H21.9045V4.56H23.3885V5.498C23.5751 5.14333 23.8178 4.87733 24.1165 4.7C24.4245 4.51333 24.7838 4.42 25.1945 4.42C25.6705 4.42 26.0625 4.518 26.3705 4.714C26.6878 4.91 26.9165 5.19467 27.0565 5.568C27.2805 5.19467 27.5605 4.91 27.8965 4.714C28.2418 4.518 28.6338 4.42 29.0725 4.42C29.5298 4.42 29.9078 4.518 30.2065 4.714C30.5145 4.90067 30.7431 5.18067 30.8925 5.554C31.0418 5.92733 31.1165 6.38 31.1165 6.912ZM32.9911 1.998C32.9911 1.73667 33.0844 1.51733 33.2711 1.34C33.4671 1.16267 33.6911 1.074 33.9431 1.074C34.2137 1.074 34.4377 1.16267 34.6151 1.34C34.8017 1.51733 34.8951 1.73667 34.8951 1.998C34.8951 2.25 34.8017 2.46933 34.6151 2.656C34.4377 2.83333 34.2137 2.922 33.9431 2.922C33.6911 2.922 33.4671 2.83333 33.2711 2.656C33.0844 2.46933 32.9911 2.25 32.9911 1.998ZM33.2011 4.56H34.6851V11H33.2011V4.56ZM40.9098 7.08C40.9098 6.604 40.8118 6.24467 40.6158 6.002C40.4198 5.75933 40.1165 5.638 39.7058 5.638C39.4258 5.638 39.1785 5.69867 38.9638 5.82C38.7491 5.932 38.5811 6.1 38.4598 6.324C38.3385 6.53867 38.2778 6.79067 38.2778 7.08V11H36.7658V4.56H38.2778V5.554C38.4831 5.17133 38.7445 4.88667 39.0618 4.7C39.3885 4.51333 39.7758 4.42 40.2238 4.42C40.9518 4.42 41.5071 4.644 41.8898 5.092C42.2725 5.53067 42.4638 6.13733 42.4638 6.912V11H40.9098V7.08ZM43.4987 4.56H47.1527V5.89H43.4987V4.56ZM44.5767 2.32H46.0747V11H44.5767V2.32ZM50.9955 11.14C50.3422 11.14 49.7635 11 49.2595 10.72C48.7648 10.44 48.3822 10.048 48.1115 9.544C47.8408 9.04 47.7055 8.452 47.7055 7.78C47.7055 7.09867 47.8408 6.506 48.1115 6.002C48.3915 5.498 48.7835 5.11067 49.2875 4.84C49.7915 4.56 50.3842 4.42 51.0655 4.42C51.7468 4.42 52.3255 4.55067 52.8015 4.812C53.2775 5.07333 53.6415 5.45133 53.8935 5.946C54.1548 6.43133 54.2855 7.01933 54.2855 7.71C54.2855 7.78467 54.2808 7.864 54.2715 7.948C54.2715 8.032 54.2668 8.09267 54.2575 8.13H48.6015V7.094H52.9695L52.5075 7.738C52.5355 7.682 52.5635 7.60733 52.5915 7.514C52.6288 7.41133 52.6475 7.32733 52.6475 7.262C52.6475 6.91667 52.5775 6.618 52.4375 6.366C52.3068 6.114 52.1202 5.918 51.8775 5.778C51.6442 5.638 51.3688 5.568 51.0515 5.568C50.6688 5.568 50.3422 5.652 50.0715 5.82C49.8008 5.988 49.5955 6.23067 49.4555 6.548C49.3155 6.86533 49.2408 7.25733 49.2315 7.724C49.2315 8.19067 49.3015 8.58733 49.4415 8.914C49.5815 9.23133 49.7868 9.474 50.0575 9.642C50.3375 9.81 50.6735 9.894 51.0655 9.894C51.4762 9.894 51.8355 9.81 52.1435 9.642C52.4515 9.474 52.7082 9.21733 52.9135 8.872L54.2155 9.404C53.8795 9.98267 53.4455 10.4167 52.9135 10.706C52.3815 10.9953 51.7422 11.14 50.9955 11.14ZM60.5727 0.0799996H62.0987V11H60.5727V0.0799996ZM55.2387 7.78C55.2387 7.07067 55.3834 6.46867 55.6727 5.974C55.962 5.47 56.3447 5.08733 56.8207 4.826C57.306 4.55533 57.824 4.42 58.3747 4.42C58.916 4.42 59.3874 4.55533 59.7887 4.826C60.1994 5.09667 60.5214 5.484 60.7547 5.988C60.9974 6.48267 61.1187 7.08 61.1187 7.78C61.1187 8.47067 60.9974 9.068 60.7547 9.572C60.5214 10.076 60.1994 10.4633 59.7887 10.734C59.3874 11.0047 58.916 11.14 58.3747 11.14C57.824 11.14 57.306 11.0093 56.8207 10.748C56.3447 10.4773 55.962 10.09 55.6727 9.586C55.3834 9.082 55.2387 8.48 55.2387 7.78ZM56.8067 7.78C56.8067 8.20933 56.8954 8.578 57.0727 8.886C57.25 9.194 57.4834 9.42733 57.7727 9.586C58.0714 9.74467 58.3934 9.824 58.7387 9.824C59.028 9.824 59.3127 9.74467 59.5927 9.586C59.882 9.42733 60.1154 9.19867 60.2927 8.9C60.4794 8.592 60.5727 8.21867 60.5727 7.78C60.5727 7.34133 60.4794 6.97267 60.2927 6.674C60.1154 6.366 59.882 6.13267 59.5927 5.974C59.3127 5.81533 59.028 5.736 58.7387 5.736C58.3934 5.736 58.0714 5.81533 57.7727 5.974C57.4834 6.13267 57.25 6.366 57.0727 6.674C56.8954 6.982 56.8067 7.35067 56.8067 7.78ZM73.0141 0.0799996H74.5401V11H73.0141V0.0799996ZM67.6801 7.78C67.6801 7.07067 67.8248 6.46867 68.1141 5.974C68.4034 5.47 68.7861 5.08733 69.2621 4.826C69.7474 4.55533 70.2654 4.42 70.8161 4.42C71.3574 4.42 71.8288 4.55533 72.2301 4.826C72.6408 5.09667 72.9628 5.484 73.1961 5.988C73.4388 6.48267 73.5601 7.08 73.5601 7.78C73.5601 8.47067 73.4388 9.068 73.1961 9.572C72.9628 10.076 72.6408 10.4633 72.2301 10.734C71.8288 11.0047 71.3574 11.14 70.8161 11.14C70.2654 11.14 69.7474 11.0093 69.2621 10.748C68.7861 10.4773 68.4034 10.09 68.1141 9.586C67.8248 9.082 67.6801 8.48 67.6801 7.78ZM69.2481 7.78C69.2481 8.20933 69.3368 8.578 69.5141 8.886C69.6914 9.194 69.9248 9.42733 70.2141 9.586C70.5128 9.74467 70.8348 9.824 71.1801 9.824C71.4694 9.824 71.7541 9.74467 72.0341 9.586C72.3234 9.42733 72.5568 9.19867 72.7341 8.9C72.9208 8.592 73.0141 8.21867 73.0141 7.78C73.0141 7.34133 72.9208 6.97267 72.7341 6.674C72.5568 6.366 72.3234 6.13267 72.0341 5.974C71.7541 5.81533 71.4694 5.736 71.1801 5.736C70.8348 5.736 70.5128 5.81533 70.2141 5.974C69.9248 6.13267 69.6914 6.366 69.5141 6.674C69.3368 6.982 69.2481 7.35067 69.2481 7.78ZM75.9242 7.78C75.9242 7.11733 76.0736 6.534 76.3722 6.03C76.6802 5.526 77.0956 5.134 77.6182 4.854C78.1409 4.56467 78.7336 4.42 79.3962 4.42C80.0589 4.42 80.6469 4.56467 81.1602 4.854C81.6829 5.134 82.0982 5.526 82.4062 6.03C82.7142 6.534 82.8682 7.11733 82.8682 7.78C82.8682 8.43333 82.7142 9.01667 82.4062 9.53C82.0982 10.034 81.6829 10.4307 81.1602 10.72C80.6469 11 80.0589 11.14 79.3962 11.14C78.7336 11.14 78.1409 11 77.6182 10.72C77.0956 10.4307 76.6802 10.034 76.3722 9.53C76.0736 9.01667 75.9242 8.43333 75.9242 7.78ZM77.4782 7.78C77.4782 8.18133 77.5622 8.536 77.7302 8.844C77.8982 9.14267 78.1269 9.38067 78.4162 9.558C78.7056 9.726 79.0322 9.81 79.3962 9.81C79.7509 9.81 80.0729 9.726 80.3622 9.558C80.6609 9.38067 80.8942 9.14267 81.0622 8.844C81.2302 8.536 81.3142 8.18133 81.3142 7.78C81.3142 7.37867 81.2302 7.024 81.0622 6.716C80.8942 6.408 80.6609 6.17 80.3622 6.002C80.0729 5.834 79.7509 5.75 79.3962 5.75C79.0322 5.75 78.7056 5.834 78.4162 6.002C78.1269 6.17 77.8982 6.408 77.7302 6.716C77.5622 7.024 77.4782 7.37867 77.4782 7.78ZM93.5149 6.912V11H92.0029V7.08C92.0029 6.59467 91.9142 6.23533 91.7369 6.002C91.5689 5.75933 91.2982 5.638 90.9249 5.638C90.6729 5.638 90.4489 5.694 90.2529 5.806C90.0662 5.918 89.9169 6.08133 89.8049 6.296C89.7022 6.51067 89.6509 6.772 89.6509 7.08V11H88.1389V7.08C88.1389 6.59467 88.0502 6.23533 87.8729 6.002C87.7049 5.75933 87.4342 5.638 87.0609 5.638C86.7996 5.638 86.5709 5.694 86.3749 5.806C86.1882 5.918 86.0436 6.08133 85.9409 6.296C85.8382 6.51067 85.7869 6.772 85.7869 7.08V11H84.3029V4.56H85.7869V5.498C85.9736 5.14333 86.2162 4.87733 86.5149 4.7C86.8229 4.51333 87.1822 4.42 87.5929 4.42C88.0689 4.42 88.4609 4.518 88.7689 4.714C89.0862 4.91 89.3149 5.19467 89.4549 5.568C89.6789 5.19467 89.9589 4.91 90.2949 4.714C90.6402 4.518 91.0322 4.42 91.4709 4.42C91.9282 4.42 92.3062 4.518 92.6049 4.714C92.9129 4.90067 93.1416 5.18067 93.2909 5.554C93.4402 5.92733 93.5149 6.38 93.5149 6.912ZM96.3975 8.998C96.3975 9.21267 96.4488 9.39933 96.5515 9.558C96.6542 9.70733 96.7942 9.81933 96.9715 9.894C97.1582 9.96867 97.3682 10.006 97.6015 10.006C97.9002 10.006 98.1708 9.94533 98.4135 9.824C98.6655 9.70267 98.8662 9.52533 99.0155 9.292C99.1742 9.04933 99.2535 8.76933 99.2535 8.452L99.4775 9.292C99.4775 9.70267 99.3562 10.048 99.1135 10.328C98.8802 10.5987 98.5815 10.804 98.2175 10.944C97.8628 11.0747 97.4988 11.14 97.1255 11.14C96.7242 11.14 96.3508 11.0607 96.0055 10.902C95.6602 10.7433 95.3848 10.51 95.1795 10.202C94.9742 9.894 94.8715 9.52067 94.8715 9.082C94.8715 8.45667 95.0908 7.962 95.5295 7.598C95.9682 7.22467 96.5888 7.038 97.3915 7.038C97.8208 7.038 98.1895 7.08467 98.4975 7.178C98.8148 7.27133 99.0762 7.38333 99.2815 7.514C99.4868 7.63533 99.6315 7.74733 99.7155 7.85V8.62C99.4262 8.41467 99.1182 8.26533 98.7915 8.172C98.4648 8.07867 98.1195 8.032 97.7555 8.032C97.4382 8.032 97.1815 8.074 96.9855 8.158C96.7895 8.23267 96.6402 8.34 96.5375 8.48C96.4442 8.62 96.3975 8.79267 96.3975 8.998ZM95.9215 6.24L95.3055 5.176C95.5948 4.99867 95.9682 4.826 96.4255 4.658C96.8922 4.49 97.4242 4.406 98.0215 4.406C98.5535 4.406 99.0202 4.48533 99.4215 4.644C99.8322 4.80267 100.154 5.03133 100.387 5.33C100.621 5.61933 100.737 5.97867 100.737 6.408V11H99.2535V6.702C99.2535 6.49667 99.2162 6.32867 99.1415 6.198C99.0762 6.06733 98.9828 5.96 98.8615 5.876C98.7402 5.792 98.5955 5.73133 98.4275 5.694C98.2595 5.65667 98.0775 5.638 97.8815 5.638C97.5828 5.638 97.2982 5.67533 97.0275 5.75C96.7662 5.81533 96.5375 5.89933 96.3415 6.002C96.1548 6.09533 96.0148 6.17467 95.9215 6.24ZM102.444 1.998C102.444 1.73667 102.538 1.51733 102.724 1.34C102.92 1.16267 103.144 1.074 103.396 1.074C103.667 1.074 103.891 1.16267 104.068 1.34C104.255 1.51733 104.348 1.73667 104.348 1.998C104.348 2.25 104.255 2.46933 104.068 2.656C103.891 2.83333 103.667 2.922 103.396 2.922C103.144 2.922 102.92 2.83333 102.724 2.656C102.538 2.46933 102.444 2.25 102.444 1.998ZM102.654 4.56H104.138V11H102.654V4.56ZM110.363 7.08C110.363 6.604 110.265 6.24467 110.069 6.002C109.873 5.75933 109.57 5.638 109.159 5.638C108.879 5.638 108.632 5.69867 108.417 5.82C108.202 5.932 108.034 6.1 107.913 6.324C107.792 6.53867 107.731 6.79067 107.731 7.08V11H106.219V4.56H107.731V5.554C107.936 5.17133 108.198 4.88667 108.515 4.7C108.842 4.51333 109.229 4.42 109.677 4.42C110.405 4.42 110.96 4.644 111.343 5.092C111.726 5.53067 111.917 6.13733 111.917 6.912V11H110.363V7.08ZM114.142 8.886C114.347 9.11 114.553 9.306 114.758 9.474C114.973 9.63267 115.187 9.754 115.402 9.838C115.617 9.91267 115.831 9.95 116.046 9.95C116.317 9.95 116.527 9.88933 116.676 9.768C116.835 9.64667 116.914 9.47867 116.914 9.264C116.914 9.07733 116.853 8.91867 116.732 8.788C116.611 8.648 116.443 8.53133 116.228 8.438C116.013 8.33533 115.761 8.23267 115.472 8.13C115.183 8.018 114.893 7.88733 114.604 7.738C114.324 7.57933 114.091 7.374 113.904 7.122C113.727 6.87 113.638 6.55267 113.638 6.17C113.638 5.778 113.736 5.45133 113.932 5.19C114.137 4.92867 114.408 4.73733 114.744 4.616C115.089 4.48533 115.458 4.42 115.85 4.42C116.205 4.42 116.536 4.47133 116.844 4.574C117.161 4.67667 117.446 4.812 117.698 4.98C117.95 5.148 118.165 5.33933 118.342 5.554L117.502 6.45C117.287 6.198 117.031 5.99267 116.732 5.834C116.433 5.67533 116.125 5.596 115.808 5.596C115.593 5.596 115.416 5.64267 115.276 5.736C115.136 5.82933 115.066 5.96467 115.066 6.142C115.066 6.29133 115.127 6.42667 115.248 6.548C115.379 6.66 115.547 6.76267 115.752 6.856C115.967 6.94933 116.205 7.04733 116.466 7.15C116.821 7.29 117.147 7.444 117.446 7.612C117.745 7.78 117.983 7.98533 118.16 8.228C118.347 8.47067 118.44 8.788 118.44 9.18C118.44 9.78667 118.23 10.2767 117.81 10.65C117.399 11.014 116.839 11.196 116.13 11.196C115.691 11.196 115.285 11.1307 114.912 11C114.548 10.86 114.226 10.6827 113.946 10.468C113.675 10.244 113.447 10.0107 113.26 9.768L114.142 8.886Z" fill="white"/>
</svg>
