<svg width="280" height="280" viewBox="0 0 280 280" fill="none" xmlns="http://www.w3.org/2000/svg">
<circle cx="140" cy="140" r="140" fill="#D0DEF5"/>
<mask id="mask0_1314_13043" style="mask-type:alpha" maskUnits="userSpaceOnUse" x="0" y="0" width="280" height="280">
<circle cx="140" cy="140" r="140" fill="#D0DEF5"/>
</mask>
<g mask="url(#mask0_1314_13043)">
<path d="M280.128 2V279.75H3L280.128 2Z" fill="#D8E7FF"/>
<path d="M92.88 200.964C92.88 194.618 102.465 179.816 137.559 179.816C172.653 179.816 179.61 194.498 179.61 200.964V213.896C179.61 213.896 176.982 232 137.559 232C98.1364 232 92.88 213.896 92.88 213.896V200.964Z" fill="#9DC0FA"/>
<path d="M92.88 200.964C92.88 194.618 102.465 179.816 137.559 179.816C172.653 179.816 179.61 194.498 179.61 200.964M92.88 200.964C92.88 200.964 102.173 218.587 137.559 218.587C172.946 218.587 179.61 200.964 179.61 200.964M92.88 200.964C92.88 207.311 92.88 213.896 92.88 213.896C92.88 213.896 98.1364 232 137.559 232C176.982 232 179.61 213.896 179.61 213.896C179.61 213.896 179.61 207.43 179.61 200.964" stroke="#3B82F6" stroke-width="3" stroke-linejoin="round"/>
<path d="M107.16 176.604C107.16 170.258 116.745 155.456 151.839 155.456C186.933 155.456 193.89 170.138 193.89 176.604V189.536C193.89 189.536 191.262 207.64 151.839 207.64C112.416 207.64 107.16 189.536 107.16 189.536V176.604Z" fill="#9DC0FA"/>
<path d="M107.16 176.604C107.16 170.258 116.745 155.456 151.839 155.456C186.933 155.456 193.89 170.138 193.89 176.604M107.16 176.604C107.16 176.604 116.452 194.227 151.839 194.227C187.226 194.227 193.89 176.604 193.89 176.604M107.16 176.604C107.16 182.951 107.16 189.536 107.16 189.536C107.16 189.536 112.416 207.64 151.839 207.64C191.262 207.64 193.89 189.536 193.89 189.536C193.89 189.536 193.89 183.07 193.89 176.604" stroke="#3B82F6" stroke-width="3" stroke-linejoin="round"/>
<path d="M87 161.484C87 155.138 96.5848 140.336 131.679 140.336C166.773 140.336 173.73 155.018 173.73 161.484V174.416C173.73 174.416 171.102 192.52 131.679 192.52C92.2564 192.52 87 174.416 87 174.416V161.484Z" fill="#9DC0FA"/>
<path d="M87 161.484C87 155.138 96.5848 140.336 131.679 140.336C166.773 140.336 173.73 155.018 173.73 161.484M87 161.484C87 161.484 96.2925 179.107 131.679 179.107C167.066 179.107 173.73 161.484 173.73 161.484M87 161.484C87 167.831 87 174.416 87 174.416C87 174.416 92.2564 192.52 131.679 192.52C171.102 192.52 173.73 174.416 173.73 174.416C173.73 174.416 173.73 167.95 173.73 161.484" stroke="#3B82F6" stroke-width="3" stroke-linejoin="round"/>
<path d="M92.88 144.684C92.88 138.338 102.465 123.536 137.559 123.536C172.653 123.536 179.61 138.218 179.61 144.684V157.616C179.61 157.616 176.982 175.72 137.559 175.72C98.1364 175.72 92.88 157.616 92.88 157.616V144.684Z" fill="#9DC0FA"/>
<path d="M92.88 144.684C92.88 138.338 102.465 123.536 137.559 123.536C172.653 123.536 179.61 138.218 179.61 144.684M92.88 144.684C92.88 144.684 102.173 162.307 137.559 162.307C172.946 162.307 179.61 144.684 179.61 144.684M92.88 144.684C92.88 151.031 92.88 157.616 92.88 157.616C92.88 157.616 98.1364 175.72 137.559 175.72C176.982 175.72 179.61 157.616 179.61 157.616C179.61 157.616 179.61 151.15 179.61 144.684" stroke="#3B82F6" stroke-width="3" stroke-linejoin="round"/>
<circle cx="136.245" cy="105.16" r="39.66" fill="#9DC0FA" stroke="#3B82F6" stroke-width="3"/>
<circle cx="136.245" cy="109.36" r="39.66" fill="#9DC0FA" stroke="#3B82F6" stroke-width="3"/>
</g>
</svg>
