<svg width="96" height="16" viewBox="0 0 96 16" fill="none" xmlns="http://www.w3.org/2000/svg">
<path d="M0.125 4.6875C0.125 3.97656 0.699219 3.375 1.4375 3.375V12.125C0.699219 12.125 0.125 11.5508 0.125 10.8125V4.6875ZM2.75 3.375C2.75 2.66406 3.32422 2.0625 4.0625 2.0625V13.4375C3.32422 13.4375 2.75 12.8633 2.75 12.125V3.375ZM14.125 0.75C15.082 0.75 15.875 1.54297 15.875 2.5V13C15.875 13.9844 15.082 14.75 14.125 14.75H7.125C6.14062 14.75 5.375 13.9844 5.375 13V2.5C5.375 1.54297 6.14062 0.75 7.125 0.75H14.125ZM14.5625 13V2.5C14.5625 2.28125 14.3438 2.0625 14.125 2.0625H7.125C6.87891 2.0625 6.6875 2.28125 6.6875 2.5V13C6.6875 13.2461 6.87891 13.4375 7.125 13.4375H14.125C14.3438 13.4375 14.5625 13.2461 14.5625 13Z" fill="white"/>
<path d="M30.4379 8.1C30.4379 8.79067 30.5919 9.39733 30.8999 9.92C31.2173 10.4427 31.6279 10.8487 32.1319 11.138C32.6453 11.418 33.2006 11.558 33.7979 11.558C34.2646 11.558 34.6846 11.4973 35.0579 11.376C35.4313 11.2547 35.7673 11.0913 36.0659 10.886C36.3739 10.6713 36.6399 10.4333 36.8639 10.172V12.132C36.4533 12.468 36.0099 12.7247 35.5339 12.902C35.0579 13.0793 34.4606 13.168 33.7419 13.168C33.0233 13.168 32.3513 13.0467 31.7259 12.804C31.1099 12.5613 30.5733 12.2113 30.1159 11.754C29.6586 11.2967 29.2993 10.76 29.0379 10.144C28.7859 9.51867 28.6599 8.83733 28.6599 8.1C28.6599 7.36267 28.7859 6.686 29.0379 6.07C29.2993 5.44467 29.6586 4.90333 30.1159 4.446C30.5733 3.98867 31.1099 3.63867 31.7259 3.396C32.3513 3.15333 33.0233 3.032 33.7419 3.032C34.4606 3.032 35.0579 3.12067 35.5339 3.298C36.0099 3.47533 36.4533 3.732 36.8639 4.068V6.028C36.6399 5.76667 36.3739 5.53333 36.0659 5.328C35.7673 5.11333 35.4313 4.94533 35.0579 4.824C34.6846 4.70267 34.2646 4.642 33.7979 4.642C33.2006 4.642 32.6453 4.78667 32.1319 5.076C31.6279 5.356 31.2173 5.75733 30.8999 6.28C30.5919 6.79333 30.4379 7.4 30.4379 8.1ZM38.2836 9.78C38.2836 9.11733 38.433 8.534 38.7316 8.03C39.0396 7.526 39.455 7.134 39.9776 6.854C40.5003 6.56467 41.093 6.42 41.7556 6.42C42.4183 6.42 43.0063 6.56467 43.5196 6.854C44.0423 7.134 44.4576 7.526 44.7656 8.03C45.0736 8.534 45.2276 9.11733 45.2276 9.78C45.2276 10.4333 45.0736 11.0167 44.7656 11.53C44.4576 12.034 44.0423 12.4307 43.5196 12.72C43.0063 13 42.4183 13.14 41.7556 13.14C41.093 13.14 40.5003 13 39.9776 12.72C39.455 12.4307 39.0396 12.034 38.7316 11.53C38.433 11.0167 38.2836 10.4333 38.2836 9.78ZM39.8376 9.78C39.8376 10.1813 39.9216 10.536 40.0896 10.844C40.2576 11.1427 40.4863 11.3807 40.7756 11.558C41.065 11.726 41.3916 11.81 41.7556 11.81C42.1103 11.81 42.4323 11.726 42.7216 11.558C43.0203 11.3807 43.2536 11.1427 43.4216 10.844C43.5896 10.536 43.6736 10.1813 43.6736 9.78C43.6736 9.37867 43.5896 9.024 43.4216 8.716C43.2536 8.408 43.0203 8.17 42.7216 8.002C42.4323 7.834 42.1103 7.75 41.7556 7.75C41.3916 7.75 41.065 7.834 40.7756 8.002C40.4863 8.17 40.2576 8.408 40.0896 8.716C39.9216 9.024 39.8376 9.37867 39.8376 9.78ZM46.6623 2.08H48.1743V13H46.6623V2.08ZM50.1076 2.08H51.6196V13H50.1076V2.08ZM56.3529 13.14C55.6996 13.14 55.1209 13 54.6169 12.72C54.1222 12.44 53.7396 12.048 53.4689 11.544C53.1982 11.04 53.0629 10.452 53.0629 9.78C53.0629 9.09867 53.1982 8.506 53.4689 8.002C53.7489 7.498 54.1409 7.11067 54.6449 6.84C55.1489 6.56 55.7416 6.42 56.4229 6.42C57.1042 6.42 57.6829 6.55067 58.1589 6.812C58.6349 7.07333 58.9989 7.45133 59.2509 7.946C59.5122 8.43133 59.6429 9.01933 59.6429 9.71C59.6429 9.78467 59.6382 9.864 59.6289 9.948C59.6289 10.032 59.6242 10.0927 59.6149 10.13H53.9589V9.094H58.3269L57.8649 9.738C57.8929 9.682 57.9209 9.60733 57.9489 9.514C57.9862 9.41133 58.0049 9.32733 58.0049 9.262C58.0049 8.91667 57.9349 8.618 57.7949 8.366C57.6642 8.114 57.4776 7.918 57.2349 7.778C57.0016 7.638 56.7262 7.568 56.4089 7.568C56.0262 7.568 55.6996 7.652 55.4289 7.82C55.1582 7.988 54.9529 8.23067 54.8129 8.548C54.6729 8.86533 54.5982 9.25733 54.5889 9.724C54.5889 10.1907 54.6589 10.5873 54.7989 10.914C54.9389 11.2313 55.1442 11.474 55.4149 11.642C55.6949 11.81 56.0309 11.894 56.4229 11.894C56.8336 11.894 57.1929 11.81 57.5009 11.642C57.8089 11.474 58.0656 11.2173 58.2709 10.872L59.5729 11.404C59.2369 11.9827 58.8029 12.4167 58.2709 12.706C57.7389 12.9953 57.0996 13.14 56.3529 13.14ZM62.0941 9.78C62.0941 10.1907 62.1828 10.55 62.3601 10.858C62.5375 11.1567 62.7755 11.3947 63.0741 11.572C63.3821 11.7493 63.7228 11.838 64.0961 11.838C64.4041 11.838 64.6981 11.7913 64.9781 11.698C65.2581 11.6047 65.5055 11.474 65.7201 11.306C65.9348 11.138 66.0935 10.9513 66.1961 10.746V12.412C65.9721 12.636 65.6688 12.8133 65.2861 12.944C64.9035 13.0747 64.4835 13.14 64.0261 13.14C63.3635 13.14 62.7661 13 62.2341 12.72C61.7115 12.4307 61.2961 12.034 60.9881 11.53C60.6895 11.0167 60.5401 10.4333 60.5401 9.78C60.5401 9.11733 60.6895 8.534 60.9881 8.03C61.2961 7.526 61.7115 7.134 62.2341 6.854C62.7661 6.56467 63.3635 6.42 64.0261 6.42C64.4835 6.42 64.9035 6.48533 65.2861 6.616C65.6688 6.74667 65.9721 6.924 66.1961 7.148V8.814C66.0935 8.59933 65.9301 8.41267 65.7061 8.254C65.4915 8.086 65.2441 7.95533 64.9641 7.862C64.6841 7.76867 64.3948 7.722 64.0961 7.722C63.7228 7.722 63.3821 7.81067 63.0741 7.988C62.7755 8.16533 62.5375 8.408 62.3601 8.716C62.1828 9.024 62.0941 9.37867 62.0941 9.78ZM66.9714 6.56H70.6254V7.89H66.9714V6.56ZM68.0494 4.32H69.5474V13H68.0494V4.32ZM71.6121 3.998C71.6121 3.73667 71.7055 3.51733 71.8921 3.34C72.0881 3.16267 72.3121 3.074 72.5641 3.074C72.8348 3.074 73.0588 3.16267 73.2361 3.34C73.4228 3.51733 73.5161 3.73667 73.5161 3.998C73.5161 4.25 73.4228 4.46933 73.2361 4.656C73.0588 4.83333 72.8348 4.922 72.5641 4.922C72.3121 4.922 72.0881 4.83333 71.8921 4.656C71.7055 4.46933 71.6121 4.25 71.6121 3.998ZM71.8221 6.56H73.3061V13H71.8221V6.56ZM74.8969 9.78C74.8969 9.11733 75.0462 8.534 75.3449 8.03C75.6529 7.526 76.0682 7.134 76.5909 6.854C77.1136 6.56467 77.7062 6.42 78.3689 6.42C79.0316 6.42 79.6196 6.56467 80.1329 6.854C80.6556 7.134 81.0709 7.526 81.3789 8.03C81.6869 8.534 81.8409 9.11733 81.8409 9.78C81.8409 10.4333 81.6869 11.0167 81.3789 11.53C81.0709 12.034 80.6556 12.4307 80.1329 12.72C79.6196 13 79.0316 13.14 78.3689 13.14C77.7062 13.14 77.1136 13 76.5909 12.72C76.0682 12.4307 75.6529 12.034 75.3449 11.53C75.0462 11.0167 74.8969 10.4333 74.8969 9.78ZM76.4509 9.78C76.4509 10.1813 76.5349 10.536 76.7029 10.844C76.8709 11.1427 77.0996 11.3807 77.3889 11.558C77.6782 11.726 78.0049 11.81 78.3689 11.81C78.7236 11.81 79.0456 11.726 79.3349 11.558C79.6336 11.3807 79.8669 11.1427 80.0349 10.844C80.2029 10.536 80.2869 10.1813 80.2869 9.78C80.2869 9.37867 80.2029 9.024 80.0349 8.716C79.8669 8.408 79.6336 8.17 79.3349 8.002C79.0456 7.834 78.7236 7.75 78.3689 7.75C78.0049 7.75 77.6782 7.834 77.3889 8.002C77.0996 8.17 76.8709 8.408 76.7029 8.716C76.5349 9.024 76.4509 9.37867 76.4509 9.78ZM87.4196 9.08C87.4196 8.604 87.3216 8.24467 87.1256 8.002C86.9296 7.75933 86.6262 7.638 86.2156 7.638C85.9356 7.638 85.6882 7.69867 85.4736 7.82C85.2589 7.932 85.0909 8.1 84.9696 8.324C84.8482 8.53867 84.7876 8.79067 84.7876 9.08V13H83.2756V6.56H84.7876V7.554C84.9929 7.17133 85.2542 6.88667 85.5716 6.7C85.8982 6.51333 86.2856 6.42 86.7336 6.42C87.4616 6.42 88.0169 6.644 88.3996 7.092C88.7822 7.53067 88.9736 8.13733 88.9736 8.912V13H87.4196V9.08ZM91.1985 10.886C91.4038 11.11 91.6091 11.306 91.8145 11.474C92.0291 11.6327 92.2438 11.754 92.4585 11.838C92.6731 11.9127 92.8878 11.95 93.1025 11.95C93.3731 11.95 93.5831 11.8893 93.7325 11.768C93.8911 11.6467 93.9705 11.4787 93.9705 11.264C93.9705 11.0773 93.9098 10.9187 93.7885 10.788C93.6671 10.648 93.4991 10.5313 93.2845 10.438C93.0698 10.3353 92.8178 10.2327 92.5285 10.13C92.2391 10.018 91.9498 9.88733 91.6605 9.738C91.3805 9.57933 91.1471 9.374 90.9605 9.122C90.7831 8.87 90.6945 8.55267 90.6945 8.17C90.6945 7.778 90.7925 7.45133 90.9885 7.19C91.1938 6.92867 91.4645 6.73733 91.8005 6.616C92.1458 6.48533 92.5145 6.42 92.9065 6.42C93.2611 6.42 93.5925 6.47133 93.9005 6.574C94.2178 6.67667 94.5025 6.812 94.7545 6.98C95.0065 7.148 95.2211 7.33933 95.3985 7.554L94.5585 8.45C94.3438 8.198 94.0871 7.99267 93.7885 7.834C93.4898 7.67533 93.1818 7.596 92.8645 7.596C92.6498 7.596 92.4725 7.64267 92.3325 7.736C92.1925 7.82933 92.1225 7.96467 92.1225 8.142C92.1225 8.29133 92.1831 8.42667 92.3045 8.548C92.4351 8.66 92.6031 8.76267 92.8085 8.856C93.0231 8.94933 93.2611 9.04733 93.5225 9.15C93.8771 9.29 94.2038 9.444 94.5025 9.612C94.8011 9.78 95.0391 9.98533 95.2165 10.228C95.4031 10.4707 95.4965 10.788 95.4965 11.18C95.4965 11.7867 95.2865 12.2767 94.8665 12.65C94.4558 13.014 93.8958 13.196 93.1865 13.196C92.7478 13.196 92.3418 13.1307 91.9685 13C91.6045 12.86 91.2825 12.6827 91.0025 12.468C90.7318 12.244 90.5031 12.0107 90.3165 11.768L91.1985 10.886Z" fill="white"/>
</svg>
