<?xml version="1.0" encoding="UTF-8"?><svg id="Layer_1" xmlns="http://www.w3.org/2000/svg" viewBox="0 0 800 800"><path d="m778.4826,369.02527c6.97664,10.44056,10.70224,22.72175,10.70224,35.27793,0,16.84506-6.69278,32.99821-18.60141,44.91128-11.90863,11.89976-28.06179,18.59254-44.90241,18.59254-12.56061,0-24.83736-3.71673-35.28236-10.70224-10.44056-6.97664-18.57924-16.89384-23.38704-28.492-4.8078-11.60703-6.06298-24.37166-3.61472-36.69721,2.45269-12.31667,8.49793-23.63098,17.38172-32.51034,8.87936-8.87936,20.19366-14.92459,32.51477-17.38172,12.31667-2.44825,25.08574-1.19308,36.68834,3.61916,11.6026,4.80337,21.5198,12.94204,28.50088,23.3826Z"/><path d="m778.4826,690.4031c6.97664,10.44056,10.70224,22.72175,10.70224,35.27793,0,16.84506-6.69278,32.99821-18.60141,44.91128-11.90863,11.89976-28.06179,18.59254-44.90241,18.59254-12.56061,0-24.83736-3.71673-35.28236-10.70224-10.44056-6.97664-18.57924-16.89384-23.38704-28.492-4.8078-11.60703-6.06298-24.37166-3.61472-36.69721,2.45269-12.31667,8.49793-23.63098,17.38172-32.51034,8.87936-8.87936,20.19366-14.92459,32.51477-17.38172,12.31667-2.44825,25.08574-1.19308,36.68834,3.61916,11.6026,4.80337,21.5198,12.94204,28.50088,23.3826Z"/><rect x="636.782" y="10.81515" width="152.40285" height="152.40285"/><path d="m461.77915,690.4031c6.97664,10.44056,10.70224,22.72175,10.70224,35.27793,0,16.84506-6.69278,32.99821-18.60141,44.91128-11.90863,11.89976-28.06179,18.59254-44.90241,18.59254-12.56061,0-24.83736-3.71673-35.28236-10.70224-10.44056-6.97664-18.57924-16.89384-23.38704-28.492-4.8078-11.60703-6.06298-24.37166-3.61472-36.69721,2.45269-12.31667,8.49793-23.63098,17.38172-32.51034,8.87936-8.87936,20.19366-14.92459,32.51477-17.38172,12.31667-2.44825,25.08574-1.19308,36.68834,3.61916,11.6026,4.80337,21.5198,12.94204,28.50088,23.3826Z"/><rect x="332.77631" y="328.10423" width="152.40285" height="152.40285"/><rect x="328.5429" y="10.81515" width="160.86967" height="160.86967"/><rect x="11.31079" y="10.95964" width="169.3365" height="169.3365"/><rect x="10.81515" y="636.782" width="152.40285" height="152.40285"/><rect x="10.81515" y="323.87082" width="160.86967" height="160.86967"/></svg>