<svg width="40" height="41" viewBox="0 0 40 41" fill="none" xmlns="http://www.w3.org/2000/svg">
<path fill-rule="evenodd" clip-rule="evenodd" d="M18.7254 5.5C19.4952 4.16667 21.4197 4.16667 22.1895 5.5L38.644 34C39.4138 35.3333 38.4516 37 36.912 37H4.00298C2.46338 37 1.50113 35.3333 2.27093 34L18.7254 5.5ZM19.8483 25.5C19.3489 25.5 18.926 25.1315 18.8577 24.6368L17.6145 15.6368C17.5315 15.0359 17.9984 14.5 18.6051 14.5H22.3098C22.9165 14.5 23.3834 15.0359 23.3004 15.6368L22.0572 24.6368C21.9888 25.1315 21.566 25.5 21.0666 25.5H19.8483ZM20.4574 33.5C22.1143 33.5 23.4574 32.1569 23.4574 30.5C23.4574 28.8431 22.1143 27.5 20.4574 27.5C18.8006 27.5 17.4574 28.8431 17.4574 30.5C17.4574 32.1569 18.8006 33.5 20.4574 33.5Z" fill="#3E64C4"/>
</svg>
