<svg width="16" height="16" viewBox="0 0 16 16" fill="none" xmlns="http://www.w3.org/2000/svg">
<path d="M8 5.33335V8.00001L10 10M8 2C11.3333 2 14 4.79816 14 8.00001C14 11.3137 11.3137 14 8 14C6.46329 14 5.06151 13.4223 4 12.4722" stroke="#525F7F" stroke-linecap="round" stroke-linejoin="round"/>
<path d="M6.5 2.5C6.5 2.77614 6.27614 3 6 3C5.72386 3 5.5 2.77614 5.5 2.5C5.5 2.22386 5.72386 2 6 2C6.27614 2 6.5 2.22386 6.5 2.5Z" fill="#525F7F"/>
<path d="M4.5 3.50007C4.5 3.77621 4.27614 4.00007 4 4.00007C3.72386 4.00007 3.5 3.77621 3.5 3.50007C3.5 3.22392 3.72386 3.00006 4 3.00006C4.27614 3.00006 4.5 3.22392 4.5 3.50007Z" fill="#525F7F"/>
<path d="M2.5 8.00014C2.5 8.27628 2.27614 8.50014 2 8.50014C1.72386 8.50014 1.5 8.27628 1.5 8.00014C1.5 7.724 1.72386 7.50014 2 7.50014C2.27614 7.50014 2.5 7.724 2.5 8.00014Z" fill="#525F7F"/>
<path d="M3 5.5C3 5.77614 2.77614 6 2.5 6C2.22386 6 2 5.77614 2 5.5C2 5.22386 2.22386 5 2.5 5C2.77614 5 3 5.22386 3 5.5Z" fill="#525F7F"/>
<path d="M3 10.5C3 10.7761 2.77614 11 2.5 11C2.22386 11 2 10.7761 2 10.5C2 10.2239 2.22386 10 2.5 10C2.77614 10 3 10.2239 3 10.5Z" fill="#525F7F"/>
<path d="M6.5 2.5C6.5 2.77614 6.27614 3 6 3C5.72386 3 5.5 2.77614 5.5 2.5C5.5 2.22386 5.72386 2 6 2C6.27614 2 6.5 2.22386 6.5 2.5Z" fill="#525F7F"/>
</svg>
