<svg width="180" height="179" viewBox="0 0 180 179" fill="none" xmlns="http://www.w3.org/2000/svg">
<circle cx="90" cy="89.5" r="89.5" fill="#D0DEF5" fill-opacity="0.3"/>
<path d="M131.5 117.5C131.5 119.985 112.92 122 90 122C67.0802 122 48.5 119.985 48.5 117.5C48.5 115.015 67.0802 112 90 112C112.92 112 131.5 115.015 131.5 117.5Z" fill="#46ADAD"/>
<path d="M135.5 117.333C100.352 124.927 80.6462 124.76 45.5 117.333" stroke="#33A5A4" stroke-width="2" stroke-linecap="round" stroke-linejoin="round"/>
<path d="M106.5 120.5C106.5 129.613 99.1127 137 90 137C80.8873 137 73.5 129.613 73.5 120.5C73.5 111.387 72.5 108 78.5 108C84.0757 108 102.513 105.766 105.5 110C107.395 112.686 106.5 116.963 106.5 120.5Z" fill="#57B4B5"/>
<path d="M53.4027 109.372L45.5 117.333C80.6472 110.515 100.353 109.187 135.5 117.333L127.597 109.372C125.454 107.213 124.25 104.285 124.25 101.231V83.3334C124.25 68.5295 114.858 55.9355 101.75 51.268V49.3333C101.75 43.0741 96.7132 38 90.5 38C84.2868 38 79.25 43.0741 79.25 49.3333V51.268C66.1416 55.9355 56.75 68.5295 56.75 83.3334V101.231C56.75 104.285 55.546 107.213 53.4027 109.372Z" fill="#7FC5C7"/>
<path d="M107.375 113.333V119C107.375 128.389 99.8198 136 90.5 136C81.1802 136 73.625 128.389 73.625 119V113.333M135.5 117.333L127.597 109.372C125.454 107.213 124.25 104.285 124.25 101.231V83.3334C124.25 68.5295 114.858 55.9355 101.75 51.268V49.3333C101.75 43.0741 96.7132 38 90.5 38C84.2868 38 79.25 43.0741 79.25 49.3333V51.268C66.1416 55.9355 56.75 68.5295 56.75 83.3334V101.231C56.75 104.285 55.546 107.213 53.4027 109.372L45.5 117.333C80.6462 109.906 100.352 109.74 135.5 117.333Z" stroke="#33A5A4" stroke-width="2" stroke-linecap="round" stroke-linejoin="round"/>
<path d="M164.5 63C161.5 62 160 58 158.5 54C157 58 155.5 62 152.5 63C155.5 64 157 67 158.5 71.5C160 67 161.5 64 164.5 63Z" fill="white" stroke="#33A5A4"/>
<path d="M28.5 46.5C31.5 47.5 33 51.5 34.5 55.5C36 51.5 37.5 47.5 40.5 46.5C37.5 45.5 36 42.5 34.5 38C33 42.5 31.5 45.5 28.5 46.5Z" fill="white" stroke="#33A5A4"/>
<path d="M149.5 88.6571C147.5 88.0286 146.5 85.5143 145.5 83C144.5 85.5143 143.5 88.0286 141.5 88.6571C143.5 89.2857 144.5 91.1714 145.5 94C146.5 91.1714 147.5 89.2857 149.5 88.6571Z" fill="white" stroke="#33A5A4"/>
<path d="M56.5 140.843C58.5 141.471 59.5 143.986 60.5 146.5C61.5 143.986 62.5 141.471 64.5 140.843C62.5 140.214 61.5 138.329 60.5 135.5C59.5 138.329 58.5 140.214 56.5 140.843Z" fill="white" stroke="#33A5A4"/>
<path opacity="0.8" d="M59.5 105C58.066 84.5011 61.2644 60.8594 76.5 56C63.9933 65.4751 59.8123 74.5441 61 105C58.5744 108.567 56.8573 110.392 53.5 113.5C56.39 109.882 57.9226 107.872 59.5 105Z" fill="white"/>
</svg>
