<svg width="50" height="16" viewBox="0 0 50 16" fill="none" xmlns="http://www.w3.org/2000/svg">
<g clip-path="url(#clip0_2397_517)">
<path d="M0 3.49846C0.365506 3.40598 0.852185 3.30746 1.46004 3.20291C2.15302 3.09252 2.85386 3.04047 3.55534 3.04728C4.2649 3.04728 4.85447 3.14862 5.32407 3.35129C5.76527 3.53245 6.15281 3.82581 6.44919 4.20298C6.74138 4.59044 6.94493 5.03874 7.04512 5.5155C7.16436 6.07024 7.22192 6.63673 7.21675 7.20441V12.2808H5.61608V7.55185C5.62277 7.07404 5.58526 6.59665 5.50404 6.12592C5.45066 5.78376 5.3246 5.45737 5.13456 5.16928C4.96358 4.92685 4.72432 4.74228 4.44805 4.63968C4.10589 4.52058 3.7454 4.46461 3.38371 4.47441C3.21208 4.47441 3.0333 4.47441 2.85094 4.49251C2.66859 4.5106 2.49338 4.51784 2.32652 4.53594C2.15966 4.55403 2.01187 4.57333 1.88077 4.59625C1.74966 4.61918 1.65431 4.63727 1.5971 4.64813V12.2796H0V3.49846Z" fill="#162C3E"/>
<path d="M15.9483 7.75931C15.9577 8.42154 15.8533 9.08038 15.6396 9.70638C15.4499 10.2576 15.1551 10.7659 14.772 11.2023C14.4028 11.6176 13.949 11.9469 13.4418 12.1674C12.9081 12.3911 12.3361 12.5063 11.7583 12.5063C11.1806 12.5063 10.6086 12.3911 10.0748 12.1674C9.56768 11.9469 9.11386 11.6176 8.7447 11.2023C8.36106 10.7663 8.0662 10.2579 7.87702 9.70638C7.6634 9.08038 7.55895 8.42154 7.56833 7.75931C7.56049 7.10035 7.66491 6.44495 7.87702 5.82189C8.06503 5.26727 8.35996 4.75594 8.7447 4.31756C9.11386 3.90223 9.56768 3.57296 10.0748 3.35247C10.6086 3.12869 11.1806 3.01352 11.7583 3.01352C12.3361 3.01352 12.9081 3.12869 13.4418 3.35247C13.949 3.57296 14.4028 3.90223 14.772 4.31756C15.1563 4.75626 15.4512 5.26749 15.6396 5.82189C15.8518 6.44495 15.9562 7.10035 15.9483 7.75931ZM14.2797 7.75931C14.2797 6.74034 14.0533 5.93208 13.6004 5.33452C13.1475 4.73697 12.5332 4.4386 11.7577 4.4394C11.4014 4.42641 11.0473 4.50106 10.7258 4.65696C10.4042 4.81286 10.1248 5.04536 9.91154 5.33452C9.46022 5.93208 9.23416 6.74034 9.23337 7.75931C9.23257 8.77829 9.45863 9.58695 9.91154 10.1853C10.1248 10.4745 10.4042 10.707 10.7258 10.8629C11.0473 11.0188 11.4014 11.0934 11.7577 11.0804C12.5372 11.0804 13.1526 10.7821 13.6039 10.1853C14.0553 9.58856 14.2817 8.7799 14.2833 7.75931H14.2797Z" fill="#162C3E"/>
<path d="M21.3189 10.6462C21.1997 10.692 21.0007 10.7668 20.7087 10.8802C20.3337 11.003 19.9405 11.059 19.5466 11.0455C19.3022 11.05 19.0587 11.0145 18.8255 10.9405C18.623 10.8727 18.4441 10.747 18.3106 10.5786C18.1566 10.3738 18.0506 10.1361 18.0007 9.88373C17.9256 9.51517 17.8912 9.13929 17.8982 8.76302V4.59624H21.2819V3.2415H17.9006V0.0434265H16.3035V8.78474C16.2969 9.31836 16.3452 9.85124 16.4477 10.3747C16.5278 10.7939 16.701 11.1891 16.9543 11.5304C17.2025 11.8491 17.5323 12.0928 17.9078 12.2349C18.3903 12.4058 18.8998 12.4852 19.4107 12.469C19.8751 12.4761 20.338 12.4147 20.7849 12.2868C21.0726 12.207 21.3538 12.1054 21.6264 11.9828L21.3189 10.6462Z" fill="#162C3E"/>
<path d="M21.7111 13.9661C21.8695 14.0347 22.0334 14.0895 22.2009 14.1301C22.3954 14.1822 22.5957 14.2085 22.7969 14.2085C23.4262 14.2085 23.9184 14.0666 24.2736 13.7827C24.6288 13.4988 24.9494 13.0384 25.2354 12.4014C24.5147 11.0101 23.8421 9.53549 23.2176 7.97767C22.6001 6.43425 22.0825 4.85177 21.6682 3.24028H23.3856C23.512 3.76143 23.6637 4.3244 23.8409 4.92919C24.0181 5.53398 24.2168 6.15405 24.4369 6.7894C24.6538 7.42636 24.8886 8.06372 25.1413 8.70149C25.3939 9.33925 25.6573 9.95329 25.9315 10.5436C26.3661 9.32679 26.7439 8.12042 27.0649 6.92452C27.3859 5.72861 27.6891 4.50013 27.9743 3.23907H29.6239C29.2035 4.94005 28.7415 6.57748 28.2377 8.15139C27.734 9.72529 27.1901 11.1938 26.6061 12.557C26.4047 13.0254 26.1656 13.4761 25.8909 13.9045C25.6674 14.2546 25.3925 14.5683 25.0757 14.8346C24.7781 15.078 24.437 15.2611 24.071 15.3739C23.6611 15.4949 23.2357 15.5535 22.8088 15.5476C22.6765 15.5474 22.5443 15.5386 22.4131 15.5211C22.2756 15.5042 22.1409 15.4813 22.009 15.4523C21.8779 15.4221 21.7576 15.3908 21.6515 15.3558C21.5722 15.3321 21.4945 15.3031 21.4191 15.2689L21.7111 13.9661Z" fill="#162C3E"/>
<path d="M47.149 5.5179C47.0481 5.04139 46.8446 4.59325 46.5531 4.20538C46.2565 3.8282 45.869 3.53451 45.428 3.35248C44.8637 3.13338 44.2621 3.03004 43.6581 3.04848C43.3209 3.04917 42.9846 3.08148 42.6533 3.14499C42.3282 3.20581 42.0091 3.29584 41.6998 3.41401V0.0434265H40.1075V12.2796H41.7034V4.76996C41.7618 4.74704 41.8571 4.71808 41.9882 4.6831C42.1194 4.64812 42.2683 4.61675 42.4352 4.5878C42.6021 4.55885 42.7749 4.53231 42.9584 4.50938C43.1351 4.48607 43.313 4.47438 43.4912 4.4744C43.8528 4.46493 44.2131 4.52048 44.5555 4.63846C44.8318 4.74223 45.0713 4.92704 45.2432 5.16926C45.4321 5.45787 45.5577 5.78407 45.6115 6.12591C45.6916 6.59637 45.7287 7.07328 45.7224 7.55063V12.2796H47.3171V7.2044C47.3232 6.63766 47.2669 6.07199 47.149 5.5179Z" fill="#33A5A4" stroke="#33A5A4" stroke-width="0.73" stroke-miterlimit="10"/>
<path d="M35.8633 3.05814C34.3985 3.05814 33.5237 4.10164 33.5237 5.84846V11.1347C31.8634 10.8283 30.8765 9.56647 30.8765 7.72556C30.8765 5.70852 32.1327 4.60952 32.8824 4.13421L32.973 4.07631L32.246 3.01471L32.1685 3.04849C31.0243 3.53948 29.0875 5.08483 29.0875 7.76296C29.0875 10.9852 31.4558 12.3399 33.5237 12.5317V16H35.203V12.5293C37.3901 12.2736 39.5652 10.6498 39.5652 7.56029C39.57 4.77962 37.6439 3.05814 35.8633 3.05814ZM35.203 5.5915C35.203 4.86768 35.4414 4.44425 35.8633 4.44425C36.7929 4.44425 37.8323 5.79297 37.8323 7.59648C37.8323 9.51098 36.8287 10.8537 35.203 11.1372V5.5915Z" fill="url(#paint0_linear_2397_517)"/>
<path d="M32.9742 4.07631L32.8812 4.13422C32.2853 4.51422 31.3592 5.29474 31.0147 6.62174L29.5225 5.69767C30.0594 4.51853 30.9996 3.57583 32.1697 3.04367L32.2471 3.00989L32.9742 4.07631Z" fill="#162C3E"/>
<path d="M49.7187 12.2796H48.1216V3.2403H49.7187V12.2796Z" fill="#33A5A4" stroke="#33A5A4" stroke-width="0.73" stroke-miterlimit="10"/>
<path d="M48.9082 2.16421C49.4868 2.16421 49.9559 1.68946 49.9559 1.10382C49.9559 0.518181 49.4868 0.0434265 48.9082 0.0434265C48.3296 0.0434265 47.8606 0.518181 47.8606 1.10382C47.8606 1.68946 48.3296 2.16421 48.9082 2.16421Z" fill="#33A5A4" stroke="#33A5A4" stroke-width="0.73" stroke-miterlimit="10"/>
</g>
<defs>
<linearGradient id="paint0_linear_2397_517" x1="29.0875" y1="9.50736" x2="39.5652" y2="9.50736" gradientUnits="userSpaceOnUse">
<stop offset="0.08" stop-color="#162C3E"/>
<stop offset="0.14" stop-color="#173042"/>
<stop offset="0.2" stop-color="#1A3D4C"/>
<stop offset="0.27" stop-color="#1F515D"/>
<stop offset="0.33" stop-color="#266E76"/>
<stop offset="0.4" stop-color="#2F9395"/>
<stop offset="0.43" stop-color="#33A5A4"/>
</linearGradient>
<clipPath id="clip0_2397_517">
<rect width="50" height="16" fill="white"/>
</clipPath>
</defs>
</svg>
