<svg width="14" height="16" viewBox="0 0 14 16" fill="none" xmlns="http://www.w3.org/2000/svg">
<path d="M5.53125 1.5C5.4375 1.5 5.375 1.5625 5.3125 1.625L4.71875 2.5H9.25L8.65625 1.625C8.625 1.5625 8.53125 1.5 8.4375 1.5H5.53125ZM11.0625 2.5H11.4688H13H13.25C13.6562 2.5 14 2.84375 14 3.25C14 3.6875 13.6562 4 13.25 4H12.875L12.125 14.1562C12.0312 15.2188 11.1875 16 10.125 16H3.84375C2.78125 16 1.9375 15.2188 1.84375 14.1562L1.09375 4H0.75C0.3125 4 0 3.6875 0 3.25C0 2.84375 0.3125 2.5 0.75 2.5H1H2.5H2.90625L4.0625 0.78125C4.375 0.3125 4.9375 0 5.53125 0H8.4375C9.03125 0 9.59375 0.3125 9.90625 0.78125L11.0625 2.5ZM11.375 4H2.59375L3.34375 14.0625C3.375 14.3125 3.59375 14.5 3.84375 14.5H10.125C10.375 14.5 10.5938 14.3125 10.625 14.0625L11.375 4Z" fill="#FA8F6B"/>
</svg>
