<svg width="180" height="179" viewBox="0 0 180 179" fill="none" xmlns="http://www.w3.org/2000/svg">
<circle cx="90" cy="89.5" r="89.5" fill="#D0DEF5" fill-opacity="0.3"/>
<path d="M131 115.5C131 117.985 112.42 120 89.5 120C66.5802 120 48 117.985 48 115.5C48 113.015 66.5802 110 89.5 110C112.42 110 131 113.015 131 115.5Z" fill="#808DA0"/>
<path d="M135 115.333C99.8518 122.927 80.1462 122.76 45 115.333" stroke="#525F7F" stroke-width="2" stroke-linecap="round" stroke-linejoin="round"/>
<path d="M52.9027 107.372L45 115.333C80.1472 108.515 99.8529 107.187 135 115.333L127.097 107.372C124.954 105.213 123.75 102.285 123.75 99.2312V81.3334C123.75 66.5295 114.358 53.9355 101.25 49.268V47.3333C101.25 41.0741 96.2132 36 90 36C83.7868 36 78.75 41.0741 78.75 47.3333V49.268C65.6416 53.9355 56.25 66.5295 56.25 81.3334V99.2312C56.25 102.285 55.046 105.213 52.9027 107.372Z" fill="#808DA0"/>
<path d="M52.9027 107.372L45 115.333C80.1462 107.906 99.8518 107.74 135 115.333L127.097 107.372C124.954 105.213 123.75 102.285 123.75 99.2312V81.3334C123.75 66.5295 114.358 53.9355 101.25 49.268V47.3333C101.25 41.0741 96.2132 36 90 36C83.7868 36 78.75 41.0741 78.75 47.3333V49.268C65.6416 53.9355 56.25 66.5295 56.25 81.3334V99.2312C56.25 102.285 55.046 105.213 52.9027 107.372Z" stroke="#525F7F" stroke-width="2" stroke-linecap="round" stroke-linejoin="round"/>
<circle cx="78" cy="140" r="3" fill="#525F7F"/>
<circle cx="90" cy="140" r="3" fill="#525F7F"/>
<circle cx="102" cy="140" r="3" fill="#525F7F"/>
</svg>
