<?xml version="1.0" encoding="UTF-8" standalone="no"?>
<svg xmlns="http://www.w3.org/2000/svg" width="63.250889mm" height="63.250889mm" viewBox="0 0 63.250886 63.250888">
  <g fill="none" transform="scale(.6325)">
    <path fill="#2081e2" d="M100 50c0 27.6127-22.3873 50-50 50S0 77.6127 0 50 22.3873 0 50 0c27.6185 0 50 22.3873 50 50z"/>
    <path fill="#fff" d="m24.6679 51.6801.2157-.3391 13.007-20.3478c.1901-.2979.637-.2671.7808.0565 2.173 4.8699 4.048 10.9265 3.1696 14.6971-.375 1.5514-1.4024 3.6524-2.5583 5.5942-.1489.2826-.3133.56-.488.8271-.0822.1233-.2209.1952-.3699.1952H25.048c-.3596 0-.5702-.3904-.3801-.6832z"/>
    <path fill="#fff" d="M82.6444 55.461v3.2209c0 .1849-.113.3493-.2774.4212-1.0068.4315-4.4538 2.0137-5.887 4.0069-3.6576 5.0908-6.4521 12.37-12.6988 12.37H37.721C28.4847 75.48 21 67.9697 21 58.7024v-.2979c0-.2466.2003-.4469.4469-.4469h14.5276c.2876 0 .4982.2671.4726.5496-.1028.9452.0719 1.911.5188 2.7894.863 1.7518 2.6507 2.846 4.5822 2.846H48.74v-5.6148h-7.1097c-.3647 0-.5804-.4213-.3698-.7192.077-.1182.1644-.2414.2568-.3801.673-.9555 1.6336-2.4401 2.5891-4.1302.6524-1.1404 1.2842-2.3579 1.7928-3.5805.1028-.2209.1849-.447.2671-.6679.1387-.3904.2826-.7551.3853-1.1198.1028-.3083.1849-.6319.2671-.935.2415-1.0377.3442-2.137.3442-3.2774 0-.4469-.0205-.9144-.0616-1.3613-.0206-.488-.0822-.9761-.1439-1.4641-.0411-.4315-.1181-.8579-.2003-1.3048-.1027-.6524-.2466-1.2996-.411-1.9521l-.0565-.2465c-.1233-.447-.226-.8733-.3698-1.3202-.4059-1.4025-.8733-2.7689-1.3665-4.048-.1798-.5086-.3853-.9966-.5908-1.4846-.303-.7346-.6113-1.4024-.8938-2.0343-.1438-.2877-.2671-.5497-.3904-.8168-.1387-.3031-.2825-.6062-.4264-.8938-.1027-.2209-.2209-.4264-.3031-.6319l-.8784-1.6233c-.1233-.2209.0822-.4829.3236-.4161l5.4967 1.4897h.0154c.0102 0 .0154.0052.0205.0052l.7243.2003.7963.2261.2928.0821v-3.2671C48.74 21.2791 50.0037 20 51.5654 20c.7808 0 1.4897.3185 1.9983.8373.5085.5189.827 1.2278.827 2.0189v4.8494l.5857.1643c.0462.0155.0924.036.1335.0668.1439.1079.3493.2671.6113.4624.2055.1643.4264.3647.6935.5702.5291.4263 1.161.976 1.8545 1.6079.1849.1592.3647.3236.5291.488.8939.8322 1.8956 1.8082 2.8511 2.887.2671.3031.5291.6113.7962.9349.2671.3288.5497.6524.7962.9761.3237.4315.673.8784.9761 1.3459.1438.2209.3082.4469.4469.6678.3904.5907.7346 1.2021 1.0634 1.8134.1387.2825.2825.5907.4058.8938.3647.8168.6524 1.649.8373 2.4812.0565.1798.0976.375.1182.5497v.0411c.0616.2465.0822.5085.1027.7756.0822.8528.0411 1.7055-.1438 2.5634-.0771.3648-.1798.7089-.3031 1.0737-.1233.3493-.2466.714-.4058 1.0582-.3082.714-.673 1.4281-1.1045 2.0959-.1387.2466-.3031.5086-.4675.7552-.1798.2619-.3647.5085-.5291.75-.226.3082-.4674.6318-.714.9195-.2209.3031-.4469.6062-.6935.8733-.3442.4058-.673.7911-1.0172 1.161-.2054.2414-.4263.488-.6524.7089-.2208.2465-.4469.4674-.6524.6729-.3441.3442-.6318.6113-.8733.8322l-.565.5189c-.0822.0719-.1901.113-.3031.113h-4.3768v5.6148h5.5069c1.2329 0 2.4042-.4367 3.3494-1.2381.3236-.2825 1.7363-1.5051 3.4058-3.3493.0565-.0617.1285-.1079.2107-.1284l15.2107-4.3973c.2826-.0822.5702.1335.5702.4315z"/>
  </g>
</svg>