<svg width="20" height="20" viewBox="0 0 20 20" fill="none" xmlns="http://www.w3.org/2000/svg">
<rect x="1" y="1" width="18" height="18" rx="4" fill="#7B87A8"/>
<path d="M12.558 6.68945V7.52279C12.558 7.95063 12.9052 8.29779 13.333 8.29779C13.7609 8.29779 14.108 7.95063 14.108 7.52279V6.68945C14.108 6.26161 13.7609 5.91445 13.333 5.91445C12.9052 5.91445 12.558 6.26161 12.558 6.68945Z" fill="#1D1C37" stroke="#1D1C37" stroke-width="0.3"/>
<path d="M5.8915 6.68945V7.52279C5.8915 7.95063 6.23866 8.29779 6.6665 8.29779C7.09435 8.29779 7.4415 7.95063 7.4415 7.52279V6.68945C7.4415 6.26161 7.09435 5.91445 6.6665 5.91445C6.23866 5.91445 5.8915 6.26161 5.8915 6.68945Z" fill="#1D1C37" stroke="#1D1C37" stroke-width="0.3"/>
<path d="M9.45214 11.9484C9.75405 12.2512 10.2458 12.2512 10.5477 11.9484L10.5477 11.9485L10.4416 11.8424L10.5479 11.9483L9.55829 11.8424M9.45214 11.9484C9.45217 11.9484 9.4522 11.9484 9.45223 11.9485L9.55829 11.8424M9.45214 11.9484C9.45211 11.9483 9.45208 11.9483 9.45205 11.9483L9.55829 11.8424M9.45214 11.9484C9.14948 11.6456 9.14951 11.1549 9.45223 10.8522L9.92397 10.3804M9.55829 11.8424C9.31413 11.5982 9.31413 11.2024 9.55829 10.9582L10.1 10.4166M9.92397 10.3804L9.96068 10.4723L10.1 10.4166M9.92397 10.3804L9.28074 8.77157M9.92397 10.3804L9.99389 10.3105L10.1 10.4166M10.1 10.4166L9.41996 8.71574C9.29163 8.39574 9.44746 8.03157 9.76746 7.90324L9.28074 8.77157M9.28074 8.77157L9.41996 8.71574L9.28068 8.77142L9.28071 8.7715C9.28072 8.77152 9.28073 8.77155 9.28074 8.77157ZM9.71175 7.76397L9.71163 7.76402L10.7193 8.19605L10.58 8.25157L10.7192 8.19586L10.7193 8.19597C10.561 7.79895 10.1095 7.60487 9.71175 7.76397ZM11.5525 10.279L11.4133 10.3349L11.5526 10.2792L11.5525 10.2791C11.5525 10.2791 11.5525 10.2791 11.5525 10.279Z" fill="#1D1C37" stroke="#1D1C37" stroke-width="0.3"/>
<path d="M6.69873 14.9906L6.69878 14.9906L7.13461 15.2398L7.13463 15.2398C8.90991 16.2545 11.0899 16.2545 12.8652 15.2398L12.8652 15.2398L13.301 14.9906L13.3011 14.9906C13.6728 14.7779 13.8021 14.3047 13.5893 13.9327C13.3773 13.5615 12.9032 13.4324 12.5322 13.6443L12.5321 13.6443L12.0963 13.8935L12.0963 13.8935C10.7974 14.6363 9.20239 14.6363 7.90352 13.8935L7.90351 13.8935L7.46767 13.6443L7.46761 13.6443C7.0966 13.4324 6.62244 13.5615 6.41047 13.9327L6.54072 14.007L6.41053 13.9326C6.19766 14.3046 6.32694 14.7778 6.69873 14.9906Z" fill="#1D1C37" stroke="#1D1C37" stroke-width="0.3"/>
</svg>
