<svg width="20" height="20" viewBox="0 0 20 20" fill="none" xmlns="http://www.w3.org/2000/svg">
<path fill-rule="evenodd" clip-rule="evenodd" d="M2.94 6.4124C2.65235 6.59219 2.41515 6.84218 2.25071 7.13886C2.08627 7.43555 2 7.76919 2 8.1084V16.0004C2 16.5308 2.21071 17.0395 2.58579 17.4146C2.96086 17.7897 3.46957 18.0004 4 18.0004H16C16.5304 18.0004 17.0391 17.7897 17.4142 17.4146C17.7893 17.0395 18 16.5308 18 16.0004V8.1084C18 7.76919 17.9137 7.43555 17.7493 7.13886C17.5848 6.84218 17.3476 6.59219 17.06 6.4124L11.06 2.6624C10.7421 2.46374 10.3748 2.3584 10 2.3584C9.62516 2.3584 9.25786 2.46374 8.94 2.6624L2.94 6.4124ZM5.555 8.8354C5.44574 8.76252 5.32319 8.71187 5.19436 8.68635C5.06553 8.66082 4.93293 8.66092 4.80413 8.68665C4.67534 8.71237 4.55287 8.76321 4.44372 8.83626C4.33457 8.90931 4.24088 9.00314 4.168 9.1124C4.09512 9.22166 4.04447 9.34421 4.01894 9.47304C3.99342 9.60188 3.99352 9.73448 4.01924 9.86327C4.07119 10.1234 4.22434 10.3522 4.445 10.4994L9.445 13.8324C9.60933 13.942 9.80245 14.0006 10 14.0006C10.1975 14.0006 10.3907 13.942 10.555 13.8324L15.555 10.4994C15.7757 10.3522 15.9288 10.1234 15.9808 9.86327C16.0327 9.60316 15.9792 9.33306 15.832 9.1124C15.6848 8.89174 15.456 8.73859 15.1959 8.68665C14.9358 8.6347 14.6657 8.68821 14.445 8.8354L10 11.7984L5.555 8.8354Z" fill="#7B87A8"/>
</svg>
