<svg width="17" height="17" viewBox="0 0 17 17" fill="none" xmlns="http://www.w3.org/2000/svg">
<path d="M14.4268 2.46458C12.8369 0.880208 10.7171 0 8.47944 0C3.82752 0 0.0588841 3.75556 0.0588841 8.39132C0.0588841 9.85833 0.47108 11.3253 1.1777 12.5576L0 16.9L4.47526 15.7264C5.71185 16.3719 7.0662 16.724 8.47944 16.724C13.1314 16.724 16.9 12.9684 16.9 8.33264C16.8411 6.16146 16.0167 4.04896 14.4268 2.46458ZM12.5425 11.384C12.3659 11.8535 11.5415 12.3229 11.1293 12.3816C10.776 12.4403 10.3049 12.4403 9.8338 12.3229C9.53937 12.2056 9.12718 12.0882 8.6561 11.8535C6.53624 10.9733 5.18188 8.86076 5.06411 8.68472C4.94634 8.56736 4.18084 7.56979 4.18084 6.51354C4.18084 5.45729 4.7108 4.98785 4.88746 4.75312C5.06411 4.5184 5.29965 4.5184 5.47631 4.5184C5.59408 4.5184 5.77073 4.5184 5.8885 4.5184C6.00627 4.5184 6.18293 4.45972 6.35958 4.87049C6.53624 5.28125 6.94843 6.3375 7.00732 6.39618C7.0662 6.51354 7.0662 6.6309 7.00732 6.74826C6.94843 6.86563 6.88954 6.98299 6.77178 7.10035C6.65401 7.21771 6.53623 7.39375 6.47735 7.45243C6.35958 7.56979 6.24181 7.68715 6.35958 7.86319C6.47735 8.09792 6.88955 8.7434 7.53728 9.33021C8.36167 10.0344 9.00941 10.2691 9.24495 10.3865C9.48049 10.5038 9.59826 10.4451 9.71603 10.3278C9.8338 10.2104 10.246 9.74097 10.3638 9.50625C10.4815 9.27153 10.6582 9.33021 10.8348 9.38889C11.0115 9.44757 12.0714 9.9757 12.2481 10.0931C12.4836 10.2104 12.6014 10.2691 12.6603 10.3278C12.7192 10.5038 12.7192 10.9146 12.5425 11.384Z" fill="#7B87A8"/>
</svg>
