<svg width="20" height="20" viewBox="0 0 20 20" fill="none" xmlns="http://www.w3.org/2000/svg">
<path d="M15.0001 8C15.6092 8.00002 16.2039 7.8146 16.7051 7.4684C17.2064 7.1222 17.5903 6.63162 17.8059 6.06191C18.0215 5.49219 18.0586 4.87034 17.9122 4.27904C17.7658 3.68774 17.4429 3.15501 16.9864 2.7517C16.5299 2.34839 15.9614 2.09362 15.3565 2.02125C14.7517 1.94888 14.1392 2.06235 13.6004 2.34658C13.0616 2.6308 12.6221 3.0723 12.3404 3.61238C12.0586 4.15245 11.9479 4.7655 12.0231 5.37L7.08305 7.84C6.65928 7.43136 6.12465 7.15642 5.54574 7.04945C4.96684 6.94247 4.36926 7.00819 3.82744 7.2384C3.28561 7.46862 2.8235 7.85317 2.49866 8.34414C2.17382 8.83511 2.00061 9.4108 2.00061 9.9995C2.00061 10.5882 2.17382 11.1639 2.49866 11.6549C2.8235 12.1458 3.28561 12.5304 3.82744 12.7606C4.36926 12.9908 4.96684 13.0565 5.54574 12.9496C6.12465 12.8426 6.65928 12.5676 7.08305 12.159L12.0231 14.629C11.9355 15.3312 12.0991 16.0418 12.4848 16.6351C12.8706 17.2284 13.4536 17.6663 14.1309 17.8713C14.8082 18.0763 15.5362 18.0353 16.1862 17.7555C16.8362 17.4757 17.3664 16.9751 17.683 16.3422C17.9996 15.7093 18.0823 14.9849 17.9165 14.2969C17.7506 13.6089 17.3469 13.0017 16.7767 12.5826C16.2065 12.1635 15.5065 11.9595 14.8004 12.0066C14.0943 12.0537 13.4276 12.3489 12.9181 12.84L7.97805 10.37C8.00832 10.1243 8.00832 9.87574 7.97805 9.63L12.9181 7.16C13.4561 7.68 14.1901 8 15.0001 8Z" fill="#7B87A8"/>
</svg>
