<svg width="120" height="120" viewBox="0 0 120 120" fill="none" xmlns="http://www.w3.org/2000/svg">
<circle cx="60" cy="60" r="60" fill="#D0DEF5"/>
<path d="M79.7917 91.1668H99.5833V83.2502C99.5833 76.6918 94.2667 71.3752 87.7083 71.3752C83.9257 71.3752 80.5562 73.1437 78.3815 75.8991M79.7917 91.1668H40.2083M79.7917 91.1668V83.2502C79.7917 80.6525 79.2912 78.1718 78.3815 75.8991M40.2083 91.1668H20.4167V83.2502C20.4167 76.6918 25.7333 71.3752 32.2917 71.3752C36.0743 71.3752 39.4438 73.1437 41.6185 75.8991M40.2083 91.1668V83.2502C40.2083 80.6525 40.7088 78.1718 41.6185 75.8991M41.6185 75.8991C44.5368 68.6084 51.667 63.4585 60 63.4585C68.333 63.4585 75.4632 68.6084 78.3815 75.8991M71.875 39.7085C71.875 46.2669 66.5584 51.5835 60 51.5835C53.4416 51.5835 48.125 46.2669 48.125 39.7085C48.125 33.1501 53.4416 27.8335 60 27.8335C66.5584 27.8335 71.875 33.1501 71.875 39.7085ZM95.625 51.5835C95.625 55.9558 92.0806 59.5002 87.7083 59.5002C83.3361 59.5002 79.7917 55.9558 79.7917 51.5835C79.7917 47.2112 83.3361 43.6668 87.7083 43.6668C92.0806 43.6668 95.625 47.2112 95.625 51.5835ZM40.2083 51.5835C40.2083 55.9558 36.6639 59.5002 32.2917 59.5002C27.9194 59.5002 24.375 55.9558 24.375 51.5835C24.375 47.2112 27.9194 43.6668 32.2917 43.6668C36.6639 43.6668 40.2083 47.2112 40.2083 51.5835Z" stroke="white" stroke-width="6" stroke-linecap="round" stroke-linejoin="round"/>
</svg>
