<?xml version="1.0" encoding="UTF-8" standalone="no"?>
<!DOCTYPE svg PUBLIC "-//W3C//DTD SVG 1.1//EN" "http://www.w3.org/Graphics/SVG/1.1/DTD/svg11.dtd">
<svg width="100%" height="100%" viewBox="0 0 256 309" version="1.1" xmlns="http://www.w3.org/2000/svg" xmlns:xlink="http://www.w3.org/1999/xlink" xml:space="preserve" xmlns:serif="http://www.serif.com/" style="fill-rule:evenodd;clip-rule:evenodd;stroke-linejoin:round;stroke-miterlimit:2;">
    <g transform="matrix(1,0,0,1,-2558,-482)">
        <g id="logo-200-alt" transform="matrix(0.65306,0,0,0.594785,886.82,195.175)">
            <rect x="2559" y="482.233" width="392.001" height="519.515" style="fill:none;"/>
            <clipPath id="_clip1">
                <rect x="2559" y="482.233" width="392.001" height="519.515"/>
            </clipPath>
            <g clip-path="url(#_clip1)">
                <g transform="matrix(0.909798,0,0,0.998936,2559,482.233)">
                    <rect x="0" y="0" width="430.866" height="521.575" style="fill:rgb(30,40,68);"/>
                </g>
                <g transform="matrix(0,0.998936,0.909798,0,2812.63,922.885)">
                    <path d="M3.164,-3.164C1.406,-3.164 -0,-1.828 -0,0C-0,1.758 1.406,3.164 3.164,3.164C4.922,3.164 6.328,1.758 6.328,0C6.328,-1.828 4.922,-3.164 3.164,-3.164" style="fill:white;fill-rule:nonzero;"/>
                </g>
                <g transform="matrix(0,0.998936,0.909798,0,2876.19,876.821)">
                    <path d="M3.125,-3.204C1.463,-3.204 0.039,-1.78 0.039,-0.039C0.039,1.7 1.463,3.125 3.125,3.125C4.866,3.125 6.29,1.7 6.29,-0.039C6.29,-1.78 4.866,-3.204 3.125,-3.204" style="fill:white;fill-rule:nonzero;"/>
                </g>
                <g transform="matrix(0.909798,0,0,0.998936,2640.03,914.318)">
                    <path d="M0,-24.052L0,-22.245L10.833,-22.245L10.833,-18.61L0,-18.61L0,14.104L-3.708,14.104L-3.708,-18.61L-9.96,-18.61L-9.96,-22.245L-3.708,-22.245L-3.708,-24.052C-3.708,-32.995 1.309,-38.156 10.833,-37.43L10.833,-33.94C3.417,-34.522 0,-31.105 0,-24.052" style="fill:white;fill-rule:nonzero;"/>
                </g>
                <g transform="matrix(0.909798,0,0,0.998936,2658.86,911.92)">
                    <path d="M0,-3.342L29.227,-3.342C28.427,-12.212 22.174,-17.155 15.049,-17.155C6.762,-17.155 0.727,-11.412 0,-3.342M33.006,-1.525C33.006,-0.944 32.934,-0.362 32.934,0.221L0,0.221C0.873,8.435 7.125,13.816 15.414,13.816C21.374,13.816 25.882,11.053 27.99,7.199L31.19,9.09C28.209,14.034 22.537,17.304 15.34,17.304C4.145,17.304 -3.781,9.307 -3.781,-1.67C-3.781,-12.358 3.925,-20.646 15.049,-20.646C26.1,-20.646 33.006,-11.485 33.006,-1.525" style="fill:white;fill-rule:nonzero;"/>
                </g>
                <g transform="matrix(0.909798,0,0,0.998936,2707.58,911.387)">
                    <path d="M0,-15.675L0,8.274C0,14.672 3.417,14.817 10.833,14.163L10.833,17.433C1.309,18.888 -3.708,16.561 -3.708,8.274L-3.708,-15.675L-11.706,-15.675L-11.706,-19.311L-3.708,-19.311L-3.708,-30.824L0,-34.563L0,-19.311L10.833,-19.311L10.833,-15.675L0,-15.675Z" style="fill:white;fill-rule:nonzero;"/>
                </g>
                <g transform="matrix(0.909798,0,0,0.998936,2726.01,910.251)">
                    <path d="M0,0.001C0,-10.759 8.143,-18.975 19.121,-18.975C26.246,-18.975 32.353,-15.339 34.971,-9.668L31.99,-7.924C29.881,-12.504 24.937,-15.484 19.121,-15.484C10.324,-15.484 3.708,-8.65 3.708,0.001C3.708,8.652 10.324,15.487 19.121,15.487C25.01,15.487 29.808,12.433 32.208,7.926L35.261,9.743C32.353,15.341 26.246,18.976 19.121,18.976C8.143,18.976 0,10.761 0,0.001" style="fill:white;fill-rule:nonzero;"/>
                </g>
                <g transform="matrix(0.909798,0,0,0.998936,2798.22,899.446)">
                    <path d="M0,6.383L0,28.992L-3.707,28.992L-3.707,6.383C-3.707,-0.306 -7.56,-4.668 -14.396,-4.668C-21.519,-4.668 -27.117,-0.014 -27.117,9.8L-27.117,28.992L-30.753,28.992L-30.753,-18.871L-27.117,-22.609L-27.117,-0.451C-24.355,-5.831 -19.702,-8.158 -14.104,-8.158C-5.452,-8.158 0,-2.414 0,6.383" style="fill:white;fill-rule:nonzero;"/>
                </g>
                <g transform="matrix(0.909798,0,0,0.998936,2856.07,910.251)">
                    <path d="M0,0.001C0,-8.65 -6.688,-15.484 -15.34,-15.484C-23.991,-15.484 -30.753,-8.65 -30.753,0.001C-30.753,8.652 -23.991,15.487 -15.34,15.487C-6.688,15.487 0,8.652 0,0.001M3.707,-18.175L3.707,18.176L0,18.176L0,9.961C-3.053,15.414 -8.651,18.976 -15.631,18.976C-25.954,18.976 -34.461,10.761 -34.461,0.001C-34.461,-10.759 -25.954,-18.975 -15.631,-18.975C-8.651,-18.975 -3.053,-15.412 0,-9.96L0,-18.175L3.707,-18.175Z" style="fill:white;fill-rule:nonzero;"/>
                </g>
                <g transform="matrix(0.909798,0,0,0.998936,2559,817.251)">
                    <rect x="346.783" y="74.925" width="3.636" height="36.35" style="fill:white;"/>
                </g>
                <g transform="matrix(-0.909798,0,0,0.998936,2724.37,142.781)">
                    <rect x="73.701" y="413.515" width="34.359" height="34.359" style="fill:white;"/>
                </g>
                <g transform="matrix(-0.909798,0,0,0.998936,2880.66,142.781)">
                    <rect x="159.599" y="413.515" width="34.359" height="34.359" style="fill:white;"/>
                </g>
                <g transform="matrix(-0.909798,0,0,0.998936,3036.96,142.781)">
                    <rect x="245.497" y="413.515" width="34.359" height="34.359" style="fill:white;"/>
                </g>
                <g transform="matrix(-0.909798,0,0,0.998936,2724.37,314.396)">
                    <rect x="73.701" y="327.616" width="34.359" height="34.359" style="fill:white;"/>
                </g>
                <g transform="matrix(-0.909798,0,0,0.998936,2880.66,314.396)">
                    <rect x="159.599" y="327.616" width="34.359" height="34.359" style="fill:white;"/>
                </g>
                <g transform="matrix(-0.909798,0,0,0.998936,2724.37,486.009)">
                    <rect x="73.701" y="241.718" width="34.359" height="34.359" style="fill:white;"/>
                </g>
                <g transform="matrix(0,-0.998936,-0.909798,0,2876.13,564.436)">
                    <path d="M-8.59,-8.59C-13.334,-8.59 -17.18,-4.744 -17.18,0C-17.18,4.744 -13.334,8.59 -8.59,8.59C-3.846,8.59 0,4.744 0,0C0,-4.744 -3.846,-8.59 -8.59,-8.59" style="fill:white;fill-rule:nonzero;"/>
                </g>
                <g transform="matrix(0,-0.998936,-0.909798,0,2876.13,650.243)">
                    <path d="M-8.59,-8.59C-13.334,-8.59 -17.18,-4.744 -17.18,0C-17.18,4.744 -13.334,8.59 -8.59,8.59C-3.846,8.59 0,4.744 0,0C0,-4.744 -3.846,-8.59 -8.59,-8.59" style="fill:white;fill-rule:nonzero;"/>
                </g>
                <g transform="matrix(0,-0.998936,-0.909798,0,2876.13,736.05)">
                    <path d="M-8.59,-8.59C-13.334,-8.59 -17.18,-4.744 -17.18,-0C-17.18,4.744 -13.334,8.59 -8.59,8.59C-3.846,8.59 -0.001,4.744 -0.001,-0C-0.001,-4.744 -3.846,-8.59 -8.59,-8.59" style="fill:white;fill-rule:nonzero;"/>
                </g>
                <g transform="matrix(0,-0.998936,-0.909798,0,2876.13,821.857)">
                    <path d="M-8.59,-8.59C-13.334,-8.59 -17.18,-4.744 -17.18,0C-17.18,4.744 -13.334,8.59 -8.59,8.59C-3.846,8.59 0,4.744 0,0C0,-4.744 -3.846,-8.59 -8.59,-8.59" style="fill:white;fill-rule:nonzero;"/>
                </g>
                <g transform="matrix(0,-0.998936,-0.909798,0,2797.98,650.243)">
                    <path d="M-8.59,-8.59C-13.334,-8.59 -17.18,-4.744 -17.18,0C-17.18,4.743 -13.334,8.59 -8.59,8.59C-3.846,8.59 0,4.743 0,0C0,-4.744 -3.846,-8.59 -8.59,-8.59" style="fill:white;fill-rule:nonzero;"/>
                </g>
                <g transform="matrix(0,-0.998936,-0.909798,0,2797.98,736.05)">
                    <path d="M-8.59,-8.59C-13.334,-8.59 -17.18,-4.744 -17.18,-0C-17.18,4.743 -13.334,8.59 -8.59,8.59C-3.846,8.59 -0.001,4.743 -0.001,-0C-0.001,-4.744 -3.846,-8.59 -8.59,-8.59" style="fill:white;fill-rule:nonzero;"/>
                </g>
                <g transform="matrix(0,-0.998936,-0.909798,0,2797.98,821.857)">
                    <path d="M-8.59,-8.59C-13.334,-8.59 -17.18,-4.744 -17.18,0C-17.18,4.743 -13.334,8.59 -8.59,8.59C-3.846,8.59 0,4.743 0,0C0,-4.744 -3.846,-8.59 -8.59,-8.59" style="fill:white;fill-rule:nonzero;"/>
                </g>
                <g transform="matrix(0,-0.998936,-0.909798,0,2719.83,736.05)">
                    <path d="M-8.59,-8.59C-13.334,-8.59 -17.18,-4.744 -17.18,-0C-17.18,4.744 -13.334,8.59 -8.59,8.59C-3.846,8.59 -0.001,4.744 -0.001,-0C-0.001,-4.744 -3.846,-8.59 -8.59,-8.59" style="fill:white;fill-rule:nonzero;"/>
                </g>
                <g transform="matrix(0,-0.998936,-0.909798,0,2719.83,821.857)">
                    <path d="M-8.59,-8.59C-13.334,-8.59 -17.18,-4.744 -17.18,0C-17.18,4.744 -13.334,8.59 -8.59,8.59C-3.846,8.59 0,4.744 0,0C0,-4.744 -3.846,-8.59 -8.59,-8.59" style="fill:white;fill-rule:nonzero;"/>
                </g>
                <g transform="matrix(0,-0.998936,-0.909798,0,2641.68,821.857)">
                    <path d="M-8.59,-8.59C-13.334,-8.59 -17.18,-4.744 -17.18,0C-17.18,4.744 -13.334,8.59 -8.59,8.59C-3.846,8.59 0,4.744 0,0C0,-4.744 -3.846,-8.59 -8.59,-8.59" style="fill:white;fill-rule:nonzero;"/>
                </g>
            </g>
        </g>
    </g>
</svg>
