<svg xmlns="http://www.w3.org/2000/svg" width="179" height="179" viewBox="0 0 179 179">
  <defs>
    <style>
      .cls-1 {
        fill: #fff;
        stroke: #707070;
      }

      .cls-2 {
        fill: #437dff;
      }

      .cls-3 {
        stroke: none;
      }

      .cls-4 {
        fill: none;
      }
    </style>
  </defs>
  <g id="Group_54" data-name="Group 54" transform="translate(-871.001 -355)">
    <g id="Rectangle_45" data-name="Rectangle 45" class="cls-1" transform="translate(899 410)">
      <rect class="cls-3" width="130" height="70"/>
      <rect class="cls-4" x="0.5" y="0.5" width="129" height="69"/>
    </g>
    <path id="Subtraction_3" data-name="Subtraction 3" class="cls-2" d="M12217.5-1620a90.155,90.155,0,0,1-18.037-1.818,89.027,89.027,0,0,1-16.8-5.215,89.5,89.5,0,0,1-15.2-8.252,90.216,90.216,0,0,1-13.246-10.928,90.175,90.175,0,0,1-10.928-13.246,89.533,89.533,0,0,1-8.252-15.2,89.067,89.067,0,0,1-5.215-16.8A90.1,90.1,0,0,1,12128-1709.5a90.087,90.087,0,0,1,1.818-18.037,89.076,89.076,0,0,1,5.215-16.8,89.509,89.509,0,0,1,8.252-15.2,90.165,90.165,0,0,1,10.928-13.246,90.218,90.218,0,0,1,13.246-10.929,89.5,89.5,0,0,1,15.2-8.252,89.028,89.028,0,0,1,16.8-5.215A90.148,90.148,0,0,1,12217.5-1799a90.162,90.162,0,0,1,18.037,1.818,89,89,0,0,1,16.8,5.215,89.523,89.523,0,0,1,15.2,8.252,90.218,90.218,0,0,1,13.246,10.929,90.242,90.242,0,0,1,10.929,13.246,89.536,89.536,0,0,1,8.252,15.2,89.073,89.073,0,0,1,5.215,16.8A90.089,90.089,0,0,1,12307-1709.5a90.1,90.1,0,0,1-1.818,18.038,89.072,89.072,0,0,1-5.215,16.8,89.533,89.533,0,0,1-8.252,15.2,90.259,90.259,0,0,1-10.929,13.246,90.216,90.216,0,0,1-13.246,10.928,89.5,89.5,0,0,1-15.2,8.252,89.008,89.008,0,0,1-16.8,5.215A90.169,90.169,0,0,1,12217.5-1620Zm11.02-71.156c1.921,3.627,5.608,5.624,10.385,5.624a14.5,14.5,0,0,0,6.114-1.311,14.37,14.37,0,0,0,4.957-3.8c2.97-3.5,4.539-8.429,4.539-14.254s-1.569-10.755-4.539-14.254a14.37,14.37,0,0,0-4.957-3.8,14.5,14.5,0,0,0-6.114-1.311c-4.775,0-8.464,2-10.387,5.627v-16.95h-14.872V-1686h14.872v-5.157Zm-44.556-43.084a24.61,24.61,0,0,0-17.277,6.809,23.142,23.142,0,0,0-5.251,7.691,25.169,25.169,0,0,0-1.928,9.82,25.248,25.248,0,0,0,1.928,9.832,23.278,23.278,0,0,0,5.251,7.714,24.559,24.559,0,0,0,17.277,6.842,24.351,24.351,0,0,0,17.185-6.842,23.271,23.271,0,0,0,5.22-7.714,25.4,25.4,0,0,0,1.915-9.832,25.49,25.49,0,0,0-1.9-9.82,23.05,23.05,0,0,0-5.188-7.691A24.4,24.4,0,0,0,12183.965-1734.24Zm75.242,10.452V-1686h14.872v-37.79Zm7.5-17.754a9.157,9.157,0,0,0-6.273,2.161,7.013,7.013,0,0,0-2.3,5.277,6.828,6.828,0,0,0,2.3,5.183,9.267,9.267,0,0,0,6.273,2.118,9.146,9.146,0,0,0,6.214-2.118,6.846,6.846,0,0,0,2.295-5.183,7.032,7.032,0,0,0-2.295-5.277A9.038,9.038,0,0,0,12266.71-1741.542Zm-32.762,43.013a5.148,5.148,0,0,1-3.9-1.625,6.847,6.847,0,0,1-1.592-4.741,6.843,6.843,0,0,1,1.592-4.739,5.153,5.153,0,0,1,3.9-1.623,5.153,5.153,0,0,1,3.9,1.623,6.843,6.843,0,0,1,1.592,4.739,6.847,6.847,0,0,1-1.592,4.741A5.148,5.148,0,0,1,12233.948-1698.529Zm-49.983-.871a10.227,10.227,0,0,1-4.027-.758,7.808,7.808,0,0,1-2.916-2.14,11.6,11.6,0,0,1-2.369-7.623,11.737,11.737,0,0,1,2.369-7.7,7.746,7.746,0,0,1,2.916-2.131,10.3,10.3,0,0,1,4.027-.75c5.79,0,9.247,3.957,9.247,10.585a11.591,11.591,0,0,1-2.387,7.623A8.666,8.666,0,0,1,12183.965-1699.4Z" transform="translate(-11257 2154)"/>
  </g>
</svg>
