<svg width="286" height="186" viewBox="0 0 286 186" fill="none" xmlns="http://www.w3.org/2000/svg">
<g filter="url(#filter0_bi_1657_2481)">
<rect x="0.00585938" y="-0.00195312" width="285.988" height="186" rx="12.9017" fill="white" fill-opacity="0.08"/>
<rect x="0.505859" y="0.498047" width="284.988" height="185" rx="12.4017" stroke="url(#paint0_linear_1657_2481)" stroke-opacity="0.4"/>
</g>
<mask id="mask0_1657_2481" style="mask-type:alpha" maskUnits="userSpaceOnUse" x="0" y="-1" width="286" height="187">
<rect x="0.00585938" y="-0.00195312" width="285.988" height="186" rx="12.9017" fill="white" fill-opacity="0.08"/>
<rect x="0.505859" y="0.498047" width="284.988" height="185" rx="12.4017" stroke="url(#paint1_linear_1657_2481)" stroke-opacity="0.4"/>
</mask>
<g mask="url(#mask0_1657_2481)">
</g>
<g clip-path="url(#clip0_1657_2481)">
<path opacity="0.5" d="M136.043 11.3721C135.842 11.3721 135.679 11.535 135.679 11.7361V13.1921H134.223C134.022 13.1921 133.859 13.355 133.859 13.5561C133.859 13.7571 134.022 13.9201 134.223 13.9201H135.679V15.376C135.679 15.5771 135.842 15.74 136.043 15.74C136.245 15.74 136.407 15.5771 136.407 15.376V13.9201H137.864C138.065 13.9201 138.228 13.7571 138.228 13.5561C138.228 13.355 138.065 13.1921 137.864 13.1921H136.407V11.7361C136.407 11.535 136.245 11.3721 136.043 11.3721Z" fill="#BEC1C5"/>
<path opacity="0.2" d="M14.2986 12.4643C14.2986 13.6203 13.3615 14.5574 12.2055 14.5574C11.0496 14.5574 10.1125 13.6203 10.1125 12.4643C10.1125 11.3084 11.0496 10.3713 12.2055 10.3713C13.3615 10.3713 14.2986 11.3084 14.2986 12.4643Z" fill="white" stroke="white" stroke-width="0.182004"/>
<path opacity="0.2" d="M21.5779 12.4643C21.5779 13.6203 20.6408 14.5574 19.4848 14.5574C18.3289 14.5574 17.3918 13.6203 17.3918 12.4643C17.3918 11.3084 18.3289 10.3713 19.4848 10.3713C20.6408 10.3713 21.5779 11.3084 21.5779 12.4643Z" fill="white" stroke="white" stroke-width="0.182004"/>
<path opacity="0.2" d="M28.8591 12.4643C28.8591 13.6203 27.922 14.5574 26.7661 14.5574C25.6101 14.5574 24.673 13.6203 24.673 12.4643C24.673 11.3084 25.6101 10.3713 26.7661 10.3713C27.922 10.3713 28.8591 11.3084 28.8591 12.4643Z" fill="white" stroke="white" stroke-width="0.182004"/>
<path opacity="0.1" fill-rule="evenodd" clip-rule="evenodd" d="M43.5744 7.37305C41.9661 7.37305 40.6623 8.67682 40.6623 10.2851V16.625C40.6674 16.6953 40.67 16.7662 40.67 16.8378C40.67 18.446 39.3662 19.7498 37.7578 19.7498L37.75 19.7497V19.7509H130.938V19.7488C129.333 19.7461 128.032 18.4445 128.031 16.8389H128.026V10.2851C128.026 8.67682 126.723 7.37305 125.114 7.37305H43.5744Z" fill="white"/>
<mask id="mask1_1657_2481" style="mask-type:alpha" maskUnits="userSpaceOnUse" x="53" y="9" width="66" height="9">
<rect x="53.7734" y="9.92188" width="64.431" height="7.27996" fill="url(#paint2_linear_1657_2481)"/>
</mask>
<g mask="url(#mask1_1657_2481)">
<path d="M54.1531 14.9219V11.8442H56.1153V12.307H54.7034V13.2177H55.9937V13.6656H54.7034V14.9219H54.1531ZM57.668 14.9688C56.9749 14.9688 56.5547 14.5038 56.5547 13.7616V13.7595C56.5547 13.0258 56.9791 12.5459 57.6424 12.5459C58.3058 12.5459 58.7153 13.0108 58.7153 13.7147V13.8896H57.0858C57.0922 14.3076 57.3182 14.5508 57.6787 14.5508C57.9666 14.5508 58.1309 14.4057 58.1821 14.2991L58.1885 14.2842H58.6939L58.6875 14.3033C58.6129 14.6041 58.3015 14.9688 57.668 14.9688ZM57.6488 12.9618C57.3524 12.9618 57.1306 13.1623 57.09 13.5334H58.197C58.1607 13.1516 57.9453 12.9618 57.6488 12.9618ZM60.1635 14.9325C59.6281 14.9325 59.4084 14.7534 59.4084 14.3033V13.0023H59.0459V12.5907H59.4084V12.0191H59.9481V12.5907H60.4408V13.0023H59.9481V14.1775C59.9481 14.41 60.0398 14.5081 60.2616 14.5081C60.3362 14.5081 60.3768 14.506 60.4408 14.4996V14.9091C60.364 14.924 60.2659 14.9325 60.1635 14.9325ZM61.9487 14.9688C61.247 14.9688 60.8332 14.5145 60.8332 13.7531V13.7488C60.8332 12.9959 61.2448 12.5459 61.9465 12.5459C62.5459 12.5459 62.9042 12.8786 62.9639 13.3606V13.3692H62.4627L62.4606 13.3628C62.4115 13.1367 62.2388 12.9746 61.9487 12.9746C61.5861 12.9746 61.3728 13.2604 61.3728 13.7488V13.7531C61.3728 14.2479 61.5882 14.538 61.9487 14.538C62.2238 14.538 62.3923 14.4121 62.4584 14.1668L62.4627 14.1583L62.9639 14.1562L62.9597 14.1732C62.8829 14.651 62.5395 14.9688 61.9487 14.9688ZM63.4907 14.9219V11.6885H64.0218V12.9468H64.0581C64.169 12.6973 64.3929 12.5459 64.7299 12.5459C65.2503 12.5459 65.534 12.8594 65.534 13.4139V14.9219H65.0029V13.5377C65.0029 13.1751 64.8558 12.9916 64.5337 12.9916C64.218 12.9916 64.0218 13.2135 64.0218 13.5632V14.9219H63.4907ZM66.5557 14.9645C66.3616 14.9645 66.2165 14.8174 66.2165 14.6275C66.2165 14.4377 66.3616 14.2905 66.5557 14.2905C66.7519 14.2905 66.8948 14.4377 66.8948 14.6275C66.8948 14.8174 66.7519 14.9645 66.5557 14.9645ZM68.2342 14.9603C67.7906 14.9603 67.4685 14.6873 67.4685 14.2628V14.2586C67.4685 13.8426 67.7863 13.5995 68.3537 13.5654L68.953 13.5291V13.3286C68.953 13.0961 68.8016 12.9682 68.5158 12.9682C68.2726 12.9682 68.1148 13.0556 68.0615 13.2092L68.0593 13.2177H67.5581L67.5602 13.1985C67.6114 12.8061 67.9868 12.5459 68.5413 12.5459C69.1407 12.5459 69.4777 12.8359 69.4777 13.3286V14.9219H68.953V14.6019H68.9167C68.7888 14.828 68.5413 14.9603 68.2342 14.9603ZM67.9932 14.2372C67.9932 14.4356 68.1617 14.5529 68.3963 14.5529C68.7162 14.5529 68.953 14.3439 68.953 14.0666V13.8789L68.4283 13.913C68.1318 13.9322 67.9932 14.041 67.9932 14.233V14.2372ZM70.3884 12.2003C70.2135 12.2003 70.0706 12.0617 70.0706 11.8868C70.0706 11.7141 70.2135 11.5733 70.3884 11.5733C70.5612 11.5733 70.7041 11.7141 70.7041 11.8868C70.7041 12.0617 70.5612 12.2003 70.3884 12.2003ZM70.1218 14.9219V12.5907H70.6529V14.9219H70.1218Z" fill="white"/>
</g>
<path opacity="0.5" d="M120.864 14.5799C120.764 14.6804 120.764 14.8434 120.864 14.9439C120.965 15.0444 121.128 15.0444 121.228 14.9439L122.232 13.94L123.236 14.9439C123.337 15.0444 123.5 15.0444 123.6 14.9439C123.701 14.8434 123.701 14.6804 123.6 14.5799L122.596 13.576L123.6 12.5722C123.701 12.4717 123.701 12.3087 123.6 12.2082C123.5 12.1077 123.337 12.1077 123.236 12.2082L122.232 13.212L121.228 12.2082C121.128 12.1077 120.965 12.1077 120.864 12.2082C120.764 12.3087 120.764 12.4717 120.864 12.5722L121.868 13.576L120.864 14.5799Z" fill="white"/>
<path d="M50.5946 12.9664C50.6394 13.0335 50.6634 13.1124 50.6634 13.193C50.6634 13.3012 50.6204 13.405 50.5439 13.4815C50.4674 13.558 50.3637 13.6009 50.2555 13.6009C50.1748 13.6009 50.096 13.5771 50.0289 13.5322C49.9619 13.4874 49.9096 13.4237 49.8787 13.3492C49.8478 13.2746 49.8398 13.1926 49.8555 13.1135C49.8712 13.0343 49.9101 12.9617 49.9671 12.9046C50.0242 12.8476 50.0968 12.8088 50.176 12.793C50.2551 12.7773 50.3371 12.7853 50.4116 12.8162C50.4861 12.8471 50.5498 12.8994 50.5946 12.9664Z" fill="white"/>
<path d="M50.5946 15.0299C50.6394 15.097 50.6634 15.1759 50.6634 15.2565C50.6634 15.3647 50.6204 15.4685 50.5439 15.545C50.4674 15.6214 50.3637 15.6644 50.2555 15.6644C50.1748 15.6644 50.096 15.6405 50.0289 15.5957C49.9619 15.5509 49.9096 15.4872 49.8787 15.4127C49.8478 15.3381 49.8398 15.2561 49.8555 15.1769C49.8712 15.0978 49.9101 15.0251 49.9671 14.9681C50.0242 14.9111 50.0968 14.8722 50.176 14.8565C50.2551 14.8407 50.3371 14.8488 50.4116 14.8797C50.4861 14.9106 50.5498 14.9628 50.5946 15.0299Z" fill="white"/>
<path d="M50.6644 10.665H49.6855V11.644H50.6644V10.665Z" fill="white"/>
<path d="M48.5614 15.0299C48.6062 15.097 48.6302 15.1759 48.6302 15.2565C48.6302 15.3647 48.5872 15.4685 48.5107 15.545C48.4342 15.6214 48.3305 15.6644 48.2223 15.6644C48.1416 15.6644 48.0628 15.6405 47.9957 15.5957C47.9287 15.5509 47.8764 15.4872 47.8455 15.4127C47.8146 15.3381 47.8066 15.2561 47.8223 15.1769C47.838 15.0978 47.8769 15.0251 47.9339 14.9681C47.9909 14.9111 48.0636 14.8722 48.1428 14.8565C48.2219 14.8407 48.3039 14.8488 48.3784 14.8797C48.4529 14.9106 48.5166 14.9628 48.5614 15.0299Z" fill="white"/>
<path d="M48.7112 12.7031H47.7324V13.6821H48.7112V12.7031Z" fill="white"/>
<path d="M48.7383 10.665H47.7051V11.6984H48.7383V10.665Z" fill="white"/>
<path d="M46.7555 10.666H45.668V11.7537H46.7555V10.666Z" fill="white"/>
<path d="M46.6429 14.6865H45.6641V15.6655H46.6429V14.6865Z" fill="white"/>
<path d="M46.6973 12.6758H45.6641V13.7091H46.6973V12.6758Z" fill="white"/>
<rect x="-11.0059" y="35.0381" width="465.942" height="0.181999" fill="#282828"/>
<path opacity="0.5" fill-rule="evenodd" clip-rule="evenodd" d="M13.3995 26.0582C13.5052 26.1657 13.5037 26.3386 13.3962 26.4443L11.8699 27.9444H15.3889C15.5397 27.9444 15.6619 28.0667 15.6619 28.2174C15.6619 28.3682 15.5397 28.4904 15.3889 28.4904H11.8727L13.3956 29.9787C13.5034 30.0841 13.5054 30.2569 13.4 30.3647C13.2947 30.4726 13.1218 30.4745 13.014 30.3692L11.0119 28.4127C10.9594 28.3614 10.9298 28.2912 10.9297 28.2178C10.9296 28.1445 10.959 28.0742 11.0113 28.0227L13.0134 26.0549C13.1209 25.9492 13.2938 25.9507 13.3995 26.0582Z" fill="#F1F3F4"/>
<path fill-rule="evenodd" clip-rule="evenodd" d="M24.8427 26.0582C24.737 26.1657 24.7385 26.3386 24.846 26.4443L26.3723 27.9444H22.8533C22.7025 27.9444 22.5803 28.0667 22.5803 28.2174C22.5803 28.3682 22.7025 28.4904 22.8533 28.4904H26.3695L24.8466 29.9787C24.7387 30.0841 24.7368 30.2569 24.8421 30.3647C24.9475 30.4726 25.1204 30.4745 25.2282 30.3692L27.2303 28.4127C27.2828 28.3614 27.3124 28.2912 27.3125 28.2178C27.3126 28.1445 27.2832 28.0742 27.2309 28.0227L25.2288 26.0549C25.1212 25.9492 24.9484 25.9507 24.8427 26.0582Z" fill="#86888A"/>
<path opacity="0.5" d="M34.7784 28.3045C34.7784 27.2993 35.5933 26.4845 36.5985 26.4845C37.1472 26.4845 37.6394 26.7272 37.9734 27.1117L37.1446 27.9405H39.1467V25.9385L38.3601 26.7249C37.9272 26.2425 37.2985 25.9385 36.5985 25.9385C35.2918 25.9385 34.2324 26.9978 34.2324 28.3045C34.2324 29.6112 35.2918 30.6705 36.5985 30.6705C37.537 30.6705 38.3474 30.1241 38.7298 29.3333C38.7954 29.1976 38.7386 29.0343 38.6028 28.9687C38.4671 28.903 38.3038 28.9599 38.2382 29.0956C37.9435 29.705 37.3197 30.1245 36.5985 30.1245C35.5933 30.1245 34.7784 29.3096 34.7784 28.3045Z" fill="#F1F3F4"/>
<rect x="45" y="23.0117" width="224" height="10" rx="5" fill="white" fill-opacity="0.1"/>
<path fill-rule="evenodd" clip-rule="evenodd" d="M51.1377 26.4824C50.6351 26.4824 50.2277 26.8898 50.2277 27.3924V27.7564H50.0457C49.8446 27.7564 49.6816 27.9194 49.6816 28.1204V29.9404C49.6816 30.1414 49.8446 30.3044 50.0457 30.3044H52.2298C52.4308 30.3044 52.5938 30.1414 52.5938 29.9404V28.1204C52.5938 27.9194 52.4308 27.7564 52.2298 27.7564H52.0478V27.3924C52.0478 26.8898 51.6403 26.4824 51.1377 26.4824ZM51.6837 27.7564V27.3924C51.6837 27.0909 51.4393 26.8464 51.1377 26.8464C50.8361 26.8464 50.5917 27.0909 50.5917 27.3924V27.7564H51.6837Z" fill="#EAEAEA"/>
<path d="M57.3909 30.2061V26.4586H57.8239V27.9267H57.8637C57.998 27.6431 58.2494 27.4764 58.645 27.4764C59.2472 27.4764 59.5831 27.8322 59.5831 28.4692V30.2061H59.1501V28.5737C59.1501 28.091 58.9511 27.8596 58.5231 27.8596C58.0951 27.8596 57.8239 28.1482 57.8239 28.6185V30.2061H57.3909ZM61.32 30.226C60.7676 30.226 60.5361 30.0219 60.5361 29.5093V27.882H60.1131V27.5236H60.5361V26.8294H60.984V27.5236H61.5713V27.882H60.984V29.3998C60.984 29.7159 61.0935 29.8428 61.3722 29.8428C61.4494 29.8428 61.4917 29.8403 61.5713 29.8328V30.2011C61.4867 30.216 61.4046 30.226 61.32 30.226ZM63.1713 30.226C62.6189 30.226 62.3875 30.0219 62.3875 29.5093V27.882H61.9644V27.5236H62.3875V26.8294H62.8354V27.5236H63.4226V27.882H62.8354V29.3998C62.8354 29.7159 62.9448 29.8428 63.2235 29.8428C63.3007 29.8428 63.343 29.8403 63.4226 29.8328V30.2011C63.338 30.216 63.2559 30.226 63.1713 30.226ZM64.0696 31.1019V27.5236H64.5025V27.9516H64.5424C64.7066 27.653 65.0052 27.4764 65.3784 27.4764C66.0578 27.4764 66.5032 28.0263 66.5032 28.8624V28.8673C66.5032 29.7084 66.0602 30.2533 65.3784 30.2533C65.0102 30.2533 64.6892 30.0692 64.5424 29.783H64.5025V31.1019H64.0696ZM65.2789 29.8701C65.7691 29.8701 66.0602 29.4919 66.0602 28.8673V28.8624C66.0602 28.2378 65.7691 27.8596 65.2789 27.8596C64.7912 27.8596 64.4926 28.2428 64.4926 28.8624V28.8673C64.4926 29.4869 64.7912 29.8701 65.2789 29.8701ZM68.1007 30.2533C67.5035 30.2533 67.0929 29.9647 67.0431 29.5218H67.4861C67.5582 29.7457 67.7722 29.8925 68.1156 29.8925C68.4764 29.8925 68.7327 29.7208 68.7327 29.477V29.472C68.7327 29.2903 68.5959 29.1634 68.2649 29.0838L67.8494 28.9843C67.3467 28.8648 67.1203 28.6459 67.1203 28.2602V28.2577C67.1203 27.8123 67.5483 27.4764 68.1181 27.4764C68.6805 27.4764 69.0711 27.7575 69.1308 28.1955H68.7053C68.6481 27.984 68.4391 27.8372 68.1156 27.8372C67.7971 27.8372 67.5632 28.0014 67.5632 28.2378V28.2428C67.5632 28.4244 67.6976 28.5389 68.0136 28.616L68.4266 28.7155C68.9318 28.8375 69.1756 29.0564 69.1756 29.4396V29.4446C69.1756 29.9224 68.7103 30.2533 68.1007 30.2533ZM70.2008 28.305C70.0242 28.305 69.8773 28.1582 69.8773 27.9815C69.8773 27.8023 70.0242 27.658 70.2008 27.658C70.38 27.658 70.5243 27.8023 70.5243 27.9815C70.5243 28.1582 70.38 28.305 70.2008 28.305ZM70.2008 30.2309C70.0242 30.2309 69.8773 30.0841 69.8773 29.9075C69.8773 29.7283 70.0242 29.584 70.2008 29.584C70.38 29.584 70.5243 29.7283 70.5243 29.9075C70.5243 30.0841 70.38 30.2309 70.2008 30.2309ZM72.5075 26.4586L71.3728 31.1019H70.9573L72.092 26.4586H72.5075ZM74.0602 26.4586L72.9256 31.1019H72.51L73.6447 26.4586H74.0602ZM74.9834 30.2061L74.2319 27.5236H74.6649L75.1924 29.6686H75.2322L75.8319 27.5236H76.2425L76.8422 29.6686H76.882L77.4095 27.5236H77.84L77.0885 30.2061H76.6531L76.0534 28.1308H76.0136L75.4164 30.2061H74.9834ZM78.9299 30.2061L78.1784 27.5236H78.6114L79.1389 29.6686H79.1787L79.7784 27.5236H80.189L80.7887 29.6686H80.8285L81.356 27.5236H81.7865L81.035 30.2061H80.5996L79.9999 28.1308H79.9601L79.3629 30.2061H78.9299ZM82.8764 30.2061L82.1249 27.5236H82.5579L83.0854 29.6686H83.1252L83.7249 27.5236H84.1355L84.7352 29.6686H84.775L85.3025 27.5236H85.733L84.9815 30.2061H84.5461L83.9464 28.1308H83.9066L83.3094 30.2061H82.8764ZM86.2854 30.2309C86.1088 30.2309 85.9619 30.0841 85.9619 29.9075C85.9619 29.7283 86.1088 29.584 86.2854 29.584C86.4646 29.584 86.6089 29.7283 86.6089 29.9075C86.6089 30.0841 86.4646 30.2309 86.2854 30.2309ZM87.4748 30.2061V27.882H87.0294V27.5236H87.4748V27.225C87.4748 26.69 87.7436 26.4337 88.2537 26.4337C88.3582 26.4337 88.4528 26.4412 88.5423 26.4586V26.8045C88.4901 26.7945 88.4179 26.7921 88.3408 26.7921C88.0322 26.7921 87.9078 26.9438 87.9078 27.2375V27.5236H88.5175V27.882H87.9078V30.2061H87.4748ZM90.1224 30.2533C89.356 30.2533 88.8932 29.7159 88.8932 28.8748V28.8723C88.8932 28.0437 89.366 27.4764 90.0951 27.4764C90.8241 27.4764 91.2671 28.0188 91.2671 28.8201V28.9893H89.3361C89.3486 29.5442 89.6546 29.8676 90.1324 29.8676C90.4957 29.8676 90.7196 29.6959 90.7918 29.5342L90.8018 29.5118H91.2347L91.2297 29.5317C91.1377 29.895 90.7545 30.2533 90.1224 30.2533ZM90.0926 27.862C89.6944 27.862 89.3909 28.1333 89.3436 28.6434H90.8266C90.7818 28.1134 90.4882 27.862 90.0926 27.862ZM92.892 30.226C92.3395 30.226 92.1081 30.0219 92.1081 29.5093V27.882H91.6851V27.5236H92.1081V26.8294H92.556V27.5236H93.1433V27.882H92.556V29.3998C92.556 29.7159 92.6655 29.8428 92.9442 29.8428C93.0213 29.8428 93.0636 29.8403 93.1433 29.8328V30.2011C93.0587 30.216 92.9766 30.226 92.892 30.226ZM94.8478 30.2533C94.0963 30.2533 93.6161 29.7084 93.6161 28.8574V28.8524C93.6161 28.0188 94.0938 27.4764 94.8453 27.4764C95.4972 27.4764 95.8879 27.8521 95.9675 28.3299L95.97 28.3448H95.5395L95.5371 28.3373C95.4699 28.0736 95.231 27.8596 94.8453 27.8596C94.3626 27.8596 94.059 28.2477 94.059 28.8524V28.8574C94.059 29.4745 94.3675 29.8701 94.8453 29.8701C95.2061 29.8701 95.435 29.7109 95.5346 29.4123L95.5395 29.3973L95.9675 29.3949L95.9626 29.4222C95.8531 29.9075 95.4923 30.2533 94.8478 30.2533ZM96.6269 30.2061V26.4586H97.0599V27.9267H97.0997C97.2341 27.6431 97.4854 27.4764 97.8811 27.4764C98.4832 27.4764 98.8192 27.8322 98.8192 28.4692V30.2061H98.3862V28.5737C98.3862 28.091 98.1871 27.8596 97.7591 27.8596C97.3311 27.8596 97.0599 28.1482 97.0599 28.6185V30.2061H96.6269ZM99.9563 30.2309C99.7797 30.2309 99.6328 30.0841 99.6328 29.9075C99.6328 29.7283 99.7797 29.584 99.9563 29.584C100.135 29.584 100.28 29.7283 100.28 29.9075C100.28 30.0841 100.135 30.2309 99.9563 30.2309ZM101.852 30.2533C101.342 30.2533 100.957 29.9448 100.957 29.4571V29.4521C100.957 28.9743 101.31 28.6981 101.935 28.6608L102.703 28.6135V28.3697C102.703 28.0387 102.502 27.8596 102.101 27.8596C101.78 27.8596 101.569 27.979 101.499 28.188L101.497 28.1955H101.064L101.066 28.1806C101.136 27.76 101.544 27.4764 102.116 27.4764C102.771 27.4764 103.136 27.8123 103.136 28.3697V30.2061H102.703V29.8104H102.664C102.494 30.0966 102.213 30.2533 101.852 30.2533ZM101.4 29.4471C101.4 29.7183 101.631 29.8776 101.942 29.8776C102.382 29.8776 102.703 29.5889 102.703 29.2057V28.9619L101.987 29.0067C101.579 29.0316 101.4 29.1759 101.4 29.4421V29.4471ZM104.157 27.0061C103.992 27.0061 103.858 26.8717 103.858 26.7075C103.858 26.5432 103.992 26.4089 104.157 26.4089C104.321 26.4089 104.455 26.5432 104.455 26.7075C104.455 26.8717 104.321 27.0061 104.157 27.0061ZM103.938 30.2061V27.5236H104.371V30.2061H103.938ZM106.334 26.4586L105.199 31.1019H104.784L105.918 26.4586H106.334ZM107.844 31.1516C107.197 31.1516 106.784 30.8605 106.717 30.4201L106.722 30.4176H107.17L107.173 30.4201C107.22 30.6241 107.459 30.7684 107.844 30.7684C108.325 30.7684 108.611 30.542 108.611 30.1463V29.6039H108.571C108.402 29.9 108.098 30.0667 107.73 30.0667C107.036 30.0667 106.605 29.5292 106.605 28.7778V28.7728C106.605 28.0213 107.038 27.4764 107.74 27.4764C108.118 27.4764 108.412 27.663 108.576 27.9666H108.606V27.5236H109.039V30.1687C109.039 30.7684 108.576 31.1516 107.844 31.1516ZM107.824 29.6835C108.322 29.6835 108.621 29.3103 108.621 28.7778V28.7728C108.621 28.2403 108.32 27.8596 107.824 27.8596C107.327 27.8596 107.048 28.2403 107.048 28.7728V28.7778C107.048 29.3103 107.327 29.6835 107.824 29.6835ZM110.94 30.2533C110.173 30.2533 109.711 29.7159 109.711 28.8748V28.8723C109.711 28.0437 110.183 27.4764 110.912 27.4764C111.642 27.4764 112.084 28.0188 112.084 28.8201V28.9893H110.154C110.166 29.5442 110.472 29.8676 110.95 29.8676C111.313 29.8676 111.537 29.6959 111.609 29.5342L111.619 29.5118H112.052L112.047 29.5317C111.955 29.895 111.572 30.2533 110.94 30.2533ZM110.91 27.862C110.512 27.862 110.208 28.1333 110.161 28.6434H111.644C111.599 28.1134 111.306 27.862 110.91 27.862ZM113.709 30.226C113.157 30.226 112.926 30.0219 112.926 29.5093V27.882H112.503V27.5236H112.926V26.8294H113.373V27.5236H113.961V27.882H113.373V29.3998C113.373 29.7159 113.483 29.8428 113.762 29.8428C113.839 29.8428 113.881 29.8403 113.961 29.8328V30.2011C113.876 30.216 113.794 30.226 113.709 30.226ZM114.471 28.9619V28.5588H116.143V28.9619H114.471ZM116.991 30.2061V27.882H116.546V27.5236H116.991V27.225C116.991 26.69 117.26 26.4337 117.77 26.4337C117.875 26.4337 117.969 26.4412 118.059 26.4586V26.8045C118.007 26.7945 117.935 26.7921 117.857 26.7921C117.549 26.7921 117.424 26.9438 117.424 27.2375V27.5236H118.034V27.882H117.424V30.2061H116.991ZM119.639 30.2533C118.873 30.2533 118.41 29.7159 118.41 28.8748V28.8723C118.41 28.0437 118.883 27.4764 119.612 27.4764C120.341 27.4764 120.784 28.0188 120.784 28.8201V28.9893H118.853C118.865 29.5442 119.171 29.8676 119.649 29.8676C120.012 29.8676 120.236 29.6959 120.308 29.5342L120.318 29.5118H120.751L120.746 29.5317C120.654 29.895 120.271 30.2533 119.639 30.2533ZM119.609 27.862C119.211 27.862 118.907 28.1333 118.86 28.6434H120.343C120.298 28.1134 120.005 27.862 119.609 27.862ZM122.409 30.226C121.856 30.226 121.625 30.0219 121.625 29.5093V27.882H121.202V27.5236H121.625V26.8294H122.073V27.5236H122.66V27.882H122.073V29.3998C122.073 29.7159 122.182 29.8428 122.461 29.8428C122.538 29.8428 122.58 29.8403 122.66 29.8328V30.2011C122.575 30.216 122.493 30.226 122.409 30.226ZM124.364 30.2533C123.613 30.2533 123.133 29.7084 123.133 28.8574V28.8524C123.133 28.0188 123.61 27.4764 124.362 27.4764C125.014 27.4764 125.405 27.8521 125.484 28.3299L125.487 28.3448H125.056L125.054 28.3373C124.986 28.0736 124.748 27.8596 124.362 27.8596C123.879 27.8596 123.576 28.2477 123.576 28.8524V28.8574C123.576 29.4745 123.884 29.8701 124.362 29.8701C124.723 29.8701 124.952 29.7109 125.051 29.4123L125.056 29.3973L125.484 29.3949L125.479 29.4222C125.37 29.9075 125.009 30.2533 124.364 30.2533ZM126.144 30.2061V26.4586H126.577V27.9267H126.616C126.751 27.6431 127.002 27.4764 127.398 27.4764C128 27.4764 128.336 27.8322 128.336 28.4692V30.2061H127.903V28.5737C127.903 28.091 127.704 27.8596 127.276 27.8596C126.848 27.8596 126.577 28.1482 126.577 28.6185V30.2061H126.144ZM129.082 28.9619V28.5588H130.754V28.9619H129.082ZM131.991 30.2061L131.24 27.5236H131.673L132.2 29.6686H132.24L132.84 27.5236H133.25L133.85 29.6686H133.89L134.417 27.5236H134.848L134.096 30.2061H133.661L133.061 28.1308H133.021L132.424 30.2061H131.991ZM136.082 30.2533C135.572 30.2533 135.186 29.9448 135.186 29.4571V29.4521C135.186 28.9743 135.54 28.6981 136.164 28.6608L136.933 28.6135V28.3697C136.933 28.0387 136.731 27.8596 136.331 27.8596C136.01 27.8596 135.798 27.979 135.729 28.188L135.726 28.1955H135.293L135.296 28.1806C135.365 27.76 135.773 27.4764 136.346 27.4764C137 27.4764 137.366 27.8123 137.366 28.3697V30.2061H136.933V29.8104H136.893C136.724 30.0966 136.443 30.2533 136.082 30.2533ZM135.629 29.4471C135.629 29.7183 135.861 29.8776 136.172 29.8776C136.612 29.8776 136.933 29.5889 136.933 29.2057V28.9619L136.216 29.0067C135.808 29.0316 135.629 29.1759 135.629 29.4421V29.4471ZM138.182 30.2061V26.4586H138.615V30.2061H138.182ZM139.471 30.2061V26.4586H139.904V30.2061H139.471ZM141.83 30.2533C141.064 30.2533 140.601 29.7159 140.601 28.8748V28.8723C140.601 28.0437 141.074 27.4764 141.803 27.4764C142.532 27.4764 142.975 28.0188 142.975 28.8201V28.9893H141.044C141.056 29.5442 141.362 29.8676 141.84 29.8676C142.203 29.8676 142.427 29.6959 142.499 29.5342L142.509 29.5118H142.942L142.937 29.5317C142.845 29.895 142.462 30.2533 141.83 30.2533ZM141.8 27.862C141.402 27.862 141.098 28.1333 141.051 28.6434H142.534C142.489 28.1134 142.196 27.862 141.8 27.862ZM144.6 30.226C144.047 30.226 143.816 30.0219 143.816 29.5093V27.882H143.393V27.5236H143.816V26.8294H144.264V27.5236H144.851V27.882H144.264V29.3998C144.264 29.7159 144.373 29.8428 144.652 29.8428C144.729 29.8428 144.771 29.8403 144.851 29.8328V30.2011C144.766 30.216 144.684 30.226 144.6 30.226Z" fill="white"/>
</g>
<rect x="225" y="12" width="48" height="82" rx="6" fill="white"/>
<path d="M254.998 52.687C255.106 52.848 255.163 53.0373 255.163 53.2308C255.163 53.4905 255.06 53.7395 254.876 53.9232C254.693 54.1066 254.444 54.2098 254.184 54.2098C253.99 54.2098 253.801 54.1525 253.64 54.0448C253.479 53.9373 253.354 53.7844 253.28 53.6056C253.205 53.4267 253.186 53.2299 253.224 53.0399C253.262 52.85 253.355 52.6756 253.492 52.5387C253.629 52.4018 253.803 52.3086 253.993 52.2707C254.183 52.233 254.38 52.2524 254.559 52.3265C254.738 52.4006 254.89 52.5261 254.998 52.687Z" fill="#000D3D"/>
<path d="M254.998 57.6411C255.106 57.8021 255.163 57.9914 255.163 58.1849C255.163 58.4446 255.06 58.6936 254.876 58.8773C254.693 59.0607 254.444 59.1639 254.184 59.1639C253.99 59.1639 253.801 59.1066 253.64 58.9989C253.479 58.8914 253.354 58.7385 253.28 58.5597C253.205 58.3808 253.186 58.184 253.224 57.994C253.262 57.8041 253.355 57.6297 253.492 57.4928C253.629 57.3559 253.803 57.2627 253.993 57.2248C254.183 57.1871 254.38 57.2065 254.559 57.2806C254.738 57.3547 254.89 57.4802 254.998 57.6411Z" fill="#000D3D"/>
<path d="M255.164 47.165H252.814V49.5145H255.164V47.165Z" fill="#000D3D"/>
<path d="M250.117 57.6411C250.225 57.8021 250.282 57.9914 250.282 58.1849C250.282 58.4446 250.179 58.6936 249.995 58.8773C249.812 59.0607 249.563 59.1639 249.303 59.1639C249.11 59.1639 248.92 59.1066 248.759 58.9989C248.598 58.8914 248.473 58.7385 248.399 58.5597C248.325 58.3808 248.305 58.184 248.343 57.994C248.381 57.8041 248.474 57.6297 248.611 57.4928C248.748 57.3559 248.922 57.2627 249.112 57.2248C249.302 57.1871 249.499 57.2065 249.678 57.2806C249.857 57.3547 250.01 57.4802 250.117 57.6411Z" fill="#000D3D"/>
<path d="M250.476 52.0557H248.127V54.4051H250.476V52.0557Z" fill="#000D3D"/>
<path d="M250.543 47.165H248.062V49.645H250.543V47.165Z" fill="#000D3D"/>
<path d="M245.782 47.166H243.172V49.7765H245.782V47.166Z" fill="#000D3D"/>
<path d="M245.514 56.8154H243.164V59.1648H245.514V56.8154Z" fill="#000D3D"/>
<path d="M245.644 51.9902H243.164V54.4702H245.644V51.9902Z" fill="#000D3D"/>
<defs>
<filter id="filter0_bi_1657_2481" x="-26.8727" y="-26.8806" width="339.745" height="239.757" filterUnits="userSpaceOnUse" color-interpolation-filters="sRGB">
<feFlood flood-opacity="0" result="BackgroundImageFix"/>
<feGaussianBlur in="BackgroundImageFix" stdDeviation="13.4393"/>
<feComposite in2="SourceAlpha" operator="in" result="effect1_backgroundBlur_1657_2481"/>
<feBlend mode="normal" in="SourceGraphic" in2="effect1_backgroundBlur_1657_2481" result="shape"/>
<feColorMatrix in="SourceAlpha" type="matrix" values="0 0 0 0 0 0 0 0 0 0 0 0 0 0 0 0 0 0 127 0" result="hardAlpha"/>
<feOffset dx="5.37572" dy="5.37572"/>
<feGaussianBlur stdDeviation="13.4393"/>
<feComposite in2="hardAlpha" operator="arithmetic" k2="-1" k3="1"/>
<feColorMatrix type="matrix" values="0 0 0 0 1 0 0 0 0 1 0 0 0 0 1 0 0 0 0.1 0"/>
<feBlend mode="normal" in2="shape" result="effect2_innerShadow_1657_2481"/>
</filter>
<linearGradient id="paint0_linear_1657_2481" x1="-56.0995" y1="-118.114" x2="231.767" y2="204.257" gradientUnits="userSpaceOnUse">
<stop offset="0.0413108" stop-color="white"/>
<stop offset="0.605241" stop-color="white" stop-opacity="0"/>
</linearGradient>
<linearGradient id="paint1_linear_1657_2481" x1="-56.0995" y1="-118.114" x2="231.767" y2="204.257" gradientUnits="userSpaceOnUse">
<stop offset="0.0413108" stop-color="white"/>
<stop offset="0.605241" stop-color="white" stop-opacity="0"/>
</linearGradient>
<linearGradient id="paint2_linear_1657_2481" x1="118.204" y1="13.5619" x2="53.7734" y2="13.5619" gradientUnits="userSpaceOnUse">
<stop stop-opacity="0"/>
<stop offset="0.100283"/>
</linearGradient>
<clipPath id="clip0_1657_2481">
<rect width="286" height="37" fill="white"/>
</clipPath>
</defs>
</svg>
