<svg width="414" height="362" viewBox="0 0 414 362" fill="none" xmlns="http://www.w3.org/2000/svg">
<path d="M180.128 284.092L197.128 237.092L231.128 244.092L233.628 267.092C240.128 262.592 259.428 261.492 270.628 267.092C281.828 272.692 287.962 279.758 289.628 282.592C297.128 280.758 314.728 280.092 325.128 292.092C335.528 304.092 336.795 317.092 336.128 322.092C339.295 317.758 348.628 309.192 360.628 309.592C372.628 309.992 382.295 319.425 385.628 324.092C388.295 323.092 394.728 322.092 399.128 326.092C404.628 331.092 400.628 340.592 398.128 342.092C397.029 342.752 306.007 361.233 216.128 361.983C142.526 362.596 69.6892 346.095 47.6284 342.092C45.1284 337.925 41.4284 327.892 46.6284 321.092C51.8284 314.292 60.4617 314.592 64.1284 315.592C68.6284 299.592 77.6284 293.483 87.1284 291.483C94.7284 289.883 104.962 293.092 108.128 296.092C107.628 285.592 111.128 270.592 128.628 269.592C142.628 268.792 148.462 277.925 149.628 282.592C150.962 279.092 156.028 272.092 165.628 272.092C175.228 272.092 179.295 280.092 180.128 284.092Z" fill="url(#paint0_linear_5804_42766)"/>
<path d="M191.628 305.592L206.128 242.092L221.128 245.483L224.128 302.592C225.128 300.592 228.528 296.592 234.128 296.592C239.728 296.592 244.462 301.592 246.128 304.092C250.128 297.592 258.128 293.483 267.128 294.983C274.328 296.183 278.795 302.425 279.128 305.592C282.795 303.925 291.728 302.192 298.128 308.592C304.528 314.992 302.462 321.925 300.628 324.592C315.828 322.992 323.628 335.925 325.628 342.592C325.628 342.592 269.128 362.983 214.128 361.483C159.128 359.983 94.1284 342.983 94.1284 342.983C100.128 325.983 106.128 314.983 120.628 310.592C134.506 306.39 143.128 312.092 146.128 316.592C146.628 313.983 147.985 310.497 152.128 308.592C155.628 306.983 158.795 307.425 161.628 308.592C163.628 304.092 166.611 297.381 177.628 296.592C186.128 295.983 190.628 302.258 191.628 305.592Z" fill="url(#paint1_radial_5804_42766)"/>
<path d="M187.306 215.039L201.628 204.982L197.628 228.155C191.389 228.671 185.831 232.3 182.849 237.805L177.37 247.921C176.836 248.907 175.332 248.402 175.502 247.293L178.204 229.704C179.114 223.78 182.401 218.484 187.306 215.039Z" fill="url(#paint2_linear_5804_42766)"/>
<path d="M247.406 224.086L236.078 210.747L234.113 234.179C240.021 236.251 244.486 241.163 245.985 247.241L248.74 258.411C249.009 259.5 250.591 259.389 250.706 258.273L252.521 240.571C253.132 234.609 251.285 228.655 247.406 224.086Z" fill="url(#paint3_linear_5804_42766)"/>
<path d="M194.674 236.29L206.628 151.484L243.128 156.983L234.891 244.662C231.198 246.041 221.519 248.491 212.342 247.257C203.166 246.023 196.74 239.432 194.674 236.29Z" fill="white"/>
<path d="M194.835 235.165L206.628 152.482L243.128 156.482L235.066 242.787C234.959 243.933 234.21 244.922 233.11 245.258C228.626 246.628 220.295 248.325 212.342 247.256C203.988 246.132 197.914 240.569 195.334 237.21C194.888 236.631 194.731 235.889 194.835 235.165Z" fill="url(#paint4_linear_5804_42766)"/>
<path d="M211.428 128.983C208.428 137.483 207.628 147.983 206.628 152.483C209.205 154.614 214.565 158.847 224.628 159.983C234.692 161.12 240.63 158.185 243.128 156.983C243.806 152.397 244.732 141.526 244.128 133.983C243.128 121.484 236.753 110.623 230.231 109.775C223.442 108.892 215.487 117.484 211.428 128.983Z" fill="url(#paint5_linear_5804_42766)"/>
<path d="M214.128 242.483C204.539 240.969 198.895 234.816 195.228 231.982L194.588 236.382C194.489 237.066 194.749 237.752 195.266 238.211C198.543 241.126 203.957 246.364 213.128 247.982C219.79 249.158 229.065 246.888 233.77 245.217C234.486 244.963 234.967 244.303 235.027 243.546L235.328 239.782C230.995 241.116 223.628 243.982 214.128 242.483Z" fill="url(#paint6_linear_5804_42766)"/>
<circle cx="220.985" cy="184.988" r="12.5" transform="rotate(-1.3374 220.985 184.988)" fill="url(#paint7_linear_5804_42766)"/>
<circle cx="220.984" cy="184.988" r="9.82312" transform="rotate(-1.3374 220.984 184.988)" fill="url(#paint8_linear_5804_42766)"/>
<path d="M219.296 243.3C220.429 234.307 220.175 225.468 217.608 219.152C213.346 223.703 210.267 233.217 209.075 242.036C207.884 250.856 206.508 271.15 209.776 272.034C212.584 272.793 218.215 251.887 219.296 243.3Z" fill="url(#paint9_linear_5804_42766)"/>
<defs>
<linearGradient id="paint0_linear_5804_42766" x1="222.944" y1="237.092" x2="222.944" y2="342.754" gradientUnits="userSpaceOnUse">
<stop stop-color="#FAE0F4"/>
<stop offset="1" stop-color="#FFEFFB" stop-opacity="0"/>
</linearGradient>
<radialGradient id="paint1_radial_5804_42766" cx="0" cy="0" r="1" gradientUnits="userSpaceOnUse" gradientTransform="translate(215.628 241.983) rotate(86.4555) scale(94.9745 208.681)">
<stop offset="0.015625" stop-color="#DD9AC6"/>
<stop offset="0.229167" stop-color="#E8AECD"/>
<stop offset="1" stop-color="#FFCFEC" stop-opacity="0"/>
</radialGradient>
<linearGradient id="paint2_linear_5804_42766" x1="181.402" y1="204.982" x2="189.029" y2="262.548" gradientUnits="userSpaceOnUse">
<stop stop-color="#435EE0"/>
<stop offset="0.9999" stop-color="#1D34A3"/>
<stop offset="1" stop-color="#98A0E9"/>
</linearGradient>
<linearGradient id="paint3_linear_5804_42766" x1="255.653" y1="215.841" x2="233.773" y2="269.63" gradientUnits="userSpaceOnUse">
<stop stop-color="#435EE0"/>
<stop offset="0.9999" stop-color="#1D34A3"/>
<stop offset="1" stop-color="#98A0E9"/>
</linearGradient>
<linearGradient id="paint4_linear_5804_42766" x1="239.917" y1="215.06" x2="173.215" y2="218.706" gradientUnits="userSpaceOnUse">
<stop stop-color="#A9B1F3"/>
<stop offset="1" stop-color="white" stop-opacity="0"/>
</linearGradient>
<linearGradient id="paint5_linear_5804_42766" x1="228.131" y1="107.484" x2="238.131" y2="163.985" gradientUnits="userSpaceOnUse">
<stop stop-color="#738AFD"/>
<stop offset="0.244792" stop-color="#516BEB"/>
<stop offset="1" stop-color="#1B32A0"/>
</linearGradient>
<linearGradient id="paint6_linear_5804_42766" x1="194.628" y1="237.483" x2="234.628" y2="246.983" gradientUnits="userSpaceOnUse">
<stop stop-color="#8D9FFC"/>
<stop offset="1" stop-color="#4251DF"/>
</linearGradient>
<linearGradient id="paint7_linear_5804_42766" x1="220.985" y1="172.488" x2="222.708" y2="203.029" gradientUnits="userSpaceOnUse">
<stop stop-color="#DFE4FF"/>
<stop offset="1" stop-color="#687CE2"/>
</linearGradient>
<linearGradient id="paint8_linear_5804_42766" x1="228.393" y1="195.159" x2="209.564" y2="166.212" gradientUnits="userSpaceOnUse">
<stop stop-color="#F1F3FF"/>
<stop offset="0.989583" stop-color="#CED0FF"/>
</linearGradient>
<linearGradient id="paint9_linear_5804_42766" x1="222.628" y1="224.982" x2="203.515" y2="275.177" gradientUnits="userSpaceOnUse">
<stop stop-color="#4B68F3"/>
<stop offset="0.242368" stop-color="#3B55D4"/>
<stop offset="1" stop-color="#1E35A4"/>
</linearGradient>
</defs>
</svg>
